<?xml version="1.0" encoding="UTF-8" standalone="no"?>
<!DOCTYPE svg PUBLIC "-//W3C//DTD SVG 1.1//EN"
 "http://www.w3.org/Graphics/SVG/1.1/DTD/svg11.dtd">
<!-- Generated by graphviz version 2.36.0 (20140111.2315)
 -->
<!-- Title: o2::phos::Detector Pages: 1 -->
<!--zoomable 1284 -->
<svg id="main" version="1.1" xmlns="http://www.w3.org/2000/svg" xmlns:xlink="http://www.w3.org/1999/xlink" xml:space="preserve" onload="init(evt)">
<style type="text/css"><![CDATA[
.edge:hover path { stroke: red; }
.edge:hover polygon { stroke: red; fill: red; }
]]></style>
<script type="text/javascript"><![CDATA[
var edges = document.getElementsByTagName('g');
if (edges && edges.length) {
  for (var i=0;i<edges.length;i++) {
    if (edges[i].id.substr(0,4)=='edge') {
      edges[i].setAttribute('class','edge');
    }
  }
}
]]></script>
        <defs>
                <circle id="rim" cx="0" cy="0" r="7"/>
                <circle id="rim2" cx="0" cy="0" r="3.5"/>
                <g id="zoomPlus">
                        <use xlink:href="#rim" fill="#404040">
                                <set attributeName="fill" to="#808080" begin="zoomplus.mouseover" end="zoomplus.mouseout"/>
                        </use>
                        <path d="M-4,0h8M0,-4v8" fill="none" stroke="white" stroke-width="1.5" pointer-events="none"/>
                </g>
                <g id="zoomMin">
                        <use xlink:href="#rim" fill="#404040">
                                <set attributeName="fill" to="#808080" begin="zoomminus.mouseover" end="zoomminus.mouseout"/>
                        </use>
                        <path d="M-4,0h8" fill="none" stroke="white" stroke-width="1.5" pointer-events="none"/>
                </g>
                <g id="dirArrow">
                        <path fill="none" stroke="white" stroke-width="1.5" d="M0,-3.0v7 M-2.5,-0.5L0,-3.0L2.5,-0.5"/>
                </g>
               <g id="resetDef">
                       <use xlink:href="#rim2" fill="#404040">
                               <set attributeName="fill" to="#808080" begin="reset.mouseover" end="reset.mouseout"/>
                       </use>
               </g>
        </defs>

<script type="text/javascript">
var viewWidth = 634;
var viewHeight = 1284;
var sectionId = 'dynsection-1';
</script>
<script xlink:href="../../svgpan.js"/>
<svg id="graph" class="graph">
<g id="viewport">
<title>o2::phos::Detector</title>
<!-- Node1 -->
<g id="node1" class="node"><title>Node1</title>
<polygon fill="#bfbfbf" stroke="black" points="232,-0.5 232,-233.5 382,-233.5 382,-0.5 232,-0.5"/>
<text text-anchor="middle" x="307" y="-221.5" font-family="Helvetica,sans-Serif" font-size="10.00">o2::phos::Detector</text>
<polyline fill="none" stroke="black" points="232,-214.5 382,-214.5 "/>
<text text-anchor="middle" x="307" y="-202.5" font-family="Helvetica,sans-Serif" font-size="10.00"> </text>
<polyline fill="none" stroke="black" points="232,-195.5 382,-195.5 "/>
<text text-anchor="start" x="240" y="-183.5" font-family="Helvetica,sans-Serif" font-size="10.00">+ Detector()</text>
<text text-anchor="start" x="240" y="-172.5" font-family="Helvetica,sans-Serif" font-size="10.00">+ Detector()</text>
<text text-anchor="start" x="240" y="-161.5" font-family="Helvetica,sans-Serif" font-size="10.00">+ ~Detector()</text>
<text text-anchor="start" x="240" y="-150.5" font-family="Helvetica,sans-Serif" font-size="10.00">+ InitializeO2Detector()</text>
<text text-anchor="start" x="240" y="-139.5" font-family="Helvetica,sans-Serif" font-size="10.00">+ ProcessHits()</text>
<text text-anchor="start" x="240" y="-128.5" font-family="Helvetica,sans-Serif" font-size="10.00">+ AddHit()</text>
<text text-anchor="start" x="240" y="-117.5" font-family="Helvetica,sans-Serif" font-size="10.00">+ Register()</text>
<text text-anchor="start" x="240" y="-106.5" font-family="Helvetica,sans-Serif" font-size="10.00">+ getHits()</text>
<text text-anchor="start" x="240" y="-95.5" font-family="Helvetica,sans-Serif" font-size="10.00">+ Reset()</text>
<text text-anchor="start" x="240" y="-84.5" font-family="Helvetica,sans-Serif" font-size="10.00">+ FinishEvent()</text>
<text text-anchor="start" x="240" y="-73.5" font-family="Helvetica,sans-Serif" font-size="10.00">+ EndOfEvent()</text>
<text text-anchor="start" x="240" y="-62.5" font-family="Helvetica,sans-Serif" font-size="10.00">+ GetGeometry()</text>
<text text-anchor="start" x="240" y="-51.5" font-family="Helvetica,sans-Serif" font-size="10.00"># CreateMaterials()</text>
<text text-anchor="start" x="240" y="-40.5" font-family="Helvetica,sans-Serif" font-size="10.00"># ConstructGeometry()</text>
<text text-anchor="start" x="240" y="-29.5" font-family="Helvetica,sans-Serif" font-size="10.00"># ConstructSupportGeometry()</text>
<text text-anchor="start" x="240" y="-18.5" font-family="Helvetica,sans-Serif" font-size="10.00"># ConstructEMCGeometry()</text>
<text text-anchor="start" x="240" y="-7.5" font-family="Helvetica,sans-Serif" font-size="10.00"># ConstructCPVGeometry()</text>
</g>
<!-- Node2 -->
<g id="node2" class="node"><title>Node2</title>
<g id="a_node2"><a xlink:href="../../d4/d8a/classo2_1_1Base_1_1DetImpl.html" target="_top" xlink:title="{o2::Base::DetImpl\&lt;\l Detector \&gt;\n||+ getHitBranchNames()\l+ updateHitTrackIndices()\l+ attachHits()\l+ fillHitBranch()\l+ CloneModule()\l+ freeHitBuffers()\l+ setHits()\l+ createHitBuffers()\l+ initializeLate()\l+ BeginEvent()\l+ ~DetImpl()\l# ClassDefOverride()\l}">
<polygon fill="none" stroke="black" points="242,-272.5 242,-461.5 372,-461.5 372,-272.5 242,-272.5"/>
<text text-anchor="start" x="250" y="-449.5" font-family="Helvetica,sans-Serif" font-size="10.00">o2::Base::DetImpl&lt;</text>
<text text-anchor="middle" x="307" y="-438.5" font-family="Helvetica,sans-Serif" font-size="10.00"> Detector &gt;</text>
<polyline fill="none" stroke="black" points="242,-431.5 372,-431.5 "/>
<text text-anchor="middle" x="307" y="-419.5" font-family="Helvetica,sans-Serif" font-size="10.00"> </text>
<polyline fill="none" stroke="black" points="242,-412.5 372,-412.5 "/>
<text text-anchor="start" x="250" y="-400.5" font-family="Helvetica,sans-Serif" font-size="10.00">+ getHitBranchNames()</text>
<text text-anchor="start" x="250" y="-389.5" font-family="Helvetica,sans-Serif" font-size="10.00">+ updateHitTrackIndices()</text>
<text text-anchor="start" x="250" y="-378.5" font-family="Helvetica,sans-Serif" font-size="10.00">+ attachHits()</text>
<text text-anchor="start" x="250" y="-367.5" font-family="Helvetica,sans-Serif" font-size="10.00">+ fillHitBranch()</text>
<text text-anchor="start" x="250" y="-356.5" font-family="Helvetica,sans-Serif" font-size="10.00">+ CloneModule()</text>
<text text-anchor="start" x="250" y="-345.5" font-family="Helvetica,sans-Serif" font-size="10.00">+ freeHitBuffers()</text>
<text text-anchor="start" x="250" y="-334.5" font-family="Helvetica,sans-Serif" font-size="10.00">+ setHits()</text>
<text text-anchor="start" x="250" y="-323.5" font-family="Helvetica,sans-Serif" font-size="10.00">+ createHitBuffers()</text>
<text text-anchor="start" x="250" y="-312.5" font-family="Helvetica,sans-Serif" font-size="10.00">+ initializeLate()</text>
<text text-anchor="start" x="250" y="-301.5" font-family="Helvetica,sans-Serif" font-size="10.00">+ BeginEvent()</text>
<text text-anchor="start" x="250" y="-290.5" font-family="Helvetica,sans-Serif" font-size="10.00">+ ~DetImpl()</text>
<text text-anchor="start" x="250" y="-279.5" font-family="Helvetica,sans-Serif" font-size="10.00"># ClassDefOverride()</text>
</a>
</g>
</g>
<!-- Node2&#45;&gt;Node1 -->
<g id="edge1" class="edge"><title>Node2&#45;&gt;Node1</title>
<path fill="none" stroke="midnightblue" d="M307,-262.102C307,-252.691 307,-243.12 307,-233.616"/>
<polygon fill="none" stroke="midnightblue" points="303.5,-262.242 307,-272.242 310.5,-262.242 303.5,-262.242"/>
</g>
<!-- Node3 -->
<g id="node3" class="node"><title>Node3</title>
<g id="a_node3"><a xlink:href="../../d7/d02/classo2_1_1Base_1_1Detector.html" target="_top" xlink:title="{o2::Base::Detector\n||+ Detector()\l+ Detector()\l+ ~Detector()\l+ Material()\l+ Mixture()\l+ Medium()\l+ SpecialCuts()\l+ SpecialCut()\l+ SpecialProcesses()\l+ SpecialProcess()\l+ Matrix()\l+ addAlignableVolumes()\l+ defineWrapperVolume()\l+ setNumberOfWrapperVolumes()\l+ defineLayer()\l+ defineLayerTurbo()\l+ getMaterialID()\l+ getMediumID()\l+ getMediumIDMappingAsVector()\l+ addNameTo()\l+ getHitBranchNames()\l+ updateHitTrackIndices()\l+ attachHits()\l+ fillHitBranch()\l+ InitializeO2Detector()\l+ Initialize()\l+ initializeLate()\l+ GetCollection()\l+ setDensityFactor()\l+ getDensityFactor()\l+ initFieldTrackingParams()\l# Detector()\l# operator=()\l}">
<polygon fill="none" stroke="black" points="-0.5,-770.5 -0.5,-1179.5 166.5,-1179.5 166.5,-770.5 -0.5,-770.5"/>
<text text-anchor="middle" x="83" y="-1167.5" font-family="Helvetica,sans-Serif" font-size="10.00">o2::Base::Detector</text>
<polyline fill="none" stroke="black" points="-0.5,-1160.5 166.5,-1160.5 "/>
<text text-anchor="middle" x="83" y="-1148.5" font-family="Helvetica,sans-Serif" font-size="10.00"> </text>
<polyline fill="none" stroke="black" points="-0.5,-1141.5 166.5,-1141.5 "/>
<text text-anchor="start" x="7.5" y="-1129.5" font-family="Helvetica,sans-Serif" font-size="10.00">+ Detector()</text>
<text text-anchor="start" x="7.5" y="-1118.5" font-family="Helvetica,sans-Serif" font-size="10.00">+ Detector()</text>
<text text-anchor="start" x="7.5" y="-1107.5" font-family="Helvetica,sans-Serif" font-size="10.00">+ ~Detector()</text>
<text text-anchor="start" x="7.5" y="-1096.5" font-family="Helvetica,sans-Serif" font-size="10.00">+ Material()</text>
<text text-anchor="start" x="7.5" y="-1085.5" font-family="Helvetica,sans-Serif" font-size="10.00">+ Mixture()</text>
<text text-anchor="start" x="7.5" y="-1074.5" font-family="Helvetica,sans-Serif" font-size="10.00">+ Medium()</text>
<text text-anchor="start" x="7.5" y="-1063.5" font-family="Helvetica,sans-Serif" font-size="10.00">+ SpecialCuts()</text>
<text text-anchor="start" x="7.5" y="-1052.5" font-family="Helvetica,sans-Serif" font-size="10.00">+ SpecialCut()</text>
<text text-anchor="start" x="7.5" y="-1041.5" font-family="Helvetica,sans-Serif" font-size="10.00">+ SpecialProcesses()</text>
<text text-anchor="start" x="7.5" y="-1030.5" font-family="Helvetica,sans-Serif" font-size="10.00">+ SpecialProcess()</text>
<text text-anchor="start" x="7.5" y="-1019.5" font-family="Helvetica,sans-Serif" font-size="10.00">+ Matrix()</text>
<text text-anchor="start" x="7.5" y="-1008.5" font-family="Helvetica,sans-Serif" font-size="10.00">+ addAlignableVolumes()</text>
<text text-anchor="start" x="7.5" y="-997.5" font-family="Helvetica,sans-Serif" font-size="10.00">+ defineWrapperVolume()</text>
<text text-anchor="start" x="7.5" y="-986.5" font-family="Helvetica,sans-Serif" font-size="10.00">+ setNumberOfWrapperVolumes()</text>
<text text-anchor="start" x="7.5" y="-975.5" font-family="Helvetica,sans-Serif" font-size="10.00">+ defineLayer()</text>
<text text-anchor="start" x="7.5" y="-964.5" font-family="Helvetica,sans-Serif" font-size="10.00">+ defineLayerTurbo()</text>
<text text-anchor="start" x="7.5" y="-953.5" font-family="Helvetica,sans-Serif" font-size="10.00">+ getMaterialID()</text>
<text text-anchor="start" x="7.5" y="-942.5" font-family="Helvetica,sans-Serif" font-size="10.00">+ getMediumID()</text>
<text text-anchor="start" x="7.5" y="-931.5" font-family="Helvetica,sans-Serif" font-size="10.00">+ getMediumIDMappingAsVector()</text>
<text text-anchor="start" x="7.5" y="-920.5" font-family="Helvetica,sans-Serif" font-size="10.00">+ addNameTo()</text>
<text text-anchor="start" x="7.5" y="-909.5" font-family="Helvetica,sans-Serif" font-size="10.00">+ getHitBranchNames()</text>
<text text-anchor="start" x="7.5" y="-898.5" font-family="Helvetica,sans-Serif" font-size="10.00">+ updateHitTrackIndices()</text>
<text text-anchor="start" x="7.5" y="-887.5" font-family="Helvetica,sans-Serif" font-size="10.00">+ attachHits()</text>
<text text-anchor="start" x="7.5" y="-876.5" font-family="Helvetica,sans-Serif" font-size="10.00">+ fillHitBranch()</text>
<text text-anchor="start" x="7.5" y="-865.5" font-family="Helvetica,sans-Serif" font-size="10.00">+ InitializeO2Detector()</text>
<text text-anchor="start" x="7.5" y="-854.5" font-family="Helvetica,sans-Serif" font-size="10.00">+ Initialize()</text>
<text text-anchor="start" x="7.5" y="-843.5" font-family="Helvetica,sans-Serif" font-size="10.00">+ initializeLate()</text>
<text text-anchor="start" x="7.5" y="-832.5" font-family="Helvetica,sans-Serif" font-size="10.00">+ GetCollection()</text>
<text text-anchor="start" x="7.5" y="-821.5" font-family="Helvetica,sans-Serif" font-size="10.00">+ setDensityFactor()</text>
<text text-anchor="start" x="7.5" y="-810.5" font-family="Helvetica,sans-Serif" font-size="10.00">+ getDensityFactor()</text>
<text text-anchor="start" x="7.5" y="-799.5" font-family="Helvetica,sans-Serif" font-size="10.00">+ initFieldTrackingParams()</text>
<text text-anchor="start" x="7.5" y="-788.5" font-family="Helvetica,sans-Serif" font-size="10.00"># Detector()</text>
<text text-anchor="start" x="7.5" y="-777.5" font-family="Helvetica,sans-Serif" font-size="10.00"># operator=()</text>
</a>
</g>
</g>
<!-- Node3&#45;&gt;Node2 -->
<g id="edge2" class="edge"><title>Node3&#45;&gt;Node2</title>
<path fill="none" stroke="midnightblue" d="M52.5074,-760.326C50.4327,-677.618 60.7348,-585.007 102,-510 132.26,-454.997 194.008,-416.746 241.867,-393.916"/>
<polygon fill="none" stroke="midnightblue" points="49.0102,-760.476 52.8205,-770.362 56.0068,-760.258 49.0102,-760.476"/>
</g>
<!-- Node9 -->
<g id="node9" class="node"><title>Node9</title>
<g id="a_node9"><a xlink:href="../../d4/d8a/classo2_1_1Base_1_1DetImpl.html" target="_top" xlink:title="{o2::Base::DetImpl\&lt;\l Det \&gt;\n||+ getHitBranchNames()\l+ updateHitTrackIndices()\l+ attachHits()\l+ fillHitBranch()\l+ CloneModule()\l+ freeHitBuffers()\l+ setHits()\l+ createHitBuffers()\l+ initializeLate()\l+ BeginEvent()\l+ ~DetImpl()\l# ClassDefOverride()\l}">
<polygon fill="none" stroke="black" points="289,-510.5 289,-699.5 419,-699.5 419,-510.5 289,-510.5"/>
<text text-anchor="start" x="297" y="-687.5" font-family="Helvetica,sans-Serif" font-size="10.00">o2::Base::DetImpl&lt;</text>
<text text-anchor="middle" x="354" y="-676.5" font-family="Helvetica,sans-Serif" font-size="10.00"> Det &gt;</text>
<polyline fill="none" stroke="black" points="289,-669.5 419,-669.5 "/>
<text text-anchor="middle" x="354" y="-657.5" font-family="Helvetica,sans-Serif" font-size="10.00"> </text>
<polyline fill="none" stroke="black" points="289,-650.5 419,-650.5 "/>
<text text-anchor="start" x="297" y="-638.5" font-family="Helvetica,sans-Serif" font-size="10.00">+ getHitBranchNames()</text>
<text text-anchor="start" x="297" y="-627.5" font-family="Helvetica,sans-Serif" font-size="10.00">+ updateHitTrackIndices()</text>
<text text-anchor="start" x="297" y="-616.5" font-family="Helvetica,sans-Serif" font-size="10.00">+ attachHits()</text>
<text text-anchor="start" x="297" y="-605.5" font-family="Helvetica,sans-Serif" font-size="10.00">+ fillHitBranch()</text>
<text text-anchor="start" x="297" y="-594.5" font-family="Helvetica,sans-Serif" font-size="10.00">+ CloneModule()</text>
<text text-anchor="start" x="297" y="-583.5" font-family="Helvetica,sans-Serif" font-size="10.00">+ freeHitBuffers()</text>
<text text-anchor="start" x="297" y="-572.5" font-family="Helvetica,sans-Serif" font-size="10.00">+ setHits()</text>
<text text-anchor="start" x="297" y="-561.5" font-family="Helvetica,sans-Serif" font-size="10.00">+ createHitBuffers()</text>
<text text-anchor="start" x="297" y="-550.5" font-family="Helvetica,sans-Serif" font-size="10.00">+ initializeLate()</text>
<text text-anchor="start" x="297" y="-539.5" font-family="Helvetica,sans-Serif" font-size="10.00">+ BeginEvent()</text>
<text text-anchor="start" x="297" y="-528.5" font-family="Helvetica,sans-Serif" font-size="10.00">+ ~DetImpl()</text>
<text text-anchor="start" x="297" y="-517.5" font-family="Helvetica,sans-Serif" font-size="10.00"># ClassDefOverride()</text>
</a>
</g>
</g>
<!-- Node3&#45;&gt;Node9 -->
<g id="edge9" class="edge"><title>Node3&#45;&gt;Node9</title>
<path fill="none" stroke="midnightblue" d="M156.044,-761.575C167.538,-745.311 180.774,-730.422 196,-718 225.247,-694.138 246.928,-719.905 279,-700 282.37,-697.908 285.654,-695.609 288.844,-693.145"/>
<polygon fill="none" stroke="midnightblue" points="152.91,-759.96 150.191,-770.2 158.702,-763.891 152.91,-759.96"/>
</g>
<!-- Node4 -->
<g id="node4" class="node"><title>Node4</title>
<g id="a_node4"><a xlink:href="../../d6/d0c/classFairDetector.html" target="_top" xlink:title="{FairDetector\n||}">
<polygon fill="none" stroke="black" points="47.5,-1218.5 47.5,-1275.5 118.5,-1275.5 118.5,-1218.5 47.5,-1218.5"/>
<text text-anchor="middle" x="83" y="-1263.5" font-family="Helvetica,sans-Serif" font-size="10.00">FairDetector</text>
<polyline fill="none" stroke="black" points="47.5,-1256.5 118.5,-1256.5 "/>
<text text-anchor="middle" x="83" y="-1244.5" font-family="Helvetica,sans-Serif" font-size="10.00"> </text>
<polyline fill="none" stroke="black" points="47.5,-1237.5 118.5,-1237.5 "/>
<text text-anchor="middle" x="83" y="-1225.5" font-family="Helvetica,sans-Serif" font-size="10.00"> </text>
</a>
</g>
</g>
<!-- Node4&#45;&gt;Node3 -->
<g id="edge3" class="edge"><title>Node4&#45;&gt;Node3</title>
<path fill="none" stroke="midnightblue" d="M83,-1208.15C83,-1199.59 83,-1189.92 83,-1179.51"/>
<polygon fill="none" stroke="midnightblue" points="79.5001,-1208.37 83,-1218.37 86.5001,-1208.37 79.5001,-1208.37"/>
</g>
<!-- Node5 -->
<g id="node5" class="node"><title>Node5</title>
<g id="a_node5"><a xlink:href="../../d4/d34/classstatic_01constexpr_01int.html" target="_top" xlink:title="{static constexpr int\n||}">
<polygon fill="none" stroke="black" points="111,-576.5 111,-633.5 211,-633.5 211,-576.5 111,-576.5"/>
<text text-anchor="middle" x="161" y="-621.5" font-family="Helvetica,sans-Serif" font-size="10.00">static constexpr int</text>
<polyline fill="none" stroke="black" points="111,-614.5 211,-614.5 "/>
<text text-anchor="middle" x="161" y="-602.5" font-family="Helvetica,sans-Serif" font-size="10.00"> </text>
<polyline fill="none" stroke="black" points="111,-595.5 211,-595.5 "/>
<text text-anchor="middle" x="161" y="-583.5" font-family="Helvetica,sans-Serif" font-size="10.00"> </text>
</a>
</g>
</g>
<!-- Node5&#45;&gt;Node2 -->
<g id="edge4" class="edge"><title>Node5&#45;&gt;Node2</title>
<path fill="none" stroke="#404040" d="M160.264,-576.425C160.712,-550.104 164.473,-510.107 181,-480 193.645,-456.965 212.918,-436.312 232.615,-419.203"/>
<polygon fill="none" stroke="#404040" points="232.787,-419.058 234.813,-412.138 241.98,-411.346 239.955,-418.266 232.787,-419.058"/>
<text text-anchor="middle" x="221" y="-483.5" font-family="Helvetica,sans-Serif" font-size="10.00"> #NHITBUFFERS</text>
</g>
<!-- Node6 -->
<g id="node6" class="node"><title>Node6</title>
<g id="a_node6"><a xlink:href="../../d9/db1/classbool_01_5.html" target="_top" xlink:title="{bool *\n||}">
<polygon fill="none" stroke="black" points="229.5,-576.5 229.5,-633.5 270.5,-633.5 270.5,-576.5 229.5,-576.5"/>
<text text-anchor="middle" x="250" y="-621.5" font-family="Helvetica,sans-Serif" font-size="10.00">bool *</text>
<polyline fill="none" stroke="black" points="229.5,-614.5 270.5,-614.5 "/>
<text text-anchor="middle" x="250" y="-602.5" font-family="Helvetica,sans-Serif" font-size="10.00"> </text>
<polyline fill="none" stroke="black" points="229.5,-595.5 270.5,-595.5 "/>
<text text-anchor="middle" x="250" y="-583.5" font-family="Helvetica,sans-Serif" font-size="10.00"> </text>
</a>
</g>
</g>
<!-- Node6&#45;&gt;Node2 -->
<g id="edge5" class="edge"><title>Node6&#45;&gt;Node2</title>
<path fill="none" stroke="#404040" d="M252.163,-576.112C254.519,-550.777 259.058,-512.507 267,-480 267.528,-477.838 268.083,-475.659 268.661,-473.468"/>
<polygon fill="none" stroke="#404040" points="268.726,-473.235 266.489,-466.379 271.957,-461.678 274.194,-468.533 268.726,-473.235"/>
<text text-anchor="middle" x="297" y="-483.5" font-family="Helvetica,sans-Serif" font-size="10.00"> #mShmBusy</text>
</g>
<!-- Node7 -->
<g id="node7" class="node"><title>Node7</title>
<g id="a_node7"><a xlink:href="../../d1/da0/classint.html" target="_top" xlink:title="{int\n||}">
<polygon fill="none" stroke="black" points="321.5,-946.5 321.5,-1003.5 350.5,-1003.5 350.5,-946.5 321.5,-946.5"/>
<text text-anchor="middle" x="336" y="-991.5" font-family="Helvetica,sans-Serif" font-size="10.00">int</text>
<polyline fill="none" stroke="black" points="321.5,-984.5 350.5,-984.5 "/>
<text text-anchor="middle" x="336" y="-972.5" font-family="Helvetica,sans-Serif" font-size="10.00"> </text>
<polyline fill="none" stroke="black" points="321.5,-965.5 350.5,-965.5 "/>
<text text-anchor="middle" x="336" y="-953.5" font-family="Helvetica,sans-Serif" font-size="10.00"> </text>
</a>
</g>
</g>
<!-- Node7&#45;&gt;Node2 -->
<g id="edge6" class="edge"><title>Node7&#45;&gt;Node2</title>
<path fill="none" stroke="#404040" d="M339.13,-946.377C345.346,-903.52 362.979,-820.68 410,-770 423.259,-755.709 439.415,-768.371 450,-752 458.205,-739.31 450.796,-733.09 450,-718 445.104,-625.169 464.675,-595.42 428,-510 416.707,-483.698 398.791,-458.633 380.171,-437.086"/>
<polygon fill="none" stroke="#404040" points="380.134,-437.044 373.159,-435.215 372.165,-428.073 379.14,-429.902 380.134,-437.044"/>
<text text-anchor="middle" x="489" y="-608" font-family="Helvetica,sans-Serif" font-size="10.00"> #mCurrentBuffer</text>
<text text-anchor="middle" x="489" y="-597" font-family="Helvetica,sans-Serif" font-size="10.00">#mInitialized</text>
</g>
<!-- Node7&#45;&gt;Node9 -->
<g id="edge11" class="edge"><title>Node7&#45;&gt;Node9</title>
<path fill="none" stroke="#404040" d="M322.262,-946.385C300.578,-899.087 263.121,-799.767 286,-718 286.644,-715.7 287.349,-713.4 288.109,-711.104"/>
<polygon fill="none" stroke="#404040" points="288.174,-710.929 286.51,-703.912 292.347,-699.677 294.011,-706.694 288.174,-710.929"/>
<text text-anchor="middle" x="324.5" y="-743.5" font-family="Helvetica,sans-Serif" font-size="10.00"> #mCurrentBuffer</text>
<text text-anchor="middle" x="324.5" y="-732.5" font-family="Helvetica,sans-Serif" font-size="10.00">#mInitialized</text>
<text text-anchor="middle" x="324.5" y="-721.5" font-family="Helvetica,sans-Serif" font-size="10.00">#NHITBUFFERS</text>
</g>
<!-- Node8 -->
<g id="node8" class="node"><title>Node8</title>
<polygon fill="none" stroke="#bfbfbf" points="419,-946.5 419,-1003.5 505,-1003.5 505,-946.5 419,-946.5"/>
<text text-anchor="middle" x="462" y="-991.5" font-family="Helvetica,sans-Serif" font-size="10.00">vector&lt; void * &gt;</text>
<polyline fill="none" stroke="#bfbfbf" points="419,-984.5 505,-984.5 "/>
<text text-anchor="middle" x="462" y="-972.5" font-family="Helvetica,sans-Serif" font-size="10.00"> </text>
<polyline fill="none" stroke="#bfbfbf" points="419,-965.5 505,-965.5 "/>
<text text-anchor="middle" x="462" y="-953.5" font-family="Helvetica,sans-Serif" font-size="10.00"> </text>
</g>
<!-- Node8&#45;&gt;Node2 -->
<g id="edge7" class="edge"><title>Node8&#45;&gt;Node2</title>
<path fill="none" stroke="#404040" d="M477.262,-946.292C516.529,-870.945 612.448,-658.068 531,-510 499.781,-453.245 435.23,-415.986 383.409,-393.935"/>
<polygon fill="none" stroke="#404040" points="383.32,-393.898 376.248,-395.309 372.225,-389.324 379.297,-387.913 383.32,-393.898"/>
<text text-anchor="middle" x="594" y="-602.5" font-family="Helvetica,sans-Serif" font-size="10.00"> #mCachedPtr</text>
</g>
<!-- Node8&#45;&gt;Node9 -->
<g id="edge10" class="edge"><title>Node8&#45;&gt;Node9</title>
<path fill="none" stroke="#404040" d="M453.882,-946.34C439.435,-897.111 408.559,-791.904 384.935,-711.408"/>
<polygon fill="none" stroke="#404040" points="384.884,-711.235 379.357,-706.605 381.505,-699.721 387.033,-704.352 384.884,-711.235"/>
<text text-anchor="middle" x="428" y="-732.5" font-family="Helvetica,sans-Serif" font-size="10.00"> #mCachedPtr</text>
</g>
<!-- Node9&#45;&gt;Node2 -->
<g id="edge8" class="edge"><title>Node9&#45;&gt;Node2</title>
<path fill="none" stroke="orange" d="M333.332,-500.218C330.791,-487.463 328.206,-474.482 325.697,-461.885"/>
<polygon fill="orange" stroke="orange" points="329.971,-501.264 335.357,-510.388 336.836,-499.897 329.971,-501.264"/>
<text text-anchor="middle" x="360.5" y="-483.5" font-family="Helvetica,sans-Serif" font-size="10.00"> &lt; Detector &gt;</text>
</g>
<!-- Node10 -->
<g id="node10" class="node"><title>Node10</title>
<polygon fill="none" stroke="#bfbfbf" points="184.5,-946.5 184.5,-1003.5 219.5,-1003.5 219.5,-946.5 184.5,-946.5"/>
<text text-anchor="middle" x="202" y="-991.5" font-family="Helvetica,sans-Serif" font-size="10.00">bool</text>
<polyline fill="none" stroke="#bfbfbf" points="184.5,-984.5 219.5,-984.5 "/>
<text text-anchor="middle" x="202" y="-972.5" font-family="Helvetica,sans-Serif" font-size="10.00"> </text>
<polyline fill="none" stroke="#bfbfbf" points="184.5,-965.5 219.5,-965.5 "/>
<text text-anchor="middle" x="202" y="-953.5" font-family="Helvetica,sans-Serif" font-size="10.00"> </text>
</g>
<!-- Node10&#45;&gt;Node9 -->
<g id="edge12" class="edge"><title>Node10&#45;&gt;Node9</title>
<path fill="none" stroke="#404040" d="M194.251,-946.128C181.814,-894.835 163.831,-784.647 217,-718 234.894,-695.57 255.157,-715.963 279,-700 279.103,-699.931 279.206,-699.862 279.309,-699.793"/>
<polygon fill="none" stroke="#404040" points="279.021,-700.006 281.452,-693.217 288.653,-692.849 286.223,-699.639 279.021,-700.006"/>
<text text-anchor="middle" x="247" y="-732.5" font-family="Helvetica,sans-Serif" font-size="10.00"> #mShmBusy</text>
</g>
</g>
</svg>
        <g id="navigator" transform="translate(0 0)" fill="#404254">
                <rect fill="#f2f5e9" fill-opacity="0.5" stroke="#606060" stroke-width=".5" x="0" y="0" width="60" height="60"/>
                <use id="zoomplus" xlink:href="#zoomPlus" x="17" y="9" onmousedown="handleZoom(evt,'in')"/>
                <use id="zoomminus" xlink:href="#zoomMin" x="42" y="9" onmousedown="handleZoom(evt,'out')"/>
                <use id="reset" xlink:href="#resetDef" x="30" y="36" onmousedown="handleReset()"/>
                <g id="arrowUp" xlink:href="#dirArrow" transform="translate(30 24)" onmousedown="handlePan(0,-1)">
                  <use xlink:href="#rim" fill="#404040">
                        <set attributeName="fill" to="#808080" begin="arrowUp.mouseover" end="arrowUp.mouseout"/>
                  </use>
                  <path fill="none" stroke="white" stroke-width="1.5" d="M0,-3.0v7 M-2.5,-0.5L0,-3.0L2.5,-0.5"/>
                </g>
                <g id="arrowRight" xlink:href="#dirArrow" transform="rotate(90) translate(36 -43)" onmousedown="handlePan(1,0)">
                  <use xlink:href="#rim" fill="#404040">
                        <set attributeName="fill" to="#808080" begin="arrowRight.mouseover" end="arrowRight.mouseout"/>
                  </use>
                  <path fill="none" stroke="white" stroke-width="1.5" d="M0,-3.0v7 M-2.5,-0.5L0,-3.0L2.5,-0.5"/>
                </g>
                <g id="arrowDown" xlink:href="#dirArrow" transform="rotate(180) translate(-30 -48)" onmousedown="handlePan(0,1)">
                  <use xlink:href="#rim" fill="#404040">
                        <set attributeName="fill" to="#808080" begin="arrowDown.mouseover" end="arrowDown.mouseout"/>
                  </use>
                  <path fill="none" stroke="white" stroke-width="1.5" d="M0,-3.0v7 M-2.5,-0.5L0,-3.0L2.5,-0.5"/>
                </g>
                <g id="arrowLeft" xlink:href="#dirArrow" transform="rotate(270) translate(-36 17)" onmousedown="handlePan(-1,0)">
                  <use xlink:href="#rim" fill="#404040">
                        <set attributeName="fill" to="#808080" begin="arrowLeft.mouseover" end="arrowLeft.mouseout"/>
                  </use>
                  <path fill="none" stroke="white" stroke-width="1.5" d="M0,-3.0v7 M-2.5,-0.5L0,-3.0L2.5,-0.5"/>
                </g>
        </g>
        <svg viewBox="0 0 15 15" width="100%" height="30px" preserveAspectRatio="xMaxYMin meet">
         <g id="arrow_out" transform="scale(0.3 0.3)">
          <a xlink:href="classo2_1_1phos_1_1Detector__coll__graph_org.svg" target="_base">
           <rect id="button" ry="5" rx="5" y="6" x="6" height="38" width="38"
                fill="#f2f5e9" fill-opacity="0.5" stroke="#606060" stroke-width="1.0"/>
           <path id="arrow"
             d="M 11.500037,31.436501 C 11.940474,20.09759 22.043105,11.32322 32.158766,21.979434 L 37.068811,17.246167 C 37.068811,17.246167 37.088388,32 37.088388,32 L 22.160133,31.978069 C 22.160133,31.978069 26.997745,27.140456 26.997745,27.140456 C 18.528582,18.264221 13.291696,25.230495 11.500037,31.436501 z"
             style="fill:#404040;"/>
          </a>
         </g>
        </svg>
</svg>
