<?xml version="1.0" encoding="UTF-8" standalone="no"?>
<!DOCTYPE svg PUBLIC "-//W3C//DTD SVG 1.1//EN"
 "http://www.w3.org/Graphics/SVG/1.1/DTD/svg11.dtd">
<!-- Generated by graphviz version 2.36.0 (20140111.2315)
 -->
<!-- Title: /home/travis/build/AliceO2Group/AliceO2/DataFormats/common/include/CommonDataFormat/BunchFilling.h Pages: 1 -->
<svg width="1872pt" height="610pt"
 viewBox="0.00 0.00 1872.00 610.00" xmlns="http://www.w3.org/2000/svg" xmlns:xlink="http://www.w3.org/1999/xlink">
<g id="graph0" class="graph" transform="scale(1 1) rotate(0) translate(4 606)">
<title>/home/travis/build/AliceO2Group/AliceO2/DataFormats/common/include/CommonDataFormat/BunchFilling.h</title>
<!-- Node1 -->
<g id="node1" class="node"><title>Node1</title>
<polygon fill="#bfbfbf" stroke="black" points="958,-549 958,-601 1134,-601 1134,-549 958,-549"/>
<text text-anchor="start" x="966" y="-589" font-family="Helvetica,sans-Serif" font-size="10.00">/home/travis/build</text>
<text text-anchor="start" x="966" y="-578" font-family="Helvetica,sans-Serif" font-size="10.00">/AliceO2Group/AliceO2</text>
<text text-anchor="start" x="966" y="-567" font-family="Helvetica,sans-Serif" font-size="10.00">/DataFormats/common/include</text>
<text text-anchor="middle" x="1046" y="-556" font-family="Helvetica,sans-Serif" font-size="10.00">/CommonDataFormat/BunchFilling.h</text>
</g>
<!-- Node2 -->
<g id="node2" class="node"><title>Node2</title>
<g id="a_node2"><a xlink:href="../../db/de7/BunchFilling_8cxx.html" target="_top" xlink:title="/home/travis/build\l/AliceO2Group/AliceO2\l/DataFormats/common/src\l/BunchFilling.cxx">
<polygon fill="none" stroke="black" points="818,-454 818,-506 952,-506 952,-454 818,-454"/>
<text text-anchor="start" x="826" y="-494" font-family="Helvetica,sans-Serif" font-size="10.00">/home/travis/build</text>
<text text-anchor="start" x="826" y="-483" font-family="Helvetica,sans-Serif" font-size="10.00">/AliceO2Group/AliceO2</text>
<text text-anchor="start" x="826" y="-472" font-family="Helvetica,sans-Serif" font-size="10.00">/DataFormats/common/src</text>
<text text-anchor="middle" x="885" y="-461" font-family="Helvetica,sans-Serif" font-size="10.00">/BunchFilling.cxx</text>
</a>
</g>
</g>
<!-- Node1&#45;&gt;Node2 -->
<g id="edge1" class="edge"><title>Node1&#45;&gt;Node2</title>
<path fill="none" stroke="midnightblue" d="M993.585,-543.723C972.475,-531.529 948.42,-517.634 928.325,-506.026"/>
<polygon fill="midnightblue" stroke="midnightblue" points="992.021,-546.862 1002.43,-548.833 995.523,-540.8 992.021,-546.862"/>
</g>
<!-- Node3 -->
<g id="node3" class="node"><title>Node3</title>
<g id="a_node3"><a xlink:href="../../d5/d3f/RunContext_8h.html" target="_top" xlink:title="/home/travis/build\l/AliceO2Group/AliceO2\l/DataFormats/simulation\l/include/SimulationDataFormat\l/RunContext.h">
<polygon fill="none" stroke="black" points="970.5,-448.5 970.5,-511.5 1121.5,-511.5 1121.5,-448.5 970.5,-448.5"/>
<text text-anchor="start" x="978.5" y="-499.5" font-family="Helvetica,sans-Serif" font-size="10.00">/home/travis/build</text>
<text text-anchor="start" x="978.5" y="-488.5" font-family="Helvetica,sans-Serif" font-size="10.00">/AliceO2Group/AliceO2</text>
<text text-anchor="start" x="978.5" y="-477.5" font-family="Helvetica,sans-Serif" font-size="10.00">/DataFormats/simulation</text>
<text text-anchor="start" x="978.5" y="-466.5" font-family="Helvetica,sans-Serif" font-size="10.00">/include/SimulationDataFormat</text>
<text text-anchor="middle" x="1046" y="-455.5" font-family="Helvetica,sans-Serif" font-size="10.00">/RunContext.h</text>
</a>
</g>
</g>
<!-- Node1&#45;&gt;Node3 -->
<g id="edge2" class="edge"><title>Node1&#45;&gt;Node3</title>
<path fill="none" stroke="midnightblue" d="M1046,-538.541C1046,-529.691 1046,-520.274 1046,-511.677"/>
<polygon fill="midnightblue" stroke="midnightblue" points="1042.5,-538.587 1046,-548.587 1049.5,-538.587 1042.5,-538.587"/>
</g>
<!-- Node25 -->
<g id="node25" class="node"><title>Node25</title>
<g id="a_node25"><a xlink:href="../../df/dff/InteractionSampler_8h.html" target="_top" xlink:title="/home/travis/build\l/AliceO2Group/AliceO2\l/Steer/include/Steer/Interaction\lSampler.h">
<polygon fill="none" stroke="black" points="1206,-454 1206,-506 1358,-506 1358,-454 1206,-454"/>
<text text-anchor="start" x="1214" y="-494" font-family="Helvetica,sans-Serif" font-size="10.00">/home/travis/build</text>
<text text-anchor="start" x="1214" y="-483" font-family="Helvetica,sans-Serif" font-size="10.00">/AliceO2Group/AliceO2</text>
<text text-anchor="start" x="1214" y="-472" font-family="Helvetica,sans-Serif" font-size="10.00">/Steer/include/Steer/Interaction</text>
<text text-anchor="middle" x="1282" y="-461" font-family="Helvetica,sans-Serif" font-size="10.00">Sampler.h</text>
</a>
</g>
</g>
<!-- Node1&#45;&gt;Node25 -->
<g id="edge28" class="edge"><title>Node1&#45;&gt;Node25</title>
<path fill="none" stroke="midnightblue" d="M1119.23,-545.144C1150.96,-532.64 1187.76,-518.138 1218.33,-506.089"/>
<polygon fill="midnightblue" stroke="midnightblue" points="1117.57,-542.033 1109.55,-548.955 1120.14,-548.545 1117.57,-542.033"/>
</g>
<!-- Node4 -->
<g id="node4" class="node"><title>Node4</title>
<g id="a_node4"><a xlink:href="../../da/dea/RunContext_8cxx.html" target="_top" xlink:title="/home/travis/build\l/AliceO2Group/AliceO2\l/DataFormats/simulation\l/src/RunContext.cxx">
<polygon fill="none" stroke="black" points="869,-359 869,-411 993,-411 993,-359 869,-359"/>
<text text-anchor="start" x="877" y="-399" font-family="Helvetica,sans-Serif" font-size="10.00">/home/travis/build</text>
<text text-anchor="start" x="877" y="-388" font-family="Helvetica,sans-Serif" font-size="10.00">/AliceO2Group/AliceO2</text>
<text text-anchor="start" x="877" y="-377" font-family="Helvetica,sans-Serif" font-size="10.00">/DataFormats/simulation</text>
<text text-anchor="middle" x="931" y="-366" font-family="Helvetica,sans-Serif" font-size="10.00">/src/RunContext.cxx</text>
</a>
</g>
</g>
<!-- Node3&#45;&gt;Node4 -->
<g id="edge3" class="edge"><title>Node3&#45;&gt;Node4</title>
<path fill="none" stroke="midnightblue" d="M1000.18,-441.947C987.379,-431.593 973.769,-420.587 962.038,-411.1"/>
<polygon fill="midnightblue" stroke="midnightblue" points="998.05,-444.724 1008.03,-448.291 1002.45,-439.281 998.05,-444.724"/>
</g>
<!-- Node5 -->
<g id="node5" class="node"><title>Node5</title>
<g id="a_node5"><a xlink:href="../../df/d25/readITSDigits_8C.html" target="_top" xlink:title="/home/travis/build\l/AliceO2Group/AliceO2\l/macro/readITSDigits.C">
<polygon fill="none" stroke="black" points="731,-364.5 731,-405.5 851,-405.5 851,-364.5 731,-364.5"/>
<text text-anchor="start" x="739" y="-393.5" font-family="Helvetica,sans-Serif" font-size="10.00">/home/travis/build</text>
<text text-anchor="start" x="739" y="-382.5" font-family="Helvetica,sans-Serif" font-size="10.00">/AliceO2Group/AliceO2</text>
<text text-anchor="middle" x="791" y="-371.5" font-family="Helvetica,sans-Serif" font-size="10.00">/macro/readITSDigits.C</text>
</a>
</g>
</g>
<!-- Node3&#45;&gt;Node5 -->
<g id="edge4" class="edge"><title>Node3&#45;&gt;Node5</title>
<path fill="none" stroke="midnightblue" d="M961.291,-448.105C961.194,-448.07 961.097,-448.035 961,-448 916.17,-431.836 904.743,-428.402 860,-412 854.351,-409.929 848.45,-407.742 842.581,-405.552"/>
<polygon fill="midnightblue" stroke="midnightblue" points="959.872,-451.314 970.467,-451.42 962.251,-444.73 959.872,-451.314"/>
</g>
<!-- Node6 -->
<g id="node6" class="node"><title>Node6</title>
<g id="a_node6"><a xlink:href="../../dd/d40/HitProcessingManager_8h.html" target="_top" xlink:title="/home/travis/build\l/AliceO2Group/AliceO2\l/Steer/include/Steer/HitProcessing\lManager.h">
<polygon fill="none" stroke="black" points="1010.5,-359 1010.5,-411 1177.5,-411 1177.5,-359 1010.5,-359"/>
<text text-anchor="start" x="1018.5" y="-399" font-family="Helvetica,sans-Serif" font-size="10.00">/home/travis/build</text>
<text text-anchor="start" x="1018.5" y="-388" font-family="Helvetica,sans-Serif" font-size="10.00">/AliceO2Group/AliceO2</text>
<text text-anchor="start" x="1018.5" y="-377" font-family="Helvetica,sans-Serif" font-size="10.00">/Steer/include/Steer/HitProcessing</text>
<text text-anchor="middle" x="1094" y="-366" font-family="Helvetica,sans-Serif" font-size="10.00">Manager.h</text>
</a>
</g>
</g>
<!-- Node3&#45;&gt;Node6 -->
<g id="edge5" class="edge"><title>Node3&#45;&gt;Node6</title>
<path fill="none" stroke="midnightblue" d="M1066.49,-439.297C1071.43,-429.735 1076.56,-419.781 1081.05,-411.1"/>
<polygon fill="midnightblue" stroke="midnightblue" points="1063.33,-437.799 1061.85,-448.291 1069.55,-441.01 1063.33,-437.799"/>
</g>
<!-- Node7 -->
<g id="node7" class="node"><title>Node7</title>
<g id="a_node7"><a xlink:href="../../de/d92/TPC_2simulation_2include_2TPCSimulation_2Digitizer_8h.html" target="_top" xlink:title="/home/travis/build\l/AliceO2Group/AliceO2\l/Detectors/TPC/simulation\l/include/TPCSimulation/Digitizer.h">
<polygon fill="none" stroke="black" points="1171.5,-269 1171.5,-321 1338.5,-321 1338.5,-269 1171.5,-269"/>
<text text-anchor="start" x="1179.5" y="-309" font-family="Helvetica,sans-Serif" font-size="10.00">/home/travis/build</text>
<text text-anchor="start" x="1179.5" y="-298" font-family="Helvetica,sans-Serif" font-size="10.00">/AliceO2Group/AliceO2</text>
<text text-anchor="start" x="1179.5" y="-287" font-family="Helvetica,sans-Serif" font-size="10.00">/Detectors/TPC/simulation</text>
<text text-anchor="middle" x="1255" y="-276" font-family="Helvetica,sans-Serif" font-size="10.00">/include/TPCSimulation/Digitizer.h</text>
</a>
</g>
</g>
<!-- Node6&#45;&gt;Node7 -->
<g id="edge6" class="edge"><title>Node6&#45;&gt;Node7</title>
<path fill="none" stroke="midnightblue" d="M1148.96,-353.96C1168.55,-343.253 1190.39,-331.315 1209.14,-321.069"/>
<polygon fill="midnightblue" stroke="midnightblue" points="1147.23,-350.915 1140.14,-358.783 1150.59,-357.058 1147.23,-350.915"/>
</g>
<!-- Node8 -->
<g id="node8" class="node"><title>Node8</title>
<g id="a_node8"><a xlink:href="../../dd/d4b/TPC_2simulation_2include_2TPCSimulation_2DigitizerTask_8h.html" target="_top" xlink:title="/home/travis/build\l/AliceO2Group/AliceO2\l/Detectors/TPC/simulation\l/include/TPCSimulation/Digitizer\lTask.h">
<polygon fill="none" stroke="black" points="1400,-168.5 1400,-231.5 1558,-231.5 1558,-168.5 1400,-168.5"/>
<text text-anchor="start" x="1408" y="-219.5" font-family="Helvetica,sans-Serif" font-size="10.00">/home/travis/build</text>
<text text-anchor="start" x="1408" y="-208.5" font-family="Helvetica,sans-Serif" font-size="10.00">/AliceO2Group/AliceO2</text>
<text text-anchor="start" x="1408" y="-197.5" font-family="Helvetica,sans-Serif" font-size="10.00">/Detectors/TPC/simulation</text>
<text text-anchor="start" x="1408" y="-186.5" font-family="Helvetica,sans-Serif" font-size="10.00">/include/TPCSimulation/Digitizer</text>
<text text-anchor="middle" x="1479" y="-175.5" font-family="Helvetica,sans-Serif" font-size="10.00">Task.h</text>
</a>
</g>
</g>
<!-- Node6&#45;&gt;Node8 -->
<g id="edge17" class="edge"><title>Node6&#45;&gt;Node8</title>
<path fill="none" stroke="midnightblue" d="M1187.64,-368.152C1248.43,-356.535 1320.99,-339.751 1347,-322 1371.24,-305.455 1364.31,-288.814 1385,-268 1398.14,-254.781 1414.14,-242.325 1429.18,-231.821"/>
<polygon fill="midnightblue" stroke="midnightblue" points="1186.79,-364.751 1177.61,-370.044 1188.09,-371.63 1186.79,-364.751"/>
</g>
<!-- Node14 -->
<g id="node14" class="node"><title>Node14</title>
<g id="a_node14"><a xlink:href="../../db/df6/TPCDriftTimeDigitizerSpec_8cxx.html" target="_top" xlink:title="/home/travis/build\l/AliceO2Group/AliceO2\l/Steer/DigitizerWorkflow\l/src/TPCDriftTimeDigitizerSpec.cxx">
<polygon fill="none" stroke="black" points="1094,-79 1094,-131 1268,-131 1268,-79 1094,-79"/>
<text text-anchor="start" x="1102" y="-119" font-family="Helvetica,sans-Serif" font-size="10.00">/home/travis/build</text>
<text text-anchor="start" x="1102" y="-108" font-family="Helvetica,sans-Serif" font-size="10.00">/AliceO2Group/AliceO2</text>
<text text-anchor="start" x="1102" y="-97" font-family="Helvetica,sans-Serif" font-size="10.00">/Steer/DigitizerWorkflow</text>
<text text-anchor="middle" x="1181" y="-86" font-family="Helvetica,sans-Serif" font-size="10.00">/src/TPCDriftTimeDigitizerSpec.cxx</text>
</a>
</g>
</g>
<!-- Node6&#45;&gt;Node14 -->
<g id="edge25" class="edge"><title>Node6&#45;&gt;Node14</title>
<path fill="none" stroke="midnightblue" d="M1112.16,-349.619C1116.41,-340.771 1120.66,-331.159 1124,-322 1148.17,-255.66 1144.49,-236.135 1163,-168 1166.29,-155.886 1170.15,-142.504 1173.45,-131.283"/>
<polygon fill="midnightblue" stroke="midnightblue" points="1108.89,-348.347 1107.6,-358.864 1115.16,-351.446 1108.89,-348.347"/>
</g>
<!-- Node16 -->
<g id="node16" class="node"><title>Node16</title>
<g id="a_node16"><a xlink:href="../../d3/d87/CollisionTimePrinter_8cxx.html" target="_top" xlink:title="/home/travis/build\l/AliceO2Group/AliceO2\l/Steer/DigitizerWorkflow\l/src/CollisionTimePrinter.cxx">
<polygon fill="none" stroke="black" points="1560.5,-269 1560.5,-321 1703.5,-321 1703.5,-269 1560.5,-269"/>
<text text-anchor="start" x="1568.5" y="-309" font-family="Helvetica,sans-Serif" font-size="10.00">/home/travis/build</text>
<text text-anchor="start" x="1568.5" y="-298" font-family="Helvetica,sans-Serif" font-size="10.00">/AliceO2Group/AliceO2</text>
<text text-anchor="start" x="1568.5" y="-287" font-family="Helvetica,sans-Serif" font-size="10.00">/Steer/DigitizerWorkflow</text>
<text text-anchor="middle" x="1632" y="-276" font-family="Helvetica,sans-Serif" font-size="10.00">/src/CollisionTimePrinter.cxx</text>
</a>
</g>
</g>
<!-- Node6&#45;&gt;Node16 -->
<g id="edge18" class="edge"><title>Node6&#45;&gt;Node16</title>
<path fill="none" stroke="midnightblue" d="M1187.76,-363.628C1198.6,-361.576 1209.53,-359.646 1220,-358 1366.18,-335.021 1406.26,-352.77 1551,-322 1554.03,-321.355 1557.11,-320.641 1560.22,-319.873"/>
<polygon fill="midnightblue" stroke="midnightblue" points="1187,-360.211 1177.84,-365.541 1188.32,-367.084 1187,-360.211"/>
</g>
<!-- Node17 -->
<g id="node17" class="node"><title>Node17</title>
<g id="a_node17"><a xlink:href="../../d5/d9b/EMCALDigitizerSpec_8cxx.html" target="_top" xlink:title="/home/travis/build\l/AliceO2Group/AliceO2\l/Steer/DigitizerWorkflow\l/src/EMCALDigitizerSpec.cxx">
<polygon fill="none" stroke="black" points="1394,-269 1394,-321 1542,-321 1542,-269 1394,-269"/>
<text text-anchor="start" x="1402" y="-309" font-family="Helvetica,sans-Serif" font-size="10.00">/home/travis/build</text>
<text text-anchor="start" x="1402" y="-298" font-family="Helvetica,sans-Serif" font-size="10.00">/AliceO2Group/AliceO2</text>
<text text-anchor="start" x="1402" y="-287" font-family="Helvetica,sans-Serif" font-size="10.00">/Steer/DigitizerWorkflow</text>
<text text-anchor="middle" x="1468" y="-276" font-family="Helvetica,sans-Serif" font-size="10.00">/src/EMCALDigitizerSpec.cxx</text>
</a>
</g>
</g>
<!-- Node6&#45;&gt;Node17 -->
<g id="edge19" class="edge"><title>Node6&#45;&gt;Node17</title>
<path fill="none" stroke="midnightblue" d="M1187.71,-364.463C1256.59,-349.957 1344.17,-331.164 1380,-322 1384.48,-320.855 1389.07,-319.636 1393.69,-318.375"/>
<polygon fill="midnightblue" stroke="midnightblue" points="1186.76,-361.087 1177.7,-366.571 1188.2,-367.937 1186.76,-361.087"/>
</g>
<!-- Node18 -->
<g id="node18" class="node"><title>Node18</title>
<g id="a_node18"><a xlink:href="../../dd/dfe/FITDigitizerSpec_8cxx.html" target="_top" xlink:title="/home/travis/build\l/AliceO2Group/AliceO2\l/Steer/DigitizerWorkflow\l/src/FITDigitizerSpec.cxx">
<polygon fill="none" stroke="black" points="0,-269 0,-321 128,-321 128,-269 0,-269"/>
<text text-anchor="start" x="8" y="-309" font-family="Helvetica,sans-Serif" font-size="10.00">/home/travis/build</text>
<text text-anchor="start" x="8" y="-298" font-family="Helvetica,sans-Serif" font-size="10.00">/AliceO2Group/AliceO2</text>
<text text-anchor="start" x="8" y="-287" font-family="Helvetica,sans-Serif" font-size="10.00">/Steer/DigitizerWorkflow</text>
<text text-anchor="middle" x="64" y="-276" font-family="Helvetica,sans-Serif" font-size="10.00">/src/FITDigitizerSpec.cxx</text>
</a>
</g>
</g>
<!-- Node6&#45;&gt;Node18 -->
<g id="edge20" class="edge"><title>Node6&#45;&gt;Node18</title>
<path fill="none" stroke="midnightblue" d="M1000.39,-358.092C619.551,-299.512 511.054,-394.675 137,-322 134.095,-321.436 131.149,-320.776 128.193,-320.042"/>
<polygon fill="midnightblue" stroke="midnightblue" points="999.876,-361.554 1010.3,-359.641 1000.96,-354.638 999.876,-361.554"/>
</g>
<!-- Node19 -->
<g id="node19" class="node"><title>Node19</title>
<g id="a_node19"><a xlink:href="../../d8/d00/HMPIDDigitizerSpec_8cxx.html" target="_top" xlink:title="/home/travis/build\l/AliceO2Group/AliceO2\l/Steer/DigitizerWorkflow\l/src/HMPIDDigitizerSpec.cxx">
<polygon fill="none" stroke="black" points="146,-269 146,-321 292,-321 292,-269 146,-269"/>
<text text-anchor="start" x="154" y="-309" font-family="Helvetica,sans-Serif" font-size="10.00">/home/travis/build</text>
<text text-anchor="start" x="154" y="-298" font-family="Helvetica,sans-Serif" font-size="10.00">/AliceO2Group/AliceO2</text>
<text text-anchor="start" x="154" y="-287" font-family="Helvetica,sans-Serif" font-size="10.00">/Steer/DigitizerWorkflow</text>
<text text-anchor="middle" x="219" y="-276" font-family="Helvetica,sans-Serif" font-size="10.00">/src/HMPIDDigitizerSpec.cxx</text>
</a>
</g>
</g>
<!-- Node6&#45;&gt;Node19 -->
<g id="edge21" class="edge"><title>Node6&#45;&gt;Node19</title>
<path fill="none" stroke="midnightblue" d="M1000.16,-358.048C691.683,-309.24 604.24,-376.934 301,-322 298.061,-321.468 295.081,-320.86 292.083,-320.191"/>
<polygon fill="midnightblue" stroke="midnightblue" points="999.861,-361.544 1010.29,-359.679 1000.97,-354.633 999.861,-361.544"/>
</g>
<!-- Node20 -->
<g id="node20" class="node"><title>Node20</title>
<g id="a_node20"><a xlink:href="../../d3/d43/ITSMFTDigitizerSpec_8cxx.html" target="_top" xlink:title="/home/travis/build\l/AliceO2Group/AliceO2\l/Steer/DigitizerWorkflow\l/src/ITSMFTDigitizerSpec.cxx">
<polygon fill="none" stroke="black" points="310.5,-269 310.5,-321 459.5,-321 459.5,-269 310.5,-269"/>
<text text-anchor="start" x="318.5" y="-309" font-family="Helvetica,sans-Serif" font-size="10.00">/home/travis/build</text>
<text text-anchor="start" x="318.5" y="-298" font-family="Helvetica,sans-Serif" font-size="10.00">/AliceO2Group/AliceO2</text>
<text text-anchor="start" x="318.5" y="-287" font-family="Helvetica,sans-Serif" font-size="10.00">/Steer/DigitizerWorkflow</text>
<text text-anchor="middle" x="385" y="-276" font-family="Helvetica,sans-Serif" font-size="10.00">/src/ITSMFTDigitizerSpec.cxx</text>
</a>
</g>
</g>
<!-- Node6&#45;&gt;Node20 -->
<g id="edge22" class="edge"><title>Node6&#45;&gt;Node20</title>
<path fill="none" stroke="midnightblue" d="M1000.42,-358.076C765.614,-319.166 698.805,-364.737 469,-322 465.998,-321.442 462.953,-320.812 459.889,-320.125"/>
<polygon fill="midnightblue" stroke="midnightblue" points="999.836,-361.527 1010.28,-359.743 1001,-354.625 999.836,-361.527"/>
</g>
<!-- Node21 -->
<g id="node21" class="node"><title>Node21</title>
<g id="a_node21"><a xlink:href="../../d3/d13/SimReaderSpec_8cxx.html" target="_top" xlink:title="/home/travis/build\l/AliceO2Group/AliceO2\l/Steer/DigitizerWorkflow\l/src/SimReaderSpec.cxx">
<polygon fill="none" stroke="black" points="478,-269 478,-321 604,-321 604,-269 478,-269"/>
<text text-anchor="start" x="486" y="-309" font-family="Helvetica,sans-Serif" font-size="10.00">/home/travis/build</text>
<text text-anchor="start" x="486" y="-298" font-family="Helvetica,sans-Serif" font-size="10.00">/AliceO2Group/AliceO2</text>
<text text-anchor="start" x="486" y="-287" font-family="Helvetica,sans-Serif" font-size="10.00">/Steer/DigitizerWorkflow</text>
<text text-anchor="middle" x="541" y="-276" font-family="Helvetica,sans-Serif" font-size="10.00">/src/SimReaderSpec.cxx</text>
</a>
</g>
</g>
<!-- Node6&#45;&gt;Node21 -->
<g id="edge23" class="edge"><title>Node6&#45;&gt;Node21</title>
<path fill="none" stroke="midnightblue" d="M1000.4,-358.057C828.846,-327.764 778.892,-359.015 613,-322 610.146,-321.363 607.251,-320.644 604.343,-319.861"/>
<polygon fill="midnightblue" stroke="midnightblue" points="999.799,-361.505 1010.26,-359.842 1001.05,-354.617 999.799,-361.505"/>
</g>
<!-- Node22 -->
<g id="node22" class="node"><title>Node22</title>
<g id="a_node22"><a xlink:href="../../d6/d61/TOFDigitizerSpec_8cxx.html" target="_top" xlink:title="/home/travis/build\l/AliceO2Group/AliceO2\l/Steer/DigitizerWorkflow\l/src/TOFDigitizerSpec.cxx">
<polygon fill="none" stroke="black" points="622.5,-269 622.5,-321 755.5,-321 755.5,-269 622.5,-269"/>
<text text-anchor="start" x="630.5" y="-309" font-family="Helvetica,sans-Serif" font-size="10.00">/home/travis/build</text>
<text text-anchor="start" x="630.5" y="-298" font-family="Helvetica,sans-Serif" font-size="10.00">/AliceO2Group/AliceO2</text>
<text text-anchor="start" x="630.5" y="-287" font-family="Helvetica,sans-Serif" font-size="10.00">/Steer/DigitizerWorkflow</text>
<text text-anchor="middle" x="689" y="-276" font-family="Helvetica,sans-Serif" font-size="10.00">/src/TOFDigitizerSpec.cxx</text>
</a>
</g>
</g>
<!-- Node6&#45;&gt;Node22 -->
<g id="edge24" class="edge"><title>Node6&#45;&gt;Node22</title>
<path fill="none" stroke="midnightblue" d="M1000.41,-358.008C895.436,-336.344 864.929,-346.507 765,-322 761.885,-321.236 758.716,-320.399 755.528,-319.51"/>
<polygon fill="midnightblue" stroke="midnightblue" points="999.96,-361.489 1010.47,-360.132 1001.41,-354.64 999.96,-361.489"/>
</g>
<!-- Node23 -->
<g id="node23" class="node"><title>Node23</title>
<g id="a_node23"><a xlink:href="../../d6/d0b/HitProcessingManager_8cxx.html" target="_top" xlink:title="/home/travis/build\l/AliceO2Group/AliceO2\l/Steer/src/HitProcessingManager.cxx">
<polygon fill="none" stroke="black" points="774,-274.5 774,-315.5 954,-315.5 954,-274.5 774,-274.5"/>
<text text-anchor="start" x="782" y="-303.5" font-family="Helvetica,sans-Serif" font-size="10.00">/home/travis/build</text>
<text text-anchor="start" x="782" y="-292.5" font-family="Helvetica,sans-Serif" font-size="10.00">/AliceO2Group/AliceO2</text>
<text text-anchor="middle" x="864" y="-281.5" font-family="Helvetica,sans-Serif" font-size="10.00">/Steer/src/HitProcessingManager.cxx</text>
</a>
</g>
</g>
<!-- Node6&#45;&gt;Node23 -->
<g id="edge26" class="edge"><title>Node6&#45;&gt;Node23</title>
<path fill="none" stroke="midnightblue" d="M1018.96,-355.288C984.941,-342.273 945.597,-327.22 915.066,-315.538"/>
<polygon fill="midnightblue" stroke="midnightblue" points="1017.81,-358.596 1028.4,-358.901 1020.31,-352.058 1017.81,-358.596"/>
</g>
<!-- Node24 -->
<g id="node24" class="node"><title>Node24</title>
<g id="a_node24"><a xlink:href="../../d7/d6d/testHitProcessingManager_8cxx.html" target="_top" xlink:title="/home/travis/build\l/AliceO2Group/AliceO2\l/Steer/test/testHitProcessing\lManager.cxx">
<polygon fill="none" stroke="black" points="972.5,-269 972.5,-321 1115.5,-321 1115.5,-269 972.5,-269"/>
<text text-anchor="start" x="980.5" y="-309" font-family="Helvetica,sans-Serif" font-size="10.00">/home/travis/build</text>
<text text-anchor="start" x="980.5" y="-298" font-family="Helvetica,sans-Serif" font-size="10.00">/AliceO2Group/AliceO2</text>
<text text-anchor="start" x="980.5" y="-287" font-family="Helvetica,sans-Serif" font-size="10.00">/Steer/test/testHitProcessing</text>
<text text-anchor="middle" x="1044" y="-276" font-family="Helvetica,sans-Serif" font-size="10.00">Manager.cxx</text>
</a>
</g>
</g>
<!-- Node6&#45;&gt;Node24 -->
<g id="edge27" class="edge"><title>Node6&#45;&gt;Node24</title>
<path fill="none" stroke="midnightblue" d="M1074.49,-349.671C1069.08,-340.145 1063.31,-329.983 1058.26,-321.092"/>
<polygon fill="midnightblue" stroke="midnightblue" points="1071.55,-351.581 1079.54,-358.547 1077.64,-348.123 1071.55,-351.581"/>
</g>
<!-- Node7&#45;&gt;Node8 -->
<g id="edge7" class="edge"><title>Node7&#45;&gt;Node8</title>
<path fill="none" stroke="midnightblue" d="M1324.6,-265.102C1350.26,-254.452 1379.39,-242.356 1405.38,-231.564"/>
<polygon fill="midnightblue" stroke="midnightblue" points="1323.22,-261.888 1315.32,-268.955 1325.9,-268.353 1323.22,-261.888"/>
</g>
<!-- Node9 -->
<g id="node9" class="node"><title>Node9</title>
<g id="a_node9"><a xlink:href="../../df/d46/TPC_2simulation_2src_2DigitizerTask_8cxx.html" target="_top" xlink:title="/home/travis/build\l/AliceO2Group/AliceO2\l/Detectors/TPC/simulation\l/src/DigitizerTask.cxx">
<polygon fill="none" stroke="black" points="1286.5,-79 1286.5,-131 1419.5,-131 1419.5,-79 1286.5,-79"/>
<text text-anchor="start" x="1294.5" y="-119" font-family="Helvetica,sans-Serif" font-size="10.00">/home/travis/build</text>
<text text-anchor="start" x="1294.5" y="-108" font-family="Helvetica,sans-Serif" font-size="10.00">/AliceO2Group/AliceO2</text>
<text text-anchor="start" x="1294.5" y="-97" font-family="Helvetica,sans-Serif" font-size="10.00">/Detectors/TPC/simulation</text>
<text text-anchor="middle" x="1353" y="-86" font-family="Helvetica,sans-Serif" font-size="10.00">/src/DigitizerTask.cxx</text>
</a>
</g>
</g>
<!-- Node7&#45;&gt;Node9 -->
<g id="edge15" class="edge"><title>Node7&#45;&gt;Node9</title>
<path fill="none" stroke="midnightblue" d="M1306.11,-262.426C1316.48,-253.775 1326.26,-243.548 1333,-232 1351.2,-200.819 1354.33,-158.264 1354.2,-131.459"/>
<polygon fill="midnightblue" stroke="midnightblue" points="1303.79,-259.793 1298.1,-268.73 1308.12,-265.293 1303.79,-259.793"/>
</g>
<!-- Node7&#45;&gt;Node14 -->
<g id="edge16" class="edge"><title>Node7&#45;&gt;Node14</title>
<path fill="none" stroke="midnightblue" d="M1294.4,-261.664C1302.38,-252.949 1309.65,-242.885 1314,-232 1324.56,-205.588 1329.28,-191.989 1314,-168 1303.19,-151.027 1286.38,-138.625 1268.31,-129.589"/>
<polygon fill="midnightblue" stroke="midnightblue" points="1291.75,-259.367 1287.26,-268.963 1296.75,-264.261 1291.75,-259.367"/>
</g>
<!-- Node15 -->
<g id="node15" class="node"><title>Node15</title>
<g id="a_node15"><a xlink:href="../../d7/d0a/TPC_2simulation_2src_2Digitizer_8cxx.html" target="_top" xlink:title="/home/travis/build\l/AliceO2Group/AliceO2\l/Detectors/TPC/simulation\l/src/Digitizer.cxx">
<polygon fill="none" stroke="black" points="1172.5,-174 1172.5,-226 1305.5,-226 1305.5,-174 1172.5,-174"/>
<text text-anchor="start" x="1180.5" y="-214" font-family="Helvetica,sans-Serif" font-size="10.00">/home/travis/build</text>
<text text-anchor="start" x="1180.5" y="-203" font-family="Helvetica,sans-Serif" font-size="10.00">/AliceO2Group/AliceO2</text>
<text text-anchor="start" x="1180.5" y="-192" font-family="Helvetica,sans-Serif" font-size="10.00">/Detectors/TPC/simulation</text>
<text text-anchor="middle" x="1239" y="-181" font-family="Helvetica,sans-Serif" font-size="10.00">/src/Digitizer.cxx</text>
</a>
</g>
</g>
<!-- Node7&#45;&gt;Node15 -->
<g id="edge14" class="edge"><title>Node7&#45;&gt;Node15</title>
<path fill="none" stroke="midnightblue" d="M1248.9,-258.549C1247.04,-247.722 1245.03,-236.046 1243.31,-226.06"/>
<polygon fill="midnightblue" stroke="midnightblue" points="1245.48,-259.326 1250.63,-268.587 1252.38,-258.139 1245.48,-259.326"/>
</g>
<!-- Node8&#45;&gt;Node9 -->
<g id="edge8" class="edge"><title>Node8&#45;&gt;Node9</title>
<path fill="none" stroke="midnightblue" d="M1429.2,-162.24C1415.05,-151.801 1399.98,-140.676 1387.01,-131.1"/>
<polygon fill="midnightblue" stroke="midnightblue" points="1427.27,-165.168 1437.39,-168.291 1431.43,-159.536 1427.27,-165.168"/>
</g>
<!-- Node10 -->
<g id="node10" class="node"><title>Node10</title>
<g id="a_node10"><a xlink:href="../../d1/d7a/run__digi_8C.html" target="_top" xlink:title="/home/travis/build\l/AliceO2Group/AliceO2\l/macro/run_digi.C">
<polygon fill="none" stroke="black" points="1710,-84.5 1710,-125.5 1828,-125.5 1828,-84.5 1710,-84.5"/>
<text text-anchor="start" x="1718" y="-113.5" font-family="Helvetica,sans-Serif" font-size="10.00">/home/travis/build</text>
<text text-anchor="start" x="1718" y="-102.5" font-family="Helvetica,sans-Serif" font-size="10.00">/AliceO2Group/AliceO2</text>
<text text-anchor="middle" x="1769" y="-91.5" font-family="Helvetica,sans-Serif" font-size="10.00">/macro/run_digi.C</text>
</a>
</g>
</g>
<!-- Node8&#45;&gt;Node10 -->
<g id="edge9" class="edge"><title>Node8&#45;&gt;Node10</title>
<path fill="none" stroke="midnightblue" d="M1567.69,-173.824C1608.51,-161.832 1657.44,-146.879 1701,-132 1706.86,-129.998 1712.97,-127.81 1719.02,-125.58"/>
<polygon fill="midnightblue" stroke="midnightblue" points="1566.65,-170.482 1558.04,-176.65 1568.62,-177.2 1566.65,-170.482"/>
</g>
<!-- Node11 -->
<g id="node11" class="node"><title>Node11</title>
<g id="a_node11"><a xlink:href="../../d9/de3/run__digi__all_8C.html" target="_top" xlink:title="/home/travis/build\l/AliceO2Group/AliceO2\l/macro/run_digi_all.C">
<polygon fill="none" stroke="black" points="1438,-84.5 1438,-125.5 1556,-125.5 1556,-84.5 1438,-84.5"/>
<text text-anchor="start" x="1446" y="-113.5" font-family="Helvetica,sans-Serif" font-size="10.00">/home/travis/build</text>
<text text-anchor="start" x="1446" y="-102.5" font-family="Helvetica,sans-Serif" font-size="10.00">/AliceO2Group/AliceO2</text>
<text text-anchor="middle" x="1497" y="-91.5" font-family="Helvetica,sans-Serif" font-size="10.00">/macro/run_digi_all.C</text>
</a>
</g>
</g>
<!-- Node8&#45;&gt;Node11 -->
<g id="edge10" class="edge"><title>Node8&#45;&gt;Node11</title>
<path fill="none" stroke="midnightblue" d="M1486.85,-158.458C1489.06,-147.047 1491.36,-135.149 1493.21,-125.575"/>
<polygon fill="midnightblue" stroke="midnightblue" points="1483.41,-157.808 1484.94,-168.291 1490.28,-159.138 1483.41,-157.808"/>
</g>
<!-- Node12 -->
<g id="node12" class="node"><title>Node12</title>
<g id="a_node12"><a xlink:href="../../d3/db7/run__digi__tpc_8C.html" target="_top" xlink:title="/home/travis/build\l/AliceO2Group/AliceO2\l/macro/run_digi_tpc.C">
<polygon fill="none" stroke="black" points="1574,-84.5 1574,-125.5 1692,-125.5 1692,-84.5 1574,-84.5"/>
<text text-anchor="start" x="1582" y="-113.5" font-family="Helvetica,sans-Serif" font-size="10.00">/home/travis/build</text>
<text text-anchor="start" x="1582" y="-102.5" font-family="Helvetica,sans-Serif" font-size="10.00">/AliceO2Group/AliceO2</text>
<text text-anchor="middle" x="1633" y="-91.5" font-family="Helvetica,sans-Serif" font-size="10.00">/macro/run_digi_tpc.C</text>
</a>
</g>
</g>
<!-- Node8&#45;&gt;Node12 -->
<g id="edge11" class="edge"><title>Node8&#45;&gt;Node12</title>
<path fill="none" stroke="midnightblue" d="M1538.46,-163.092C1559.58,-150.335 1582.57,-136.455 1600.59,-125.575"/>
<polygon fill="midnightblue" stroke="midnightblue" points="1536.6,-160.125 1529.85,-168.291 1540.22,-166.117 1536.6,-160.125"/>
</g>
<!-- Node8&#45;&gt;Node14 -->
<g id="edge13" class="edge"><title>Node8&#45;&gt;Node14</title>
<path fill="none" stroke="midnightblue" d="M1390.23,-171.296C1349.29,-158.519 1301.06,-143.467 1261.22,-131.036"/>
<polygon fill="midnightblue" stroke="midnightblue" points="1389.34,-174.684 1399.92,-174.322 1391.42,-168.002 1389.34,-174.684"/>
</g>
<!-- Node13 -->
<g id="node13" class="node"><title>Node13</title>
<g id="a_node13"><a xlink:href="../../d3/d56/runTPC_8cxx.html" target="_top" xlink:title="/home/travis/build\l/AliceO2Group/AliceO2\l/run/runTPC.cxx">
<polygon fill="none" stroke="black" points="1574,-0.5 1574,-41.5 1692,-41.5 1692,-0.5 1574,-0.5"/>
<text text-anchor="start" x="1582" y="-29.5" font-family="Helvetica,sans-Serif" font-size="10.00">/home/travis/build</text>
<text text-anchor="start" x="1582" y="-18.5" font-family="Helvetica,sans-Serif" font-size="10.00">/AliceO2Group/AliceO2</text>
<text text-anchor="middle" x="1633" y="-7.5" font-family="Helvetica,sans-Serif" font-size="10.00">/run/runTPC.cxx</text>
</a>
</g>
</g>
<!-- Node12&#45;&gt;Node13 -->
<g id="edge12" class="edge"><title>Node12&#45;&gt;Node13</title>
<path fill="none" stroke="midnightblue" d="M1633,-73.881C1633,-63.1328 1633,-51.309 1633,-41.6671"/>
<polygon fill="midnightblue" stroke="midnightblue" points="1629.5,-74.1501 1633,-84.1501 1636.5,-74.1501 1629.5,-74.1501"/>
</g>
<!-- Node25&#45;&gt;Node6 -->
<g id="edge33" class="edge"><title>Node25&#45;&gt;Node6</title>
<path fill="none" stroke="midnightblue" d="M1222.11,-449.374C1197.15,-437.026 1168.47,-422.841 1144.59,-411.026"/>
<polygon fill="midnightblue" stroke="midnightblue" points="1220.61,-452.536 1231.12,-453.833 1223.71,-446.262 1220.61,-452.536"/>
</g>
<!-- Node25&#45;&gt;Node16 -->
<g id="edge32" class="edge"><title>Node25&#45;&gt;Node16</title>
<path fill="none" stroke="midnightblue" d="M1259.16,-444.634C1244.57,-417.985 1231.98,-381.714 1253,-358 1297.25,-308.085 1485.84,-336.258 1551,-322 1554.03,-321.337 1557.11,-320.608 1560.21,-319.828"/>
<polygon fill="midnightblue" stroke="midnightblue" points="1256.32,-446.713 1264.35,-453.622 1262.38,-443.212 1256.32,-446.713"/>
</g>
<!-- Node26 -->
<g id="node26" class="node"><title>Node26</title>
<g id="a_node26"><a xlink:href="../../db/d50/O2HitMerger_8h.html" target="_top" xlink:title="/home/travis/build\l/AliceO2Group/AliceO2\l/run/O2HitMerger.h">
<polygon fill="none" stroke="black" points="1689,-364.5 1689,-405.5 1807,-405.5 1807,-364.5 1689,-364.5"/>
<text text-anchor="start" x="1697" y="-393.5" font-family="Helvetica,sans-Serif" font-size="10.00">/home/travis/build</text>
<text text-anchor="start" x="1697" y="-382.5" font-family="Helvetica,sans-Serif" font-size="10.00">/AliceO2Group/AliceO2</text>
<text text-anchor="middle" x="1748" y="-371.5" font-family="Helvetica,sans-Serif" font-size="10.00">/run/O2HitMerger.h</text>
</a>
</g>
</g>
<!-- Node25&#45;&gt;Node26 -->
<g id="edge29" class="edge"><title>Node25&#45;&gt;Node26</title>
<path fill="none" stroke="midnightblue" d="M1368.14,-463.61C1439.72,-450.59 1544.19,-431.058 1635,-412 1652.53,-408.32 1671.53,-404.057 1688.86,-400.06"/>
<polygon fill="midnightblue" stroke="midnightblue" points="1367.47,-460.174 1358.26,-465.404 1368.72,-467.061 1367.47,-460.174"/>
</g>
<!-- Node28 -->
<g id="node28" class="node"><title>Node28</title>
<g id="a_node28"><a xlink:href="../../de/d50/InteractionSampler_8cxx.html" target="_top" xlink:title="/home/travis/build\l/AliceO2Group/AliceO2\l/Steer/src/InteractionSampler.cxx">
<polygon fill="none" stroke="black" points="1262.5,-364.5 1262.5,-405.5 1425.5,-405.5 1425.5,-364.5 1262.5,-364.5"/>
<text text-anchor="start" x="1270.5" y="-393.5" font-family="Helvetica,sans-Serif" font-size="10.00">/home/travis/build</text>
<text text-anchor="start" x="1270.5" y="-382.5" font-family="Helvetica,sans-Serif" font-size="10.00">/AliceO2Group/AliceO2</text>
<text text-anchor="middle" x="1344" y="-371.5" font-family="Helvetica,sans-Serif" font-size="10.00">/Steer/src/InteractionSampler.cxx</text>
</a>
</g>
</g>
<!-- Node25&#45;&gt;Node28 -->
<g id="edge34" class="edge"><title>Node25&#45;&gt;Node28</title>
<path fill="none" stroke="midnightblue" d="M1304.56,-445.157C1313.38,-431.929 1323.19,-417.221 1330.81,-405.78"/>
<polygon fill="midnightblue" stroke="midnightblue" points="1301.58,-443.325 1298.94,-453.587 1307.4,-447.208 1301.58,-443.325"/>
</g>
<!-- Node29 -->
<g id="node29" class="node"><title>Node29</title>
<g id="a_node29"><a xlink:href="../../d6/d9e/testInteractionSampler_8cxx.html" target="_top" xlink:title="/home/travis/build\l/AliceO2Group/AliceO2\l/Steer/test/testInteractionSampler.cxx">
<polygon fill="none" stroke="black" points="1444,-364.5 1444,-405.5 1626,-405.5 1626,-364.5 1444,-364.5"/>
<text text-anchor="start" x="1452" y="-393.5" font-family="Helvetica,sans-Serif" font-size="10.00">/home/travis/build</text>
<text text-anchor="start" x="1452" y="-382.5" font-family="Helvetica,sans-Serif" font-size="10.00">/AliceO2Group/AliceO2</text>
<text text-anchor="middle" x="1535" y="-371.5" font-family="Helvetica,sans-Serif" font-size="10.00">/Steer/test/testInteractionSampler.cxx</text>
</a>
</g>
</g>
<!-- Node25&#45;&gt;Node29 -->
<g id="edge35" class="edge"><title>Node25&#45;&gt;Node29</title>
<path fill="none" stroke="midnightblue" d="M1359.74,-450.424C1399.23,-435.907 1446.21,-418.638 1481.59,-405.635"/>
<polygon fill="midnightblue" stroke="midnightblue" points="1358.31,-447.22 1350.13,-453.955 1360.73,-453.79 1358.31,-447.22"/>
</g>
<!-- Node26&#45;&gt;Node26 -->
<g id="edge30" class="edge"><title>Node26&#45;&gt;Node26</title>
<path fill="none" stroke="midnightblue" d="M1816.66,-397.611C1821.83,-394.798 1825,-390.595 1825,-385 1825,-376.475 1817.63,-371.18 1807.08,-369.115"/>
<polygon fill="midnightblue" stroke="midnightblue" points="1815.41,-394.34 1807.08,-400.885 1817.67,-400.964 1815.41,-394.34"/>
</g>
<!-- Node27 -->
<g id="node27" class="node"><title>Node27</title>
<g id="a_node27"><a xlink:href="../../d9/d16/O2HitMergerRunner_8cxx.html" target="_top" xlink:title="/home/travis/build\l/AliceO2Group/AliceO2\l/run/O2HitMergerRunner.cxx">
<polygon fill="none" stroke="black" points="1722,-274.5 1722,-315.5 1864,-315.5 1864,-274.5 1722,-274.5"/>
<text text-anchor="start" x="1730" y="-303.5" font-family="Helvetica,sans-Serif" font-size="10.00">/home/travis/build</text>
<text text-anchor="start" x="1730" y="-292.5" font-family="Helvetica,sans-Serif" font-size="10.00">/AliceO2Group/AliceO2</text>
<text text-anchor="middle" x="1793" y="-281.5" font-family="Helvetica,sans-Serif" font-size="10.00">/run/O2HitMergerRunner.cxx</text>
</a>
</g>
</g>
<!-- Node26&#45;&gt;Node27 -->
<g id="edge31" class="edge"><title>Node26&#45;&gt;Node27</title>
<path fill="none" stroke="midnightblue" d="M1762.59,-355.468C1769.22,-342.501 1776.9,-327.481 1782.89,-315.78"/>
<polygon fill="midnightblue" stroke="midnightblue" points="1759.42,-353.973 1757.99,-364.47 1765.66,-357.16 1759.42,-353.973"/>
</g>
</g>
</svg>
