<?xml version="1.0" encoding="UTF-8" standalone="no"?>
<!DOCTYPE svg PUBLIC "-//W3C//DTD SVG 1.1//EN"
 "http://www.w3.org/Graphics/SVG/1.1/DTD/svg11.dtd">
<!-- Generated by graphviz version 2.36.0 (20140111.2315)
 -->
<!-- Title: /home/travis/build/AliceO2Group/AliceO2/Framework/Core/include/Framework/DataProcessingHeader.h Pages: 1 -->
<svg width="3794pt" height="422pt"
 viewBox="0.00 0.00 3793.87 422.00" xmlns="http://www.w3.org/2000/svg" xmlns:xlink="http://www.w3.org/1999/xlink">
<g id="graph0" class="graph" transform="scale(1 1) rotate(0) translate(4 418)">
<title>/home/travis/build/AliceO2Group/AliceO2/Framework/Core/include/Framework/DataProcessingHeader.h</title>
<!-- Node1 -->
<g id="node1" class="node"><title>Node1</title>
<polygon fill="#bfbfbf" stroke="black" points="1830.37,-361 1830.37,-413 2011.37,-413 2011.37,-361 1830.37,-361"/>
<text text-anchor="start" x="1838.37" y="-401" font-family="Helvetica,sans-Serif" font-size="10.00">/home/travis/build</text>
<text text-anchor="start" x="1838.37" y="-390" font-family="Helvetica,sans-Serif" font-size="10.00">/AliceO2Group/AliceO2</text>
<text text-anchor="start" x="1838.37" y="-379" font-family="Helvetica,sans-Serif" font-size="10.00">/Framework/Core/include</text>
<text text-anchor="middle" x="1920.87" y="-368" font-family="Helvetica,sans-Serif" font-size="10.00">/Framework/DataProcessingHeader.h</text>
</g>
<!-- Node2 -->
<g id="node2" class="node"><title>Node2</title>
<g id="a_node2"><a xlink:href="../../d3/da3/DataDescriptorMatcher_8h.html" target="_top" xlink:title="/home/travis/build\l/AliceO2Group/AliceO2\l/Framework/Core/include\l/Framework/DataDescriptorMatcher.h">
<polygon fill="none" stroke="black" points="675.373,-271 675.373,-323 856.373,-323 856.373,-271 675.373,-271"/>
<text text-anchor="start" x="683.373" y="-311" font-family="Helvetica,sans-Serif" font-size="10.00">/home/travis/build</text>
<text text-anchor="start" x="683.373" y="-300" font-family="Helvetica,sans-Serif" font-size="10.00">/AliceO2Group/AliceO2</text>
<text text-anchor="start" x="683.373" y="-289" font-family="Helvetica,sans-Serif" font-size="10.00">/Framework/Core/include</text>
<text text-anchor="middle" x="765.873" y="-278" font-family="Helvetica,sans-Serif" font-size="10.00">/Framework/DataDescriptorMatcher.h</text>
</a>
</g>
</g>
<!-- Node1&#45;&gt;Node2 -->
<g id="edge1" class="edge"><title>Node1&#45;&gt;Node2</title>
<path fill="none" stroke="midnightblue" d="M1819.99,-379.271C1659.14,-368.423 1334.69,-346.045 1059.87,-324 991.685,-318.53 914.663,-311.695 856.564,-306.405"/>
<polygon fill="midnightblue" stroke="midnightblue" points="1820.13,-382.789 1830.34,-379.969 1820.6,-375.805 1820.13,-382.789"/>
</g>
<!-- Node5 -->
<g id="node5" class="node"><title>Node5</title>
<g id="a_node5"><a xlink:href="../../db/dac/DataProcessingDevice_8cxx.html" target="_top" xlink:title="/home/travis/build\l/AliceO2Group/AliceO2\l/Framework/Core/src/DataProcessing\lDevice.cxx">
<polygon fill="none" stroke="black" points="45.8728,-1 45.8728,-53 227.873,-53 227.873,-1 45.8728,-1"/>
<text text-anchor="start" x="53.8728" y="-41" font-family="Helvetica,sans-Serif" font-size="10.00">/home/travis/build</text>
<text text-anchor="start" x="53.8728" y="-30" font-family="Helvetica,sans-Serif" font-size="10.00">/AliceO2Group/AliceO2</text>
<text text-anchor="start" x="53.8728" y="-19" font-family="Helvetica,sans-Serif" font-size="10.00">/Framework/Core/src/DataProcessing</text>
<text text-anchor="middle" x="136.873" y="-8" font-family="Helvetica,sans-Serif" font-size="10.00">Device.cxx</text>
</a>
</g>
</g>
<!-- Node1&#45;&gt;Node5 -->
<g id="edge17" class="edge"><title>Node1&#45;&gt;Node5</title>
<path fill="none" stroke="midnightblue" d="M1820.2,-385.269C1451.77,-382.241 194.53,-368.667 121.873,-324 25.6727,-264.86 -34.831,-187.068 22.8728,-90 32.2554,-74.2168 47.2181,-62.1992 63.257,-53.1492"/>
<polygon fill="midnightblue" stroke="midnightblue" points="1820.29,-388.77 1830.31,-385.351 1820.34,-381.77 1820.29,-388.77"/>
</g>
<!-- Node7 -->
<g id="node7" class="node"><title>Node7</title>
<g id="a_node7"><a xlink:href="../../d1/d57/DataRelayer_8cxx.html" target="_top" xlink:title="/home/travis/build\l/AliceO2Group/AliceO2\l/Framework/Core/src/DataRelayer.cxx">
<polygon fill="none" stroke="black" points="943.373,-96.5 943.373,-137.5 1128.37,-137.5 1128.37,-96.5 943.373,-96.5"/>
<text text-anchor="start" x="951.373" y="-125.5" font-family="Helvetica,sans-Serif" font-size="10.00">/home/travis/build</text>
<text text-anchor="start" x="951.373" y="-114.5" font-family="Helvetica,sans-Serif" font-size="10.00">/AliceO2Group/AliceO2</text>
<text text-anchor="middle" x="1035.87" y="-103.5" font-family="Helvetica,sans-Serif" font-size="10.00">/Framework/Core/src/DataRelayer.cxx</text>
</a>
</g>
</g>
<!-- Node1&#45;&gt;Node7 -->
<g id="edge19" class="edge"><title>Node1&#45;&gt;Node7</title>
<path fill="none" stroke="midnightblue" d="M1819.95,-384.366C1618.94,-380.212 1183.34,-366.38 1130.87,-324 1078.91,-282.029 1119.55,-238.806 1087.87,-180 1079.48,-164.415 1066.75,-149.153 1055.99,-137.67"/>
<polygon fill="midnightblue" stroke="midnightblue" points="1820.15,-387.87 1830.22,-384.574 1820.29,-380.872 1820.15,-387.87"/>
</g>
<!-- Node8 -->
<g id="node8" class="node"><title>Node8</title>
<g id="a_node8"><a xlink:href="../../d8/dd6/benchmark__DataRelayer_8cxx.html" target="_top" xlink:title="/home/travis/build\l/AliceO2Group/AliceO2\l/Framework/Core/test/benchmark\l_DataRelayer.cxx">
<polygon fill="none" stroke="black" points="32.3728,-91 32.3728,-143 195.373,-143 195.373,-91 32.3728,-91"/>
<text text-anchor="start" x="40.3728" y="-131" font-family="Helvetica,sans-Serif" font-size="10.00">/home/travis/build</text>
<text text-anchor="start" x="40.3728" y="-120" font-family="Helvetica,sans-Serif" font-size="10.00">/AliceO2Group/AliceO2</text>
<text text-anchor="start" x="40.3728" y="-109" font-family="Helvetica,sans-Serif" font-size="10.00">/Framework/Core/test/benchmark</text>
<text text-anchor="middle" x="113.873" y="-98" font-family="Helvetica,sans-Serif" font-size="10.00">_DataRelayer.cxx</text>
</a>
</g>
</g>
<!-- Node1&#45;&gt;Node8 -->
<g id="edge27" class="edge"><title>Node1&#45;&gt;Node8</title>
<path fill="none" stroke="midnightblue" d="M1819.95,-385.245C1457.15,-382.168 236.849,-368.539 166.873,-324 107.058,-285.929 107.153,-189.089 110.939,-143.049"/>
<polygon fill="midnightblue" stroke="midnightblue" points="1820.14,-388.747 1830.17,-385.331 1820.2,-381.747 1820.14,-388.747"/>
</g>
<!-- Node9 -->
<g id="node9" class="node"><title>Node9</title>
<g id="a_node9"><a xlink:href="../../df/d93/benchmark__InputRecord_8cxx.html" target="_top" xlink:title="/home/travis/build\l/AliceO2Group/AliceO2\l/Framework/Core/test/benchmark\l_InputRecord.cxx">
<polygon fill="none" stroke="black" points="213.373,-91 213.373,-143 376.373,-143 376.373,-91 213.373,-91"/>
<text text-anchor="start" x="221.373" y="-131" font-family="Helvetica,sans-Serif" font-size="10.00">/home/travis/build</text>
<text text-anchor="start" x="221.373" y="-120" font-family="Helvetica,sans-Serif" font-size="10.00">/AliceO2Group/AliceO2</text>
<text text-anchor="start" x="221.373" y="-109" font-family="Helvetica,sans-Serif" font-size="10.00">/Framework/Core/test/benchmark</text>
<text text-anchor="middle" x="294.873" y="-98" font-family="Helvetica,sans-Serif" font-size="10.00">_InputRecord.cxx</text>
</a>
</g>
</g>
<!-- Node1&#45;&gt;Node9 -->
<g id="edge28" class="edge"><title>Node1&#45;&gt;Node9</title>
<path fill="none" stroke="midnightblue" d="M1820.12,-385.069C1530.98,-381.877 702.253,-368.956 434.873,-324 297.596,-300.919 217.968,-345.682 134.873,-234 120.546,-214.745 121.31,-199.801 134.873,-180 140.26,-172.135 180.26,-156.635 218.913,-143.101"/>
<polygon fill="midnightblue" stroke="midnightblue" points="1820.13,-388.569 1830.17,-385.178 1820.21,-381.569 1820.13,-388.569"/>
</g>
<!-- Node10 -->
<g id="node10" class="node"><title>Node10</title>
<g id="a_node10"><a xlink:href="../../dc/d6d/test__DataRelayer_8cxx.html" target="_top" xlink:title="/home/travis/build\l/AliceO2Group/AliceO2\l/Framework/Core/test/test\l_DataRelayer.cxx">
<polygon fill="none" stroke="black" points="694.373,-91 694.373,-143 825.373,-143 825.373,-91 694.373,-91"/>
<text text-anchor="start" x="702.373" y="-131" font-family="Helvetica,sans-Serif" font-size="10.00">/home/travis/build</text>
<text text-anchor="start" x="702.373" y="-120" font-family="Helvetica,sans-Serif" font-size="10.00">/AliceO2Group/AliceO2</text>
<text text-anchor="start" x="702.373" y="-109" font-family="Helvetica,sans-Serif" font-size="10.00">/Framework/Core/test/test</text>
<text text-anchor="middle" x="759.873" y="-98" font-family="Helvetica,sans-Serif" font-size="10.00">_DataRelayer.cxx</text>
</a>
</g>
</g>
<!-- Node1&#45;&gt;Node10 -->
<g id="edge29" class="edge"><title>Node1&#45;&gt;Node10</title>
<path fill="none" stroke="midnightblue" d="M1819.9,-383.691C1613.47,-378.209 1157.46,-361.924 1097.87,-324 1035.93,-284.573 1075.44,-224.296 1016.87,-180 987.084,-157.469 891.3,-138.527 825.473,-127.718"/>
<polygon fill="midnightblue" stroke="midnightblue" points="1820.05,-387.196 1830.14,-383.959 1820.24,-380.198 1820.05,-387.196"/>
</g>
<!-- Node11 -->
<g id="node11" class="node"><title>Node11</title>
<g id="a_node11"><a xlink:href="../../df/d93/CommonDataProcessors_8cxx.html" target="_top" xlink:title="/home/travis/build\l/AliceO2Group/AliceO2\l/Framework/Core/src/CommonData\lProcessors.cxx">
<polygon fill="none" stroke="black" points="144.373,-181 144.373,-233 317.373,-233 317.373,-181 144.373,-181"/>
<text text-anchor="start" x="152.373" y="-221" font-family="Helvetica,sans-Serif" font-size="10.00">/home/travis/build</text>
<text text-anchor="start" x="152.373" y="-210" font-family="Helvetica,sans-Serif" font-size="10.00">/AliceO2Group/AliceO2</text>
<text text-anchor="start" x="152.373" y="-199" font-family="Helvetica,sans-Serif" font-size="10.00">/Framework/Core/src/CommonData</text>
<text text-anchor="middle" x="230.873" y="-188" font-family="Helvetica,sans-Serif" font-size="10.00">Processors.cxx</text>
</a>
</g>
</g>
<!-- Node1&#45;&gt;Node11 -->
<g id="edge15" class="edge"><title>Node1&#45;&gt;Node11</title>
<path fill="none" stroke="midnightblue" d="M1819.97,-383.75C1562.79,-377.578 887.49,-358.499 665.873,-324 536.899,-303.923 391.081,-260.676 305.279,-233.032"/>
<polygon fill="midnightblue" stroke="midnightblue" points="1819.97,-387.251 1830.05,-383.991 1820.13,-380.253 1819.97,-387.251"/>
</g>
<!-- Node15 -->
<g id="node15" class="node"><title>Node15</title>
<g id="a_node15"><a xlink:href="../../db/d9d/DataAllocator_8cxx.html" target="_top" xlink:title="/home/travis/build\l/AliceO2Group/AliceO2\l/Framework/Core/src/DataAllocator.cxx">
<polygon fill="none" stroke="black" points="1139.87,-276.5 1139.87,-317.5 1329.87,-317.5 1329.87,-276.5 1139.87,-276.5"/>
<text text-anchor="start" x="1147.87" y="-305.5" font-family="Helvetica,sans-Serif" font-size="10.00">/home/travis/build</text>
<text text-anchor="start" x="1147.87" y="-294.5" font-family="Helvetica,sans-Serif" font-size="10.00">/AliceO2Group/AliceO2</text>
<text text-anchor="middle" x="1234.87" y="-283.5" font-family="Helvetica,sans-Serif" font-size="10.00">/Framework/Core/src/DataAllocator.cxx</text>
</a>
</g>
</g>
<!-- Node1&#45;&gt;Node15 -->
<g id="edge16" class="edge"><title>Node1&#45;&gt;Node15</title>
<path fill="none" stroke="midnightblue" d="M1820.37,-379.551C1703.88,-371.094 1506.45,-353.725 1338.87,-324 1328.7,-322.196 1318.05,-319.952 1307.61,-317.544"/>
<polygon fill="midnightblue" stroke="midnightblue" points="1820.12,-383.042 1830.35,-380.268 1820.62,-376.06 1820.12,-383.042"/>
</g>
<!-- Node16 -->
<g id="node16" class="node"><title>Node16</title>
<g id="a_node16"><a xlink:href="../../d8/d4b/DataProcessingHeader_8cxx.html" target="_top" xlink:title="/home/travis/build\l/AliceO2Group/AliceO2\l/Framework/Core/src/DataProcessing\lHeader.cxx">
<polygon fill="none" stroke="black" points="1347.87,-271 1347.87,-323 1529.87,-323 1529.87,-271 1347.87,-271"/>
<text text-anchor="start" x="1355.87" y="-311" font-family="Helvetica,sans-Serif" font-size="10.00">/home/travis/build</text>
<text text-anchor="start" x="1355.87" y="-300" font-family="Helvetica,sans-Serif" font-size="10.00">/AliceO2Group/AliceO2</text>
<text text-anchor="start" x="1355.87" y="-289" font-family="Helvetica,sans-Serif" font-size="10.00">/Framework/Core/src/DataProcessing</text>
<text text-anchor="middle" x="1438.87" y="-278" font-family="Helvetica,sans-Serif" font-size="10.00">Header.cxx</text>
</a>
</g>
</g>
<!-- Node1&#45;&gt;Node16 -->
<g id="edge18" class="edge"><title>Node1&#45;&gt;Node16</title>
<path fill="none" stroke="midnightblue" d="M1819.81,-372.103C1742.76,-360.893 1634.19,-343.771 1539.87,-324 1536.59,-323.313 1533.26,-322.589 1529.9,-321.838"/>
<polygon fill="midnightblue" stroke="midnightblue" points="1819.6,-375.609 1829.99,-373.577 1820.6,-368.681 1819.6,-375.609"/>
</g>
<!-- Node17 -->
<g id="node17" class="node"><title>Node17</title>
<g id="a_node17"><a xlink:href="../../d0/dd6/DataSamplingConditionNConsecutive_8cxx.html" target="_top" xlink:title="Implementation of DataSamplingConditionNConsecutive. ">
<polygon fill="none" stroke="black" points="1548.37,-271 1548.37,-323 1721.37,-323 1721.37,-271 1548.37,-271"/>
<text text-anchor="start" x="1556.37" y="-311" font-family="Helvetica,sans-Serif" font-size="10.00">/home/travis/build</text>
<text text-anchor="start" x="1556.37" y="-300" font-family="Helvetica,sans-Serif" font-size="10.00">/AliceO2Group/AliceO2</text>
<text text-anchor="start" x="1556.37" y="-289" font-family="Helvetica,sans-Serif" font-size="10.00">/Framework/Core/src/DataSampling</text>
<text text-anchor="middle" x="1634.87" y="-278" font-family="Helvetica,sans-Serif" font-size="10.00">ConditionNConsecutive.cxx</text>
</a>
</g>
</g>
<!-- Node1&#45;&gt;Node17 -->
<g id="edge20" class="edge"><title>Node1&#45;&gt;Node17</title>
<path fill="none" stroke="midnightblue" d="M1829.69,-357.945C1793.37,-346.767 1751.88,-334.002 1716.55,-323.133"/>
<polygon fill="midnightblue" stroke="midnightblue" points="1828.71,-361.305 1839.3,-360.901 1830.77,-354.614 1828.71,-361.305"/>
</g>
<!-- Node18 -->
<g id="node18" class="node"><title>Node18</title>
<g id="a_node18"><a xlink:href="../../d4/dba/DataSamplingConditionRandom_8cxx.html" target="_top" xlink:title="Implementation of random DataSamplingCondition. ">
<polygon fill="none" stroke="black" points="1739.37,-271 1739.37,-323 1912.37,-323 1912.37,-271 1739.37,-271"/>
<text text-anchor="start" x="1747.37" y="-311" font-family="Helvetica,sans-Serif" font-size="10.00">/home/travis/build</text>
<text text-anchor="start" x="1747.37" y="-300" font-family="Helvetica,sans-Serif" font-size="10.00">/AliceO2Group/AliceO2</text>
<text text-anchor="start" x="1747.37" y="-289" font-family="Helvetica,sans-Serif" font-size="10.00">/Framework/Core/src/DataSampling</text>
<text text-anchor="middle" x="1825.87" y="-278" font-family="Helvetica,sans-Serif" font-size="10.00">ConditionRandom.cxx</text>
</a>
</g>
</g>
<!-- Node1&#45;&gt;Node18 -->
<g id="edge21" class="edge"><title>Node1&#45;&gt;Node18</title>
<path fill="none" stroke="midnightblue" d="M1886.27,-353.951C1875.35,-343.829 1863.44,-332.795 1853.1,-323.221"/>
<polygon fill="midnightblue" stroke="midnightblue" points="1883.93,-356.555 1893.65,-360.783 1888.69,-351.419 1883.93,-356.555"/>
</g>
<!-- Node19 -->
<g id="node19" class="node"><title>Node19</title>
<g id="a_node19"><a xlink:href="../../dc/da2/DataSamplingReadoutAdapter_8cxx.html" target="_top" xlink:title="/home/travis/build\l/AliceO2Group/AliceO2\l/Framework/Core/src/DataSampling\lReadoutAdapter.cxx">
<polygon fill="none" stroke="black" points="1930.37,-271 1930.37,-323 2103.37,-323 2103.37,-271 1930.37,-271"/>
<text text-anchor="start" x="1938.37" y="-311" font-family="Helvetica,sans-Serif" font-size="10.00">/home/travis/build</text>
<text text-anchor="start" x="1938.37" y="-300" font-family="Helvetica,sans-Serif" font-size="10.00">/AliceO2Group/AliceO2</text>
<text text-anchor="start" x="1938.37" y="-289" font-family="Helvetica,sans-Serif" font-size="10.00">/Framework/Core/src/DataSampling</text>
<text text-anchor="middle" x="2016.87" y="-278" font-family="Helvetica,sans-Serif" font-size="10.00">ReadoutAdapter.cxx</text>
</a>
</g>
</g>
<!-- Node1&#45;&gt;Node19 -->
<g id="edge22" class="edge"><title>Node1&#45;&gt;Node19</title>
<path fill="none" stroke="midnightblue" d="M1955.84,-353.951C1966.88,-343.829 1978.91,-332.795 1989.36,-323.221"/>
<polygon fill="midnightblue" stroke="midnightblue" points="1953.39,-351.445 1948.38,-360.783 1958.12,-356.606 1953.39,-351.445"/>
</g>
<!-- Node20 -->
<g id="node20" class="node"><title>Node20</title>
<g id="a_node20"><a xlink:href="../../d0/d9f/DataSourceDevice_8cxx.html" target="_top" xlink:title="/home/travis/build\l/AliceO2Group/AliceO2\l/Framework/Core/src/DataSource\lDevice.cxx">
<polygon fill="none" stroke="black" points="2121.87,-271 2121.87,-323 2285.87,-323 2285.87,-271 2121.87,-271"/>
<text text-anchor="start" x="2129.87" y="-311" font-family="Helvetica,sans-Serif" font-size="10.00">/home/travis/build</text>
<text text-anchor="start" x="2129.87" y="-300" font-family="Helvetica,sans-Serif" font-size="10.00">/AliceO2Group/AliceO2</text>
<text text-anchor="start" x="2129.87" y="-289" font-family="Helvetica,sans-Serif" font-size="10.00">/Framework/Core/src/DataSource</text>
<text text-anchor="middle" x="2203.87" y="-278" font-family="Helvetica,sans-Serif" font-size="10.00">Device.cxx</text>
</a>
</g>
</g>
<!-- Node1&#45;&gt;Node20 -->
<g id="edge23" class="edge"><title>Node1&#45;&gt;Node20</title>
<path fill="none" stroke="midnightblue" d="M2011.56,-357.802C2047.39,-346.659 2088.24,-333.956 2123.05,-323.133"/>
<polygon fill="midnightblue" stroke="midnightblue" points="2010.1,-354.589 2001.59,-360.901 2012.18,-361.273 2010.1,-354.589"/>
</g>
<!-- Node21 -->
<g id="node21" class="node"><title>Node21</title>
<g id="a_node21"><a xlink:href="../../d1/dca/Dispatcher_8cxx.html" target="_top" xlink:title="Implementation of Dispatcher for O2 Data Sampling. ">
<polygon fill="none" stroke="black" points="2303.87,-276.5 2303.87,-317.5 2481.87,-317.5 2481.87,-276.5 2303.87,-276.5"/>
<text text-anchor="start" x="2311.87" y="-305.5" font-family="Helvetica,sans-Serif" font-size="10.00">/home/travis/build</text>
<text text-anchor="start" x="2311.87" y="-294.5" font-family="Helvetica,sans-Serif" font-size="10.00">/AliceO2Group/AliceO2</text>
<text text-anchor="middle" x="2392.87" y="-283.5" font-family="Helvetica,sans-Serif" font-size="10.00">/Framework/Core/src/Dispatcher.cxx</text>
</a>
</g>
</g>
<!-- Node1&#45;&gt;Node21 -->
<g id="edge24" class="edge"><title>Node1&#45;&gt;Node21</title>
<path fill="none" stroke="midnightblue" d="M2021.63,-371.951C2097.18,-360.774 2202.96,-343.764 2294.87,-324 2303.82,-322.076 2313.18,-319.86 2322.41,-317.552"/>
<polygon fill="midnightblue" stroke="midnightblue" points="2021.02,-368.503 2011.64,-373.421 2022.04,-375.428 2021.02,-368.503"/>
</g>
<!-- Node22 -->
<g id="node22" class="node"><title>Node22</title>
<g id="a_node22"><a xlink:href="../../dc/df3/ExternalFairMQDeviceProxy_8cxx.html" target="_top" xlink:title="/home/travis/build\l/AliceO2Group/AliceO2\l/Framework/Core/src/External\lFairMQDeviceProxy.cxx">
<polygon fill="none" stroke="black" points="2499.87,-271 2499.87,-323 2647.87,-323 2647.87,-271 2499.87,-271"/>
<text text-anchor="start" x="2507.87" y="-311" font-family="Helvetica,sans-Serif" font-size="10.00">/home/travis/build</text>
<text text-anchor="start" x="2507.87" y="-300" font-family="Helvetica,sans-Serif" font-size="10.00">/AliceO2Group/AliceO2</text>
<text text-anchor="start" x="2507.87" y="-289" font-family="Helvetica,sans-Serif" font-size="10.00">/Framework/Core/src/External</text>
<text text-anchor="middle" x="2573.87" y="-278" font-family="Helvetica,sans-Serif" font-size="10.00">FairMQDeviceProxy.cxx</text>
</a>
</g>
</g>
<!-- Node1&#45;&gt;Node22 -->
<g id="edge25" class="edge"><title>Node1&#45;&gt;Node22</title>
<path fill="none" stroke="midnightblue" d="M2021.53,-380.873C2135.96,-373.698 2327.89,-357.57 2489.87,-324 2493.16,-323.318 2496.51,-322.562 2499.87,-321.749"/>
<polygon fill="midnightblue" stroke="midnightblue" points="2021.15,-377.39 2011.38,-381.498 2021.58,-384.376 2021.15,-377.39"/>
</g>
<!-- Node23 -->
<g id="node23" class="node"><title>Node23</title>
<g id="a_node23"><a xlink:href="../../d4/d7a/LifetimeHelpers_8cxx.html" target="_top" xlink:title="/home/travis/build\l/AliceO2Group/AliceO2\l/Framework/Core/src/Lifetime\lHelpers.cxx">
<polygon fill="none" stroke="black" points="2665.87,-271 2665.87,-323 2811.87,-323 2811.87,-271 2665.87,-271"/>
<text text-anchor="start" x="2673.87" y="-311" font-family="Helvetica,sans-Serif" font-size="10.00">/home/travis/build</text>
<text text-anchor="start" x="2673.87" y="-300" font-family="Helvetica,sans-Serif" font-size="10.00">/AliceO2Group/AliceO2</text>
<text text-anchor="start" x="2673.87" y="-289" font-family="Helvetica,sans-Serif" font-size="10.00">/Framework/Core/src/Lifetime</text>
<text text-anchor="middle" x="2738.87" y="-278" font-family="Helvetica,sans-Serif" font-size="10.00">Helpers.cxx</text>
</a>
</g>
</g>
<!-- Node1&#45;&gt;Node23 -->
<g id="edge26" class="edge"><title>Node1&#45;&gt;Node23</title>
<path fill="none" stroke="midnightblue" d="M2021.62,-384.598C2164.3,-381.014 2432.85,-368.374 2656.87,-324 2659.8,-323.42 2662.78,-322.771 2665.77,-322.069"/>
<polygon fill="midnightblue" stroke="midnightblue" points="2021.48,-381.1 2011.56,-384.84 2021.64,-388.098 2021.48,-381.1"/>
</g>
<!-- Node24 -->
<g id="node24" class="node"><title>Node24</title>
<g id="a_node24"><a xlink:href="../../d1/de8/test__DataSampling_8cxx.html" target="_top" xlink:title="/home/travis/build\l/AliceO2Group/AliceO2\l/Framework/Core/test/test\l_DataSampling.cxx">
<polygon fill="none" stroke="black" points="2830.37,-271 2830.37,-323 2961.37,-323 2961.37,-271 2830.37,-271"/>
<text text-anchor="start" x="2838.37" y="-311" font-family="Helvetica,sans-Serif" font-size="10.00">/home/travis/build</text>
<text text-anchor="start" x="2838.37" y="-300" font-family="Helvetica,sans-Serif" font-size="10.00">/AliceO2Group/AliceO2</text>
<text text-anchor="start" x="2838.37" y="-289" font-family="Helvetica,sans-Serif" font-size="10.00">/Framework/Core/test/test</text>
<text text-anchor="middle" x="2895.87" y="-278" font-family="Helvetica,sans-Serif" font-size="10.00">_DataSampling.cxx</text>
</a>
</g>
</g>
<!-- Node1&#45;&gt;Node24 -->
<g id="edge30" class="edge"><title>Node1&#45;&gt;Node24</title>
<path fill="none" stroke="midnightblue" d="M2021.41,-382.428C2223.08,-374.713 2670.53,-354.671 2820.87,-324 2823.98,-323.366 2827.13,-322.637 2830.3,-321.834"/>
<polygon fill="midnightblue" stroke="midnightblue" points="2021.27,-378.931 2011.41,-382.808 2021.53,-385.926 2021.27,-378.931"/>
</g>
<!-- Node25 -->
<g id="node25" class="node"><title>Node25</title>
<g id="a_node25"><a xlink:href="../../dd/d70/test__DataSamplingCondition_8cxx.html" target="_top" xlink:title="/home/travis/build\l/AliceO2Group/AliceO2\l/Framework/Core/test/test\l_DataSamplingCondition.cxx">
<polygon fill="none" stroke="black" points="2979.37,-271 2979.37,-323 3122.37,-323 3122.37,-271 2979.37,-271"/>
<text text-anchor="start" x="2987.37" y="-311" font-family="Helvetica,sans-Serif" font-size="10.00">/home/travis/build</text>
<text text-anchor="start" x="2987.37" y="-300" font-family="Helvetica,sans-Serif" font-size="10.00">/AliceO2Group/AliceO2</text>
<text text-anchor="start" x="2987.37" y="-289" font-family="Helvetica,sans-Serif" font-size="10.00">/Framework/Core/test/test</text>
<text text-anchor="middle" x="3050.87" y="-278" font-family="Helvetica,sans-Serif" font-size="10.00">_DataSamplingCondition.cxx</text>
</a>
</g>
</g>
<!-- Node1&#45;&gt;Node25 -->
<g id="edge31" class="edge"><title>Node1&#45;&gt;Node25</title>
<path fill="none" stroke="midnightblue" d="M2021.91,-383.265C2248.23,-376.612 2790.06,-357.617 2969.87,-324 2972.92,-323.43 2976.02,-322.779 2979.13,-322.063"/>
<polygon fill="midnightblue" stroke="midnightblue" points="2021.6,-379.772 2011.7,-383.563 2021.8,-386.769 2021.6,-379.772"/>
</g>
<!-- Node26 -->
<g id="node26" class="node"><title>Node26</title>
<g id="a_node26"><a xlink:href="../../d3/ddc/test__DataSamplingPolicy_8cxx.html" target="_top" xlink:title="/home/travis/build\l/AliceO2Group/AliceO2\l/Framework/Core/test/test\l_DataSamplingPolicy.cxx">
<polygon fill="none" stroke="black" points="3140.37,-271 3140.37,-323 3271.37,-323 3271.37,-271 3140.37,-271"/>
<text text-anchor="start" x="3148.37" y="-311" font-family="Helvetica,sans-Serif" font-size="10.00">/home/travis/build</text>
<text text-anchor="start" x="3148.37" y="-300" font-family="Helvetica,sans-Serif" font-size="10.00">/AliceO2Group/AliceO2</text>
<text text-anchor="start" x="3148.37" y="-289" font-family="Helvetica,sans-Serif" font-size="10.00">/Framework/Core/test/test</text>
<text text-anchor="middle" x="3205.87" y="-278" font-family="Helvetica,sans-Serif" font-size="10.00">_DataSamplingPolicy.cxx</text>
</a>
</g>
</g>
<!-- Node1&#45;&gt;Node26 -->
<g id="edge32" class="edge"><title>Node1&#45;&gt;Node26</title>
<path fill="none" stroke="midnightblue" d="M2021.85,-384.487C2272.77,-380.139 2919.6,-365.169 3130.87,-324 3133.98,-323.394 3137.14,-322.687 3140.31,-321.902"/>
<polygon fill="midnightblue" stroke="midnightblue" points="2021.58,-380.991 2011.64,-384.662 2021.7,-387.99 2021.58,-380.991"/>
</g>
<!-- Node27 -->
<g id="node27" class="node"><title>Node27</title>
<g id="a_node27"><a xlink:href="../../df/dc1/test__InputRecord_8cxx.html" target="_top" xlink:title="/home/travis/build\l/AliceO2Group/AliceO2\l/Framework/Core/test/test\l_InputRecord.cxx">
<polygon fill="none" stroke="black" points="3289.37,-271 3289.37,-323 3420.37,-323 3420.37,-271 3289.37,-271"/>
<text text-anchor="start" x="3297.37" y="-311" font-family="Helvetica,sans-Serif" font-size="10.00">/home/travis/build</text>
<text text-anchor="start" x="3297.37" y="-300" font-family="Helvetica,sans-Serif" font-size="10.00">/AliceO2Group/AliceO2</text>
<text text-anchor="start" x="3297.37" y="-289" font-family="Helvetica,sans-Serif" font-size="10.00">/Framework/Core/test/test</text>
<text text-anchor="middle" x="3354.87" y="-278" font-family="Helvetica,sans-Serif" font-size="10.00">_InputRecord.cxx</text>
</a>
</g>
</g>
<!-- Node1&#45;&gt;Node27 -->
<g id="edge33" class="edge"><title>Node1&#45;&gt;Node27</title>
<path fill="none" stroke="midnightblue" d="M2022.01,-385.15C2294.38,-382.26 3038.99,-370.238 3279.87,-324 3282.99,-323.402 3286.14,-322.702 3289.32,-321.923"/>
<polygon fill="midnightblue" stroke="midnightblue" points="2021.7,-381.653 2011.74,-385.257 2021.77,-388.652 2021.7,-381.653"/>
</g>
<!-- Node28 -->
<g id="node28" class="node"><title>Node28</title>
<g id="a_node28"><a xlink:href="../../d5/d63/DPLBroadcaster_8cxx.html" target="_top" xlink:title="Implementation of generic DPL broadcaster, v0.1. ">
<polygon fill="none" stroke="black" points="3438.87,-276.5 3438.87,-317.5 3640.87,-317.5 3640.87,-276.5 3438.87,-276.5"/>
<text text-anchor="start" x="3446.87" y="-305.5" font-family="Helvetica,sans-Serif" font-size="10.00">/home/travis/build</text>
<text text-anchor="start" x="3446.87" y="-294.5" font-family="Helvetica,sans-Serif" font-size="10.00">/AliceO2Group/AliceO2</text>
<text text-anchor="middle" x="3539.87" y="-283.5" font-family="Helvetica,sans-Serif" font-size="10.00">/Framework/Utils/src/DPLBroadcaster.cxx</text>
</a>
</g>
</g>
<!-- Node1&#45;&gt;Node28 -->
<g id="edge34" class="edge"><title>Node1&#45;&gt;Node28</title>
<path fill="none" stroke="midnightblue" d="M2021.97,-384.335C2314.1,-379.129 3155.94,-361.235 3428.87,-324 3440.64,-322.395 3452.99,-320.114 3465,-317.562"/>
<polygon fill="midnightblue" stroke="midnightblue" points="2021.74,-380.839 2011.81,-384.515 2021.87,-387.838 2021.74,-380.839"/>
</g>
<!-- Node29 -->
<g id="node29" class="node"><title>Node29</title>
<g id="a_node29"><a xlink:href="../../da/dcf/test__RootTreeWriter_8cxx.html" target="_top" xlink:title="/home/travis/build\l/AliceO2Group/AliceO2\l/Framework/Utils/test\l/test_RootTreeWriter.cxx">
<polygon fill="none" stroke="black" points="3659.37,-271 3659.37,-323 3786.37,-323 3786.37,-271 3659.37,-271"/>
<text text-anchor="start" x="3667.37" y="-311" font-family="Helvetica,sans-Serif" font-size="10.00">/home/travis/build</text>
<text text-anchor="start" x="3667.37" y="-300" font-family="Helvetica,sans-Serif" font-size="10.00">/AliceO2Group/AliceO2</text>
<text text-anchor="start" x="3667.37" y="-289" font-family="Helvetica,sans-Serif" font-size="10.00">/Framework/Utils/test</text>
<text text-anchor="middle" x="3722.87" y="-278" font-family="Helvetica,sans-Serif" font-size="10.00">/test_RootTreeWriter.cxx</text>
</a>
</g>
</g>
<!-- Node1&#45;&gt;Node29 -->
<g id="edge35" class="edge"><title>Node1&#45;&gt;Node29</title>
<path fill="none" stroke="midnightblue" d="M2021.72,-386.421C2342.21,-387.126 3334.86,-384.257 3649.87,-324 3652.91,-323.419 3655.99,-322.732 3659.09,-321.963"/>
<polygon fill="midnightblue" stroke="midnightblue" points="2021.53,-382.921 2011.52,-386.397 2021.51,-389.921 2021.53,-382.921"/>
</g>
<!-- Node3 -->
<g id="node3" class="node"><title>Node3</title>
<g id="a_node3"><a xlink:href="../../df/d59/DataRelayer_8h.html" target="_top" xlink:title="/home/travis/build\l/AliceO2Group/AliceO2\l/Framework/Core/include\l/Framework/DataRelayer.h">
<polygon fill="none" stroke="black" points="335.873,-181 335.873,-233 469.873,-233 469.873,-181 335.873,-181"/>
<text text-anchor="start" x="343.873" y="-221" font-family="Helvetica,sans-Serif" font-size="10.00">/home/travis/build</text>
<text text-anchor="start" x="343.873" y="-210" font-family="Helvetica,sans-Serif" font-size="10.00">/AliceO2Group/AliceO2</text>
<text text-anchor="start" x="343.873" y="-199" font-family="Helvetica,sans-Serif" font-size="10.00">/Framework/Core/include</text>
<text text-anchor="middle" x="402.873" y="-188" font-family="Helvetica,sans-Serif" font-size="10.00">/Framework/DataRelayer.h</text>
</a>
</g>
</g>
<!-- Node2&#45;&gt;Node3 -->
<g id="edge2" class="edge"><title>Node2&#45;&gt;Node3</title>
<path fill="none" stroke="midnightblue" d="M665.549,-277.318C610.123,-266.25 540.261,-251.069 478.873,-234 475.917,-233.178 472.908,-232.306 469.877,-231.397"/>
<polygon fill="midnightblue" stroke="midnightblue" points="664.882,-280.754 675.372,-279.267 666.244,-273.888 664.882,-280.754"/>
</g>
<!-- Node2&#45;&gt;Node7 -->
<g id="edge12" class="edge"><title>Node2&#45;&gt;Node7</title>
<path fill="none" stroke="midnightblue" d="M866.699,-282.564C927.176,-272.395 996.251,-256.337 1016.87,-234 1041.1,-207.76 1041.08,-163.188 1038.65,-137.609"/>
<polygon fill="midnightblue" stroke="midnightblue" points="865.989,-279.134 856.688,-284.208 867.123,-286.041 865.989,-279.134"/>
</g>
<!-- Node2&#45;&gt;Node11 -->
<g id="edge10" class="edge"><title>Node2&#45;&gt;Node11</title>
<path fill="none" stroke="midnightblue" d="M665.217,-285.386C575.841,-275.108 441.948,-257.614 326.873,-234 323.828,-233.375 320.737,-232.71 317.621,-232.012"/>
<polygon fill="midnightblue" stroke="midnightblue" points="665.016,-288.886 675.348,-286.542 665.809,-281.931 665.016,-288.886"/>
</g>
<!-- Node12 -->
<g id="node12" class="node"><title>Node12</title>
<g id="a_node12"><a xlink:href="../../d3/d17/DataDescriptorQueryBuilder_8cxx.html" target="_top" xlink:title="/home/travis/build\l/AliceO2Group/AliceO2\l/Framework/Core/src/DataDescriptor\lQueryBuilder.cxx">
<polygon fill="none" stroke="black" points="487.873,-181 487.873,-233 665.873,-233 665.873,-181 487.873,-181"/>
<text text-anchor="start" x="495.873" y="-221" font-family="Helvetica,sans-Serif" font-size="10.00">/home/travis/build</text>
<text text-anchor="start" x="495.873" y="-210" font-family="Helvetica,sans-Serif" font-size="10.00">/AliceO2Group/AliceO2</text>
<text text-anchor="start" x="495.873" y="-199" font-family="Helvetica,sans-Serif" font-size="10.00">/Framework/Core/src/DataDescriptor</text>
<text text-anchor="middle" x="576.873" y="-188" font-family="Helvetica,sans-Serif" font-size="10.00">QueryBuilder.cxx</text>
</a>
</g>
</g>
<!-- Node2&#45;&gt;Node12 -->
<g id="edge11" class="edge"><title>Node2&#45;&gt;Node12</title>
<path fill="none" stroke="midnightblue" d="M702.845,-266.654C679.518,-255.792 653.302,-243.586 630.851,-233.133"/>
<polygon fill="midnightblue" stroke="midnightblue" points="701.423,-269.852 711.966,-270.901 704.378,-263.507 701.423,-269.852"/>
</g>
<!-- Node13 -->
<g id="node13" class="node"><title>Node13</title>
<g id="a_node13"><a xlink:href="../../d5/de4/benchmark__DataDescriptorMatcher_8cxx.html" target="_top" xlink:title="/home/travis/build\l/AliceO2Group/AliceO2\l/Framework/Core/test/benchmark\l_DataDescriptorMatcher.cxx">
<polygon fill="none" stroke="black" points="684.373,-181 684.373,-233 847.373,-233 847.373,-181 684.373,-181"/>
<text text-anchor="start" x="692.373" y="-221" font-family="Helvetica,sans-Serif" font-size="10.00">/home/travis/build</text>
<text text-anchor="start" x="692.373" y="-210" font-family="Helvetica,sans-Serif" font-size="10.00">/AliceO2Group/AliceO2</text>
<text text-anchor="start" x="692.373" y="-199" font-family="Helvetica,sans-Serif" font-size="10.00">/Framework/Core/test/benchmark</text>
<text text-anchor="middle" x="765.873" y="-188" font-family="Helvetica,sans-Serif" font-size="10.00">_DataDescriptorMatcher.cxx</text>
</a>
</g>
</g>
<!-- Node2&#45;&gt;Node13 -->
<g id="edge13" class="edge"><title>Node2&#45;&gt;Node13</title>
<path fill="none" stroke="midnightblue" d="M765.873,-260.489C765.873,-251.309 765.873,-241.616 765.873,-233.092"/>
<polygon fill="midnightblue" stroke="midnightblue" points="762.373,-260.547 765.873,-270.547 769.373,-260.547 762.373,-260.547"/>
</g>
<!-- Node14 -->
<g id="node14" class="node"><title>Node14</title>
<g id="a_node14"><a xlink:href="../../dd/d1e/test__DataDescriptorMatcher_8cxx.html" target="_top" xlink:title="/home/travis/build\l/AliceO2Group/AliceO2\l/Framework/Core/test/test\l_DataDescriptorMatcher.cxx">
<polygon fill="none" stroke="black" points="865.873,-181 865.873,-233 1007.87,-233 1007.87,-181 865.873,-181"/>
<text text-anchor="start" x="873.873" y="-221" font-family="Helvetica,sans-Serif" font-size="10.00">/home/travis/build</text>
<text text-anchor="start" x="873.873" y="-210" font-family="Helvetica,sans-Serif" font-size="10.00">/AliceO2Group/AliceO2</text>
<text text-anchor="start" x="873.873" y="-199" font-family="Helvetica,sans-Serif" font-size="10.00">/Framework/Core/test/test</text>
<text text-anchor="middle" x="936.873" y="-188" font-family="Helvetica,sans-Serif" font-size="10.00">_DataDescriptorMatcher.cxx</text>
</a>
</g>
</g>
<!-- Node2&#45;&gt;Node14 -->
<g id="edge14" class="edge"><title>Node2&#45;&gt;Node14</title>
<path fill="none" stroke="midnightblue" d="M823.965,-266.105C844.843,-255.36 868.161,-243.361 888.16,-233.069"/>
<polygon fill="midnightblue" stroke="midnightblue" points="822.165,-263.095 814.875,-270.783 825.368,-269.319 822.165,-263.095"/>
</g>
<!-- Node4 -->
<g id="node4" class="node"><title>Node4</title>
<g id="a_node4"><a xlink:href="../../d3/d4b/DataProcessingDevice_8h.html" target="_top" xlink:title="/home/travis/build\l/AliceO2Group/AliceO2\l/Framework/Core/include\l/Framework/DataProcessingDevice.h">
<polygon fill="none" stroke="black" points="394.873,-91 394.873,-143 574.873,-143 574.873,-91 394.873,-91"/>
<text text-anchor="start" x="402.873" y="-131" font-family="Helvetica,sans-Serif" font-size="10.00">/home/travis/build</text>
<text text-anchor="start" x="402.873" y="-120" font-family="Helvetica,sans-Serif" font-size="10.00">/AliceO2Group/AliceO2</text>
<text text-anchor="start" x="402.873" y="-109" font-family="Helvetica,sans-Serif" font-size="10.00">/Framework/Core/include</text>
<text text-anchor="middle" x="484.873" y="-98" font-family="Helvetica,sans-Serif" font-size="10.00">/Framework/DataProcessingDevice.h</text>
</a>
</g>
</g>
<!-- Node3&#45;&gt;Node4 -->
<g id="edge3" class="edge"><title>Node3&#45;&gt;Node4</title>
<path fill="none" stroke="midnightblue" d="M433.494,-173.139C442.758,-163.196 452.78,-152.441 461.491,-143.092"/>
<polygon fill="midnightblue" stroke="midnightblue" points="430.847,-170.845 426.591,-180.547 435.969,-175.617 430.847,-170.845"/>
</g>
<!-- Node3&#45;&gt;Node7 -->
<g id="edge6" class="edge"><title>Node3&#45;&gt;Node7</title>
<path fill="none" stroke="midnightblue" d="M480.105,-179.93C635.59,-146.755 679.556,-161.753 833.873,-144 869.615,-139.888 908.855,-134.938 943.168,-130.465"/>
<polygon fill="midnightblue" stroke="midnightblue" points="479.222,-176.54 470.19,-182.078 480.705,-183.381 479.222,-176.54"/>
</g>
<!-- Node3&#45;&gt;Node8 -->
<g id="edge7" class="edge"><title>Node3&#45;&gt;Node8</title>
<path fill="none" stroke="midnightblue" d="M326.176,-180.095C326.075,-180.064 325.974,-180.032 325.873,-180 312.934,-175.925 249.529,-157.413 195.4,-141.669"/>
<polygon fill="midnightblue" stroke="midnightblue" points="325.143,-183.44 335.734,-183.149 327.274,-176.772 325.143,-183.44"/>
</g>
<!-- Node3&#45;&gt;Node9 -->
<g id="edge8" class="edge"><title>Node3&#45;&gt;Node9</title>
<path fill="none" stroke="midnightblue" d="M363.897,-174.242C351.378,-164.042 337.689,-152.887 325.826,-143.221"/>
<polygon fill="midnightblue" stroke="midnightblue" points="361.961,-177.179 371.924,-180.783 366.383,-171.753 361.961,-177.179"/>
</g>
<!-- Node3&#45;&gt;Node10 -->
<g id="edge9" class="edge"><title>Node3&#45;&gt;Node10</title>
<path fill="none" stroke="midnightblue" d="M479.983,-179.804C558.81,-158.067 639.412,-141.082 694.343,-130.288"/>
<polygon fill="midnightblue" stroke="midnightblue" points="478.575,-176.563 469.881,-182.619 480.454,-183.306 478.575,-176.563"/>
</g>
<!-- Node4&#45;&gt;Node5 -->
<g id="edge4" class="edge"><title>Node4&#45;&gt;Node5</title>
<path fill="none" stroke="midnightblue" d="M385.174,-90.0769C385.074,-90.0513 384.973,-90.0256 384.873,-90 332.945,-76.7587 274.828,-62.2148 227.914,-50.5431"/>
<polygon fill="midnightblue" stroke="midnightblue" points="384.112,-93.4177 394.667,-92.505 385.846,-86.636 384.112,-93.4177"/>
</g>
<!-- Node6 -->
<g id="node6" class="node"><title>Node6</title>
<g id="a_node6"><a xlink:href="../../d7/d54/runDataProcessing_8cxx.html" target="_top" xlink:title="/home/travis/build\l/AliceO2Group/AliceO2\l/Framework/Core/src/runDataProcessing.cxx">
<polygon fill="none" stroke="black" points="377.873,-6.5 377.873,-47.5 591.873,-47.5 591.873,-6.5 377.873,-6.5"/>
<text text-anchor="start" x="385.873" y="-35.5" font-family="Helvetica,sans-Serif" font-size="10.00">/home/travis/build</text>
<text text-anchor="start" x="385.873" y="-24.5" font-family="Helvetica,sans-Serif" font-size="10.00">/AliceO2Group/AliceO2</text>
<text text-anchor="middle" x="484.873" y="-13.5" font-family="Helvetica,sans-Serif" font-size="10.00">/Framework/Core/src/runDataProcessing.cxx</text>
</a>
</g>
</g>
<!-- Node4&#45;&gt;Node6 -->
<g id="edge5" class="edge"><title>Node4&#45;&gt;Node6</title>
<path fill="none" stroke="midnightblue" d="M484.873,-80.5147C484.873,-69.2575 484.873,-57.227 484.873,-47.5249"/>
<polygon fill="midnightblue" stroke="midnightblue" points="481.373,-80.5467 484.873,-90.5468 488.373,-80.5468 481.373,-80.5467"/>
</g>
</g>
</svg>
