<?xml version="1.0" encoding="UTF-8" standalone="no"?>
<!DOCTYPE svg PUBLIC "-//W3C//DTD SVG 1.1//EN"
 "http://www.w3.org/Graphics/SVG/1.1/DTD/svg11.dtd">
<!-- Generated by graphviz version 2.36.0 (20140111.2315)
 -->
<!-- Title: o2::framework::DeviceInfo Pages: 1 -->
<!--zoomable 332 -->
<svg id="main" version="1.1" xmlns="http://www.w3.org/2000/svg" xmlns:xlink="http://www.w3.org/1999/xlink" xml:space="preserve" onload="init(evt)">
<style type="text/css"><![CDATA[
.edge:hover path { stroke: red; }
.edge:hover polygon { stroke: red; fill: red; }
]]></style>
<script type="text/javascript"><![CDATA[
var edges = document.getElementsByTagName('g');
if (edges && edges.length) {
  for (var i=0;i<edges.length;i++) {
    if (edges[i].id.substr(0,4)=='edge') {
      edges[i].setAttribute('class','edge');
    }
  }
}
]]></script>
        <defs>
                <circle id="rim" cx="0" cy="0" r="7"/>
                <circle id="rim2" cx="0" cy="0" r="3.5"/>
                <g id="zoomPlus">
                        <use xlink:href="#rim" fill="#404040">
                                <set attributeName="fill" to="#808080" begin="zoomplus.mouseover" end="zoomplus.mouseout"/>
                        </use>
                        <path d="M-4,0h8M0,-4v8" fill="none" stroke="white" stroke-width="1.5" pointer-events="none"/>
                </g>
                <g id="zoomMin">
                        <use xlink:href="#rim" fill="#404040">
                                <set attributeName="fill" to="#808080" begin="zoomminus.mouseover" end="zoomminus.mouseout"/>
                        </use>
                        <path d="M-4,0h8" fill="none" stroke="white" stroke-width="1.5" pointer-events="none"/>
                </g>
                <g id="dirArrow">
                        <path fill="none" stroke="white" stroke-width="1.5" d="M0,-3.0v7 M-2.5,-0.5L0,-3.0L2.5,-0.5"/>
                </g>
               <g id="resetDef">
                       <use xlink:href="#rim2" fill="#404040">
                               <set attributeName="fill" to="#808080" begin="reset.mouseover" end="reset.mouseout"/>
                       </use>
               </g>
        </defs>

<script type="text/javascript">
var viewWidth = 746;
var viewHeight = 332;
var sectionId = 'dynsection-0';
</script>
<script xlink:href="../../svgpan.js"/>
<svg id="graph" class="graph">
<g id="viewport">
<title>o2::framework::DeviceInfo</title>
<!-- Node1 -->
<g id="node1" class="node"><title>Node1</title>
<polygon fill="#bfbfbf" stroke="black" points="384.072,-0.5 384.072,-57.5 516.072,-57.5 516.072,-0.5 384.072,-0.5"/>
<text text-anchor="middle" x="450.072" y="-45.5" font-family="Helvetica,sans-Serif" font-size="10.00">o2::framework::DeviceInfo</text>
<polyline fill="none" stroke="black" points="384.072,-38.5 516.072,-38.5 "/>
<text text-anchor="middle" x="450.072" y="-26.5" font-family="Helvetica,sans-Serif" font-size="10.00"> </text>
<polyline fill="none" stroke="black" points="384.072,-19.5 516.072,-19.5 "/>
<text text-anchor="middle" x="450.072" y="-7.5" font-family="Helvetica,sans-Serif" font-size="10.00"> </text>
</g>
<!-- Node2 -->
<g id="node2" class="node"><title>Node2</title>
<g id="a_node2"><a xlink:href="../../d6/d43/structo2_1_1framework_1_1Metric2DViewIndex.html" target="_top" xlink:title="{o2::framework::Metric2DView\lIndex\n||+ isComplete()\l+ getUpdater()\l}">
<polygon fill="none" stroke="black" points="76.0722,-116.5 76.0722,-195.5 222.072,-195.5 222.072,-116.5 76.0722,-116.5"/>
<text text-anchor="start" x="84.0722" y="-183.5" font-family="Helvetica,sans-Serif" font-size="10.00">o2::framework::Metric2DView</text>
<text text-anchor="middle" x="149.072" y="-172.5" font-family="Helvetica,sans-Serif" font-size="10.00">Index</text>
<polyline fill="none" stroke="black" points="76.0722,-165.5 222.072,-165.5 "/>
<text text-anchor="middle" x="149.072" y="-153.5" font-family="Helvetica,sans-Serif" font-size="10.00"> </text>
<polyline fill="none" stroke="black" points="76.0722,-146.5 222.072,-146.5 "/>
<text text-anchor="start" x="84.0722" y="-134.5" font-family="Helvetica,sans-Serif" font-size="10.00">+ isComplete()</text>
<text text-anchor="start" x="84.0722" y="-123.5" font-family="Helvetica,sans-Serif" font-size="10.00">+ getUpdater()</text>
</a>
</g>
</g>
<!-- Node2&#45;&gt;Node1 -->
<g id="edge1" class="edge"><title>Node2&#45;&gt;Node1</title>
<path fill="none" stroke="#404040" d="M171.161,-116.15C181.451,-101.399 194.998,-85.806 211.072,-76 259.374,-46.5343 322.534,-35.308 371.794,-31.3021"/>
<polygon fill="none" stroke="#404040" points="372.031,-31.2853 377.732,-26.869 384.001,-30.4325 378.301,-34.8488 372.031,-31.2853"/>
<text text-anchor="middle" x="265.072" y="-84.5" font-family="Helvetica,sans-Serif" font-size="10.00"> +dataRelayerViewIndex</text>
</g>
<!-- Node3 -->
<g id="node3" class="node"><title>Node3</title>
<g id="a_node3"><a xlink:href="../../d1/da0/classint.html" target="_top" xlink:title="{int\n||}">
<polygon fill="none" stroke="black" points="21.5722,-266.5 21.5722,-323.5 50.5722,-323.5 50.5722,-266.5 21.5722,-266.5"/>
<text text-anchor="middle" x="36.0722" y="-311.5" font-family="Helvetica,sans-Serif" font-size="10.00">int</text>
<polyline fill="none" stroke="black" points="21.5722,-304.5 50.5722,-304.5 "/>
<text text-anchor="middle" x="36.0722" y="-292.5" font-family="Helvetica,sans-Serif" font-size="10.00"> </text>
<polyline fill="none" stroke="black" points="21.5722,-285.5 50.5722,-285.5 "/>
<text text-anchor="middle" x="36.0722" y="-273.5" font-family="Helvetica,sans-Serif" font-size="10.00"> </text>
</a>
</g>
</g>
<!-- Node3&#45;&gt;Node1 -->
<g id="edge8" class="edge"><title>Node3&#45;&gt;Node1</title>
<path fill="none" stroke="#404040" d="M22.4181,-266.277C5.82258,-228.149 -16.0118,-159.334 18.0722,-116 60.8495,-61.6134 259.021,-41.1437 371.515,-33.8166"/>
<polygon fill="none" stroke="#404040" points="371.816,-33.7979 377.554,-29.4302 383.793,-33.0469 378.055,-37.4146 371.816,-33.7979"/>
<text text-anchor="middle" x="42.5722" y="-159" font-family="Helvetica,sans-Serif" font-size="10.00"> +unprinted</text>
<text text-anchor="middle" x="42.5722" y="-148" font-family="Helvetica,sans-Serif" font-size="10.00">+lastError</text>
</g>
<!-- Node3&#45;&gt;Node2 -->
<g id="edge2" class="edge"><title>Node3&#45;&gt;Node2</title>
<path fill="none" stroke="#404040" d="M50.6136,-276.37C65.4661,-258.363 89.1809,-229.612 109.615,-204.838"/>
<polygon fill="none" stroke="#404040" points="109.624,-204.826 110.356,-197.652 117.26,-195.569 116.528,-202.743 109.624,-204.826"/>
<text text-anchor="middle" x="115.572" y="-239.5" font-family="Helvetica,sans-Serif" font-size="10.00"> +w</text>
<text text-anchor="middle" x="115.572" y="-228.5" font-family="Helvetica,sans-Serif" font-size="10.00">+h</text>
<text text-anchor="middle" x="115.572" y="-217.5" font-family="Helvetica,sans-Serif" font-size="10.00">+prefix</text>
</g>
<!-- Node4 -->
<g id="node4" class="node"><title>Node4</title>
<polygon fill="none" stroke="#bfbfbf" points="95.5722,-266.5 95.5722,-323.5 202.572,-323.5 202.572,-266.5 95.5722,-266.5"/>
<text text-anchor="middle" x="149.072" y="-311.5" font-family="Helvetica,sans-Serif" font-size="10.00">vector&lt; std::size_t &gt;</text>
<polyline fill="none" stroke="#bfbfbf" points="95.5722,-304.5 202.572,-304.5 "/>
<text text-anchor="middle" x="149.072" y="-292.5" font-family="Helvetica,sans-Serif" font-size="10.00"> </text>
<polyline fill="none" stroke="#bfbfbf" points="95.5722,-285.5 202.572,-285.5 "/>
<text text-anchor="middle" x="149.072" y="-273.5" font-family="Helvetica,sans-Serif" font-size="10.00"> </text>
</g>
<!-- Node4&#45;&gt;Node2 -->
<g id="edge3" class="edge"><title>Node4&#45;&gt;Node2</title>
<path fill="none" stroke="#404040" d="M149.072,-266.276C149.072,-249.441 149.072,-227.441 149.072,-207.596"/>
<polygon fill="none" stroke="#404040" points="149.072,-207.584 145.072,-201.584 149.072,-195.584 153.072,-201.584 149.072,-207.584"/>
<text text-anchor="middle" x="170.572" y="-228.5" font-family="Helvetica,sans-Serif" font-size="10.00"> +indexes</text>
</g>
<!-- Node5 -->
<g id="node5" class="node"><title>Node5</title>
<polygon fill="none" stroke="#bfbfbf" points="240.572,-116.5 240.572,-195.5 355.572,-195.5 355.572,-116.5 240.572,-116.5"/>
<text text-anchor="start" x="248.572" y="-183.5" font-family="Helvetica,sans-Serif" font-size="10.00">vector&lt; o2::framework</text>
<text text-anchor="start" x="248.572" y="-172.5" font-family="Helvetica,sans-Serif" font-size="10.00">::LogParsingHelpers::</text>
<text text-anchor="middle" x="298.072" y="-161.5" font-family="Helvetica,sans-Serif" font-size="10.00">LogLevel &gt;</text>
<polyline fill="none" stroke="#bfbfbf" points="240.572,-154.5 355.572,-154.5 "/>
<text text-anchor="middle" x="298.072" y="-142.5" font-family="Helvetica,sans-Serif" font-size="10.00"> </text>
<polyline fill="none" stroke="#bfbfbf" points="240.572,-135.5 355.572,-135.5 "/>
<text text-anchor="middle" x="298.072" y="-123.5" font-family="Helvetica,sans-Serif" font-size="10.00"> </text>
</g>
<!-- Node5&#45;&gt;Node1 -->
<g id="edge4" class="edge"><title>Node5&#45;&gt;Node1</title>
<path fill="none" stroke="#404040" d="M311.561,-116.418C318.072,-102.231 327.118,-86.9699 339.072,-76 348.839,-67.0375 360.597,-59.6901 372.755,-53.7082"/>
<polygon fill="none" stroke="#404040" points="373.067,-53.566 376.869,-47.4385 383.988,-48.5914 380.186,-54.7188 373.067,-53.566"/>
<text text-anchor="middle" x="370.072" y="-84.5" font-family="Helvetica,sans-Serif" font-size="10.00"> +historyLevel</text>
</g>
<!-- Node6 -->
<g id="node6" class="node"><title>Node6</title>
<polygon fill="none" stroke="#bfbfbf" points="373.072,-127.5 373.072,-184.5 429.072,-184.5 429.072,-127.5 373.072,-127.5"/>
<text text-anchor="middle" x="401.072" y="-172.5" font-family="Helvetica,sans-Serif" font-size="10.00">LogLevel</text>
<polyline fill="none" stroke="#bfbfbf" points="373.072,-165.5 429.072,-165.5 "/>
<text text-anchor="middle" x="401.072" y="-153.5" font-family="Helvetica,sans-Serif" font-size="10.00"> </text>
<polyline fill="none" stroke="#bfbfbf" points="373.072,-146.5 429.072,-146.5 "/>
<text text-anchor="middle" x="401.072" y="-134.5" font-family="Helvetica,sans-Serif" font-size="10.00"> </text>
</g>
<!-- Node6&#45;&gt;Node1 -->
<g id="edge5" class="edge"><title>Node6&#45;&gt;Node1</title>
<path fill="none" stroke="#404040" d="M400.744,-127.279C401.484,-111.638 404,-92.0701 411.072,-76 412.308,-73.1909 413.773,-70.4221 415.397,-67.721"/>
<polygon fill="none" stroke="#404040" points="415.496,-67.5769 415.609,-60.3666 422.308,-57.6977 422.195,-64.908 415.496,-67.5769"/>
<text text-anchor="middle" x="444.572" y="-84.5" font-family="Helvetica,sans-Serif" font-size="10.00"> +maxLogLevel</text>
</g>
<!-- Node7 -->
<g id="node7" class="node"><title>Node7</title>
<polygon fill="none" stroke="#bfbfbf" points="447.572,-127.5 447.572,-184.5 552.572,-184.5 552.572,-127.5 447.572,-127.5"/>
<text text-anchor="middle" x="500.072" y="-172.5" font-family="Helvetica,sans-Serif" font-size="10.00">vector&lt; std::string &gt;</text>
<polyline fill="none" stroke="#bfbfbf" points="447.572,-165.5 552.572,-165.5 "/>
<text text-anchor="middle" x="500.072" y="-153.5" font-family="Helvetica,sans-Serif" font-size="10.00"> </text>
<polyline fill="none" stroke="#bfbfbf" points="447.572,-146.5 552.572,-146.5 "/>
<text text-anchor="middle" x="500.072" y="-134.5" font-family="Helvetica,sans-Serif" font-size="10.00"> </text>
</g>
<!-- Node7&#45;&gt;Node1 -->
<g id="edge6" class="edge"><title>Node7&#45;&gt;Node1</title>
<path fill="none" stroke="#404040" d="M494.336,-127.306C490.651,-111.853 485.21,-92.4578 478.072,-76 476.942,-73.3946 475.686,-70.7599 474.35,-68.1395"/>
<polygon fill="none" stroke="#404040" points="474.312,-68.0706 467.914,-64.7449 468.523,-57.5596 474.921,-60.8853 474.312,-68.0706"/>
<text text-anchor="middle" x="505.572" y="-84.5" font-family="Helvetica,sans-Serif" font-size="10.00"> +history</text>
</g>
<!-- Node8 -->
<g id="node8" class="node"><title>Node8</title>
<polygon fill="none" stroke="#bfbfbf" points="570.572,-127.5 570.572,-184.5 613.572,-184.5 613.572,-127.5 570.572,-127.5"/>
<text text-anchor="middle" x="592.072" y="-172.5" font-family="Helvetica,sans-Serif" font-size="10.00">size_t</text>
<polyline fill="none" stroke="#bfbfbf" points="570.572,-165.5 613.572,-165.5 "/>
<text text-anchor="middle" x="592.072" y="-153.5" font-family="Helvetica,sans-Serif" font-size="10.00"> </text>
<polyline fill="none" stroke="#bfbfbf" points="570.572,-146.5 613.572,-146.5 "/>
<text text-anchor="middle" x="592.072" y="-134.5" font-family="Helvetica,sans-Serif" font-size="10.00"> </text>
</g>
<!-- Node8&#45;&gt;Node1 -->
<g id="edge7" class="edge"><title>Node8&#45;&gt;Node1</title>
<path fill="none" stroke="#404040" d="M570.403,-127.716C567.274,-123.783 564.092,-119.787 561.072,-116 546.878,-98.2 546.313,-90.8689 529.072,-76 524.385,-71.9575 519.292,-68.0791 514.027,-64.4087"/>
<polygon fill="none" stroke="#404040" points="513.761,-64.2329 506.549,-64.2628 503.748,-57.618 510.959,-57.588 513.761,-64.2329"/>
<text text-anchor="middle" x="578.072" y="-90" font-family="Helvetica,sans-Serif" font-size="10.00"> +historySize</text>
<text text-anchor="middle" x="578.072" y="-79" font-family="Helvetica,sans-Serif" font-size="10.00">+historyPos</text>
</g>
<!-- Node9 -->
<g id="node9" class="node"><title>Node9</title>
<polygon fill="none" stroke="#bfbfbf" points="632.072,-127.5 632.072,-184.5 670.072,-184.5 670.072,-127.5 632.072,-127.5"/>
<text text-anchor="middle" x="651.072" y="-172.5" font-family="Helvetica,sans-Serif" font-size="10.00">pid_t</text>
<polyline fill="none" stroke="#bfbfbf" points="632.072,-165.5 670.072,-165.5 "/>
<text text-anchor="middle" x="651.072" y="-153.5" font-family="Helvetica,sans-Serif" font-size="10.00"> </text>
<polyline fill="none" stroke="#bfbfbf" points="632.072,-146.5 670.072,-146.5 "/>
<text text-anchor="middle" x="651.072" y="-134.5" font-family="Helvetica,sans-Serif" font-size="10.00"> </text>
</g>
<!-- Node9&#45;&gt;Node1 -->
<g id="edge9" class="edge"><title>Node9&#45;&gt;Node1</title>
<path fill="none" stroke="#404040" d="M643.3,-127.212C637.172,-110.146 626.957,-89.1159 611.072,-76 587.731,-56.728 556.742,-45.5233 528.188,-39.0115"/>
<polygon fill="none" stroke="#404040" points="527.877,-38.9467 521.187,-41.6384 516.13,-36.4983 522.819,-33.8067 527.877,-38.9467"/>
<text text-anchor="middle" x="641.072" y="-84.5" font-family="Helvetica,sans-Serif" font-size="10.00"> +pid</text>
</g>
<!-- Node10 -->
<g id="node10" class="node"><title>Node10</title>
<polygon fill="none" stroke="#bfbfbf" points="688.572,-127.5 688.572,-184.5 723.572,-184.5 723.572,-127.5 688.572,-127.5"/>
<text text-anchor="middle" x="706.072" y="-172.5" font-family="Helvetica,sans-Serif" font-size="10.00">bool</text>
<polyline fill="none" stroke="#bfbfbf" points="688.572,-165.5 723.572,-165.5 "/>
<text text-anchor="middle" x="706.072" y="-153.5" font-family="Helvetica,sans-Serif" font-size="10.00"> </text>
<polyline fill="none" stroke="#bfbfbf" points="688.572,-146.5 723.572,-146.5 "/>
<text text-anchor="middle" x="706.072" y="-134.5" font-family="Helvetica,sans-Serif" font-size="10.00"> </text>
</g>
<!-- Node10&#45;&gt;Node1 -->
<g id="edge10" class="edge"><title>Node10&#45;&gt;Node1</title>
<path fill="none" stroke="#404040" d="M695.132,-127.188C686.918,-109.888 673.994,-88.6088 656.072,-76 618.838,-49.8036 569.227,-38.1997 528.022,-33.1944"/>
<polygon fill="none" stroke="#404040" points="528.015,-33.1938 521.618,-36.5222 516.085,-31.8974 522.482,-28.569 528.015,-33.1938"/>
<text text-anchor="middle" x="708.072" y="-90" font-family="Helvetica,sans-Serif" font-size="10.00"> +active</text>
<text text-anchor="middle" x="708.072" y="-79" font-family="Helvetica,sans-Serif" font-size="10.00">+readyToQuit</text>
</g>
</g>
</svg>
        <g id="navigator" transform="translate(0 0)" fill="#404254">
                <rect fill="#f2f5e9" fill-opacity="0.5" stroke="#606060" stroke-width=".5" x="0" y="0" width="60" height="60"/>
                <use id="zoomplus" xlink:href="#zoomPlus" x="17" y="9" onmousedown="handleZoom(evt,'in')"/>
                <use id="zoomminus" xlink:href="#zoomMin" x="42" y="9" onmousedown="handleZoom(evt,'out')"/>
                <use id="reset" xlink:href="#resetDef" x="30" y="36" onmousedown="handleReset()"/>
                <g id="arrowUp" xlink:href="#dirArrow" transform="translate(30 24)" onmousedown="handlePan(0,-1)">
                  <use xlink:href="#rim" fill="#404040">
                        <set attributeName="fill" to="#808080" begin="arrowUp.mouseover" end="arrowUp.mouseout"/>
                  </use>
                  <path fill="none" stroke="white" stroke-width="1.5" d="M0,-3.0v7 M-2.5,-0.5L0,-3.0L2.5,-0.5"/>
                </g>
                <g id="arrowRight" xlink:href="#dirArrow" transform="rotate(90) translate(36 -43)" onmousedown="handlePan(1,0)">
                  <use xlink:href="#rim" fill="#404040">
                        <set attributeName="fill" to="#808080" begin="arrowRight.mouseover" end="arrowRight.mouseout"/>
                  </use>
                  <path fill="none" stroke="white" stroke-width="1.5" d="M0,-3.0v7 M-2.5,-0.5L0,-3.0L2.5,-0.5"/>
                </g>
                <g id="arrowDown" xlink:href="#dirArrow" transform="rotate(180) translate(-30 -48)" onmousedown="handlePan(0,1)">
                  <use xlink:href="#rim" fill="#404040">
                        <set attributeName="fill" to="#808080" begin="arrowDown.mouseover" end="arrowDown.mouseout"/>
                  </use>
                  <path fill="none" stroke="white" stroke-width="1.5" d="M0,-3.0v7 M-2.5,-0.5L0,-3.0L2.5,-0.5"/>
                </g>
                <g id="arrowLeft" xlink:href="#dirArrow" transform="rotate(270) translate(-36 17)" onmousedown="handlePan(-1,0)">
                  <use xlink:href="#rim" fill="#404040">
                        <set attributeName="fill" to="#808080" begin="arrowLeft.mouseover" end="arrowLeft.mouseout"/>
                  </use>
                  <path fill="none" stroke="white" stroke-width="1.5" d="M0,-3.0v7 M-2.5,-0.5L0,-3.0L2.5,-0.5"/>
                </g>
        </g>
        <svg viewBox="0 0 15 15" width="100%" height="30px" preserveAspectRatio="xMaxYMin meet">
         <g id="arrow_out" transform="scale(0.3 0.3)">
          <a xlink:href="structo2_1_1framework_1_1DeviceInfo__coll__graph_org.svg" target="_base">
           <rect id="button" ry="5" rx="5" y="6" x="6" height="38" width="38"
                fill="#f2f5e9" fill-opacity="0.5" stroke="#606060" stroke-width="1.0"/>
           <path id="arrow"
             d="M 11.500037,31.436501 C 11.940474,20.09759 22.043105,11.32322 32.158766,21.979434 L 37.068811,17.246167 C 37.068811,17.246167 37.088388,32 37.088388,32 L 22.160133,31.978069 C 22.160133,31.978069 26.997745,27.140456 26.997745,27.140456 C 18.528582,18.264221 13.291696,25.230495 11.500037,31.436501 z"
             style="fill:#404040;"/>
          </a>
         </g>
        </svg>
</svg>
