<?xml version="1.0" encoding="UTF-8" standalone="no"?>
<!DOCTYPE svg PUBLIC "-//W3C//DTD SVG 1.1//EN"
 "http://www.w3.org/Graphics/SVG/1.1/DTD/svg11.dtd">
<!-- Generated by graphviz version 2.36.0 (20140111.2315)
 -->
<!-- Title: /home/travis/build/AliceO2Group/AliceO2/Detectors/TRD/simulation/src Pages: 1 -->
<svg width="165pt" height="295pt"
 viewBox="0.00 0.00 165.11 295.00" xmlns="http://www.w3.org/2000/svg" xmlns:xlink="http://www.w3.org/1999/xlink">
<g id="graph0" class="graph" transform="scale(1 1) rotate(0) translate(4 291)">
<title>/home/travis/build/AliceO2Group/AliceO2/Detectors/TRD/simulation/src</title>
<g id="clust1" class="cluster"><title>clusterdir_5cb2a8e9fdbe67a11efb4176f60bf3d6</title>
<g id="a_clust1"><a xlink:href="dir_5cb2a8e9fdbe67a11efb4176f60bf3d6.html" target="_top" xlink:title="simulation">
<polygon fill="#ddddee" stroke="black" points="42.254,-208 42.254,-279 112.254,-279 112.254,-208 42.254,-208"/>
<text text-anchor="middle" x="77.254" y="-267" font-family="Helvetica,sans-Serif" font-size="10.00">simulation</text>
</a>
</g>
</g>
<!-- dir_41d98617f9e68bb8925b5f8794afb89b -->
<g id="node1" class="node"><title>dir_41d98617f9e68bb8925b5f8794afb89b</title>
<g id="a_node1"><a xlink:href="dir_41d98617f9e68bb8925b5f8794afb89b.html" target="_top" xlink:title="src">
<polygon fill="#eeeeff" stroke="black" points="104.254,-252 50.254,-252 50.254,-216 104.254,-216 104.254,-252"/>
<text text-anchor="middle" x="77.254" y="-231.5" font-family="Helvetica,sans-Serif" font-size="10.00">src</text>
</a>
</g>
</g>
<!-- dir_4ab6b4cc6a7edbff49100e9123df213f -->
<g id="node2" class="node"><title>dir_4ab6b4cc6a7edbff49100e9123df213f</title>
<g id="a_node2"><a xlink:href="dir_4ab6b4cc6a7edbff49100e9123df213f.html" target="_top" xlink:title="Common">
<polygon fill="none" stroke="red" points="92.754,-108 37.754,-108 37.754,-72 92.754,-72 92.754,-108"/>
<text text-anchor="middle" x="65.254" y="-87.5" font-family="Helvetica,sans-Serif" font-size="10.00">Common</text>
</a>
</g>
</g>
<!-- dir_41d98617f9e68bb8925b5f8794afb89b&#45;&gt;dir_4ab6b4cc6a7edbff49100e9123df213f -->
<g id="edge2" class="edge"><title>dir_41d98617f9e68bb8925b5f8794afb89b&#45;&gt;dir_4ab6b4cc6a7edbff49100e9123df213f</title>
<path fill="none" stroke="black" d="M50.1775,-221.008C33.9258,-212.212 14.6386,-198.561 5.25399,-180 -1.96539,-165.721 -1.32321,-158.586 5.25399,-144 10.5737,-132.203 19.9608,-121.976 29.7529,-113.738"/>
<polygon fill="black" stroke="black" points="31.9142,-116.491 37.6228,-107.566 27.5942,-110.983 31.9142,-116.491"/>
<g id="a_edge2&#45;headlabel"><a xlink:href="dir_000214_000016.html" target="_top" xlink:title="1">
<text text-anchor="middle" x="30.838" y="-118.444" font-family="Helvetica,sans-Serif" font-size="10.00">1</text>
</a>
</g>
</g>
<!-- dir_09bf7f7c4011a5ccc426492db4dd0891 -->
<g id="node3" class="node"><title>dir_09bf7f7c4011a5ccc426492db4dd0891</title>
<g id="a_node3"><a xlink:href="dir_09bf7f7c4011a5ccc426492db4dd0891.html" target="_top" xlink:title="base">
<polygon fill="none" stroke="red" points="68.254,-180 14.254,-180 14.254,-144 68.254,-144 68.254,-180"/>
<text text-anchor="middle" x="41.254" y="-159.5" font-family="Helvetica,sans-Serif" font-size="10.00">base</text>
</a>
</g>
</g>
<!-- dir_41d98617f9e68bb8925b5f8794afb89b&#45;&gt;dir_09bf7f7c4011a5ccc426492db4dd0891 -->
<g id="edge3" class="edge"><title>dir_41d98617f9e68bb8925b5f8794afb89b&#45;&gt;dir_09bf7f7c4011a5ccc426492db4dd0891</title>
<path fill="none" stroke="black" d="M68.3551,-215.697C64.2572,-207.728 59.3052,-198.1 54.7613,-189.264"/>
<polygon fill="black" stroke="black" points="57.7365,-187.396 50.0505,-180.104 51.5115,-190.598 57.7365,-187.396"/>
<g id="a_edge3&#45;headlabel"><a xlink:href="dir_000214_000362.html" target="_top" xlink:title="2">
<text text-anchor="middle" x="61.9054" y="-186.795" font-family="Helvetica,sans-Serif" font-size="10.00">2</text>
</a>
</g>
</g>
<!-- dir_5036081dbf3ad3ea0cfa218a95bb99de -->
<g id="node4" class="node"><title>dir_5036081dbf3ad3ea0cfa218a95bb99de</title>
<g id="a_node4"><a xlink:href="dir_5036081dbf3ad3ea0cfa218a95bb99de.html" target="_top" xlink:title="include">
<polygon fill="none" stroke="red" points="140.254,-180 86.254,-180 86.254,-144 140.254,-144 140.254,-180"/>
<text text-anchor="middle" x="113.254" y="-159.5" font-family="Helvetica,sans-Serif" font-size="10.00">include</text>
</a>
</g>
</g>
<!-- dir_41d98617f9e68bb8925b5f8794afb89b&#45;&gt;dir_5036081dbf3ad3ea0cfa218a95bb99de -->
<g id="edge4" class="edge"><title>dir_41d98617f9e68bb8925b5f8794afb89b&#45;&gt;dir_5036081dbf3ad3ea0cfa218a95bb99de</title>
<path fill="none" stroke="black" d="M86.1529,-215.697C90.2508,-207.728 95.2028,-198.1 99.7467,-189.264"/>
<polygon fill="black" stroke="black" points="102.996,-190.598 104.457,-180.104 96.7714,-187.396 102.996,-190.598"/>
<g id="a_edge4&#45;headlabel"><a xlink:href="dir_000214_000197.html" target="_top" xlink:title="1">
<text text-anchor="middle" x="103.877" y="-192.593" font-family="Helvetica,sans-Serif" font-size="10.00">1</text>
</a>
</g>
</g>
<!-- dir_2171f7ec022c5423887b07c69b2f5b48 -->
<g id="node5" class="node"><title>dir_2171f7ec022c5423887b07c69b2f5b48</title>
<g id="a_node5"><a xlink:href="dir_2171f7ec022c5423887b07c69b2f5b48.html" target="_top" xlink:title="DataFormats">
<polygon fill="none" stroke="red" points="130.254,-36 56.254,-36 56.254,-0 130.254,-0 130.254,-36"/>
<text text-anchor="middle" x="93.254" y="-15.5" font-family="Helvetica,sans-Serif" font-size="10.00">DataFormats</text>
</a>
</g>
</g>
<!-- dir_41d98617f9e68bb8925b5f8794afb89b&#45;&gt;dir_2171f7ec022c5423887b07c69b2f5b48 -->
<g id="edge5" class="edge"><title>dir_41d98617f9e68bb8925b5f8794afb89b&#45;&gt;dir_2171f7ec022c5423887b07c69b2f5b48</title>
<path fill="none" stroke="black" d="M104.331,-221.008C120.582,-212.212 139.869,-198.561 149.254,-180 172.421,-134.179 138.466,-76.518 114.173,-44.1108"/>
<polygon fill="black" stroke="black" points="116.827,-41.8217 107.94,-36.0544 111.291,-46.1053 116.827,-41.8217"/>
<g id="a_edge5&#45;headlabel"><a xlink:href="dir_000214_000056.html" target="_top" xlink:title="1">
<text text-anchor="middle" x="121.272" y="-40.4272" font-family="Helvetica,sans-Serif" font-size="10.00">1</text>
</a>
</g>
</g>
<!-- dir_4ab6b4cc6a7edbff49100e9123df213f&#45;&gt;dir_2171f7ec022c5423887b07c69b2f5b48 -->
<g id="edge1" class="edge"><title>dir_4ab6b4cc6a7edbff49100e9123df213f&#45;&gt;dir_2171f7ec022c5423887b07c69b2f5b48</title>
<path fill="none" stroke="black" d="M66.2596,-71.6966C68.625,-63.7284 72.2619,-54.0995 76.1888,-45.2641"/>
<polygon fill="black" stroke="black" points="79.4092,-46.6411 80.5172,-36.1043 73.0802,-43.6503 79.4092,-46.6411"/>
<g id="a_edge1&#45;headlabel"><a xlink:href="dir_000016_000056.html" target="_top" xlink:title="3">
<text text-anchor="middle" x="80.4405" y="-48.6041" font-family="Helvetica,sans-Serif" font-size="10.00">3</text>
</a>
</g>
</g>
<!-- dir_5036081dbf3ad3ea0cfa218a95bb99de&#45;&gt;dir_4ab6b4cc6a7edbff49100e9123df213f -->
<g id="edge6" class="edge"><title>dir_5036081dbf3ad3ea0cfa218a95bb99de&#45;&gt;dir_4ab6b4cc6a7edbff49100e9123df213f</title>
<path fill="none" stroke="black" d="M101.389,-143.697C95.7505,-135.474 88.8996,-125.483 82.6853,-116.421"/>
<polygon fill="black" stroke="black" points="85.5246,-114.372 76.9827,-108.104 79.7514,-118.331 85.5246,-114.372"/>
<g id="a_edge6&#45;headlabel"><a xlink:href="dir_000197_000016.html" target="_top" xlink:title="1">
<text text-anchor="middle" x="89.899" y="-113.231" font-family="Helvetica,sans-Serif" font-size="10.00">1</text>
</a>
</g>
</g>
<!-- dir_5036081dbf3ad3ea0cfa218a95bb99de&#45;&gt;dir_2171f7ec022c5423887b07c69b2f5b48 -->
<g id="edge7" class="edge"><title>dir_5036081dbf3ad3ea0cfa218a95bb99de&#45;&gt;dir_2171f7ec022c5423887b07c69b2f5b48</title>
<path fill="none" stroke="black" d="M111.033,-143.927C108.683,-126.002 104.826,-97.0038 101.254,-72 100.051,-63.5796 98.687,-54.4154 97.4306,-46.1121"/>
<polygon fill="black" stroke="black" points="100.883,-45.5344 95.9167,-36.1757 93.9629,-46.5888 100.883,-45.5344"/>
<g id="a_edge7&#45;headlabel"><a xlink:href="dir_000197_000056.html" target="_top" xlink:title="1">
<text text-anchor="middle" x="104.231" y="-46.1604" font-family="Helvetica,sans-Serif" font-size="10.00">1</text>
</a>
</g>
</g>
<!-- dir_2171f7ec022c5423887b07c69b2f5b48&#45;&gt;dir_4ab6b4cc6a7edbff49100e9123df213f -->
<g id="edge8" class="edge"><title>dir_2171f7ec022c5423887b07c69b2f5b48&#45;&gt;dir_4ab6b4cc6a7edbff49100e9123df213f</title>
<path fill="none" stroke="black" d="M92.3073,-36.1043C89.9632,-44.0447 86.3394,-53.6661 82.4174,-62.5146"/>
<polygon fill="black" stroke="black" points="79.1873,-61.1586 78.0911,-71.6966 85.5196,-64.1423 79.1873,-61.1586"/>
<g id="a_edge8&#45;headlabel"><a xlink:href="dir_000056_000016.html" target="_top" xlink:title="20">
<text text-anchor="middle" x="78.1509" y="-54.1967" font-family="Helvetica,sans-Serif" font-size="10.00">20</text>
</a>
</g>
</g>
</g>
</svg>
