<?xml version="1.0" encoding="UTF-8" standalone="no"?>
<!DOCTYPE svg PUBLIC "-//W3C//DTD SVG 1.1//EN"
 "http://www.w3.org/Graphics/SVG/1.1/DTD/svg11.dtd">
<!-- Generated by graphviz version 2.36.0 (20140111.2315)
 -->
<!-- Title: /home/travis/build/AliceO2Group/AliceO2/Detectors/TRD/simulation Pages: 1 -->
<svg width="244pt" height="375pt"
 viewBox="0.00 0.00 244.00 375.00" xmlns="http://www.w3.org/2000/svg" xmlns:xlink="http://www.w3.org/1999/xlink">
<g id="graph0" class="graph" transform="scale(1 1) rotate(0) translate(4 371)">
<title>/home/travis/build/AliceO2Group/AliceO2/Detectors/TRD/simulation</title>
<g id="clust1" class="cluster"><title>clusterdir_69dd0583e11051991bf4c0cf23c50933</title>
<g id="a_clust1"><a xlink:href="dir_69dd0583e11051991bf4c0cf23c50933.html" target="_top" xlink:title="TRD">
<polygon fill="#ddddee" stroke="black" points="8,-200 8,-359 174,-359 174,-200 8,-200"/>
<text text-anchor="middle" x="91" y="-347" font-family="Helvetica,sans-Serif" font-size="10.00">TRD</text>
</a>
</g>
</g>
<g id="clust2" class="cluster"><title>clusterdir_5cb2a8e9fdbe67a11efb4176f60bf3d6</title>
<g id="a_clust2"><a xlink:href="dir_5cb2a8e9fdbe67a11efb4176f60bf3d6.html" target="_top">
<polygon fill="#eeeeff" stroke="black" points="16,-208 16,-332 166,-332 166,-208 16,-208"/>
</a>
</g>
</g>
<!-- dir_5cb2a8e9fdbe67a11efb4176f60bf3d6 -->
<g id="node1" class="node"><title>dir_5cb2a8e9fdbe67a11efb4176f60bf3d6</title>
<text text-anchor="middle" x="127" y="-303.5" font-family="Helvetica,sans-Serif" font-size="10.00">simulation</text>
</g>
<!-- dir_5036081dbf3ad3ea0cfa218a95bb99de -->
<g id="node2" class="node"><title>dir_5036081dbf3ad3ea0cfa218a95bb99de</title>
<g id="a_node2"><a xlink:href="dir_5036081dbf3ad3ea0cfa218a95bb99de.html" target="_top" xlink:title="include">
<polygon fill="white" stroke="red" points="78,-252 24,-252 24,-216 78,-216 78,-252"/>
<text text-anchor="middle" x="51" y="-231.5" font-family="Helvetica,sans-Serif" font-size="10.00">include</text>
</a>
</g>
</g>
<!-- dir_4ab6b4cc6a7edbff49100e9123df213f -->
<g id="node4" class="node"><title>dir_4ab6b4cc6a7edbff49100e9123df213f</title>
<g id="a_node4"><a xlink:href="dir_4ab6b4cc6a7edbff49100e9123df213f.html" target="_top" xlink:title="Common">
<polygon fill="none" stroke="red" points="134.5,-180 79.5,-180 79.5,-144 134.5,-144 134.5,-180"/>
<text text-anchor="middle" x="107" y="-159.5" font-family="Helvetica,sans-Serif" font-size="10.00">Common</text>
</a>
</g>
</g>
<!-- dir_5036081dbf3ad3ea0cfa218a95bb99de&#45;&gt;dir_4ab6b4cc6a7edbff49100e9123df213f -->
<g id="edge8" class="edge"><title>dir_5036081dbf3ad3ea0cfa218a95bb99de&#45;&gt;dir_4ab6b4cc6a7edbff49100e9123df213f</title>
<path fill="none" stroke="black" d="M64.8427,-215.697C71.4885,-207.389 79.5784,-197.277 86.8874,-188.141"/>
<polygon fill="black" stroke="black" points="89.8026,-190.099 93.3165,-180.104 84.3365,-185.727 89.8026,-190.099"/>
<g id="a_edge8&#45;headlabel"><a xlink:href="dir_000197_000016.html" target="_top" xlink:title="1">
<text text-anchor="middle" x="89.7742" y="-192.18" font-family="Helvetica,sans-Serif" font-size="10.00">1</text>
</a>
</g>
</g>
<!-- dir_37c90836491b695b472bf98d1be8336b -->
<g id="node5" class="node"><title>dir_37c90836491b695b472bf98d1be8336b</title>
<g id="a_node5"><a xlink:href="dir_37c90836491b695b472bf98d1be8336b.html" target="_top" xlink:title="Base">
<polygon fill="none" stroke="red" points="105,-36 51,-36 51,-0 105,-0 105,-36"/>
<text text-anchor="middle" x="78" y="-15.5" font-family="Helvetica,sans-Serif" font-size="10.00">Base</text>
</a>
</g>
</g>
<!-- dir_5036081dbf3ad3ea0cfa218a95bb99de&#45;&gt;dir_37c90836491b695b472bf98d1be8336b -->
<g id="edge9" class="edge"><title>dir_5036081dbf3ad3ea0cfa218a95bb99de&#45;&gt;dir_37c90836491b695b472bf98d1be8336b</title>
<path fill="none" stroke="black" d="M43.9528,-215.929C32.615,-185.839 13.3902,-121.833 32,-72 35.8761,-61.6206 42.8029,-51.9274 50.124,-43.7427"/>
<polygon fill="black" stroke="black" points="52.784,-46.0256 57.1772,-36.3845 47.7306,-41.1816 52.784,-46.0256"/>
<g id="a_edge9&#45;headlabel"><a xlink:href="dir_000197_000158.html" target="_top" xlink:title="1">
<text text-anchor="middle" x="52.3463" y="-48.0853" font-family="Helvetica,sans-Serif" font-size="10.00">1</text>
</a>
</g>
</g>
<!-- dir_2171f7ec022c5423887b07c69b2f5b48 -->
<g id="node7" class="node"><title>dir_2171f7ec022c5423887b07c69b2f5b48</title>
<g id="a_node7"><a xlink:href="dir_2171f7ec022c5423887b07c69b2f5b48.html" target="_top" xlink:title="DataFormats">
<polygon fill="none" stroke="red" points="115,-108 41,-108 41,-72 115,-72 115,-108"/>
<text text-anchor="middle" x="78" y="-87.5" font-family="Helvetica,sans-Serif" font-size="10.00">DataFormats</text>
</a>
</g>
</g>
<!-- dir_5036081dbf3ad3ea0cfa218a95bb99de&#45;&gt;dir_2171f7ec022c5423887b07c69b2f5b48 -->
<g id="edge10" class="edge"><title>dir_5036081dbf3ad3ea0cfa218a95bb99de&#45;&gt;dir_2171f7ec022c5423887b07c69b2f5b48</title>
<path fill="none" stroke="black" d="M54.2568,-215.871C58.8585,-191.67 67.312,-147.211 72.7914,-118.393"/>
<polygon fill="black" stroke="black" points="76.302,-118.667 74.7316,-108.189 69.4252,-117.359 76.302,-118.667"/>
<g id="a_edge10&#45;headlabel"><a xlink:href="dir_000197_000056.html" target="_top" xlink:title="1">
<text text-anchor="middle" x="78.4199" y="-120.229" font-family="Helvetica,sans-Serif" font-size="10.00">1</text>
</a>
</g>
</g>
<!-- dir_41d98617f9e68bb8925b5f8794afb89b -->
<g id="node3" class="node"><title>dir_41d98617f9e68bb8925b5f8794afb89b</title>
<g id="a_node3"><a xlink:href="dir_41d98617f9e68bb8925b5f8794afb89b.html" target="_top" xlink:title="src">
<polygon fill="white" stroke="black" points="78,-324 24,-324 24,-288 78,-288 78,-324"/>
<text text-anchor="middle" x="51" y="-303.5" font-family="Helvetica,sans-Serif" font-size="10.00">src</text>
</a>
</g>
</g>
<!-- dir_41d98617f9e68bb8925b5f8794afb89b&#45;&gt;dir_5036081dbf3ad3ea0cfa218a95bb99de -->
<g id="edge6" class="edge"><title>dir_41d98617f9e68bb8925b5f8794afb89b&#45;&gt;dir_5036081dbf3ad3ea0cfa218a95bb99de</title>
<path fill="none" stroke="black" d="M51,-287.697C51,-279.983 51,-270.712 51,-262.112"/>
<polygon fill="black" stroke="black" points="54.5001,-262.104 51,-252.104 47.5001,-262.104 54.5001,-262.104"/>
<g id="a_edge6&#45;headlabel"><a xlink:href="dir_000214_000197.html" target="_top" xlink:title="1">
<text text-anchor="middle" x="57.3393" y="-263.199" font-family="Helvetica,sans-Serif" font-size="10.00">1</text>
</a>
</g>
</g>
<!-- dir_41d98617f9e68bb8925b5f8794afb89b&#45;&gt;dir_4ab6b4cc6a7edbff49100e9123df213f -->
<g id="edge4" class="edge"><title>dir_41d98617f9e68bb8925b5f8794afb89b&#45;&gt;dir_4ab6b4cc6a7edbff49100e9123df213f</title>
<path fill="none" stroke="black" d="M65.1113,-287.828C72.6201,-277.9 81.4281,-264.86 87,-252 95.5387,-232.292 100.643,-208.487 103.556,-190.457"/>
<polygon fill="black" stroke="black" points="107.054,-190.731 105.062,-180.325 100.13,-189.702 107.054,-190.731"/>
<g id="a_edge4&#45;headlabel"><a xlink:href="dir_000214_000016.html" target="_top" xlink:title="1">
<text text-anchor="middle" x="109.334" y="-192.204" font-family="Helvetica,sans-Serif" font-size="10.00">1</text>
</a>
</g>
</g>
<!-- dir_09bf7f7c4011a5ccc426492db4dd0891 -->
<g id="node6" class="node"><title>dir_09bf7f7c4011a5ccc426492db4dd0891</title>
<g id="a_node6"><a xlink:href="dir_09bf7f7c4011a5ccc426492db4dd0891.html" target="_top" xlink:title="base">
<polygon fill="none" stroke="red" points="236,-252 182,-252 182,-216 236,-216 236,-252"/>
<text text-anchor="middle" x="209" y="-231.5" font-family="Helvetica,sans-Serif" font-size="10.00">base</text>
</a>
</g>
</g>
<!-- dir_41d98617f9e68bb8925b5f8794afb89b&#45;&gt;dir_09bf7f7c4011a5ccc426492db4dd0891 -->
<g id="edge5" class="edge"><title>dir_41d98617f9e68bb8925b5f8794afb89b&#45;&gt;dir_09bf7f7c4011a5ccc426492db4dd0891</title>
<path fill="none" stroke="black" d="M78.0838,-292.097C81.0859,-290.701 84.1037,-289.312 87,-288 123.629,-271.413 133.126,-268.034 170,-252 170.83,-251.639 171.669,-251.274 172.516,-250.906"/>
<polygon fill="black" stroke="black" points="173.956,-254.096 181.728,-246.895 171.162,-247.678 173.956,-254.096"/>
<g id="a_edge5&#45;headlabel"><a xlink:href="dir_000214_000362.html" target="_top" xlink:title="2">
<text text-anchor="middle" x="171.793" y="-255.634" font-family="Helvetica,sans-Serif" font-size="10.00">2</text>
</a>
</g>
</g>
<!-- dir_41d98617f9e68bb8925b5f8794afb89b&#45;&gt;dir_2171f7ec022c5423887b07c69b2f5b48 -->
<g id="edge7" class="edge"><title>dir_41d98617f9e68bb8925b5f8794afb89b&#45;&gt;dir_2171f7ec022c5423887b07c69b2f5b48</title>
<path fill="none" stroke="black" d="M35.3901,-287.774C27.6271,-278.03 19.0541,-265.184 15,-252 8.20708,-229.91 9.01312,-222.322 15,-200 23.3603,-168.828 43.0352,-137.353 58.1912,-116.295"/>
<polygon fill="black" stroke="black" points="61.0346,-118.336 64.157,-108.212 55.4025,-114.18 61.0346,-118.336"/>
<g id="a_edge7&#45;headlabel"><a xlink:href="dir_000214_000056.html" target="_top" xlink:title="1">
<text text-anchor="middle" x="61.1844" y="-120.415" font-family="Helvetica,sans-Serif" font-size="10.00">1</text>
</a>
</g>
</g>
<!-- dir_4ab6b4cc6a7edbff49100e9123df213f&#45;&gt;dir_2171f7ec022c5423887b07c69b2f5b48 -->
<g id="edge1" class="edge"><title>dir_4ab6b4cc6a7edbff49100e9123df213f&#45;&gt;dir_2171f7ec022c5423887b07c69b2f5b48</title>
<path fill="none" stroke="black" d="M93.9157,-143.697C89.8804,-135.898 85.7678,-126.509 82.5312,-117.829"/>
<polygon fill="black" stroke="black" points="85.7497,-116.425 79.191,-108.104 79.1293,-118.699 85.7497,-116.425"/>
<g id="a_edge1&#45;headlabel"><a xlink:href="dir_000016_000056.html" target="_top" xlink:title="3">
<text text-anchor="middle" x="89.6026" y="-116.402" font-family="Helvetica,sans-Serif" font-size="10.00">3</text>
</a>
</g>
</g>
<!-- dir_37c90836491b695b472bf98d1be8336b&#45;&gt;dir_4ab6b4cc6a7edbff49100e9123df213f -->
<g id="edge2" class="edge"><title>dir_37c90836491b695b472bf98d1be8336b&#45;&gt;dir_4ab6b4cc6a7edbff49100e9123df213f</title>
<path fill="none" stroke="black" d="M98.8228,-36.3845C108.458,-45.8019 118.885,-58.3034 124,-72 131.569,-92.2675 126.099,-116.445 119.415,-134.482"/>
<polygon fill="black" stroke="black" points="116.149,-133.224 115.652,-143.807 122.64,-135.844 116.149,-133.224"/>
<g id="a_edge2&#45;headlabel"><a xlink:href="dir_000158_000016.html" target="_top" xlink:title="7">
<text text-anchor="middle" x="114.861" y="-126.328" font-family="Helvetica,sans-Serif" font-size="10.00">7</text>
</a>
</g>
</g>
<!-- dir_37c90836491b695b472bf98d1be8336b&#45;&gt;dir_2171f7ec022c5423887b07c69b2f5b48 -->
<g id="edge3" class="edge"><title>dir_37c90836491b695b472bf98d1be8336b&#45;&gt;dir_2171f7ec022c5423887b07c69b2f5b48</title>
<path fill="none" stroke="black" d="M83.895,-36.1043C84.7005,-43.7913 84.9369,-53.0537 84.604,-61.6651"/>
<polygon fill="black" stroke="black" points="81.1085,-61.4805 83.9157,-71.6966 88.0921,-61.9597 81.1085,-61.4805"/>
<g id="a_edge3&#45;headlabel"><a xlink:href="dir_000158_000056.html" target="_top" xlink:title="5">
<text text-anchor="middle" x="78.5219" y="-55.2" font-family="Helvetica,sans-Serif" font-size="10.00">5</text>
</a>
</g>
</g>
<!-- dir_2171f7ec022c5423887b07c69b2f5b48&#45;&gt;dir_4ab6b4cc6a7edbff49100e9123df213f -->
<g id="edge11" class="edge"><title>dir_2171f7ec022c5423887b07c69b2f5b48&#45;&gt;dir_4ab6b4cc6a7edbff49100e9123df213f</title>
<path fill="none" stroke="black" d="M90.9811,-108.104C95.0589,-115.96 99.2239,-125.462 102.492,-134.232"/>
<polygon fill="black" stroke="black" points="99.1848,-135.379 105.747,-143.697 105.804,-133.102 99.1848,-135.379"/>
<g id="a_edge11&#45;headlabel"><a xlink:href="dir_000056_000016.html" target="_top" xlink:title="20">
<text text-anchor="middle" x="95.3308" y="-130.403" font-family="Helvetica,sans-Serif" font-size="10.00">20</text>
</a>
</g>
</g>
<!-- dir_2171f7ec022c5423887b07c69b2f5b48&#45;&gt;dir_37c90836491b695b472bf98d1be8336b -->
<g id="edge12" class="edge"><title>dir_2171f7ec022c5423887b07c69b2f5b48&#45;&gt;dir_37c90836491b695b472bf98d1be8336b</title>
<path fill="none" stroke="black" d="M72.0843,-71.6966C71.2886,-63.9827 71.0621,-54.7125 71.4047,-46.1124"/>
<polygon fill="black" stroke="black" points="74.8984,-46.3243 72.105,-36.1043 67.9154,-45.8356 74.8984,-46.3243"/>
<g id="a_edge12&#45;headlabel"><a xlink:href="dir_000056_000158.html" target="_top" xlink:title="1">
<text text-anchor="middle" x="77.4799" y="-47.6083" font-family="Helvetica,sans-Serif" font-size="10.00">1</text>
</a>
</g>
</g>
</g>
</svg>
