<?xml version="1.0" encoding="UTF-8" standalone="no"?>
<!DOCTYPE svg PUBLIC "-//W3C//DTD SVG 1.1//EN"
 "http://www.w3.org/Graphics/SVG/1.1/DTD/svg11.dtd">
<!-- Generated by graphviz version 2.36.0 (20140111.2315)
 -->
<!-- Title: Graphical Class Hierarchy Pages: 1 -->
<svg width="272pt" height="104pt"
 viewBox="0.00 0.00 272.00 104.00" xmlns="http://www.w3.org/2000/svg" xmlns:xlink="http://www.w3.org/1999/xlink">
<g id="graph0" class="graph" transform="scale(1 1) rotate(0) translate(4 100)">
<title>Graphical Class Hierarchy</title>
<!-- Node1 -->
<g id="node1" class="node"><title>Node1</title>
<g id="a_node1"><a xlink:href="d0/d94/classo2_1_1dataformats_1_1TimeStamp.html" target="_top" xlink:title="o2::dataformats::TimeStamp\l\&lt; double \&gt;">
<polygon fill="none" stroke="black" points="0.5,-33 0.5,-63 141.5,-63 141.5,-33 0.5,-33"/>
<text text-anchor="start" x="8.5" y="-51" font-family="Helvetica,sans-Serif" font-size="10.00">o2::dataformats::TimeStamp</text>
<text text-anchor="middle" x="71" y="-40" font-family="Helvetica,sans-Serif" font-size="10.00">&lt; double &gt;</text>
</a>
</g>
</g>
<!-- Node2 -->
<g id="node2" class="node"><title>Node2</title>
<g id="a_node2"><a xlink:href="db/df9/classo2_1_1fit_1_1Digit.html" target="_top" xlink:title="FIT digit implementation. ">
<polygon fill="none" stroke="black" points="187,-76.5 187,-95.5 255,-95.5 255,-76.5 187,-76.5"/>
<text text-anchor="middle" x="221" y="-83.5" font-family="Helvetica,sans-Serif" font-size="10.00">o2::fit::Digit</text>
</a>
</g>
</g>
<!-- Node1&#45;&gt;Node2 -->
<g id="edge1" class="edge"><title>Node1&#45;&gt;Node2</title>
<path fill="none" stroke="midnightblue" d="M140.426,-65.5688C156.495,-69.6946 172.916,-73.9109 186.636,-77.4336"/>
<polygon fill="midnightblue" stroke="midnightblue" points="141.05,-62.1155 130.494,-63.0186 139.309,-68.8956 141.05,-62.1155"/>
</g>
<!-- Node3 -->
<g id="node3" class="node"><title>Node3</title>
<g id="a_node3"><a xlink:href="d3/d03/classo2_1_1hmpid_1_1Digit.html" target="_top" xlink:title="HMPID digit implementation. ">
<polygon fill="none" stroke="black" points="178,-38.5 178,-57.5 264,-57.5 264,-38.5 178,-38.5"/>
<text text-anchor="middle" x="221" y="-45.5" font-family="Helvetica,sans-Serif" font-size="10.00">o2::hmpid::Digit</text>
</a>
</g>
</g>
<!-- Node1&#45;&gt;Node3 -->
<g id="edge2" class="edge"><title>Node1&#45;&gt;Node3</title>
<path fill="none" stroke="midnightblue" d="M151.761,-48C160.684,-48 169.494,-48 177.67,-48"/>
<polygon fill="midnightblue" stroke="midnightblue" points="151.666,-44.5001 141.666,-48 151.666,-51.5001 151.666,-44.5001"/>
</g>
<!-- Node4 -->
<g id="node4" class="node"><title>Node4</title>
<g id="a_node4"><a xlink:href="d8/db4/classo2_1_1tof_1_1Digit.html" target="_top" xlink:title="TOF digit implementation. ">
<polygon fill="none" stroke="black" points="185.5,-0.5 185.5,-19.5 256.5,-19.5 256.5,-0.5 185.5,-0.5"/>
<text text-anchor="middle" x="221" y="-7.5" font-family="Helvetica,sans-Serif" font-size="10.00">o2::tof::Digit</text>
</a>
</g>
</g>
<!-- Node1&#45;&gt;Node4 -->
<g id="edge3" class="edge"><title>Node1&#45;&gt;Node4</title>
<path fill="none" stroke="midnightblue" d="M140.615,-30.3827C156.13,-26.3991 171.962,-22.334 185.365,-18.8928"/>
<polygon fill="midnightblue" stroke="midnightblue" points="139.309,-27.1044 130.494,-32.9814 141.05,-33.8845 139.309,-27.1044"/>
</g>
</g>
</svg>
