<?xml version="1.0" encoding="UTF-8" standalone="no"?>
<!DOCTYPE svg PUBLIC "-//W3C//DTD SVG 1.1//EN"
 "http://www.w3.org/Graphics/SVG/1.1/DTD/svg11.dtd">
<!-- Generated by graphviz version 2.36.0 (20140111.2315)
 -->
<!-- Title: Graphical Class Hierarchy Pages: 1 -->
<svg width="648pt" height="766pt"
 viewBox="0.00 0.00 648.00 766.00" xmlns="http://www.w3.org/2000/svg" xmlns:xlink="http://www.w3.org/1999/xlink">
<g id="graph0" class="graph" transform="scale(1 1) rotate(0) translate(4 762)">
<title>Graphical Class Hierarchy</title>
<!-- Node1 -->
<g id="node1" class="node"><title>Node1</title>
<polygon fill="none" stroke="#bfbfbf" points="0,-320.5 0,-339.5 62,-339.5 62,-320.5 0,-320.5"/>
<text text-anchor="middle" x="31" y="-327.5" font-family="Helvetica,sans-Serif" font-size="10.00">false_type</text>
</g>
<!-- Node2 -->
<g id="node2" class="node"><title>Node2</title>
<g id="a_node2"><a xlink:href="d3/de1/structo2_1_1framework_1_1has__root__dictionary.html" target="_top" xlink:title="o2::framework::has\l_root_dictionary\&lt; T\l::value_type \&gt;">
<polygon fill="none" stroke="black" points="134.5,-669.5 134.5,-710.5 235.5,-710.5 235.5,-669.5 134.5,-669.5"/>
<text text-anchor="start" x="142.5" y="-698.5" font-family="Helvetica,sans-Serif" font-size="10.00">o2::framework::has</text>
<text text-anchor="start" x="142.5" y="-687.5" font-family="Helvetica,sans-Serif" font-size="10.00">_root_dictionary&lt; T</text>
<text text-anchor="middle" x="185" y="-676.5" font-family="Helvetica,sans-Serif" font-size="10.00">::value_type &gt;</text>
</a>
</g>
</g>
<!-- Node1&#45;&gt;Node2 -->
<g id="edge1" class="edge"><title>Node1&#45;&gt;Node2</title>
<path fill="none" stroke="midnightblue" d="M33.6216,-349.733C39.1431,-412.564 59.0676,-606.602 98,-654 107.246,-665.257 120.621,-673.048 134.077,-678.419"/>
<polygon fill="midnightblue" stroke="midnightblue" points="37.094,-349.259 32.7569,-339.593 30.1193,-349.854 37.094,-349.259"/>
</g>
<!-- Node4 -->
<g id="node4" class="node"><title>Node4</title>
<g id="a_node4"><a xlink:href="d5/dbf/structo2_1_1framework_1_1is__boost__serializable__base.html" target="_top" xlink:title="o2::framework::is_boost\l_serializable_base\&lt; Type,\l Archive \&gt;">
<polygon fill="none" stroke="black" points="119.5,-604.5 119.5,-645.5 250.5,-645.5 250.5,-604.5 119.5,-604.5"/>
<text text-anchor="start" x="127.5" y="-633.5" font-family="Helvetica,sans-Serif" font-size="10.00">o2::framework::is_boost</text>
<text text-anchor="start" x="127.5" y="-622.5" font-family="Helvetica,sans-Serif" font-size="10.00">_serializable_base&lt; Type,</text>
<text text-anchor="middle" x="185" y="-611.5" font-family="Helvetica,sans-Serif" font-size="10.00"> Archive &gt;</text>
</a>
</g>
</g>
<!-- Node1&#45;&gt;Node4 -->
<g id="edge3" class="edge"><title>Node1&#45;&gt;Node4</title>
<path fill="none" stroke="midnightblue" d="M34.4965,-349.626C41.8271,-404.407 64.8769,-557.351 98,-594 103.959,-600.594 111.427,-605.786 119.457,-609.875"/>
<polygon fill="midnightblue" stroke="midnightblue" points="37.94,-348.965 33.1729,-339.504 30.9991,-349.873 37.94,-348.965"/>
</g>
<!-- Node8 -->
<g id="node8" class="node"><title>Node8</title>
<g id="a_node8"><a xlink:href="d5/dbf/structo2_1_1framework_1_1is__boost__serializable__base.html" target="_top" xlink:title="o2::framework::is_boost\l_serializable_base\&lt; Type,\l boost::archive::binary\l_oarchive \&gt;">
<polygon fill="none" stroke="black" points="119.5,-533 119.5,-585 250.5,-585 250.5,-533 119.5,-533"/>
<text text-anchor="start" x="127.5" y="-573" font-family="Helvetica,sans-Serif" font-size="10.00">o2::framework::is_boost</text>
<text text-anchor="start" x="127.5" y="-562" font-family="Helvetica,sans-Serif" font-size="10.00">_serializable_base&lt; Type,</text>
<text text-anchor="start" x="127.5" y="-551" font-family="Helvetica,sans-Serif" font-size="10.00"> boost::archive::binary</text>
<text text-anchor="middle" x="185" y="-540" font-family="Helvetica,sans-Serif" font-size="10.00">_oarchive &gt;</text>
</a>
</g>
</g>
<!-- Node1&#45;&gt;Node8 -->
<g id="edge7" class="edge"><title>Node1&#45;&gt;Node8</title>
<path fill="none" stroke="midnightblue" d="M33.5404,-350.225C37.506,-388.708 51.3094,-473.074 98,-523 104.081,-529.502 111.518,-534.872 119.449,-539.296"/>
<polygon fill="midnightblue" stroke="midnightblue" points="36.988,-349.487 32.6,-339.844 30.0165,-350.119 36.988,-349.487"/>
</g>
<!-- Node11 -->
<g id="node11" class="node"><title>Node11</title>
<g id="a_node11"><a xlink:href="d0/deb/structis__defined.html" target="_top" xlink:title="is_defined\&lt; class,\l class, class \&gt;">
<polygon fill="none" stroke="black" points="137,-484 137,-514 233,-514 233,-484 137,-484"/>
<text text-anchor="start" x="145" y="-502" font-family="Helvetica,sans-Serif" font-size="10.00">is_defined&lt; class,</text>
<text text-anchor="middle" x="185" y="-491" font-family="Helvetica,sans-Serif" font-size="10.00"> class, class &gt;</text>
</a>
</g>
</g>
<!-- Node1&#45;&gt;Node11 -->
<g id="edge10" class="edge"><title>Node1&#45;&gt;Node11</title>
<path fill="none" stroke="midnightblue" d="M35.5952,-349.738C42.2877,-380.779 59.6159,-440.876 98,-474 108.83,-483.346 122.983,-489.203 136.671,-492.872"/>
<polygon fill="midnightblue" stroke="midnightblue" points="38.9849,-348.839 33.5915,-339.72 32.1208,-350.212 38.9849,-348.839"/>
</g>
<!-- Node12 -->
<g id="node12" class="node"><title>Node12</title>
<g id="a_node12"><a xlink:href="d4/df6/structnlohmann_1_1detail_1_1is__basic__json.html" target="_top" xlink:title="nlohmann::detail::is\l_basic_json\&lt; typename \&gt;">
<polygon fill="none" stroke="black" points="120.5,-435 120.5,-465 249.5,-465 249.5,-435 120.5,-435"/>
<text text-anchor="start" x="128.5" y="-453" font-family="Helvetica,sans-Serif" font-size="10.00">nlohmann::detail::is</text>
<text text-anchor="middle" x="185" y="-442" font-family="Helvetica,sans-Serif" font-size="10.00">_basic_json&lt; typename &gt;</text>
</a>
</g>
</g>
<!-- Node1&#45;&gt;Node12 -->
<g id="edge11" class="edge"><title>Node1&#45;&gt;Node12</title>
<path fill="none" stroke="midnightblue" d="M40.2602,-348.847C50.6615,-370.407 70.5492,-405.267 98,-425 104.691,-429.81 112.298,-433.7 120.155,-436.845"/>
<polygon fill="midnightblue" stroke="midnightblue" points="43.4129,-347.326 36.0399,-339.718 37.059,-350.263 43.4129,-347.326"/>
</g>
<!-- Node13 -->
<g id="node13" class="node"><title>Node13</title>
<g id="a_node13"><a xlink:href="dd/d13/structnlohmann_1_1detail_1_1is__compatible__integer__type__impl.html" target="_top" xlink:title="nlohmann::detail::is\l_compatible_integer_type\l_impl\&lt; bool, typename, typename \&gt;">
<polygon fill="none" stroke="black" points="98.5,-375.5 98.5,-416.5 271.5,-416.5 271.5,-375.5 98.5,-375.5"/>
<text text-anchor="start" x="106.5" y="-404.5" font-family="Helvetica,sans-Serif" font-size="10.00">nlohmann::detail::is</text>
<text text-anchor="start" x="106.5" y="-393.5" font-family="Helvetica,sans-Serif" font-size="10.00">_compatible_integer_type</text>
<text text-anchor="middle" x="185" y="-382.5" font-family="Helvetica,sans-Serif" font-size="10.00">_impl&lt; bool, typename, typename &gt;</text>
</a>
</g>
</g>
<!-- Node1&#45;&gt;Node13 -->
<g id="edge12" class="edge"><title>Node1&#45;&gt;Node13</title>
<path fill="none" stroke="midnightblue" d="M57.5341,-344.627C69.6058,-351.259 84.3374,-358.951 98,-365 106.127,-368.598 114.814,-372.105 123.426,-375.389"/>
<polygon fill="midnightblue" stroke="midnightblue" points="58.933,-341.399 48.4943,-339.587 55.5243,-347.513 58.933,-341.399"/>
</g>
<!-- Node14 -->
<g id="node14" class="node"><title>Node14</title>
<g id="a_node14"><a xlink:href="dc/da5/structnlohmann_1_1detail_1_1is__compatible__object__type__impl.html" target="_top" xlink:title="nlohmann::detail::is\l_compatible_object_type\l_impl\&lt; B, RealType, Compatible\lObjectType \&gt;">
<polygon fill="none" stroke="black" points="105.5,-304 105.5,-356 264.5,-356 264.5,-304 105.5,-304"/>
<text text-anchor="start" x="113.5" y="-344" font-family="Helvetica,sans-Serif" font-size="10.00">nlohmann::detail::is</text>
<text text-anchor="start" x="113.5" y="-333" font-family="Helvetica,sans-Serif" font-size="10.00">_compatible_object_type</text>
<text text-anchor="start" x="113.5" y="-322" font-family="Helvetica,sans-Serif" font-size="10.00">_impl&lt; B, RealType, Compatible</text>
<text text-anchor="middle" x="185" y="-311" font-family="Helvetica,sans-Serif" font-size="10.00">ObjectType &gt;</text>
</a>
</g>
</g>
<!-- Node1&#45;&gt;Node14 -->
<g id="edge13" class="edge"><title>Node1&#45;&gt;Node14</title>
<path fill="none" stroke="midnightblue" d="M72.2972,-330C82.5838,-330 93.9996,-330 105.492,-330"/>
<polygon fill="midnightblue" stroke="midnightblue" points="72.0303,-326.5 62.0303,-330 72.0303,-333.5 72.0303,-326.5"/>
</g>
<!-- Node15 -->
<g id="node15" class="node"><title>Node15</title>
<g id="a_node15"><a xlink:href="d2/db3/structnlohmann_1_1detail_1_1is__complete__type.html" target="_top" xlink:title="nlohmann::detail::is\l_complete_type\&lt; T, typename \&gt;">
<polygon fill="none" stroke="black" points="106,-255 106,-285 264,-285 264,-255 106,-255"/>
<text text-anchor="start" x="114" y="-273" font-family="Helvetica,sans-Serif" font-size="10.00">nlohmann::detail::is</text>
<text text-anchor="middle" x="185" y="-262" font-family="Helvetica,sans-Serif" font-size="10.00">_complete_type&lt; T, typename &gt;</text>
</a>
</g>
</g>
<!-- Node1&#45;&gt;Node15 -->
<g id="edge14" class="edge"><title>Node1&#45;&gt;Node15</title>
<path fill="none" stroke="midnightblue" d="M56.5148,-315.456C68.7028,-308.628 83.8249,-300.748 98,-295 106.934,-291.377 116.584,-288.043 126.081,-285.07"/>
<polygon fill="midnightblue" stroke="midnightblue" points="54.7759,-312.419 47.8307,-320.42 58.2495,-318.496 54.7759,-312.419"/>
</g>
<!-- Node16 -->
<g id="node16" class="node"><title>Node16</title>
<g id="a_node16"><a xlink:href="d3/de1/structo2_1_1framework_1_1has__root__dictionary.html" target="_top" xlink:title="o2::framework::has\l_root_dictionary\&lt; T, _ \&gt;">
<polygon fill="none" stroke="black" points="124.5,-206 124.5,-236 245.5,-236 245.5,-206 124.5,-206"/>
<text text-anchor="start" x="132.5" y="-224" font-family="Helvetica,sans-Serif" font-size="10.00">o2::framework::has</text>
<text text-anchor="middle" x="185" y="-213" font-family="Helvetica,sans-Serif" font-size="10.00">_root_dictionary&lt; T, _ &gt;</text>
</a>
</g>
</g>
<!-- Node1&#45;&gt;Node16 -->
<g id="edge15" class="edge"><title>Node1&#45;&gt;Node16</title>
<path fill="none" stroke="midnightblue" d="M41.9549,-311.371C53.125,-292.218 72.9994,-262.88 98,-246 105.99,-240.606 115.154,-236.358 124.454,-233.018"/>
<polygon fill="midnightblue" stroke="midnightblue" points="38.7648,-309.904 36.926,-320.338 44.8702,-313.328 38.7648,-309.904"/>
</g>
<!-- Node17 -->
<g id="node17" class="node"><title>Node17</title>
<g id="a_node17"><a xlink:href="d5/dbf/structo2_1_1framework_1_1is__boost__serializable__base.html" target="_top" xlink:title="o2::framework::is_boost\l_serializable_base\&lt; Type,\l Archive, typename \&gt;">
<polygon fill="none" stroke="black" points="119.5,-146.5 119.5,-187.5 250.5,-187.5 250.5,-146.5 119.5,-146.5"/>
<text text-anchor="start" x="127.5" y="-175.5" font-family="Helvetica,sans-Serif" font-size="10.00">o2::framework::is_boost</text>
<text text-anchor="start" x="127.5" y="-164.5" font-family="Helvetica,sans-Serif" font-size="10.00">_serializable_base&lt; Type,</text>
<text text-anchor="middle" x="185" y="-153.5" font-family="Helvetica,sans-Serif" font-size="10.00"> Archive, typename &gt;</text>
</a>
</g>
</g>
<!-- Node1&#45;&gt;Node17 -->
<g id="edge16" class="edge"><title>Node1&#45;&gt;Node17</title>
<path fill="none" stroke="midnightblue" d="M36.6694,-310.379C44.5115,-281.557 63.0173,-227.862 98,-197 104.285,-191.456 111.653,-186.921 119.388,-183.216"/>
<polygon fill="midnightblue" stroke="midnightblue" points="33.1857,-309.874 34.0965,-320.43 39.9671,-311.61 33.1857,-309.874"/>
</g>
<!-- Node18 -->
<g id="node18" class="node"><title>Node18</title>
<g id="a_node18"><a xlink:href="dc/d9b/structo2_1_1framework_1_1is__container.html" target="_top" xlink:title="o2::framework::is_container\l\&lt; T, _ \&gt;">
<polygon fill="none" stroke="black" points="116.5,-98 116.5,-128 253.5,-128 253.5,-98 116.5,-98"/>
<text text-anchor="start" x="124.5" y="-116" font-family="Helvetica,sans-Serif" font-size="10.00">o2::framework::is_container</text>
<text text-anchor="middle" x="185" y="-105" font-family="Helvetica,sans-Serif" font-size="10.00">&lt; T, _ &gt;</text>
</a>
</g>
</g>
<!-- Node1&#45;&gt;Node18 -->
<g id="edge17" class="edge"><title>Node1&#45;&gt;Node18</title>
<path fill="none" stroke="midnightblue" d="M32.9141,-310.287C35.8064,-271.372 47.8502,-184.353 98,-137 103.297,-131.998 109.548,-128.024 116.224,-124.869"/>
<polygon fill="midnightblue" stroke="midnightblue" points="29.4176,-310.125 32.2972,-320.321 36.4044,-310.555 29.4176,-310.125"/>
</g>
<!-- Node19 -->
<g id="node19" class="node"><title>Node19</title>
<g id="a_node19"><a xlink:href="da/dee/structo2_1_1framework_1_1is__forced__non__messageable.html" target="_top" xlink:title="o2::framework::is_forced\l_non_messageable\&lt; T, _ \&gt;">
<polygon fill="none" stroke="black" points="117,-49 117,-79 253,-79 253,-49 117,-49"/>
<text text-anchor="start" x="125" y="-67" font-family="Helvetica,sans-Serif" font-size="10.00">o2::framework::is_forced</text>
<text text-anchor="middle" x="185" y="-56" font-family="Helvetica,sans-Serif" font-size="10.00">_non_messageable&lt; T, _ &gt;</text>
</a>
</g>
</g>
<!-- Node1&#45;&gt;Node19 -->
<g id="edge18" class="edge"><title>Node1&#45;&gt;Node19</title>
<path fill="none" stroke="midnightblue" d="M31.3591,-309.991C31.0291,-264.233 36.8356,-151.126 98,-89 103.345,-83.5708 109.795,-79.3041 116.73,-75.9537"/>
<polygon fill="midnightblue" stroke="midnightblue" points="27.8617,-310.167 31.5453,-320.101 34.8605,-310.038 27.8617,-310.167"/>
</g>
<!-- Node20 -->
<g id="node20" class="node"><title>Node20</title>
<g id="a_node20"><a xlink:href="d8/d85/structo2_1_1framework_1_1is__specialization.html" target="_top" xlink:title="o2::framework::is_specialization\l\&lt; T, Ref \&gt;">
<polygon fill="none" stroke="black" points="106.5,-0 106.5,-30 263.5,-30 263.5,-0 106.5,-0"/>
<text text-anchor="start" x="114.5" y="-18" font-family="Helvetica,sans-Serif" font-size="10.00">o2::framework::is_specialization</text>
<text text-anchor="middle" x="185" y="-7" font-family="Helvetica,sans-Serif" font-size="10.00">&lt; T, Ref &gt;</text>
</a>
</g>
</g>
<!-- Node1&#45;&gt;Node20 -->
<g id="edge19" class="edge"><title>Node1&#45;&gt;Node20</title>
<path fill="none" stroke="midnightblue" d="M33.9025,-310.282C39.9487,-251.604 60.5642,-79.7174 98,-40 101.626,-36.153 105.806,-32.8869 110.328,-30.1152"/>
<polygon fill="midnightblue" stroke="midnightblue" points="30.3997,-310.137 32.8869,-320.436 37.3649,-310.834 30.3997,-310.137"/>
</g>
<!-- Node3 -->
<g id="node3" class="node"><title>Node3</title>
<g id="a_node3"><a xlink:href="d5/d6d/classo2_1_1framework_1_1has__root__dictionary_3_01T_00_01typename_01std_1_1enable__if_3_01is__co3a14f09bcf42c805e484bfdd1c1dadfb.html" target="_top" xlink:title="o2::framework::has\l_root_dictionary\&lt; T,\l typename std::enable\l_if\&lt; is_container\&lt; T \&gt;\l::value \&gt;::type \&gt;">
<polygon fill="none" stroke="black" points="323.5,-694.5 323.5,-757.5 436.5,-757.5 436.5,-694.5 323.5,-694.5"/>
<text text-anchor="start" x="331.5" y="-745.5" font-family="Helvetica,sans-Serif" font-size="10.00">o2::framework::has</text>
<text text-anchor="start" x="331.5" y="-734.5" font-family="Helvetica,sans-Serif" font-size="10.00">_root_dictionary&lt; T,</text>
<text text-anchor="start" x="331.5" y="-723.5" font-family="Helvetica,sans-Serif" font-size="10.00"> typename std::enable</text>
<text text-anchor="start" x="331.5" y="-712.5" font-family="Helvetica,sans-Serif" font-size="10.00">_if&lt; is_container&lt; T &gt;</text>
<text text-anchor="middle" x="380" y="-701.5" font-family="Helvetica,sans-Serif" font-size="10.00">::value &gt;::type &gt;</text>
</a>
</g>
</g>
<!-- Node2&#45;&gt;Node3 -->
<g id="edge2" class="edge"><title>Node2&#45;&gt;Node3</title>
<path fill="none" stroke="midnightblue" d="M245.699,-701.136C270.458,-705.754 299.02,-711.081 323.338,-715.618"/>
<polygon fill="midnightblue" stroke="midnightblue" points="246.175,-697.664 235.702,-699.271 244.891,-704.545 246.175,-697.664"/>
</g>
<!-- Node5 -->
<g id="node5" class="node"><title>Node5</title>
<g id="a_node5"><a xlink:href="d2/d70/structo2_1_1framework_1_1is__boost__serializable.html" target="_top" xlink:title="o2::framework::is_boost\l_serializable\&lt; Type::value\l_type, Archive \&gt;">
<polygon fill="none" stroke="black" points="314.5,-634.5 314.5,-675.5 445.5,-675.5 445.5,-634.5 314.5,-634.5"/>
<text text-anchor="start" x="322.5" y="-663.5" font-family="Helvetica,sans-Serif" font-size="10.00">o2::framework::is_boost</text>
<text text-anchor="start" x="322.5" y="-652.5" font-family="Helvetica,sans-Serif" font-size="10.00">_serializable&lt; Type::value</text>
<text text-anchor="middle" x="380" y="-641.5" font-family="Helvetica,sans-Serif" font-size="10.00">_type, Archive &gt;</text>
</a>
</g>
</g>
<!-- Node4&#45;&gt;Node5 -->
<g id="edge4" class="edge"><title>Node4&#45;&gt;Node5</title>
<path fill="none" stroke="midnightblue" d="M260.776,-636.623C278.404,-639.363 297.052,-642.262 314.197,-644.927"/>
<polygon fill="midnightblue" stroke="midnightblue" points="260.953,-633.109 250.535,-635.031 259.878,-640.026 260.953,-633.109"/>
</g>
<!-- Node7 -->
<g id="node7" class="node"><title>Node7</title>
<g id="a_node7"><a xlink:href="d2/d70/structo2_1_1framework_1_1is__boost__serializable.html" target="_top" xlink:title="o2::framework::is_boost\l_serializable\&lt; Type, Archive,\l typename \&gt;">
<polygon fill="none" stroke="black" points="308.5,-574.5 308.5,-615.5 451.5,-615.5 451.5,-574.5 308.5,-574.5"/>
<text text-anchor="start" x="316.5" y="-603.5" font-family="Helvetica,sans-Serif" font-size="10.00">o2::framework::is_boost</text>
<text text-anchor="start" x="316.5" y="-592.5" font-family="Helvetica,sans-Serif" font-size="10.00">_serializable&lt; Type, Archive,</text>
<text text-anchor="middle" x="380" y="-581.5" font-family="Helvetica,sans-Serif" font-size="10.00"> typename &gt;</text>
</a>
</g>
</g>
<!-- Node4&#45;&gt;Node7 -->
<g id="edge6" class="edge"><title>Node4&#45;&gt;Node7</title>
<path fill="none" stroke="midnightblue" d="M260.671,-613.393C276.3,-610.964 292.736,-608.409 308.219,-606.002"/>
<polygon fill="midnightblue" stroke="midnightblue" points="259.878,-609.974 250.535,-614.969 260.953,-616.891 259.878,-609.974"/>
</g>
<!-- Node6 -->
<g id="node6" class="node"><title>Node6</title>
<g id="a_node6"><a xlink:href="d4/dbd/structo2_1_1framework_1_1is__boost__serializable_3_01Type_00_01Archive_00_01void__t_3_01typename98499f1bdfed8f3296d77dbecb6de076.html" target="_top" xlink:title="o2::framework::is_boost\l_serializable\&lt; Type, Archive,\l void_t\&lt; typename Type::value\l_type \&gt; \&gt;">
<polygon fill="none" stroke="black" points="488,-629 488,-681 640,-681 640,-629 488,-629"/>
<text text-anchor="start" x="496" y="-669" font-family="Helvetica,sans-Serif" font-size="10.00">o2::framework::is_boost</text>
<text text-anchor="start" x="496" y="-658" font-family="Helvetica,sans-Serif" font-size="10.00">_serializable&lt; Type, Archive,</text>
<text text-anchor="start" x="496" y="-647" font-family="Helvetica,sans-Serif" font-size="10.00"> void_t&lt; typename Type::value</text>
<text text-anchor="middle" x="564" y="-636" font-family="Helvetica,sans-Serif" font-size="10.00">_type &gt; &gt;</text>
</a>
</g>
</g>
<!-- Node5&#45;&gt;Node6 -->
<g id="edge5" class="edge"><title>Node5&#45;&gt;Node6</title>
<path fill="none" stroke="midnightblue" d="M455.759,-655C466.392,-655 477.33,-655 487.968,-655"/>
<polygon fill="midnightblue" stroke="midnightblue" points="455.679,-651.5 445.679,-655 455.679,-658.5 455.679,-651.5"/>
</g>
<!-- Node9 -->
<g id="node9" class="node"><title>Node9</title>
<g id="a_node9"><a xlink:href="d2/d70/structo2_1_1framework_1_1is__boost__serializable.html" target="_top" xlink:title="o2::framework::is_boost\l_serializable\&lt; Type::value\l_type, boost::archive::binary\l_oarchive \&gt;">
<polygon fill="none" stroke="black" points="310,-503 310,-555 450,-555 450,-503 310,-503"/>
<text text-anchor="start" x="318" y="-543" font-family="Helvetica,sans-Serif" font-size="10.00">o2::framework::is_boost</text>
<text text-anchor="start" x="318" y="-532" font-family="Helvetica,sans-Serif" font-size="10.00">_serializable&lt; Type::value</text>
<text text-anchor="start" x="318" y="-521" font-family="Helvetica,sans-Serif" font-size="10.00">_type, boost::archive::binary</text>
<text text-anchor="middle" x="380" y="-510" font-family="Helvetica,sans-Serif" font-size="10.00">_oarchive &gt;</text>
</a>
</g>
</g>
<!-- Node8&#45;&gt;Node9 -->
<g id="edge8" class="edge"><title>Node8&#45;&gt;Node9</title>
<path fill="none" stroke="midnightblue" d="M260.515,-547.417C276.754,-544.893 293.871,-542.232 309.89,-539.742"/>
<polygon fill="midnightblue" stroke="midnightblue" points="259.878,-543.974 250.535,-548.969 260.953,-550.891 259.878,-543.974"/>
</g>
<!-- Node10 -->
<g id="node10" class="node"><title>Node10</title>
<g id="a_node10"><a xlink:href="de/d5d/structo2_1_1framework_1_1is__boost__serializable_3_01Type_00_01boost_1_1archive_1_1binary__oarch4233b1dc6d06011d10bf67f57517f607.html" target="_top" xlink:title="o2::framework::is_boost\l_serializable\&lt; Type, boost\l::archive::binary_oarchive,\l void_t\&lt; typename Type::value\l_type \&gt; \&gt;">
<polygon fill="none" stroke="black" points="488,-497.5 488,-560.5 640,-560.5 640,-497.5 488,-497.5"/>
<text text-anchor="start" x="496" y="-548.5" font-family="Helvetica,sans-Serif" font-size="10.00">o2::framework::is_boost</text>
<text text-anchor="start" x="496" y="-537.5" font-family="Helvetica,sans-Serif" font-size="10.00">_serializable&lt; Type, boost</text>
<text text-anchor="start" x="496" y="-526.5" font-family="Helvetica,sans-Serif" font-size="10.00">::archive::binary_oarchive,</text>
<text text-anchor="start" x="496" y="-515.5" font-family="Helvetica,sans-Serif" font-size="10.00"> void_t&lt; typename Type::value</text>
<text text-anchor="middle" x="564" y="-504.5" font-family="Helvetica,sans-Serif" font-size="10.00">_type &gt; &gt;</text>
</a>
</g>
</g>
<!-- Node9&#45;&gt;Node10 -->
<g id="edge9" class="edge"><title>Node9&#45;&gt;Node10</title>
<path fill="none" stroke="midnightblue" d="M460.321,-529C469.482,-529 478.804,-529 487.907,-529"/>
<polygon fill="midnightblue" stroke="midnightblue" points="460.066,-525.5 450.066,-529 460.066,-532.5 460.066,-525.5"/>
</g>
</g>
</svg>
