<?xml version="1.0" encoding="UTF-8" standalone="no"?>
<!DOCTYPE svg PUBLIC "-//W3C//DTD SVG 1.1//EN"
 "http://www.w3.org/Graphics/SVG/1.1/DTD/svg11.dtd">
<!-- Generated by graphviz version 2.36.0 (20140111.2315)
 -->
<!-- Title: /home/travis/build/AliceO2Group/AliceO2/Detectors/EMCAL/simulation/src/DigitizerTask.cxx Pages: 1 -->
<svg width="1782pt" height="514pt"
 viewBox="0.00 0.00 1782.00 514.00" xmlns="http://www.w3.org/2000/svg" xmlns:xlink="http://www.w3.org/1999/xlink">
<g id="graph0" class="graph" transform="scale(1 1) rotate(0) translate(4 510)">
<title>/home/travis/build/AliceO2Group/AliceO2/Detectors/EMCAL/simulation/src/DigitizerTask.cxx</title>
<!-- Node1 -->
<g id="node1" class="node"><title>Node1</title>
<polygon fill="#bfbfbf" stroke="black" points="637.5,-453 637.5,-505 784.5,-505 784.5,-453 637.5,-453"/>
<text text-anchor="start" x="645.5" y="-493" font-family="Helvetica,sans-Serif" font-size="10.00">/home/travis/build</text>
<text text-anchor="start" x="645.5" y="-482" font-family="Helvetica,sans-Serif" font-size="10.00">/AliceO2Group/AliceO2</text>
<text text-anchor="start" x="645.5" y="-471" font-family="Helvetica,sans-Serif" font-size="10.00">/Detectors/EMCAL/simulation</text>
<text text-anchor="middle" x="711" y="-460" font-family="Helvetica,sans-Serif" font-size="10.00">/src/DigitizerTask.cxx</text>
</g>
<!-- Node2 -->
<g id="node2" class="node"><title>Node2</title>
<g id="a_node2"><a xlink:href="../../d6/d0e/EMCAL_2simulation_2include_2EMCALSimulation_2DigitizerTask_8h.html" target="_top" xlink:title="EMCALSimulation/Digitizer\lTask.h">
<polygon fill="none" stroke="black" points="418,-385 418,-415 554,-415 554,-385 418,-385"/>
<text text-anchor="start" x="426" y="-403" font-family="Helvetica,sans-Serif" font-size="10.00">EMCALSimulation/Digitizer</text>
<text text-anchor="middle" x="486" y="-392" font-family="Helvetica,sans-Serif" font-size="10.00">Task.h</text>
</a>
</g>
</g>
<!-- Node1&#45;&gt;Node2 -->
<g id="edge1" class="edge"><title>Node1&#45;&gt;Node2</title>
<path fill="none" stroke="midnightblue" d="M637.638,-452.894C604.686,-441.617 566.616,-428.589 536.865,-418.407"/>
<polygon fill="midnightblue" stroke="midnightblue" points="537.709,-414.997 527.114,-415.07 535.442,-421.62 537.709,-414.997"/>
</g>
<!-- Node4 -->
<g id="node4" class="node"><title>Node4</title>
<polygon fill="none" stroke="#bfbfbf" points="323.5,-328.5 323.5,-347.5 386.5,-347.5 386.5,-328.5 323.5,-328.5"/>
<text text-anchor="middle" x="355" y="-335.5" font-family="Helvetica,sans-Serif" font-size="10.00">FairTask.h</text>
</g>
<!-- Node1&#45;&gt;Node4 -->
<g id="edge63" class="edge"><title>Node1&#45;&gt;Node4</title>
<path fill="none" stroke="midnightblue" d="M637.242,-477.806C572.271,-474.349 477.573,-461.01 409,-416 387.092,-401.62 371.429,-375.005 362.791,-357.148"/>
<polygon fill="midnightblue" stroke="midnightblue" points="365.862,-355.447 358.523,-347.806 359.495,-358.356 365.862,-355.447"/>
</g>
<!-- Node5 -->
<g id="node5" class="node"><title>Node5</title>
<polygon fill="none" stroke="#bfbfbf" points="418,-74.5 418,-93.5 474,-93.5 474,-74.5 418,-74.5"/>
<text text-anchor="middle" x="446" y="-81.5" font-family="Helvetica,sans-Serif" font-size="10.00">Rtypes.h</text>
</g>
<!-- Node1&#45;&gt;Node5 -->
<g id="edge64" class="edge"><title>Node1&#45;&gt;Node5</title>
<path fill="none" stroke="midnightblue" d="M637.299,-476.501C566.479,-472.352 458.241,-458.744 375,-416 331.1,-393.458 295,-388.349 295,-339 295,-339 295,-339 295,-219 295,-175.232 315.713,-165.55 348,-136 358.929,-125.997 392.358,-109.493 417.15,-97.9783"/>
<polygon fill="midnightblue" stroke="midnightblue" points="418.869,-101.04 426.494,-93.6832 415.946,-94.6799 418.869,-101.04"/>
</g>
<!-- Node6 -->
<g id="node6" class="node"><title>Node6</title>
<g id="a_node6"><a xlink:href="../../d5/d8b/EMCAL_2base_2include_2EMCALBase_2Hit_8h.html" target="_top" xlink:title="EMCALBase/Hit.h">
<polygon fill="none" stroke="black" points="433,-272.5 433,-291.5 531,-291.5 531,-272.5 433,-272.5"/>
<text text-anchor="middle" x="482" y="-279.5" font-family="Helvetica,sans-Serif" font-size="10.00">EMCALBase/Hit.h</text>
</a>
</g>
</g>
<!-- Node1&#45;&gt;Node6 -->
<g id="edge59" class="edge"><title>Node1&#45;&gt;Node6</title>
<path fill="none" stroke="midnightblue" d="M681.531,-452.906C633.464,-411.976 539.596,-332.045 500.148,-298.454"/>
<polygon fill="midnightblue" stroke="midnightblue" points="502.058,-295.483 492.175,-291.664 497.519,-300.812 502.058,-295.483"/>
</g>
<!-- Node26 -->
<g id="node26" class="node"><title>Node26</title>
<g id="a_node26"><a xlink:href="../../d8/d19/EMCAL_2simulation_2include_2EMCALSimulation_2Digitizer_8h.html" target="_top" xlink:title="EMCALSimulation/Digitizer.h">
<polygon fill="none" stroke="black" points="639,-328.5 639,-347.5 783,-347.5 783,-328.5 639,-328.5"/>
<text text-anchor="middle" x="711" y="-335.5" font-family="Helvetica,sans-Serif" font-size="10.00">EMCALSimulation/Digitizer.h</text>
</a>
</g>
</g>
<!-- Node1&#45;&gt;Node26 -->
<g id="edge60" class="edge"><title>Node1&#45;&gt;Node26</title>
<path fill="none" stroke="midnightblue" d="M711,-452.828C711,-425.408 711,-382.187 711,-357.648"/>
<polygon fill="midnightblue" stroke="midnightblue" points="714.5,-357.532 711,-347.532 707.5,-357.532 714.5,-357.532"/>
</g>
<!-- Node36 -->
<g id="node36" class="node"><title>Node36</title>
<g id="a_node36"><a xlink:href="../../dd/da8/EMCAL_2base_2include_2EMCALBase_2Geometry_8h.html" target="_top" xlink:title="EMCALBase/Geometry.h">
<polygon fill="none" stroke="black" points="1013,-272.5 1013,-291.5 1141,-291.5 1141,-272.5 1013,-272.5"/>
<text text-anchor="middle" x="1077" y="-279.5" font-family="Helvetica,sans-Serif" font-size="10.00">EMCALBase/Geometry.h</text>
</a>
</g>
</g>
<!-- Node1&#45;&gt;Node36 -->
<g id="edge57" class="edge"><title>Node1&#45;&gt;Node36</title>
<path fill="none" stroke="midnightblue" d="M758.099,-452.906C836.536,-411.116 991.283,-328.669 1051.85,-296.399"/>
<polygon fill="midnightblue" stroke="midnightblue" points="1053.56,-299.455 1060.74,-291.664 1050.27,-293.277 1053.56,-299.455"/>
</g>
<!-- Node45 -->
<g id="node45" class="node"><title>Node45</title>
<g id="a_node45"><a xlink:href="../../d5/d5e/GeometryBase_8h.html" target="_top" xlink:title="EMCALBase/GeometryBase.h">
<polygon fill="none" stroke="black" points="1624,-210.5 1624,-229.5 1774,-229.5 1774,-210.5 1624,-210.5"/>
<text text-anchor="middle" x="1699" y="-217.5" font-family="Helvetica,sans-Serif" font-size="10.00">EMCALBase/GeometryBase.h</text>
</a>
</g>
</g>
<!-- Node1&#45;&gt;Node45 -->
<g id="edge58" class="edge"><title>Node1&#45;&gt;Node45</title>
<path fill="none" stroke="midnightblue" d="M784.857,-458.788C979.516,-408.153 1502.17,-272.2 1655.9,-232.21"/>
<polygon fill="midnightblue" stroke="midnightblue" points="1657.11,-235.513 1665.91,-229.608 1655.35,-228.738 1657.11,-235.513"/>
</g>
<!-- Node47 -->
<g id="node47" class="node"><title>Node47</title>
<polygon fill="none" stroke="#bfbfbf" points="1235.5,-390.5 1235.5,-409.5 1306.5,-409.5 1306.5,-390.5 1235.5,-390.5"/>
<text text-anchor="middle" x="1271" y="-397.5" font-family="Helvetica,sans-Serif" font-size="10.00">FairLogger.h</text>
</g>
<!-- Node1&#45;&gt;Node47 -->
<g id="edge61" class="edge"><title>Node1&#45;&gt;Node47</title>
<path fill="none" stroke="midnightblue" d="M784.695,-473.004C884.432,-465.345 1067.56,-448.097 1221,-416 1225.79,-414.997 1230.79,-413.75 1235.69,-412.405"/>
<polygon fill="midnightblue" stroke="midnightblue" points="1236.89,-415.702 1245.52,-409.557 1234.94,-408.978 1236.89,-415.702"/>
</g>
<!-- Node48 -->
<g id="node48" class="node"><title>Node48</title>
<polygon fill="none" stroke="#bfbfbf" points="1325,-390.5 1325,-409.5 1425,-409.5 1425,-390.5 1325,-390.5"/>
<text text-anchor="middle" x="1375" y="-397.5" font-family="Helvetica,sans-Serif" font-size="10.00">FairRootManager.h</text>
</g>
<!-- Node1&#45;&gt;Node48 -->
<g id="edge62" class="edge"><title>Node1&#45;&gt;Node48</title>
<path fill="none" stroke="midnightblue" d="M784.918,-473.821C899.234,-466.594 1125.52,-449.236 1315,-416 1321.32,-414.892 1327.95,-413.485 1334.41,-411.978"/>
<polygon fill="midnightblue" stroke="midnightblue" points="1335.46,-415.325 1344.35,-409.558 1333.8,-408.524 1335.46,-415.325"/>
</g>
<!-- Node3 -->
<g id="node3" class="node"><title>Node3</title>
<polygon fill="none" stroke="#bfbfbf" points="404.5,-328.5 404.5,-347.5 447.5,-347.5 447.5,-328.5 404.5,-328.5"/>
<text text-anchor="middle" x="426" y="-335.5" font-family="Helvetica,sans-Serif" font-size="10.00">cstdio</text>
</g>
<!-- Node2&#45;&gt;Node3 -->
<g id="edge2" class="edge"><title>Node2&#45;&gt;Node3</title>
<path fill="none" stroke="midnightblue" d="M471.781,-384.781C462.792,-375.792 451.162,-364.162 441.873,-354.873"/>
<polygon fill="midnightblue" stroke="midnightblue" points="444.277,-352.327 434.731,-347.731 439.327,-357.277 444.277,-352.327"/>
</g>
<!-- Node2&#45;&gt;Node4 -->
<g id="edge3" class="edge"><title>Node2&#45;&gt;Node4</title>
<path fill="none" stroke="midnightblue" d="M455.286,-384.933C433.382,-374.9 404.167,-361.519 382.922,-351.789"/>
<polygon fill="midnightblue" stroke="midnightblue" points="384.326,-348.582 373.777,-347.6 381.411,-354.946 384.326,-348.582"/>
</g>
<!-- Node2&#45;&gt;Node5 -->
<g id="edge4" class="edge"><title>Node2&#45;&gt;Node5</title>
<path fill="none" stroke="midnightblue" d="M481.988,-384.747C477.317,-369.72 468.6,-345.804 456,-328 420.923,-278.437 379.537,-291.541 355,-236 347.708,-219.494 349.646,-151.268 359,-136 365.923,-124.701 395.078,-108.932 417.752,-97.9305"/>
<polygon fill="midnightblue" stroke="midnightblue" points="419.464,-100.992 426.989,-93.5344 416.456,-94.6714 419.464,-100.992"/>
</g>
<!-- Node2&#45;&gt;Node6 -->
<g id="edge5" class="edge"><title>Node2&#45;&gt;Node6</title>
<path fill="none" stroke="midnightblue" d="M487.998,-384.836C489.739,-370.492 491.735,-347.677 490,-328 489.224,-319.197 487.609,-309.536 486.031,-301.43"/>
<polygon fill="midnightblue" stroke="midnightblue" points="489.444,-300.648 483.987,-291.567 482.59,-302.069 489.444,-300.648"/>
</g>
<!-- Node2&#45;&gt;Node26 -->
<g id="edge26" class="edge"><title>Node2&#45;&gt;Node26</title>
<path fill="none" stroke="midnightblue" d="M538.753,-384.933C578.526,-374.326 632.335,-359.977 669.165,-350.156"/>
<polygon fill="midnightblue" stroke="midnightblue" points="670.317,-353.471 679.077,-347.513 668.513,-346.708 670.317,-353.471"/>
</g>
<!-- Node7 -->
<g id="node7" class="node"><title>Node7</title>
<g id="a_node7"><a xlink:href="../../d4/d25/BaseHits_8h.html" target="_top" xlink:title="SimulationDataFormat\l/BaseHits.h">
<polygon fill="none" stroke="black" points="690,-205 690,-235 804,-235 804,-205 690,-205"/>
<text text-anchor="start" x="698" y="-223" font-family="Helvetica,sans-Serif" font-size="10.00">SimulationDataFormat</text>
<text text-anchor="middle" x="747" y="-212" font-family="Helvetica,sans-Serif" font-size="10.00">/BaseHits.h</text>
</a>
</g>
</g>
<!-- Node6&#45;&gt;Node7 -->
<g id="edge6" class="edge"><title>Node6&#45;&gt;Node7</title>
<path fill="none" stroke="midnightblue" d="M519.687,-272.467C561.349,-263.034 629.275,-247.655 680.043,-236.16"/>
<polygon fill="midnightblue" stroke="midnightblue" points="680.974,-239.538 689.954,-233.916 679.428,-232.711 680.974,-239.538"/>
</g>
<!-- Node19 -->
<g id="node19" class="node"><title>Node19</title>
<g id="a_node19"><a xlink:href="../../d0/d91/ShmAllocator_8h.html" target="_top" xlink:title="CommonUtils/ShmAllocator.h">
<polygon fill="none" stroke="black" points="364,-210.5 364,-229.5 510,-229.5 510,-210.5 364,-210.5"/>
<text text-anchor="middle" x="437" y="-217.5" font-family="Helvetica,sans-Serif" font-size="10.00">CommonUtils/ShmAllocator.h</text>
</a>
</g>
</g>
<!-- Node6&#45;&gt;Node19 -->
<g id="edge19" class="edge"><title>Node6&#45;&gt;Node19</title>
<path fill="none" stroke="midnightblue" d="M475.553,-272.403C468.803,-263.403 458.031,-249.041 449.587,-237.782"/>
<polygon fill="midnightblue" stroke="midnightblue" points="452.235,-235.481 443.435,-229.581 446.635,-239.681 452.235,-235.481"/>
</g>
<!-- Node8 -->
<g id="node8" class="node"><title>Node8</title>
<g id="a_node8"><a xlink:href="../../dd/d76/Cartesian3D_8h.html" target="_top" xlink:title="MathUtils/Cartesian3D.h">
<polygon fill="none" stroke="black" points="914.5,-142.5 914.5,-161.5 1039.5,-161.5 1039.5,-142.5 914.5,-142.5"/>
<text text-anchor="middle" x="977" y="-149.5" font-family="Helvetica,sans-Serif" font-size="10.00">MathUtils/Cartesian3D.h</text>
</a>
</g>
</g>
<!-- Node7&#45;&gt;Node8 -->
<g id="edge7" class="edge"><title>Node7&#45;&gt;Node8</title>
<path fill="none" stroke="midnightblue" d="M796.059,-204.922C838.294,-192.803 898.452,-175.54 937.608,-164.304"/>
<polygon fill="midnightblue" stroke="midnightblue" points="938.684,-167.636 947.331,-161.514 936.753,-160.908 938.684,-167.636"/>
</g>
<!-- Node8&#45;&gt;Node5 -->
<g id="edge13" class="edge"><title>Node8&#45;&gt;Node5</title>
<path fill="none" stroke="midnightblue" d="M917.972,-142.485C901.491,-140.235 883.563,-137.905 867,-136 696.707,-116.415 649.53,-140.632 483,-100 479.934,-99.2519 476.788,-98.2954 473.688,-97.2284"/>
<polygon fill="midnightblue" stroke="midnightblue" points="474.684,-93.8622 464.093,-93.5626 472.186,-100.401 474.684,-93.8622"/>
</g>
<!-- Node9 -->
<g id="node9" class="node"><title>Node9</title>
<polygon fill="none" stroke="#bfbfbf" points="1218.5,-69 1218.5,-99 1369.5,-99 1369.5,-69 1218.5,-69"/>
<text text-anchor="start" x="1226.5" y="-87" font-family="Helvetica,sans-Serif" font-size="10.00">Math/GenVector/Displacement</text>
<text text-anchor="middle" x="1294" y="-76" font-family="Helvetica,sans-Serif" font-size="10.00">Vector3D.h</text>
</g>
<!-- Node8&#45;&gt;Node9 -->
<g id="edge8" class="edge"><title>Node8&#45;&gt;Node9</title>
<path fill="none" stroke="midnightblue" d="M1018.12,-142.439C1068.29,-131.994 1154.15,-114.116 1216.79,-101.074"/>
<polygon fill="midnightblue" stroke="midnightblue" points="1217.56,-104.49 1226.64,-99.0247 1216.14,-97.6366 1217.56,-104.49"/>
</g>
<!-- Node10 -->
<g id="node10" class="node"><title>Node10</title>
<polygon fill="none" stroke="#bfbfbf" points="1388,-74.5 1388,-93.5 1564,-93.5 1564,-74.5 1388,-74.5"/>
<text text-anchor="middle" x="1476" y="-81.5" font-family="Helvetica,sans-Serif" font-size="10.00">Math/GenVector/PositionVector3D.h</text>
</g>
<!-- Node8&#45;&gt;Node10 -->
<g id="edge9" class="edge"><title>Node8&#45;&gt;Node10</title>
<path fill="none" stroke="midnightblue" d="M1039.58,-143.54C1118.53,-134.013 1258.46,-116.747 1378,-100 1388.9,-98.4733 1400.46,-96.7737 1411.68,-95.0827"/>
<polygon fill="midnightblue" stroke="midnightblue" points="1412.5,-98.4987 1421.86,-93.5374 1411.45,-91.578 1412.5,-98.4987"/>
</g>
<!-- Node11 -->
<g id="node11" class="node"><title>Node11</title>
<polygon fill="none" stroke="#bfbfbf" points="555.5,-74.5 555.5,-93.5 704.5,-93.5 704.5,-74.5 555.5,-74.5"/>
<text text-anchor="middle" x="630" y="-81.5" font-family="Helvetica,sans-Serif" font-size="10.00">Math/GenVector/Rotation3D.h</text>
</g>
<!-- Node8&#45;&gt;Node11 -->
<g id="edge10" class="edge"><title>Node8&#45;&gt;Node11</title>
<path fill="none" stroke="midnightblue" d="M933.436,-142.469C922.521,-140.343 910.834,-138.078 900,-136 826.058,-121.815 740.664,-105.736 686.044,-95.4896"/>
<polygon fill="midnightblue" stroke="midnightblue" points="686.351,-91.9863 675.878,-93.5833 685.061,-98.8664 686.351,-91.9863"/>
</g>
<!-- Node12 -->
<g id="node12" class="node"><title>Node12</title>
<polygon fill="none" stroke="#bfbfbf" points="723,-74.5 723,-93.5 879,-93.5 879,-74.5 723,-74.5"/>
<text text-anchor="middle" x="801" y="-81.5" font-family="Helvetica,sans-Serif" font-size="10.00">Math/GenVector/Transform3D.h</text>
</g>
<!-- Node8&#45;&gt;Node12 -->
<g id="edge11" class="edge"><title>Node8&#45;&gt;Node12</title>
<path fill="none" stroke="midnightblue" d="M953.991,-142.372C923.206,-130.827 868.447,-110.293 833.472,-97.1772"/>
<polygon fill="midnightblue" stroke="midnightblue" points="834.328,-93.76 823.736,-93.5259 831.87,-100.314 834.328,-93.76"/>
</g>
<!-- Node13 -->
<g id="node13" class="node"><title>Node13</title>
<polygon fill="none" stroke="#bfbfbf" points="897,-74.5 897,-93.5 1057,-93.5 1057,-74.5 897,-74.5"/>
<text text-anchor="middle" x="977" y="-81.5" font-family="Helvetica,sans-Serif" font-size="10.00">Math/GenVector/Translation3D.h</text>
</g>
<!-- Node8&#45;&gt;Node13 -->
<g id="edge12" class="edge"><title>Node8&#45;&gt;Node13</title>
<path fill="none" stroke="midnightblue" d="M977,-142.372C977,-132.643 977,-116.528 977,-103.85"/>
<polygon fill="midnightblue" stroke="midnightblue" points="980.5,-103.841 977,-93.8411 973.5,-103.841 980.5,-103.841"/>
</g>
<!-- Node14 -->
<g id="node14" class="node"><title>Node14</title>
<polygon fill="none" stroke="#bfbfbf" points="1582,-74.5 1582,-93.5 1658,-93.5 1658,-74.5 1582,-74.5"/>
<text text-anchor="middle" x="1620" y="-81.5" font-family="Helvetica,sans-Serif" font-size="10.00">TGeoMatrix.h</text>
</g>
<!-- Node8&#45;&gt;Node14 -->
<g id="edge14" class="edge"><title>Node8&#45;&gt;Node14</title>
<path fill="none" stroke="midnightblue" d="M1039.72,-150.088C1148.9,-147.513 1380.5,-137.664 1572,-100 1576.78,-99.0597 1581.76,-97.8164 1586.62,-96.4469"/>
<polygon fill="midnightblue" stroke="midnightblue" points="1587.77,-99.7549 1596.34,-93.5154 1585.75,-93.0534 1587.77,-99.7549"/>
</g>
<!-- Node15 -->
<g id="node15" class="node"><title>Node15</title>
<polygon fill="none" stroke="#bfbfbf" points="492.5,-74.5 492.5,-93.5 537.5,-93.5 537.5,-74.5 492.5,-74.5"/>
<text text-anchor="middle" x="515" y="-81.5" font-family="Helvetica,sans-Serif" font-size="10.00">iosfwd</text>
</g>
<!-- Node8&#45;&gt;Node15 -->
<g id="edge15" class="edge"><title>Node8&#45;&gt;Node15</title>
<path fill="none" stroke="midnightblue" d="M936.757,-142.443C924.951,-140.127 911.991,-137.774 900,-136 743.558,-112.857 698.159,-143.097 546,-100 543.803,-99.3778 541.572,-98.6075 539.366,-97.747"/>
<polygon fill="midnightblue" stroke="midnightblue" points="540.592,-94.4616 530.034,-93.578 537.737,-100.853 540.592,-94.4616"/>
</g>
<!-- Node16 -->
<g id="node16" class="node"><title>Node16</title>
<g id="a_node16"><a xlink:href="../../d2/dd0/Cartesian2D_8h.html" target="_top" xlink:title="MathUtils/Cartesian2D.h">
<polygon fill="none" stroke="black" points="1075.5,-74.5 1075.5,-93.5 1200.5,-93.5 1200.5,-74.5 1075.5,-74.5"/>
<text text-anchor="middle" x="1138" y="-81.5" font-family="Helvetica,sans-Serif" font-size="10.00">MathUtils/Cartesian2D.h</text>
</a>
</g>
</g>
<!-- Node8&#45;&gt;Node16 -->
<g id="edge16" class="edge"><title>Node8&#45;&gt;Node16</title>
<path fill="none" stroke="midnightblue" d="M998.048,-142.372C1026.09,-130.877 1075.87,-110.469 1107.88,-97.3465"/>
<polygon fill="midnightblue" stroke="midnightblue" points="1109.28,-100.557 1117.2,-93.5259 1106.62,-94.0805 1109.28,-100.557"/>
</g>
<!-- Node17 -->
<g id="node17" class="node"><title>Node17</title>
<polygon fill="none" stroke="#bfbfbf" points="971.5,-1 971.5,-31 1122.5,-31 1122.5,-1 971.5,-1"/>
<text text-anchor="start" x="979.5" y="-19" font-family="Helvetica,sans-Serif" font-size="10.00">Math/GenVector/Displacement</text>
<text text-anchor="middle" x="1047" y="-8" font-family="Helvetica,sans-Serif" font-size="10.00">Vector2D.h</text>
</g>
<!-- Node16&#45;&gt;Node17 -->
<g id="edge17" class="edge"><title>Node16&#45;&gt;Node17</title>
<path fill="none" stroke="midnightblue" d="M1126.1,-74.3717C1113.22,-65.0286 1092.22,-49.7966 1075.09,-37.375"/>
<polygon fill="midnightblue" stroke="midnightblue" points="1076.7,-34.2194 1066.55,-31.1815 1072.59,-39.8859 1076.7,-34.2194"/>
</g>
<!-- Node18 -->
<g id="node18" class="node"><title>Node18</title>
<polygon fill="none" stroke="#bfbfbf" points="1141,-6.5 1141,-25.5 1317,-25.5 1317,-6.5 1141,-6.5"/>
<text text-anchor="middle" x="1229" y="-13.5" font-family="Helvetica,sans-Serif" font-size="10.00">Math/GenVector/PositionVector2D.h</text>
</g>
<!-- Node16&#45;&gt;Node18 -->
<g id="edge18" class="edge"><title>Node16&#45;&gt;Node18</title>
<path fill="none" stroke="midnightblue" d="M1149.9,-74.3717C1164.88,-63.5015 1190.86,-44.6602 1208.94,-31.5474"/>
<polygon fill="midnightblue" stroke="midnightblue" points="1211.06,-34.3349 1217.1,-25.6305 1206.95,-28.6684 1211.06,-34.3349"/>
</g>
<!-- Node20 -->
<g id="node20" class="node"><title>Node20</title>
<g id="a_node20"><a xlink:href="../../de/d61/ShmManager_8h.html" target="_top" xlink:title="CommonUtils/ShmManager.h">
<polygon fill="none" stroke="black" points="115,-142.5 115,-161.5 261,-161.5 261,-142.5 115,-142.5"/>
<text text-anchor="middle" x="188" y="-149.5" font-family="Helvetica,sans-Serif" font-size="10.00">CommonUtils/ShmManager.h</text>
</a>
</g>
</g>
<!-- Node19&#45;&gt;Node20 -->
<g id="edge20" class="edge"><title>Node19&#45;&gt;Node20</title>
<path fill="none" stroke="midnightblue" d="M404.703,-210.439C360.015,-198.594 279.27,-177.192 229.961,-164.122"/>
<polygon fill="midnightblue" stroke="midnightblue" points="230.803,-160.725 220.24,-161.546 229.009,-167.491 230.803,-160.725"/>
</g>
<!-- Node25 -->
<g id="node25" class="node"><title>Node25</title>
<polygon fill="none" stroke="#bfbfbf" points="368.5,-142.5 368.5,-161.5 417.5,-161.5 417.5,-142.5 368.5,-142.5"/>
<text text-anchor="middle" x="393" y="-149.5" font-family="Helvetica,sans-Serif" font-size="10.00">cassert</text>
</g>
<!-- Node19&#45;&gt;Node25 -->
<g id="edge25" class="edge"><title>Node19&#45;&gt;Node25</title>
<path fill="none" stroke="midnightblue" d="M431.248,-210.372C424.5,-200.25 413.144,-183.215 404.554,-170.331"/>
<polygon fill="midnightblue" stroke="midnightblue" points="407.353,-168.22 398.894,-161.841 401.529,-172.103 407.353,-168.22"/>
</g>
<!-- Node21 -->
<g id="node21" class="node"><title>Node21</title>
<polygon fill="none" stroke="#bfbfbf" points="-0.5,-74.5 -0.5,-93.5 28.5,-93.5 28.5,-74.5 -0.5,-74.5"/>
<text text-anchor="middle" x="14" y="-81.5" font-family="Helvetica,sans-Serif" font-size="10.00">list</text>
</g>
<!-- Node20&#45;&gt;Node21 -->
<g id="edge21" class="edge"><title>Node20&#45;&gt;Node21</title>
<path fill="none" stroke="midnightblue" d="M154.955,-142.444C123.716,-133.756 75.9586,-118.906 37,-100 36.1744,-99.5993 35.3429,-99.1741 34.5111,-98.7303"/>
<polygon fill="midnightblue" stroke="midnightblue" points="36.216,-95.6717 25.8389,-93.5348 32.6185,-101.677 36.216,-95.6717"/>
</g>
<!-- Node22 -->
<g id="node22" class="node"><title>Node22</title>
<polygon fill="none" stroke="#bfbfbf" points="46.5,-74.5 46.5,-93.5 95.5,-93.5 95.5,-74.5 46.5,-74.5"/>
<text text-anchor="middle" x="71" y="-81.5" font-family="Helvetica,sans-Serif" font-size="10.00">cstddef</text>
</g>
<!-- Node20&#45;&gt;Node22 -->
<g id="edge22" class="edge"><title>Node20&#45;&gt;Node22</title>
<path fill="none" stroke="midnightblue" d="M172.704,-142.372C152.997,-131.254 118.509,-111.8 95.2198,-98.6624"/>
<polygon fill="midnightblue" stroke="midnightblue" points="96.7289,-95.4953 86.2995,-93.6305 93.2896,-101.592 96.7289,-95.4953"/>
</g>
<!-- Node23 -->
<g id="node23" class="node"><title>Node23</title>
<polygon fill="none" stroke="#bfbfbf" points="114,-69 114,-99 262,-99 262,-69 114,-69"/>
<text text-anchor="start" x="122" y="-87" font-family="Helvetica,sans-Serif" font-size="10.00">boost/interprocess</text>
<text text-anchor="middle" x="188" y="-76" font-family="Helvetica,sans-Serif" font-size="10.00">/managed_external_buffer.hpp</text>
</g>
<!-- Node20&#45;&gt;Node23 -->
<g id="edge23" class="edge"><title>Node20&#45;&gt;Node23</title>
<path fill="none" stroke="midnightblue" d="M188,-142.372C188,-133.971 188,-120.811 188,-109.213"/>
<polygon fill="midnightblue" stroke="midnightblue" points="191.5,-109.181 188,-99.1815 184.5,-109.181 191.5,-109.181"/>
</g>
<!-- Node24 -->
<g id="node24" class="node"><title>Node24</title>
<polygon fill="none" stroke="#bfbfbf" points="280,-69 280,-99 400,-99 400,-69 280,-69"/>
<text text-anchor="start" x="288" y="-87" font-family="Helvetica,sans-Serif" font-size="10.00">boost/interprocess</text>
<text text-anchor="middle" x="340" y="-76" font-family="Helvetica,sans-Serif" font-size="10.00">/allocators/allocator.hpp</text>
</g>
<!-- Node20&#45;&gt;Node24 -->
<g id="edge24" class="edge"><title>Node20&#45;&gt;Node24</title>
<path fill="none" stroke="midnightblue" d="M207.871,-142.372C230.744,-132.44 268.943,-115.854 298.401,-103.063"/>
<polygon fill="midnightblue" stroke="midnightblue" points="299.849,-106.25 307.628,-99.0562 297.061,-99.8287 299.849,-106.25"/>
</g>
<!-- Node26&#45;&gt;Node5 -->
<g id="edge31" class="edge"><title>Node26&#45;&gt;Node5</title>
<path fill="none" stroke="midnightblue" d="M693.005,-328.365C675.841,-319.872 649.493,-306.153 628,-292 594.434,-269.897 588.153,-261.392 557,-236 539.885,-222.05 536.658,-217.256 519,-204 495.932,-186.683 481.38,-191.742 465,-168 451.716,-148.745 447.595,-121.579 446.385,-103.64"/>
<polygon fill="midnightblue" stroke="midnightblue" points="449.879,-103.427 445.947,-93.5884 442.885,-103.731 449.879,-103.427"/>
</g>
<!-- Node26&#45;&gt;Node6 -->
<g id="edge56" class="edge"><title>Node26&#45;&gt;Node6</title>
<path fill="none" stroke="midnightblue" d="M674.714,-328.444C635.017,-319.083 571.293,-304.056 528.088,-293.868"/>
<polygon fill="midnightblue" stroke="midnightblue" points="528.652,-290.405 518.116,-291.516 527.046,-297.218 528.652,-290.405"/>
</g>
<!-- Node27 -->
<g id="node27" class="node"><title>Node27</title>
<polygon fill="none" stroke="#bfbfbf" points="685,-272.5 685,-291.5 737,-291.5 737,-272.5 685,-272.5"/>
<text text-anchor="middle" x="711" y="-279.5" font-family="Helvetica,sans-Serif" font-size="10.00">memory</text>
</g>
<!-- Node26&#45;&gt;Node27 -->
<g id="edge27" class="edge"><title>Node26&#45;&gt;Node27</title>
<path fill="none" stroke="midnightblue" d="M711,-328.083C711,-321.006 711,-310.861 711,-301.986"/>
<polygon fill="midnightblue" stroke="midnightblue" points="714.5,-301.751 711,-291.751 707.5,-301.751 714.5,-301.751"/>
</g>
<!-- Node28 -->
<g id="node28" class="node"><title>Node28</title>
<polygon fill="none" stroke="#bfbfbf" points="755.5,-272.5 755.5,-291.5 838.5,-291.5 838.5,-272.5 755.5,-272.5"/>
<text text-anchor="middle" x="797" y="-279.5" font-family="Helvetica,sans-Serif" font-size="10.00">unordered_map</text>
</g>
<!-- Node26&#45;&gt;Node28 -->
<g id="edge28" class="edge"><title>Node26&#45;&gt;Node28</title>
<path fill="none" stroke="midnightblue" d="M724.817,-328.324C738.233,-319.9 758.824,-306.971 774.586,-297.074"/>
<polygon fill="midnightblue" stroke="midnightblue" points="776.609,-299.936 783.217,-291.655 772.887,-294.008 776.609,-299.936"/>
</g>
<!-- Node29 -->
<g id="node29" class="node"><title>Node29</title>
<polygon fill="none" stroke="#bfbfbf" points="822,-210.5 822,-229.5 866,-229.5 866,-210.5 822,-210.5"/>
<text text-anchor="middle" x="844" y="-217.5" font-family="Helvetica,sans-Serif" font-size="10.00">vector</text>
</g>
<!-- Node26&#45;&gt;Node29 -->
<g id="edge29" class="edge"><title>Node26&#45;&gt;Node29</title>
<path fill="none" stroke="midnightblue" d="M700.346,-328.477C685.455,-315.532 661.755,-290.472 676,-272 714.446,-222.146 753.944,-257.813 813,-236 814.851,-235.316 816.74,-234.56 818.626,-233.76"/>
<polygon fill="midnightblue" stroke="midnightblue" points="820.207,-236.886 827.848,-229.546 817.297,-230.519 820.207,-236.886"/>
</g>
<!-- Node30 -->
<g id="node30" class="node"><title>Node30</title>
<polygon fill="none" stroke="#bfbfbf" points="856.5,-272.5 856.5,-291.5 899.5,-291.5 899.5,-272.5 856.5,-272.5"/>
<text text-anchor="middle" x="878" y="-279.5" font-family="Helvetica,sans-Serif" font-size="10.00">deque</text>
</g>
<!-- Node26&#45;&gt;Node30 -->
<g id="edge30" class="edge"><title>Node26&#45;&gt;Node30</title>
<path fill="none" stroke="midnightblue" d="M737.462,-328.444C767.172,-318.837 815.337,-303.262 846.843,-293.075"/>
<polygon fill="midnightblue" stroke="midnightblue" points="848.004,-296.378 856.442,-289.971 845.85,-289.718 848.004,-296.378"/>
</g>
<!-- Node31 -->
<g id="node31" class="node"><title>Node31</title>
<polygon fill="none" stroke="#bfbfbf" points="917.5,-272.5 917.5,-291.5 976.5,-291.5 976.5,-272.5 917.5,-272.5"/>
<text text-anchor="middle" x="947" y="-279.5" font-family="Helvetica,sans-Serif" font-size="10.00">TObject.h</text>
</g>
<!-- Node26&#45;&gt;Node31 -->
<g id="edge32" class="edge"><title>Node26&#45;&gt;Node31</title>
<path fill="none" stroke="midnightblue" d="M748.405,-328.482C786.024,-319.909 845.96,-306.235 907.332,-292.15"/>
<polygon fill="midnightblue" stroke="midnightblue" points="908.228,-295.535 917.191,-289.886 906.661,-288.713 908.228,-295.535"/>
</g>
<!-- Node32 -->
<g id="node32" class="node"><title>Node32</title>
<g id="a_node32"><a xlink:href="../../dd/dc7/EMCAL_2base_2include_2EMCALBase_2Digit_8h.html" target="_top" xlink:title="EMCALBase/Digit.h">
<polygon fill="none" stroke="black" points="566.5,-210.5 566.5,-229.5 671.5,-229.5 671.5,-210.5 566.5,-210.5"/>
<text text-anchor="middle" x="619" y="-217.5" font-family="Helvetica,sans-Serif" font-size="10.00">EMCALBase/Digit.h</text>
</a>
</g>
</g>
<!-- Node26&#45;&gt;Node32 -->
<g id="edge33" class="edge"><title>Node26&#45;&gt;Node32</title>
<path fill="none" stroke="midnightblue" d="M691.419,-328.441C676.232,-320.88 655.694,-308.49 643,-292 631.12,-276.569 624.928,-254.912 621.833,-239.584"/>
<polygon fill="midnightblue" stroke="midnightblue" points="625.277,-238.959 620.09,-229.721 618.384,-240.178 625.277,-238.959"/>
</g>
<!-- Node26&#45;&gt;Node36 -->
<g id="edge40" class="edge"><title>Node26&#45;&gt;Node36</title>
<path fill="none" stroke="midnightblue" d="M768.994,-328.444C834.314,-318.806 940.337,-303.163 1009.37,-292.978"/>
<polygon fill="midnightblue" stroke="midnightblue" points="1009.9,-296.439 1019.28,-291.516 1008.87,-289.514 1009.9,-296.439"/>
</g>
<!-- Node26&#45;&gt;Node45 -->
<g id="edge55" class="edge"><title>Node26&#45;&gt;Node45</title>
<path fill="none" stroke="midnightblue" d="M783.052,-336.901C871.147,-335.13 1024.06,-326.685 1150,-292 1170.32,-286.403 1172.64,-277.457 1193,-272 1367.98,-225.097 1419.12,-257.446 1599,-236 1610.98,-234.571 1623.74,-232.828 1636,-231.042"/>
<polygon fill="midnightblue" stroke="midnightblue" points="1636.77,-234.467 1646.14,-229.538 1635.74,-227.542 1636.77,-234.467"/>
</g>
<!-- Node32&#45;&gt;Node5 -->
<g id="edge36" class="edge"><title>Node32&#45;&gt;Node5</title>
<path fill="none" stroke="midnightblue" d="M625.615,-210.216C637.079,-193.848 657.782,-158.321 640,-136 595.393,-80.0073 551.279,-121.517 483,-100 480.364,-99.1693 477.651,-98.2334 474.95,-97.2453"/>
<polygon fill="midnightblue" stroke="midnightblue" points="475.962,-93.884 465.373,-93.5326 473.432,-100.411 475.962,-93.884"/>
</g>
<!-- Node32&#45;&gt;Node15 -->
<g id="edge34" class="edge"><title>Node32&#45;&gt;Node15</title>
<path fill="none" stroke="midnightblue" d="M653.045,-210.464C662.11,-208.273 671.91,-205.978 681,-204 767.005,-185.284 925.667,-201.615 867,-136 819.155,-82.4898 614.962,-119.918 546,-100 543.806,-99.3665 541.578,-98.5882 539.373,-97.7224"/>
<polygon fill="midnightblue" stroke="midnightblue" points="540.601,-94.4376 530.044,-93.5445 537.74,-100.826 540.601,-94.4376"/>
</g>
<!-- Node33 -->
<g id="node33" class="node"><title>Node33</title>
<polygon fill="none" stroke="#bfbfbf" points="474,-142.5 474,-161.5 518,-161.5 518,-142.5 474,-142.5"/>
<text text-anchor="middle" x="496" y="-149.5" font-family="Helvetica,sans-Serif" font-size="10.00">cmath</text>
</g>
<!-- Node32&#45;&gt;Node33 -->
<g id="edge35" class="edge"><title>Node32&#45;&gt;Node33</title>
<path fill="none" stroke="midnightblue" d="M602.92,-210.372C582.109,-199.205 545.622,-179.627 521.136,-166.488"/>
<polygon fill="midnightblue" stroke="midnightblue" points="522.551,-163.275 512.084,-161.63 519.241,-169.443 522.551,-163.275"/>
</g>
<!-- Node34 -->
<g id="node34" class="node"><title>Node34</title>
<g id="a_node34"><a xlink:href="../../df/d5d/common_2include_2CommonDataFormat_2TimeStamp_8h.html" target="_top" xlink:title="CommonDataFormat/TimeStamp.h">
<polygon fill="none" stroke="black" points="688,-142.5 688,-161.5 858,-161.5 858,-142.5 688,-142.5"/>
<text text-anchor="middle" x="773" y="-149.5" font-family="Helvetica,sans-Serif" font-size="10.00">CommonDataFormat/TimeStamp.h</text>
</a>
</g>
</g>
<!-- Node32&#45;&gt;Node34 -->
<g id="edge37" class="edge"><title>Node32&#45;&gt;Node34</title>
<path fill="none" stroke="midnightblue" d="M639.133,-210.372C665.765,-198.958 712.902,-178.756 743.541,-165.625"/>
<polygon fill="midnightblue" stroke="midnightblue" points="745.05,-168.787 752.862,-161.63 742.292,-162.353 745.05,-168.787"/>
</g>
<!-- Node35 -->
<g id="node35" class="node"><title>Node35</title>
<polygon fill="none" stroke="#bfbfbf" points="536.5,-137 536.5,-167 631.5,-167 631.5,-137 536.5,-137"/>
<text text-anchor="start" x="544.5" y="-155" font-family="Helvetica,sans-Serif" font-size="10.00">boost/serialization</text>
<text text-anchor="middle" x="584" y="-144" font-family="Helvetica,sans-Serif" font-size="10.00">/base_object.hpp</text>
</g>
<!-- Node32&#45;&gt;Node35 -->
<g id="edge39" class="edge"><title>Node32&#45;&gt;Node35</title>
<path fill="none" stroke="midnightblue" d="M614.424,-210.372C609.833,-201.714 602.561,-188.001 596.278,-176.152"/>
<polygon fill="midnightblue" stroke="midnightblue" points="599.298,-174.376 591.52,-167.181 593.113,-177.656 599.298,-174.376"/>
</g>
<!-- Node34&#45;&gt;Node5 -->
<g id="edge38" class="edge"><title>Node34&#45;&gt;Node5</title>
<path fill="none" stroke="midnightblue" d="M716.265,-142.48C644.699,-131.479 525.808,-112.292 483,-100 480.189,-99.193 477.3,-98.2445 474.435,-97.2233"/>
<polygon fill="midnightblue" stroke="midnightblue" points="475.523,-93.8918 464.933,-93.5699 473.011,-100.426 475.523,-93.8918"/>
</g>
<!-- Node36&#45;&gt;Node8 -->
<g id="edge54" class="edge"><title>Node36&#45;&gt;Node8</title>
<path fill="none" stroke="midnightblue" d="M1018.13,-272.48C976.519,-265.113 925.935,-252.962 913,-236 894.525,-211.773 927.596,-183.732 952.688,-167.229"/>
<polygon fill="midnightblue" stroke="midnightblue" points="954.867,-169.993 961.461,-161.7 951.135,-164.071 954.867,-169.993"/>
</g>
<!-- Node36&#45;&gt;Node14 -->
<g id="edge46" class="edge"><title>Node36&#45;&gt;Node14</title>
<path fill="none" stroke="midnightblue" d="M1141.27,-272.536C1142.86,-272.352 1144.44,-272.173 1146,-272 1233.16,-262.327 1466,-284.602 1539,-236 1580.87,-208.124 1568.12,-180.27 1592,-136 1598.04,-124.799 1604.92,-112.269 1610.35,-102.432"/>
<polygon fill="midnightblue" stroke="midnightblue" points="1613.43,-104.087 1615.2,-93.6417 1607.3,-100.701 1613.43,-104.087"/>
</g>
<!-- Node36&#45;&gt;Node29 -->
<g id="edge44" class="edge"><title>Node36&#45;&gt;Node29</title>
<path fill="none" stroke="midnightblue" d="M1029.42,-272.492C989.14,-264.73 930.12,-252.037 880,-236 877.429,-235.177 874.785,-234.247 872.154,-233.262"/>
<polygon fill="midnightblue" stroke="midnightblue" points="873.417,-229.998 862.831,-229.555 870.83,-236.503 873.417,-229.998"/>
</g>
<!-- Node37 -->
<g id="node37" class="node"><title>Node37</title>
<polygon fill="none" stroke="#bfbfbf" points="922.5,-210.5 922.5,-229.5 981.5,-229.5 981.5,-210.5 922.5,-210.5"/>
<text text-anchor="middle" x="952" y="-217.5" font-family="Helvetica,sans-Serif" font-size="10.00">exception</text>
</g>
<!-- Node36&#45;&gt;Node37 -->
<g id="edge41" class="edge"><title>Node36&#45;&gt;Node37</title>
<path fill="none" stroke="midnightblue" d="M1059.09,-272.403C1038.11,-262.334 1003.15,-245.552 978.907,-233.915"/>
<polygon fill="midnightblue" stroke="midnightblue" points="980.406,-230.753 969.876,-229.581 977.377,-237.063 980.406,-230.753"/>
</g>
<!-- Node38 -->
<g id="node38" class="node"><title>Node38</title>
<polygon fill="none" stroke="#bfbfbf" points="1600.5,-142.5 1600.5,-161.5 1641.5,-161.5 1641.5,-142.5 1600.5,-142.5"/>
<text text-anchor="middle" x="1621" y="-149.5" font-family="Helvetica,sans-Serif" font-size="10.00">string</text>
</g>
<!-- Node36&#45;&gt;Node38 -->
<g id="edge42" class="edge"><title>Node36&#45;&gt;Node38</title>
<path fill="none" stroke="midnightblue" d="M1141.26,-273.437C1145.91,-272.936 1150.52,-272.451 1155,-272 1247.54,-262.668 1493.29,-285.549 1572,-236 1595.42,-221.258 1609.03,-190.926 1615.73,-171.298"/>
<polygon fill="midnightblue" stroke="midnightblue" points="1619.1,-172.251 1618.76,-161.662 1612.42,-170.151 1619.1,-172.251"/>
</g>
<!-- Node39 -->
<g id="node39" class="node"><title>Node39</title>
<polygon fill="none" stroke="#bfbfbf" points="1000,-210.5 1000,-229.5 1038,-229.5 1038,-210.5 1000,-210.5"/>
<text text-anchor="middle" x="1019" y="-217.5" font-family="Helvetica,sans-Serif" font-size="10.00">tuple</text>
</g>
<!-- Node36&#45;&gt;Node39 -->
<g id="edge43" class="edge"><title>Node36&#45;&gt;Node39</title>
<path fill="none" stroke="midnightblue" d="M1068.69,-272.403C1059.73,-263.136 1045.28,-248.183 1034.26,-236.788"/>
<polygon fill="midnightblue" stroke="midnightblue" points="1036.76,-234.338 1027.29,-229.581 1031.73,-239.203 1036.76,-234.338"/>
</g>
<!-- Node40 -->
<g id="node40" class="node"><title>Node40</title>
<polygon fill="none" stroke="#bfbfbf" points="1056,-210.5 1056,-229.5 1136,-229.5 1136,-210.5 1056,-210.5"/>
<text text-anchor="middle" x="1096" y="-217.5" font-family="Helvetica,sans-Serif" font-size="10.00">RStringView.h</text>
</g>
<!-- Node36&#45;&gt;Node40 -->
<g id="edge45" class="edge"><title>Node36&#45;&gt;Node40</title>
<path fill="none" stroke="midnightblue" d="M1079.72,-272.403C1082.46,-263.76 1086.76,-250.17 1090.26,-239.134"/>
<polygon fill="midnightblue" stroke="midnightblue" points="1093.6,-240.171 1093.28,-229.581 1086.93,-238.057 1093.6,-240.171"/>
</g>
<!-- Node41 -->
<g id="node41" class="node"><title>Node41</title>
<polygon fill="none" stroke="#bfbfbf" points="1154,-210.5 1154,-229.5 1216,-229.5 1216,-210.5 1154,-210.5"/>
<text text-anchor="middle" x="1185" y="-217.5" font-family="Helvetica,sans-Serif" font-size="10.00">TNamed.h</text>
</g>
<!-- Node36&#45;&gt;Node41 -->
<g id="edge47" class="edge"><title>Node36&#45;&gt;Node41</title>
<path fill="none" stroke="midnightblue" d="M1092.47,-272.403C1110.28,-262.512 1139.74,-246.144 1160.63,-234.538"/>
<polygon fill="midnightblue" stroke="midnightblue" points="1162.51,-237.497 1169.55,-229.581 1159.11,-231.378 1162.51,-237.497"/>
</g>
<!-- Node42 -->
<g id="node42" class="node"><title>Node42</title>
<polygon fill="none" stroke="#bfbfbf" points="1234,-210.5 1234,-229.5 1298,-229.5 1298,-210.5 1234,-210.5"/>
<text text-anchor="middle" x="1266" y="-217.5" font-family="Helvetica,sans-Serif" font-size="10.00">TParticle.h</text>
</g>
<!-- Node36&#45;&gt;Node42 -->
<g id="edge48" class="edge"><title>Node36&#45;&gt;Node42</title>
<path fill="none" stroke="midnightblue" d="M1106.41,-272.43C1136.18,-263.654 1183.46,-249.435 1224,-236 1226.92,-235.032 1229.94,-234.004 1232.97,-232.957"/>
<polygon fill="midnightblue" stroke="midnightblue" points="1234.25,-236.219 1242.52,-229.601 1231.92,-229.615 1234.25,-236.219"/>
</g>
<!-- Node43 -->
<g id="node43" class="node"><title>Node43</title>
<polygon fill="none" stroke="#bfbfbf" points="1316.5,-210.5 1316.5,-229.5 1381.5,-229.5 1381.5,-210.5 1316.5,-210.5"/>
<text text-anchor="middle" x="1349" y="-217.5" font-family="Helvetica,sans-Serif" font-size="10.00">TVector3.h</text>
</g>
<!-- Node36&#45;&gt;Node43 -->
<g id="edge49" class="edge"><title>Node36&#45;&gt;Node43</title>
<path fill="none" stroke="midnightblue" d="M1132.84,-272.482C1179.76,-264.754 1248.35,-252.114 1307,-236 1310.39,-235.069 1313.89,-233.997 1317.37,-232.863"/>
<polygon fill="midnightblue" stroke="midnightblue" points="1318.64,-236.127 1326.97,-229.569 1316.37,-229.506 1318.64,-236.127"/>
</g>
<!-- Node44 -->
<g id="node44" class="node"><title>Node44</title>
<g id="a_node44"><a xlink:href="../../d4/d82/Detectors_2EMCAL_2base_2include_2EMCALBase_2Constants_8h.html" target="_top" xlink:title="EMCALBase/Constants.h">
<polygon fill="none" stroke="black" points="1400,-210.5 1400,-229.5 1530,-229.5 1530,-210.5 1400,-210.5"/>
<text text-anchor="middle" x="1465" y="-217.5" font-family="Helvetica,sans-Serif" font-size="10.00">EMCALBase/Constants.h</text>
</a>
</g>
</g>
<!-- Node36&#45;&gt;Node44 -->
<g id="edge50" class="edge"><title>Node36&#45;&gt;Node44</title>
<path fill="none" stroke="midnightblue" d="M1141,-272.839C1204.38,-264.513 1304.11,-250.753 1390,-236 1398,-234.626 1406.46,-233.052 1414.7,-231.453"/>
<polygon fill="midnightblue" stroke="midnightblue" points="1415.46,-234.87 1424.59,-229.502 1414.11,-228.003 1415.46,-234.87"/>
</g>
<!-- Node36&#45;&gt;Node45 -->
<g id="edge51" class="edge"><title>Node36&#45;&gt;Node45</title>
<path fill="none" stroke="midnightblue" d="M1141.25,-273.401C1145.9,-272.908 1150.52,-272.435 1155,-272 1356.9,-252.371 1408.68,-260.881 1610,-236 1620.72,-234.676 1632.11,-232.978 1643.04,-231.203"/>
<polygon fill="midnightblue" stroke="midnightblue" points="1643.63,-234.653 1652.92,-229.56 1642.48,-227.748 1643.63,-234.653"/>
</g>
<!-- Node45&#45;&gt;Node38 -->
<g id="edge53" class="edge"><title>Node45&#45;&gt;Node38</title>
<path fill="none" stroke="midnightblue" d="M1688.8,-210.372C1676.26,-199.758 1654.74,-181.545 1639.3,-168.485"/>
<polygon fill="midnightblue" stroke="midnightblue" points="1641.34,-165.629 1631.45,-161.841 1636.82,-170.972 1641.34,-165.629"/>
</g>
<!-- Node46 -->
<g id="node46" class="node"><title>Node46</title>
<polygon fill="none" stroke="#bfbfbf" points="1673,-142.5 1673,-161.5 1725,-161.5 1725,-142.5 1673,-142.5"/>
<text text-anchor="middle" x="1699" y="-149.5" font-family="Helvetica,sans-Serif" font-size="10.00">sstream</text>
</g>
<!-- Node45&#45;&gt;Node46 -->
<g id="edge52" class="edge"><title>Node45&#45;&gt;Node46</title>
<path fill="none" stroke="midnightblue" d="M1699,-210.372C1699,-200.643 1699,-184.528 1699,-171.85"/>
<polygon fill="midnightblue" stroke="midnightblue" points="1702.5,-171.841 1699,-161.841 1695.5,-171.841 1702.5,-171.841"/>
</g>
</g>
</svg>
