<?xml version="1.0" encoding="UTF-8" standalone="no"?>
<!DOCTYPE svg PUBLIC "-//W3C//DTD SVG 1.1//EN"
 "http://www.w3.org/Graphics/SVG/1.1/DTD/svg11.dtd">
<!-- Generated by graphviz version 2.36.0 (20140111.2315)
 -->
<!-- Title: /home/travis/build/AliceO2Group/AliceO2/Detectors/EMCAL/simulation/src/Digitizer.cxx Pages: 1 -->
<svg width="2542pt" height="458pt"
 viewBox="0.00 0.00 2542.00 458.00" xmlns="http://www.w3.org/2000/svg" xmlns:xlink="http://www.w3.org/1999/xlink">
<g id="graph0" class="graph" transform="scale(1 1) rotate(0) translate(4 454)">
<title>/home/travis/build/AliceO2Group/AliceO2/Detectors/EMCAL/simulation/src/Digitizer.cxx</title>
<!-- Node1 -->
<g id="node1" class="node"><title>Node1</title>
<polygon fill="#bfbfbf" stroke="black" points="1178.5,-397 1178.5,-449 1325.5,-449 1325.5,-397 1178.5,-397"/>
<text text-anchor="start" x="1186.5" y="-437" font-family="Helvetica,sans-Serif" font-size="10.00">/home/travis/build</text>
<text text-anchor="start" x="1186.5" y="-426" font-family="Helvetica,sans-Serif" font-size="10.00">/AliceO2Group/AliceO2</text>
<text text-anchor="start" x="1186.5" y="-415" font-family="Helvetica,sans-Serif" font-size="10.00">/Detectors/EMCAL/simulation</text>
<text text-anchor="middle" x="1252" y="-404" font-family="Helvetica,sans-Serif" font-size="10.00">/src/Digitizer.cxx</text>
</g>
<!-- Node2 -->
<g id="node2" class="node"><title>Node2</title>
<g id="a_node2"><a xlink:href="../../d8/d19/EMCAL_2simulation_2include_2EMCALSimulation_2Digitizer_8h.html" target="_top" xlink:title="EMCALSimulation/Digitizer.h">
<polygon fill="none" stroke="black" points="870,-334.5 870,-353.5 1014,-353.5 1014,-334.5 870,-334.5"/>
<text text-anchor="middle" x="942" y="-341.5" font-family="Helvetica,sans-Serif" font-size="10.00">EMCALSimulation/Digitizer.h</text>
</a>
</g>
</g>
<!-- Node1&#45;&gt;Node2 -->
<g id="edge1" class="edge"><title>Node1&#45;&gt;Node2</title>
<path fill="none" stroke="midnightblue" d="M1178.14,-403.654C1118.33,-388.798 1036.07,-368.365 986.094,-355.952"/>
<polygon fill="midnightblue" stroke="midnightblue" points="986.793,-352.52 976.244,-353.506 985.105,-359.313 986.793,-352.52"/>
</g>
<!-- Node9 -->
<g id="node9" class="node"><title>Node9</title>
<g id="a_node9"><a xlink:href="../../dd/dc7/EMCAL_2base_2include_2EMCALBase_2Digit_8h.html" target="_top" xlink:title="EMCALBase/Digit.h">
<polygon fill="none" stroke="black" points="1051.5,-210.5 1051.5,-229.5 1156.5,-229.5 1156.5,-210.5 1051.5,-210.5"/>
<text text-anchor="middle" x="1104" y="-217.5" font-family="Helvetica,sans-Serif" font-size="10.00">EMCALBase/Digit.h</text>
</a>
</g>
</g>
<!-- Node1&#45;&gt;Node9 -->
<g id="edge52" class="edge"><title>Node1&#45;&gt;Node9</title>
<path fill="none" stroke="midnightblue" d="M1233.55,-396.95C1202.97,-355.41 1142.54,-273.342 1116.46,-237.926"/>
<polygon fill="midnightblue" stroke="midnightblue" points="1119.09,-235.589 1110.34,-229.612 1113.45,-239.739 1119.09,-235.589"/>
</g>
<!-- Node14 -->
<g id="node14" class="node"><title>Node14</title>
<g id="a_node14"><a xlink:href="../../dd/da8/EMCAL_2base_2include_2EMCALBase_2Geometry_8h.html" target="_top" xlink:title="EMCALBase/Geometry.h">
<polygon fill="none" stroke="black" points="546,-272.5 546,-291.5 674,-291.5 674,-272.5 546,-272.5"/>
<text text-anchor="middle" x="610" y="-279.5" font-family="Helvetica,sans-Serif" font-size="10.00">EMCALBase/Geometry.h</text>
</a>
</g>
</g>
<!-- Node1&#45;&gt;Node14 -->
<g id="edge53" class="edge"><title>Node1&#45;&gt;Node14</title>
<path fill="none" stroke="midnightblue" d="M1178.26,-413.446C1099.21,-403.547 970.312,-385.302 861,-360 781.816,-341.672 691.163,-311.518 643.437,-294.905"/>
<polygon fill="midnightblue" stroke="midnightblue" points="644.518,-291.575 633.923,-291.574 642.205,-298.182 644.518,-291.575"/>
</g>
<!-- Node24 -->
<g id="node24" class="node"><title>Node24</title>
<g id="a_node24"><a xlink:href="../../d5/d5e/GeometryBase_8h.html" target="_top" xlink:title="EMCALBase/GeometryBase.h">
<polygon fill="none" stroke="black" points="0,-210.5 0,-229.5 150,-229.5 150,-210.5 0,-210.5"/>
<text text-anchor="middle" x="75" y="-217.5" font-family="Helvetica,sans-Serif" font-size="10.00">EMCALBase/GeometryBase.h</text>
</a>
</g>
</g>
<!-- Node1&#45;&gt;Node24 -->
<g id="edge54" class="edge"><title>Node1&#45;&gt;Node24</title>
<path fill="none" stroke="midnightblue" d="M1178.47,-414.536C1079.8,-404.168 899.242,-383.956 746,-360 586.419,-335.053 547.127,-324.927 389,-292 293.569,-272.128 182.425,-246.378 121.274,-231.983"/>
<polygon fill="midnightblue" stroke="midnightblue" points="121.712,-228.491 111.175,-229.602 120.105,-235.304 121.712,-228.491"/>
</g>
<!-- Node26 -->
<g id="node26" class="node"><title>Node26</title>
<g id="a_node26"><a xlink:href="../../dd/d76/Cartesian3D_8h.html" target="_top" xlink:title="MathUtils/Cartesian3D.h">
<polygon fill="none" stroke="black" points="1448.5,-142.5 1448.5,-161.5 1573.5,-161.5 1573.5,-142.5 1448.5,-142.5"/>
<text text-anchor="middle" x="1511" y="-149.5" font-family="Helvetica,sans-Serif" font-size="10.00">MathUtils/Cartesian3D.h</text>
</a>
</g>
</g>
<!-- Node1&#45;&gt;Node26 -->
<g id="edge56" class="edge"><title>Node1&#45;&gt;Node26</title>
<path fill="none" stroke="midnightblue" d="M1264.57,-396.643C1275.02,-376.874 1291.03,-349.294 1309,-328 1366.35,-260.048 1451.03,-195.766 1489.99,-167.738"/>
<polygon fill="midnightblue" stroke="midnightblue" points="1492.33,-170.368 1498.44,-161.712 1488.27,-164.668 1492.33,-170.368"/>
</g>
<!-- Node35 -->
<g id="node35" class="node"><title>Node35</title>
<g id="a_node35"><a xlink:href="../../d5/d8b/EMCAL_2base_2include_2EMCALBase_2Hit_8h.html" target="_top" xlink:title="EMCALBase/Hit.h">
<polygon fill="none" stroke="black" points="1223,-272.5 1223,-291.5 1321,-291.5 1321,-272.5 1223,-272.5"/>
<text text-anchor="middle" x="1272" y="-279.5" font-family="Helvetica,sans-Serif" font-size="10.00">EMCALBase/Hit.h</text>
</a>
</g>
</g>
<!-- Node1&#45;&gt;Node35 -->
<g id="edge55" class="edge"><title>Node1&#45;&gt;Node35</title>
<path fill="none" stroke="midnightblue" d="M1255.62,-396.828C1259.57,-369.408 1265.79,-326.187 1269.32,-301.648"/>
<polygon fill="midnightblue" stroke="midnightblue" points="1272.81,-301.929 1270.77,-291.532 1265.88,-300.932 1272.81,-301.929"/>
</g>
<!-- Node44 -->
<g id="node44" class="node"><title>Node44</title>
<g id="a_node44"><a xlink:href="../../d7/dcd/MCCompLabel_8h.html" target="_top" xlink:title="SimulationDataFormat\l/MCCompLabel.h">
<polygon fill="none" stroke="black" points="1053,-329 1053,-359 1167,-359 1167,-329 1053,-329"/>
<text text-anchor="start" x="1061" y="-347" font-family="Helvetica,sans-Serif" font-size="10.00">SimulationDataFormat</text>
<text text-anchor="middle" x="1110" y="-336" font-family="Helvetica,sans-Serif" font-size="10.00">/MCCompLabel.h</text>
</a>
</g>
</g>
<!-- Node1&#45;&gt;Node44 -->
<g id="edge57" class="edge"><title>Node1&#45;&gt;Node44</title>
<path fill="none" stroke="midnightblue" d="M1205.5,-396.787C1185.71,-386.056 1163.03,-373.755 1144.74,-363.836"/>
<polygon fill="midnightblue" stroke="midnightblue" points="1146.33,-360.721 1135.87,-359.031 1143,-366.874 1146.33,-360.721"/>
</g>
<!-- Node45 -->
<g id="node45" class="node"><title>Node45</title>
<polygon fill="none" stroke="#bfbfbf" points="1318,-334.5 1318,-353.5 1386,-353.5 1386,-334.5 1318,-334.5"/>
<text text-anchor="middle" x="1352" y="-341.5" font-family="Helvetica,sans-Serif" font-size="10.00">TRandom.h</text>
</g>
<!-- Node1&#45;&gt;Node45 -->
<g id="edge59" class="edge"><title>Node1&#45;&gt;Node45</title>
<path fill="none" stroke="midnightblue" d="M1284.74,-396.787C1300.63,-384.554 1319.17,-370.282 1332.75,-359.821"/>
<polygon fill="midnightblue" stroke="midnightblue" points="1335.1,-362.432 1340.89,-353.558 1330.83,-356.886 1335.1,-362.432"/>
</g>
<!-- Node46 -->
<g id="node46" class="node"><title>Node46</title>
<polygon fill="none" stroke="#bfbfbf" points="1404.5,-334.5 1404.5,-353.5 1449.5,-353.5 1449.5,-334.5 1404.5,-334.5"/>
<text text-anchor="middle" x="1427" y="-341.5" font-family="Helvetica,sans-Serif" font-size="10.00">climits</text>
</g>
<!-- Node1&#45;&gt;Node46 -->
<g id="edge60" class="edge"><title>Node1&#45;&gt;Node46</title>
<path fill="none" stroke="midnightblue" d="M1310.96,-396.896C1336.82,-385.766 1367.5,-372.405 1395,-360 1396.58,-359.289 1398.19,-358.553 1399.82,-357.805"/>
<polygon fill="midnightblue" stroke="midnightblue" points="1401.5,-360.884 1409.1,-353.502 1398.56,-354.534 1401.5,-360.884"/>
</g>
<!-- Node47 -->
<g id="node47" class="node"><title>Node47</title>
<polygon fill="none" stroke="#bfbfbf" points="1467.5,-334.5 1467.5,-353.5 1534.5,-353.5 1534.5,-334.5 1467.5,-334.5"/>
<text text-anchor="middle" x="1501" y="-341.5" font-family="Helvetica,sans-Serif" font-size="10.00">forward_list</text>
</g>
<!-- Node1&#45;&gt;Node47 -->
<g id="edge61" class="edge"><title>Node1&#45;&gt;Node47</title>
<path fill="none" stroke="midnightblue" d="M1325.65,-400.674C1365.05,-389.056 1414.31,-374.189 1458,-360 1461.08,-358.999 1464.28,-357.934 1467.48,-356.85"/>
<polygon fill="midnightblue" stroke="midnightblue" points="1468.64,-360.154 1476.96,-353.594 1466.36,-353.534 1468.64,-360.154"/>
</g>
<!-- Node48 -->
<g id="node48" class="node"><title>Node48</title>
<polygon fill="none" stroke="#bfbfbf" points="1552.5,-334.5 1552.5,-353.5 1623.5,-353.5 1623.5,-334.5 1552.5,-334.5"/>
<text text-anchor="middle" x="1588" y="-341.5" font-family="Helvetica,sans-Serif" font-size="10.00">FairLogger.h</text>
</g>
<!-- Node1&#45;&gt;Node48 -->
<g id="edge62" class="edge"><title>Node1&#45;&gt;Node48</title>
<path fill="none" stroke="midnightblue" d="M1325.8,-408.644C1384.95,-397.371 1469.86,-379.915 1543,-360 1546.63,-359.012 1550.4,-357.898 1554.14,-356.736"/>
<polygon fill="midnightblue" stroke="midnightblue" points="1555.42,-360 1563.86,-353.597 1553.27,-353.338 1555.42,-360"/>
</g>
<!-- Node3 -->
<g id="node3" class="node"><title>Node3</title>
<polygon fill="none" stroke="#bfbfbf" points="970,-272.5 970,-291.5 1022,-291.5 1022,-272.5 970,-272.5"/>
<text text-anchor="middle" x="996" y="-279.5" font-family="Helvetica,sans-Serif" font-size="10.00">memory</text>
</g>
<!-- Node2&#45;&gt;Node3 -->
<g id="edge2" class="edge"><title>Node2&#45;&gt;Node3</title>
<path fill="none" stroke="midnightblue" d="M949.737,-334.403C957.997,-325.225 971.277,-310.47 981.494,-299.117"/>
<polygon fill="midnightblue" stroke="midnightblue" points="984.189,-301.355 988.277,-291.581 978.986,-296.672 984.189,-301.355"/>
</g>
<!-- Node4 -->
<g id="node4" class="node"><title>Node4</title>
<polygon fill="none" stroke="#bfbfbf" points="830.5,-272.5 830.5,-291.5 913.5,-291.5 913.5,-272.5 830.5,-272.5"/>
<text text-anchor="middle" x="872" y="-279.5" font-family="Helvetica,sans-Serif" font-size="10.00">unordered_map</text>
</g>
<!-- Node2&#45;&gt;Node4 -->
<g id="edge3" class="edge"><title>Node2&#45;&gt;Node4</title>
<path fill="none" stroke="midnightblue" d="M931.971,-334.403C920.951,-324.958 903.04,-309.606 889.657,-298.134"/>
<polygon fill="midnightblue" stroke="midnightblue" points="891.881,-295.431 882.011,-291.581 887.325,-300.746 891.881,-295.431"/>
</g>
<!-- Node5 -->
<g id="node5" class="node"><title>Node5</title>
<polygon fill="none" stroke="#bfbfbf" points="870,-210.5 870,-229.5 914,-229.5 914,-210.5 870,-210.5"/>
<text text-anchor="middle" x="892" y="-217.5" font-family="Helvetica,sans-Serif" font-size="10.00">vector</text>
</g>
<!-- Node2&#45;&gt;Node5 -->
<g id="edge4" class="edge"><title>Node2&#45;&gt;Node5</title>
<path fill="none" stroke="midnightblue" d="M969.605,-334.492C1002.5,-322.865 1050.69,-300.198 1031,-272 1007.03,-237.674 957.297,-226.382 924.284,-222.709"/>
<polygon fill="midnightblue" stroke="midnightblue" points="924.491,-219.213 914.208,-221.765 923.837,-226.183 924.491,-219.213"/>
</g>
<!-- Node6 -->
<g id="node6" class="node"><title>Node6</title>
<polygon fill="none" stroke="#bfbfbf" points="692.5,-272.5 692.5,-291.5 735.5,-291.5 735.5,-272.5 692.5,-272.5"/>
<text text-anchor="middle" x="714" y="-279.5" font-family="Helvetica,sans-Serif" font-size="10.00">deque</text>
</g>
<!-- Node2&#45;&gt;Node6 -->
<g id="edge5" class="edge"><title>Node2&#45;&gt;Node6</title>
<path fill="none" stroke="midnightblue" d="M907.195,-334.476C869.577,-325.165 807.631,-309.554 745.56,-292.363"/>
<polygon fill="midnightblue" stroke="midnightblue" points="746.173,-288.9 735.601,-289.591 744.296,-295.644 746.173,-288.9"/>
</g>
<!-- Node7 -->
<g id="node7" class="node"><title>Node7</title>
<polygon fill="none" stroke="#bfbfbf" points="971,-74.5 971,-93.5 1027,-93.5 1027,-74.5 971,-74.5"/>
<text text-anchor="middle" x="999" y="-81.5" font-family="Helvetica,sans-Serif" font-size="10.00">Rtypes.h</text>
</g>
<!-- Node2&#45;&gt;Node7 -->
<g id="edge6" class="edge"><title>Node2&#45;&gt;Node7</title>
<path fill="none" stroke="midnightblue" d="M941.626,-334.405C940.649,-305.453 939.704,-209.203 966,-136 970.431,-123.665 978.337,-111.287 985.3,-101.814"/>
<polygon fill="midnightblue" stroke="midnightblue" points="988.208,-103.775 991.543,-93.7192 982.665,-99.5008 988.208,-103.775"/>
</g>
<!-- Node8 -->
<g id="node8" class="node"><title>Node8</title>
<polygon fill="none" stroke="#bfbfbf" points="753.5,-272.5 753.5,-291.5 812.5,-291.5 812.5,-272.5 753.5,-272.5"/>
<text text-anchor="middle" x="783" y="-279.5" font-family="Helvetica,sans-Serif" font-size="10.00">TObject.h</text>
</g>
<!-- Node2&#45;&gt;Node8 -->
<g id="edge7" class="edge"><title>Node2&#45;&gt;Node8</title>
<path fill="none" stroke="midnightblue" d="M919.219,-334.403C891.945,-324.111 846.087,-306.806 815.199,-295.15"/>
<polygon fill="midnightblue" stroke="midnightblue" points="816.33,-291.837 805.739,-291.581 813.859,-298.386 816.33,-291.837"/>
</g>
<!-- Node2&#45;&gt;Node9 -->
<g id="edge8" class="edge"><title>Node2&#45;&gt;Node9</title>
<path fill="none" stroke="midnightblue" d="M967.83,-334.366C990.519,-325.942 1023.62,-311.542 1048,-292 1066.87,-276.876 1083.3,-254.248 1093.4,-238.621"/>
<polygon fill="midnightblue" stroke="midnightblue" points="1096.51,-240.261 1098.84,-229.926 1090.57,-236.551 1096.51,-240.261"/>
</g>
<!-- Node2&#45;&gt;Node14 -->
<g id="edge15" class="edge"><title>Node2&#45;&gt;Node14</title>
<path fill="none" stroke="midnightblue" d="M894.785,-334.467C834.799,-323.626 731.356,-304.932 667.028,-293.306"/>
<polygon fill="midnightblue" stroke="midnightblue" points="667.515,-289.838 657.052,-291.503 666.27,-296.726 667.515,-289.838"/>
</g>
<!-- Node2&#45;&gt;Node24 -->
<g id="edge41" class="edge"><title>Node2&#45;&gt;Node24</title>
<path fill="none" stroke="midnightblue" d="M870.608,-334.487C789.65,-324.723 653.727,-307.994 537,-292 368.739,-268.945 326.613,-263.375 159,-236 150.088,-234.545 140.659,-232.932 131.462,-231.319"/>
<polygon fill="midnightblue" stroke="midnightblue" points="132.067,-227.872 121.611,-229.577 130.848,-234.765 132.067,-227.872"/>
</g>
<!-- Node2&#45;&gt;Node35 -->
<g id="edge42" class="edge"><title>Node2&#45;&gt;Node35</title>
<path fill="none" stroke="midnightblue" d="M988.93,-334.467C1048.55,-323.626 1151.37,-304.932 1215.32,-293.306"/>
<polygon fill="midnightblue" stroke="midnightblue" points="1216.02,-296.736 1225.23,-291.503 1214.77,-289.849 1216.02,-296.736"/>
</g>
<!-- Node9&#45;&gt;Node7 -->
<g id="edge11" class="edge"><title>Node9&#45;&gt;Node7</title>
<path fill="none" stroke="midnightblue" d="M1088.69,-210.4C1073.85,-201.428 1051.52,-186.15 1037,-168 1021.26,-148.324 1010.41,-121.071 1004.45,-103.244"/>
<polygon fill="midnightblue" stroke="midnightblue" points="1007.73,-101.992 1001.37,-93.5137 1001.05,-104.104 1007.73,-101.992"/>
</g>
<!-- Node10 -->
<g id="node10" class="node"><title>Node10</title>
<polygon fill="none" stroke="#bfbfbf" points="1045.5,-74.5 1045.5,-93.5 1090.5,-93.5 1090.5,-74.5 1045.5,-74.5"/>
<text text-anchor="middle" x="1068" y="-81.5" font-family="Helvetica,sans-Serif" font-size="10.00">iosfwd</text>
</g>
<!-- Node9&#45;&gt;Node10 -->
<g id="edge9" class="edge"><title>Node9&#45;&gt;Node10</title>
<path fill="none" stroke="midnightblue" d="M1140.07,-210.472C1150.06,-208.234 1160.93,-205.913 1171,-204 1275.72,-184.103 1471.76,-215.725 1401,-136 1356.28,-85.6162 1164.77,-118.532 1100,-100 1097.66,-99.3307 1095.28,-98.5087 1092.92,-97.5976"/>
<polygon fill="midnightblue" stroke="midnightblue" points="1094.13,-94.3053 1083.56,-93.5119 1091.33,-100.721 1094.13,-94.3053"/>
</g>
<!-- Node11 -->
<g id="node11" class="node"><title>Node11</title>
<polygon fill="none" stroke="#bfbfbf" points="1046,-142.5 1046,-161.5 1090,-161.5 1090,-142.5 1046,-142.5"/>
<text text-anchor="middle" x="1068" y="-149.5" font-family="Helvetica,sans-Serif" font-size="10.00">cmath</text>
</g>
<!-- Node9&#45;&gt;Node11 -->
<g id="edge10" class="edge"><title>Node9&#45;&gt;Node11</title>
<path fill="none" stroke="midnightblue" d="M1099.29,-210.372C1093.83,-200.348 1084.66,-183.546 1077.66,-170.708"/>
<polygon fill="midnightblue" stroke="midnightblue" points="1080.68,-168.944 1072.82,-161.841 1074.54,-172.296 1080.68,-168.944"/>
</g>
<!-- Node12 -->
<g id="node12" class="node"><title>Node12</title>
<g id="a_node12"><a xlink:href="../../df/d5d/common_2include_2CommonDataFormat_2TimeStamp_8h.html" target="_top" xlink:title="CommonDataFormat/TimeStamp.h">
<polygon fill="none" stroke="black" points="1222,-142.5 1222,-161.5 1392,-161.5 1392,-142.5 1222,-142.5"/>
<text text-anchor="middle" x="1307" y="-149.5" font-family="Helvetica,sans-Serif" font-size="10.00">CommonDataFormat/TimeStamp.h</text>
</a>
</g>
</g>
<!-- Node9&#45;&gt;Node12 -->
<g id="edge12" class="edge"><title>Node9&#45;&gt;Node12</title>
<path fill="none" stroke="midnightblue" d="M1130.54,-210.372C1166.5,-198.679 1230.84,-177.762 1271.09,-164.674"/>
<polygon fill="midnightblue" stroke="midnightblue" points="1272.35,-167.946 1280.78,-161.526 1270.18,-161.289 1272.35,-167.946"/>
</g>
<!-- Node13 -->
<g id="node13" class="node"><title>Node13</title>
<polygon fill="none" stroke="#bfbfbf" points="1108.5,-137 1108.5,-167 1203.5,-167 1203.5,-137 1108.5,-137"/>
<text text-anchor="start" x="1116.5" y="-155" font-family="Helvetica,sans-Serif" font-size="10.00">boost/serialization</text>
<text text-anchor="middle" x="1156" y="-144" font-family="Helvetica,sans-Serif" font-size="10.00">/base_object.hpp</text>
</g>
<!-- Node9&#45;&gt;Node13 -->
<g id="edge14" class="edge"><title>Node9&#45;&gt;Node13</title>
<path fill="none" stroke="midnightblue" d="M1110.8,-210.372C1117.82,-201.457 1129.07,-187.182 1138.59,-175.101"/>
<polygon fill="midnightblue" stroke="midnightblue" points="1141.39,-177.202 1144.83,-167.181 1135.89,-172.87 1141.39,-177.202"/>
</g>
<!-- Node12&#45;&gt;Node7 -->
<g id="edge13" class="edge"><title>Node12&#45;&gt;Node7</title>
<path fill="none" stroke="midnightblue" d="M1254.85,-142.458C1188.07,-131.3 1076.19,-111.801 1036,-100 1033.19,-99.1762 1030.31,-98.2165 1027.45,-97.1882"/>
<polygon fill="midnightblue" stroke="midnightblue" points="1028.54,-93.8575 1017.95,-93.5249 1026.02,-100.389 1028.54,-93.8575"/>
</g>
<!-- Node14&#45;&gt;Node5 -->
<g id="edge19" class="edge"><title>Node14&#45;&gt;Node5</title>
<path fill="none" stroke="midnightblue" d="M668.014,-272.477C730.602,-262.949 825.999,-247.367 861,-236 862.919,-235.377 864.871,-234.657 866.814,-233.877"/>
<polygon fill="midnightblue" stroke="midnightblue" points="868.562,-236.929 876.256,-229.645 865.699,-230.541 868.562,-236.929"/>
</g>
<!-- Node15 -->
<g id="node15" class="node"><title>Node15</title>
<polygon fill="none" stroke="#bfbfbf" points="600.5,-210.5 600.5,-229.5 659.5,-229.5 659.5,-210.5 600.5,-210.5"/>
<text text-anchor="middle" x="630" y="-217.5" font-family="Helvetica,sans-Serif" font-size="10.00">exception</text>
</g>
<!-- Node14&#45;&gt;Node15 -->
<g id="edge16" class="edge"><title>Node14&#45;&gt;Node15</title>
<path fill="none" stroke="midnightblue" d="M612.866,-272.403C615.747,-263.76 620.277,-250.17 623.955,-239.134"/>
<polygon fill="midnightblue" stroke="midnightblue" points="627.298,-240.174 627.14,-229.581 620.657,-237.961 627.298,-240.174"/>
</g>
<!-- Node16 -->
<g id="node16" class="node"><title>Node16</title>
<polygon fill="none" stroke="#bfbfbf" points="335.5,-142.5 335.5,-161.5 376.5,-161.5 376.5,-142.5 335.5,-142.5"/>
<text text-anchor="middle" x="356" y="-149.5" font-family="Helvetica,sans-Serif" font-size="10.00">string</text>
</g>
<!-- Node14&#45;&gt;Node16 -->
<g id="edge17" class="edge"><title>Node14&#45;&gt;Node16</title>
<path fill="none" stroke="midnightblue" d="M606.058,-272.317C598.299,-256.241 579.474,-221.858 553,-204 501.514,-169.27 427.845,-158.189 386.736,-154.654"/>
<polygon fill="midnightblue" stroke="midnightblue" points="386.771,-151.147 376.534,-153.876 386.239,-158.127 386.771,-151.147"/>
</g>
<!-- Node17 -->
<g id="node17" class="node"><title>Node17</title>
<polygon fill="none" stroke="#bfbfbf" points="716,-210.5 716,-229.5 754,-229.5 754,-210.5 716,-210.5"/>
<text text-anchor="middle" x="735" y="-217.5" font-family="Helvetica,sans-Serif" font-size="10.00">tuple</text>
</g>
<!-- Node14&#45;&gt;Node17 -->
<g id="edge18" class="edge"><title>Node14&#45;&gt;Node17</title>
<path fill="none" stroke="midnightblue" d="M627.909,-272.403C648.887,-262.334 683.85,-245.552 708.093,-233.915"/>
<polygon fill="midnightblue" stroke="midnightblue" points="709.623,-237.063 717.124,-229.581 706.594,-230.753 709.623,-237.063"/>
</g>
<!-- Node18 -->
<g id="node18" class="node"><title>Node18</title>
<polygon fill="none" stroke="#bfbfbf" points="772,-210.5 772,-229.5 852,-229.5 852,-210.5 772,-210.5"/>
<text text-anchor="middle" x="812" y="-217.5" font-family="Helvetica,sans-Serif" font-size="10.00">RStringView.h</text>
</g>
<!-- Node14&#45;&gt;Node18 -->
<g id="edge20" class="edge"><title>Node14&#45;&gt;Node18</title>
<path fill="none" stroke="midnightblue" d="M639.36,-272.469C670.181,-263.489 720.039,-248.893 763,-236 766.775,-234.867 770.71,-233.677 774.638,-232.484"/>
<polygon fill="midnightblue" stroke="midnightblue" points="775.744,-235.806 784.288,-229.541 773.702,-229.11 775.744,-235.806"/>
</g>
<!-- Node19 -->
<g id="node19" class="node"><title>Node19</title>
<polygon fill="none" stroke="#bfbfbf" points="754,-74.5 754,-93.5 830,-93.5 830,-74.5 754,-74.5"/>
<text text-anchor="middle" x="792" y="-81.5" font-family="Helvetica,sans-Serif" font-size="10.00">TGeoMatrix.h</text>
</g>
<!-- Node14&#45;&gt;Node19 -->
<g id="edge21" class="edge"><title>Node14&#45;&gt;Node19</title>
<path fill="none" stroke="midnightblue" d="M622.645,-272.438C634.855,-263.891 653.565,-250.04 668,-236 713.638,-191.608 759.009,-131.144 779.973,-102.035"/>
<polygon fill="midnightblue" stroke="midnightblue" points="782.928,-103.919 785.891,-93.7464 777.232,-99.851 782.928,-103.919"/>
</g>
<!-- Node20 -->
<g id="node20" class="node"><title>Node20</title>
<polygon fill="none" stroke="#bfbfbf" points="168,-210.5 168,-229.5 230,-229.5 230,-210.5 168,-210.5"/>
<text text-anchor="middle" x="199" y="-217.5" font-family="Helvetica,sans-Serif" font-size="10.00">TNamed.h</text>
</g>
<!-- Node14&#45;&gt;Node20 -->
<g id="edge22" class="edge"><title>Node14&#45;&gt;Node20</title>
<path fill="none" stroke="midnightblue" d="M545.824,-277.858C471.195,-273.14 344.726,-261.844 239,-236 235.582,-235.165 232.058,-234.124 228.583,-232.982"/>
<polygon fill="midnightblue" stroke="midnightblue" points="229.649,-229.646 219.054,-229.586 227.299,-236.24 229.649,-229.646"/>
</g>
<!-- Node21 -->
<g id="node21" class="node"><title>Node21</title>
<polygon fill="none" stroke="#bfbfbf" points="248,-210.5 248,-229.5 312,-229.5 312,-210.5 248,-210.5"/>
<text text-anchor="middle" x="280" y="-217.5" font-family="Helvetica,sans-Serif" font-size="10.00">TParticle.h</text>
</g>
<!-- Node14&#45;&gt;Node21 -->
<g id="edge23" class="edge"><title>Node14&#45;&gt;Node21</title>
<path fill="none" stroke="midnightblue" d="M545.843,-274.667C486.789,-267.978 397.086,-255.639 321,-236 317.594,-235.121 314.076,-234.068 310.598,-232.932"/>
<polygon fill="midnightblue" stroke="midnightblue" points="311.624,-229.583 301.029,-229.591 309.316,-236.192 311.624,-229.583"/>
</g>
<!-- Node22 -->
<g id="node22" class="node"><title>Node22</title>
<polygon fill="none" stroke="#bfbfbf" points="330.5,-210.5 330.5,-229.5 395.5,-229.5 395.5,-210.5 330.5,-210.5"/>
<text text-anchor="middle" x="363" y="-217.5" font-family="Helvetica,sans-Serif" font-size="10.00">TVector3.h</text>
</g>
<!-- Node14&#45;&gt;Node22 -->
<g id="edge24" class="edge"><title>Node14&#45;&gt;Node22</title>
<path fill="none" stroke="midnightblue" d="M563.171,-272.479C521.344,-264.452 458.585,-251.383 405,-236 401.8,-235.081 398.49,-234.048 395.197,-232.965"/>
<polygon fill="midnightblue" stroke="midnightblue" points="396.093,-229.571 385.498,-229.628 393.816,-236.191 396.093,-229.571"/>
</g>
<!-- Node23 -->
<g id="node23" class="node"><title>Node23</title>
<g id="a_node23"><a xlink:href="../../d4/d82/Detectors_2EMCAL_2base_2include_2EMCALBase_2Constants_8h.html" target="_top" xlink:title="EMCALBase/Constants.h">
<polygon fill="none" stroke="black" points="414,-210.5 414,-229.5 544,-229.5 544,-210.5 414,-210.5"/>
<text text-anchor="middle" x="479" y="-217.5" font-family="Helvetica,sans-Serif" font-size="10.00">EMCALBase/Constants.h</text>
</a>
</g>
</g>
<!-- Node14&#45;&gt;Node23 -->
<g id="edge25" class="edge"><title>Node14&#45;&gt;Node23</title>
<path fill="none" stroke="midnightblue" d="M591.231,-272.403C569.149,-262.29 532.281,-245.404 506.861,-233.761"/>
<polygon fill="midnightblue" stroke="midnightblue" points="508.284,-230.563 497.734,-229.581 505.369,-236.927 508.284,-230.563"/>
</g>
<!-- Node14&#45;&gt;Node24 -->
<g id="edge26" class="edge"><title>Node14&#45;&gt;Node24</title>
<path fill="none" stroke="midnightblue" d="M545.958,-276.177C458.36,-269.223 296.367,-255.089 159,-236 149.206,-234.639 138.808,-232.968 128.788,-231.241"/>
<polygon fill="midnightblue" stroke="midnightblue" points="129.385,-227.792 118.929,-229.505 128.171,-234.686 129.385,-227.792"/>
</g>
<!-- Node14&#45;&gt;Node26 -->
<g id="edge29" class="edge"><title>Node14&#45;&gt;Node26</title>
<path fill="none" stroke="midnightblue" d="M674.075,-272.923C677.09,-272.599 680.077,-272.289 683,-272 789.888,-261.426 1065.29,-275.924 1165,-236 1185.81,-227.666 1183.57,-213.245 1204,-204 1293.86,-163.327 1325.71,-184.287 1423,-168 1432.09,-166.478 1441.71,-164.853 1451.12,-163.256"/>
<polygon fill="midnightblue" stroke="midnightblue" points="1451.94,-166.666 1461.21,-161.539 1450.77,-159.766 1451.94,-166.666"/>
</g>
<!-- Node24&#45;&gt;Node16 -->
<g id="edge28" class="edge"><title>Node24&#45;&gt;Node16</title>
<path fill="none" stroke="midnightblue" d="M111.448,-210.439C167.297,-197.322 273.05,-172.483 325.258,-160.22"/>
<polygon fill="midnightblue" stroke="midnightblue" points="326.318,-163.567 335.253,-157.873 324.717,-156.752 326.318,-163.567"/>
</g>
<!-- Node25 -->
<g id="node25" class="node"><title>Node25</title>
<polygon fill="none" stroke="#bfbfbf" points="49,-142.5 49,-161.5 101,-161.5 101,-142.5 49,-142.5"/>
<text text-anchor="middle" x="75" y="-149.5" font-family="Helvetica,sans-Serif" font-size="10.00">sstream</text>
</g>
<!-- Node24&#45;&gt;Node25 -->
<g id="edge27" class="edge"><title>Node24&#45;&gt;Node25</title>
<path fill="none" stroke="midnightblue" d="M75,-210.372C75,-200.643 75,-184.528 75,-171.85"/>
<polygon fill="midnightblue" stroke="midnightblue" points="78.5001,-171.841 75,-161.841 71.5001,-171.841 78.5001,-171.841"/>
</g>
<!-- Node26&#45;&gt;Node7 -->
<g id="edge35" class="edge"><title>Node26&#45;&gt;Node7</title>
<path fill="none" stroke="midnightblue" d="M1451.68,-142.499C1435.28,-140.261 1417.46,-137.934 1401,-136 1239.1,-116.984 1194.27,-139.022 1036,-100 1032.94,-99.2445 1029.79,-98.2833 1026.69,-97.2133"/>
<polygon fill="midnightblue" stroke="midnightblue" points="1027.69,-93.8474 1017.1,-93.5442 1025.19,-100.386 1027.69,-93.8474"/>
</g>
<!-- Node26&#45;&gt;Node10 -->
<g id="edge37" class="edge"><title>Node26&#45;&gt;Node10</title>
<path fill="none" stroke="midnightblue" d="M1470.75,-142.489C1458.94,-140.174 1445.99,-137.81 1434,-136 1286.37,-113.706 1243.78,-140.235 1100,-100 1097.66,-99.3443 1095.27,-98.5318 1092.91,-97.6268"/>
<polygon fill="midnightblue" stroke="midnightblue" points="1094.12,-94.334 1083.55,-93.5508 1091.32,-100.752 1094.12,-94.334"/>
</g>
<!-- Node26&#45;&gt;Node19 -->
<g id="edge36" class="edge"><title>Node26&#45;&gt;Node19</title>
<path fill="none" stroke="midnightblue" d="M1452.84,-142.476C1436.13,-140.187 1417.86,-137.84 1401,-136 1206.39,-114.767 1157.06,-116.603 962,-100 920.932,-96.5044 874.299,-92.3786 840.276,-89.3397"/>
<polygon fill="midnightblue" stroke="midnightblue" points="840.414,-85.8381 830.141,-88.4333 839.79,-92.8103 840.414,-85.8381"/>
</g>
<!-- Node27 -->
<g id="node27" class="node"><title>Node27</title>
<polygon fill="none" stroke="#bfbfbf" points="1965.5,-69 1965.5,-99 2116.5,-99 2116.5,-69 1965.5,-69"/>
<text text-anchor="start" x="1973.5" y="-87" font-family="Helvetica,sans-Serif" font-size="10.00">Math/GenVector/Displacement</text>
<text text-anchor="middle" x="2041" y="-76" font-family="Helvetica,sans-Serif" font-size="10.00">Vector3D.h</text>
</g>
<!-- Node26&#45;&gt;Node27 -->
<g id="edge30" class="edge"><title>Node26&#45;&gt;Node27</title>
<path fill="none" stroke="midnightblue" d="M1573.8,-145.013C1658.09,-136.708 1812.71,-120.53 1955.25,-100.051"/>
<polygon fill="midnightblue" stroke="midnightblue" points="1956.1,-103.465 1965.49,-98.5691 1955.1,-96.5374 1956.1,-103.465"/>
</g>
<!-- Node28 -->
<g id="node28" class="node"><title>Node28</title>
<polygon fill="none" stroke="#bfbfbf" points="1109,-74.5 1109,-93.5 1285,-93.5 1285,-74.5 1109,-74.5"/>
<text text-anchor="middle" x="1197" y="-81.5" font-family="Helvetica,sans-Serif" font-size="10.00">Math/GenVector/PositionVector3D.h</text>
</g>
<!-- Node26&#45;&gt;Node28 -->
<g id="edge31" class="edge"><title>Node26&#45;&gt;Node28</title>
<path fill="none" stroke="midnightblue" d="M1470.27,-142.439C1413.21,-130.446 1309.54,-108.654 1247.6,-95.6351"/>
<polygon fill="midnightblue" stroke="midnightblue" points="1248.16,-92.1774 1237.66,-93.5455 1246.72,-99.0277 1248.16,-92.1774"/>
</g>
<!-- Node29 -->
<g id="node29" class="node"><title>Node29</title>
<polygon fill="none" stroke="#bfbfbf" points="1302.5,-74.5 1302.5,-93.5 1451.5,-93.5 1451.5,-74.5 1302.5,-74.5"/>
<text text-anchor="middle" x="1377" y="-81.5" font-family="Helvetica,sans-Serif" font-size="10.00">Math/GenVector/Rotation3D.h</text>
</g>
<!-- Node26&#45;&gt;Node29 -->
<g id="edge32" class="edge"><title>Node26&#45;&gt;Node29</title>
<path fill="none" stroke="midnightblue" d="M1493.48,-142.372C1470.61,-131.106 1430.36,-111.279 1403.68,-98.1403"/>
<polygon fill="midnightblue" stroke="midnightblue" points="1405.04,-94.9092 1394.52,-93.6305 1401.95,-101.189 1405.04,-94.9092"/>
</g>
<!-- Node30 -->
<g id="node30" class="node"><title>Node30</title>
<polygon fill="none" stroke="#bfbfbf" points="1470,-74.5 1470,-93.5 1626,-93.5 1626,-74.5 1470,-74.5"/>
<text text-anchor="middle" x="1548" y="-81.5" font-family="Helvetica,sans-Serif" font-size="10.00">Math/GenVector/Transform3D.h</text>
</g>
<!-- Node26&#45;&gt;Node30 -->
<g id="edge33" class="edge"><title>Node26&#45;&gt;Node30</title>
<path fill="none" stroke="midnightblue" d="M1515.84,-142.372C1521.46,-132.348 1530.88,-115.546 1538.07,-102.708"/>
<polygon fill="midnightblue" stroke="midnightblue" points="1541.21,-104.275 1543.04,-93.8411 1535.1,-100.852 1541.21,-104.275"/>
</g>
<!-- Node31 -->
<g id="node31" class="node"><title>Node31</title>
<polygon fill="none" stroke="#bfbfbf" points="1644,-74.5 1644,-93.5 1804,-93.5 1804,-74.5 1644,-74.5"/>
<text text-anchor="middle" x="1724" y="-81.5" font-family="Helvetica,sans-Serif" font-size="10.00">Math/GenVector/Translation3D.h</text>
</g>
<!-- Node26&#45;&gt;Node31 -->
<g id="edge34" class="edge"><title>Node26&#45;&gt;Node31</title>
<path fill="none" stroke="midnightblue" d="M1538.85,-142.372C1576.74,-130.629 1644.66,-109.585 1686.86,-96.5083"/>
<polygon fill="midnightblue" stroke="midnightblue" points="1687.97,-99.8289 1696.48,-93.5259 1685.9,-93.1425 1687.97,-99.8289"/>
</g>
<!-- Node32 -->
<g id="node32" class="node"><title>Node32</title>
<g id="a_node32"><a xlink:href="../../d2/dd0/Cartesian2D_8h.html" target="_top" xlink:title="MathUtils/Cartesian2D.h">
<polygon fill="none" stroke="black" points="1822.5,-74.5 1822.5,-93.5 1947.5,-93.5 1947.5,-74.5 1822.5,-74.5"/>
<text text-anchor="middle" x="1885" y="-81.5" font-family="Helvetica,sans-Serif" font-size="10.00">MathUtils/Cartesian2D.h</text>
</a>
</g>
</g>
<!-- Node26&#45;&gt;Node32 -->
<g id="edge38" class="edge"><title>Node26&#45;&gt;Node32</title>
<path fill="none" stroke="midnightblue" d="M1565.12,-142.498C1625.64,-132.842 1726.52,-116.304 1813,-100 1820.33,-98.6184 1828.06,-97.0864 1835.63,-95.5446"/>
<polygon fill="midnightblue" stroke="midnightblue" points="1836.35,-98.9692 1845.44,-93.5239 1834.94,-92.1131 1836.35,-98.9692"/>
</g>
<!-- Node33 -->
<g id="node33" class="node"><title>Node33</title>
<polygon fill="none" stroke="#bfbfbf" points="1718.5,-1 1718.5,-31 1869.5,-31 1869.5,-1 1718.5,-1"/>
<text text-anchor="start" x="1726.5" y="-19" font-family="Helvetica,sans-Serif" font-size="10.00">Math/GenVector/Displacement</text>
<text text-anchor="middle" x="1794" y="-8" font-family="Helvetica,sans-Serif" font-size="10.00">Vector2D.h</text>
</g>
<!-- Node32&#45;&gt;Node33 -->
<g id="edge39" class="edge"><title>Node32&#45;&gt;Node33</title>
<path fill="none" stroke="midnightblue" d="M1873.1,-74.3717C1860.22,-65.0286 1839.22,-49.7966 1822.09,-37.375"/>
<polygon fill="midnightblue" stroke="midnightblue" points="1823.7,-34.2194 1813.55,-31.1815 1819.59,-39.8859 1823.7,-34.2194"/>
</g>
<!-- Node34 -->
<g id="node34" class="node"><title>Node34</title>
<polygon fill="none" stroke="#bfbfbf" points="1888,-6.5 1888,-25.5 2064,-25.5 2064,-6.5 1888,-6.5"/>
<text text-anchor="middle" x="1976" y="-13.5" font-family="Helvetica,sans-Serif" font-size="10.00">Math/GenVector/PositionVector2D.h</text>
</g>
<!-- Node32&#45;&gt;Node34 -->
<g id="edge40" class="edge"><title>Node32&#45;&gt;Node34</title>
<path fill="none" stroke="midnightblue" d="M1896.9,-74.3717C1911.88,-63.5015 1937.86,-44.6602 1955.94,-31.5474"/>
<polygon fill="midnightblue" stroke="midnightblue" points="1958.06,-34.3349 1964.1,-25.6305 1953.95,-28.6684 1958.06,-34.3349"/>
</g>
<!-- Node36 -->
<g id="node36" class="node"><title>Node36</title>
<g id="a_node36"><a xlink:href="../../d4/d25/BaseHits_8h.html" target="_top" xlink:title="SimulationDataFormat\l/BaseHits.h">
<polygon fill="none" stroke="black" points="1213,-205 1213,-235 1327,-235 1327,-205 1213,-205"/>
<text text-anchor="start" x="1221" y="-223" font-family="Helvetica,sans-Serif" font-size="10.00">SimulationDataFormat</text>
<text text-anchor="middle" x="1270" y="-212" font-family="Helvetica,sans-Serif" font-size="10.00">/BaseHits.h</text>
</a>
</g>
</g>
<!-- Node35&#45;&gt;Node36 -->
<g id="edge43" class="edge"><title>Node35&#45;&gt;Node36</title>
<path fill="none" stroke="midnightblue" d="M1271.71,-272.403C1271.48,-265.341 1271.13,-254.975 1270.81,-245.399"/>
<polygon fill="midnightblue" stroke="midnightblue" points="1274.3,-245.019 1270.47,-235.141 1267.31,-245.252 1274.3,-245.019"/>
</g>
<!-- Node37 -->
<g id="node37" class="node"><title>Node37</title>
<g id="a_node37"><a xlink:href="../../d0/d91/ShmAllocator_8h.html" target="_top" xlink:title="CommonUtils/ShmAllocator.h">
<polygon fill="none" stroke="black" points="1825,-210.5 1825,-229.5 1971,-229.5 1971,-210.5 1825,-210.5"/>
<text text-anchor="middle" x="1898" y="-217.5" font-family="Helvetica,sans-Serif" font-size="10.00">CommonUtils/ShmAllocator.h</text>
</a>
</g>
</g>
<!-- Node35&#45;&gt;Node37 -->
<g id="edge45" class="edge"><title>Node35&#45;&gt;Node37</title>
<path fill="none" stroke="midnightblue" d="M1321.12,-276.292C1427.94,-266.054 1682.36,-241.669 1814.74,-228.98"/>
<polygon fill="midnightblue" stroke="midnightblue" points="1815.21,-232.451 1824.83,-228.013 1814.55,-225.483 1815.21,-232.451"/>
</g>
<!-- Node36&#45;&gt;Node26 -->
<g id="edge44" class="edge"><title>Node36&#45;&gt;Node26</title>
<path fill="none" stroke="midnightblue" d="M1321.4,-204.922C1365.85,-192.751 1429.23,-175.393 1470.25,-164.161"/>
<polygon fill="midnightblue" stroke="midnightblue" points="1471.19,-167.531 1479.91,-161.514 1469.34,-160.779 1471.19,-167.531"/>
</g>
<!-- Node38 -->
<g id="node38" class="node"><title>Node38</title>
<g id="a_node38"><a xlink:href="../../de/d61/ShmManager_8h.html" target="_top" xlink:title="CommonUtils/ShmManager.h">
<polygon fill="none" stroke="black" points="2203,-142.5 2203,-161.5 2349,-161.5 2349,-142.5 2203,-142.5"/>
<text text-anchor="middle" x="2276" y="-149.5" font-family="Helvetica,sans-Serif" font-size="10.00">CommonUtils/ShmManager.h</text>
</a>
</g>
</g>
<!-- Node37&#45;&gt;Node38 -->
<g id="edge46" class="edge"><title>Node37&#45;&gt;Node38</title>
<path fill="none" stroke="midnightblue" d="M1947.03,-210.439C2016.29,-198.347 2142.59,-176.294 2216.92,-163.315"/>
<polygon fill="midnightblue" stroke="midnightblue" points="2217.81,-166.713 2227.06,-161.546 2216.6,-159.818 2217.81,-166.713"/>
</g>
<!-- Node43 -->
<g id="node43" class="node"><title>Node43</title>
<polygon fill="none" stroke="#bfbfbf" points="1873.5,-142.5 1873.5,-161.5 1922.5,-161.5 1922.5,-142.5 1873.5,-142.5"/>
<text text-anchor="middle" x="1898" y="-149.5" font-family="Helvetica,sans-Serif" font-size="10.00">cassert</text>
</g>
<!-- Node37&#45;&gt;Node43 -->
<g id="edge51" class="edge"><title>Node37&#45;&gt;Node43</title>
<path fill="none" stroke="midnightblue" d="M1898,-210.372C1898,-200.643 1898,-184.528 1898,-171.85"/>
<polygon fill="midnightblue" stroke="midnightblue" points="1901.5,-171.841 1898,-161.841 1894.5,-171.841 1901.5,-171.841"/>
</g>
<!-- Node39 -->
<g id="node39" class="node"><title>Node39</title>
<polygon fill="none" stroke="#bfbfbf" points="2505.5,-74.5 2505.5,-93.5 2534.5,-93.5 2534.5,-74.5 2505.5,-74.5"/>
<text text-anchor="middle" x="2520" y="-81.5" font-family="Helvetica,sans-Serif" font-size="10.00">list</text>
</g>
<!-- Node38&#45;&gt;Node39 -->
<g id="edge47" class="edge"><title>Node38&#45;&gt;Node39</title>
<path fill="none" stroke="midnightblue" d="M2336.96,-142.438C2382.07,-134.784 2444.39,-121.406 2496,-100 2496.87,-99.6376 2497.75,-99.2449 2498.63,-98.8285"/>
<polygon fill="midnightblue" stroke="midnightblue" points="2500.69,-101.687 2507.72,-93.7608 2497.28,-95.5733 2500.69,-101.687"/>
</g>
<!-- Node40 -->
<g id="node40" class="node"><title>Node40</title>
<polygon fill="none" stroke="#bfbfbf" points="2134.5,-74.5 2134.5,-93.5 2183.5,-93.5 2183.5,-74.5 2134.5,-74.5"/>
<text text-anchor="middle" x="2159" y="-81.5" font-family="Helvetica,sans-Serif" font-size="10.00">cstddef</text>
</g>
<!-- Node38&#45;&gt;Node40 -->
<g id="edge48" class="edge"><title>Node38&#45;&gt;Node40</title>
<path fill="none" stroke="midnightblue" d="M2260.7,-142.372C2241,-131.254 2206.51,-111.8 2183.22,-98.6624"/>
<polygon fill="midnightblue" stroke="midnightblue" points="2184.73,-95.4953 2174.3,-93.6305 2181.29,-101.592 2184.73,-95.4953"/>
</g>
<!-- Node41 -->
<g id="node41" class="node"><title>Node41</title>
<polygon fill="none" stroke="#bfbfbf" points="2202,-69 2202,-99 2350,-99 2350,-69 2202,-69"/>
<text text-anchor="start" x="2210" y="-87" font-family="Helvetica,sans-Serif" font-size="10.00">boost/interprocess</text>
<text text-anchor="middle" x="2276" y="-76" font-family="Helvetica,sans-Serif" font-size="10.00">/managed_external_buffer.hpp</text>
</g>
<!-- Node38&#45;&gt;Node41 -->
<g id="edge49" class="edge"><title>Node38&#45;&gt;Node41</title>
<path fill="none" stroke="midnightblue" d="M2276,-142.372C2276,-133.971 2276,-120.811 2276,-109.213"/>
<polygon fill="midnightblue" stroke="midnightblue" points="2279.5,-109.181 2276,-99.1815 2272.5,-109.181 2279.5,-109.181"/>
</g>
<!-- Node42 -->
<g id="node42" class="node"><title>Node42</title>
<polygon fill="none" stroke="#bfbfbf" points="2368,-69 2368,-99 2488,-99 2488,-69 2368,-69"/>
<text text-anchor="start" x="2376" y="-87" font-family="Helvetica,sans-Serif" font-size="10.00">boost/interprocess</text>
<text text-anchor="middle" x="2428" y="-76" font-family="Helvetica,sans-Serif" font-size="10.00">/allocators/allocator.hpp</text>
</g>
<!-- Node38&#45;&gt;Node42 -->
<g id="edge50" class="edge"><title>Node38&#45;&gt;Node42</title>
<path fill="none" stroke="midnightblue" d="M2295.87,-142.372C2318.74,-132.44 2356.94,-115.854 2386.4,-103.063"/>
<polygon fill="midnightblue" stroke="midnightblue" points="2387.85,-106.25 2395.63,-99.0562 2385.06,-99.8287 2387.85,-106.25"/>
</g>
<!-- Node44&#45;&gt;Node7 -->
<g id="edge58" class="edge"><title>Node44&#45;&gt;Node7</title>
<path fill="none" stroke="midnightblue" d="M1099.48,-328.974C1078.75,-300.444 1032.98,-232.854 1014,-168 1007.72,-146.533 1003.59,-121.134 1001.29,-104.137"/>
<polygon fill="midnightblue" stroke="midnightblue" points="1004.71,-103.342 999.976,-93.865 997.769,-104.227 1004.71,-103.342"/>
</g>
</g>
</svg>
