<?xml version="1.0" encoding="UTF-8" standalone="no"?>
<!DOCTYPE svg PUBLIC "-//W3C//DTD SVG 1.1//EN"
 "http://www.w3.org/Graphics/SVG/1.1/DTD/svg11.dtd">
<!-- Generated by graphviz version 2.36.0 (20140111.2315)
 -->
<!-- Title: o2::conf::SimConfigData Pages: 1 -->
<svg width="479pt" height="294pt"
 viewBox="0.00 0.00 479.00 294.00" xmlns="http://www.w3.org/2000/svg" xmlns:xlink="http://www.w3.org/1999/xlink">
<g id="graph0" class="graph" transform="scale(1 1) rotate(0) translate(4 290)">
<title>o2::conf::SimConfigData</title>
<!-- Node1 -->
<g id="node1" class="node"><title>Node1</title>
<polygon fill="#bfbfbf" stroke="black" points="153.5,-1 153.5,-69 278.5,-69 278.5,-1 153.5,-1"/>
<text text-anchor="middle" x="216" y="-57" font-family="Helvetica,sans-Serif" font-size="10.00">o2::conf::SimConfigData</text>
<polyline fill="none" stroke="black" points="153.5,-50 278.5,-50 "/>
<text text-anchor="start" x="161.5" y="-38" font-family="Helvetica,sans-Serif" font-size="10.00">+ mExtKinFileName</text>
<text text-anchor="start" x="161.5" y="-27" font-family="Helvetica,sans-Serif" font-size="10.00">+ mExtGenFuncName</text>
<polyline fill="none" stroke="black" points="153.5,-20 278.5,-20 "/>
<text text-anchor="start" x="161.5" y="-8" font-family="Helvetica,sans-Serif" font-size="10.00">+ ClassDefNV()</text>
</g>
<!-- Node2 -->
<g id="node2" class="node"><title>Node2</title>
<g id="a_node2"><a xlink:href="../../d4/dc3/classfloat.html" target="_top" xlink:title="{float\n||}">
<polygon fill="none" stroke="black" points="-0.5,-228.5 -0.5,-285.5 34.5,-285.5 34.5,-228.5 -0.5,-228.5"/>
<text text-anchor="middle" x="17" y="-273.5" font-family="Helvetica,sans-Serif" font-size="10.00">float</text>
<polyline fill="none" stroke="black" points="-0.5,-266.5 34.5,-266.5 "/>
<text text-anchor="middle" x="17" y="-254.5" font-family="Helvetica,sans-Serif" font-size="10.00"> </text>
<polyline fill="none" stroke="black" points="-0.5,-247.5 34.5,-247.5 "/>
<text text-anchor="middle" x="17" y="-235.5" font-family="Helvetica,sans-Serif" font-size="10.00"> </text>
</a>
</g>
</g>
<!-- Node2&#45;&gt;Node1 -->
<g id="edge1" class="edge"><title>Node2&#45;&gt;Node1</title>
<path fill="none" stroke="#404040" d="M14.821,-228.436C13.4908,-191.727 16.854,-126.913 52,-88 74.7232,-62.8411 109.534,-49.7696 141.248,-43.0127"/>
<polygon fill="none" stroke="#404040" points="141.434,-42.9773 146.574,-37.9201 153.22,-40.7202 148.079,-45.7774 141.434,-42.9773"/>
<text text-anchor="middle" x="73.5" y="-146.5" font-family="Helvetica,sans-Serif" font-size="10.00"> +mBMax</text>
</g>
<!-- Node3 -->
<g id="node3" class="node"><title>Node3</title>
<polygon fill="none" stroke="#bfbfbf" points="52.5,-228.5 52.5,-285.5 157.5,-285.5 157.5,-228.5 52.5,-228.5"/>
<text text-anchor="middle" x="105" y="-273.5" font-family="Helvetica,sans-Serif" font-size="10.00">vector&lt; std::string &gt;</text>
<polyline fill="none" stroke="#bfbfbf" points="52.5,-266.5 157.5,-266.5 "/>
<text text-anchor="middle" x="105" y="-254.5" font-family="Helvetica,sans-Serif" font-size="10.00"> </text>
<polyline fill="none" stroke="#bfbfbf" points="52.5,-247.5 157.5,-247.5 "/>
<text text-anchor="middle" x="105" y="-235.5" font-family="Helvetica,sans-Serif" font-size="10.00"> </text>
</g>
<!-- Node3&#45;&gt;Node1 -->
<g id="edge2" class="edge"><title>Node3&#45;&gt;Node1</title>
<path fill="none" stroke="#404040" d="M100.925,-228.443C97.1692,-192.899 95.8193,-130.595 124,-88 129.011,-80.4258 135.524,-73.8365 142.77,-68.1345"/>
<polygon fill="none" stroke="#404040" points="143.226,-67.8132 145.826,-61.087 153.035,-60.8997 150.435,-67.6259 143.226,-67.8132"/>
<text text-anchor="middle" x="168" y="-146.5" font-family="Helvetica,sans-Serif" font-size="10.00"> +mActiveDetectors</text>
</g>
<!-- Node4 -->
<g id="node4" class="node"><title>Node4</title>
<g id="a_node4"><a xlink:href="../../d1/da0/classint.html" target="_top" xlink:title="{int\n||}">
<polygon fill="none" stroke="black" points="201.5,-228.5 201.5,-285.5 230.5,-285.5 230.5,-228.5 201.5,-228.5"/>
<text text-anchor="middle" x="216" y="-273.5" font-family="Helvetica,sans-Serif" font-size="10.00">int</text>
<polyline fill="none" stroke="black" points="201.5,-266.5 230.5,-266.5 "/>
<text text-anchor="middle" x="216" y="-254.5" font-family="Helvetica,sans-Serif" font-size="10.00"> </text>
<polyline fill="none" stroke="black" points="201.5,-247.5 230.5,-247.5 "/>
<text text-anchor="middle" x="216" y="-235.5" font-family="Helvetica,sans-Serif" font-size="10.00"> </text>
</a>
</g>
</g>
<!-- Node4&#45;&gt;Node1 -->
<g id="edge3" class="edge"><title>Node4&#45;&gt;Node1</title>
<path fill="none" stroke="#404040" d="M216,-228.137C216,-191.12 216,-125.272 216,-81.122"/>
<polygon fill="none" stroke="#404040" points="216,-81.0087 212,-75.0088 216,-69.0087 220,-75.0087 216,-81.0087"/>
<text text-anchor="middle" x="264.5" y="-201.5" font-family="Helvetica,sans-Serif" font-size="10.00"> +mOutputPrefix</text>
<text text-anchor="middle" x="264.5" y="-190.5" font-family="Helvetica,sans-Serif" font-size="10.00">+mMCEngine</text>
<text text-anchor="middle" x="264.5" y="-179.5" font-family="Helvetica,sans-Serif" font-size="10.00">+mStartSeed</text>
<text text-anchor="middle" x="264.5" y="-168.5" font-family="Helvetica,sans-Serif" font-size="10.00">+mInternalChunkSize</text>
<text text-anchor="middle" x="264.5" y="-157.5" font-family="Helvetica,sans-Serif" font-size="10.00">+mKeyValueTokens</text>
<text text-anchor="middle" x="264.5" y="-146.5" font-family="Helvetica,sans-Serif" font-size="10.00">+mLogSeverity</text>
<text text-anchor="middle" x="264.5" y="-135.5" font-family="Helvetica,sans-Serif" font-size="10.00">+mGenerator</text>
<text text-anchor="middle" x="264.5" y="-124.5" font-family="Helvetica,sans-Serif" font-size="10.00">+mExtGenFileName</text>
<text text-anchor="middle" x="264.5" y="-113.5" font-family="Helvetica,sans-Serif" font-size="10.00">+mPrimaryChunkSize</text>
<text text-anchor="middle" x="264.5" y="-102.5" font-family="Helvetica,sans-Serif" font-size="10.00">+mLogVerbosity</text>
<text text-anchor="middle" x="264.5" y="-91.5" font-family="Helvetica,sans-Serif" font-size="10.00">...</text>
</g>
<!-- Node5 -->
<g id="node5" class="node"><title>Node5</title>
<polygon fill="none" stroke="#bfbfbf" points="318.5,-228.5 318.5,-285.5 353.5,-285.5 353.5,-228.5 318.5,-228.5"/>
<text text-anchor="middle" x="336" y="-273.5" font-family="Helvetica,sans-Serif" font-size="10.00">bool</text>
<polyline fill="none" stroke="#bfbfbf" points="318.5,-266.5 353.5,-266.5 "/>
<text text-anchor="middle" x="336" y="-254.5" font-family="Helvetica,sans-Serif" font-size="10.00"> </text>
<polyline fill="none" stroke="#bfbfbf" points="318.5,-247.5 353.5,-247.5 "/>
<text text-anchor="middle" x="336" y="-235.5" font-family="Helvetica,sans-Serif" font-size="10.00"> </text>
</g>
<!-- Node5&#45;&gt;Node1 -->
<g id="edge4" class="edge"><title>Node5&#45;&gt;Node1</title>
<path fill="none" stroke="#404040" d="M335.396,-228.203C333.993,-186.46 329.344,-110.114 314,-88 307.44,-78.5455 298.604,-70.6716 288.912,-64.1557"/>
<polygon fill="none" stroke="#404040" points="288.808,-64.0926 281.603,-64.3858 278.561,-57.8476 285.767,-57.5544 288.808,-64.0926"/>
<text text-anchor="middle" x="355" y="-146.5" font-family="Helvetica,sans-Serif" font-size="10.00"> +mIsMT</text>
</g>
<!-- Node6 -->
<g id="node6" class="node"><title>Node6</title>
<polygon fill="none" stroke="#bfbfbf" points="372,-228.5 372,-285.5 428,-285.5 428,-228.5 372,-228.5"/>
<text text-anchor="middle" x="400" y="-273.5" font-family="Helvetica,sans-Serif" font-size="10.00">unsigned</text>
<polyline fill="none" stroke="#bfbfbf" points="372,-266.5 428,-266.5 "/>
<text text-anchor="middle" x="400" y="-254.5" font-family="Helvetica,sans-Serif" font-size="10.00"> </text>
<polyline fill="none" stroke="#bfbfbf" points="372,-247.5 428,-247.5 "/>
<text text-anchor="middle" x="400" y="-235.5" font-family="Helvetica,sans-Serif" font-size="10.00"> </text>
</g>
<!-- Node6&#45;&gt;Node1 -->
<g id="edge5" class="edge"><title>Node6&#45;&gt;Node1</title>
<path fill="none" stroke="#404040" d="M404.651,-228.371C409.136,-191.888 411.068,-127.644 378,-88 356.525,-62.2546 322.248,-49.1166 290.743,-42.4675"/>
<polygon fill="none" stroke="#404040" points="290.629,-42.4461 283.992,-45.2659 278.836,-40.2241 285.473,-37.4043 290.629,-42.4461"/>
<text text-anchor="middle" x="439" y="-152" font-family="Helvetica,sans-Serif" font-size="10.00"> +mStartEvent</text>
<text text-anchor="middle" x="439" y="-141" font-family="Helvetica,sans-Serif" font-size="10.00">+mNEvents</text>
</g>
</g>
</svg>
