<?xml version="1.0" encoding="UTF-8" standalone="no"?>
<!DOCTYPE svg PUBLIC "-//W3C//DTD SVG 1.1//EN"
 "http://www.w3.org/Graphics/SVG/1.1/DTD/svg11.dtd">
<!-- Generated by graphviz version 2.36.0 (20140111.2315)
 -->
<!-- Title: /home/travis/build/AliceO2Group/AliceO2/Framework/Core/include/Framework/SerializationMethods.h Pages: 1 -->
<svg width="1668pt" height="186pt"
 viewBox="0.00 0.00 1668.00 186.00" xmlns="http://www.w3.org/2000/svg" xmlns:xlink="http://www.w3.org/1999/xlink">
<g id="graph0" class="graph" transform="scale(1 1) rotate(0) translate(4 182)">
<title>/home/travis/build/AliceO2Group/AliceO2/Framework/Core/include/Framework/SerializationMethods.h</title>
<!-- Node1 -->
<g id="node1" class="node"><title>Node1</title>
<polygon fill="#bfbfbf" stroke="black" points="383,-125 383,-177 553,-177 553,-125 383,-125"/>
<text text-anchor="start" x="391" y="-165" font-family="Helvetica,sans-Serif" font-size="10.00">/home/travis/build</text>
<text text-anchor="start" x="391" y="-154" font-family="Helvetica,sans-Serif" font-size="10.00">/AliceO2Group/AliceO2</text>
<text text-anchor="start" x="391" y="-143" font-family="Helvetica,sans-Serif" font-size="10.00">/Framework/Core/include</text>
<text text-anchor="middle" x="468" y="-132" font-family="Helvetica,sans-Serif" font-size="10.00">/Framework/SerializationMethods.h</text>
</g>
<!-- Node2 -->
<g id="node2" class="node"><title>Node2</title>
<g id="a_node2"><a xlink:href="../../d0/d95/TypeTraits_8h.html" target="_top" xlink:title="Framework/TypeTraits.h">
<polygon fill="none" stroke="black" points="156.5,-68.5 156.5,-87.5 279.5,-87.5 279.5,-68.5 156.5,-68.5"/>
<text text-anchor="middle" x="218" y="-75.5" font-family="Helvetica,sans-Serif" font-size="10.00">Framework/TypeTraits.h</text>
</a>
</g>
</g>
<!-- Node1&#45;&gt;Node2 -->
<g id="edge1" class="edge"><title>Node1&#45;&gt;Node2</title>
<path fill="none" stroke="midnightblue" d="M382.663,-125.764C340.361,-113.75 291.297,-99.8162 257.803,-90.304"/>
<polygon fill="midnightblue" stroke="midnightblue" points="258.509,-86.8661 247.933,-87.5009 256.596,-93.5998 258.509,-86.8661"/>
</g>
<!-- Node8 -->
<g id="node8" class="node"><title>Node8</title>
<g id="a_node8"><a xlink:href="../../d7/d91/BoostSerializer_8h.html" target="_top" xlink:title="Templatised boost serializer/deserializer for containers and base types. ">
<polygon fill="none" stroke="black" points="663,-68.5 663,-87.5 817,-87.5 817,-68.5 663,-68.5"/>
<text text-anchor="middle" x="740" y="-75.5" font-family="Helvetica,sans-Serif" font-size="10.00">CommonUtils/BoostSerializer.h</text>
</a>
</g>
</g>
<!-- Node1&#45;&gt;Node8 -->
<g id="edge7" class="edge"><title>Node1&#45;&gt;Node8</title>
<path fill="none" stroke="midnightblue" d="M553.316,-127.73C601.227,-115.224 658.931,-100.161 697.381,-90.1249"/>
<polygon fill="midnightblue" stroke="midnightblue" points="698.415,-93.4724 707.206,-87.5601 696.646,-86.6993 698.415,-93.4724"/>
</g>
<!-- Node3 -->
<g id="node3" class="node"><title>Node3</title>
<polygon fill="none" stroke="#bfbfbf" points="70,-6.5 70,-25.5 132,-25.5 132,-6.5 70,-6.5"/>
<text text-anchor="middle" x="101" y="-13.5" font-family="Helvetica,sans-Serif" font-size="10.00">type_traits</text>
</g>
<!-- Node2&#45;&gt;Node3 -->
<g id="edge2" class="edge"><title>Node2&#45;&gt;Node3</title>
<path fill="none" stroke="midnightblue" d="M201.237,-68.4035C181.775,-58.4232 149.455,-41.8487 126.789,-30.2253"/>
<polygon fill="midnightblue" stroke="midnightblue" points="128.227,-27.0294 117.732,-25.5806 125.033,-33.2582 128.227,-27.0294"/>
</g>
<!-- Node4 -->
<g id="node4" class="node"><title>Node4</title>
<polygon fill="none" stroke="#bfbfbf" points="150,-6.5 150,-25.5 194,-25.5 194,-6.5 150,-6.5"/>
<text text-anchor="middle" x="172" y="-13.5" font-family="Helvetica,sans-Serif" font-size="10.00">vector</text>
</g>
<!-- Node2&#45;&gt;Node4 -->
<g id="edge3" class="edge"><title>Node2&#45;&gt;Node4</title>
<path fill="none" stroke="midnightblue" d="M211.409,-68.4035C204.509,-59.4034 193.498,-45.0408 184.866,-33.7824"/>
<polygon fill="midnightblue" stroke="midnightblue" points="187.44,-31.3872 178.578,-25.5806 181.885,-35.6462 187.44,-31.3872"/>
</g>
<!-- Node5 -->
<g id="node5" class="node"><title>Node5</title>
<polygon fill="none" stroke="#bfbfbf" points="0,-6.5 0,-25.5 52,-25.5 52,-6.5 0,-6.5"/>
<text text-anchor="middle" x="26" y="-13.5" font-family="Helvetica,sans-Serif" font-size="10.00">memory</text>
</g>
<!-- Node2&#45;&gt;Node5 -->
<g id="edge4" class="edge"><title>Node2&#45;&gt;Node5</title>
<path fill="none" stroke="midnightblue" d="M183.614,-68.4765C151.54,-60.2139 102.537,-46.7876 61,-32 58.7404,-31.1956 56.4183,-30.3179 54.0967,-29.4038"/>
<polygon fill="midnightblue" stroke="midnightblue" points="55.2975,-26.1131 44.7184,-25.5363 52.6288,-32.5845 55.2975,-26.1131"/>
</g>
<!-- Node6 -->
<g id="node6" class="node"><title>Node6</title>
<polygon fill="none" stroke="#bfbfbf" points="212,-1 212,-31 316,-31 316,-1 212,-1"/>
<text text-anchor="start" x="220" y="-19" font-family="Helvetica,sans-Serif" font-size="10.00">boost/archive/binary</text>
<text text-anchor="middle" x="264" y="-8" font-family="Helvetica,sans-Serif" font-size="10.00">_iarchive.hpp</text>
</g>
<!-- Node2&#45;&gt;Node6 -->
<g id="edge5" class="edge"><title>Node2&#45;&gt;Node6</title>
<path fill="none" stroke="midnightblue" d="M224.591,-68.4035C230.413,-60.8089 239.163,-49.3959 246.94,-39.2518"/>
<polygon fill="midnightblue" stroke="midnightblue" points="249.852,-41.2064 253.159,-31.1408 244.297,-36.9474 249.852,-41.2064"/>
</g>
<!-- Node7 -->
<g id="node7" class="node"><title>Node7</title>
<polygon fill="none" stroke="#bfbfbf" points="334,-1 334,-31 438,-31 438,-1 334,-1"/>
<text text-anchor="start" x="342" y="-19" font-family="Helvetica,sans-Serif" font-size="10.00">boost/archive/binary</text>
<text text-anchor="middle" x="386" y="-8" font-family="Helvetica,sans-Serif" font-size="10.00">_oarchive.hpp</text>
</g>
<!-- Node2&#45;&gt;Node7 -->
<g id="edge6" class="edge"><title>Node2&#45;&gt;Node7</title>
<path fill="none" stroke="midnightblue" d="M242.07,-68.4035C266.82,-59.5644 306.052,-45.553 337.309,-34.3895"/>
<polygon fill="midnightblue" stroke="midnightblue" points="338.489,-37.6848 346.729,-31.0253 336.134,-31.0926 338.489,-37.6848"/>
</g>
<!-- Node8&#45;&gt;Node3 -->
<g id="edge9" class="edge"><title>Node8&#45;&gt;Node3</title>
<path fill="none" stroke="midnightblue" d="M662.843,-73.9265C524.201,-67.9512 238.324,-53.4446 141,-32 137.489,-31.2265 133.874,-30.2082 130.32,-29.0655"/>
<polygon fill="midnightblue" stroke="midnightblue" points="131.197,-25.6628 120.602,-25.6158 128.855,-32.2595 131.197,-25.6628"/>
</g>
<!-- Node8&#45;&gt;Node4 -->
<g id="edge11" class="edge"><title>Node8&#45;&gt;Node4</title>
<path fill="none" stroke="midnightblue" d="M662.894,-74.0094C535.679,-68.4942 287.485,-55.1213 203,-32 200.798,-31.3973 198.563,-30.6407 196.354,-29.7894"/>
<polygon fill="midnightblue" stroke="midnightblue" points="197.577,-26.5031 187.018,-25.6358 194.732,-32.8986 197.577,-26.5031"/>
</g>
<!-- Node8&#45;&gt;Node6 -->
<g id="edge15" class="edge"><title>Node8&#45;&gt;Node6</title>
<path fill="none" stroke="midnightblue" d="M662.698,-71.7103C581.23,-65.4359 449.063,-53.2738 326.114,-32.0512"/>
<polygon fill="midnightblue" stroke="midnightblue" points="326.6,-28.5831 316.146,-30.307 325.393,-35.4784 326.6,-28.5831"/>
</g>
<!-- Node8&#45;&gt;Node7 -->
<g id="edge16" class="edge"><title>Node8&#45;&gt;Node7</title>
<path fill="none" stroke="midnightblue" d="M673.376,-68.4834C616.066,-60.7657 531.001,-48.3809 448.02,-32.1044"/>
<polygon fill="midnightblue" stroke="midnightblue" points="448.665,-28.6642 438.175,-30.1528 447.304,-35.5306 448.665,-28.6642"/>
</g>
<!-- Node9 -->
<g id="node9" class="node"><title>Node9</title>
<polygon fill="none" stroke="#bfbfbf" points="1564,-6.5 1564,-25.5 1604,-25.5 1604,-6.5 1564,-6.5"/>
<text text-anchor="middle" x="1584" y="-13.5" font-family="Helvetica,sans-Serif" font-size="10.00">utility</text>
</g>
<!-- Node8&#45;&gt;Node9 -->
<g id="edge8" class="edge"><title>Node8&#45;&gt;Node9</title>
<path fill="none" stroke="midnightblue" d="M817.01,-76.8539C992.483,-75.8584 1417.43,-69.519 1555,-32 1556.97,-31.4631 1558.96,-30.7805 1560.92,-30.004"/>
<polygon fill="midnightblue" stroke="midnightblue" points="1562.77,-33.0016 1570.33,-25.576 1559.79,-26.6682 1562.77,-33.0016"/>
</g>
<!-- Node10 -->
<g id="node10" class="node"><title>Node10</title>
<polygon fill="none" stroke="#bfbfbf" points="1622,-6.5 1622,-25.5 1660,-25.5 1660,-6.5 1622,-6.5"/>
<text text-anchor="middle" x="1641" y="-13.5" font-family="Helvetica,sans-Serif" font-size="10.00">array</text>
</g>
<!-- Node8&#45;&gt;Node10 -->
<g id="edge10" class="edge"><title>Node8&#45;&gt;Node10</title>
<path fill="none" stroke="midnightblue" d="M817.34,-77.327C1002.05,-77.4154 1464.52,-73.3585 1613,-32 1614.91,-31.4673 1616.84,-30.7878 1618.74,-30.0133"/>
<polygon fill="midnightblue" stroke="midnightblue" points="1620.37,-33.1115 1627.84,-25.5892 1617.31,-26.8169 1620.37,-33.1115"/>
</g>
<!-- Node11 -->
<g id="node11" class="node"><title>Node11</title>
<polygon fill="none" stroke="#bfbfbf" points="456.5,-6.5 456.5,-25.5 485.5,-25.5 485.5,-6.5 456.5,-6.5"/>
<text text-anchor="middle" x="471" y="-13.5" font-family="Helvetica,sans-Serif" font-size="10.00">list</text>
</g>
<!-- Node8&#45;&gt;Node11 -->
<g id="edge12" class="edge"><title>Node8&#45;&gt;Node11</title>
<path fill="none" stroke="midnightblue" d="M662.739,-70.7953C613.151,-64.9096 548.142,-53.5883 494,-32 492.982,-31.5939 491.96,-31.1397 490.945,-30.6493"/>
<polygon fill="midnightblue" stroke="midnightblue" points="492.614,-27.5711 482.208,-25.5807 489.102,-33.626 492.614,-27.5711"/>
</g>
<!-- Node12 -->
<g id="node12" class="node"><title>Node12</title>
<polygon fill="none" stroke="#bfbfbf" points="503.5,-6.5 503.5,-25.5 538.5,-25.5 538.5,-6.5 503.5,-6.5"/>
<text text-anchor="middle" x="521" y="-13.5" font-family="Helvetica,sans-Serif" font-size="10.00">map</text>
</g>
<!-- Node8&#45;&gt;Node12 -->
<g id="edge13" class="edge"><title>Node8&#45;&gt;Node12</title>
<path fill="none" stroke="midnightblue" d="M685.836,-68.4474C646.702,-61.2805 593.03,-49.3961 548,-32 546.593,-31.4565 545.17,-30.8514 543.75,-30.2048"/>
<polygon fill="midnightblue" stroke="midnightblue" points="545.153,-26.9909 534.656,-25.5479 541.962,-33.2214 545.153,-26.9909"/>
</g>
<!-- Node13 -->
<g id="node13" class="node"><title>Node13</title>
<polygon fill="none" stroke="#bfbfbf" points="557,-6.5 557,-25.5 587,-25.5 587,-6.5 557,-6.5"/>
<text text-anchor="middle" x="572" y="-13.5" font-family="Helvetica,sans-Serif" font-size="10.00">set</text>
</g>
<!-- Node8&#45;&gt;Node13 -->
<g id="edge14" class="edge"><title>Node8&#45;&gt;Node13</title>
<path fill="none" stroke="midnightblue" d="M703.845,-68.4504C674.137,-60.7817 631.343,-48.2406 596,-32 595.018,-31.5486 594.027,-31.0641 593.037,-30.5554"/>
<polygon fill="midnightblue" stroke="midnightblue" points="594.779,-27.52 584.366,-25.5686 591.289,-33.5881 594.779,-27.52"/>
</g>
<!-- Node14 -->
<g id="node14" class="node"><title>Node14</title>
<polygon fill="none" stroke="#bfbfbf" points="605,-1 605,-31 741,-31 741,-1 605,-1"/>
<text text-anchor="start" x="613" y="-19" font-family="Helvetica,sans-Serif" font-size="10.00">boost/serialization</text>
<text text-anchor="middle" x="673" y="-8" font-family="Helvetica,sans-Serif" font-size="10.00">/is_bitwise_serializable.hpp</text>
</g>
<!-- Node8&#45;&gt;Node14 -->
<g id="edge17" class="edge"><title>Node8&#45;&gt;Node14</title>
<path fill="none" stroke="midnightblue" d="M730.401,-68.4035C721.581,-60.5051 708.149,-48.4768 696.496,-38.0409"/>
<polygon fill="midnightblue" stroke="midnightblue" points="698.575,-35.2047 688.791,-31.1408 693.905,-40.4194 698.575,-35.2047"/>
</g>
<!-- Node15 -->
<g id="node15" class="node"><title>Node15</title>
<polygon fill="none" stroke="#bfbfbf" points="759.5,-1 759.5,-31 854.5,-31 854.5,-1 759.5,-1"/>
<text text-anchor="start" x="767.5" y="-19" font-family="Helvetica,sans-Serif" font-size="10.00">boost/serialization</text>
<text text-anchor="middle" x="807" y="-8" font-family="Helvetica,sans-Serif" font-size="10.00">/serialization.hpp</text>
</g>
<!-- Node8&#45;&gt;Node15 -->
<g id="edge18" class="edge"><title>Node8&#45;&gt;Node15</title>
<path fill="none" stroke="midnightblue" d="M749.599,-68.4035C758.419,-60.5051 771.851,-48.4768 783.504,-38.0409"/>
<polygon fill="midnightblue" stroke="midnightblue" points="786.095,-40.4194 791.209,-31.1408 781.425,-35.2047 786.095,-40.4194"/>
</g>
<!-- Node16 -->
<g id="node16" class="node"><title>Node16</title>
<polygon fill="none" stroke="#bfbfbf" points="872.5,-1 872.5,-31 967.5,-31 967.5,-1 872.5,-1"/>
<text text-anchor="start" x="880.5" y="-19" font-family="Helvetica,sans-Serif" font-size="10.00">boost/serialization</text>
<text text-anchor="middle" x="920" y="-8" font-family="Helvetica,sans-Serif" font-size="10.00">/array.hpp</text>
</g>
<!-- Node8&#45;&gt;Node16 -->
<g id="edge19" class="edge"><title>Node8&#45;&gt;Node16</title>
<path fill="none" stroke="midnightblue" d="M765.79,-68.4035C792.421,-59.5263 834.704,-45.4321 868.264,-34.2453"/>
<polygon fill="midnightblue" stroke="midnightblue" points="869.544,-37.5081 877.924,-31.0253 867.33,-30.8673 869.544,-37.5081"/>
</g>
<!-- Node17 -->
<g id="node17" class="node"><title>Node17</title>
<polygon fill="none" stroke="#bfbfbf" points="985.5,-1 985.5,-31 1080.5,-31 1080.5,-1 985.5,-1"/>
<text text-anchor="start" x="993.5" y="-19" font-family="Helvetica,sans-Serif" font-size="10.00">boost/serialization</text>
<text text-anchor="middle" x="1033" y="-8" font-family="Helvetica,sans-Serif" font-size="10.00">/vector.hpp</text>
</g>
<!-- Node8&#45;&gt;Node17 -->
<g id="edge20" class="edge"><title>Node8&#45;&gt;Node17</title>
<path fill="none" stroke="midnightblue" d="M790.39,-68.4292C836.161,-60.4103 905.74,-47.6399 975.615,-31.995"/>
<polygon fill="midnightblue" stroke="midnightblue" points="976.491,-35.3854 985.474,-29.7686 974.949,-28.5574 976.491,-35.3854"/>
</g>
<!-- Node18 -->
<g id="node18" class="node"><title>Node18</title>
<polygon fill="none" stroke="#bfbfbf" points="1098.5,-1 1098.5,-31 1193.5,-31 1193.5,-1 1098.5,-1"/>
<text text-anchor="start" x="1106.5" y="-19" font-family="Helvetica,sans-Serif" font-size="10.00">boost/serialization</text>
<text text-anchor="middle" x="1146" y="-8" font-family="Helvetica,sans-Serif" font-size="10.00">/list.hpp</text>
</g>
<!-- Node8&#45;&gt;Node18 -->
<g id="edge21" class="edge"><title>Node8&#45;&gt;Node18</title>
<path fill="none" stroke="midnightblue" d="M817.051,-69.9504C885.786,-63.0021 989.28,-50.9227 1088.33,-31.9713"/>
<polygon fill="midnightblue" stroke="midnightblue" points="1089.06,-35.3954 1098.21,-30.0552 1087.73,-28.5235 1089.06,-35.3954"/>
</g>
<!-- Node19 -->
<g id="node19" class="node"><title>Node19</title>
<polygon fill="none" stroke="#bfbfbf" points="1211.5,-1 1211.5,-31 1306.5,-31 1306.5,-1 1211.5,-1"/>
<text text-anchor="start" x="1219.5" y="-19" font-family="Helvetica,sans-Serif" font-size="10.00">boost/serialization</text>
<text text-anchor="middle" x="1259" y="-8" font-family="Helvetica,sans-Serif" font-size="10.00">/map.hpp</text>
</g>
<!-- Node8&#45;&gt;Node19 -->
<g id="edge22" class="edge"><title>Node8&#45;&gt;Node19</title>
<path fill="none" stroke="midnightblue" d="M817.358,-73.2594C907.378,-68.0546 1060.55,-56.5639 1201.13,-31.9593"/>
<polygon fill="midnightblue" stroke="midnightblue" points="1202,-35.3604 1211.23,-30.165 1200.77,-28.4684 1202,-35.3604"/>
</g>
<!-- Node20 -->
<g id="node20" class="node"><title>Node20</title>
<polygon fill="none" stroke="#bfbfbf" points="1324.5,-1 1324.5,-31 1419.5,-31 1419.5,-1 1324.5,-1"/>
<text text-anchor="start" x="1332.5" y="-19" font-family="Helvetica,sans-Serif" font-size="10.00">boost/serialization</text>
<text text-anchor="middle" x="1372" y="-8" font-family="Helvetica,sans-Serif" font-size="10.00">/set.hpp</text>
</g>
<!-- Node8&#45;&gt;Node20 -->
<g id="edge23" class="edge"><title>Node8&#45;&gt;Node20</title>
<path fill="none" stroke="midnightblue" d="M817.268,-75.3419C926.155,-72.0319 1130.96,-62.2401 1314.15,-31.9263"/>
<polygon fill="midnightblue" stroke="midnightblue" points="1314.96,-35.3399 1324.24,-30.2322 1313.8,-28.4366 1314.96,-35.3399"/>
</g>
<!-- Node21 -->
<g id="node21" class="node"><title>Node21</title>
<polygon fill="none" stroke="#bfbfbf" points="1438,-6.5 1438,-25.5 1546,-25.5 1546,-6.5 1438,-6.5"/>
<text text-anchor="middle" x="1492" y="-13.5" font-family="Helvetica,sans-Serif" font-size="10.00">boost/type_traits.hpp</text>
</g>
<!-- Node8&#45;&gt;Node21 -->
<g id="edge24" class="edge"><title>Node8&#45;&gt;Node21</title>
<path fill="none" stroke="midnightblue" d="M817.052,-76.094C944.733,-73.6694 1207.93,-64.7574 1428,-32 1435.29,-30.9142 1442.99,-29.4206 1450.41,-27.7945"/>
<polygon fill="midnightblue" stroke="midnightblue" points="1451.34,-31.1723 1460.3,-25.5206 1449.77,-24.3502 1451.34,-31.1723"/>
</g>
</g>
</svg>
