<?xml version="1.0" encoding="UTF-8" standalone="no"?>
<!DOCTYPE svg PUBLIC "-//W3C//DTD SVG 1.1//EN"
 "http://www.w3.org/Graphics/SVG/1.1/DTD/svg11.dtd">
<!-- Generated by graphviz version 2.36.0 (20140111.2315)
 -->
<!-- Title: /home/travis/build/AliceO2Group/AliceO2/Framework/Core/include/Framework/DataRelayer.h Pages: 1 -->
<!--zoomable 322 -->
<svg id="main" version="1.1" xmlns="http://www.w3.org/2000/svg" xmlns:xlink="http://www.w3.org/1999/xlink" xml:space="preserve" onload="init(evt)">
<style type="text/css"><![CDATA[
.edge:hover path { stroke: red; }
.edge:hover polygon { stroke: red; fill: red; }
]]></style>
<script type="text/javascript"><![CDATA[
var edges = document.getElementsByTagName('g');
if (edges && edges.length) {
  for (var i=0;i<edges.length;i++) {
    if (edges[i].id.substr(0,4)=='edge') {
      edges[i].setAttribute('class','edge');
    }
  }
}
]]></script>
        <defs>
                <circle id="rim" cx="0" cy="0" r="7"/>
                <circle id="rim2" cx="0" cy="0" r="3.5"/>
                <g id="zoomPlus">
                        <use xlink:href="#rim" fill="#404040">
                                <set attributeName="fill" to="#808080" begin="zoomplus.mouseover" end="zoomplus.mouseout"/>
                        </use>
                        <path d="M-4,0h8M0,-4v8" fill="none" stroke="white" stroke-width="1.5" pointer-events="none"/>
                </g>
                <g id="zoomMin">
                        <use xlink:href="#rim" fill="#404040">
                                <set attributeName="fill" to="#808080" begin="zoomminus.mouseover" end="zoomminus.mouseout"/>
                        </use>
                        <path d="M-4,0h8" fill="none" stroke="white" stroke-width="1.5" pointer-events="none"/>
                </g>
                <g id="dirArrow">
                        <path fill="none" stroke="white" stroke-width="1.5" d="M0,-3.0v7 M-2.5,-0.5L0,-3.0L2.5,-0.5"/>
                </g>
               <g id="resetDef">
                       <use xlink:href="#rim2" fill="#404040">
                               <set attributeName="fill" to="#808080" begin="reset.mouseover" end="reset.mouseout"/>
                       </use>
               </g>
        </defs>

<script type="text/javascript">
var viewWidth = 2262;
var viewHeight = 322;
var sectionId = 'dynsection-0';
</script>
<script xlink:href="../../svgpan.js"/>
<svg id="graph" class="graph">
<g id="viewport">
<title>/home/travis/build/AliceO2Group/AliceO2/Framework/Core/include/Framework/DataRelayer.h</title>
<!-- Node1 -->
<g id="node1" class="node"><title>Node1</title>
<polygon fill="#bfbfbf" stroke="black" points="607,-261 607,-313 741,-313 741,-261 607,-261"/>
<text text-anchor="start" x="615" y="-301" font-family="Helvetica,sans-Serif" font-size="10.00">/home/travis/build</text>
<text text-anchor="start" x="615" y="-290" font-family="Helvetica,sans-Serif" font-size="10.00">/AliceO2Group/AliceO2</text>
<text text-anchor="start" x="615" y="-279" font-family="Helvetica,sans-Serif" font-size="10.00">/Framework/Core/include</text>
<text text-anchor="middle" x="674" y="-268" font-family="Helvetica,sans-Serif" font-size="10.00">/Framework/DataRelayer.h</text>
</g>
<!-- Node2 -->
<g id="node2" class="node"><title>Node2</title>
<g id="a_node2"><a xlink:href="../../d5/d19/InputRoute_8h.html" target="_top" xlink:title="Framework/InputRoute.h">
<polygon fill="none" stroke="black" points="246.5,-198.5 246.5,-217.5 371.5,-217.5 371.5,-198.5 246.5,-198.5"/>
<text text-anchor="middle" x="309" y="-205.5" font-family="Helvetica,sans-Serif" font-size="10.00">Framework/InputRoute.h</text>
</a>
</g>
</g>
<!-- Node1&#45;&gt;Node2 -->
<g id="edge1" class="edge"><title>Node1&#45;&gt;Node2</title>
<path fill="none" stroke="midnightblue" d="M606.628,-271.787C535.066,-256.691 423.586,-233.173 359.308,-219.613"/>
<polygon fill="midnightblue" stroke="midnightblue" points="359.918,-216.165 349.411,-217.525 358.473,-223.014 359.918,-216.165"/>
</g>
<!-- Node17 -->
<g id="node17" class="node"><title>Node17</title>
<polygon fill="none" stroke="#bfbfbf" points="-0.5,-130.5 -0.5,-149.5 48.5,-149.5 48.5,-130.5 -0.5,-130.5"/>
<text text-anchor="middle" x="24" y="-137.5" font-family="Helvetica,sans-Serif" font-size="10.00">cstddef</text>
</g>
<!-- Node1&#45;&gt;Node17 -->
<g id="edge66" class="edge"><title>Node1&#45;&gt;Node17</title>
<path fill="none" stroke="midnightblue" d="M606.917,-286.6C468.928,-286.648 158.929,-280.279 72,-224 48.8919,-209.04 35.6084,-178.771 29.0994,-159.216"/>
<polygon fill="midnightblue" stroke="midnightblue" points="32.4354,-158.156 26.1609,-149.619 25.7421,-160.205 32.4354,-158.156"/>
</g>
<!-- Node18 -->
<g id="node18" class="node"><title>Node18</title>
<g id="a_node18"><a xlink:href="../../d3/da3/DataDescriptorMatcher_8h.html" target="_top" xlink:title="Framework/DataDescriptor\lMatcher.h">
<polygon fill="none" stroke="black" points="837,-193 837,-223 971,-223 971,-193 837,-193"/>
<text text-anchor="start" x="845" y="-211" font-family="Helvetica,sans-Serif" font-size="10.00">Framework/DataDescriptor</text>
<text text-anchor="middle" x="904" y="-200" font-family="Helvetica,sans-Serif" font-size="10.00">Matcher.h</text>
</a>
</g>
</g>
<!-- Node1&#45;&gt;Node18 -->
<g id="edge21" class="edge"><title>Node1&#45;&gt;Node18</title>
<path fill="none" stroke="midnightblue" d="M741.144,-263.521C776.592,-251.654 819.423,-237.315 852.263,-226.321"/>
<polygon fill="midnightblue" stroke="midnightblue" points="853.743,-229.516 862.114,-223.023 851.52,-222.878 853.743,-229.516"/>
</g>
<!-- Node29 -->
<g id="node29" class="node"><title>Node29</title>
<polygon fill="none" stroke="#bfbfbf" points="2097,-6.5 2097,-25.5 2141,-25.5 2141,-6.5 2097,-6.5"/>
<text text-anchor="middle" x="2119" y="-13.5" font-family="Helvetica,sans-Serif" font-size="10.00">vector</text>
</g>
<!-- Node1&#45;&gt;Node29 -->
<g id="edge67" class="edge"><title>Node1&#45;&gt;Node29</title>
<path fill="none" stroke="midnightblue" d="M741.073,-278.363C837.419,-267.245 1020.52,-245.57 1176,-224 1569.31,-169.436 1712.65,-282.186 2059,-88 2081.36,-75.4647 2099.07,-51.1541 2109.29,-34.5047"/>
<polygon fill="midnightblue" stroke="midnightblue" points="2112.4,-36.1325 2114.43,-25.7341 2106.35,-32.5968 2112.4,-36.1325"/>
</g>
<!-- Node35 -->
<g id="node35" class="node"><title>Node35</title>
<g id="a_node35"><a xlink:href="../../d7/d12/ForwardRoute_8h.html" target="_top" xlink:title="Framework/ForwardRoute.h">
<polygon fill="none" stroke="black" points="81,-198.5 81,-217.5 219,-217.5 219,-198.5 81,-198.5"/>
<text text-anchor="middle" x="150" y="-205.5" font-family="Helvetica,sans-Serif" font-size="10.00">Framework/ForwardRoute.h</text>
</a>
</g>
</g>
<!-- Node1&#45;&gt;Node35 -->
<g id="edge50" class="edge"><title>Node1&#45;&gt;Node35</title>
<path fill="none" stroke="midnightblue" d="M606.904,-277.113C521.045,-265.595 367.77,-244.545 237,-224 227.56,-222.517 217.559,-220.867 207.829,-219.218"/>
<polygon fill="midnightblue" stroke="midnightblue" points="208.269,-215.743 197.822,-217.509 207.09,-222.643 208.269,-215.743"/>
</g>
<!-- Node36 -->
<g id="node36" class="node"><title>Node36</title>
<g id="a_node36"><a xlink:href="../../df/dd6/CompletionPolicy_8h.html" target="_top" xlink:title="Framework/CompletionPolicy.h">
<polygon fill="none" stroke="black" points="528.5,-130.5 528.5,-149.5 681.5,-149.5 681.5,-130.5 528.5,-130.5"/>
<text text-anchor="middle" x="605" y="-137.5" font-family="Helvetica,sans-Serif" font-size="10.00">Framework/CompletionPolicy.h</text>
</a>
</g>
</g>
<!-- Node1&#45;&gt;Node36 -->
<g id="edge54" class="edge"><title>Node1&#45;&gt;Node36</title>
<path fill="none" stroke="midnightblue" d="M661.981,-260.743C648.135,-231.647 625.733,-184.57 613.552,-158.971"/>
<polygon fill="midnightblue" stroke="midnightblue" points="616.605,-157.243 609.148,-149.717 610.285,-160.251 616.605,-157.243"/>
</g>
<!-- Node37 -->
<g id="node37" class="node"><title>Node37</title>
<g id="a_node37"><a xlink:href="../../d9/d32/PartRef_8h.html" target="_top" xlink:title="Framework/PartRef.h">
<polygon fill="none" stroke="black" points="565,-68.5 565,-87.5 675,-87.5 675,-68.5 565,-68.5"/>
<text text-anchor="middle" x="620" y="-75.5" font-family="Helvetica,sans-Serif" font-size="10.00">Framework/PartRef.h</text>
</a>
</g>
</g>
<!-- Node1&#45;&gt;Node37 -->
<g id="edge61" class="edge"><title>Node1&#45;&gt;Node37</title>
<path fill="none" stroke="midnightblue" d="M684.802,-260.932C697.428,-227.515 713.768,-167.534 690,-124 682.181,-109.679 667.638,-99.2355 653.824,-92.0358"/>
<polygon fill="midnightblue" stroke="midnightblue" points="655.001,-88.7188 644.469,-87.5617 651.981,-95.0338 655.001,-88.7188"/>
</g>
<!-- Node39 -->
<g id="node39" class="node"><title>Node39</title>
<g id="a_node39"><a xlink:href="../../d4/def/TimesliceIndex_8h.html" target="_top" xlink:title="Framework/TimesliceIndex.h">
<polygon fill="none" stroke="black" points="1907.5,-68.5 1907.5,-87.5 2050.5,-87.5 2050.5,-68.5 1907.5,-68.5"/>
<text text-anchor="middle" x="1979" y="-75.5" font-family="Helvetica,sans-Serif" font-size="10.00">Framework/TimesliceIndex.h</text>
</a>
</g>
</g>
<!-- Node1&#45;&gt;Node39 -->
<g id="edge62" class="edge"><title>Node1&#45;&gt;Node39</title>
<path fill="none" stroke="midnightblue" d="M741.414,-275.307C967.218,-239.49 1695.06,-124.039 1915.28,-89.1069"/>
<polygon fill="midnightblue" stroke="midnightblue" points="1916.05,-92.5285 1925.38,-87.505 1914.96,-85.6149 1916.05,-92.5285"/>
</g>
<!-- Node3 -->
<g id="node3" class="node"><title>Node3</title>
<g id="a_node3"><a xlink:href="../../d2/dd9/ExpirationHandler_8h.html" target="_top" xlink:title="Framework/ExpirationHandler.h">
<polygon fill="none" stroke="black" points="356,-130.5 356,-149.5 510,-149.5 510,-130.5 356,-130.5"/>
<text text-anchor="middle" x="433" y="-137.5" font-family="Helvetica,sans-Serif" font-size="10.00">Framework/ExpirationHandler.h</text>
</a>
</g>
</g>
<!-- Node2&#45;&gt;Node3 -->
<g id="edge2" class="edge"><title>Node2&#45;&gt;Node3</title>
<path fill="none" stroke="midnightblue" d="M325.211,-198.372C346.19,-187.205 382.974,-167.627 407.66,-154.488"/>
<polygon fill="midnightblue" stroke="midnightblue" points="409.602,-157.419 416.785,-149.63 406.313,-151.239 409.602,-157.419"/>
</g>
<!-- Node5 -->
<g id="node5" class="node"><title>Node5</title>
<polygon fill="none" stroke="#bfbfbf" points="377.5,-68.5 377.5,-87.5 436.5,-87.5 436.5,-68.5 377.5,-68.5"/>
<text text-anchor="middle" x="407" y="-75.5" font-family="Helvetica,sans-Serif" font-size="10.00">functional</text>
</g>
<!-- Node2&#45;&gt;Node5 -->
<g id="edge20" class="edge"><title>Node2&#45;&gt;Node5</title>
<path fill="none" stroke="midnightblue" d="M311.357,-198.474C316.078,-182.534 327.907,-147.692 347,-124 356.896,-111.72 370.86,-100.986 382.826,-93.085"/>
<polygon fill="midnightblue" stroke="midnightblue" points="384.901,-95.9146 391.487,-87.6161 381.163,-89.9958 384.901,-95.9146"/>
</g>
<!-- Node6 -->
<g id="node6" class="node"><title>Node6</title>
<g id="a_node6"><a xlink:href="../../d5/d3f/InputSpec_8h.html" target="_top" xlink:title="Framework/InputSpec.h">
<polygon fill="none" stroke="black" points="140.5,-130.5 140.5,-149.5 261.5,-149.5 261.5,-130.5 140.5,-130.5"/>
<text text-anchor="middle" x="201" y="-137.5" font-family="Helvetica,sans-Serif" font-size="10.00">Framework/InputSpec.h</text>
</a>
</g>
</g>
<!-- Node2&#45;&gt;Node6 -->
<g id="edge5" class="edge"><title>Node2&#45;&gt;Node6</title>
<path fill="none" stroke="midnightblue" d="M294.881,-198.372C276.851,-187.353 245.419,-168.145 223.932,-155.014"/>
<polygon fill="midnightblue" stroke="midnightblue" points="225.481,-151.859 215.123,-149.63 221.83,-157.832 225.481,-151.859"/>
</g>
<!-- Node14 -->
<g id="node14" class="node"><title>Node14</title>
<polygon fill="none" stroke="#bfbfbf" points="382.5,-6.5 382.5,-25.5 423.5,-25.5 423.5,-6.5 382.5,-6.5"/>
<text text-anchor="middle" x="403" y="-13.5" font-family="Helvetica,sans-Serif" font-size="10.00">string</text>
</g>
<!-- Node2&#45;&gt;Node14 -->
<g id="edge19" class="edge"><title>Node2&#45;&gt;Node14</title>
<path fill="none" stroke="midnightblue" d="M309.279,-198.388C310.053,-182.892 312.977,-149.545 324,-124 339.53,-88.0111 369.2,-52.7036 387.429,-32.9975"/>
<polygon fill="midnightblue" stroke="midnightblue" points="390.142,-35.2227 394.466,-25.5508 385.054,-30.4147 390.142,-35.2227"/>
</g>
<!-- Node2&#45;&gt;Node17 -->
<g id="edge18" class="edge"><title>Node2&#45;&gt;Node17</title>
<path fill="none" stroke="midnightblue" d="M272.033,-198.439C216.568,-185.595 112.572,-161.511 58.5536,-149.002"/>
<polygon fill="midnightblue" stroke="midnightblue" points="59.2903,-145.58 48.7584,-146.734 57.7109,-152.399 59.2903,-145.58"/>
</g>
<!-- Node4 -->
<g id="node4" class="node"><title>Node4</title>
<polygon fill="none" stroke="#bfbfbf" points="951,-6.5 951,-25.5 997,-25.5 997,-6.5 951,-6.5"/>
<text text-anchor="middle" x="974" y="-13.5" font-family="Helvetica,sans-Serif" font-size="10.00">cstdint</text>
</g>
<!-- Node3&#45;&gt;Node4 -->
<g id="edge3" class="edge"><title>Node3&#45;&gt;Node4</title>
<path fill="none" stroke="midnightblue" d="M477.978,-130.48C491.165,-128.165 505.632,-125.803 519,-124 685.369,-101.561 741.292,-155.499 895,-88 922.462,-75.9405 946.918,-50.5447 961.102,-33.627"/>
<polygon fill="midnightblue" stroke="midnightblue" points="963.973,-35.6431 967.544,-25.6684 958.532,-31.2387 963.973,-35.6431"/>
</g>
<!-- Node3&#45;&gt;Node5 -->
<g id="edge4" class="edge"><title>Node3&#45;&gt;Node5</title>
<path fill="none" stroke="midnightblue" d="M429.275,-130.403C425.491,-121.671 419.519,-107.889 414.711,-96.7936"/>
<polygon fill="midnightblue" stroke="midnightblue" points="417.906,-95.3645 410.718,-87.5806 411.483,-98.1478 417.906,-95.3645"/>
</g>
<!-- Node7 -->
<g id="node7" class="node"><title>Node7</title>
<g id="a_node7"><a xlink:href="../../dc/dca/Lifetime_8h.html" target="_top" xlink:title="Framework/Lifetime.h">
<polygon fill="none" stroke="black" points="139.5,-68.5 139.5,-87.5 250.5,-87.5 250.5,-68.5 139.5,-68.5"/>
<text text-anchor="middle" x="195" y="-75.5" font-family="Helvetica,sans-Serif" font-size="10.00">Framework/Lifetime.h</text>
</a>
</g>
</g>
<!-- Node6&#45;&gt;Node7 -->
<g id="edge6" class="edge"><title>Node6&#45;&gt;Node7</title>
<path fill="none" stroke="midnightblue" d="M200.14,-130.403C199.294,-121.938 197.973,-108.728 196.882,-97.8199"/>
<polygon fill="midnightblue" stroke="midnightblue" points="200.336,-97.1827 195.858,-87.5806 193.371,-97.8793 200.336,-97.1827"/>
</g>
<!-- Node8 -->
<g id="node8" class="node"><title>Node8</title>
<g id="a_node8"><a xlink:href="../../dc/dcd/DataHeader_8h.html" target="_top" xlink:title="Headers/DataHeader.h">
<polygon fill="none" stroke="black" points="769.5,-68.5 769.5,-87.5 886.5,-87.5 886.5,-68.5 769.5,-68.5"/>
<text text-anchor="middle" x="828" y="-75.5" font-family="Helvetica,sans-Serif" font-size="10.00">Headers/DataHeader.h</text>
</a>
</g>
</g>
<!-- Node6&#45;&gt;Node8 -->
<g id="edge7" class="edge"><title>Node6&#45;&gt;Node8</title>
<path fill="none" stroke="midnightblue" d="M261.722,-132.637C287.946,-129.921 318.979,-126.75 347,-124 493.829,-109.589 665.981,-93.736 759.329,-85.2266"/>
<polygon fill="midnightblue" stroke="midnightblue" points="759.849,-88.6938 769.49,-84.301 759.214,-81.7227 759.849,-88.6938"/>
</g>
<!-- Node6&#45;&gt;Node14 -->
<g id="edge16" class="edge"><title>Node6&#45;&gt;Node14</title>
<path fill="none" stroke="midnightblue" d="M180.642,-130.325C153.198,-117.434 109.953,-92.1389 130,-68 160.566,-31.1948 307.799,-20.8047 372.449,-17.9932"/>
<polygon fill="midnightblue" stroke="midnightblue" points="372.593,-21.4904 382.444,-17.5909 372.312,-14.496 372.593,-21.4904"/>
</g>
<!-- Node16 -->
<g id="node16" class="node"><title>Node16</title>
<polygon fill="none" stroke="#bfbfbf" points="269,-68.5 269,-87.5 321,-87.5 321,-68.5 269,-68.5"/>
<text text-anchor="middle" x="295" y="-75.5" font-family="Helvetica,sans-Serif" font-size="10.00">ostream</text>
</g>
<!-- Node6&#45;&gt;Node16 -->
<g id="edge17" class="edge"><title>Node6&#45;&gt;Node16</title>
<path fill="none" stroke="midnightblue" d="M214.468,-130.403C229.685,-120.691 254.687,-104.732 272.801,-93.1697"/>
<polygon fill="midnightblue" stroke="midnightblue" points="275.011,-95.9112 281.557,-87.5806 271.245,-90.0108 275.011,-95.9112"/>
</g>
<!-- Node8&#45;&gt;Node4 -->
<g id="edge8" class="edge"><title>Node8&#45;&gt;Node4</title>
<path fill="none" stroke="midnightblue" d="M850.882,-68.4492C874.023,-59.6892 910.739,-45.4814 942,-32 943.588,-31.3151 945.214,-30.5992 946.851,-29.8674"/>
<polygon fill="midnightblue" stroke="midnightblue" points="948.516,-32.9548 956.149,-25.6077 945.6,-26.5909 948.516,-32.9548"/>
</g>
<!-- Node9 -->
<g id="node9" class="node"><title>Node9</title>
<polygon fill="none" stroke="#bfbfbf" points="442,-6.5 442,-25.5 494,-25.5 494,-6.5 442,-6.5"/>
<text text-anchor="middle" x="468" y="-13.5" font-family="Helvetica,sans-Serif" font-size="10.00">memory</text>
</g>
<!-- Node8&#45;&gt;Node9 -->
<g id="edge9" class="edge"><title>Node8&#45;&gt;Node9</title>
<path fill="none" stroke="midnightblue" d="M769.204,-69.7237C682.547,-58.8679 528.039,-38.9631 503,-32 500.345,-31.2616 497.626,-30.366 494.935,-29.3838"/>
<polygon fill="midnightblue" stroke="midnightblue" points="496.057,-26.0625 485.474,-25.5744 493.443,-32.556 496.057,-26.0625"/>
</g>
<!-- Node10 -->
<g id="node10" class="node"><title>Node10</title>
<polygon fill="none" stroke="#bfbfbf" points="819.5,-6.5 819.5,-25.5 868.5,-25.5 868.5,-6.5 819.5,-6.5"/>
<text text-anchor="middle" x="844" y="-13.5" font-family="Helvetica,sans-Serif" font-size="10.00">cassert</text>
</g>
<!-- Node8&#45;&gt;Node10 -->
<g id="edge10" class="edge"><title>Node8&#45;&gt;Node10</title>
<path fill="none" stroke="midnightblue" d="M830.292,-68.4035C832.574,-59.849 836.147,-46.4497 839.073,-35.4762"/>
<polygon fill="midnightblue" stroke="midnightblue" points="842.517,-36.1448 841.712,-25.5806 835.753,-34.3411 842.517,-36.1448"/>
</g>
<!-- Node11 -->
<g id="node11" class="node"><title>Node11</title>
<polygon fill="none" stroke="#bfbfbf" points="887,-6.5 887,-25.5 933,-25.5 933,-6.5 887,-6.5"/>
<text text-anchor="middle" x="910" y="-13.5" font-family="Helvetica,sans-Serif" font-size="10.00">cstring</text>
</g>
<!-- Node8&#45;&gt;Node11 -->
<g id="edge11" class="edge"><title>Node8&#45;&gt;Node11</title>
<path fill="none" stroke="midnightblue" d="M839.749,-68.4035C852.901,-58.7797 874.434,-43.0242 890.198,-31.4891"/>
<polygon fill="midnightblue" stroke="midnightblue" points="892.27,-34.3103 898.273,-25.5806 888.136,-28.6611 892.27,-34.3103"/>
</g>
<!-- Node12 -->
<g id="node12" class="node"><title>Node12</title>
<polygon fill="none" stroke="#bfbfbf" points="668,-6.5 668,-25.5 724,-25.5 724,-6.5 668,-6.5"/>
<text text-anchor="middle" x="696" y="-13.5" font-family="Helvetica,sans-Serif" font-size="10.00">algorithm</text>
</g>
<!-- Node8&#45;&gt;Node12 -->
<g id="edge12" class="edge"><title>Node8&#45;&gt;Node12</title>
<path fill="none" stroke="midnightblue" d="M809.088,-68.4035C786.837,-58.2896 749.688,-41.4036 724.074,-29.761"/>
<polygon fill="midnightblue" stroke="midnightblue" points="725.429,-26.5324 714.877,-25.5806 722.533,-32.905 725.429,-26.5324"/>
</g>
<!-- Node13 -->
<g id="node13" class="node"><title>Node13</title>
<polygon fill="none" stroke="#bfbfbf" points="742.5,-6.5 742.5,-25.5 801.5,-25.5 801.5,-6.5 742.5,-6.5"/>
<text text-anchor="middle" x="772" y="-13.5" font-family="Helvetica,sans-Serif" font-size="10.00">stdexcept</text>
</g>
<!-- Node8&#45;&gt;Node13 -->
<g id="edge13" class="edge"><title>Node8&#45;&gt;Node13</title>
<path fill="none" stroke="midnightblue" d="M819.977,-68.4035C811.41,-59.2252 797.639,-44.4699 787.043,-33.1173"/>
<polygon fill="midnightblue" stroke="midnightblue" points="789.39,-30.503 780.009,-25.5806 784.273,-35.2793 789.39,-30.503"/>
</g>
<!-- Node8&#45;&gt;Node14 -->
<g id="edge14" class="edge"><title>Node8&#45;&gt;Node14</title>
<path fill="none" stroke="midnightblue" d="M769.444,-71.4681C667.321,-61.6515 464.471,-41.3412 433,-32 431.032,-31.4159 429.038,-30.7083 427.061,-29.9222"/>
<polygon fill="midnightblue" stroke="midnightblue" points="428.08,-26.5391 417.532,-25.5468 425.159,-32.9005 428.08,-26.5391"/>
</g>
<!-- Node15 -->
<g id="node15" class="node"><title>Node15</title>
<g id="a_node15"><a xlink:href="../../d7/df8/Types_8h.html" target="_top" xlink:title="MemoryResources/Types.h">
<polygon fill="none" stroke="black" points="512.5,-6.5 512.5,-25.5 649.5,-25.5 649.5,-6.5 512.5,-6.5"/>
<text text-anchor="middle" x="581" y="-13.5" font-family="Helvetica,sans-Serif" font-size="10.00">MemoryResources/Types.h</text>
</a>
</g>
</g>
<!-- Node8&#45;&gt;Node15 -->
<g id="edge15" class="edge"><title>Node8&#45;&gt;Node15</title>
<path fill="none" stroke="midnightblue" d="M792.873,-68.4672C748.98,-57.8048 673.811,-39.5452 625.814,-27.886"/>
<polygon fill="midnightblue" stroke="midnightblue" points="626.549,-24.4629 616.006,-25.5034 624.897,-31.2651 626.549,-24.4629"/>
</g>
<!-- Node18&#45;&gt;Node4 -->
<g id="edge46" class="edge"><title>Node18&#45;&gt;Node4</title>
<path fill="none" stroke="midnightblue" d="M961.154,-192.897C984.714,-184.966 1011.1,-173.123 1031,-156 1057.58,-133.132 1061.79,-121.831 1071,-88 1073.34,-79.4234 1075.6,-75.6086 1071,-68 1068.95,-64.6129 1028.59,-44.0855 1000.59,-30.1287"/>
<polygon fill="midnightblue" stroke="midnightblue" points="1001.79,-26.8192 991.278,-25.5049 998.677,-33.0883 1001.79,-26.8192"/>
</g>
<!-- Node18&#45;&gt;Node6 -->
<g id="edge22" class="edge"><title>Node18&#45;&gt;Node6</title>
<path fill="none" stroke="midnightblue" d="M836.672,-201.078C731.93,-191.81 523.629,-173.159 347,-156 322.479,-153.618 295.654,-150.895 271.763,-148.43"/>
<polygon fill="midnightblue" stroke="midnightblue" points="272.026,-144.938 261.719,-147.39 271.306,-151.901 272.026,-144.938"/>
</g>
<!-- Node18&#45;&gt;Node8 -->
<g id="edge29" class="edge"><title>Node18&#45;&gt;Node8</title>
<path fill="none" stroke="midnightblue" d="M895.576,-192.813C881.526,-169.149 853.357,-121.707 838.204,-96.1862"/>
<polygon fill="midnightblue" stroke="midnightblue" points="841.206,-94.3855 833.091,-87.5738 835.187,-97.9593 841.206,-94.3855"/>
</g>
<!-- Node18&#45;&gt;Node14 -->
<g id="edge47" class="edge"><title>Node18&#45;&gt;Node14</title>
<path fill="none" stroke="midnightblue" d="M854.115,-192.924C828.648,-184.446 797.876,-172.139 773,-156 726.334,-125.725 733.817,-92.7502 684,-68 583.073,-17.8571 540.562,-65.6326 433,-32 431.083,-31.4005 429.137,-30.6901 427.206,-29.9096"/>
<polygon fill="midnightblue" stroke="midnightblue" points="428.414,-26.6126 417.866,-25.6122 425.488,-32.9717 428.414,-26.6126"/>
</g>
<!-- Node19 -->
<g id="node19" class="node"><title>Node19</title>
<g id="a_node19"><a xlink:href="../../d6/dc9/DataProcessingHeader_8h.html" target="_top" xlink:title="Framework/DataProcessing\lHeader.h">
<polygon fill="none" stroke="black" points="884,-125 884,-155 1022,-155 1022,-125 884,-125"/>
<text text-anchor="start" x="892" y="-143" font-family="Helvetica,sans-Serif" font-size="10.00">Framework/DataProcessing</text>
<text text-anchor="middle" x="953" y="-132" font-family="Helvetica,sans-Serif" font-size="10.00">Header.h</text>
</a>
</g>
</g>
<!-- Node18&#45;&gt;Node19 -->
<g id="edge23" class="edge"><title>Node18&#45;&gt;Node19</title>
<path fill="none" stroke="midnightblue" d="M914.632,-192.679C920.989,-184.117 929.203,-173.053 936.399,-163.36"/>
<polygon fill="midnightblue" stroke="midnightblue" points="939.238,-165.409 942.388,-155.293 933.617,-161.236 939.238,-165.409"/>
</g>
<!-- Node21 -->
<g id="node21" class="node"><title>Node21</title>
<g id="a_node21"><a xlink:href="../../d4/d00/Headers_2include_2Headers_2Stack_8h.html" target="_top" xlink:title="Headers/Stack.h">
<polygon fill="none" stroke="black" points="1119,-130.5 1119,-149.5 1209,-149.5 1209,-130.5 1119,-130.5"/>
<text text-anchor="middle" x="1164" y="-137.5" font-family="Helvetica,sans-Serif" font-size="10.00">Headers/Stack.h</text>
</a>
</g>
</g>
<!-- Node18&#45;&gt;Node21 -->
<g id="edge30" class="edge"><title>Node18&#45;&gt;Node21</title>
<path fill="none" stroke="midnightblue" d="M959.457,-192.936C999.821,-182.698 1055.8,-168.496 1105,-156 1109.99,-154.732 1115.23,-153.402 1120.42,-152.081"/>
<polygon fill="midnightblue" stroke="midnightblue" points="1121.47,-155.425 1130.3,-149.57 1119.75,-148.641 1121.47,-155.425"/>
</g>
<!-- Node18&#45;&gt;Node29 -->
<g id="edge49" class="edge"><title>Node18&#45;&gt;Node29</title>
<path fill="none" stroke="midnightblue" d="M971.22,-198.03C1045.39,-188.064 1168.28,-171.348 1274,-156 1364.43,-142.872 1999.57,-58.5537 2087,-32 2089.28,-31.308 2091.6,-30.481 2093.9,-29.5759"/>
<polygon fill="midnightblue" stroke="midnightblue" points="2095.32,-32.7767 2103.08,-25.5611 2092.51,-26.3639 2095.32,-32.7767"/>
</g>
<!-- Node33 -->
<g id="node33" class="node"><title>Node33</title>
<polygon fill="none" stroke="#bfbfbf" points="1227,-130.5 1227,-149.5 1265,-149.5 1265,-130.5 1227,-130.5"/>
<text text-anchor="middle" x="1246" y="-137.5" font-family="Helvetica,sans-Serif" font-size="10.00">array</text>
</g>
<!-- Node18&#45;&gt;Node33 -->
<g id="edge45" class="edge"><title>Node18&#45;&gt;Node33</title>
<path fill="none" stroke="midnightblue" d="M971.093,-202.547C1035.74,-196.767 1135.61,-183.891 1218,-156 1219.65,-155.441 1221.32,-154.791 1222.98,-154.081"/>
<polygon fill="midnightblue" stroke="midnightblue" points="1224.73,-157.123 1232.17,-149.578 1221.65,-150.838 1224.73,-157.123"/>
</g>
<!-- Node34 -->
<g id="node34" class="node"><title>Node34</title>
<polygon fill="none" stroke="#bfbfbf" points="782,-130.5 782,-149.5 828,-149.5 828,-130.5 782,-130.5"/>
<text text-anchor="middle" x="805" y="-137.5" font-family="Helvetica,sans-Serif" font-size="10.00">variant</text>
</g>
<!-- Node18&#45;&gt;Node34 -->
<g id="edge48" class="edge"><title>Node18&#45;&gt;Node34</title>
<path fill="none" stroke="midnightblue" d="M882.518,-192.679C865.916,-181.611 843.044,-166.363 826.45,-155.3"/>
<polygon fill="midnightblue" stroke="midnightblue" points="828.219,-152.273 817.957,-149.638 824.336,-158.097 828.219,-152.273"/>
</g>
<!-- Node19&#45;&gt;Node4 -->
<g id="edge25" class="edge"><title>Node19&#45;&gt;Node4</title>
<path fill="none" stroke="midnightblue" d="M957.577,-124.861C960.692,-114.707 964.66,-100.64 967,-88 970.239,-70.5096 972.047,-50.2994 973.01,-35.925"/>
<polygon fill="midnightblue" stroke="midnightblue" points="976.511,-36.002 973.612,-25.8115 969.524,-35.5856 976.511,-36.002"/>
</g>
<!-- Node19&#45;&gt;Node8 -->
<g id="edge24" class="edge"><title>Node19&#45;&gt;Node8</title>
<path fill="none" stroke="midnightblue" d="M923.693,-124.933C902.981,-114.991 875.417,-101.76 855.193,-92.0526"/>
<polygon fill="midnightblue" stroke="midnightblue" points="856.447,-88.7721 845.917,-87.6 853.417,-95.0827 856.447,-88.7721"/>
</g>
<!-- Node19&#45;&gt;Node9 -->
<g id="edge27" class="edge"><title>Node19&#45;&gt;Node9</title>
<path fill="none" stroke="midnightblue" d="M888.232,-124.915C850.346,-115.929 801.882,-103.139 760,-88 740.178,-80.8351 737.129,-74.249 717,-68 624.889,-39.4049 595.536,-59.1889 503,-32 500.503,-31.2662 497.945,-30.4033 495.406,-29.4683"/>
<polygon fill="midnightblue" stroke="midnightblue" points="496.447,-26.1144 485.863,-25.626 493.832,-32.6078 496.447,-26.1144"/>
</g>
<!-- Node19&#45;&gt;Node10 -->
<g id="edge28" class="edge"><title>Node19&#45;&gt;Node10</title>
<path fill="none" stroke="midnightblue" d="M942.067,-124.777C930.697,-110.189 912.188,-87.0067 895,-68 883.999,-55.8349 870.904,-42.767 860.738,-32.905"/>
<polygon fill="midnightblue" stroke="midnightblue" points="862.943,-30.1697 853.309,-25.7616 858.091,-35.2156 862.943,-30.1697"/>
</g>
<!-- Node20 -->
<g id="node20" class="node"><title>Node20</title>
<polygon fill="none" stroke="#bfbfbf" points="1019.5,-68.5 1019.5,-87.5 1062.5,-87.5 1062.5,-68.5 1019.5,-68.5"/>
<text text-anchor="middle" x="1041" y="-75.5" font-family="Helvetica,sans-Serif" font-size="10.00">cstdio</text>
</g>
<!-- Node19&#45;&gt;Node20 -->
<g id="edge26" class="edge"><title>Node19&#45;&gt;Node20</title>
<path fill="none" stroke="midnightblue" d="M973.855,-124.781C987.78,-115.286 1006.03,-102.843 1019.99,-93.3267"/>
<polygon fill="midnightblue" stroke="midnightblue" points="1022.16,-96.0809 1028.45,-87.5557 1018.22,-90.2973 1022.16,-96.0809"/>
</g>
<!-- Node21&#45;&gt;Node8 -->
<g id="edge44" class="edge"><title>Node21&#45;&gt;Node8</title>
<path fill="none" stroke="midnightblue" d="M1118.69,-130.908C1058.49,-120.16 952.104,-101.161 886.081,-89.3717"/>
<polygon fill="midnightblue" stroke="midnightblue" points="886.305,-85.8562 875.845,-87.5438 885.074,-92.7472 886.305,-85.8562"/>
</g>
<!-- Node22 -->
<g id="node22" class="node"><title>Node22</title>
<g id="a_node22"><a xlink:href="../../dc/d03/MemoryResources_8h.html" target="_top" xlink:title="MemoryResources/MemoryResources.h">
<polygon fill="none" stroke="black" points="1344.5,-68.5 1344.5,-87.5 1537.5,-87.5 1537.5,-68.5 1344.5,-68.5"/>
<text text-anchor="middle" x="1441" y="-75.5" font-family="Helvetica,sans-Serif" font-size="10.00">MemoryResources/MemoryResources.h</text>
</a>
</g>
</g>
<!-- Node21&#45;&gt;Node22 -->
<g id="edge31" class="edge"><title>Node21&#45;&gt;Node22</title>
<path fill="none" stroke="midnightblue" d="M1193.33,-130.441C1201.3,-128.227 1209.96,-125.926 1218,-124 1274.06,-110.575 1338.69,-97.8302 1383.89,-89.3541"/>
<polygon fill="midnightblue" stroke="midnightblue" points="1384.61,-92.78 1393.8,-87.5057 1383.33,-85.8987 1384.61,-92.78"/>
</g>
<!-- Node22&#45;&gt;Node11 -->
<g id="edge36" class="edge"><title>Node22&#45;&gt;Node11</title>
<path fill="none" stroke="midnightblue" d="M1344.28,-72.2748C1221.09,-65.5637 1015.37,-51.8423 942,-32 939.651,-31.3648 937.262,-30.5664 934.902,-29.6707"/>
<polygon fill="midnightblue" stroke="midnightblue" points="936.104,-26.3769 925.537,-25.6091 933.318,-32.7989 936.104,-26.3769"/>
</g>
<!-- Node22&#45;&gt;Node14 -->
<g id="edge37" class="edge"><title>Node22&#45;&gt;Node14</title>
<path fill="none" stroke="midnightblue" d="M1344.26,-74.974C1108.94,-69.7185 519.523,-54.4739 433,-32 430.802,-31.4291 428.577,-30.6839 426.385,-29.831"/>
<polygon fill="midnightblue" stroke="midnightblue" points="427.716,-26.591 417.167,-25.607 424.8,-32.9547 427.716,-26.591"/>
</g>
<!-- Node23 -->
<g id="node23" class="node"><title>Node23</title>
<polygon fill="none" stroke="#bfbfbf" points="1845,-1 1845,-31 1945,-31 1945,-1 1845,-1"/>
<text text-anchor="start" x="1853" y="-19" font-family="Helvetica,sans-Serif" font-size="10.00">boost/container/flat</text>
<text text-anchor="middle" x="1895" y="-8" font-family="Helvetica,sans-Serif" font-size="10.00">_map.hpp</text>
</g>
<!-- Node22&#45;&gt;Node23 -->
<g id="edge32" class="edge"><title>Node22&#45;&gt;Node23</title>
<path fill="none" stroke="midnightblue" d="M1537.86,-69.5072C1615.51,-62.6727 1727.38,-50.9735 1834.66,-31.8952"/>
<polygon fill="midnightblue" stroke="midnightblue" points="1835.47,-35.3054 1844.69,-30.0868 1834.23,-28.4164 1835.47,-35.3054"/>
</g>
<!-- Node24 -->
<g id="node24" class="node"><title>Node24</title>
<polygon fill="none" stroke="#bfbfbf" points="1963,-1 1963,-31 2079,-31 2079,-1 1963,-1"/>
<text text-anchor="start" x="1971" y="-19" font-family="Helvetica,sans-Serif" font-size="10.00">boost/container/pmr</text>
<text text-anchor="middle" x="2021" y="-8" font-family="Helvetica,sans-Serif" font-size="10.00">/memory_resource.hpp</text>
</g>
<!-- Node22&#45;&gt;Node24 -->
<g id="edge33" class="edge"><title>Node22&#45;&gt;Node24</title>
<path fill="none" stroke="midnightblue" d="M1537.9,-72.3415C1639.07,-66.6033 1802.45,-54.8773 1952.65,-32.0727"/>
<polygon fill="midnightblue" stroke="midnightblue" points="1953.63,-35.4631 1962.99,-30.4832 1952.57,-28.5446 1953.63,-35.4631"/>
</g>
<!-- Node25 -->
<g id="node25" class="node"><title>Node25</title>
<polygon fill="none" stroke="#bfbfbf" points="1015,-1 1015,-31 1171,-31 1171,-1 1015,-1"/>
<text text-anchor="start" x="1023" y="-19" font-family="Helvetica,sans-Serif" font-size="10.00">boost/container/pmr</text>
<text text-anchor="middle" x="1093" y="-8" font-family="Helvetica,sans-Serif" font-size="10.00">/monotonic_buffer_resource.hpp</text>
</g>
<!-- Node22&#45;&gt;Node25 -->
<g id="edge34" class="edge"><title>Node22&#45;&gt;Node25</title>
<path fill="none" stroke="midnightblue" d="M1391.51,-68.4672C1336.89,-59.0505 1247.91,-43.7078 1181.27,-32.2198"/>
<polygon fill="midnightblue" stroke="midnightblue" points="1181.65,-28.7324 1171.2,-30.4824 1180.46,-35.6307 1181.65,-28.7324"/>
</g>
<!-- Node26 -->
<g id="node26" class="node"><title>Node26</title>
<polygon fill="none" stroke="#bfbfbf" points="1189.5,-1 1189.5,-31 1322.5,-31 1322.5,-1 1189.5,-1"/>
<text text-anchor="start" x="1197.5" y="-19" font-family="Helvetica,sans-Serif" font-size="10.00">boost/container/pmr</text>
<text text-anchor="middle" x="1256" y="-8" font-family="Helvetica,sans-Serif" font-size="10.00">/polymorphic_allocator.hpp</text>
</g>
<!-- Node22&#45;&gt;Node26 -->
<g id="edge35" class="edge"><title>Node22&#45;&gt;Node26</title>
<path fill="none" stroke="midnightblue" d="M1414.49,-68.4035C1387.12,-59.5263 1343.67,-45.4321 1309.17,-34.2453"/>
<polygon fill="midnightblue" stroke="midnightblue" points="1309.84,-30.7811 1299.24,-31.0253 1307.68,-37.4397 1309.84,-30.7811"/>
</g>
<!-- Node27 -->
<g id="node27" class="node"><title>Node27</title>
<polygon fill="none" stroke="#bfbfbf" points="1341,-6.5 1341,-25.5 1403,-25.5 1403,-6.5 1341,-6.5"/>
<text text-anchor="middle" x="1372" y="-13.5" font-family="Helvetica,sans-Serif" font-size="10.00">type_traits</text>
</g>
<!-- Node22&#45;&gt;Node27 -->
<g id="edge38" class="edge"><title>Node22&#45;&gt;Node27</title>
<path fill="none" stroke="midnightblue" d="M1431.11,-68.4035C1420.35,-59.047 1402.93,-43.8948 1389.78,-32.4599"/>
<polygon fill="midnightblue" stroke="midnightblue" points="1391.71,-29.5013 1381.87,-25.5806 1387.12,-34.7835 1391.71,-29.5013"/>
</g>
<!-- Node28 -->
<g id="node28" class="node"><title>Node28</title>
<polygon fill="none" stroke="#bfbfbf" points="1421,-6.5 1421,-25.5 1461,-25.5 1461,-6.5 1421,-6.5"/>
<text text-anchor="middle" x="1441" y="-13.5" font-family="Helvetica,sans-Serif" font-size="10.00">utility</text>
</g>
<!-- Node22&#45;&gt;Node28 -->
<g id="edge39" class="edge"><title>Node22&#45;&gt;Node28</title>
<path fill="none" stroke="midnightblue" d="M1441,-68.4035C1441,-59.9381 1441,-46.7283 1441,-35.8199"/>
<polygon fill="midnightblue" stroke="midnightblue" points="1444.5,-35.5806 1441,-25.5806 1437.5,-35.5806 1444.5,-35.5806"/>
</g>
<!-- Node22&#45;&gt;Node29 -->
<g id="edge40" class="edge"><title>Node22&#45;&gt;Node29</title>
<path fill="none" stroke="midnightblue" d="M1537.7,-72.2274C1704.94,-63.6813 2035.34,-45.4068 2087,-32 2089.49,-31.3526 2092.03,-30.5139 2094.53,-29.5641"/>
<polygon fill="midnightblue" stroke="midnightblue" points="2096.04,-32.7248 2103.81,-25.5198 2093.24,-26.3082 2096.04,-32.7248"/>
</g>
<!-- Node30 -->
<g id="node30" class="node"><title>Node30</title>
<polygon fill="none" stroke="#bfbfbf" points="1479.5,-6.5 1479.5,-25.5 1562.5,-25.5 1562.5,-6.5 1479.5,-6.5"/>
<text text-anchor="middle" x="1521" y="-13.5" font-family="Helvetica,sans-Serif" font-size="10.00">unordered_map</text>
</g>
<!-- Node22&#45;&gt;Node30 -->
<g id="edge41" class="edge"><title>Node22&#45;&gt;Node30</title>
<path fill="none" stroke="midnightblue" d="M1452.46,-68.4035C1465.17,-58.8688 1485.91,-43.3154 1501.25,-31.8106"/>
<polygon fill="midnightblue" stroke="midnightblue" points="1503.66,-34.3806 1509.56,-25.5806 1499.46,-28.7806 1503.66,-34.3806"/>
</g>
<!-- Node31 -->
<g id="node31" class="node"><title>Node31</title>
<polygon fill="none" stroke="#bfbfbf" points="1580.5,-6.5 1580.5,-25.5 1677.5,-25.5 1677.5,-6.5 1580.5,-6.5"/>
<text text-anchor="middle" x="1629" y="-13.5" font-family="Helvetica,sans-Serif" font-size="10.00">FairMQMessage.h</text>
</g>
<!-- Node22&#45;&gt;Node31 -->
<g id="edge42" class="edge"><title>Node22&#45;&gt;Node31</title>
<path fill="none" stroke="midnightblue" d="M1467.94,-68.4035C1500.6,-57.9777 1555.82,-40.3557 1592.34,-28.6992"/>
<polygon fill="midnightblue" stroke="midnightblue" points="1593.65,-31.9554 1602.11,-25.5806 1591.52,-25.2868 1593.65,-31.9554"/>
</g>
<!-- Node32 -->
<g id="node32" class="node"><title>Node32</title>
<polygon fill="none" stroke="#bfbfbf" points="1695.5,-6.5 1695.5,-25.5 1826.5,-25.5 1826.5,-6.5 1695.5,-6.5"/>
<text text-anchor="middle" x="1761" y="-13.5" font-family="Helvetica,sans-Serif" font-size="10.00">FairMQTransportFactory.h</text>
</g>
<!-- Node22&#45;&gt;Node32 -->
<g id="edge43" class="edge"><title>Node22&#45;&gt;Node32</title>
<path fill="none" stroke="midnightblue" d="M1488.93,-68.4274C1538.35,-59.5337 1617.62,-45.1169 1686,-32 1693.44,-30.5737 1701.28,-29.0387 1708.98,-27.5141"/>
<polygon fill="midnightblue" stroke="midnightblue" points="1709.85,-30.9096 1718.98,-25.526 1708.49,-24.0441 1709.85,-30.9096"/>
</g>
<!-- Node35&#45;&gt;Node6 -->
<g id="edge51" class="edge"><title>Node35&#45;&gt;Node6</title>
<path fill="none" stroke="midnightblue" d="M156.667,-198.372C164.565,-188.151 177.908,-170.884 187.897,-157.957"/>
<polygon fill="midnightblue" stroke="midnightblue" points="190.823,-159.894 194.168,-149.841 185.284,-155.614 190.823,-159.894"/>
</g>
<!-- Node35&#45;&gt;Node14 -->
<g id="edge53" class="edge"><title>Node35&#45;&gt;Node14</title>
<path fill="none" stroke="midnightblue" d="M143.857,-198.323C127.817,-174.518 88.1271,-107.351 121,-68 152.725,-30.0224 305.421,-20.2716 371.93,-17.8115"/>
<polygon fill="midnightblue" stroke="midnightblue" points="372.325,-21.3003 382.201,-17.4648 372.089,-14.3043 372.325,-21.3003"/>
</g>
<!-- Node35&#45;&gt;Node17 -->
<g id="edge52" class="edge"><title>Node35&#45;&gt;Node17</title>
<path fill="none" stroke="midnightblue" d="M133.528,-198.372C112.115,-187.156 74.5015,-167.453 49.4169,-154.314"/>
<polygon fill="midnightblue" stroke="midnightblue" points="50.9587,-151.17 40.4763,-149.63 47.7106,-157.371 50.9587,-151.17"/>
</g>
<!-- Node36&#45;&gt;Node5 -->
<g id="edge57" class="edge"><title>Node36&#45;&gt;Node5</title>
<path fill="none" stroke="midnightblue" d="M576.631,-130.403C542.079,-119.933 483.576,-102.205 445.115,-90.5501"/>
<polygon fill="midnightblue" stroke="midnightblue" points="445.901,-87.1311 435.316,-87.5806 443.871,-93.8303 445.901,-87.1311"/>
</g>
<!-- Node36&#45;&gt;Node14 -->
<g id="edge58" class="edge"><title>Node36&#45;&gt;Node14</title>
<path fill="none" stroke="midnightblue" d="M577.834,-130.371C552.482,-121.68 514.144,-106.869 484,-88 458.894,-72.2843 433.847,-48.8364 418.398,-33.2404"/>
<polygon fill="midnightblue" stroke="midnightblue" points="420.724,-30.6125 411.244,-25.8829 415.706,-35.4924 420.724,-30.6125"/>
</g>
<!-- Node36&#45;&gt;Node29 -->
<g id="edge59" class="edge"><title>Node36&#45;&gt;Node29</title>
<path fill="none" stroke="midnightblue" d="M681.89,-131.443C710.477,-128.816 743.2,-126.023 773,-124 1116.14,-100.702 1203.03,-113.716 1546,-88 1606.26,-83.4814 2028.77,-48.1623 2087,-32 2089.34,-31.3493 2091.73,-30.5402 2094.09,-29.6375"/>
<polygon fill="midnightblue" stroke="midnightblue" points="2095.68,-32.7634 2103.45,-25.5649 2092.89,-26.3443 2095.68,-32.7634"/>
</g>
<!-- Node36&#45;&gt;Node37 -->
<g id="edge55" class="edge"><title>Node36&#45;&gt;Node37</title>
<path fill="none" stroke="midnightblue" d="M607.149,-130.403C609.288,-121.849 612.638,-108.45 615.381,-97.4762"/>
<polygon fill="midnightblue" stroke="midnightblue" points="618.825,-98.1309 617.855,-87.5806 612.034,-96.4331 618.825,-98.1309"/>
</g>
<!-- Node38 -->
<g id="node38" class="node"><title>Node38</title>
<polygon fill="none" stroke="#bfbfbf" points="493.5,-68.5 493.5,-87.5 546.5,-87.5 546.5,-68.5 493.5,-68.5"/>
<text text-anchor="middle" x="520" y="-75.5" font-family="Helvetica,sans-Serif" font-size="10.00">gsl/span</text>
</g>
<!-- Node36&#45;&gt;Node38 -->
<g id="edge60" class="edge"><title>Node36&#45;&gt;Node38</title>
<path fill="none" stroke="midnightblue" d="M592.822,-130.403C579.188,-120.78 556.868,-105.024 540.526,-93.4891"/>
<polygon fill="midnightblue" stroke="midnightblue" points="542.344,-90.4881 532.156,-87.5806 538.307,-96.2069 542.344,-90.4881"/>
</g>
<!-- Node37&#45;&gt;Node9 -->
<g id="edge56" class="edge"><title>Node37&#45;&gt;Node9</title>
<path fill="none" stroke="midnightblue" d="M597.032,-68.4587C573.368,-59.5899 535.46,-45.1926 503,-32 501.117,-31.2346 499.181,-30.4366 497.232,-29.625"/>
<polygon fill="midnightblue" stroke="midnightblue" points="498.141,-26.2093 487.567,-25.5401 495.416,-32.6571 498.141,-26.2093"/>
</g>
<!-- Node39&#45;&gt;Node4 -->
<g id="edge64" class="edge"><title>Node39&#45;&gt;Node4</title>
<path fill="none" stroke="midnightblue" d="M1907.4,-75.3013C1697.44,-70.0939 1092.6,-53.4008 1006,-32 1003.5,-31.3818 1000.96,-30.5626 998.454,-29.6252"/>
<polygon fill="midnightblue" stroke="midnightblue" points="999.741,-26.3682 989.174,-25.5979 996.954,-32.7896 999.741,-26.3682"/>
</g>
<!-- Node39&#45;&gt;Node29 -->
<g id="edge63" class="edge"><title>Node39&#45;&gt;Node29</title>
<path fill="none" stroke="midnightblue" d="M2000.22,-68.4751C2022.09,-59.6194 2057.09,-45.2324 2087,-32 2088.58,-31.3002 2090.2,-30.5727 2091.84,-29.832"/>
<polygon fill="midnightblue" stroke="midnightblue" points="2093.51,-32.9148 2101.12,-25.5475 2090.58,-26.5586 2093.51,-32.9148"/>
</g>
<!-- Node40 -->
<g id="node40" class="node"><title>Node40</title>
<g id="a_node40"><a xlink:href="../../d1/daa/TimesliceIndex_8inl.html" target="_top" xlink:title="TimesliceIndex.inl">
<polygon fill="none" stroke="black" points="2159.5,-6.5 2159.5,-25.5 2254.5,-25.5 2254.5,-6.5 2159.5,-6.5"/>
<text text-anchor="middle" x="2207" y="-13.5" font-family="Helvetica,sans-Serif" font-size="10.00">TimesliceIndex.inl</text>
</a>
</g>
</g>
<!-- Node39&#45;&gt;Node40 -->
<g id="edge65" class="edge"><title>Node39&#45;&gt;Node40</title>
<path fill="none" stroke="midnightblue" d="M2011.67,-68.4035C2051.88,-57.8217 2120.26,-39.8269 2164.52,-28.1802"/>
<polygon fill="midnightblue" stroke="midnightblue" points="2165.61,-31.5104 2174.39,-25.5806 2163.83,-24.7408 2165.61,-31.5104"/>
</g>
</g>
</svg>
        <g id="navigator" transform="translate(0 0)" fill="#404254">
                <rect fill="#f2f5e9" fill-opacity="0.5" stroke="#606060" stroke-width=".5" x="0" y="0" width="60" height="60"/>
                <use id="zoomplus" xlink:href="#zoomPlus" x="17" y="9" onmousedown="handleZoom(evt,'in')"/>
                <use id="zoomminus" xlink:href="#zoomMin" x="42" y="9" onmousedown="handleZoom(evt,'out')"/>
                <use id="reset" xlink:href="#resetDef" x="30" y="36" onmousedown="handleReset()"/>
                <g id="arrowUp" xlink:href="#dirArrow" transform="translate(30 24)" onmousedown="handlePan(0,-1)">
                  <use xlink:href="#rim" fill="#404040">
                        <set attributeName="fill" to="#808080" begin="arrowUp.mouseover" end="arrowUp.mouseout"/>
                  </use>
                  <path fill="none" stroke="white" stroke-width="1.5" d="M0,-3.0v7 M-2.5,-0.5L0,-3.0L2.5,-0.5"/>
                </g>
                <g id="arrowRight" xlink:href="#dirArrow" transform="rotate(90) translate(36 -43)" onmousedown="handlePan(1,0)">
                  <use xlink:href="#rim" fill="#404040">
                        <set attributeName="fill" to="#808080" begin="arrowRight.mouseover" end="arrowRight.mouseout"/>
                  </use>
                  <path fill="none" stroke="white" stroke-width="1.5" d="M0,-3.0v7 M-2.5,-0.5L0,-3.0L2.5,-0.5"/>
                </g>
                <g id="arrowDown" xlink:href="#dirArrow" transform="rotate(180) translate(-30 -48)" onmousedown="handlePan(0,1)">
                  <use xlink:href="#rim" fill="#404040">
                        <set attributeName="fill" to="#808080" begin="arrowDown.mouseover" end="arrowDown.mouseout"/>
                  </use>
                  <path fill="none" stroke="white" stroke-width="1.5" d="M0,-3.0v7 M-2.5,-0.5L0,-3.0L2.5,-0.5"/>
                </g>
                <g id="arrowLeft" xlink:href="#dirArrow" transform="rotate(270) translate(-36 17)" onmousedown="handlePan(-1,0)">
                  <use xlink:href="#rim" fill="#404040">
                        <set attributeName="fill" to="#808080" begin="arrowLeft.mouseover" end="arrowLeft.mouseout"/>
                  </use>
                  <path fill="none" stroke="white" stroke-width="1.5" d="M0,-3.0v7 M-2.5,-0.5L0,-3.0L2.5,-0.5"/>
                </g>
        </g>
        <svg viewBox="0 0 15 15" width="100%" height="30px" preserveAspectRatio="xMaxYMin meet">
         <g id="arrow_out" transform="scale(0.3 0.3)">
          <a xlink:href="DataRelayer_8h__incl_org.svg" target="_base">
           <rect id="button" ry="5" rx="5" y="6" x="6" height="38" width="38"
                fill="#f2f5e9" fill-opacity="0.5" stroke="#606060" stroke-width="1.0"/>
           <path id="arrow"
             d="M 11.500037,31.436501 C 11.940474,20.09759 22.043105,11.32322 32.158766,21.979434 L 37.068811,17.246167 C 37.068811,17.246167 37.088388,32 37.088388,32 L 22.160133,31.978069 C 22.160133,31.978069 26.997745,27.140456 26.997745,27.140456 C 18.528582,18.264221 13.291696,25.230495 11.500037,31.436501 z"
             style="fill:#404040;"/>
          </a>
         </g>
        </svg>
</svg>
