<?xml version="1.0" encoding="UTF-8" standalone="no"?>
<!DOCTYPE svg PUBLIC "-//W3C//DTD SVG 1.1//EN"
 "http://www.w3.org/Graphics/SVG/1.1/DTD/svg11.dtd">
<!-- Generated by graphviz version 2.36.0 (20140111.2315)
 -->
<!-- Title: /home/travis/build/AliceO2Group/AliceO2/macro/CheckClusters_mft.C Pages: 1 -->
<svg width="2553pt" height="446pt"
 viewBox="0.00 0.00 2553.00 446.00" xmlns="http://www.w3.org/2000/svg" xmlns:xlink="http://www.w3.org/1999/xlink">
<g id="graph0" class="graph" transform="scale(1 1) rotate(0) translate(4 442)">
<title>/home/travis/build/AliceO2Group/AliceO2/macro/CheckClusters_mft.C</title>
<!-- Node1 -->
<g id="node1" class="node"><title>Node1</title>
<polygon fill="#bfbfbf" stroke="black" points="373.5,-396.5 373.5,-437.5 518.5,-437.5 518.5,-396.5 373.5,-396.5"/>
<text text-anchor="start" x="381.5" y="-425.5" font-family="Helvetica,sans-Serif" font-size="10.00">/home/travis/build</text>
<text text-anchor="start" x="381.5" y="-414.5" font-family="Helvetica,sans-Serif" font-size="10.00">/AliceO2Group/AliceO2</text>
<text text-anchor="middle" x="446" y="-403.5" font-family="Helvetica,sans-Serif" font-size="10.00">/macro/CheckClusters_mft.C</text>
</g>
<!-- Node2 -->
<g id="node2" class="node"><title>Node2</title>
<polygon fill="none" stroke="#bfbfbf" points="-0.5,-340.5 -0.5,-359.5 64.5,-359.5 64.5,-340.5 -0.5,-340.5"/>
<text text-anchor="middle" x="32" y="-347.5" font-family="Helvetica,sans-Serif" font-size="10.00">TCanvas.h</text>
</g>
<!-- Node1&#45;&gt;Node2 -->
<g id="edge1" class="edge"><title>Node1&#45;&gt;Node2</title>
<path fill="none" stroke="midnightblue" d="M373.207,-406.542C300.06,-396.705 183.888,-380.173 74.5166,-360.189"/>
<polygon fill="midnightblue" stroke="midnightblue" points="75.102,-356.738 64.6337,-358.37 73.835,-363.622 75.102,-356.738"/>
</g>
<!-- Node3 -->
<g id="node3" class="node"><title>Node3</title>
<polygon fill="none" stroke="#bfbfbf" points="82.5,-340.5 82.5,-359.5 129.5,-359.5 129.5,-340.5 82.5,-340.5"/>
<text text-anchor="middle" x="106" y="-347.5" font-family="Helvetica,sans-Serif" font-size="10.00">TFile.h</text>
</g>
<!-- Node1&#45;&gt;Node3 -->
<g id="edge2" class="edge"><title>Node1&#45;&gt;Node3</title>
<path fill="none" stroke="midnightblue" d="M373.38,-404.559C313.263,-394.674 225.454,-379.284 139.643,-359.983"/>
<polygon fill="midnightblue" stroke="midnightblue" points="140.258,-356.534 129.732,-357.734 138.709,-363.36 140.258,-356.534"/>
</g>
<!-- Node4 -->
<g id="node4" class="node"><title>Node4</title>
<polygon fill="none" stroke="#bfbfbf" points="148,-340.5 148,-359.5 198,-359.5 198,-340.5 148,-340.5"/>
<text text-anchor="middle" x="173" y="-347.5" font-family="Helvetica,sans-Serif" font-size="10.00">TH2F.h</text>
</g>
<!-- Node1&#45;&gt;Node4 -->
<g id="edge3" class="edge"><title>Node1&#45;&gt;Node4</title>
<path fill="none" stroke="midnightblue" d="M373.256,-399.293C326.085,-388.358 263.334,-373.623 208,-360 207.901,-359.976 207.802,-359.951 207.703,-359.927"/>
<polygon fill="midnightblue" stroke="midnightblue" points="208.77,-356.586 198.219,-357.551 207.069,-363.376 208.77,-356.586"/>
</g>
<!-- Node5 -->
<g id="node5" class="node"><title>Node5</title>
<polygon fill="none" stroke="#bfbfbf" points="216.5,-340.5 216.5,-359.5 275.5,-359.5 275.5,-340.5 216.5,-340.5"/>
<text text-anchor="middle" x="246" y="-347.5" font-family="Helvetica,sans-Serif" font-size="10.00">TNtuple.h</text>
</g>
<!-- Node1&#45;&gt;Node5 -->
<g id="edge4" class="edge"><title>Node1&#45;&gt;Node5</title>
<path fill="none" stroke="midnightblue" d="M385.993,-396.498C352.131,-385.493 310.943,-372.106 282.039,-362.713"/>
<polygon fill="midnightblue" stroke="midnightblue" points="282.952,-359.329 272.36,-359.567 280.789,-365.987 282.952,-359.329"/>
</g>
<!-- Node6 -->
<g id="node6" class="node"><title>Node6</title>
<polygon fill="none" stroke="#bfbfbf" points="294,-340.5 294,-359.5 350,-359.5 350,-340.5 294,-340.5"/>
<text text-anchor="middle" x="322" y="-347.5" font-family="Helvetica,sans-Serif" font-size="10.00">TString.h</text>
</g>
<!-- Node1&#45;&gt;Node6 -->
<g id="edge5" class="edge"><title>Node1&#45;&gt;Node6</title>
<path fill="none" stroke="midnightblue" d="M408.796,-396.498C389.053,-386.149 365.294,-373.695 347.629,-364.435"/>
<polygon fill="midnightblue" stroke="midnightblue" points="348.988,-361.195 338.506,-359.652 345.738,-367.395 348.988,-361.195"/>
</g>
<!-- Node7 -->
<g id="node7" class="node"><title>Node7</title>
<polygon fill="none" stroke="#bfbfbf" points="368,-340.5 368,-359.5 418,-359.5 418,-340.5 368,-340.5"/>
<text text-anchor="middle" x="393" y="-347.5" font-family="Helvetica,sans-Serif" font-size="10.00">TTree.h</text>
</g>
<!-- Node1&#45;&gt;Node7 -->
<g id="edge6" class="edge"><title>Node1&#45;&gt;Node7</title>
<path fill="none" stroke="midnightblue" d="M430.098,-396.498C422.597,-387.299 413.74,-376.436 406.562,-367.632"/>
<polygon fill="midnightblue" stroke="midnightblue" points="409.087,-365.191 400.055,-359.652 403.662,-369.614 409.087,-365.191"/>
</g>
<!-- Node8 -->
<g id="node8" class="node"><title>Node8</title>
<g id="a_node8"><a xlink:href="../../d1/d62/DataFormats_2Detectors_2ITSMFT_2common_2include_2DataFormatsITSMFT_2Cluster_8h.html" target="_top" xlink:title="DataFormatsITSMFT/Cluster.h">
<polygon fill="none" stroke="black" points="474,-340.5 474,-359.5 626,-359.5 626,-340.5 474,-340.5"/>
<text text-anchor="middle" x="550" y="-347.5" font-family="Helvetica,sans-Serif" font-size="10.00">DataFormatsITSMFT/Cluster.h</text>
</a>
</g>
</g>
<!-- Node1&#45;&gt;Node8 -->
<g id="edge7" class="edge"><title>Node1&#45;&gt;Node8</title>
<path fill="none" stroke="midnightblue" d="M477.203,-396.498C493.302,-386.436 512.584,-374.385 527.258,-365.214"/>
<polygon fill="midnightblue" stroke="midnightblue" points="529.531,-367.921 536.156,-359.652 525.821,-361.985 529.531,-367.921"/>
</g>
<!-- Node24 -->
<g id="node24" class="node"><title>Node24</title>
<g id="a_node24"><a xlink:href="../../d9/d52/Common_2MathUtils_2include_2MathUtils_2Utils_8h.html" target="_top" xlink:title="MathUtils/Utils.h">
<polygon fill="none" stroke="black" points="211,-74.5 211,-93.5 301,-93.5 301,-74.5 211,-74.5"/>
<text text-anchor="middle" x="256" y="-81.5" font-family="Helvetica,sans-Serif" font-size="10.00">MathUtils/Utils.h</text>
</a>
</g>
</g>
<!-- Node1&#45;&gt;Node24 -->
<g id="edge58" class="edge"><title>Node1&#45;&gt;Node24</title>
<path fill="none" stroke="midnightblue" d="M444.22,-396.411C442.054,-380.33 437.309,-357.447 427,-340 392.443,-281.518 353.213,-292.162 315,-236 285.798,-193.082 268.049,-133.627 260.408,-103.741"/>
<polygon fill="midnightblue" stroke="midnightblue" points="263.758,-102.705 257.971,-93.8303 256.96,-104.377 263.758,-102.705"/>
</g>
<!-- Node27 -->
<g id="node27" class="node"><title>Node27</title>
<g id="a_node27"><a xlink:href="../../dd/d76/Cartesian3D_8h.html" target="_top" xlink:title="MathUtils/Cartesian3D.h">
<polygon fill="none" stroke="black" points="865.5,-142.5 865.5,-161.5 990.5,-161.5 990.5,-142.5 865.5,-142.5"/>
<text text-anchor="middle" x="928" y="-149.5" font-family="Helvetica,sans-Serif" font-size="10.00">MathUtils/Cartesian3D.h</text>
</a>
</g>
</g>
<!-- Node1&#45;&gt;Node27 -->
<g id="edge57" class="edge"><title>Node1&#45;&gt;Node27</title>
<path fill="none" stroke="midnightblue" d="M518.796,-405.47C592.523,-391.942 707.062,-362.804 789,-304 844.092,-264.462 894.091,-200.259 916.123,-169.914"/>
<polygon fill="midnightblue" stroke="midnightblue" points="919.065,-171.818 922.037,-161.648 913.372,-167.744 919.065,-171.818"/>
</g>
<!-- Node37 -->
<g id="node37" class="node"><title>Node37</title>
<g id="a_node37"><a xlink:href="../../d0/dae/ITSMFT_2common_2simulation_2include_2ITSMFTSimulation_2Hit_8h.html" target="_top" xlink:title="ITSMFTSimulation/Hit.h">
<polygon fill="none" stroke="black" points="957,-278.5 957,-297.5 1079,-297.5 1079,-278.5 957,-278.5"/>
<text text-anchor="middle" x="1018" y="-285.5" font-family="Helvetica,sans-Serif" font-size="10.00">ITSMFTSimulation/Hit.h</text>
</a>
</g>
</g>
<!-- Node1&#45;&gt;Node37 -->
<g id="edge43" class="edge"><title>Node1&#45;&gt;Node37</title>
<path fill="none" stroke="midnightblue" d="M518.83,-416.474C610.681,-414.968 772.281,-405.263 902,-360 939.424,-346.941 977.647,-320.479 999.529,-303.807"/>
<polygon fill="midnightblue" stroke="midnightblue" points="1001.85,-306.435 1007.6,-297.534 997.555,-300.908 1001.85,-306.435"/>
</g>
<!-- Node46 -->
<g id="node46" class="node"><title>Node46</title>
<polygon fill="none" stroke="#bfbfbf" points="1774.5,-340.5 1774.5,-359.5 1911.5,-359.5 1911.5,-340.5 1774.5,-340.5"/>
<text text-anchor="middle" x="1843" y="-347.5" font-family="Helvetica,sans-Serif" font-size="10.00">MFTBase/GeometryTGeo.h</text>
</g>
<!-- Node1&#45;&gt;Node46 -->
<g id="edge56" class="edge"><title>Node1&#45;&gt;Node46</title>
<path fill="none" stroke="midnightblue" d="M518.746,-414.57C717.707,-410.297 1287.55,-395.644 1760,-360 1761.3,-359.902 1762.61,-359.8 1763.93,-359.693"/>
<polygon fill="midnightblue" stroke="midnightblue" points="1764.53,-363.155 1774.19,-358.812 1763.93,-356.181 1764.53,-363.155"/>
</g>
<!-- Node47 -->
<g id="node47" class="node"><title>Node47</title>
<g id="a_node47"><a xlink:href="../../d7/dcd/MCCompLabel_8h.html" target="_top" xlink:title="SimulationDataFormat\l/MCCompLabel.h">
<polygon fill="none" stroke="black" points="666,-273 666,-303 780,-303 780,-273 666,-273"/>
<text text-anchor="start" x="674" y="-291" font-family="Helvetica,sans-Serif" font-size="10.00">SimulationDataFormat</text>
<text text-anchor="middle" x="723" y="-280" font-family="Helvetica,sans-Serif" font-size="10.00">/MCCompLabel.h</text>
</a>
</g>
</g>
<!-- Node1&#45;&gt;Node47 -->
<g id="edge59" class="edge"><title>Node1&#45;&gt;Node47</title>
<path fill="none" stroke="midnightblue" d="M518.562,-401.542C554.839,-392.588 598.64,-379.09 635,-360 659.944,-346.904 684.577,-326.177 701.408,-310.492"/>
<polygon fill="midnightblue" stroke="midnightblue" points="704.183,-312.682 709.012,-303.252 699.356,-307.613 704.183,-312.682"/>
</g>
<!-- Node48 -->
<g id="node48" class="node"><title>Node48</title>
<g id="a_node48"><a xlink:href="../../db/d14/MCTruthContainer_8h.html" target="_top" xlink:title="Definition of a container to keep Monte Carlo truth external to simulation objects. ">
<polygon fill="none" stroke="black" points="2275,-137 2275,-167 2389,-167 2389,-137 2275,-137"/>
<text text-anchor="start" x="2283" y="-155" font-family="Helvetica,sans-Serif" font-size="10.00">SimulationDataFormat</text>
<text text-anchor="middle" x="2332" y="-144" font-family="Helvetica,sans-Serif" font-size="10.00">/MCTruthContainer.h</text>
</a>
</g>
</g>
<!-- Node1&#45;&gt;Node48 -->
<g id="edge61" class="edge"><title>Node1&#45;&gt;Node48</title>
<path fill="none" stroke="midnightblue" d="M518.735,-408.455C614.503,-398.345 788.07,-379.415 936,-360 1448.17,-292.779 2063.59,-195.879 2264.8,-163.779"/>
<polygon fill="midnightblue" stroke="midnightblue" points="2265.59,-167.197 2274.92,-162.164 2264.49,-160.284 2265.59,-167.197"/>
</g>
<!-- Node9 -->
<g id="node9" class="node"><title>Node9</title>
<g id="a_node9"><a xlink:href="../../d4/de2/BaseCluster_8h.html" target="_top" xlink:title="ReconstructionDataFormats\l/BaseCluster.h">
<polygon fill="none" stroke="black" points="468,-273 468,-303 608,-303 608,-273 468,-273"/>
<text text-anchor="start" x="476" y="-291" font-family="Helvetica,sans-Serif" font-size="10.00">ReconstructionDataFormats</text>
<text text-anchor="middle" x="538" y="-280" font-family="Helvetica,sans-Serif" font-size="10.00">/BaseCluster.h</text>
</a>
</g>
</g>
<!-- Node8&#45;&gt;Node9 -->
<g id="edge8" class="edge"><title>Node8&#45;&gt;Node9</title>
<path fill="none" stroke="midnightblue" d="M548.281,-340.403C546.853,-333.265 544.75,-322.752 542.818,-313.09"/>
<polygon fill="midnightblue" stroke="midnightblue" points="546.221,-312.26 540.828,-303.141 539.357,-313.633 546.221,-312.26"/>
</g>
<!-- Node10 -->
<g id="node10" class="node"><title>Node10</title>
<polygon fill="none" stroke="#bfbfbf" points="439.5,-210.5 439.5,-229.5 498.5,-229.5 498.5,-210.5 439.5,-210.5"/>
<text text-anchor="middle" x="469" y="-217.5" font-family="Helvetica,sans-Serif" font-size="10.00">TObject.h</text>
</g>
<!-- Node9&#45;&gt;Node10 -->
<g id="edge9" class="edge"><title>Node9&#45;&gt;Node10</title>
<path fill="none" stroke="midnightblue" d="M523.028,-272.679C512.056,-262.184 497.156,-247.932 485.782,-237.052"/>
<polygon fill="midnightblue" stroke="midnightblue" points="487.875,-234.211 478.23,-229.828 483.037,-239.27 487.875,-234.211"/>
</g>
<!-- Node11 -->
<g id="node11" class="node"><title>Node11</title>
<polygon fill="none" stroke="#bfbfbf" points="319.5,-74.5 319.5,-93.5 360.5,-93.5 360.5,-74.5 319.5,-74.5"/>
<text text-anchor="middle" x="340" y="-81.5" font-family="Helvetica,sans-Serif" font-size="10.00">bitset</text>
</g>
<!-- Node9&#45;&gt;Node11 -->
<g id="edge10" class="edge"><title>Node9&#45;&gt;Node11</title>
<path fill="none" stroke="midnightblue" d="M536.765,-272.988C534.356,-254.406 527.326,-221.881 507,-204 454.225,-157.573 400.823,-219.514 353,-168 336.982,-150.746 335.995,-122.253 337.453,-103.553"/>
<polygon fill="midnightblue" stroke="midnightblue" points="340.934,-103.917 338.531,-93.5979 333.974,-103.163 340.934,-103.917"/>
</g>
<!-- Node12 -->
<g id="node12" class="node"><title>Node12</title>
<polygon fill="none" stroke="#bfbfbf" points="324,-210.5 324,-229.5 374,-229.5 374,-210.5 324,-210.5"/>
<text text-anchor="middle" x="349" y="-217.5" font-family="Helvetica,sans-Serif" font-size="10.00">iomanip</text>
</g>
<!-- Node9&#45;&gt;Node12 -->
<g id="edge11" class="edge"><title>Node9&#45;&gt;Node12</title>
<path fill="none" stroke="midnightblue" d="M492.158,-272.944C461.344,-263.222 419.948,-249.627 384,-236 381.891,-235.2 379.721,-234.347 377.546,-233.469"/>
<polygon fill="midnightblue" stroke="midnightblue" points="378.713,-230.164 368.136,-229.549 376.021,-236.626 378.713,-230.164"/>
</g>
<!-- Node13 -->
<g id="node13" class="node"><title>Node13</title>
<polygon fill="none" stroke="#bfbfbf" points="392.5,-210.5 392.5,-229.5 421.5,-229.5 421.5,-210.5 392.5,-210.5"/>
<text text-anchor="middle" x="407" y="-217.5" font-family="Helvetica,sans-Serif" font-size="10.00">ios</text>
</g>
<!-- Node9&#45;&gt;Node13 -->
<g id="edge12" class="edge"><title>Node9&#45;&gt;Node13</title>
<path fill="none" stroke="midnightblue" d="M506.157,-272.974C484.624,-263.211 455.719,-249.558 431,-236 430.321,-235.628 429.636,-235.245 428.946,-234.853"/>
<polygon fill="midnightblue" stroke="midnightblue" points="430.421,-231.658 420.043,-229.527 426.828,-237.665 430.421,-231.658"/>
</g>
<!-- Node14 -->
<g id="node14" class="node"><title>Node14</title>
<polygon fill="none" stroke="#bfbfbf" points="1713.5,-74.5 1713.5,-93.5 1758.5,-93.5 1758.5,-74.5 1713.5,-74.5"/>
<text text-anchor="middle" x="1736" y="-81.5" font-family="Helvetica,sans-Serif" font-size="10.00">iosfwd</text>
</g>
<!-- Node9&#45;&gt;Node14 -->
<g id="edge13" class="edge"><title>Node9&#45;&gt;Node14</title>
<path fill="none" stroke="midnightblue" d="M608.117,-277.79C624.169,-275.785 641.166,-273.744 657,-272 826.505,-253.334 873.518,-277.184 1039,-236 1074.96,-227.05 1080.43,-214.401 1116,-204 1370.72,-129.52 1450.99,-180.124 1704,-100 1706.14,-99.3227 1708.32,-98.5329 1710.49,-97.6766"/>
<polygon fill="midnightblue" stroke="midnightblue" points="1711.96,-100.851 1719.72,-93.6387 1709.16,-94.4364 1711.96,-100.851"/>
</g>
<!-- Node15 -->
<g id="node15" class="node"><title>Node15</title>
<g id="a_node15"><a xlink:href="../../d4/d20/DetMatrixCache_8h.html" target="_top" xlink:title="DetectorsCommonDataFormats\l/DetMatrixCache.h">
<polygon fill="none" stroke="black" points="555,-205 555,-235 711,-235 711,-205 555,-205"/>
<text text-anchor="start" x="563" y="-223" font-family="Helvetica,sans-Serif" font-size="10.00">DetectorsCommonDataFormats</text>
<text text-anchor="middle" x="633" y="-212" font-family="Helvetica,sans-Serif" font-size="10.00">/DetMatrixCache.h</text>
</a>
</g>
</g>
<!-- Node9&#45;&gt;Node15 -->
<g id="edge14" class="edge"><title>Node9&#45;&gt;Node15</title>
<path fill="none" stroke="midnightblue" d="M558.614,-272.679C572.025,-263.361 589.701,-251.082 604.457,-240.83"/>
<polygon fill="midnightblue" stroke="midnightblue" points="606.537,-243.646 612.753,-235.066 602.543,-237.898 606.537,-243.646"/>
</g>
<!-- Node9&#45;&gt;Node27 -->
<g id="edge42" class="edge"><title>Node9&#45;&gt;Node27</title>
<path fill="none" stroke="midnightblue" d="M594.229,-272.899C630.438,-263.413 678.351,-250.101 720,-236 785.013,-213.989 859.275,-182.865 899.112,-165.664"/>
<polygon fill="midnightblue" stroke="midnightblue" points="900.69,-168.794 908.472,-161.605 897.905,-162.372 900.69,-168.794"/>
</g>
<!-- Node16 -->
<g id="node16" class="node"><title>Node16</title>
<polygon fill="none" stroke="#bfbfbf" points="574.5,-142.5 574.5,-161.5 645.5,-161.5 645.5,-142.5 574.5,-142.5"/>
<text text-anchor="middle" x="610" y="-149.5" font-family="Helvetica,sans-Serif" font-size="10.00">FairLogger.h</text>
</g>
<!-- Node15&#45;&gt;Node16 -->
<g id="edge15" class="edge"><title>Node15&#45;&gt;Node16</title>
<path fill="none" stroke="midnightblue" d="M628.009,-204.679C624.601,-194.898 620.054,-181.852 616.382,-171.315"/>
<polygon fill="midnightblue" stroke="midnightblue" points="619.672,-170.12 613.077,-161.828 613.062,-172.423 619.672,-170.12"/>
</g>
<!-- Node17 -->
<g id="node17" class="node"><title>Node17</title>
<polygon fill="none" stroke="#bfbfbf" points="370,-6.5 370,-25.5 408,-25.5 408,-6.5 370,-6.5"/>
<text text-anchor="middle" x="389" y="-13.5" font-family="Helvetica,sans-Serif" font-size="10.00">array</text>
</g>
<!-- Node15&#45;&gt;Node17 -->
<g id="edge16" class="edge"><title>Node15&#45;&gt;Node17</title>
<path fill="none" stroke="midnightblue" d="M612.671,-204.876C599.02,-195.071 580.877,-181.407 566,-168 520.688,-127.165 519.29,-106.528 472,-68 454.078,-53.3984 431.632,-39.85 414.602,-30.3928"/>
<polygon fill="midnightblue" stroke="midnightblue" points="416.218,-27.2875 405.762,-25.579 412.871,-33.4351 416.218,-27.2875"/>
</g>
<!-- Node18 -->
<g id="node18" class="node"><title>Node18</title>
<polygon fill="none" stroke="#bfbfbf" points="664,-142.5 664,-161.5 708,-161.5 708,-142.5 664,-142.5"/>
<text text-anchor="middle" x="686" y="-149.5" font-family="Helvetica,sans-Serif" font-size="10.00">vector</text>
</g>
<!-- Node15&#45;&gt;Node18 -->
<g id="edge17" class="edge"><title>Node15&#45;&gt;Node18</title>
<path fill="none" stroke="midnightblue" d="M644.5,-204.679C652.764,-194.388 663.93,-180.484 672.598,-169.69"/>
<polygon fill="midnightblue" stroke="midnightblue" points="675.378,-171.817 678.911,-161.828 669.92,-167.434 675.378,-171.817"/>
</g>
<!-- Node19 -->
<g id="node19" class="node"><title>Node19</title>
<g id="a_node19"><a xlink:href="../../d6/d31/DetID_8h.html" target="_top" xlink:title="DetectorsCommonDataFormats\l/DetID.h">
<polygon fill="none" stroke="black" points="362,-137 362,-167 518,-167 518,-137 362,-137"/>
<text text-anchor="start" x="370" y="-155" font-family="Helvetica,sans-Serif" font-size="10.00">DetectorsCommonDataFormats</text>
<text text-anchor="middle" x="440" y="-144" font-family="Helvetica,sans-Serif" font-size="10.00">/DetID.h</text>
</a>
</g>
</g>
<!-- Node15&#45;&gt;Node19 -->
<g id="edge18" class="edge"><title>Node15&#45;&gt;Node19</title>
<path fill="none" stroke="midnightblue" d="M591.597,-204.841C561.985,-194.715 521.965,-181.03 490.48,-170.262"/>
<polygon fill="midnightblue" stroke="midnightblue" points="491.598,-166.946 481.003,-167.022 489.333,-173.569 491.598,-166.946"/>
</g>
<!-- Node20 -->
<g id="node20" class="node"><title>Node20</title>
<polygon fill="none" stroke="#bfbfbf" points="519,-74.5 519,-93.5 575,-93.5 575,-74.5 519,-74.5"/>
<text text-anchor="middle" x="547" y="-81.5" font-family="Helvetica,sans-Serif" font-size="10.00">Rtypes.h</text>
</g>
<!-- Node15&#45;&gt;Node20 -->
<g id="edge41" class="edge"><title>Node15&#45;&gt;Node20</title>
<path fill="none" stroke="midnightblue" d="M672.595,-204.866C689.101,-196.782 706.589,-184.828 716,-168 722.942,-155.587 724.633,-147.302 716,-136 679.089,-87.6744 641.612,-119.458 584,-100 581.441,-99.1357 578.804,-98.187 576.171,-97.1995"/>
<polygon fill="midnightblue" stroke="midnightblue" points="577.395,-93.9201 566.807,-93.5356 574.844,-100.439 577.395,-93.9201"/>
</g>
<!-- Node15&#45;&gt;Node27 -->
<g id="edge29" class="edge"><title>Node15&#45;&gt;Node27</title>
<path fill="none" stroke="midnightblue" d="M695.923,-204.922C751.015,-192.597 829.882,-174.952 880.012,-163.736"/>
<polygon fill="midnightblue" stroke="midnightblue" points="880.952,-167.113 889.946,-161.514 879.423,-160.282 880.952,-167.113"/>
</g>
<!-- Node19&#45;&gt;Node11 -->
<g id="edge21" class="edge"><title>Node19&#45;&gt;Node11</title>
<path fill="none" stroke="midnightblue" d="M418.301,-136.679C401.532,-125.611 378.429,-110.363 361.667,-99.3002"/>
<polygon fill="midnightblue" stroke="midnightblue" points="363.362,-96.2252 353.088,-93.6379 359.506,-102.067 363.362,-96.2252"/>
</g>
<!-- Node19&#45;&gt;Node17 -->
<g id="edge20" class="edge"><title>Node19&#45;&gt;Node17</title>
<path fill="none" stroke="midnightblue" d="M429.39,-136.977C422.388,-127.106 413.52,-113.327 408,-100 399.267,-78.9167 394.157,-53.0787 391.477,-35.8872"/>
<polygon fill="midnightblue" stroke="midnightblue" points="394.876,-34.9346 389.994,-25.5315 387.947,-35.9266 394.876,-34.9346"/>
</g>
<!-- Node19&#45;&gt;Node20 -->
<g id="edge19" class="edge"><title>Node19&#45;&gt;Node20</title>
<path fill="none" stroke="midnightblue" d="M462.954,-136.841C481.047,-125.681 506.149,-110.198 524.202,-99.0625"/>
<polygon fill="midnightblue" stroke="midnightblue" points="526.251,-101.911 532.925,-93.6819 522.576,-95.9529 526.251,-101.911"/>
</g>
<!-- Node21 -->
<g id="node21" class="node"><title>Node21</title>
<polygon fill="none" stroke="#bfbfbf" points="2275.5,-74.5 2275.5,-93.5 2324.5,-93.5 2324.5,-74.5 2275.5,-74.5"/>
<text text-anchor="middle" x="2300" y="-81.5" font-family="Helvetica,sans-Serif" font-size="10.00">cassert</text>
</g>
<!-- Node19&#45;&gt;Node21 -->
<g id="edge22" class="edge"><title>Node19&#45;&gt;Node21</title>
<path fill="none" stroke="midnightblue" d="M518.192,-140.493C533.992,-138.708 550.507,-137.084 566,-136 754.471,-122.817 2081.55,-140.923 2266,-100 2268.89,-99.358 2271.84,-98.4635 2274.74,-97.4276"/>
<polygon fill="midnightblue" stroke="midnightblue" points="2276.28,-100.576 2284.19,-93.5234 2273.61,-94.1068 2276.28,-100.576"/>
</g>
<!-- Node22 -->
<g id="node22" class="node"><title>Node22</title>
<polygon fill="none" stroke="#bfbfbf" points="417,-74.5 417,-93.5 463,-93.5 463,-74.5 417,-74.5"/>
<text text-anchor="middle" x="440" y="-81.5" font-family="Helvetica,sans-Serif" font-size="10.00">cstdint</text>
</g>
<!-- Node19&#45;&gt;Node22 -->
<g id="edge23" class="edge"><title>Node19&#45;&gt;Node22</title>
<path fill="none" stroke="midnightblue" d="M440,-136.679C440,-127.101 440,-114.394 440,-103.977"/>
<polygon fill="midnightblue" stroke="midnightblue" points="443.5,-103.828 440,-93.8283 436.5,-103.828 443.5,-103.828"/>
</g>
<!-- Node23 -->
<g id="node23" class="node"><title>Node23</title>
<polygon fill="none" stroke="#bfbfbf" points="1777,-74.5 1777,-93.5 1839,-93.5 1839,-74.5 1777,-74.5"/>
<text text-anchor="middle" x="1808" y="-81.5" font-family="Helvetica,sans-Serif" font-size="10.00">type_traits</text>
</g>
<!-- Node19&#45;&gt;Node23 -->
<g id="edge24" class="edge"><title>Node19&#45;&gt;Node23</title>
<path fill="none" stroke="midnightblue" d="M518.199,-140.6C533.999,-138.807 550.512,-137.152 566,-136 832.274,-116.199 1504.81,-150.518 1767,-100 1770.91,-99.2471 1774.94,-98.1722 1778.87,-96.939"/>
<polygon fill="midnightblue" stroke="midnightblue" points="1780.05,-100.234 1788.35,-93.6406 1777.75,-93.6237 1780.05,-100.234"/>
</g>
<!-- Node19&#45;&gt;Node24 -->
<g id="edge25" class="edge"><title>Node19&#45;&gt;Node24</title>
<path fill="none" stroke="midnightblue" d="M400.527,-136.841C367.464,-124.982 320.788,-108.239 289.515,-97.0216"/>
<polygon fill="midnightblue" stroke="midnightblue" points="290.534,-93.6687 279.939,-93.5868 288.17,-100.258 290.534,-93.6687"/>
</g>
<!-- Node24&#45;&gt;Node17 -->
<g id="edge26" class="edge"><title>Node24&#45;&gt;Node17</title>
<path fill="none" stroke="midnightblue" d="M273.387,-74.3717C296.089,-63.1063 336.043,-43.2794 362.52,-30.1403"/>
<polygon fill="midnightblue" stroke="midnightblue" points="364.206,-33.2109 371.608,-25.6305 361.095,-26.9405 364.206,-33.2109"/>
</g>
<!-- Node25 -->
<g id="node25" class="node"><title>Node25</title>
<polygon fill="none" stroke="#bfbfbf" points="107,-6.5 107,-25.5 151,-25.5 151,-6.5 107,-6.5"/>
<text text-anchor="middle" x="129" y="-13.5" font-family="Helvetica,sans-Serif" font-size="10.00">cmath</text>
</g>
<!-- Node24&#45;&gt;Node25 -->
<g id="edge27" class="edge"><title>Node24&#45;&gt;Node25</title>
<path fill="none" stroke="midnightblue" d="M239.397,-74.3717C217.815,-63.1557 179.902,-43.4532 154.619,-30.3136"/>
<polygon fill="midnightblue" stroke="midnightblue" points="156.094,-27.1362 145.607,-25.6305 152.866,-33.3475 156.094,-27.1362"/>
</g>
<!-- Node26 -->
<g id="node26" class="node"><title>Node26</title>
<g id="a_node26"><a xlink:href="../../d6/d84/MathConstants_8h.html" target="_top" xlink:title="useful math constants ">
<polygon fill="none" stroke="black" points="169.5,-6.5 169.5,-25.5 348.5,-25.5 348.5,-6.5 169.5,-6.5"/>
<text text-anchor="middle" x="259" y="-13.5" font-family="Helvetica,sans-Serif" font-size="10.00">CommonConstants/MathConstants.h</text>
</a>
</g>
</g>
<!-- Node24&#45;&gt;Node26 -->
<g id="edge28" class="edge"><title>Node24&#45;&gt;Node26</title>
<path fill="none" stroke="midnightblue" d="M256.392,-74.3717C256.834,-64.6426 257.567,-48.528 258.143,-35.8504"/>
<polygon fill="midnightblue" stroke="midnightblue" points="261.64,-35.9898 258.598,-25.8411 254.648,-35.6718 261.64,-35.9898"/>
</g>
<!-- Node27&#45;&gt;Node14 -->
<g id="edge37" class="edge"><title>Node27&#45;&gt;Node14</title>
<path fill="none" stroke="midnightblue" d="M987.216,-142.483C1005.4,-140.099 1025.5,-137.699 1044,-136 1336.54,-109.145 1419.1,-171.659 1704,-100 1706.5,-99.3714 1709.04,-98.5453 1711.54,-97.6035"/>
<polygon fill="midnightblue" stroke="midnightblue" points="1713.04,-100.767 1720.82,-93.5702 1710.25,-94.3469 1713.04,-100.767"/>
</g>
<!-- Node27&#45;&gt;Node20 -->
<g id="edge35" class="edge"><title>Node27&#45;&gt;Node20</title>
<path fill="none" stroke="midnightblue" d="M869.999,-142.445C772.401,-128.044 585.72,-100.469 584,-100 581.02,-99.1875 577.956,-98.2034 574.928,-97.132"/>
<polygon fill="midnightblue" stroke="midnightblue" points="576.114,-93.8381 565.524,-93.5155 573.601,-100.372 576.114,-93.8381"/>
</g>
<!-- Node28 -->
<g id="node28" class="node"><title>Node28</title>
<polygon fill="none" stroke="#bfbfbf" points="1008.5,-69 1008.5,-99 1159.5,-99 1159.5,-69 1008.5,-69"/>
<text text-anchor="start" x="1016.5" y="-87" font-family="Helvetica,sans-Serif" font-size="10.00">Math/GenVector/Displacement</text>
<text text-anchor="middle" x="1084" y="-76" font-family="Helvetica,sans-Serif" font-size="10.00">Vector3D.h</text>
</g>
<!-- Node27&#45;&gt;Node28 -->
<g id="edge30" class="edge"><title>Node27&#45;&gt;Node28</title>
<path fill="none" stroke="midnightblue" d="M948.394,-142.372C971.869,-132.44 1011.07,-115.854 1041.31,-103.063"/>
<polygon fill="midnightblue" stroke="midnightblue" points="1042.93,-106.176 1050.78,-99.0562 1040.2,-99.7293 1042.93,-106.176"/>
</g>
<!-- Node29 -->
<g id="node29" class="node"><title>Node29</title>
<polygon fill="none" stroke="#bfbfbf" points="1178,-74.5 1178,-93.5 1354,-93.5 1354,-74.5 1178,-74.5"/>
<text text-anchor="middle" x="1266" y="-81.5" font-family="Helvetica,sans-Serif" font-size="10.00">Math/GenVector/PositionVector3D.h</text>
</g>
<!-- Node27&#45;&gt;Node29 -->
<g id="edge31" class="edge"><title>Node27&#45;&gt;Node29</title>
<path fill="none" stroke="midnightblue" d="M971.841,-142.439C1033.51,-130.396 1145.78,-108.475 1212.36,-95.4745"/>
<polygon fill="midnightblue" stroke="midnightblue" points="1213.09,-98.8972 1222.24,-93.5455 1211.75,-92.0269 1213.09,-98.8972"/>
</g>
<!-- Node30 -->
<g id="node30" class="node"><title>Node30</title>
<polygon fill="none" stroke="#bfbfbf" points="1371.5,-74.5 1371.5,-93.5 1520.5,-93.5 1520.5,-74.5 1371.5,-74.5"/>
<text text-anchor="middle" x="1446" y="-81.5" font-family="Helvetica,sans-Serif" font-size="10.00">Math/GenVector/Rotation3D.h</text>
</g>
<!-- Node27&#45;&gt;Node30 -->
<g id="edge32" class="edge"><title>Node27&#45;&gt;Node30</title>
<path fill="none" stroke="midnightblue" d="M990.587,-142.722C1007.88,-140.485 1026.66,-138.102 1044,-136 1185.2,-118.879 1221.25,-120.512 1362,-100 1371.47,-98.6205 1381.5,-96.9827 1391.21,-95.3045"/>
<polygon fill="midnightblue" stroke="midnightblue" points="1391.94,-98.7303 1401.18,-93.5502 1390.73,-91.8362 1391.94,-98.7303"/>
</g>
<!-- Node31 -->
<g id="node31" class="node"><title>Node31</title>
<polygon fill="none" stroke="#bfbfbf" points="1539,-74.5 1539,-93.5 1695,-93.5 1695,-74.5 1539,-74.5"/>
<text text-anchor="middle" x="1617" y="-81.5" font-family="Helvetica,sans-Serif" font-size="10.00">Math/GenVector/Transform3D.h</text>
</g>
<!-- Node27&#45;&gt;Node31 -->
<g id="edge33" class="edge"><title>Node27&#45;&gt;Node31</title>
<path fill="none" stroke="midnightblue" d="M989.033,-142.474C1006.74,-140.172 1026.12,-137.818 1044,-136 1259.04,-114.132 1314.44,-126.189 1529,-100 1539.61,-98.7051 1550.89,-97.0193 1561.71,-95.2472"/>
<polygon fill="midnightblue" stroke="midnightblue" points="1562.62,-98.6428 1571.9,-93.5318 1561.46,-91.7399 1562.62,-98.6428"/>
</g>
<!-- Node32 -->
<g id="node32" class="node"><title>Node32</title>
<polygon fill="none" stroke="#bfbfbf" points="593,-74.5 593,-93.5 753,-93.5 753,-74.5 593,-74.5"/>
<text text-anchor="middle" x="673" y="-81.5" font-family="Helvetica,sans-Serif" font-size="10.00">Math/GenVector/Translation3D.h</text>
</g>
<!-- Node27&#45;&gt;Node32 -->
<g id="edge34" class="edge"><title>Node27&#45;&gt;Node32</title>
<path fill="none" stroke="midnightblue" d="M894.925,-142.439C849.16,-130.594 766.47,-109.192 715.973,-96.1223"/>
<polygon fill="midnightblue" stroke="midnightblue" points="716.575,-92.6629 706.017,-93.5455 714.821,-99.4396 716.575,-92.6629"/>
</g>
<!-- Node33 -->
<g id="node33" class="node"><title>Node33</title>
<polygon fill="none" stroke="#bfbfbf" points="771,-74.5 771,-93.5 847,-93.5 847,-74.5 771,-74.5"/>
<text text-anchor="middle" x="809" y="-81.5" font-family="Helvetica,sans-Serif" font-size="10.00">TGeoMatrix.h</text>
</g>
<!-- Node27&#45;&gt;Node33 -->
<g id="edge36" class="edge"><title>Node27&#45;&gt;Node33</title>
<path fill="none" stroke="midnightblue" d="M912.443,-142.372C892.309,-131.205 857.009,-111.627 833.319,-98.4876"/>
<polygon fill="midnightblue" stroke="midnightblue" points="835.004,-95.4199 824.561,-93.6305 831.608,-101.541 835.004,-95.4199"/>
</g>
<!-- Node34 -->
<g id="node34" class="node"><title>Node34</title>
<g id="a_node34"><a xlink:href="../../d2/dd0/Cartesian2D_8h.html" target="_top" xlink:title="MathUtils/Cartesian2D.h">
<polygon fill="none" stroke="black" points="865.5,-74.5 865.5,-93.5 990.5,-93.5 990.5,-74.5 865.5,-74.5"/>
<text text-anchor="middle" x="928" y="-81.5" font-family="Helvetica,sans-Serif" font-size="10.00">MathUtils/Cartesian2D.h</text>
</a>
</g>
</g>
<!-- Node27&#45;&gt;Node34 -->
<g id="edge38" class="edge"><title>Node27&#45;&gt;Node34</title>
<path fill="none" stroke="midnightblue" d="M928,-142.372C928,-132.643 928,-116.528 928,-103.85"/>
<polygon fill="midnightblue" stroke="midnightblue" points="931.5,-103.841 928,-93.8411 924.5,-103.841 931.5,-103.841"/>
</g>
<!-- Node35 -->
<g id="node35" class="node"><title>Node35</title>
<polygon fill="none" stroke="#bfbfbf" points="943.5,-1 943.5,-31 1094.5,-31 1094.5,-1 943.5,-1"/>
<text text-anchor="start" x="951.5" y="-19" font-family="Helvetica,sans-Serif" font-size="10.00">Math/GenVector/Displacement</text>
<text text-anchor="middle" x="1019" y="-8" font-family="Helvetica,sans-Serif" font-size="10.00">Vector2D.h</text>
</g>
<!-- Node34&#45;&gt;Node35 -->
<g id="edge39" class="edge"><title>Node34&#45;&gt;Node35</title>
<path fill="none" stroke="midnightblue" d="M939.897,-74.3717C952.779,-65.0286 973.78,-49.7966 990.907,-37.375"/>
<polygon fill="midnightblue" stroke="midnightblue" points="993.407,-39.8859 999.447,-31.1815 989.297,-34.2194 993.407,-39.8859"/>
</g>
<!-- Node36 -->
<g id="node36" class="node"><title>Node36</title>
<polygon fill="none" stroke="#bfbfbf" points="749,-6.5 749,-25.5 925,-25.5 925,-6.5 749,-6.5"/>
<text text-anchor="middle" x="837" y="-13.5" font-family="Helvetica,sans-Serif" font-size="10.00">Math/GenVector/PositionVector2D.h</text>
</g>
<!-- Node34&#45;&gt;Node36 -->
<g id="edge40" class="edge"><title>Node34&#45;&gt;Node36</title>
<path fill="none" stroke="midnightblue" d="M916.103,-74.3717C901.116,-63.5015 875.138,-44.6602 857.058,-31.5474"/>
<polygon fill="midnightblue" stroke="midnightblue" points="859.05,-28.6684 848.9,-25.6305 854.94,-34.3349 859.05,-28.6684"/>
</g>
<!-- Node37&#45;&gt;Node14 -->
<g id="edge48" class="edge"><title>Node37&#45;&gt;Node14</title>
<path fill="none" stroke="midnightblue" d="M1025.34,-278.255C1040.38,-260.962 1076.64,-222.475 1116,-204 1356.24,-91.2274 1450.99,-180.124 1704,-100 1706.14,-99.3227 1708.32,-98.5329 1710.49,-97.6766"/>
<polygon fill="midnightblue" stroke="midnightblue" points="1711.96,-100.851 1719.72,-93.6387 1709.16,-94.4364 1711.96,-100.851"/>
</g>
<!-- Node37&#45;&gt;Node20 -->
<g id="edge46" class="edge"><title>Node37&#45;&gt;Node20</title>
<path fill="none" stroke="midnightblue" d="M997.111,-278.456C974.471,-268.955 937.492,-252.73 907,-236 835.126,-196.564 827.762,-167.322 752,-136 681.431,-106.825 656.993,-122.43 584,-100 581.358,-99.1882 578.641,-98.2653 575.937,-97.2857"/>
<polygon fill="midnightblue" stroke="midnightblue" points="576.946,-93.9233 566.357,-93.5864 574.425,-100.453 576.946,-93.9233"/>
</g>
<!-- Node38 -->
<g id="node38" class="node"><title>Node38</title>
<g id="a_node38"><a xlink:href="../../d4/d25/BaseHits_8h.html" target="_top" xlink:title="SimulationDataFormat\l/BaseHits.h">
<polygon fill="none" stroke="black" points="916,-205 916,-235 1030,-235 1030,-205 916,-205"/>
<text text-anchor="start" x="924" y="-223" font-family="Helvetica,sans-Serif" font-size="10.00">SimulationDataFormat</text>
<text text-anchor="middle" x="973" y="-212" font-family="Helvetica,sans-Serif" font-size="10.00">/BaseHits.h</text>
</a>
</g>
</g>
<!-- Node37&#45;&gt;Node38 -->
<g id="edge44" class="edge"><title>Node37&#45;&gt;Node38</title>
<path fill="none" stroke="midnightblue" d="M1012.12,-278.372C1006.1,-269.543 996.493,-255.456 988.307,-243.45"/>
<polygon fill="midnightblue" stroke="midnightblue" points="991.194,-241.472 982.669,-235.181 985.411,-245.415 991.194,-241.472"/>
</g>
<!-- Node39 -->
<g id="node39" class="node"><title>Node39</title>
<polygon fill="none" stroke="#bfbfbf" points="1124.5,-210.5 1124.5,-229.5 1189.5,-229.5 1189.5,-210.5 1124.5,-210.5"/>
<text text-anchor="middle" x="1157" y="-217.5" font-family="Helvetica,sans-Serif" font-size="10.00">TVector3.h</text>
</g>
<!-- Node37&#45;&gt;Node39 -->
<g id="edge47" class="edge"><title>Node37&#45;&gt;Node39</title>
<path fill="none" stroke="midnightblue" d="M1036.17,-278.372C1060,-267.057 1102.02,-247.105 1129.69,-233.968"/>
<polygon fill="midnightblue" stroke="midnightblue" points="1131.29,-237.081 1138.82,-229.63 1128.29,-230.758 1131.29,-237.081"/>
</g>
<!-- Node40 -->
<g id="node40" class="node"><title>Node40</title>
<g id="a_node40"><a xlink:href="../../d0/d91/ShmAllocator_8h.html" target="_top" xlink:title="CommonUtils/ShmAllocator.h">
<polygon fill="none" stroke="black" points="1572,-210.5 1572,-229.5 1718,-229.5 1718,-210.5 1572,-210.5"/>
<text text-anchor="middle" x="1645" y="-217.5" font-family="Helvetica,sans-Serif" font-size="10.00">CommonUtils/ShmAllocator.h</text>
</a>
</g>
</g>
<!-- Node37&#45;&gt;Node40 -->
<g id="edge49" class="edge"><title>Node37&#45;&gt;Node40</title>
<path fill="none" stroke="midnightblue" d="M1079.26,-280.551C1192.37,-268.645 1434.07,-243.203 1561.85,-229.753"/>
<polygon fill="midnightblue" stroke="midnightblue" points="1562.4,-233.215 1571.98,-228.687 1561.66,-226.253 1562.4,-233.215"/>
</g>
<!-- Node38&#45;&gt;Node27 -->
<g id="edge45" class="edge"><title>Node38&#45;&gt;Node27</title>
<path fill="none" stroke="midnightblue" d="M963.236,-204.679C956.358,-194.592 947.113,-181.033 939.819,-170.335"/>
<polygon fill="midnightblue" stroke="midnightblue" points="942.545,-168.119 934.019,-161.828 936.761,-172.062 942.545,-168.119"/>
</g>
<!-- Node40&#45;&gt;Node21 -->
<g id="edge55" class="edge"><title>Node40&#45;&gt;Node21</title>
<path fill="none" stroke="midnightblue" d="M1690.96,-210.45C1704.18,-208.161 1718.64,-205.82 1732,-204 1890.89,-182.364 1935.06,-205.381 2091,-168 2159.6,-151.555 2235.48,-116.976 2274.19,-98.054"/>
<polygon fill="midnightblue" stroke="midnightblue" points="2275.79,-101.168 2283.2,-93.6012 2272.69,-94.8925 2275.79,-101.168"/>
</g>
<!-- Node41 -->
<g id="node41" class="node"><title>Node41</title>
<g id="a_node41"><a xlink:href="../../de/d61/ShmManager_8h.html" target="_top" xlink:title="CommonUtils/ShmManager.h">
<polygon fill="none" stroke="black" points="1936,-142.5 1936,-161.5 2082,-161.5 2082,-142.5 1936,-142.5"/>
<text text-anchor="middle" x="2009" y="-149.5" font-family="Helvetica,sans-Serif" font-size="10.00">CommonUtils/ShmManager.h</text>
</a>
</g>
</g>
<!-- Node40&#45;&gt;Node41 -->
<g id="edge50" class="edge"><title>Node40&#45;&gt;Node41</title>
<path fill="none" stroke="midnightblue" d="M1692.21,-210.439C1758.77,-198.372 1880.03,-176.384 1951.67,-163.395"/>
<polygon fill="midnightblue" stroke="midnightblue" points="1952.66,-166.774 1961.87,-161.546 1951.41,-159.886 1952.66,-166.774"/>
</g>
<!-- Node42 -->
<g id="node42" class="node"><title>Node42</title>
<polygon fill="none" stroke="#bfbfbf" points="1994.5,-74.5 1994.5,-93.5 2023.5,-93.5 2023.5,-74.5 1994.5,-74.5"/>
<text text-anchor="middle" x="2009" y="-81.5" font-family="Helvetica,sans-Serif" font-size="10.00">list</text>
</g>
<!-- Node41&#45;&gt;Node42 -->
<g id="edge51" class="edge"><title>Node41&#45;&gt;Node42</title>
<path fill="none" stroke="midnightblue" d="M2009,-142.372C2009,-132.643 2009,-116.528 2009,-103.85"/>
<polygon fill="midnightblue" stroke="midnightblue" points="2012.5,-103.841 2009,-93.8411 2005.5,-103.841 2012.5,-103.841"/>
</g>
<!-- Node43 -->
<g id="node43" class="node"><title>Node43</title>
<polygon fill="none" stroke="#bfbfbf" points="2041.5,-74.5 2041.5,-93.5 2090.5,-93.5 2090.5,-74.5 2041.5,-74.5"/>
<text text-anchor="middle" x="2066" y="-81.5" font-family="Helvetica,sans-Serif" font-size="10.00">cstddef</text>
</g>
<!-- Node41&#45;&gt;Node43 -->
<g id="edge52" class="edge"><title>Node41&#45;&gt;Node43</title>
<path fill="none" stroke="midnightblue" d="M2016.45,-142.372C2025.36,-132.053 2040.48,-114.551 2051.68,-101.585"/>
<polygon fill="midnightblue" stroke="midnightblue" points="2054.48,-103.697 2058.36,-93.8411 2049.18,-99.1217 2054.48,-103.697"/>
</g>
<!-- Node44 -->
<g id="node44" class="node"><title>Node44</title>
<polygon fill="none" stroke="#bfbfbf" points="2109,-69 2109,-99 2257,-99 2257,-69 2109,-69"/>
<text text-anchor="start" x="2117" y="-87" font-family="Helvetica,sans-Serif" font-size="10.00">boost/interprocess</text>
<text text-anchor="middle" x="2183" y="-76" font-family="Helvetica,sans-Serif" font-size="10.00">/managed_external_buffer.hpp</text>
</g>
<!-- Node41&#45;&gt;Node44 -->
<g id="edge53" class="edge"><title>Node41&#45;&gt;Node44</title>
<path fill="none" stroke="midnightblue" d="M2031.75,-142.372C2058.16,-132.354 2102.42,-115.566 2136.25,-102.731"/>
<polygon fill="midnightblue" stroke="midnightblue" points="2137.83,-105.875 2145.94,-99.0562 2135.35,-99.3303 2137.83,-105.875"/>
</g>
<!-- Node45 -->
<g id="node45" class="node"><title>Node45</title>
<polygon fill="none" stroke="#bfbfbf" points="1857,-69 1857,-99 1977,-99 1977,-69 1857,-69"/>
<text text-anchor="start" x="1865" y="-87" font-family="Helvetica,sans-Serif" font-size="10.00">boost/interprocess</text>
<text text-anchor="middle" x="1917" y="-76" font-family="Helvetica,sans-Serif" font-size="10.00">/allocators/allocator.hpp</text>
</g>
<!-- Node41&#45;&gt;Node45 -->
<g id="edge54" class="edge"><title>Node41&#45;&gt;Node45</title>
<path fill="none" stroke="midnightblue" d="M1996.97,-142.372C1983.83,-132.943 1962.33,-117.517 1944.93,-105.034"/>
<polygon fill="midnightblue" stroke="midnightblue" points="1946.93,-102.167 1936.77,-99.1815 1942.85,-107.854 1946.93,-102.167"/>
</g>
<!-- Node47&#45;&gt;Node20 -->
<g id="edge60" class="edge"><title>Node47&#45;&gt;Node20</title>
<path fill="none" stroke="midnightblue" d="M729.493,-272.673C741.634,-243.484 763.806,-176.47 732,-136 690.169,-82.7748 648.43,-120.773 584,-100 581.429,-99.1712 578.784,-98.2471 576.146,-97.276"/>
<polygon fill="midnightblue" stroke="midnightblue" points="577.362,-93.9937 566.773,-93.6391 574.83,-100.52 577.362,-93.9937"/>
</g>
<!-- Node48&#45;&gt;Node21 -->
<g id="edge63" class="edge"><title>Node48&#45;&gt;Node21</title>
<path fill="none" stroke="midnightblue" d="M2325.06,-136.679C2320.26,-126.796 2313.86,-113.579 2308.72,-102.986"/>
<polygon fill="midnightblue" stroke="midnightblue" points="2311.79,-101.299 2304.28,-93.8283 2305.49,-104.353 2311.79,-101.299"/>
</g>
<!-- Node48&#45;&gt;Node23 -->
<g id="edge66" class="edge"><title>Node48&#45;&gt;Node23</title>
<path fill="none" stroke="midnightblue" d="M2274.62,-146.789C2164.59,-138.411 1927.76,-118.834 1848,-100 1844.58,-99.1915 1841.05,-98.1675 1837.57,-97.0358"/>
<polygon fill="midnightblue" stroke="midnightblue" points="1838.63,-93.6993 1828.04,-93.6501 1836.29,-100.295 1838.63,-93.6993"/>
</g>
<!-- Node49 -->
<g id="node49" class="node"><title>Node49</title>
<polygon fill="none" stroke="#bfbfbf" points="2406,-74.5 2406,-93.5 2468,-93.5 2468,-74.5 2406,-74.5"/>
<text text-anchor="middle" x="2437" y="-81.5" font-family="Helvetica,sans-Serif" font-size="10.00">TNamed.h</text>
</g>
<!-- Node48&#45;&gt;Node49 -->
<g id="edge62" class="edge"><title>Node48&#45;&gt;Node49</title>
<path fill="none" stroke="midnightblue" d="M2354.53,-136.841C2372.28,-125.681 2396.91,-110.198 2414.63,-99.0625"/>
<polygon fill="midnightblue" stroke="midnightblue" points="2416.58,-101.967 2423.19,-93.6819 2412.86,-96.0404 2416.58,-101.967"/>
</g>
<!-- Node50 -->
<g id="node50" class="node"><title>Node50</title>
<polygon fill="none" stroke="#bfbfbf" points="2486.5,-74.5 2486.5,-93.5 2545.5,-93.5 2545.5,-74.5 2486.5,-74.5"/>
<text text-anchor="middle" x="2516" y="-81.5" font-family="Helvetica,sans-Serif" font-size="10.00">stdexcept</text>
</g>
<!-- Node48&#45;&gt;Node50 -->
<g id="edge64" class="edge"><title>Node48&#45;&gt;Node50</title>
<path fill="none" stroke="midnightblue" d="M2372.42,-136.909C2401.32,-126.778 2441.12,-112.717 2476,-100 2478.53,-99.0792 2481.14,-98.1184 2483.76,-97.1474"/>
<polygon fill="midnightblue" stroke="midnightblue" points="2485.03,-100.41 2493.18,-93.6394 2482.59,-93.8497 2485.03,-100.41"/>
</g>
<!-- Node51 -->
<g id="node51" class="node"><title>Node51</title>
<polygon fill="none" stroke="#bfbfbf" points="2342.5,-74.5 2342.5,-93.5 2387.5,-93.5 2387.5,-74.5 2342.5,-74.5"/>
<text text-anchor="middle" x="2365" y="-81.5" font-family="Helvetica,sans-Serif" font-size="10.00">gsl/gsl</text>
</g>
<!-- Node48&#45;&gt;Node51 -->
<g id="edge65" class="edge"><title>Node48&#45;&gt;Node51</title>
<path fill="none" stroke="midnightblue" d="M2339.16,-136.679C2344.1,-126.796 2350.71,-113.579 2356.01,-102.986"/>
<polygon fill="midnightblue" stroke="midnightblue" points="2359.24,-104.338 2360.59,-93.8283 2352.98,-101.207 2359.24,-104.338"/>
</g>
</g>
</svg>
