<?xml version="1.0" encoding="UTF-8" standalone="no"?>
<!DOCTYPE svg PUBLIC "-//W3C//DTD SVG 1.1//EN"
 "http://www.w3.org/Graphics/SVG/1.1/DTD/svg11.dtd">
<!-- Generated by graphviz version 2.36.0 (20140111.2315)
 -->
<!-- Title: /home/travis/build/AliceO2Group/AliceO2/Detectors/EMCAL/simulation/include/EMCALSimulation/DigitizerTask.h Pages: 1 -->
<svg width="2261pt" height="446pt"
 viewBox="0.00 0.00 2260.88 446.00" xmlns="http://www.w3.org/2000/svg" xmlns:xlink="http://www.w3.org/1999/xlink">
<g id="graph0" class="graph" transform="scale(1 1) rotate(0) translate(4 442)">
<title>/home/travis/build/AliceO2Group/AliceO2/Detectors/EMCAL/simulation/include/EMCALSimulation/DigitizerTask.h</title>
<!-- Node1 -->
<g id="node1" class="node"><title>Node1</title>
<polygon fill="#bfbfbf" stroke="black" points="1330.5,-385 1330.5,-437 1533.5,-437 1533.5,-385 1330.5,-385"/>
<text text-anchor="start" x="1338.5" y="-425" font-family="Helvetica,sans-Serif" font-size="10.00">/home/travis/build</text>
<text text-anchor="start" x="1338.5" y="-414" font-family="Helvetica,sans-Serif" font-size="10.00">/AliceO2Group/AliceO2</text>
<text text-anchor="start" x="1338.5" y="-403" font-family="Helvetica,sans-Serif" font-size="10.00">/Detectors/EMCAL/simulation</text>
<text text-anchor="middle" x="1432" y="-392" font-family="Helvetica,sans-Serif" font-size="10.00">/include/EMCALSimulation/DigitizerTask.h</text>
</g>
<!-- Node2 -->
<g id="node2" class="node"><title>Node2</title>
<polygon fill="none" stroke="#bfbfbf" points="1279.5,-328.5 1279.5,-347.5 1322.5,-347.5 1322.5,-328.5 1279.5,-328.5"/>
<text text-anchor="middle" x="1301" y="-335.5" font-family="Helvetica,sans-Serif" font-size="10.00">cstdio</text>
</g>
<!-- Node1&#45;&gt;Node2 -->
<g id="edge1" class="edge"><title>Node1&#45;&gt;Node2</title>
<path fill="none" stroke="midnightblue" d="M1385.81,-384.968C1365.74,-374.088 1343.01,-361.767 1326.13,-352.622"/>
<polygon fill="midnightblue" stroke="midnightblue" points="1327.4,-349.327 1316.94,-347.639 1324.06,-355.481 1327.4,-349.327"/>
</g>
<!-- Node3 -->
<g id="node3" class="node"><title>Node3</title>
<polygon fill="none" stroke="#bfbfbf" points="1340.5,-328.5 1340.5,-347.5 1403.5,-347.5 1403.5,-328.5 1340.5,-328.5"/>
<text text-anchor="middle" x="1372" y="-335.5" font-family="Helvetica,sans-Serif" font-size="10.00">FairTask.h</text>
</g>
<!-- Node1&#45;&gt;Node3 -->
<g id="edge2" class="edge"><title>Node1&#45;&gt;Node3</title>
<path fill="none" stroke="midnightblue" d="M1410.68,-384.768C1402.49,-375.083 1393.36,-364.281 1386.03,-355.605"/>
<polygon fill="midnightblue" stroke="midnightblue" points="1388.53,-353.136 1379.4,-347.757 1383.18,-357.654 1388.53,-353.136"/>
</g>
<!-- Node4 -->
<g id="node4" class="node"><title>Node4</title>
<polygon fill="none" stroke="#bfbfbf" points="1997,-74.5 1997,-93.5 2053,-93.5 2053,-74.5 1997,-74.5"/>
<text text-anchor="middle" x="2025" y="-81.5" font-family="Helvetica,sans-Serif" font-size="10.00">Rtypes.h</text>
</g>
<!-- Node1&#45;&gt;Node4 -->
<g id="edge3" class="edge"><title>Node1&#45;&gt;Node4</title>
<path fill="none" stroke="midnightblue" d="M1533.66,-404.683C1752.99,-391.851 2251,-354.809 2251,-283 2251,-283 2251,-283 2251,-219 2251,-181.157 2258.54,-162.979 2232,-136 2208.7,-112.314 2116.28,-96.767 2063.14,-89.5927"/>
<polygon fill="midnightblue" stroke="midnightblue" points="2063.44,-86.102 2053.07,-88.2695 2062.53,-93.0424 2063.44,-86.102"/>
</g>
<!-- Node5 -->
<g id="node5" class="node"><title>Node5</title>
<g id="a_node5"><a xlink:href="../../d5/d8b/EMCAL_2base_2include_2EMCALBase_2Hit_8h.html" target="_top" xlink:title="EMCALBase/Hit.h">
<polygon fill="none" stroke="black" points="802,-272.5 802,-291.5 900,-291.5 900,-272.5 802,-272.5"/>
<text text-anchor="middle" x="851" y="-279.5" font-family="Helvetica,sans-Serif" font-size="10.00">EMCALBase/Hit.h</text>
</a>
</g>
</g>
<!-- Node1&#45;&gt;Node5 -->
<g id="edge4" class="edge"><title>Node1&#45;&gt;Node5</title>
<path fill="none" stroke="midnightblue" d="M1433.1,-384.893C1432.44,-366.259 1428.17,-341.782 1412,-328 1402.53,-319.933 1053.1,-296.222 910.589,-286.863"/>
<polygon fill="midnightblue" stroke="midnightblue" points="910.495,-283.35 900.287,-286.188 910.037,-290.335 910.495,-283.35"/>
</g>
<!-- Node25 -->
<g id="node25" class="node"><title>Node25</title>
<g id="a_node25"><a xlink:href="../../d8/d19/EMCAL_2simulation_2include_2EMCALSimulation_2Digitizer_8h.html" target="_top" xlink:title="EMCALSimulation/Digitizer.h">
<polygon fill="none" stroke="black" points="1460,-328.5 1460,-347.5 1604,-347.5 1604,-328.5 1460,-328.5"/>
<text text-anchor="middle" x="1532" y="-335.5" font-family="Helvetica,sans-Serif" font-size="10.00">EMCALSimulation/Digitizer.h</text>
</a>
</g>
</g>
<!-- Node1&#45;&gt;Node25 -->
<g id="edge25" class="edge"><title>Node1&#45;&gt;Node25</title>
<path fill="none" stroke="midnightblue" d="M1467.26,-384.968C1481.92,-374.559 1498.43,-362.831 1511.12,-353.827"/>
<polygon fill="midnightblue" stroke="midnightblue" points="1513.46,-356.453 1519.59,-347.81 1509.41,-350.745 1513.46,-356.453"/>
</g>
<!-- Node6 -->
<g id="node6" class="node"><title>Node6</title>
<g id="a_node6"><a xlink:href="../../d4/d25/BaseHits_8h.html" target="_top" xlink:title="SimulationDataFormat\l/BaseHits.h">
<polygon fill="none" stroke="black" points="686,-205 686,-235 800,-235 800,-205 686,-205"/>
<text text-anchor="start" x="694" y="-223" font-family="Helvetica,sans-Serif" font-size="10.00">SimulationDataFormat</text>
<text text-anchor="middle" x="743" y="-212" font-family="Helvetica,sans-Serif" font-size="10.00">/BaseHits.h</text>
</a>
</g>
</g>
<!-- Node5&#45;&gt;Node6 -->
<g id="edge5" class="edge"><title>Node5&#45;&gt;Node6</title>
<path fill="none" stroke="midnightblue" d="M835.526,-272.403C820.421,-264.011 796.923,-250.957 777.388,-240.104"/>
<polygon fill="midnightblue" stroke="midnightblue" points="778.895,-236.938 768.453,-235.141 775.495,-243.057 778.895,-236.938"/>
</g>
<!-- Node18 -->
<g id="node18" class="node"><title>Node18</title>
<g id="a_node18"><a xlink:href="../../d0/d91/ShmAllocator_8h.html" target="_top" xlink:title="CommonUtils/ShmAllocator.h">
<polygon fill="none" stroke="black" points="460,-210.5 460,-229.5 606,-229.5 606,-210.5 460,-210.5"/>
<text text-anchor="middle" x="533" y="-217.5" font-family="Helvetica,sans-Serif" font-size="10.00">CommonUtils/ShmAllocator.h</text>
</a>
</g>
</g>
<!-- Node5&#45;&gt;Node18 -->
<g id="edge18" class="edge"><title>Node5&#45;&gt;Node18</title>
<path fill="none" stroke="midnightblue" d="M805.776,-272.467C748.438,-261.649 649.646,-243.009 588.004,-231.378"/>
<polygon fill="midnightblue" stroke="midnightblue" points="588.544,-227.918 578.068,-229.503 587.246,-234.797 588.544,-227.918"/>
</g>
<!-- Node7 -->
<g id="node7" class="node"><title>Node7</title>
<g id="a_node7"><a xlink:href="../../dd/d76/Cartesian3D_8h.html" target="_top" xlink:title="MathUtils/Cartesian3D.h">
<polygon fill="none" stroke="black" points="963.5,-142.5 963.5,-161.5 1088.5,-161.5 1088.5,-142.5 963.5,-142.5"/>
<text text-anchor="middle" x="1026" y="-149.5" font-family="Helvetica,sans-Serif" font-size="10.00">MathUtils/Cartesian3D.h</text>
</a>
</g>
</g>
<!-- Node6&#45;&gt;Node7 -->
<g id="edge6" class="edge"><title>Node6&#45;&gt;Node7</title>
<path fill="none" stroke="midnightblue" d="M800.269,-205.644C853.044,-193.336 930.397,-175.296 979.461,-163.854"/>
<polygon fill="midnightblue" stroke="midnightblue" points="980.539,-167.196 989.483,-161.516 978.949,-160.379 980.539,-167.196"/>
</g>
<!-- Node7&#45;&gt;Node4 -->
<g id="edge12" class="edge"><title>Node7&#45;&gt;Node4</title>
<path fill="none" stroke="midnightblue" d="M1088.87,-146.846C1277.6,-134.378 1835.52,-97.5184 1986.79,-87.5242"/>
<polygon fill="midnightblue" stroke="midnightblue" points="1987.22,-91.0034 1996.97,-86.8517 1986.76,-84.0187 1987.22,-91.0034"/>
</g>
<!-- Node8 -->
<g id="node8" class="node"><title>Node8</title>
<polygon fill="none" stroke="#bfbfbf" points="417.5,-69 417.5,-99 568.5,-99 568.5,-69 417.5,-69"/>
<text text-anchor="start" x="425.5" y="-87" font-family="Helvetica,sans-Serif" font-size="10.00">Math/GenVector/Displacement</text>
<text text-anchor="middle" x="493" y="-76" font-family="Helvetica,sans-Serif" font-size="10.00">Vector3D.h</text>
</g>
<!-- Node7&#45;&gt;Node8 -->
<g id="edge7" class="edge"><title>Node7&#45;&gt;Node8</title>
<path fill="none" stroke="midnightblue" d="M963.148,-145.072C878.371,-136.804 722.453,-120.637 578.824,-100.061"/>
<polygon fill="midnightblue" stroke="midnightblue" points="578.902,-96.5363 568.505,-98.5721 577.903,-103.465 578.902,-96.5363"/>
</g>
<!-- Node9 -->
<g id="node9" class="node"><title>Node9</title>
<polygon fill="none" stroke="#bfbfbf" points="587,-74.5 587,-93.5 763,-93.5 763,-74.5 587,-74.5"/>
<text text-anchor="middle" x="675" y="-81.5" font-family="Helvetica,sans-Serif" font-size="10.00">Math/GenVector/PositionVector3D.h</text>
</g>
<!-- Node7&#45;&gt;Node9 -->
<g id="edge8" class="edge"><title>Node7&#45;&gt;Node9</title>
<path fill="none" stroke="midnightblue" d="M980.473,-142.439C916.295,-130.372 799.363,-108.384 730.28,-95.3945"/>
<polygon fill="midnightblue" stroke="midnightblue" points="730.921,-91.9538 720.447,-93.5455 729.628,-98.8333 730.921,-91.9538"/>
</g>
<!-- Node10 -->
<g id="node10" class="node"><title>Node10</title>
<polygon fill="none" stroke="#bfbfbf" points="780.5,-74.5 780.5,-93.5 929.5,-93.5 929.5,-74.5 780.5,-74.5"/>
<text text-anchor="middle" x="855" y="-81.5" font-family="Helvetica,sans-Serif" font-size="10.00">Math/GenVector/Rotation3D.h</text>
</g>
<!-- Node7&#45;&gt;Node10 -->
<g id="edge9" class="edge"><title>Node7&#45;&gt;Node10</title>
<path fill="none" stroke="midnightblue" d="M1003.64,-142.372C973.735,-130.827 920.531,-110.293 886.55,-97.1772"/>
<polygon fill="midnightblue" stroke="midnightblue" points="887.679,-93.8615 877.09,-93.5259 885.159,-100.392 887.679,-93.8615"/>
</g>
<!-- Node11 -->
<g id="node11" class="node"><title>Node11</title>
<polygon fill="none" stroke="#bfbfbf" points="948,-74.5 948,-93.5 1104,-93.5 1104,-74.5 948,-74.5"/>
<text text-anchor="middle" x="1026" y="-81.5" font-family="Helvetica,sans-Serif" font-size="10.00">Math/GenVector/Transform3D.h</text>
</g>
<!-- Node7&#45;&gt;Node11 -->
<g id="edge10" class="edge"><title>Node7&#45;&gt;Node11</title>
<path fill="none" stroke="midnightblue" d="M1026,-142.372C1026,-132.643 1026,-116.528 1026,-103.85"/>
<polygon fill="midnightblue" stroke="midnightblue" points="1029.5,-103.841 1026,-93.8411 1022.5,-103.841 1029.5,-103.841"/>
</g>
<!-- Node12 -->
<g id="node12" class="node"><title>Node12</title>
<polygon fill="none" stroke="#bfbfbf" points="1122,-74.5 1122,-93.5 1282,-93.5 1282,-74.5 1122,-74.5"/>
<text text-anchor="middle" x="1202" y="-81.5" font-family="Helvetica,sans-Serif" font-size="10.00">Math/GenVector/Translation3D.h</text>
</g>
<!-- Node7&#45;&gt;Node12 -->
<g id="edge11" class="edge"><title>Node7&#45;&gt;Node12</title>
<path fill="none" stroke="midnightblue" d="M1049.01,-142.372C1079.79,-130.827 1134.55,-110.293 1169.53,-97.1772"/>
<polygon fill="midnightblue" stroke="midnightblue" points="1171.13,-100.314 1179.26,-93.5259 1168.67,-93.76 1171.13,-100.314"/>
</g>
<!-- Node13 -->
<g id="node13" class="node"><title>Node13</title>
<polygon fill="none" stroke="#bfbfbf" points="1444,-74.5 1444,-93.5 1520,-93.5 1520,-74.5 1444,-74.5"/>
<text text-anchor="middle" x="1482" y="-81.5" font-family="Helvetica,sans-Serif" font-size="10.00">TGeoMatrix.h</text>
</g>
<!-- Node7&#45;&gt;Node13 -->
<g id="edge13" class="edge"><title>Node7&#45;&gt;Node13</title>
<path fill="none" stroke="midnightblue" d="M1088.79,-146.649C1169.42,-140.267 1313.31,-126.181 1434,-100 1438.44,-99.0369 1443.06,-97.8457 1447.6,-96.5589"/>
<polygon fill="midnightblue" stroke="midnightblue" points="1448.74,-99.8694 1457.31,-93.6404 1446.73,-93.1653 1448.74,-99.8694"/>
</g>
<!-- Node14 -->
<g id="node14" class="node"><title>Node14</title>
<polygon fill="none" stroke="#bfbfbf" points="1694.5,-74.5 1694.5,-93.5 1739.5,-93.5 1739.5,-74.5 1694.5,-74.5"/>
<text text-anchor="middle" x="1717" y="-81.5" font-family="Helvetica,sans-Serif" font-size="10.00">iosfwd</text>
</g>
<!-- Node7&#45;&gt;Node14 -->
<g id="edge14" class="edge"><title>Node7&#45;&gt;Node14</title>
<path fill="none" stroke="midnightblue" d="M1088.54,-145.027C1231.15,-131.406 1576.38,-98.4311 1684.24,-88.1292"/>
<polygon fill="midnightblue" stroke="midnightblue" points="1684.87,-91.5847 1694.49,-87.1497 1684.21,-84.6164 1684.87,-91.5847"/>
</g>
<!-- Node15 -->
<g id="node15" class="node"><title>Node15</title>
<g id="a_node15"><a xlink:href="../../d2/dd0/Cartesian2D_8h.html" target="_top" xlink:title="MathUtils/Cartesian2D.h">
<polygon fill="none" stroke="black" points="1300.5,-74.5 1300.5,-93.5 1425.5,-93.5 1425.5,-74.5 1300.5,-74.5"/>
<text text-anchor="middle" x="1363" y="-81.5" font-family="Helvetica,sans-Serif" font-size="10.00">MathUtils/Cartesian2D.h</text>
</a>
</g>
</g>
<!-- Node7&#45;&gt;Node15 -->
<g id="edge15" class="edge"><title>Node7&#45;&gt;Node15</title>
<path fill="none" stroke="midnightblue" d="M1071.53,-142.457C1124.35,-132.494 1214.05,-115.419 1291,-100 1298.06,-98.5857 1305.5,-97.0669 1312.81,-95.5582"/>
<polygon fill="midnightblue" stroke="midnightblue" points="1313.58,-98.9745 1322.66,-93.5179 1312.15,-92.1201 1313.58,-98.9745"/>
</g>
<!-- Node16 -->
<g id="node16" class="node"><title>Node16</title>
<polygon fill="none" stroke="#bfbfbf" points="1196.5,-1 1196.5,-31 1347.5,-31 1347.5,-1 1196.5,-1"/>
<text text-anchor="start" x="1204.5" y="-19" font-family="Helvetica,sans-Serif" font-size="10.00">Math/GenVector/Displacement</text>
<text text-anchor="middle" x="1272" y="-8" font-family="Helvetica,sans-Serif" font-size="10.00">Vector2D.h</text>
</g>
<!-- Node15&#45;&gt;Node16 -->
<g id="edge16" class="edge"><title>Node15&#45;&gt;Node16</title>
<path fill="none" stroke="midnightblue" d="M1351.1,-74.3717C1338.22,-65.0286 1317.22,-49.7966 1300.09,-37.375"/>
<polygon fill="midnightblue" stroke="midnightblue" points="1301.7,-34.2194 1291.55,-31.1815 1297.59,-39.8859 1301.7,-34.2194"/>
</g>
<!-- Node17 -->
<g id="node17" class="node"><title>Node17</title>
<polygon fill="none" stroke="#bfbfbf" points="1366,-6.5 1366,-25.5 1542,-25.5 1542,-6.5 1366,-6.5"/>
<text text-anchor="middle" x="1454" y="-13.5" font-family="Helvetica,sans-Serif" font-size="10.00">Math/GenVector/PositionVector2D.h</text>
</g>
<!-- Node15&#45;&gt;Node17 -->
<g id="edge17" class="edge"><title>Node15&#45;&gt;Node17</title>
<path fill="none" stroke="midnightblue" d="M1374.9,-74.3717C1389.88,-63.5015 1415.86,-44.6602 1433.94,-31.5474"/>
<polygon fill="midnightblue" stroke="midnightblue" points="1436.06,-34.3349 1442.1,-25.6305 1431.95,-28.6684 1436.06,-34.3349"/>
</g>
<!-- Node19 -->
<g id="node19" class="node"><title>Node19</title>
<g id="a_node19"><a xlink:href="../../de/d61/ShmManager_8h.html" target="_top" xlink:title="CommonUtils/ShmManager.h">
<polygon fill="none" stroke="black" points="220,-142.5 220,-161.5 366,-161.5 366,-142.5 220,-142.5"/>
<text text-anchor="middle" x="293" y="-149.5" font-family="Helvetica,sans-Serif" font-size="10.00">CommonUtils/ShmManager.h</text>
</a>
</g>
</g>
<!-- Node18&#45;&gt;Node19 -->
<g id="edge19" class="edge"><title>Node18&#45;&gt;Node19</title>
<path fill="none" stroke="midnightblue" d="M501.624,-210.372C458.564,-198.53 381.106,-177.229 333.651,-164.179"/>
<polygon fill="midnightblue" stroke="midnightblue" points="334.573,-160.803 324.003,-161.526 332.717,-167.552 334.573,-160.803"/>
</g>
<!-- Node24 -->
<g id="node24" class="node"><title>Node24</title>
<polygon fill="none" stroke="#bfbfbf" points="508.5,-142.5 508.5,-161.5 557.5,-161.5 557.5,-142.5 508.5,-142.5"/>
<text text-anchor="middle" x="533" y="-149.5" font-family="Helvetica,sans-Serif" font-size="10.00">cassert</text>
</g>
<!-- Node18&#45;&gt;Node24 -->
<g id="edge24" class="edge"><title>Node18&#45;&gt;Node24</title>
<path fill="none" stroke="midnightblue" d="M533,-210.372C533,-200.643 533,-184.528 533,-171.85"/>
<polygon fill="midnightblue" stroke="midnightblue" points="536.5,-171.841 533,-161.841 529.5,-171.841 536.5,-171.841"/>
</g>
<!-- Node20 -->
<g id="node20" class="node"><title>Node20</title>
<polygon fill="none" stroke="#bfbfbf" points="370.5,-74.5 370.5,-93.5 399.5,-93.5 399.5,-74.5 370.5,-74.5"/>
<text text-anchor="middle" x="385" y="-81.5" font-family="Helvetica,sans-Serif" font-size="10.00">list</text>
</g>
<!-- Node19&#45;&gt;Node20 -->
<g id="edge20" class="edge"><title>Node19&#45;&gt;Node20</title>
<path fill="none" stroke="midnightblue" d="M305.027,-142.372C320.18,-131.502 346.443,-112.66 364.722,-99.5474"/>
<polygon fill="midnightblue" stroke="midnightblue" points="366.884,-102.303 372.97,-93.6305 362.804,-96.6157 366.884,-102.303"/>
</g>
<!-- Node21 -->
<g id="node21" class="node"><title>Node21</title>
<polygon fill="none" stroke="#bfbfbf" points="-0.5,-74.5 -0.5,-93.5 48.5,-93.5 48.5,-74.5 -0.5,-74.5"/>
<text text-anchor="middle" x="24" y="-81.5" font-family="Helvetica,sans-Serif" font-size="10.00">cstddef</text>
</g>
<!-- Node19&#45;&gt;Node21 -->
<g id="edge21" class="edge"><title>Node19&#45;&gt;Node21</title>
<path fill="none" stroke="midnightblue" d="M238.984,-142.475C190.817,-134.122 118.74,-119.765 58,-100 55.7224,-99.2588 53.3903,-98.4172 51.0675,-97.5198"/>
<polygon fill="midnightblue" stroke="midnightblue" points="52.3111,-94.2463 41.7341,-93.6314 49.619,-100.708 52.3111,-94.2463"/>
</g>
<!-- Node22 -->
<g id="node22" class="node"><title>Node22</title>
<polygon fill="none" stroke="#bfbfbf" points="67,-69 67,-99 215,-99 215,-69 67,-69"/>
<text text-anchor="start" x="75" y="-87" font-family="Helvetica,sans-Serif" font-size="10.00">boost/interprocess</text>
<text text-anchor="middle" x="141" y="-76" font-family="Helvetica,sans-Serif" font-size="10.00">/managed_external_buffer.hpp</text>
</g>
<!-- Node19&#45;&gt;Node22 -->
<g id="edge22" class="edge"><title>Node19&#45;&gt;Node22</title>
<path fill="none" stroke="midnightblue" d="M273.129,-142.372C250.256,-132.44 212.057,-115.854 182.599,-103.063"/>
<polygon fill="midnightblue" stroke="midnightblue" points="183.939,-99.8287 173.372,-99.0562 181.151,-106.25 183.939,-99.8287"/>
</g>
<!-- Node23 -->
<g id="node23" class="node"><title>Node23</title>
<polygon fill="none" stroke="#bfbfbf" points="233,-69 233,-99 353,-99 353,-69 233,-69"/>
<text text-anchor="start" x="241" y="-87" font-family="Helvetica,sans-Serif" font-size="10.00">boost/interprocess</text>
<text text-anchor="middle" x="293" y="-76" font-family="Helvetica,sans-Serif" font-size="10.00">/allocators/allocator.hpp</text>
</g>
<!-- Node19&#45;&gt;Node23 -->
<g id="edge23" class="edge"><title>Node19&#45;&gt;Node23</title>
<path fill="none" stroke="midnightblue" d="M293,-142.372C293,-133.971 293,-120.811 293,-109.213"/>
<polygon fill="midnightblue" stroke="midnightblue" points="296.5,-109.181 293,-99.1815 289.5,-109.181 296.5,-109.181"/>
</g>
<!-- Node25&#45;&gt;Node4 -->
<g id="edge30" class="edge"><title>Node25&#45;&gt;Node4</title>
<path fill="none" stroke="midnightblue" d="M1604.01,-330.34C1662.43,-323.624 1738.91,-311.431 1763,-292 1821.73,-244.625 1772.8,-185.213 1830,-136 1874.36,-97.8387 1943.96,-87.7709 1986.91,-85.3777"/>
<polygon fill="midnightblue" stroke="midnightblue" points="1987.12,-88.8717 1996.96,-84.9308 1986.81,-81.8786 1987.12,-88.8717"/>
</g>
<!-- Node25&#45;&gt;Node5 -->
<g id="edge55" class="edge"><title>Node25&#45;&gt;Node5</title>
<path fill="none" stroke="midnightblue" d="M1459.75,-329.287C1455.1,-328.837 1450.49,-328.404 1446,-328 1250.04,-310.34 1017.35,-294.115 910.289,-286.916"/>
<polygon fill="midnightblue" stroke="midnightblue" points="910.229,-283.405 900.017,-286.228 909.76,-290.389 910.229,-283.405"/>
</g>
<!-- Node26 -->
<g id="node26" class="node"><title>Node26</title>
<polygon fill="none" stroke="#bfbfbf" points="1463,-272.5 1463,-291.5 1515,-291.5 1515,-272.5 1463,-272.5"/>
<text text-anchor="middle" x="1489" y="-279.5" font-family="Helvetica,sans-Serif" font-size="10.00">memory</text>
</g>
<!-- Node25&#45;&gt;Node26 -->
<g id="edge26" class="edge"><title>Node25&#45;&gt;Node26</title>
<path fill="none" stroke="midnightblue" d="M1524.9,-328.083C1518.76,-320.377 1509.73,-309.033 1502.26,-299.653"/>
<polygon fill="midnightblue" stroke="midnightblue" points="1504.94,-297.394 1495.97,-291.751 1499.46,-301.754 1504.94,-297.394"/>
</g>
<!-- Node27 -->
<g id="node27" class="node"><title>Node27</title>
<polygon fill="none" stroke="#bfbfbf" points="1533.5,-272.5 1533.5,-291.5 1616.5,-291.5 1616.5,-272.5 1533.5,-272.5"/>
<text text-anchor="middle" x="1575" y="-279.5" font-family="Helvetica,sans-Serif" font-size="10.00">unordered_map</text>
</g>
<!-- Node25&#45;&gt;Node27 -->
<g id="edge27" class="edge"><title>Node25&#45;&gt;Node27</title>
<path fill="none" stroke="midnightblue" d="M1539.1,-328.083C1545.24,-320.377 1554.27,-309.033 1561.74,-299.653"/>
<polygon fill="midnightblue" stroke="midnightblue" points="1564.54,-301.754 1568.03,-291.751 1559.06,-297.394 1564.54,-301.754"/>
</g>
<!-- Node28 -->
<g id="node28" class="node"><title>Node28</title>
<polygon fill="none" stroke="#bfbfbf" points="818,-210.5 818,-229.5 862,-229.5 862,-210.5 818,-210.5"/>
<text text-anchor="middle" x="840" y="-217.5" font-family="Helvetica,sans-Serif" font-size="10.00">vector</text>
</g>
<!-- Node25&#45;&gt;Node28 -->
<g id="edge28" class="edge"><title>Node25&#45;&gt;Node28</title>
<path fill="none" stroke="midnightblue" d="M1464.4,-328.499C1347.9,-313.351 1102.09,-279.183 897,-236 888.833,-234.28 880.084,-232.134 871.953,-230.007"/>
<polygon fill="midnightblue" stroke="midnightblue" points="872.64,-226.568 862.075,-227.357 870.826,-233.329 872.64,-226.568"/>
</g>
<!-- Node29 -->
<g id="node29" class="node"><title>Node29</title>
<polygon fill="none" stroke="#bfbfbf" points="1634.5,-272.5 1634.5,-291.5 1677.5,-291.5 1677.5,-272.5 1634.5,-272.5"/>
<text text-anchor="middle" x="1656" y="-279.5" font-family="Helvetica,sans-Serif" font-size="10.00">deque</text>
</g>
<!-- Node25&#45;&gt;Node29 -->
<g id="edge29" class="edge"><title>Node25&#45;&gt;Node29</title>
<path fill="none" stroke="midnightblue" d="M1551.65,-328.444C1571.96,-319.596 1603.9,-305.687 1627.1,-295.586"/>
<polygon fill="midnightblue" stroke="midnightblue" points="1628.67,-298.718 1636.44,-291.516 1625.88,-292.3 1628.67,-298.718"/>
</g>
<!-- Node30 -->
<g id="node30" class="node"><title>Node30</title>
<polygon fill="none" stroke="#bfbfbf" points="1695.5,-272.5 1695.5,-291.5 1754.5,-291.5 1754.5,-272.5 1695.5,-272.5"/>
<text text-anchor="middle" x="1725" y="-279.5" font-family="Helvetica,sans-Serif" font-size="10.00">TObject.h</text>
</g>
<!-- Node25&#45;&gt;Node30 -->
<g id="edge31" class="edge"><title>Node25&#45;&gt;Node30</title>
<path fill="none" stroke="midnightblue" d="M1562.58,-328.444C1595.81,-319.147 1649.01,-304.262 1685.41,-294.078"/>
<polygon fill="midnightblue" stroke="midnightblue" points="1686.51,-297.404 1695.2,-291.339 1684.62,-290.663 1686.51,-297.404"/>
</g>
<!-- Node31 -->
<g id="node31" class="node"><title>Node31</title>
<g id="a_node31"><a xlink:href="../../dd/dc7/EMCAL_2base_2include_2EMCALBase_2Digit_8h.html" target="_top" xlink:title="EMCALBase/Digit.h">
<polygon fill="none" stroke="black" points="1861.5,-210.5 1861.5,-229.5 1966.5,-229.5 1966.5,-210.5 1861.5,-210.5"/>
<text text-anchor="middle" x="1914" y="-217.5" font-family="Helvetica,sans-Serif" font-size="10.00">EMCALBase/Digit.h</text>
</a>
</g>
</g>
<!-- Node25&#45;&gt;Node31 -->
<g id="edge32" class="edge"><title>Node25&#45;&gt;Node31</title>
<path fill="none" stroke="midnightblue" d="M1604.26,-334.231C1662.25,-329.948 1744.77,-319.141 1812,-292 1845.11,-278.631 1878.04,-252.872 1897.19,-236.331"/>
<polygon fill="midnightblue" stroke="midnightblue" points="1899.56,-238.907 1904.74,-229.664 1894.92,-233.661 1899.56,-238.907"/>
</g>
<!-- Node35 -->
<g id="node35" class="node"><title>Node35</title>
<g id="a_node35"><a xlink:href="../../dd/da8/EMCAL_2base_2include_2EMCALBase_2Geometry_8h.html" target="_top" xlink:title="EMCALBase/Geometry.h">
<polygon fill="none" stroke="black" points="1263,-272.5 1263,-291.5 1391,-291.5 1391,-272.5 1263,-272.5"/>
<text text-anchor="middle" x="1327" y="-279.5" font-family="Helvetica,sans-Serif" font-size="10.00">EMCALBase/Geometry.h</text>
</a>
</g>
</g>
<!-- Node25&#45;&gt;Node35 -->
<g id="edge39" class="edge"><title>Node25&#45;&gt;Node35</title>
<path fill="none" stroke="midnightblue" d="M1499.52,-328.444C1464.28,-319.162 1407.9,-304.309 1369.24,-294.127"/>
<polygon fill="midnightblue" stroke="midnightblue" points="1369.89,-290.679 1359.33,-291.516 1368.11,-297.448 1369.89,-290.679"/>
</g>
<!-- Node44 -->
<g id="node44" class="node"><title>Node44</title>
<g id="a_node44"><a xlink:href="../../d5/d5e/GeometryBase_8h.html" target="_top" xlink:title="EMCALBase/GeometryBase.h">
<polygon fill="none" stroke="black" points="1620,-210.5 1620,-229.5 1770,-229.5 1770,-210.5 1620,-210.5"/>
<text text-anchor="middle" x="1695" y="-217.5" font-family="Helvetica,sans-Serif" font-size="10.00">EMCALBase/GeometryBase.h</text>
</a>
</g>
</g>
<!-- Node25&#45;&gt;Node44 -->
<g id="edge54" class="edge"><title>Node25&#45;&gt;Node44</title>
<path fill="none" stroke="midnightblue" d="M1506.66,-328.403C1477.17,-317.046 1434.8,-295.691 1454,-272 1459.82,-264.816 1567.83,-244.052 1637.25,-231.343"/>
<polygon fill="midnightblue" stroke="midnightblue" points="1637.99,-234.766 1647.2,-229.529 1636.74,-227.88 1637.99,-234.766"/>
</g>
<!-- Node31&#45;&gt;Node4 -->
<g id="edge35" class="edge"><title>Node31&#45;&gt;Node4</title>
<path fill="none" stroke="midnightblue" d="M1941.55,-210.357C1962.06,-202.515 1989.14,-188.934 2005,-168 2019.16,-149.302 2023.46,-122.004 2024.67,-103.884"/>
<polygon fill="midnightblue" stroke="midnightblue" points="2028.18,-103.852 2025.1,-93.7151 2021.18,-103.561 2028.18,-103.852"/>
</g>
<!-- Node31&#45;&gt;Node14 -->
<g id="edge33" class="edge"><title>Node31&#45;&gt;Node14</title>
<path fill="none" stroke="midnightblue" d="M1898.88,-210.361C1881.87,-200.516 1853.54,-183.747 1830,-168 1796.06,-145.298 1758.09,-116.713 1735.93,-99.7006"/>
<polygon fill="midnightblue" stroke="midnightblue" points="1738.05,-96.9132 1727.99,-93.5781 1733.78,-102.456 1738.05,-96.9132"/>
</g>
<!-- Node32 -->
<g id="node32" class="node"><title>Node32</title>
<polygon fill="none" stroke="#bfbfbf" points="1839,-142.5 1839,-161.5 1883,-161.5 1883,-142.5 1839,-142.5"/>
<text text-anchor="middle" x="1861" y="-149.5" font-family="Helvetica,sans-Serif" font-size="10.00">cmath</text>
</g>
<!-- Node31&#45;&gt;Node32 -->
<g id="edge34" class="edge"><title>Node31&#45;&gt;Node32</title>
<path fill="none" stroke="midnightblue" d="M1907.07,-210.372C1898.86,-200.151 1885,-182.884 1874.62,-169.957"/>
<polygon fill="midnightblue" stroke="midnightblue" points="1877.09,-167.447 1868.1,-161.841 1871.63,-171.83 1877.09,-167.447"/>
</g>
<!-- Node33 -->
<g id="node33" class="node"><title>Node33</title>
<g id="a_node33"><a xlink:href="../../df/d5d/common_2include_2CommonDataFormat_2TimeStamp_8h.html" target="_top" xlink:title="CommonDataFormat/TimeStamp.h">
<polygon fill="none" stroke="black" points="2053,-142.5 2053,-161.5 2223,-161.5 2223,-142.5 2053,-142.5"/>
<text text-anchor="middle" x="2138" y="-149.5" font-family="Helvetica,sans-Serif" font-size="10.00">CommonDataFormat/TimeStamp.h</text>
</a>
</g>
</g>
<!-- Node31&#45;&gt;Node33 -->
<g id="edge36" class="edge"><title>Node31&#45;&gt;Node33</title>
<path fill="none" stroke="midnightblue" d="M1943.28,-210.372C1983.22,-198.604 2054.86,-177.496 2099.22,-164.426"/>
<polygon fill="midnightblue" stroke="midnightblue" points="2100.46,-167.71 2109.06,-161.526 2098.48,-160.995 2100.46,-167.71"/>
</g>
<!-- Node34 -->
<g id="node34" class="node"><title>Node34</title>
<polygon fill="none" stroke="#bfbfbf" points="1901.5,-137 1901.5,-167 1996.5,-167 1996.5,-137 1901.5,-137"/>
<text text-anchor="start" x="1909.5" y="-155" font-family="Helvetica,sans-Serif" font-size="10.00">boost/serialization</text>
<text text-anchor="middle" x="1949" y="-144" font-family="Helvetica,sans-Serif" font-size="10.00">/base_object.hpp</text>
</g>
<!-- Node31&#45;&gt;Node34 -->
<g id="edge38" class="edge"><title>Node31&#45;&gt;Node34</title>
<path fill="none" stroke="midnightblue" d="M1918.58,-210.372C1923.17,-201.714 1930.44,-188.001 1936.72,-176.152"/>
<polygon fill="midnightblue" stroke="midnightblue" points="1939.89,-177.656 1941.48,-167.181 1933.7,-174.376 1939.89,-177.656"/>
</g>
<!-- Node33&#45;&gt;Node4 -->
<g id="edge37" class="edge"><title>Node33&#45;&gt;Node4</title>
<path fill="none" stroke="midnightblue" d="M2123.23,-142.372C2104.28,-131.304 2071.18,-111.972 2048.69,-98.838"/>
<polygon fill="midnightblue" stroke="midnightblue" points="2050.18,-95.6517 2039.78,-93.6305 2046.65,-101.696 2050.18,-95.6517"/>
</g>
<!-- Node35&#45;&gt;Node7 -->
<g id="edge53" class="edge"><title>Node35&#45;&gt;Node7</title>
<path fill="none" stroke="midnightblue" d="M1262.6,-278.713C1151.2,-274.088 932.166,-261.794 909,-236 880.998,-204.821 940.36,-178.77 984.333,-164.576"/>
<polygon fill="midnightblue" stroke="midnightblue" points="985.497,-167.88 994.002,-161.562 983.413,-161.197 985.497,-167.88"/>
</g>
<!-- Node35&#45;&gt;Node13 -->
<g id="edge45" class="edge"><title>Node35&#45;&gt;Node13</title>
<path fill="none" stroke="midnightblue" d="M1347.23,-272.356C1363.35,-264.671 1385.69,-252.155 1401,-236 1439.08,-195.801 1464.61,-134.228 1475.7,-103.616"/>
<polygon fill="midnightblue" stroke="midnightblue" points="1479.13,-104.431 1479.14,-93.8362 1472.52,-102.114 1479.13,-104.431"/>
</g>
<!-- Node35&#45;&gt;Node28 -->
<g id="edge43" class="edge"><title>Node35&#45;&gt;Node28</title>
<path fill="none" stroke="midnightblue" d="M1262.87,-280.513C1174.48,-278.515 1010.85,-270.021 876,-236 873.011,-235.246 869.946,-234.286 866.927,-233.216"/>
<polygon fill="midnightblue" stroke="midnightblue" points="868.177,-229.947 857.589,-229.548 865.617,-236.462 868.177,-229.947"/>
</g>
<!-- Node36 -->
<g id="node36" class="node"><title>Node36</title>
<polygon fill="none" stroke="#bfbfbf" points="1486.5,-210.5 1486.5,-229.5 1545.5,-229.5 1545.5,-210.5 1486.5,-210.5"/>
<text text-anchor="middle" x="1516" y="-217.5" font-family="Helvetica,sans-Serif" font-size="10.00">exception</text>
</g>
<!-- Node35&#45;&gt;Node36 -->
<g id="edge40" class="edge"><title>Node35&#45;&gt;Node36</title>
<path fill="none" stroke="midnightblue" d="M1355.41,-272.436C1384.7,-263.549 1431.65,-249.137 1472,-236 1475.15,-234.976 1478.41,-233.895 1481.68,-232.801"/>
<polygon fill="midnightblue" stroke="midnightblue" points="1483.02,-236.045 1491.37,-229.53 1480.78,-229.413 1483.02,-236.045"/>
</g>
<!-- Node37 -->
<g id="node37" class="node"><title>Node37</title>
<polygon fill="none" stroke="#bfbfbf" points="1529.5,-142.5 1529.5,-161.5 1570.5,-161.5 1570.5,-142.5 1529.5,-142.5"/>
<text text-anchor="middle" x="1550" y="-149.5" font-family="Helvetica,sans-Serif" font-size="10.00">string</text>
</g>
<!-- Node35&#45;&gt;Node37 -->
<g id="edge41" class="edge"><title>Node35&#45;&gt;Node37</title>
<path fill="none" stroke="midnightblue" d="M1351.98,-272.363C1374.17,-264.26 1407.14,-251.145 1434,-236 1455.06,-224.123 1458.36,-218.1 1478,-204 1495.31,-191.573 1515.07,-177.591 1529.51,-167.413"/>
<polygon fill="midnightblue" stroke="midnightblue" points="1531.58,-170.237 1537.74,-161.616 1527.55,-164.514 1531.58,-170.237"/>
</g>
<!-- Node38 -->
<g id="node38" class="node"><title>Node38</title>
<polygon fill="none" stroke="#bfbfbf" points="1564,-210.5 1564,-229.5 1602,-229.5 1602,-210.5 1564,-210.5"/>
<text text-anchor="middle" x="1583" y="-217.5" font-family="Helvetica,sans-Serif" font-size="10.00">tuple</text>
</g>
<!-- Node35&#45;&gt;Node38 -->
<g id="edge42" class="edge"><title>Node35&#45;&gt;Node38</title>
<path fill="none" stroke="midnightblue" d="M1391.39,-273.168C1437.55,-266.374 1500.72,-254.64 1554,-236 1555.66,-235.421 1557.33,-234.763 1559.01,-234.053"/>
<polygon fill="midnightblue" stroke="midnightblue" points="1560.79,-237.081 1568.31,-229.617 1557.77,-230.763 1560.79,-237.081"/>
</g>
<!-- Node39 -->
<g id="node39" class="node"><title>Node39</title>
<polygon fill="none" stroke="#bfbfbf" points="918,-210.5 918,-229.5 998,-229.5 998,-210.5 918,-210.5"/>
<text text-anchor="middle" x="958" y="-217.5" font-family="Helvetica,sans-Serif" font-size="10.00">RStringView.h</text>
</g>
<!-- Node35&#45;&gt;Node39 -->
<g id="edge44" class="edge"><title>Node35&#45;&gt;Node39</title>
<path fill="none" stroke="midnightblue" d="M1262.72,-274.966C1197.72,-268.164 1094.63,-255.448 1007,-236 1002.48,-234.997 997.775,-233.782 993.144,-232.483"/>
<polygon fill="midnightblue" stroke="midnightblue" points="993.811,-229.031 983.229,-229.553 991.828,-235.744 993.811,-229.031"/>
</g>
<!-- Node40 -->
<g id="node40" class="node"><title>Node40</title>
<polygon fill="none" stroke="#bfbfbf" points="1016,-210.5 1016,-229.5 1078,-229.5 1078,-210.5 1016,-210.5"/>
<text text-anchor="middle" x="1047" y="-217.5" font-family="Helvetica,sans-Serif" font-size="10.00">TNamed.h</text>
</g>
<!-- Node35&#45;&gt;Node40 -->
<g id="edge46" class="edge"><title>Node35&#45;&gt;Node40</title>
<path fill="none" stroke="midnightblue" d="M1265.17,-272.427C1216.29,-264.929 1146.62,-252.632 1087,-236 1083.86,-235.123 1080.61,-234.105 1077.39,-233.019"/>
<polygon fill="midnightblue" stroke="midnightblue" points="1078.54,-229.712 1067.95,-229.635 1076.18,-236.302 1078.54,-229.712"/>
</g>
<!-- Node41 -->
<g id="node41" class="node"><title>Node41</title>
<polygon fill="none" stroke="#bfbfbf" points="1096,-210.5 1096,-229.5 1160,-229.5 1160,-210.5 1096,-210.5"/>
<text text-anchor="middle" x="1128" y="-217.5" font-family="Helvetica,sans-Serif" font-size="10.00">TParticle.h</text>
</g>
<!-- Node35&#45;&gt;Node41 -->
<g id="edge47" class="edge"><title>Node35&#45;&gt;Node41</title>
<path fill="none" stroke="midnightblue" d="M1294.95,-272.458C1263.09,-263.817 1212.92,-249.8 1170,-236 1166.9,-235.005 1163.69,-233.932 1160.49,-232.835"/>
<polygon fill="midnightblue" stroke="midnightblue" points="1161.61,-229.519 1151.02,-229.519 1159.3,-236.126 1161.61,-229.519"/>
</g>
<!-- Node42 -->
<g id="node42" class="node"><title>Node42</title>
<polygon fill="none" stroke="#bfbfbf" points="1178.5,-210.5 1178.5,-229.5 1243.5,-229.5 1243.5,-210.5 1178.5,-210.5"/>
<text text-anchor="middle" x="1211" y="-217.5" font-family="Helvetica,sans-Serif" font-size="10.00">TVector3.h</text>
</g>
<!-- Node35&#45;&gt;Node42 -->
<g id="edge48" class="edge"><title>Node35&#45;&gt;Node42</title>
<path fill="none" stroke="midnightblue" d="M1310.38,-272.403C1291.08,-262.423 1259.04,-245.849 1236.57,-234.225"/>
<polygon fill="midnightblue" stroke="midnightblue" points="1238.08,-231.066 1227.59,-229.581 1234.86,-237.284 1238.08,-231.066"/>
</g>
<!-- Node43 -->
<g id="node43" class="node"><title>Node43</title>
<g id="a_node43"><a xlink:href="../../d4/d82/Detectors_2EMCAL_2base_2include_2EMCALBase_2Constants_8h.html" target="_top" xlink:title="EMCALBase/Constants.h">
<polygon fill="none" stroke="black" points="1262,-210.5 1262,-229.5 1392,-229.5 1392,-210.5 1262,-210.5"/>
<text text-anchor="middle" x="1327" y="-217.5" font-family="Helvetica,sans-Serif" font-size="10.00">EMCALBase/Constants.h</text>
</a>
</g>
</g>
<!-- Node35&#45;&gt;Node43 -->
<g id="edge49" class="edge"><title>Node35&#45;&gt;Node43</title>
<path fill="none" stroke="midnightblue" d="M1327,-272.403C1327,-263.938 1327,-250.728 1327,-239.82"/>
<polygon fill="midnightblue" stroke="midnightblue" points="1330.5,-239.581 1327,-229.581 1323.5,-239.581 1330.5,-239.581"/>
</g>
<!-- Node35&#45;&gt;Node44 -->
<g id="edge50" class="edge"><title>Node35&#45;&gt;Node44</title>
<path fill="none" stroke="midnightblue" d="M1382.83,-272.484C1440.13,-263.665 1531.87,-249.333 1611,-236 1619.7,-234.534 1628.91,-232.937 1637.9,-231.351"/>
<polygon fill="midnightblue" stroke="midnightblue" points="1638.7,-234.764 1647.94,-229.572 1637.48,-227.872 1638.7,-234.764"/>
</g>
<!-- Node44&#45;&gt;Node37 -->
<g id="edge52" class="edge"><title>Node44&#45;&gt;Node37</title>
<path fill="none" stroke="midnightblue" d="M1676.04,-210.372C1651.08,-199.007 1606.97,-178.931 1578.11,-165.796"/>
<polygon fill="midnightblue" stroke="midnightblue" points="1579.51,-162.588 1568.96,-161.63 1576.61,-168.959 1579.51,-162.588"/>
</g>
<!-- Node45 -->
<g id="node45" class="node"><title>Node45</title>
<polygon fill="none" stroke="#bfbfbf" points="1669,-142.5 1669,-161.5 1721,-161.5 1721,-142.5 1669,-142.5"/>
<text text-anchor="middle" x="1695" y="-149.5" font-family="Helvetica,sans-Serif" font-size="10.00">sstream</text>
</g>
<!-- Node44&#45;&gt;Node45 -->
<g id="edge51" class="edge"><title>Node44&#45;&gt;Node45</title>
<path fill="none" stroke="midnightblue" d="M1695,-210.372C1695,-200.643 1695,-184.528 1695,-171.85"/>
<polygon fill="midnightblue" stroke="midnightblue" points="1698.5,-171.841 1695,-161.841 1691.5,-171.841 1698.5,-171.841"/>
</g>
</g>
</svg>
