<?xml version="1.0" encoding="UTF-8" standalone="no"?>
<!DOCTYPE svg PUBLIC "-//W3C//DTD SVG 1.1//EN"
 "http://www.w3.org/Graphics/SVG/1.1/DTD/svg11.dtd">
<!-- Generated by graphviz version 2.36.0 (20140111.2315)
 -->
<!-- Title: /home/travis/build/AliceO2Group/AliceO2/Framework/Core/include/Framework/CallbackService.h Pages: 1 -->
<svg width="446pt" height="242pt"
 viewBox="0.00 0.00 446.00 242.00" xmlns="http://www.w3.org/2000/svg" xmlns:xlink="http://www.w3.org/1999/xlink">
<g id="graph0" class="graph" transform="scale(1 1) rotate(0) translate(4 238)">
<title>/home/travis/build/AliceO2Group/AliceO2/Framework/Core/include/Framework/CallbackService.h</title>
<!-- Node1 -->
<g id="node1" class="node"><title>Node1</title>
<polygon fill="#bfbfbf" stroke="black" points="48.5,-181 48.5,-233 199.5,-233 199.5,-181 48.5,-181"/>
<text text-anchor="start" x="56.5" y="-221" font-family="Helvetica,sans-Serif" font-size="10.00">/home/travis/build</text>
<text text-anchor="start" x="56.5" y="-210" font-family="Helvetica,sans-Serif" font-size="10.00">/AliceO2Group/AliceO2</text>
<text text-anchor="start" x="56.5" y="-199" font-family="Helvetica,sans-Serif" font-size="10.00">/Framework/Core/include</text>
<text text-anchor="middle" x="124" y="-188" font-family="Helvetica,sans-Serif" font-size="10.00">/Framework/CallbackService.h</text>
</g>
<!-- Node2 -->
<g id="node2" class="node"><title>Node2</title>
<g id="a_node2"><a xlink:href="../../d7/d3e/CallbackRegistry_8h.html" target="_top" xlink:title="A generic registry for callbacks. ">
<polygon fill="none" stroke="black" points="118,-124.5 118,-143.5 218,-143.5 218,-124.5 118,-124.5"/>
<text text-anchor="middle" x="168" y="-131.5" font-family="Helvetica,sans-Serif" font-size="10.00">CallbackRegistry.h</text>
</a>
</g>
</g>
<!-- Node1&#45;&gt;Node2 -->
<g id="edge1" class="edge"><title>Node1&#45;&gt;Node2</title>
<path fill="none" stroke="midnightblue" d="M139.637,-180.768C145.451,-171.385 151.915,-160.955 157.202,-152.425"/>
<polygon fill="midnightblue" stroke="midnightblue" points="160.28,-154.101 162.573,-143.757 154.33,-150.414 160.28,-154.101"/>
</g>
<!-- Node9 -->
<g id="node9" class="node"><title>Node9</title>
<polygon fill="none" stroke="#bfbfbf" points="50,-68.5 50,-87.5 88,-87.5 88,-68.5 50,-68.5"/>
<text text-anchor="middle" x="69" y="-75.5" font-family="Helvetica,sans-Serif" font-size="10.00">tuple</text>
</g>
<!-- Node1&#45;&gt;Node9 -->
<g id="edge11" class="edge"><title>Node1&#45;&gt;Node9</title>
<path fill="none" stroke="midnightblue" d="M113.134,-180.909C102.426,-156.184 86.3292,-119.015 76.8219,-97.0614"/>
<polygon fill="midnightblue" stroke="midnightblue" points="79.9223,-95.4133 72.7365,-87.6278 73.4988,-98.1952 79.9223,-95.4133"/>
</g>
<!-- Node3 -->
<g id="node3" class="node"><title>Node3</title>
<g id="a_node3"><a xlink:href="../../d0/d95/TypeTraits_8h.html" target="_top" xlink:title="Framework/TypeTraits.h">
<polygon fill="none" stroke="black" points="106.5,-68.5 106.5,-87.5 229.5,-87.5 229.5,-68.5 106.5,-68.5"/>
<text text-anchor="middle" x="168" y="-75.5" font-family="Helvetica,sans-Serif" font-size="10.00">Framework/TypeTraits.h</text>
</a>
</g>
</g>
<!-- Node2&#45;&gt;Node3 -->
<g id="edge2" class="edge"><title>Node2&#45;&gt;Node3</title>
<path fill="none" stroke="midnightblue" d="M168,-124.083C168,-117.006 168,-106.861 168,-97.9865"/>
<polygon fill="midnightblue" stroke="midnightblue" points="171.5,-97.751 168,-87.7511 164.5,-97.7511 171.5,-97.751"/>
</g>
<!-- Node2&#45;&gt;Node9 -->
<g id="edge8" class="edge"><title>Node2&#45;&gt;Node9</title>
<path fill="none" stroke="midnightblue" d="M152.094,-124.324C136.362,-115.743 112.058,-102.486 93.7911,-92.5224"/>
<polygon fill="midnightblue" stroke="midnightblue" points="95.3216,-89.3704 84.8666,-87.6545 91.9696,-95.5157 95.3216,-89.3704"/>
</g>
<!-- Node10 -->
<g id="node10" class="node"><title>Node10</title>
<polygon fill="none" stroke="#bfbfbf" points="247.5,-68.5 247.5,-87.5 306.5,-87.5 306.5,-68.5 247.5,-68.5"/>
<text text-anchor="middle" x="277" y="-75.5" font-family="Helvetica,sans-Serif" font-size="10.00">stdexcept</text>
</g>
<!-- Node2&#45;&gt;Node10 -->
<g id="edge9" class="edge"><title>Node2&#45;&gt;Node10</title>
<path fill="none" stroke="midnightblue" d="M185.513,-124.324C203.072,-115.625 230.331,-102.12 250.531,-92.113"/>
<polygon fill="midnightblue" stroke="midnightblue" points="252.124,-95.23 259.531,-87.6545 249.016,-88.9575 252.124,-95.23"/>
</g>
<!-- Node11 -->
<g id="node11" class="node"><title>Node11</title>
<polygon fill="none" stroke="#bfbfbf" points="325,-68.5 325,-87.5 365,-87.5 365,-68.5 325,-68.5"/>
<text text-anchor="middle" x="345" y="-75.5" font-family="Helvetica,sans-Serif" font-size="10.00">utility</text>
</g>
<!-- Node2&#45;&gt;Node11 -->
<g id="edge10" class="edge"><title>Node2&#45;&gt;Node11</title>
<path fill="none" stroke="midnightblue" d="M196.046,-124.444C228.555,-114.525 281.912,-98.2473 315.164,-88.1025"/>
<polygon fill="midnightblue" stroke="midnightblue" points="316.249,-91.4307 324.793,-85.1649 314.207,-84.7354 316.249,-91.4307"/>
</g>
<!-- Node4 -->
<g id="node4" class="node"><title>Node4</title>
<polygon fill="none" stroke="#bfbfbf" points="0,-6.5 0,-25.5 62,-25.5 62,-6.5 0,-6.5"/>
<text text-anchor="middle" x="31" y="-13.5" font-family="Helvetica,sans-Serif" font-size="10.00">type_traits</text>
</g>
<!-- Node3&#45;&gt;Node4 -->
<g id="edge3" class="edge"><title>Node3&#45;&gt;Node4</title>
<path fill="none" stroke="midnightblue" d="M148.371,-68.4035C125.176,-58.245 86.3815,-41.2547 59.7869,-29.6074"/>
<polygon fill="midnightblue" stroke="midnightblue" points="61.1565,-26.3863 50.5923,-25.5806 58.3483,-32.7984 61.1565,-26.3863"/>
</g>
<!-- Node5 -->
<g id="node5" class="node"><title>Node5</title>
<polygon fill="none" stroke="#bfbfbf" points="80,-6.5 80,-25.5 124,-25.5 124,-6.5 80,-6.5"/>
<text text-anchor="middle" x="102" y="-13.5" font-family="Helvetica,sans-Serif" font-size="10.00">vector</text>
</g>
<!-- Node3&#45;&gt;Node5 -->
<g id="edge4" class="edge"><title>Node3&#45;&gt;Node5</title>
<path fill="none" stroke="midnightblue" d="M158.544,-68.4035C148.252,-59.047 131.584,-43.8948 119.006,-32.4599"/>
<polygon fill="midnightblue" stroke="midnightblue" points="121.192,-29.7176 111.439,-25.5806 116.484,-34.8971 121.192,-29.7176"/>
</g>
<!-- Node6 -->
<g id="node6" class="node"><title>Node6</title>
<polygon fill="none" stroke="#bfbfbf" points="142,-6.5 142,-25.5 194,-25.5 194,-6.5 142,-6.5"/>
<text text-anchor="middle" x="168" y="-13.5" font-family="Helvetica,sans-Serif" font-size="10.00">memory</text>
</g>
<!-- Node3&#45;&gt;Node6 -->
<g id="edge5" class="edge"><title>Node3&#45;&gt;Node6</title>
<path fill="none" stroke="midnightblue" d="M168,-68.4035C168,-59.9381 168,-46.7283 168,-35.8199"/>
<polygon fill="midnightblue" stroke="midnightblue" points="171.5,-35.5806 168,-25.5806 164.5,-35.5806 171.5,-35.5806"/>
</g>
<!-- Node7 -->
<g id="node7" class="node"><title>Node7</title>
<polygon fill="none" stroke="#bfbfbf" points="212,-1 212,-31 316,-31 316,-1 212,-1"/>
<text text-anchor="start" x="220" y="-19" font-family="Helvetica,sans-Serif" font-size="10.00">boost/archive/binary</text>
<text text-anchor="middle" x="264" y="-8" font-family="Helvetica,sans-Serif" font-size="10.00">_iarchive.hpp</text>
</g>
<!-- Node3&#45;&gt;Node7 -->
<g id="edge6" class="edge"><title>Node3&#45;&gt;Node7</title>
<path fill="none" stroke="midnightblue" d="M181.754,-68.4035C194.999,-60.1254 215.503,-47.3106 232.724,-36.5474"/>
<polygon fill="midnightblue" stroke="midnightblue" points="234.75,-39.4088 241.375,-31.1408 231.04,-33.4728 234.75,-39.4088"/>
</g>
<!-- Node8 -->
<g id="node8" class="node"><title>Node8</title>
<polygon fill="none" stroke="#bfbfbf" points="334,-1 334,-31 438,-31 438,-1 334,-1"/>
<text text-anchor="start" x="342" y="-19" font-family="Helvetica,sans-Serif" font-size="10.00">boost/archive/binary</text>
<text text-anchor="middle" x="386" y="-8" font-family="Helvetica,sans-Serif" font-size="10.00">_oarchive.hpp</text>
</g>
<!-- Node3&#45;&gt;Node8 -->
<g id="edge7" class="edge"><title>Node3&#45;&gt;Node8</title>
<path fill="none" stroke="midnightblue" d="M199.234,-68.4035C231.972,-59.393 284.24,-45.0075 325.166,-33.7432"/>
<polygon fill="midnightblue" stroke="midnightblue" points="326.329,-37.0535 335.041,-31.0253 324.471,-30.3045 326.329,-37.0535"/>
</g>
</g>
</svg>
