<?xml version="1.0" encoding="UTF-8" standalone="no"?>
<!DOCTYPE svg PUBLIC "-//W3C//DTD SVG 1.1//EN"
 "http://www.w3.org/Graphics/SVG/1.1/DTD/svg11.dtd">
<!-- Generated by graphviz version 2.36.0 (20140111.2315)
 -->
<!-- Title: /home/travis/build/AliceO2Group/AliceO2/Framework/Core/include/Framework/DataDescriptorMatcher.h Pages: 1 -->
<!--zoomable 254 -->
<svg id="main" version="1.1" xmlns="http://www.w3.org/2000/svg" xmlns:xlink="http://www.w3.org/1999/xlink" xml:space="preserve" onload="init(evt)">
<style type="text/css"><![CDATA[
.edge:hover path { stroke: red; }
.edge:hover polygon { stroke: red; fill: red; }
]]></style>
<script type="text/javascript"><![CDATA[
var edges = document.getElementsByTagName('g');
if (edges && edges.length) {
  for (var i=0;i<edges.length;i++) {
    if (edges[i].id.substr(0,4)=='edge') {
      edges[i].setAttribute('class','edge');
    }
  }
}
]]></script>
        <defs>
                <circle id="rim" cx="0" cy="0" r="7"/>
                <circle id="rim2" cx="0" cy="0" r="3.5"/>
                <g id="zoomPlus">
                        <use xlink:href="#rim" fill="#404040">
                                <set attributeName="fill" to="#808080" begin="zoomplus.mouseover" end="zoomplus.mouseout"/>
                        </use>
                        <path d="M-4,0h8M0,-4v8" fill="none" stroke="white" stroke-width="1.5" pointer-events="none"/>
                </g>
                <g id="zoomMin">
                        <use xlink:href="#rim" fill="#404040">
                                <set attributeName="fill" to="#808080" begin="zoomminus.mouseover" end="zoomminus.mouseout"/>
                        </use>
                        <path d="M-4,0h8" fill="none" stroke="white" stroke-width="1.5" pointer-events="none"/>
                </g>
                <g id="dirArrow">
                        <path fill="none" stroke="white" stroke-width="1.5" d="M0,-3.0v7 M-2.5,-0.5L0,-3.0L2.5,-0.5"/>
                </g>
               <g id="resetDef">
                       <use xlink:href="#rim2" fill="#404040">
                               <set attributeName="fill" to="#808080" begin="reset.mouseover" end="reset.mouseout"/>
                       </use>
               </g>
        </defs>

<script type="text/javascript">
var viewWidth = 1766;
var viewHeight = 254;
var sectionId = 'dynsection-0';
</script>
<script xlink:href="../../svgpan.js"/>
<svg id="graph" class="graph">
<g id="viewport">
<title>/home/travis/build/AliceO2Group/AliceO2/Framework/Core/include/Framework/DataDescriptorMatcher.h</title>
<!-- Node1 -->
<g id="node1" class="node"><title>Node1</title>
<polygon fill="#bfbfbf" stroke="black" points="1245.5,-193 1245.5,-245 1426.5,-245 1426.5,-193 1245.5,-193"/>
<text text-anchor="start" x="1253.5" y="-233" font-family="Helvetica,sans-Serif" font-size="10.00">/home/travis/build</text>
<text text-anchor="start" x="1253.5" y="-222" font-family="Helvetica,sans-Serif" font-size="10.00">/AliceO2Group/AliceO2</text>
<text text-anchor="start" x="1253.5" y="-211" font-family="Helvetica,sans-Serif" font-size="10.00">/Framework/Core/include</text>
<text text-anchor="middle" x="1336" y="-200" font-family="Helvetica,sans-Serif" font-size="10.00">/Framework/DataDescriptorMatcher.h</text>
</g>
<!-- Node2 -->
<g id="node2" class="node"><title>Node2</title>
<g id="a_node2"><a xlink:href="../../d5/d3f/InputSpec_8h.html" target="_top" xlink:title="Framework/InputSpec.h">
<polygon fill="none" stroke="black" points="1275.5,-130.5 1275.5,-149.5 1396.5,-149.5 1396.5,-130.5 1275.5,-130.5"/>
<text text-anchor="middle" x="1336" y="-137.5" font-family="Helvetica,sans-Serif" font-size="10.00">Framework/InputSpec.h</text>
</a>
</g>
</g>
<!-- Node1&#45;&gt;Node2 -->
<g id="edge1" class="edge"><title>Node1&#45;&gt;Node2</title>
<path fill="none" stroke="midnightblue" d="M1336,-192.787C1336,-182.069 1336,-169.785 1336,-159.871"/>
<polygon fill="midnightblue" stroke="midnightblue" points="1339.5,-159.558 1336,-149.558 1332.5,-159.558 1339.5,-159.558"/>
</g>
<!-- Node4 -->
<g id="node4" class="node"><title>Node4</title>
<g id="a_node4"><a xlink:href="../../dc/dcd/DataHeader_8h.html" target="_top" xlink:title="Headers/DataHeader.h">
<polygon fill="none" stroke="black" points="306.5,-68.5 306.5,-87.5 423.5,-87.5 423.5,-68.5 306.5,-68.5"/>
<text text-anchor="middle" x="365" y="-75.5" font-family="Helvetica,sans-Serif" font-size="10.00">Headers/DataHeader.h</text>
</a>
</g>
</g>
<!-- Node1&#45;&gt;Node4 -->
<g id="edge20" class="edge"><title>Node1&#45;&gt;Node4</title>
<path fill="none" stroke="midnightblue" d="M1245.09,-204.986C1052.1,-177.359 605.144,-113.377 433.675,-88.831"/>
<polygon fill="midnightblue" stroke="midnightblue" points="434.155,-85.3641 423.76,-87.4116 433.163,-92.2935 434.155,-85.3641"/>
</g>
<!-- Node5 -->
<g id="node5" class="node"><title>Node5</title>
<polygon fill="none" stroke="#bfbfbf" points="0,-6.5 0,-25.5 46,-25.5 46,-6.5 0,-6.5"/>
<text text-anchor="middle" x="23" y="-13.5" font-family="Helvetica,sans-Serif" font-size="10.00">cstdint</text>
</g>
<!-- Node1&#45;&gt;Node5 -->
<g id="edge37" class="edge"><title>Node1&#45;&gt;Node5</title>
<path fill="none" stroke="midnightblue" d="M1245.26,-218.313C977.397,-218.564 202.769,-214.195 106,-156 60.7357,-128.779 37.2005,-66.621 27.884,-35.4866"/>
<polygon fill="midnightblue" stroke="midnightblue" points="31.1627,-34.2173 25.0811,-25.5418 24.4252,-36.1163 31.1627,-34.2173"/>
</g>
<!-- Node11 -->
<g id="node11" class="node"><title>Node11</title>
<polygon fill="none" stroke="#bfbfbf" points="1654.5,-6.5 1654.5,-25.5 1695.5,-25.5 1695.5,-6.5 1654.5,-6.5"/>
<text text-anchor="middle" x="1675" y="-13.5" font-family="Helvetica,sans-Serif" font-size="10.00">string</text>
</g>
<!-- Node1&#45;&gt;Node11 -->
<g id="edge38" class="edge"><title>Node1&#45;&gt;Node11</title>
<path fill="none" stroke="midnightblue" d="M1364.55,-192.799C1411.76,-151.222 1501.71,-72.3782 1510,-68 1564.91,-38.9934 1586.93,-53.9985 1645,-32 1646.65,-31.376 1648.32,-30.69 1650,-29.9654"/>
<polygon fill="midnightblue" stroke="midnightblue" points="1651.83,-32.9751 1659.39,-25.5558 1648.85,-26.6392 1651.83,-32.9751"/>
</g>
<!-- Node14 -->
<g id="node14" class="node"><title>Node14</title>
<g id="a_node14"><a xlink:href="../../d6/dc9/DataProcessingHeader_8h.html" target="_top" xlink:title="Framework/DataProcessing\lHeader.h">
<polygon fill="none" stroke="black" points="115,-125 115,-155 253,-155 253,-125 115,-125"/>
<text text-anchor="start" x="123" y="-143" font-family="Helvetica,sans-Serif" font-size="10.00">Framework/DataProcessing</text>
<text text-anchor="middle" x="184" y="-132" font-family="Helvetica,sans-Serif" font-size="10.00">Header.h</text>
</a>
</g>
</g>
<!-- Node1&#45;&gt;Node14 -->
<g id="edge14" class="edge"><title>Node1&#45;&gt;Node14</title>
<path fill="none" stroke="midnightblue" d="M1245.12,-211.926C1025.81,-197.267 470.415,-160.144 263.394,-146.307"/>
<polygon fill="midnightblue" stroke="midnightblue" points="263.422,-142.801 253.21,-145.626 262.955,-149.785 263.422,-142.801"/>
</g>
<!-- Node16 -->
<g id="node16" class="node"><title>Node16</title>
<g id="a_node16"><a xlink:href="../../d4/d00/Headers_2include_2Headers_2Stack_8h.html" target="_top" xlink:title="Headers/Stack.h">
<polygon fill="none" stroke="black" points="1079,-130.5 1079,-149.5 1169,-149.5 1169,-130.5 1079,-130.5"/>
<text text-anchor="middle" x="1124" y="-137.5" font-family="Helvetica,sans-Serif" font-size="10.00">Headers/Stack.h</text>
</a>
</g>
</g>
<!-- Node1&#45;&gt;Node16 -->
<g id="edge21" class="edge"><title>Node1&#45;&gt;Node16</title>
<path fill="none" stroke="midnightblue" d="M1266.88,-192.894C1230.13,-179.546 1186.62,-163.745 1157.35,-153.114"/>
<polygon fill="midnightblue" stroke="midnightblue" points="1158.22,-149.707 1147.63,-149.583 1155.83,-156.286 1158.22,-149.707"/>
</g>
<!-- Node24 -->
<g id="node24" class="node"><title>Node24</title>
<polygon fill="none" stroke="#bfbfbf" points="1714,-6.5 1714,-25.5 1758,-25.5 1758,-6.5 1714,-6.5"/>
<text text-anchor="middle" x="1736" y="-13.5" font-family="Helvetica,sans-Serif" font-size="10.00">vector</text>
</g>
<!-- Node1&#45;&gt;Node24 -->
<g id="edge40" class="edge"><title>Node1&#45;&gt;Node24</title>
<path fill="none" stroke="midnightblue" d="M1385.85,-192.95C1471.51,-149.907 1643.76,-63.3521 1709.59,-30.2704"/>
<polygon fill="midnightblue" stroke="midnightblue" points="1711.5,-33.229 1718.86,-25.6116 1708.36,-26.9743 1711.5,-33.229"/>
</g>
<!-- Node28 -->
<g id="node28" class="node"><title>Node28</title>
<polygon fill="none" stroke="#bfbfbf" points="1552,-130.5 1552,-149.5 1590,-149.5 1590,-130.5 1552,-130.5"/>
<text text-anchor="middle" x="1571" y="-137.5" font-family="Helvetica,sans-Serif" font-size="10.00">array</text>
</g>
<!-- Node1&#45;&gt;Node28 -->
<g id="edge36" class="edge"><title>Node1&#45;&gt;Node28</title>
<path fill="none" stroke="midnightblue" d="M1426.33,-192.98C1461.53,-182.532 1501.98,-169.649 1538,-156 1539.9,-155.281 1541.84,-154.505 1543.79,-153.698"/>
<polygon fill="midnightblue" stroke="midnightblue" points="1545.6,-156.727 1553.37,-149.522 1542.8,-150.31 1545.6,-156.727"/>
</g>
<!-- Node29 -->
<g id="node29" class="node"><title>Node29</title>
<polygon fill="none" stroke="#bfbfbf" points="1608,-130.5 1608,-149.5 1654,-149.5 1654,-130.5 1608,-130.5"/>
<text text-anchor="middle" x="1631" y="-137.5" font-family="Helvetica,sans-Serif" font-size="10.00">variant</text>
</g>
<!-- Node1&#45;&gt;Node29 -->
<g id="edge39" class="edge"><title>Node1&#45;&gt;Node29</title>
<path fill="none" stroke="midnightblue" d="M1426.79,-201.429C1478.08,-190.873 1542.95,-175.506 1599,-156 1600.91,-155.334 1602.86,-154.591 1604.81,-153.801"/>
<polygon fill="midnightblue" stroke="midnightblue" points="1606.59,-156.842 1614.33,-149.608 1603.77,-150.436 1606.59,-156.842"/>
</g>
<!-- Node3 -->
<g id="node3" class="node"><title>Node3</title>
<g id="a_node3"><a xlink:href="../../dc/dca/Lifetime_8h.html" target="_top" xlink:title="Framework/Lifetime.h">
<polygon fill="none" stroke="black" points="1238.5,-68.5 1238.5,-87.5 1349.5,-87.5 1349.5,-68.5 1238.5,-68.5"/>
<text text-anchor="middle" x="1294" y="-75.5" font-family="Helvetica,sans-Serif" font-size="10.00">Framework/Lifetime.h</text>
</a>
</g>
</g>
<!-- Node2&#45;&gt;Node3 -->
<g id="edge2" class="edge"><title>Node2&#45;&gt;Node3</title>
<path fill="none" stroke="midnightblue" d="M1329.98,-130.403C1323.68,-121.403 1313.63,-107.041 1305.75,-95.7824"/>
<polygon fill="midnightblue" stroke="midnightblue" points="1308.61,-93.7658 1300.01,-87.5806 1302.87,-97.7801 1308.61,-93.7658"/>
</g>
<!-- Node2&#45;&gt;Node4 -->
<g id="edge3" class="edge"><title>Node2&#45;&gt;Node4</title>
<path fill="none" stroke="midnightblue" d="M1275.27,-132.671C1245.91,-129.755 1210.15,-126.415 1178,-124 902.61,-103.314 574.072,-87.9938 433.882,-81.8965"/>
<polygon fill="midnightblue" stroke="midnightblue" points="433.857,-78.3923 423.715,-81.4562 433.554,-85.3857 433.857,-78.3923"/>
</g>
<!-- Node2&#45;&gt;Node11 -->
<g id="edge12" class="edge"><title>Node2&#45;&gt;Node11</title>
<path fill="none" stroke="midnightblue" d="M1340.68,-130.242C1349.45,-114.779 1369.94,-82.8731 1397,-68 1494.6,-14.3505 1538.73,-65.3291 1645,-32 1646.92,-31.3988 1648.86,-30.6873 1650.79,-29.906"/>
<polygon fill="midnightblue" stroke="midnightblue" points="1652.51,-32.9677 1660.13,-25.6069 1649.58,-26.609 1652.51,-32.9677"/>
</g>
<!-- Node13 -->
<g id="node13" class="node"><title>Node13</title>
<polygon fill="none" stroke="#bfbfbf" points="1406,-68.5 1406,-87.5 1458,-87.5 1458,-68.5 1406,-68.5"/>
<text text-anchor="middle" x="1432" y="-75.5" font-family="Helvetica,sans-Serif" font-size="10.00">ostream</text>
</g>
<!-- Node2&#45;&gt;Node13 -->
<g id="edge13" class="edge"><title>Node2&#45;&gt;Node13</title>
<path fill="none" stroke="midnightblue" d="M1349.75,-130.403C1365.37,-120.646 1391.06,-104.585 1409.58,-93.0109"/>
<polygon fill="midnightblue" stroke="midnightblue" points="1411.65,-95.8486 1418.27,-87.5806 1407.94,-89.9126 1411.65,-95.8486"/>
</g>
<!-- Node4&#45;&gt;Node5 -->
<g id="edge4" class="edge"><title>Node4&#45;&gt;Node5</title>
<path fill="none" stroke="midnightblue" d="M306.479,-73.6427C243.314,-68.841 140.303,-57.5712 55,-32 52.7189,-31.3162 50.3939,-30.4949 48.0908,-29.5936"/>
<polygon fill="midnightblue" stroke="midnightblue" points="49.4797,-26.381 38.9148,-25.585 46.6774,-32.7957 49.4797,-26.381"/>
</g>
<!-- Node6 -->
<g id="node6" class="node"><title>Node6</title>
<polygon fill="none" stroke="#bfbfbf" points="64,-6.5 64,-25.5 116,-25.5 116,-6.5 64,-6.5"/>
<text text-anchor="middle" x="90" y="-13.5" font-family="Helvetica,sans-Serif" font-size="10.00">memory</text>
</g>
<!-- Node4&#45;&gt;Node6 -->
<g id="edge5" class="edge"><title>Node4&#45;&gt;Node6</title>
<path fill="none" stroke="midnightblue" d="M306.433,-69.6865C257.301,-62.684 185.637,-50.4335 125,-32 122.509,-31.2429 119.957,-30.3638 117.421,-29.4182"/>
<polygon fill="midnightblue" stroke="midnightblue" points="118.466,-26.0655 107.883,-25.5588 115.84,-32.5544 118.466,-26.0655"/>
</g>
<!-- Node7 -->
<g id="node7" class="node"><title>Node7</title>
<polygon fill="none" stroke="#bfbfbf" points="134.5,-6.5 134.5,-25.5 183.5,-25.5 183.5,-6.5 134.5,-6.5"/>
<text text-anchor="middle" x="159" y="-13.5" font-family="Helvetica,sans-Serif" font-size="10.00">cassert</text>
</g>
<!-- Node4&#45;&gt;Node7 -->
<g id="edge6" class="edge"><title>Node4&#45;&gt;Node7</title>
<path fill="none" stroke="midnightblue" d="M325.184,-68.4848C289.973,-60.507 237.444,-47.5062 193,-32 190.872,-31.2575 188.691,-30.4382 186.512,-29.577"/>
<polygon fill="midnightblue" stroke="midnightblue" points="187.712,-26.2847 177.136,-25.6409 185.002,-32.739 187.712,-26.2847"/>
</g>
<!-- Node8 -->
<g id="node8" class="node"><title>Node8</title>
<polygon fill="none" stroke="#bfbfbf" points="509,-6.5 509,-25.5 555,-25.5 555,-6.5 509,-6.5"/>
<text text-anchor="middle" x="532" y="-13.5" font-family="Helvetica,sans-Serif" font-size="10.00">cstring</text>
</g>
<!-- Node4&#45;&gt;Node8 -->
<g id="edge7" class="edge"><title>Node4&#45;&gt;Node8</title>
<path fill="none" stroke="midnightblue" d="M393.276,-68.4331C420.606,-59.9359 463.039,-46.1681 499,-32 500.844,-31.2733 502.735,-30.4984 504.631,-29.6981"/>
<polygon fill="midnightblue" stroke="midnightblue" points="506.238,-32.8151 513.988,-25.5907 503.425,-26.4054 506.238,-32.8151"/>
</g>
<!-- Node9 -->
<g id="node9" class="node"><title>Node9</title>
<polygon fill="none" stroke="#bfbfbf" points="202,-6.5 202,-25.5 258,-25.5 258,-6.5 202,-6.5"/>
<text text-anchor="middle" x="230" y="-13.5" font-family="Helvetica,sans-Serif" font-size="10.00">algorithm</text>
</g>
<!-- Node4&#45;&gt;Node9 -->
<g id="edge8" class="edge"><title>Node4&#45;&gt;Node9</title>
<path fill="none" stroke="midnightblue" d="M345.658,-68.4035C322.901,-58.2896 284.908,-41.4036 258.712,-29.761"/>
<polygon fill="midnightblue" stroke="midnightblue" points="259.866,-26.4437 249.306,-25.5806 257.023,-32.8404 259.866,-26.4437"/>
</g>
<!-- Node10 -->
<g id="node10" class="node"><title>Node10</title>
<polygon fill="none" stroke="#bfbfbf" points="276.5,-6.5 276.5,-25.5 335.5,-25.5 335.5,-6.5 276.5,-6.5"/>
<text text-anchor="middle" x="306" y="-13.5" font-family="Helvetica,sans-Serif" font-size="10.00">stdexcept</text>
</g>
<!-- Node4&#45;&gt;Node10 -->
<g id="edge9" class="edge"><title>Node4&#45;&gt;Node10</title>
<path fill="none" stroke="midnightblue" d="M356.547,-68.4035C347.434,-59.1361 332.73,-44.1828 321.524,-32.7876"/>
<polygon fill="midnightblue" stroke="midnightblue" points="323.945,-30.2569 314.438,-25.5806 318.953,-35.1649 323.945,-30.2569"/>
</g>
<!-- Node4&#45;&gt;Node11 -->
<g id="edge10" class="edge"><title>Node4&#45;&gt;Node11</title>
<path fill="none" stroke="midnightblue" d="M423.559,-76.4069C658.521,-73.8277 1525.95,-62.3224 1645,-32 1647.2,-31.4395 1649.43,-30.7016 1651.62,-29.8534"/>
<polygon fill="midnightblue" stroke="midnightblue" points="1653.2,-32.9789 1660.84,-25.637 1650.29,-26.613 1653.2,-32.9789"/>
</g>
<!-- Node12 -->
<g id="node12" class="node"><title>Node12</title>
<g id="a_node12"><a xlink:href="../../d7/df8/Types_8h.html" target="_top" xlink:title="MemoryResources/Types.h">
<polygon fill="none" stroke="black" points="353.5,-6.5 353.5,-25.5 490.5,-25.5 490.5,-6.5 353.5,-6.5"/>
<text text-anchor="middle" x="422" y="-13.5" font-family="Helvetica,sans-Serif" font-size="10.00">MemoryResources/Types.h</text>
</a>
</g>
</g>
<!-- Node4&#45;&gt;Node12 -->
<g id="edge11" class="edge"><title>Node4&#45;&gt;Node12</title>
<path fill="none" stroke="midnightblue" d="M373.167,-68.4035C381.886,-59.2252 395.904,-44.4699 406.689,-33.1173"/>
<polygon fill="midnightblue" stroke="midnightblue" points="409.498,-35.2412 413.848,-25.5806 404.423,-30.42 409.498,-35.2412"/>
</g>
<!-- Node14&#45;&gt;Node4 -->
<g id="edge15" class="edge"><title>Node14&#45;&gt;Node4</title>
<path fill="none" stroke="midnightblue" d="M226.436,-124.933C257.885,-114.508 300.242,-100.467 329.815,-90.6635"/>
<polygon fill="midnightblue" stroke="midnightblue" points="330.929,-93.9815 339.32,-87.5127 328.727,-87.3371 330.929,-93.9815"/>
</g>
<!-- Node14&#45;&gt;Node5 -->
<g id="edge16" class="edge"><title>Node14&#45;&gt;Node5</title>
<path fill="none" stroke="midnightblue" d="M165.216,-124.766C134.564,-101.54 74.0783,-55.7053 42.7884,-31.995"/>
<polygon fill="midnightblue" stroke="midnightblue" points="44.5166,-28.9132 34.4326,-25.6632 40.2889,-34.4923 44.5166,-28.9132"/>
</g>
<!-- Node14&#45;&gt;Node6 -->
<g id="edge18" class="edge"><title>Node14&#45;&gt;Node6</title>
<path fill="none" stroke="midnightblue" d="M172.848,-124.526C155.34,-101.803 121.493,-57.8733 102.94,-33.794"/>
<polygon fill="midnightblue" stroke="midnightblue" points="105.52,-31.4081 96.6438,-25.6228 99.9748,-35.6805 105.52,-31.4081"/>
</g>
<!-- Node14&#45;&gt;Node7 -->
<g id="edge19" class="edge"><title>Node14&#45;&gt;Node7</title>
<path fill="none" stroke="midnightblue" d="M181.034,-124.526C176.501,-102.403 167.849,-60.1808 162.841,-35.7442"/>
<polygon fill="midnightblue" stroke="midnightblue" points="166.203,-34.7166 160.767,-25.6228 159.346,-36.1219 166.203,-34.7166"/>
</g>
<!-- Node15 -->
<g id="node15" class="node"><title>Node15</title>
<polygon fill="none" stroke="#bfbfbf" points="187.5,-68.5 187.5,-87.5 230.5,-87.5 230.5,-68.5 187.5,-68.5"/>
<text text-anchor="middle" x="209" y="-75.5" font-family="Helvetica,sans-Serif" font-size="10.00">cstdio</text>
</g>
<!-- Node14&#45;&gt;Node15 -->
<g id="edge17" class="edge"><title>Node14&#45;&gt;Node15</title>
<path fill="none" stroke="midnightblue" d="M189.925,-124.781C193.37,-116.512 197.748,-106.006 201.44,-97.1448"/>
<polygon fill="midnightblue" stroke="midnightblue" points="204.747,-98.3075 205.362,-87.7305 198.285,-95.6151 204.747,-98.3075"/>
</g>
<!-- Node16&#45;&gt;Node4 -->
<g id="edge35" class="edge"><title>Node16&#45;&gt;Node4</title>
<path fill="none" stroke="midnightblue" d="M1078.79,-135.426C951.042,-125.327 586.73,-96.528 433.853,-84.4429"/>
<polygon fill="midnightblue" stroke="midnightblue" points="433.9,-80.9358 423.655,-83.6368 433.348,-87.914 433.9,-80.9358"/>
</g>
<!-- Node17 -->
<g id="node17" class="node"><title>Node17</title>
<g id="a_node17"><a xlink:href="../../dc/d03/MemoryResources_8h.html" target="_top" xlink:title="MemoryResources/MemoryResources.h">
<polygon fill="none" stroke="black" points="1027.5,-68.5 1027.5,-87.5 1220.5,-87.5 1220.5,-68.5 1027.5,-68.5"/>
<text text-anchor="middle" x="1124" y="-75.5" font-family="Helvetica,sans-Serif" font-size="10.00">MemoryResources/MemoryResources.h</text>
</a>
</g>
</g>
<!-- Node16&#45;&gt;Node17 -->
<g id="edge22" class="edge"><title>Node16&#45;&gt;Node17</title>
<path fill="none" stroke="midnightblue" d="M1124,-130.403C1124,-121.938 1124,-108.728 1124,-97.8199"/>
<polygon fill="midnightblue" stroke="midnightblue" points="1127.5,-97.5806 1124,-87.5806 1120.5,-97.5806 1127.5,-97.5806"/>
</g>
<!-- Node17&#45;&gt;Node8 -->
<g id="edge27" class="edge"><title>Node17&#45;&gt;Node8</title>
<path fill="none" stroke="midnightblue" d="M1027.39,-73.3948C890.898,-67.5911 648.789,-54.4887 564,-32 561.648,-31.3762 559.257,-30.5858 556.895,-29.6952"/>
<polygon fill="midnightblue" stroke="midnightblue" points="558.095,-26.4009 547.528,-25.6417 555.315,-32.8253 558.095,-26.4009"/>
</g>
<!-- Node17&#45;&gt;Node11 -->
<g id="edge28" class="edge"><title>Node17&#45;&gt;Node11</title>
<path fill="none" stroke="midnightblue" d="M1220.5,-68.778C1370.42,-55.9897 1642.47,-32.7138 1645,-32 1646.98,-31.4428 1648.98,-30.7547 1650.96,-29.9822"/>
<polygon fill="midnightblue" stroke="midnightblue" points="1652.85,-32.967 1660.49,-25.633 1649.94,-26.5981 1652.85,-32.967"/>
</g>
<!-- Node18 -->
<g id="node18" class="node"><title>Node18</title>
<polygon fill="none" stroke="#bfbfbf" points="573,-1 573,-31 673,-31 673,-1 573,-1"/>
<text text-anchor="start" x="581" y="-19" font-family="Helvetica,sans-Serif" font-size="10.00">boost/container/flat</text>
<text text-anchor="middle" x="623" y="-8" font-family="Helvetica,sans-Serif" font-size="10.00">_map.hpp</text>
</g>
<!-- Node17&#45;&gt;Node18 -->
<g id="edge23" class="edge"><title>Node17&#45;&gt;Node18</title>
<path fill="none" stroke="midnightblue" d="M1027.3,-71.2758C939.74,-65.1462 807.131,-53.5085 683.155,-32.0393"/>
<polygon fill="midnightblue" stroke="midnightblue" points="683.558,-28.5565 673.103,-30.2734 682.346,-35.451 683.558,-28.5565"/>
</g>
<!-- Node19 -->
<g id="node19" class="node"><title>Node19</title>
<polygon fill="none" stroke="#bfbfbf" points="691,-1 691,-31 807,-31 807,-1 691,-1"/>
<text text-anchor="start" x="699" y="-19" font-family="Helvetica,sans-Serif" font-size="10.00">boost/container/pmr</text>
<text text-anchor="middle" x="749" y="-8" font-family="Helvetica,sans-Serif" font-size="10.00">/memory_resource.hpp</text>
</g>
<!-- Node17&#45;&gt;Node19 -->
<g id="edge24" class="edge"><title>Node17&#45;&gt;Node19</title>
<path fill="none" stroke="midnightblue" d="M1055.25,-68.4608C994.933,-60.6247 904.648,-48.0654 816.905,-32.0878"/>
<polygon fill="midnightblue" stroke="midnightblue" points="817.518,-28.6418 807.05,-30.2765 816.253,-35.5265 817.518,-28.6418"/>
</g>
<!-- Node20 -->
<g id="node20" class="node"><title>Node20</title>
<polygon fill="none" stroke="#bfbfbf" points="825,-1 825,-31 981,-31 981,-1 825,-1"/>
<text text-anchor="start" x="833" y="-19" font-family="Helvetica,sans-Serif" font-size="10.00">boost/container/pmr</text>
<text text-anchor="middle" x="903" y="-8" font-family="Helvetica,sans-Serif" font-size="10.00">/monotonic_buffer_resource.hpp</text>
</g>
<!-- Node17&#45;&gt;Node20 -->
<g id="edge25" class="edge"><title>Node17&#45;&gt;Node20</title>
<path fill="none" stroke="midnightblue" d="M1092.34,-68.4035C1059.08,-59.3739 1005.94,-44.9466 964.408,-33.6718"/>
<polygon fill="midnightblue" stroke="midnightblue" points="965.228,-30.2677 954.66,-31.0253 963.394,-37.0232 965.228,-30.2677"/>
</g>
<!-- Node21 -->
<g id="node21" class="node"><title>Node21</title>
<polygon fill="none" stroke="#bfbfbf" points="999.5,-1 999.5,-31 1132.5,-31 1132.5,-1 999.5,-1"/>
<text text-anchor="start" x="1007.5" y="-19" font-family="Helvetica,sans-Serif" font-size="10.00">boost/container/pmr</text>
<text text-anchor="middle" x="1066" y="-8" font-family="Helvetica,sans-Serif" font-size="10.00">/polymorphic_allocator.hpp</text>
</g>
<!-- Node17&#45;&gt;Node21 -->
<g id="edge26" class="edge"><title>Node17&#45;&gt;Node21</title>
<path fill="none" stroke="midnightblue" d="M1115.69,-68.4035C1108.13,-60.5811 1096.65,-48.7077 1086.63,-38.3424"/>
<polygon fill="midnightblue" stroke="midnightblue" points="1089.14,-35.8981 1079.67,-31.1408 1084.1,-40.7633 1089.14,-35.8981"/>
</g>
<!-- Node22 -->
<g id="node22" class="node"><title>Node22</title>
<polygon fill="none" stroke="#bfbfbf" points="1151,-6.5 1151,-25.5 1213,-25.5 1213,-6.5 1151,-6.5"/>
<text text-anchor="middle" x="1182" y="-13.5" font-family="Helvetica,sans-Serif" font-size="10.00">type_traits</text>
</g>
<!-- Node17&#45;&gt;Node22 -->
<g id="edge29" class="edge"><title>Node17&#45;&gt;Node22</title>
<path fill="none" stroke="midnightblue" d="M1132.31,-68.4035C1141.27,-59.1361 1155.72,-44.1828 1166.74,-32.7876"/>
<polygon fill="midnightblue" stroke="midnightblue" points="1169.27,-35.2031 1173.71,-25.5806 1164.24,-30.3379 1169.27,-35.2031"/>
</g>
<!-- Node23 -->
<g id="node23" class="node"><title>Node23</title>
<polygon fill="none" stroke="#bfbfbf" points="1231,-6.5 1231,-25.5 1271,-25.5 1271,-6.5 1231,-6.5"/>
<text text-anchor="middle" x="1251" y="-13.5" font-family="Helvetica,sans-Serif" font-size="10.00">utility</text>
</g>
<!-- Node17&#45;&gt;Node23 -->
<g id="edge30" class="edge"><title>Node17&#45;&gt;Node23</title>
<path fill="none" stroke="midnightblue" d="M1143.04,-68.3682C1162.65,-59.4275 1194.07,-44.9737 1221,-32 1222.18,-31.4313 1223.38,-30.8467 1224.6,-30.2533"/>
<polygon fill="midnightblue" stroke="midnightblue" points="1226.49,-33.2216 1233.91,-25.6537 1223.39,-26.946 1226.49,-33.2216"/>
</g>
<!-- Node17&#45;&gt;Node24 -->
<g id="edge31" class="edge"><title>Node17&#45;&gt;Node24</title>
<path fill="none" stroke="midnightblue" d="M1220.76,-68.7488C1223.88,-68.4945 1226.96,-68.2443 1230,-68 1440.59,-51.0628 1499.67,-85.7159 1704,-32 1706.35,-31.3814 1708.75,-30.5945 1711.11,-29.7063"/>
<polygon fill="midnightblue" stroke="midnightblue" points="1712.69,-32.8371 1720.48,-25.6564 1709.91,-26.4118 1712.69,-32.8371"/>
</g>
<!-- Node25 -->
<g id="node25" class="node"><title>Node25</title>
<polygon fill="none" stroke="#bfbfbf" points="1289.5,-6.5 1289.5,-25.5 1372.5,-25.5 1372.5,-6.5 1289.5,-6.5"/>
<text text-anchor="middle" x="1331" y="-13.5" font-family="Helvetica,sans-Serif" font-size="10.00">unordered_map</text>
</g>
<!-- Node17&#45;&gt;Node25 -->
<g id="edge32" class="edge"><title>Node17&#45;&gt;Node25</title>
<path fill="none" stroke="midnightblue" d="M1153.92,-68.4194C1185.33,-59.3987 1236.16,-44.7706 1280,-32 1284.04,-30.824 1288.25,-29.5915 1292.46,-28.3598"/>
<polygon fill="midnightblue" stroke="midnightblue" points="1293.54,-31.6895 1302.15,-25.5143 1291.57,-24.9729 1293.54,-31.6895"/>
</g>
<!-- Node26 -->
<g id="node26" class="node"><title>Node26</title>
<polygon fill="none" stroke="#bfbfbf" points="1390.5,-6.5 1390.5,-25.5 1487.5,-25.5 1487.5,-6.5 1390.5,-6.5"/>
<text text-anchor="middle" x="1439" y="-13.5" font-family="Helvetica,sans-Serif" font-size="10.00">FairMQMessage.h</text>
</g>
<!-- Node17&#45;&gt;Node26 -->
<g id="edge33" class="edge"><title>Node17&#45;&gt;Node26</title>
<path fill="none" stroke="midnightblue" d="M1180.15,-68.4907C1232.38,-60.2622 1312.27,-46.8802 1381,-32 1386.46,-30.8171 1392.19,-29.4697 1397.83,-28.0789"/>
<polygon fill="midnightblue" stroke="midnightblue" points="1398.97,-31.4008 1407.8,-25.5551 1397.25,-24.6146 1398.97,-31.4008"/>
</g>
<!-- Node27 -->
<g id="node27" class="node"><title>Node27</title>
<polygon fill="none" stroke="#bfbfbf" points="1505.5,-6.5 1505.5,-25.5 1636.5,-25.5 1636.5,-6.5 1505.5,-6.5"/>
<text text-anchor="middle" x="1571" y="-13.5" font-family="Helvetica,sans-Serif" font-size="10.00">FairMQTransportFactory.h</text>
</g>
<!-- Node17&#45;&gt;Node27 -->
<g id="edge34" class="edge"><title>Node17&#45;&gt;Node27</title>
<path fill="none" stroke="midnightblue" d="M1210.33,-68.4611C1285.9,-60.5335 1398.52,-47.6196 1496,-32 1504.29,-30.6711 1513.07,-29.0833 1521.58,-27.4455"/>
<polygon fill="midnightblue" stroke="midnightblue" points="1522.26,-30.8772 1531.4,-25.5125 1520.91,-24.0089 1522.26,-30.8772"/>
</g>
</g>
</svg>
        <g id="navigator" transform="translate(0 0)" fill="#404254">
                <rect fill="#f2f5e9" fill-opacity="0.5" stroke="#606060" stroke-width=".5" x="0" y="0" width="60" height="60"/>
                <use id="zoomplus" xlink:href="#zoomPlus" x="17" y="9" onmousedown="handleZoom(evt,'in')"/>
                <use id="zoomminus" xlink:href="#zoomMin" x="42" y="9" onmousedown="handleZoom(evt,'out')"/>
                <use id="reset" xlink:href="#resetDef" x="30" y="36" onmousedown="handleReset()"/>
                <g id="arrowUp" xlink:href="#dirArrow" transform="translate(30 24)" onmousedown="handlePan(0,-1)">
                  <use xlink:href="#rim" fill="#404040">
                        <set attributeName="fill" to="#808080" begin="arrowUp.mouseover" end="arrowUp.mouseout"/>
                  </use>
                  <path fill="none" stroke="white" stroke-width="1.5" d="M0,-3.0v7 M-2.5,-0.5L0,-3.0L2.5,-0.5"/>
                </g>
                <g id="arrowRight" xlink:href="#dirArrow" transform="rotate(90) translate(36 -43)" onmousedown="handlePan(1,0)">
                  <use xlink:href="#rim" fill="#404040">
                        <set attributeName="fill" to="#808080" begin="arrowRight.mouseover" end="arrowRight.mouseout"/>
                  </use>
                  <path fill="none" stroke="white" stroke-width="1.5" d="M0,-3.0v7 M-2.5,-0.5L0,-3.0L2.5,-0.5"/>
                </g>
                <g id="arrowDown" xlink:href="#dirArrow" transform="rotate(180) translate(-30 -48)" onmousedown="handlePan(0,1)">
                  <use xlink:href="#rim" fill="#404040">
                        <set attributeName="fill" to="#808080" begin="arrowDown.mouseover" end="arrowDown.mouseout"/>
                  </use>
                  <path fill="none" stroke="white" stroke-width="1.5" d="M0,-3.0v7 M-2.5,-0.5L0,-3.0L2.5,-0.5"/>
                </g>
                <g id="arrowLeft" xlink:href="#dirArrow" transform="rotate(270) translate(-36 17)" onmousedown="handlePan(-1,0)">
                  <use xlink:href="#rim" fill="#404040">
                        <set attributeName="fill" to="#808080" begin="arrowLeft.mouseover" end="arrowLeft.mouseout"/>
                  </use>
                  <path fill="none" stroke="white" stroke-width="1.5" d="M0,-3.0v7 M-2.5,-0.5L0,-3.0L2.5,-0.5"/>
                </g>
        </g>
        <svg viewBox="0 0 15 15" width="100%" height="30px" preserveAspectRatio="xMaxYMin meet">
         <g id="arrow_out" transform="scale(0.3 0.3)">
          <a xlink:href="DataDescriptorMatcher_8h__incl_org.svg" target="_base">
           <rect id="button" ry="5" rx="5" y="6" x="6" height="38" width="38"
                fill="#f2f5e9" fill-opacity="0.5" stroke="#606060" stroke-width="1.0"/>
           <path id="arrow"
             d="M 11.500037,31.436501 C 11.940474,20.09759 22.043105,11.32322 32.158766,21.979434 L 37.068811,17.246167 C 37.068811,17.246167 37.088388,32 37.088388,32 L 22.160133,31.978069 C 22.160133,31.978069 26.997745,27.140456 26.997745,27.140456 C 18.528582,18.264221 13.291696,25.230495 11.500037,31.436501 z"
             style="fill:#404040;"/>
          </a>
         </g>
        </svg>
</svg>
