<?xml version="1.0" encoding="UTF-8" standalone="no"?>
<!DOCTYPE svg PUBLIC "-//W3C//DTD SVG 1.1//EN"
 "http://www.w3.org/Graphics/SVG/1.1/DTD/svg11.dtd">
<!-- Generated by graphviz version 2.36.0 (20140111.2315)
 -->
<!-- Title: /home/travis/build/AliceO2Group/AliceO2/run/o2sim_parallel.cxx Pages: 1 -->
<svg width="1341pt" height="174pt"
 viewBox="0.00 0.00 1341.00 174.00" xmlns="http://www.w3.org/2000/svg" xmlns:xlink="http://www.w3.org/1999/xlink">
<g id="graph0" class="graph" transform="scale(1 1) rotate(0) translate(4 170)">
<title>/home/travis/build/AliceO2Group/AliceO2/run/o2sim_parallel.cxx</title>
<!-- Node1 -->
<g id="node1" class="node"><title>Node1</title>
<polygon fill="#bfbfbf" stroke="black" points="453,-124.5 453,-165.5 571,-165.5 571,-124.5 453,-124.5"/>
<text text-anchor="start" x="461" y="-153.5" font-family="Helvetica,sans-Serif" font-size="10.00">/home/travis/build</text>
<text text-anchor="start" x="461" y="-142.5" font-family="Helvetica,sans-Serif" font-size="10.00">/AliceO2Group/AliceO2</text>
<text text-anchor="middle" x="512" y="-131.5" font-family="Helvetica,sans-Serif" font-size="10.00">/run/o2sim_parallel.cxx</text>
</g>
<!-- Node2 -->
<g id="node2" class="node"><title>Node2</title>
<polygon fill="none" stroke="#bfbfbf" points="-0.5,-68.5 -0.5,-87.5 44.5,-87.5 44.5,-68.5 -0.5,-68.5"/>
<text text-anchor="middle" x="22" y="-75.5" font-family="Helvetica,sans-Serif" font-size="10.00">cstdlib</text>
</g>
<!-- Node1&#45;&gt;Node2 -->
<g id="edge1" class="edge"><title>Node1&#45;&gt;Node2</title>
<path fill="none" stroke="midnightblue" d="M452.82,-139.846C366.892,-133.14 202.55,-117.779 54.7429,-88.082"/>
<polygon fill="midnightblue" stroke="midnightblue" points="55.0791,-84.5787 44.5817,-86.0122 53.6818,-91.4378 55.0791,-84.5787"/>
</g>
<!-- Node3 -->
<g id="node3" class="node"><title>Node3</title>
<polygon fill="none" stroke="#bfbfbf" points="62.5,-68.5 62.5,-87.5 113.5,-87.5 113.5,-68.5 62.5,-68.5"/>
<text text-anchor="middle" x="88" y="-75.5" font-family="Helvetica,sans-Serif" font-size="10.00">unistd.h</text>
</g>
<!-- Node1&#45;&gt;Node3 -->
<g id="edge2" class="edge"><title>Node1&#45;&gt;Node3</title>
<path fill="none" stroke="midnightblue" d="M452.676,-137.494C378.119,-128.864 246.108,-112.09 123.481,-87.8917"/>
<polygon fill="midnightblue" stroke="midnightblue" points="124.032,-84.4327 113.54,-85.9094 122.663,-91.2975 124.032,-84.4327"/>
</g>
<!-- Node4 -->
<g id="node4" class="node"><title>Node4</title>
<polygon fill="none" stroke="#bfbfbf" points="132,-68.5 132,-87.5 184,-87.5 184,-68.5 132,-68.5"/>
<text text-anchor="middle" x="158" y="-75.5" font-family="Helvetica,sans-Serif" font-size="10.00">sstream</text>
</g>
<!-- Node1&#45;&gt;Node4 -->
<g id="edge3" class="edge"><title>Node1&#45;&gt;Node4</title>
<path fill="none" stroke="midnightblue" d="M452.938,-135.045C390.836,-125.311 290.101,-108.624 194.185,-88.1277"/>
<polygon fill="midnightblue" stroke="midnightblue" points="194.834,-84.6873 184.321,-86.0026 193.36,-91.5303 194.834,-84.6873"/>
</g>
<!-- Node5 -->
<g id="node5" class="node"><title>Node5</title>
<polygon fill="none" stroke="#bfbfbf" points="202,-68.5 202,-87.5 256,-87.5 256,-68.5 202,-68.5"/>
<text text-anchor="middle" x="229" y="-75.5" font-family="Helvetica,sans-Serif" font-size="10.00">iostream</text>
</g>
<!-- Node1&#45;&gt;Node5 -->
<g id="edge4" class="edge"><title>Node1&#45;&gt;Node5</title>
<path fill="none" stroke="midnightblue" d="M452.793,-130.78C402.929,-119.584 329.74,-103.006 266,-88 265.899,-87.9763 265.799,-87.9526 265.698,-87.9288"/>
<polygon fill="midnightblue" stroke="midnightblue" points="266.606,-84.5473 256.067,-85.6327 264.982,-91.3565 266.606,-84.5473"/>
</g>
<!-- Node6 -->
<g id="node6" class="node"><title>Node6</title>
<polygon fill="none" stroke="#bfbfbf" points="274.5,-68.5 274.5,-87.5 317.5,-87.5 317.5,-68.5 274.5,-68.5"/>
<text text-anchor="middle" x="296" y="-75.5" font-family="Helvetica,sans-Serif" font-size="10.00">cstdio</text>
</g>
<!-- Node1&#45;&gt;Node6 -->
<g id="edge5" class="edge"><title>Node1&#45;&gt;Node6</title>
<path fill="none" stroke="midnightblue" d="M452.977,-126.238C412.514,-114.062 360.414,-98.3837 327.599,-88.5091"/>
<polygon fill="midnightblue" stroke="midnightblue" points="328.247,-85.0489 317.662,-85.5188 326.23,-91.752 328.247,-85.0489"/>
</g>
<!-- Node7 -->
<g id="node7" class="node"><title>Node7</title>
<polygon fill="none" stroke="#bfbfbf" points="336,-68.5 336,-87.5 380,-87.5 380,-68.5 336,-68.5"/>
<text text-anchor="middle" x="358" y="-75.5" font-family="Helvetica,sans-Serif" font-size="10.00">fcntl.h</text>
</g>
<!-- Node1&#45;&gt;Node7 -->
<g id="edge6" class="edge"><title>Node1&#45;&gt;Node7</title>
<path fill="none" stroke="midnightblue" d="M465.795,-124.498C440.481,-113.813 409.851,-100.885 387.721,-91.5446"/>
<polygon fill="midnightblue" stroke="midnightblue" points="389.074,-88.3166 378.5,-87.6525 386.352,-94.7657 389.074,-88.3166"/>
</g>
<!-- Node8 -->
<g id="node8" class="node"><title>Node8</title>
<g id="a_node8"><a xlink:href="../../d4/dee/SimConfig_8h.html" target="_top" xlink:title="SimConfig/SimConfig.h">
<polygon fill="none" stroke="black" points="398.5,-68.5 398.5,-87.5 517.5,-87.5 517.5,-68.5 398.5,-68.5"/>
<text text-anchor="middle" x="458" y="-75.5" font-family="Helvetica,sans-Serif" font-size="10.00">SimConfig/SimConfig.h</text>
</a>
</g>
</g>
<!-- Node1&#45;&gt;Node8 -->
<g id="edge7" class="edge"><title>Node1&#45;&gt;Node8</title>
<path fill="none" stroke="midnightblue" d="M495.798,-124.498C488.076,-115.203 478.943,-104.21 471.59,-95.3579"/>
<polygon fill="midnightblue" stroke="midnightblue" points="474.271,-93.1078 465.188,-87.6525 468.886,-97.581 474.271,-93.1078"/>
</g>
<!-- Node11 -->
<g id="node11" class="node"><title>Node11</title>
<polygon fill="none" stroke="#bfbfbf" points="536,-68.5 536,-87.5 598,-87.5 598,-68.5 536,-68.5"/>
<text text-anchor="middle" x="567" y="-75.5" font-family="Helvetica,sans-Serif" font-size="10.00">sys/wait.h</text>
</g>
<!-- Node1&#45;&gt;Node11 -->
<g id="edge10" class="edge"><title>Node1&#45;&gt;Node11</title>
<path fill="none" stroke="midnightblue" d="M528.502,-124.498C536.367,-115.203 545.669,-104.21 553.159,-95.3579"/>
<polygon fill="midnightblue" stroke="midnightblue" points="555.891,-97.5472 559.679,-87.6525 550.547,-93.0256 555.891,-97.5472"/>
</g>
<!-- Node12 -->
<g id="node12" class="node"><title>Node12</title>
<polygon fill="none" stroke="#bfbfbf" points="616,-68.5 616,-87.5 660,-87.5 660,-68.5 616,-68.5"/>
<text text-anchor="middle" x="638" y="-75.5" font-family="Helvetica,sans-Serif" font-size="10.00">vector</text>
</g>
<!-- Node1&#45;&gt;Node12 -->
<g id="edge11" class="edge"><title>Node1&#45;&gt;Node12</title>
<path fill="none" stroke="midnightblue" d="M549.804,-124.498C569.865,-114.149 594.007,-101.695 611.958,-92.4346"/>
<polygon fill="midnightblue" stroke="midnightblue" points="613.945,-95.3477 621.227,-87.6525 610.736,-89.1267 613.945,-95.3477"/>
</g>
<!-- Node13 -->
<g id="node13" class="node"><title>Node13</title>
<polygon fill="none" stroke="#bfbfbf" points="678,-68.5 678,-87.5 722,-87.5 722,-68.5 678,-68.5"/>
<text text-anchor="middle" x="700" y="-75.5" font-family="Helvetica,sans-Serif" font-size="10.00">thread</text>
</g>
<!-- Node1&#45;&gt;Node13 -->
<g id="edge12" class="edge"><title>Node1&#45;&gt;Node13</title>
<path fill="none" stroke="midnightblue" d="M568.406,-124.498C601.014,-113.224 640.848,-99.4516 668.092,-90.0321"/>
<polygon fill="midnightblue" stroke="midnightblue" points="669.568,-93.2251 677.875,-86.6495 667.281,-86.6093 669.568,-93.2251"/>
</g>
<!-- Node14 -->
<g id="node14" class="node"><title>Node14</title>
<polygon fill="none" stroke="#bfbfbf" points="740.5,-68.5 740.5,-87.5 787.5,-87.5 787.5,-68.5 740.5,-68.5"/>
<text text-anchor="middle" x="764" y="-75.5" font-family="Helvetica,sans-Serif" font-size="10.00">csignal</text>
</g>
<!-- Node1&#45;&gt;Node14 -->
<g id="edge13" class="edge"><title>Node1&#45;&gt;Node14</title>
<path fill="none" stroke="midnightblue" d="M571.247,-128.906C615.107,-117.701 676.308,-102.002 730,-88 730.103,-87.973 730.207,-87.946 730.311,-87.919"/>
<polygon fill="midnightblue" stroke="midnightblue" points="731.444,-91.2403 740.228,-85.3164 729.667,-84.4695 731.444,-91.2403"/>
</g>
<!-- Node15 -->
<g id="node15" class="node"><title>Node15</title>
<polygon fill="none" stroke="#bfbfbf" points="805.5,-68.5 805.5,-87.5 882.5,-87.5 882.5,-68.5 805.5,-68.5"/>
<text text-anchor="middle" x="844" y="-75.5" font-family="Helvetica,sans-Serif" font-size="10.00">TStopwatch.h</text>
</g>
<!-- Node1&#45;&gt;Node15 -->
<g id="edge14" class="edge"><title>Node1&#45;&gt;Node15</title>
<path fill="none" stroke="midnightblue" d="M571.355,-132.379C635.357,-119.849 736.037,-100.137 795.482,-88.499"/>
<polygon fill="midnightblue" stroke="midnightblue" points="796.229,-91.9193 805.37,-86.5631 794.884,-85.0498 796.229,-91.9193"/>
</g>
<!-- Node16 -->
<g id="node16" class="node"><title>Node16</title>
<polygon fill="none" stroke="#bfbfbf" points="900.5,-68.5 900.5,-87.5 971.5,-87.5 971.5,-68.5 900.5,-68.5"/>
<text text-anchor="middle" x="936" y="-75.5" font-family="Helvetica,sans-Serif" font-size="10.00">FairLogger.h</text>
</g>
<!-- Node1&#45;&gt;Node16 -->
<g id="edge15" class="edge"><title>Node1&#45;&gt;Node16</title>
<path fill="none" stroke="midnightblue" d="M571.231,-136.195C643.902,-126.407 771.092,-108.593 890.149,-88.0733"/>
<polygon fill="midnightblue" stroke="midnightblue" points="890.914,-91.493 900.169,-86.3364 889.718,-84.5958 890.914,-91.493"/>
</g>
<!-- Node17 -->
<g id="node17" class="node"><title>Node17</title>
<g id="a_node17"><a xlink:href="../../de/d61/ShmManager_8h.html" target="_top" xlink:title="CommonUtils/ShmManager.h">
<polygon fill="none" stroke="black" points="990,-68.5 990,-87.5 1136,-87.5 1136,-68.5 990,-68.5"/>
<text text-anchor="middle" x="1063" y="-75.5" font-family="Helvetica,sans-Serif" font-size="10.00">CommonUtils/ShmManager.h</text>
</a>
</g>
</g>
<!-- Node1&#45;&gt;Node17 -->
<g id="edge16" class="edge"><title>Node1&#45;&gt;Node17</title>
<path fill="none" stroke="midnightblue" d="M571.228,-137.013C669.878,-125.376 868.07,-101.995 980.395,-88.7447"/>
<polygon fill="midnightblue" stroke="midnightblue" points="981.137,-92.1815 990.658,-87.534 980.317,-85.2297 981.137,-92.1815"/>
</g>
<!-- Node9 -->
<g id="node9" class="node"><title>Node9</title>
<polygon fill="none" stroke="#bfbfbf" points="373,-6.5 373,-25.5 429,-25.5 429,-6.5 373,-6.5"/>
<text text-anchor="middle" x="401" y="-13.5" font-family="Helvetica,sans-Serif" font-size="10.00">Rtypes.h</text>
</g>
<!-- Node8&#45;&gt;Node9 -->
<g id="edge8" class="edge"><title>Node8&#45;&gt;Node9</title>
<path fill="none" stroke="midnightblue" d="M449.833,-68.4035C441.114,-59.2252 427.096,-44.4699 416.311,-33.1173"/>
<polygon fill="midnightblue" stroke="midnightblue" points="418.577,-30.42 409.152,-25.5806 413.502,-35.2412 418.577,-30.42"/>
</g>
<!-- Node10 -->
<g id="node10" class="node"><title>Node10</title>
<polygon fill="none" stroke="#bfbfbf" points="447,-6.5 447,-25.5 581,-25.5 581,-6.5 447,-6.5"/>
<text text-anchor="middle" x="514" y="-13.5" font-family="Helvetica,sans-Serif" font-size="10.00">boost/program_options.hpp</text>
</g>
<!-- Node8&#45;&gt;Node10 -->
<g id="edge9" class="edge"><title>Node8&#45;&gt;Node10</title>
<path fill="none" stroke="midnightblue" d="M466.023,-68.4035C474.59,-59.2252 488.361,-44.4699 498.957,-33.1173"/>
<polygon fill="midnightblue" stroke="midnightblue" points="501.727,-35.2793 505.991,-25.5806 496.61,-30.503 501.727,-35.2793"/>
</g>
<!-- Node18 -->
<g id="node18" class="node"><title>Node18</title>
<polygon fill="none" stroke="#bfbfbf" points="932.5,-6.5 932.5,-25.5 961.5,-25.5 961.5,-6.5 932.5,-6.5"/>
<text text-anchor="middle" x="947" y="-13.5" font-family="Helvetica,sans-Serif" font-size="10.00">list</text>
</g>
<!-- Node17&#45;&gt;Node18 -->
<g id="edge17" class="edge"><title>Node17&#45;&gt;Node18</title>
<path fill="none" stroke="midnightblue" d="M1044.03,-68.4239C1025.22,-59.7572 995.718,-45.7212 971,-32 970.323,-31.6244 969.639,-31.2382 968.951,-30.8442"/>
<polygon fill="midnightblue" stroke="midnightblue" points="970.431,-27.6507 960.057,-25.502 966.827,-33.6515 970.431,-27.6507"/>
</g>
<!-- Node19 -->
<g id="node19" class="node"><title>Node19</title>
<polygon fill="none" stroke="#bfbfbf" points="979.5,-6.5 979.5,-25.5 1028.5,-25.5 1028.5,-6.5 979.5,-6.5"/>
<text text-anchor="middle" x="1004" y="-13.5" font-family="Helvetica,sans-Serif" font-size="10.00">cstddef</text>
</g>
<!-- Node17&#45;&gt;Node19 -->
<g id="edge18" class="edge"><title>Node17&#45;&gt;Node19</title>
<path fill="none" stroke="midnightblue" d="M1054.55,-68.4035C1045.43,-59.1361 1030.73,-44.1828 1019.52,-32.7876"/>
<polygon fill="midnightblue" stroke="midnightblue" points="1021.94,-30.2569 1012.44,-25.5806 1016.95,-35.1649 1021.94,-30.2569"/>
</g>
<!-- Node20 -->
<g id="node20" class="node"><title>Node20</title>
<polygon fill="none" stroke="#bfbfbf" points="1047,-1 1047,-31 1195,-31 1195,-1 1047,-1"/>
<text text-anchor="start" x="1055" y="-19" font-family="Helvetica,sans-Serif" font-size="10.00">boost/interprocess</text>
<text text-anchor="middle" x="1121" y="-8" font-family="Helvetica,sans-Serif" font-size="10.00">/managed_external_buffer.hpp</text>
</g>
<!-- Node17&#45;&gt;Node20 -->
<g id="edge19" class="edge"><title>Node17&#45;&gt;Node20</title>
<path fill="none" stroke="midnightblue" d="M1071.31,-68.4035C1078.87,-60.5811 1090.35,-48.7077 1100.37,-38.3424"/>
<polygon fill="midnightblue" stroke="midnightblue" points="1102.9,-40.7633 1107.33,-31.1408 1097.86,-35.8981 1102.9,-40.7633"/>
</g>
<!-- Node21 -->
<g id="node21" class="node"><title>Node21</title>
<polygon fill="none" stroke="#bfbfbf" points="1213,-1 1213,-31 1333,-31 1333,-1 1213,-1"/>
<text text-anchor="start" x="1221" y="-19" font-family="Helvetica,sans-Serif" font-size="10.00">boost/interprocess</text>
<text text-anchor="middle" x="1273" y="-8" font-family="Helvetica,sans-Serif" font-size="10.00">/allocators/allocator.hpp</text>
</g>
<!-- Node17&#45;&gt;Node21 -->
<g id="edge20" class="edge"><title>Node17&#45;&gt;Node21</title>
<path fill="none" stroke="midnightblue" d="M1093.09,-68.4035C1124.56,-59.412 1174.76,-45.0683 1214.15,-33.8147"/>
<polygon fill="midnightblue" stroke="midnightblue" points="1215.26,-37.1379 1223.91,-31.0253 1213.33,-30.4073 1215.26,-37.1379"/>
</g>
</g>
</svg>
