<?xml version="1.0" encoding="UTF-8" standalone="no"?>
<!DOCTYPE svg PUBLIC "-//W3C//DTD SVG 1.1//EN"
 "http://www.w3.org/Graphics/SVG/1.1/DTD/svg11.dtd">
<!-- Generated by graphviz version 2.36.0 (20140111.2315)
 -->
<!-- Title: /home/travis/build/AliceO2Group/AliceO2/Detectors/TOF/simulation/include/TOFSimulation/Digitizer.h Pages: 1 -->
<svg width="3109pt" height="458pt"
 viewBox="0.00 0.00 3109.00 458.00" xmlns="http://www.w3.org/2000/svg" xmlns:xlink="http://www.w3.org/1999/xlink">
<g id="graph0" class="graph" transform="scale(1 1) rotate(0) translate(4 454)">
<title>/home/travis/build/AliceO2Group/AliceO2/Detectors/TOF/simulation/include/TOFSimulation/Digitizer.h</title>
<!-- Node1 -->
<g id="node1" class="node"><title>Node1</title>
<polygon fill="#bfbfbf" stroke="black" points="1537,-397 1537,-449 1703,-449 1703,-397 1537,-397"/>
<text text-anchor="start" x="1545" y="-437" font-family="Helvetica,sans-Serif" font-size="10.00">/home/travis/build</text>
<text text-anchor="start" x="1545" y="-426" font-family="Helvetica,sans-Serif" font-size="10.00">/AliceO2Group/AliceO2</text>
<text text-anchor="start" x="1545" y="-415" font-family="Helvetica,sans-Serif" font-size="10.00">/Detectors/TOF/simulation</text>
<text text-anchor="middle" x="1620" y="-404" font-family="Helvetica,sans-Serif" font-size="10.00">/include/TOFSimulation/Digitizer.h</text>
</g>
<!-- Node2 -->
<g id="node2" class="node"><title>Node2</title>
<g id="a_node2"><a xlink:href="../../d4/d54/Geo_8h.html" target="_top" xlink:title="TOFBase/Geo.h">
<polygon fill="none" stroke="black" points="1541,-210.5 1541,-229.5 1629,-229.5 1629,-210.5 1541,-210.5"/>
<text text-anchor="middle" x="1585" y="-217.5" font-family="Helvetica,sans-Serif" font-size="10.00">TOFBase/Geo.h</text>
</a>
</g>
</g>
<!-- Node1&#45;&gt;Node2 -->
<g id="edge1" class="edge"><title>Node1&#45;&gt;Node2</title>
<path fill="none" stroke="midnightblue" d="M1633.66,-396.894C1648.46,-366.078 1667.51,-312.886 1648,-272 1640.35,-255.955 1624.9,-243.327 1611.23,-234.65"/>
<polygon fill="midnightblue" stroke="midnightblue" points="1612.98,-231.618 1602.59,-229.522 1609.4,-237.637 1612.98,-231.618"/>
</g>
<!-- Node4 -->
<g id="node4" class="node"><title>Node4</title>
<g id="a_node4"><a xlink:href="../../df/d9c/TOF_2base_2include_2TOFBase_2Digit_8h.html" target="_top" xlink:title="TOFBase/Digit.h">
<polygon fill="none" stroke="black" points="1753,-210.5 1753,-229.5 1843,-229.5 1843,-210.5 1753,-210.5"/>
<text text-anchor="middle" x="1798" y="-217.5" font-family="Helvetica,sans-Serif" font-size="10.00">TOFBase/Digit.h</text>
</a>
</g>
</g>
<!-- Node1&#45;&gt;Node4 -->
<g id="edge3" class="edge"><title>Node1&#45;&gt;Node4</title>
<path fill="none" stroke="midnightblue" d="M1688.74,-396.835C1729.31,-378.002 1777.23,-347.866 1801,-304 1811.86,-283.947 1808.16,-256.989 1803.74,-239.313"/>
<polygon fill="midnightblue" stroke="midnightblue" points="1807.1,-238.329 1801.02,-229.652 1800.36,-240.226 1807.1,-238.329"/>
</g>
<!-- Node8 -->
<g id="node8" class="node"><title>Node8</title>
<g id="a_node8"><a xlink:href="../../d5/d3c/TOF_2simulation_2include_2TOFSimulation_2Detector_8h.html" target="_top" xlink:title="TOFSimulation/Detector.h">
<polygon fill="none" stroke="black" points="1189.5,-278.5 1189.5,-297.5 1320.5,-297.5 1320.5,-278.5 1189.5,-278.5"/>
<text text-anchor="middle" x="1255" y="-285.5" font-family="Helvetica,sans-Serif" font-size="10.00">TOFSimulation/Detector.h</text>
</a>
</g>
</g>
<!-- Node1&#45;&gt;Node8 -->
<g id="edge9" class="edge"><title>Node1&#45;&gt;Node8</title>
<path fill="none" stroke="midnightblue" d="M1536.86,-408.874C1486.15,-399.135 1420.78,-383.433 1366,-360 1331.22,-345.12 1295.05,-319.836 1273.81,-303.799"/>
<polygon fill="midnightblue" stroke="midnightblue" points="1275.73,-300.861 1265.66,-297.55 1271.46,-306.414 1275.73,-300.861"/>
</g>
<!-- Node43 -->
<g id="node43" class="node"><title>Node43</title>
<g id="a_node43"><a xlink:href="../../dd/d77/Strip_8h.html" target="_top" xlink:title="TOFSimulation/Strip.h">
<polygon fill="none" stroke="black" points="1375.5,-340.5 1375.5,-359.5 1488.5,-359.5 1488.5,-340.5 1375.5,-340.5"/>
<text text-anchor="middle" x="1432" y="-347.5" font-family="Helvetica,sans-Serif" font-size="10.00">TOFSimulation/Strip.h</text>
</a>
</g>
</g>
<!-- Node1&#45;&gt;Node43 -->
<g id="edge54" class="edge"><title>Node1&#45;&gt;Node43</title>
<path fill="none" stroke="midnightblue" d="M1553.72,-396.968C1523.43,-385.529 1488.92,-372.497 1464.4,-363.237"/>
<polygon fill="midnightblue" stroke="midnightblue" points="1465.47,-359.898 1454.87,-359.639 1462.99,-366.446 1465.47,-359.898"/>
</g>
<!-- Node47 -->
<g id="node47" class="node"><title>Node47</title>
<g id="a_node47"><a xlink:href="../../db/d14/MCTruthContainer_8h.html" target="_top" xlink:title="Definition of a container to keep Monte Carlo truth external to simulation objects. ">
<polygon fill="none" stroke="black" points="1943,-205 1943,-235 2057,-235 2057,-205 1943,-205"/>
<text text-anchor="start" x="1951" y="-223" font-family="Helvetica,sans-Serif" font-size="10.00">SimulationDataFormat</text>
<text text-anchor="middle" x="2000" y="-212" font-family="Helvetica,sans-Serif" font-size="10.00">/MCTruthContainer.h</text>
</a>
</g>
</g>
<!-- Node1&#45;&gt;Node47 -->
<g id="edge63" class="edge"><title>Node1&#45;&gt;Node47</title>
<path fill="none" stroke="midnightblue" d="M1691.53,-396.888C1718.77,-386.518 1749.78,-373.714 1777,-360 1850.22,-323.107 1930.54,-269.51 1971.9,-240.844"/>
<polygon fill="midnightblue" stroke="midnightblue" points="1973.91,-243.707 1980.12,-235.12 1969.91,-237.962 1973.91,-243.707"/>
</g>
<!-- Node51 -->
<g id="node51" class="node"><title>Node51</title>
<g id="a_node51"><a xlink:href="../../d9/dad/TOF_2simulation_2include_2TOFSimulation_2MCLabel_8h.html" target="_top" xlink:title="TOFSimulation/MCLabel.h">
<polygon fill="none" stroke="black" points="1507,-340.5 1507,-359.5 1639,-359.5 1639,-340.5 1507,-340.5"/>
<text text-anchor="middle" x="1573" y="-347.5" font-family="Helvetica,sans-Serif" font-size="10.00">TOFSimulation/MCLabel.h</text>
</a>
</g>
</g>
<!-- Node1&#45;&gt;Node51 -->
<g id="edge69" class="edge"><title>Node1&#45;&gt;Node51</title>
<path fill="none" stroke="midnightblue" d="M1603.3,-396.768C1597.02,-387.284 1590.03,-376.731 1584.35,-368.15"/>
<polygon fill="midnightblue" stroke="midnightblue" points="1587.24,-366.164 1578.8,-359.757 1581.4,-370.028 1587.24,-366.164"/>
</g>
<!-- Node3 -->
<g id="node3" class="node"><title>Node3</title>
<polygon fill="none" stroke="#bfbfbf" points="1523,-74.5 1523,-93.5 1579,-93.5 1579,-74.5 1523,-74.5"/>
<text text-anchor="middle" x="1551" y="-81.5" font-family="Helvetica,sans-Serif" font-size="10.00">Rtypes.h</text>
</g>
<!-- Node2&#45;&gt;Node3 -->
<g id="edge2" class="edge"><title>Node2&#45;&gt;Node3</title>
<path fill="none" stroke="midnightblue" d="M1582.29,-210.382C1579.15,-200.277 1573.92,-183.002 1570,-168 1564.29,-146.153 1558.63,-120.827 1554.99,-103.952"/>
<polygon fill="midnightblue" stroke="midnightblue" points="1558.33,-102.817 1552.82,-93.766 1551.48,-104.276 1558.33,-102.817"/>
</g>
<!-- Node4&#45;&gt;Node3 -->
<g id="edge7" class="edge"><title>Node4&#45;&gt;Node3</title>
<path fill="none" stroke="midnightblue" d="M1796.95,-210.47C1794.39,-193.564 1786.25,-155.736 1763,-136 1713.74,-94.1774 1635.91,-85.4538 1589.52,-84.2836"/>
<polygon fill="midnightblue" stroke="midnightblue" points="1589.32,-80.7805 1579.28,-84.1355 1589.22,-87.7798 1589.32,-80.7805"/>
</g>
<!-- Node5 -->
<g id="node5" class="node"><title>Node5</title>
<g id="a_node5"><a xlink:href="../../df/d5d/common_2include_2CommonDataFormat_2TimeStamp_8h.html" target="_top" xlink:title="CommonDataFormat/TimeStamp.h">
<polygon fill="none" stroke="black" points="1811,-142.5 1811,-161.5 1981,-161.5 1981,-142.5 1811,-142.5"/>
<text text-anchor="middle" x="1896" y="-149.5" font-family="Helvetica,sans-Serif" font-size="10.00">CommonDataFormat/TimeStamp.h</text>
</a>
</g>
</g>
<!-- Node4&#45;&gt;Node5 -->
<g id="edge4" class="edge"><title>Node4&#45;&gt;Node5</title>
<path fill="none" stroke="midnightblue" d="M1810.81,-210.372C1827.03,-199.452 1855.18,-180.489 1874.66,-167.369"/>
<polygon fill="midnightblue" stroke="midnightblue" points="1876.85,-170.12 1883.19,-161.63 1872.94,-164.313 1876.85,-170.12"/>
</g>
<!-- Node6 -->
<g id="node6" class="node"><title>Node6</title>
<polygon fill="none" stroke="#bfbfbf" points="1819.5,-74.5 1819.5,-93.5 1864.5,-93.5 1864.5,-74.5 1819.5,-74.5"/>
<text text-anchor="middle" x="1842" y="-81.5" font-family="Helvetica,sans-Serif" font-size="10.00">iosfwd</text>
</g>
<!-- Node4&#45;&gt;Node6 -->
<g id="edge6" class="edge"><title>Node4&#45;&gt;Node6</title>
<path fill="none" stroke="midnightblue" d="M1843.3,-213.337C1894.25,-205.928 1972.23,-191.102 1990,-168 1998.67,-156.726 1998.45,-147.44 1990,-136 1957.68,-92.2365 1923.63,-119.906 1873,-100 1871.36,-99.3533 1869.68,-98.6559 1867.99,-97.9282"/>
<polygon fill="midnightblue" stroke="midnightblue" points="1869.07,-94.5713 1858.52,-93.5701 1866.15,-100.93 1869.07,-94.5713"/>
</g>
<!-- Node7 -->
<g id="node7" class="node"><title>Node7</title>
<polygon fill="none" stroke="#bfbfbf" points="1579.5,-137 1579.5,-167 1674.5,-167 1674.5,-137 1579.5,-137"/>
<text text-anchor="start" x="1587.5" y="-155" font-family="Helvetica,sans-Serif" font-size="10.00">boost/serialization</text>
<text text-anchor="middle" x="1627" y="-144" font-family="Helvetica,sans-Serif" font-size="10.00">/base_object.hpp</text>
</g>
<!-- Node4&#45;&gt;Node7 -->
<g id="edge8" class="edge"><title>Node4&#45;&gt;Node7</title>
<path fill="none" stroke="midnightblue" d="M1775.64,-210.372C1749.69,-200.354 1706.19,-183.566 1672.94,-170.731"/>
<polygon fill="midnightblue" stroke="midnightblue" points="1674.01,-167.392 1663.42,-167.056 1671.49,-173.922 1674.01,-167.392"/>
</g>
<!-- Node5&#45;&gt;Node3 -->
<g id="edge5" class="edge"><title>Node5&#45;&gt;Node3</title>
<path fill="none" stroke="midnightblue" d="M1851.25,-142.439C1782.86,-129.356 1653.51,-104.611 1589.24,-92.3158"/>
<polygon fill="midnightblue" stroke="midnightblue" points="1589.61,-88.8236 1579.13,-90.3822 1588.3,-95.699 1589.61,-88.8236"/>
</g>
<!-- Node8&#45;&gt;Node2 -->
<g id="edge39" class="edge"><title>Node8&#45;&gt;Node2</title>
<path fill="none" stroke="midnightblue" d="M1297.8,-278.439C1357.89,-266.421 1467.18,-244.565 1532.23,-231.555"/>
<polygon fill="midnightblue" stroke="midnightblue" points="1533.15,-234.939 1542.27,-229.546 1531.78,-228.075 1533.15,-234.939"/>
</g>
<!-- Node9 -->
<g id="node9" class="node"><title>Node9</title>
<g id="a_node9"><a xlink:href="../../d1/d3a/Base_2include_2DetectorsBase_2Detector_8h.html" target="_top" xlink:title="DetectorsBase/Detector.h">
<polygon fill="none" stroke="black" points="904.5,-210.5 904.5,-229.5 1035.5,-229.5 1035.5,-210.5 904.5,-210.5"/>
<text text-anchor="middle" x="970" y="-217.5" font-family="Helvetica,sans-Serif" font-size="10.00">DetectorsBase/Detector.h</text>
</a>
</g>
</g>
<!-- Node8&#45;&gt;Node9 -->
<g id="edge10" class="edge"><title>Node8&#45;&gt;Node9</title>
<path fill="none" stroke="midnightblue" d="M1218.03,-278.439C1166.56,-266.52 1073.31,-244.924 1016.97,-231.878"/>
<polygon fill="midnightblue" stroke="midnightblue" points="1017.43,-228.392 1006.9,-229.546 1015.85,-235.211 1017.43,-228.392"/>
</g>
<!-- Node28 -->
<g id="node28" class="node"><title>Node28</title>
<g id="a_node28"><a xlink:href="../../d0/d91/ShmAllocator_8h.html" target="_top" xlink:title="CommonUtils/ShmAllocator.h">
<polygon fill="none" stroke="black" points="217,-142.5 217,-161.5 363,-161.5 363,-142.5 217,-142.5"/>
<text text-anchor="middle" x="290" y="-149.5" font-family="Helvetica,sans-Serif" font-size="10.00">CommonUtils/ShmAllocator.h</text>
</a>
</g>
</g>
<!-- Node8&#45;&gt;Node28 -->
<g id="edge53" class="edge"><title>Node8&#45;&gt;Node28</title>
<path fill="none" stroke="midnightblue" d="M1190.86,-278.495C1047.19,-259.376 688.651,-211.287 389,-168 378.133,-166.43 366.601,-164.722 355.395,-163.039"/>
<polygon fill="midnightblue" stroke="midnightblue" points="355.633,-159.535 345.223,-161.505 354.589,-166.457 355.633,-159.535"/>
</g>
<!-- Node32 -->
<g id="node32" class="node"><title>Node32</title>
<g id="a_node32"><a xlink:href="../../d4/d25/BaseHits_8h.html" target="_top" xlink:title="SimulationDataFormat\l/BaseHits.h">
<polygon fill="none" stroke="black" points="2134,-205 2134,-235 2248,-235 2248,-205 2134,-205"/>
<text text-anchor="start" x="2142" y="-223" font-family="Helvetica,sans-Serif" font-size="10.00">SimulationDataFormat</text>
<text text-anchor="middle" x="2191" y="-212" font-family="Helvetica,sans-Serif" font-size="10.00">/BaseHits.h</text>
</a>
</g>
</g>
<!-- Node8&#45;&gt;Node32 -->
<g id="edge40" class="edge"><title>Node8&#45;&gt;Node32</title>
<path fill="none" stroke="midnightblue" d="M1312.39,-278.473C1330.18,-276.075 1349.87,-273.668 1368,-272 1677.33,-243.539 1756.5,-262.521 2066,-236 2084.74,-234.394 2105.01,-232.173 2123.66,-229.931"/>
<polygon fill="midnightblue" stroke="midnightblue" points="2124.33,-233.375 2133.83,-228.687 2123.48,-226.427 2124.33,-233.375"/>
</g>
<!-- Node9&#45;&gt;Node3 -->
<g id="edge22" class="edge"><title>Node9&#45;&gt;Node3</title>
<path fill="none" stroke="midnightblue" d="M1035.73,-215.045C1142.4,-208.035 1348.19,-191.883 1417,-168 1462.13,-152.336 1508.02,-119.442 1532.65,-100.099"/>
<polygon fill="midnightblue" stroke="midnightblue" points="1535.1,-102.622 1540.72,-93.6425 1530.72,-97.1559 1535.1,-102.622"/>
</g>
<!-- Node10 -->
<g id="node10" class="node"><title>Node10</title>
<polygon fill="none" stroke="#bfbfbf" points="373.5,-74.5 373.5,-93.5 408.5,-93.5 408.5,-74.5 373.5,-74.5"/>
<text text-anchor="middle" x="391" y="-81.5" font-family="Helvetica,sans-Serif" font-size="10.00">map</text>
</g>
<!-- Node9&#45;&gt;Node10 -->
<g id="edge11" class="edge"><title>Node9&#45;&gt;Node10</title>
<path fill="none" stroke="midnightblue" d="M904.251,-217.287C764.272,-213.034 446.546,-199.943 410,-168 391.942,-152.216 389.141,-123.101 389.512,-103.892"/>
<polygon fill="midnightblue" stroke="midnightblue" points="393.02,-103.823 390.025,-93.6606 386.029,-103.473 393.02,-103.823"/>
</g>
<!-- Node11 -->
<g id="node11" class="node"><title>Node11</title>
<polygon fill="none" stroke="#bfbfbf" points="1365,-142.5 1365,-161.5 1409,-161.5 1409,-142.5 1365,-142.5"/>
<text text-anchor="middle" x="1387" y="-149.5" font-family="Helvetica,sans-Serif" font-size="10.00">vector</text>
</g>
<!-- Node9&#45;&gt;Node11 -->
<g id="edge12" class="edge"><title>Node9&#45;&gt;Node11</title>
<path fill="none" stroke="midnightblue" d="M1035.63,-216.414C1113.28,-211.967 1245.81,-199.992 1355,-168 1357.29,-167.33 1359.61,-166.519 1361.92,-165.624"/>
<polygon fill="midnightblue" stroke="midnightblue" points="1363.33,-168.828 1371.1,-161.627 1360.53,-162.411 1363.33,-168.828"/>
</g>
<!-- Node12 -->
<g id="node12" class="node"><title>Node12</title>
<polygon fill="none" stroke="#bfbfbf" points="87.5,-74.5 87.5,-93.5 160.5,-93.5 160.5,-74.5 87.5,-74.5"/>
<text text-anchor="middle" x="124" y="-81.5" font-family="Helvetica,sans-Serif" font-size="10.00">initializer_list</text>
</g>
<!-- Node9&#45;&gt;Node12 -->
<g id="edge13" class="edge"><title>Node9&#45;&gt;Node12</title>
<path fill="none" stroke="midnightblue" d="M904.43,-217.503C729.481,-213.11 260.648,-198.596 198,-168 168.632,-153.657 145.744,-121.986 133.609,-102.177"/>
<polygon fill="midnightblue" stroke="midnightblue" points="136.616,-100.386 128.535,-93.5343 130.579,-103.93 136.616,-100.386"/>
</g>
<!-- Node13 -->
<g id="node13" class="node"><title>Node13</title>
<polygon fill="none" stroke="#bfbfbf" points="752,-142.5 752,-161.5 804,-161.5 804,-142.5 752,-142.5"/>
<text text-anchor="middle" x="778" y="-149.5" font-family="Helvetica,sans-Serif" font-size="10.00">memory</text>
</g>
<!-- Node9&#45;&gt;Node13 -->
<g id="edge14" class="edge"><title>Node9&#45;&gt;Node13</title>
<path fill="none" stroke="midnightblue" d="M941.08,-210.468C909.373,-200.914 857.13,-184.585 813,-168 810.888,-167.206 808.718,-166.358 806.541,-165.483"/>
<polygon fill="midnightblue" stroke="midnightblue" points="807.706,-162.177 797.128,-161.569 805.018,-168.64 807.706,-162.177"/>
</g>
<!-- Node14 -->
<g id="node14" class="node"><title>Node14</title>
<polygon fill="none" stroke="#bfbfbf" points="822.5,-142.5 822.5,-161.5 901.5,-161.5 901.5,-142.5 822.5,-142.5"/>
<text text-anchor="middle" x="862" y="-149.5" font-family="Helvetica,sans-Serif" font-size="10.00">FairDetector.h</text>
</g>
<!-- Node9&#45;&gt;Node14 -->
<g id="edge15" class="edge"><title>Node9&#45;&gt;Node14</title>
<path fill="none" stroke="midnightblue" d="M955.881,-210.372C937.851,-199.353 906.419,-180.145 884.932,-167.014"/>
<polygon fill="midnightblue" stroke="midnightblue" points="886.481,-163.859 876.123,-161.63 882.83,-169.832 886.481,-163.859"/>
</g>
<!-- Node15 -->
<g id="node15" class="node"><title>Node15</title>
<polygon fill="none" stroke="#bfbfbf" points="920,-142.5 920,-161.5 1020,-161.5 1020,-142.5 920,-142.5"/>
<text text-anchor="middle" x="970" y="-149.5" font-family="Helvetica,sans-Serif" font-size="10.00">FairRootManager.h</text>
</g>
<!-- Node9&#45;&gt;Node15 -->
<g id="edge16" class="edge"><title>Node9&#45;&gt;Node15</title>
<path fill="none" stroke="midnightblue" d="M970,-210.372C970,-200.643 970,-184.528 970,-171.85"/>
<polygon fill="midnightblue" stroke="midnightblue" points="973.5,-171.841 970,-161.841 966.5,-171.841 973.5,-171.841"/>
</g>
<!-- Node16 -->
<g id="node16" class="node"><title>Node16</title>
<g id="a_node16"><a xlink:href="../../d0/d9a/MaterialManager_8h.html" target="_top" xlink:title="DetectorsBase/MaterialManager.h">
<polygon fill="none" stroke="black" points="568.5,-142.5 568.5,-161.5 733.5,-161.5 733.5,-142.5 568.5,-142.5"/>
<text text-anchor="middle" x="651" y="-149.5" font-family="Helvetica,sans-Serif" font-size="10.00">DetectorsBase/MaterialManager.h</text>
</a>
</g>
</g>
<!-- Node9&#45;&gt;Node16 -->
<g id="edge17" class="edge"><title>Node9&#45;&gt;Node16</title>
<path fill="none" stroke="midnightblue" d="M928.623,-210.439C870.655,-198.446 765.33,-176.654 702.403,-163.635"/>
<polygon fill="midnightblue" stroke="midnightblue" points="702.805,-160.144 692.303,-161.546 701.387,-166.999 702.805,-160.144"/>
</g>
<!-- Node18 -->
<g id="node18" class="node"><title>Node18</title>
<polygon fill="none" stroke="#bfbfbf" points="1076.5,-142.5 1076.5,-161.5 1129.5,-161.5 1129.5,-142.5 1076.5,-142.5"/>
<text text-anchor="middle" x="1103" y="-149.5" font-family="Helvetica,sans-Serif" font-size="10.00">cxxabi.h</text>
</g>
<!-- Node9&#45;&gt;Node18 -->
<g id="edge23" class="edge"><title>Node9&#45;&gt;Node18</title>
<path fill="none" stroke="midnightblue" d="M987.387,-210.372C1010.09,-199.106 1050.04,-179.279 1076.52,-166.14"/>
<polygon fill="midnightblue" stroke="midnightblue" points="1078.21,-169.211 1085.61,-161.63 1075.09,-162.94 1078.21,-169.211"/>
</g>
<!-- Node19 -->
<g id="node19" class="node"><title>Node19</title>
<polygon fill="none" stroke="#bfbfbf" points="1147.5,-142.5 1147.5,-161.5 1198.5,-161.5 1198.5,-142.5 1147.5,-142.5"/>
<text text-anchor="middle" x="1173" y="-149.5" font-family="Helvetica,sans-Serif" font-size="10.00">typeinfo</text>
</g>
<!-- Node9&#45;&gt;Node19 -->
<g id="edge24" class="edge"><title>Node9&#45;&gt;Node19</title>
<path fill="none" stroke="midnightblue" d="M1001.93,-210.44C1035.98,-201.048 1091.32,-185.028 1138,-168 1140.12,-167.227 1142.3,-166.393 1144.48,-165.529"/>
<polygon fill="midnightblue" stroke="midnightblue" points="1145.99,-168.69 1153.9,-161.637 1143.32,-162.221 1145.99,-168.69"/>
</g>
<!-- Node20 -->
<g id="node20" class="node"><title>Node20</title>
<polygon fill="none" stroke="#bfbfbf" points="1693,-142.5 1693,-161.5 1755,-161.5 1755,-142.5 1693,-142.5"/>
<text text-anchor="middle" x="1724" y="-149.5" font-family="Helvetica,sans-Serif" font-size="10.00">type_traits</text>
</g>
<!-- Node9&#45;&gt;Node20 -->
<g id="edge25" class="edge"><title>Node9&#45;&gt;Node20</title>
<path fill="none" stroke="midnightblue" d="M1035.71,-216.644C1187.83,-210.811 1560.52,-194.243 1683,-168 1686.7,-167.207 1690.52,-166.153 1694.27,-164.969"/>
<polygon fill="midnightblue" stroke="midnightblue" points="1695.6,-168.212 1703.89,-161.625 1693.3,-161.6 1695.6,-168.212"/>
</g>
<!-- Node21 -->
<g id="node21" class="node"><title>Node21</title>
<polygon fill="none" stroke="#bfbfbf" points="1216.5,-142.5 1216.5,-161.5 1257.5,-161.5 1257.5,-142.5 1216.5,-142.5"/>
<text text-anchor="middle" x="1237" y="-149.5" font-family="Helvetica,sans-Serif" font-size="10.00">string</text>
</g>
<!-- Node9&#45;&gt;Node21 -->
<g id="edge26" class="edge"><title>Node9&#45;&gt;Node21</title>
<path fill="none" stroke="midnightblue" d="M1029.57,-210.45C1078.2,-202.464 1148.23,-188.644 1207,-168 1208.85,-167.349 1210.74,-166.608 1212.62,-165.814"/>
<polygon fill="midnightblue" stroke="midnightblue" points="1214.17,-168.952 1221.75,-161.551 1211.21,-162.608 1214.17,-168.952"/>
</g>
<!-- Node22 -->
<g id="node22" class="node"><title>Node22</title>
<polygon fill="none" stroke="#bfbfbf" points="1275.5,-142.5 1275.5,-161.5 1346.5,-161.5 1346.5,-142.5 1275.5,-142.5"/>
<text text-anchor="middle" x="1311" y="-149.5" font-family="Helvetica,sans-Serif" font-size="10.00">TMessage.h</text>
</g>
<!-- Node9&#45;&gt;Node22 -->
<g id="edge27" class="edge"><title>Node9&#45;&gt;Node22</title>
<path fill="none" stroke="midnightblue" d="M1035.55,-210.606C1095.93,-202.192 1187.74,-187.666 1266,-168 1269.84,-167.034 1273.83,-165.901 1277.78,-164.698"/>
<polygon fill="midnightblue" stroke="midnightblue" points="1278.92,-168.006 1287.38,-161.619 1276.79,-161.34 1278.92,-168.006"/>
</g>
<!-- Node23 -->
<g id="node23" class="node"><title>Node23</title>
<g id="a_node23"><a xlink:href="../../de/d61/ShmManager_8h.html" target="_top" xlink:title="CommonUtils/ShmManager.h">
<polygon fill="none" stroke="black" points="199,-74.5 199,-93.5 345,-93.5 345,-74.5 199,-74.5"/>
<text text-anchor="middle" x="272" y="-81.5" font-family="Helvetica,sans-Serif" font-size="10.00">CommonUtils/ShmManager.h</text>
</a>
</g>
</g>
<!-- Node9&#45;&gt;Node23 -->
<g id="edge28" class="edge"><title>Node9&#45;&gt;Node23</title>
<path fill="none" stroke="midnightblue" d="M904.328,-219.606C728.131,-220.548 255.068,-218.323 208,-168 186.875,-145.413 222.01,-116.233 248.013,-99.1703"/>
<polygon fill="midnightblue" stroke="midnightblue" points="250.136,-101.969 256.723,-93.671 246.398,-96.0505 250.136,-101.969"/>
</g>
<!-- Node9&#45;&gt;Node28 -->
<g id="edge33" class="edge"><title>Node9&#45;&gt;Node28</title>
<path fill="none" stroke="midnightblue" d="M904.433,-215.188C794.894,-208.409 567.874,-192.617 377,-168 366.632,-166.663 355.614,-164.974 345.027,-163.215"/>
<polygon fill="midnightblue" stroke="midnightblue" points="345.49,-159.743 335.045,-161.516 344.316,-166.644 345.49,-159.743"/>
</g>
<!-- Node29 -->
<g id="node29" class="node"><title>Node29</title>
<polygon fill="none" stroke="#bfbfbf" points="1023.5,-74.5 1023.5,-93.5 1072.5,-93.5 1072.5,-74.5 1023.5,-74.5"/>
<text text-anchor="middle" x="1048" y="-81.5" font-family="Helvetica,sans-Serif" font-size="10.00">cassert</text>
</g>
<!-- Node9&#45;&gt;Node29 -->
<g id="edge38" class="edge"><title>Node9&#45;&gt;Node29</title>
<path fill="none" stroke="midnightblue" d="M984.471,-210.36C998.084,-201.462 1017.97,-186.332 1029,-168 1040.94,-148.153 1045.38,-121.509 1047.03,-103.823"/>
<polygon fill="midnightblue" stroke="midnightblue" points="1050.54,-103.881 1047.76,-93.656 1043.55,-103.379 1050.54,-103.881"/>
</g>
<!-- Node30 -->
<g id="node30" class="node"><title>Node30</title>
<polygon fill="none" stroke="#bfbfbf" points="419,-142.5 419,-161.5 481,-161.5 481,-142.5 419,-142.5"/>
<text text-anchor="middle" x="450" y="-149.5" font-family="Helvetica,sans-Serif" font-size="10.00">sys/shm.h</text>
</g>
<!-- Node9&#45;&gt;Node30 -->
<g id="edge36" class="edge"><title>Node9&#45;&gt;Node30</title>
<path fill="none" stroke="midnightblue" d="M904.293,-217.261C811.011,-213.616 635.365,-202.391 490,-168 486.576,-167.19 483.048,-166.165 479.571,-165.033"/>
<polygon fill="midnightblue" stroke="midnightblue" points="480.635,-161.696 470.04,-161.647 478.291,-168.292 480.635,-161.696"/>
</g>
<!-- Node31 -->
<g id="node31" class="node"><title>Node31</title>
<polygon fill="none" stroke="#bfbfbf" points="499.5,-142.5 499.5,-161.5 550.5,-161.5 550.5,-142.5 499.5,-142.5"/>
<text text-anchor="middle" x="525" y="-149.5" font-family="Helvetica,sans-Serif" font-size="10.00">unistd.h</text>
</g>
<!-- Node9&#45;&gt;Node31 -->
<g id="edge37" class="edge"><title>Node9&#45;&gt;Node31</title>
<path fill="none" stroke="midnightblue" d="M904.433,-216.747C822.342,-212.595 678.034,-200.876 559,-168 556.497,-167.309 553.94,-166.464 551.409,-165.531"/>
<polygon fill="midnightblue" stroke="midnightblue" points="552.518,-162.203 541.939,-161.635 549.855,-168.676 552.518,-162.203"/>
</g>
<!-- Node16&#45;&gt;Node3 -->
<g id="edge18" class="edge"><title>Node16&#45;&gt;Node3</title>
<path fill="none" stroke="midnightblue" d="M697.679,-142.474C712.163,-140.076 728.205,-137.669 743,-136 1037.93,-102.731 1396.05,-89.647 1512.46,-86.0839"/>
<polygon fill="midnightblue" stroke="midnightblue" points="1512.75,-89.5767 1522.64,-85.7777 1512.54,-82.5799 1512.75,-89.5767"/>
</g>
<!-- Node16&#45;&gt;Node10 -->
<g id="edge19" class="edge"><title>Node16&#45;&gt;Node10</title>
<path fill="none" stroke="midnightblue" d="M617.276,-142.439C565.286,-129.242 466.556,-104.18 418.566,-91.9976"/>
<polygon fill="midnightblue" stroke="midnightblue" points="419.144,-88.5334 408.59,-89.4653 417.422,-95.3182 419.144,-88.5334"/>
</g>
<!-- Node16&#45;&gt;Node12 -->
<g id="edge21" class="edge"><title>Node16&#45;&gt;Node12</title>
<path fill="none" stroke="midnightblue" d="M602.385,-142.474C588.406,-140.185 573.122,-137.838 559,-136 395.6,-114.731 352.664,-126.312 190,-100 182.743,-98.8261 175.091,-97.3302 167.671,-95.7396"/>
<polygon fill="midnightblue" stroke="midnightblue" points="168.276,-92.2888 157.755,-93.5335 166.756,-99.1217 168.276,-92.2888"/>
</g>
<!-- Node17 -->
<g id="node17" class="node"><title>Node17</title>
<polygon fill="none" stroke="#bfbfbf" points="609.5,-74.5 609.5,-93.5 692.5,-93.5 692.5,-74.5 609.5,-74.5"/>
<text text-anchor="middle" x="651" y="-81.5" font-family="Helvetica,sans-Serif" font-size="10.00">unordered_map</text>
</g>
<!-- Node16&#45;&gt;Node17 -->
<g id="edge20" class="edge"><title>Node16&#45;&gt;Node17</title>
<path fill="none" stroke="midnightblue" d="M651,-142.372C651,-132.643 651,-116.528 651,-103.85"/>
<polygon fill="midnightblue" stroke="midnightblue" points="654.5,-103.841 651,-93.8411 647.5,-103.841 654.5,-103.841"/>
</g>
<!-- Node24 -->
<g id="node24" class="node"><title>Node24</title>
<polygon fill="none" stroke="#bfbfbf" points="303.5,-6.5 303.5,-25.5 332.5,-25.5 332.5,-6.5 303.5,-6.5"/>
<text text-anchor="middle" x="318" y="-13.5" font-family="Helvetica,sans-Serif" font-size="10.00">list</text>
</g>
<!-- Node23&#45;&gt;Node24 -->
<g id="edge29" class="edge"><title>Node23&#45;&gt;Node24</title>
<path fill="none" stroke="midnightblue" d="M278.014,-74.3717C285.069,-64.2495 296.941,-47.2154 305.921,-34.3312"/>
<polygon fill="midnightblue" stroke="midnightblue" points="308.991,-36.0464 311.838,-25.8411 303.249,-32.0438 308.991,-36.0464"/>
</g>
<!-- Node25 -->
<g id="node25" class="node"><title>Node25</title>
<polygon fill="none" stroke="#bfbfbf" points="350.5,-6.5 350.5,-25.5 399.5,-25.5 399.5,-6.5 350.5,-6.5"/>
<text text-anchor="middle" x="375" y="-13.5" font-family="Helvetica,sans-Serif" font-size="10.00">cstddef</text>
</g>
<!-- Node23&#45;&gt;Node25 -->
<g id="edge30" class="edge"><title>Node23&#45;&gt;Node25</title>
<path fill="none" stroke="midnightblue" d="M285.465,-74.3717C302.584,-63.4027 332.369,-44.317 352.853,-31.1912"/>
<polygon fill="midnightblue" stroke="midnightblue" points="355,-33.9726 361.531,-25.6305 351.223,-28.0788 355,-33.9726"/>
</g>
<!-- Node26 -->
<g id="node26" class="node"><title>Node26</title>
<polygon fill="none" stroke="#bfbfbf" points="0,-1 0,-31 148,-31 148,-1 0,-1"/>
<text text-anchor="start" x="8" y="-19" font-family="Helvetica,sans-Serif" font-size="10.00">boost/interprocess</text>
<text text-anchor="middle" x="74" y="-8" font-family="Helvetica,sans-Serif" font-size="10.00">/managed_external_buffer.hpp</text>
</g>
<!-- Node23&#45;&gt;Node26 -->
<g id="edge31" class="edge"><title>Node23&#45;&gt;Node26</title>
<path fill="none" stroke="midnightblue" d="M246.115,-74.3717C215.675,-64.2249 164.398,-47.1327 125.712,-34.2375"/>
<polygon fill="midnightblue" stroke="midnightblue" points="126.762,-30.8982 116.169,-31.0562 124.549,-37.539 126.762,-30.8982"/>
</g>
<!-- Node27 -->
<g id="node27" class="node"><title>Node27</title>
<polygon fill="none" stroke="#bfbfbf" points="166,-1 166,-31 286,-31 286,-1 166,-1"/>
<text text-anchor="start" x="174" y="-19" font-family="Helvetica,sans-Serif" font-size="10.00">boost/interprocess</text>
<text text-anchor="middle" x="226" y="-8" font-family="Helvetica,sans-Serif" font-size="10.00">/allocators/allocator.hpp</text>
</g>
<!-- Node23&#45;&gt;Node27 -->
<g id="edge32" class="edge"><title>Node23&#45;&gt;Node27</title>
<path fill="none" stroke="midnightblue" d="M265.986,-74.3717C259.833,-65.5429 250.015,-51.4557 241.647,-39.4503"/>
<polygon fill="midnightblue" stroke="midnightblue" points="244.473,-37.3842 235.884,-31.1815 238.731,-41.3867 244.473,-37.3842"/>
</g>
<!-- Node28&#45;&gt;Node23 -->
<g id="edge34" class="edge"><title>Node28&#45;&gt;Node23</title>
<path fill="none" stroke="midnightblue" d="M287.647,-142.372C284.993,-132.643 280.599,-116.528 277.141,-103.85"/>
<polygon fill="midnightblue" stroke="midnightblue" points="280.419,-102.568 274.411,-93.8411 273.666,-104.41 280.419,-102.568"/>
</g>
<!-- Node28&#45;&gt;Node29 -->
<g id="edge35" class="edge"><title>Node28&#45;&gt;Node29</title>
<path fill="none" stroke="midnightblue" d="M353.774,-142.492C371.923,-140.216 391.725,-137.872 410,-136 639.871,-112.457 917.278,-93.5099 1013.31,-87.2271"/>
<polygon fill="midnightblue" stroke="midnightblue" points="1013.58,-90.7169 1023.33,-86.5744 1013.12,-83.7317 1013.58,-90.7169"/>
</g>
<!-- Node33 -->
<g id="node33" class="node"><title>Node33</title>
<g id="a_node33"><a xlink:href="../../dd/d76/Cartesian3D_8h.html" target="_top" xlink:title="MathUtils/Cartesian3D.h">
<polygon fill="none" stroke="black" points="2257.5,-142.5 2257.5,-161.5 2382.5,-161.5 2382.5,-142.5 2257.5,-142.5"/>
<text text-anchor="middle" x="2320" y="-149.5" font-family="Helvetica,sans-Serif" font-size="10.00">MathUtils/Cartesian3D.h</text>
</a>
</g>
</g>
<!-- Node32&#45;&gt;Node33 -->
<g id="edge41" class="edge"><title>Node32&#45;&gt;Node33</title>
<path fill="none" stroke="midnightblue" d="M2218.67,-204.841C2240.99,-193.425 2272.14,-177.485 2294,-166.303"/>
<polygon fill="midnightblue" stroke="midnightblue" points="2295.72,-169.353 2303.03,-161.682 2292.53,-163.121 2295.72,-169.353"/>
</g>
<!-- Node33&#45;&gt;Node3 -->
<g id="edge47" class="edge"><title>Node33&#45;&gt;Node3</title>
<path fill="none" stroke="midnightblue" d="M2283.54,-142.426C2272.2,-140.026 2259.63,-137.63 2248,-136 2118.99,-117.922 1715.98,-94.2872 1589.42,-87.1384"/>
<polygon fill="midnightblue" stroke="midnightblue" points="1589.26,-83.6236 1579.08,-86.5559 1588.86,-90.6126 1589.26,-83.6236"/>
</g>
<!-- Node33&#45;&gt;Node6 -->
<g id="edge49" class="edge"><title>Node33&#45;&gt;Node6</title>
<path fill="none" stroke="midnightblue" d="M2282.77,-142.432C2271.63,-140.089 2259.36,-137.724 2248,-136 2082.46,-110.888 2034.22,-145.173 1873,-100 1870.8,-99.384 1868.57,-98.618 1866.36,-97.7605"/>
<polygon fill="midnightblue" stroke="midnightblue" points="1867.59,-94.4748 1857.03,-93.5964 1864.74,-100.867 1867.59,-94.4748"/>
</g>
<!-- Node34 -->
<g id="node34" class="node"><title>Node34</title>
<polygon fill="none" stroke="#bfbfbf" points="1882.5,-69 1882.5,-99 2033.5,-99 2033.5,-69 1882.5,-69"/>
<text text-anchor="start" x="1890.5" y="-87" font-family="Helvetica,sans-Serif" font-size="10.00">Math/GenVector/Displacement</text>
<text text-anchor="middle" x="1958" y="-76" font-family="Helvetica,sans-Serif" font-size="10.00">Vector3D.h</text>
</g>
<!-- Node33&#45;&gt;Node34 -->
<g id="edge42" class="edge"><title>Node33&#45;&gt;Node34</title>
<path fill="none" stroke="midnightblue" d="M2280.06,-142.445C2269.64,-140.276 2258.41,-137.997 2248,-136 2160.26,-119.16 2135.76,-116.228 2043.59,-100.098"/>
<polygon fill="midnightblue" stroke="midnightblue" points="2044,-96.6162 2033.54,-98.3345 2042.79,-103.511 2044,-96.6162"/>
</g>
<!-- Node35 -->
<g id="node35" class="node"><title>Node35</title>
<polygon fill="none" stroke="#bfbfbf" points="2052,-74.5 2052,-93.5 2228,-93.5 2228,-74.5 2052,-74.5"/>
<text text-anchor="middle" x="2140" y="-81.5" font-family="Helvetica,sans-Serif" font-size="10.00">Math/GenVector/PositionVector3D.h</text>
</g>
<!-- Node33&#45;&gt;Node35 -->
<g id="edge43" class="edge"><title>Node33&#45;&gt;Node35</title>
<path fill="none" stroke="midnightblue" d="M2296.47,-142.372C2264.85,-130.778 2208.5,-110.116 2172.75,-97.0087"/>
<polygon fill="midnightblue" stroke="midnightblue" points="2173.85,-93.6824 2163.25,-93.5259 2171.44,-100.255 2173.85,-93.6824"/>
</g>
<!-- Node36 -->
<g id="node36" class="node"><title>Node36</title>
<polygon fill="none" stroke="#bfbfbf" points="2245.5,-74.5 2245.5,-93.5 2394.5,-93.5 2394.5,-74.5 2245.5,-74.5"/>
<text text-anchor="middle" x="2320" y="-81.5" font-family="Helvetica,sans-Serif" font-size="10.00">Math/GenVector/Rotation3D.h</text>
</g>
<!-- Node33&#45;&gt;Node36 -->
<g id="edge44" class="edge"><title>Node33&#45;&gt;Node36</title>
<path fill="none" stroke="midnightblue" d="M2320,-142.372C2320,-132.643 2320,-116.528 2320,-103.85"/>
<polygon fill="midnightblue" stroke="midnightblue" points="2323.5,-103.841 2320,-93.8411 2316.5,-103.841 2323.5,-103.841"/>
</g>
<!-- Node37 -->
<g id="node37" class="node"><title>Node37</title>
<polygon fill="none" stroke="#bfbfbf" points="2413,-74.5 2413,-93.5 2569,-93.5 2569,-74.5 2413,-74.5"/>
<text text-anchor="middle" x="2491" y="-81.5" font-family="Helvetica,sans-Serif" font-size="10.00">Math/GenVector/Transform3D.h</text>
</g>
<!-- Node33&#45;&gt;Node37 -->
<g id="edge45" class="edge"><title>Node33&#45;&gt;Node37</title>
<path fill="none" stroke="midnightblue" d="M2342.36,-142.372C2372.27,-130.827 2425.47,-110.293 2459.45,-97.1772"/>
<polygon fill="midnightblue" stroke="midnightblue" points="2460.84,-100.392 2468.91,-93.5259 2458.32,-93.8615 2460.84,-100.392"/>
</g>
<!-- Node38 -->
<g id="node38" class="node"><title>Node38</title>
<polygon fill="none" stroke="#bfbfbf" points="2587,-74.5 2587,-93.5 2747,-93.5 2747,-74.5 2587,-74.5"/>
<text text-anchor="middle" x="2667" y="-81.5" font-family="Helvetica,sans-Serif" font-size="10.00">Math/GenVector/Translation3D.h</text>
</g>
<!-- Node33&#45;&gt;Node38 -->
<g id="edge46" class="edge"><title>Node33&#45;&gt;Node38</title>
<path fill="none" stroke="midnightblue" d="M2365.01,-142.439C2428.32,-130.396 2543.58,-108.475 2611.93,-95.4745"/>
<polygon fill="midnightblue" stroke="midnightblue" points="2612.9,-98.8525 2622.07,-93.5455 2611.59,-91.9758 2612.9,-98.8525"/>
</g>
<!-- Node39 -->
<g id="node39" class="node"><title>Node39</title>
<polygon fill="none" stroke="#bfbfbf" points="2765,-74.5 2765,-93.5 2841,-93.5 2841,-74.5 2765,-74.5"/>
<text text-anchor="middle" x="2803" y="-81.5" font-family="Helvetica,sans-Serif" font-size="10.00">TGeoMatrix.h</text>
</g>
<!-- Node33&#45;&gt;Node39 -->
<g id="edge48" class="edge"><title>Node33&#45;&gt;Node39</title>
<path fill="none" stroke="midnightblue" d="M2382.71,-147.466C2467.98,-141.801 2624.89,-128.313 2756,-100 2760.45,-99.0384 2765.08,-97.8288 2769.63,-96.5159"/>
<polygon fill="midnightblue" stroke="midnightblue" points="2770.8,-99.8171 2779.33,-93.5327 2768.74,-93.1262 2770.8,-99.8171"/>
</g>
<!-- Node40 -->
<g id="node40" class="node"><title>Node40</title>
<g id="a_node40"><a xlink:href="../../d2/dd0/Cartesian2D_8h.html" target="_top" xlink:title="MathUtils/Cartesian2D.h">
<polygon fill="none" stroke="black" points="2859.5,-74.5 2859.5,-93.5 2984.5,-93.5 2984.5,-74.5 2859.5,-74.5"/>
<text text-anchor="middle" x="2922" y="-81.5" font-family="Helvetica,sans-Serif" font-size="10.00">MathUtils/Cartesian2D.h</text>
</a>
</g>
</g>
<!-- Node33&#45;&gt;Node40 -->
<g id="edge50" class="edge"><title>Node33&#45;&gt;Node40</title>
<path fill="none" stroke="midnightblue" d="M2382.69,-147.198C2482.15,-140.666 2682.07,-125.494 2850,-100 2858.08,-98.7738 2866.61,-97.2235 2874.88,-95.5877"/>
<polygon fill="midnightblue" stroke="midnightblue" points="2875.67,-98.9973 2884.77,-93.566 2874.27,-92.139 2875.67,-98.9973"/>
</g>
<!-- Node41 -->
<g id="node41" class="node"><title>Node41</title>
<polygon fill="none" stroke="#bfbfbf" points="2755.5,-1 2755.5,-31 2906.5,-31 2906.5,-1 2755.5,-1"/>
<text text-anchor="start" x="2763.5" y="-19" font-family="Helvetica,sans-Serif" font-size="10.00">Math/GenVector/Displacement</text>
<text text-anchor="middle" x="2831" y="-8" font-family="Helvetica,sans-Serif" font-size="10.00">Vector2D.h</text>
</g>
<!-- Node40&#45;&gt;Node41 -->
<g id="edge51" class="edge"><title>Node40&#45;&gt;Node41</title>
<path fill="none" stroke="midnightblue" d="M2910.1,-74.3717C2897.22,-65.0286 2876.22,-49.7966 2859.09,-37.375"/>
<polygon fill="midnightblue" stroke="midnightblue" points="2860.7,-34.2194 2850.55,-31.1815 2856.59,-39.8859 2860.7,-34.2194"/>
</g>
<!-- Node42 -->
<g id="node42" class="node"><title>Node42</title>
<polygon fill="none" stroke="#bfbfbf" points="2925,-6.5 2925,-25.5 3101,-25.5 3101,-6.5 2925,-6.5"/>
<text text-anchor="middle" x="3013" y="-13.5" font-family="Helvetica,sans-Serif" font-size="10.00">Math/GenVector/PositionVector2D.h</text>
</g>
<!-- Node40&#45;&gt;Node42 -->
<g id="edge52" class="edge"><title>Node40&#45;&gt;Node42</title>
<path fill="none" stroke="midnightblue" d="M2933.9,-74.3717C2948.88,-63.5015 2974.86,-44.6602 2992.94,-31.5474"/>
<polygon fill="midnightblue" stroke="midnightblue" points="2995.06,-34.3349 3001.1,-25.6305 2990.95,-28.6684 2995.06,-34.3349"/>
</g>
<!-- Node43&#45;&gt;Node4 -->
<g id="edge55" class="edge"><title>Node43&#45;&gt;Node4</title>
<path fill="none" stroke="midnightblue" d="M1481.78,-340.414C1535.73,-330.794 1618.1,-315.096 1648,-304 1696.63,-285.949 1748.58,-254.003 1776.78,-235.451"/>
<polygon fill="midnightblue" stroke="midnightblue" points="1779.01,-238.169 1785.39,-229.712 1775.13,-232.343 1779.01,-238.169"/>
</g>
<!-- Node43&#45;&gt;Node8 -->
<g id="edge62" class="edge"><title>Node43&#45;&gt;Node8</title>
<path fill="none" stroke="midnightblue" d="M1406.64,-340.403C1376.02,-330.022 1324.34,-312.506 1289.95,-300.849"/>
<polygon fill="midnightblue" stroke="midnightblue" points="1290.91,-297.476 1280.31,-297.581 1288.66,-304.106 1290.91,-297.476"/>
</g>
<!-- Node43&#45;&gt;Node10 -->
<g id="edge58" class="edge"><title>Node43&#45;&gt;Node10</title>
<path fill="none" stroke="midnightblue" d="M1375.13,-344.916C1144.22,-327.768 285.363,-258.269 208,-168 198.745,-157.201 199.229,-147.196 208,-136 249.214,-83.3888 290.424,-120.608 354,-100 357.332,-98.92 360.79,-97.6819 364.195,-96.3903"/>
<polygon fill="midnightblue" stroke="midnightblue" points="365.497,-99.6389 373.499,-92.6949 362.914,-93.1331 365.497,-99.6389"/>
</g>
<!-- Node43&#45;&gt;Node11 -->
<g id="edge60" class="edge"><title>Node43&#45;&gt;Node11</title>
<path fill="none" stroke="midnightblue" d="M1410.52,-340.36C1395.61,-333.09 1376.89,-321.117 1368,-304 1345.44,-260.562 1365.48,-200.92 1378.28,-171.271"/>
<polygon fill="midnightblue" stroke="midnightblue" points="1381.64,-172.344 1382.58,-161.791 1375.26,-169.455 1381.64,-172.344"/>
</g>
<!-- Node43&#45;&gt;Node33 -->
<g id="edge61" class="edge"><title>Node43&#45;&gt;Node33</title>
<path fill="none" stroke="midnightblue" d="M1488.52,-341.228C1491.72,-340.807 1494.9,-340.395 1498,-340 1835.75,-296.911 1964.05,-409.53 2257,-236 2282.98,-220.611 2301.86,-190.008 2311.86,-170.57"/>
<polygon fill="midnightblue" stroke="midnightblue" points="2315.02,-172.083 2316.27,-161.563 2308.73,-169.006 2315.02,-172.083"/>
</g>
<!-- Node44 -->
<g id="node44" class="node"><title>Node44</title>
<polygon fill="none" stroke="#bfbfbf" points="1733.5,-278.5 1733.5,-297.5 1792.5,-297.5 1792.5,-278.5 1733.5,-278.5"/>
<text text-anchor="middle" x="1763" y="-285.5" font-family="Helvetica,sans-Serif" font-size="10.00">TObject.h</text>
</g>
<!-- Node43&#45;&gt;Node44 -->
<g id="edge56" class="edge"><title>Node43&#45;&gt;Node44</title>
<path fill="none" stroke="midnightblue" d="M1488.67,-341.302C1559.46,-331.477 1676.46,-314.502 1719,-304 1722.86,-303.048 1726.86,-301.907 1730.8,-300.686"/>
<polygon fill="midnightblue" stroke="midnightblue" points="1731.97,-303.986 1740.39,-297.546 1729.79,-297.334 1731.97,-303.986"/>
</g>
<!-- Node45 -->
<g id="node45" class="node"><title>Node45</title>
<polygon fill="none" stroke="#bfbfbf" points="1377.5,-278.5 1377.5,-297.5 1436.5,-297.5 1436.5,-278.5 1377.5,-278.5"/>
<text text-anchor="middle" x="1407" y="-285.5" font-family="Helvetica,sans-Serif" font-size="10.00">exception</text>
</g>
<!-- Node43&#45;&gt;Node45 -->
<g id="edge57" class="edge"><title>Node43&#45;&gt;Node45</title>
<path fill="none" stroke="midnightblue" d="M1428.42,-340.403C1424.82,-331.76 1419.15,-318.17 1414.56,-307.134"/>
<polygon fill="midnightblue" stroke="midnightblue" points="1417.65,-305.465 1410.58,-297.581 1411.19,-308.158 1417.65,-305.465"/>
</g>
<!-- Node46 -->
<g id="node46" class="node"><title>Node46</title>
<polygon fill="none" stroke="#bfbfbf" points="1455,-278.5 1455,-297.5 1507,-297.5 1507,-278.5 1455,-278.5"/>
<text text-anchor="middle" x="1481" y="-285.5" font-family="Helvetica,sans-Serif" font-size="10.00">sstream</text>
</g>
<!-- Node43&#45;&gt;Node46 -->
<g id="edge59" class="edge"><title>Node43&#45;&gt;Node46</title>
<path fill="none" stroke="midnightblue" d="M1439.02,-340.403C1446.44,-331.314 1458.33,-316.756 1467.57,-305.449"/>
<polygon fill="midnightblue" stroke="midnightblue" points="1470.38,-307.54 1473.99,-297.581 1464.96,-303.112 1470.38,-307.54"/>
</g>
<!-- Node47&#45;&gt;Node20 -->
<g id="edge68" class="edge"><title>Node47&#45;&gt;Node20</title>
<path fill="none" stroke="midnightblue" d="M1942.81,-205.325C1889.86,-192.661 1812.39,-174.136 1765.24,-162.862"/>
<polygon fill="midnightblue" stroke="midnightblue" points="1765.92,-159.425 1755.38,-160.503 1764.29,-166.233 1765.92,-159.425"/>
</g>
<!-- Node47&#45;&gt;Node29 -->
<g id="edge65" class="edge"><title>Node47&#45;&gt;Node29</title>
<path fill="none" stroke="midnightblue" d="M1942.65,-212.834C1842.67,-201.977 1640.39,-179.512 1570,-168 1501.44,-156.787 1485.45,-147.874 1417,-136 1294.77,-114.797 1148.54,-96.7349 1082.9,-89.0111"/>
<polygon fill="midnightblue" stroke="midnightblue" points="1083.04,-85.5041 1072.71,-87.8185 1082.23,-92.4567 1083.04,-85.5041"/>
</g>
<!-- Node48 -->
<g id="node48" class="node"><title>Node48</title>
<polygon fill="none" stroke="#bfbfbf" points="2178,-142.5 2178,-161.5 2240,-161.5 2240,-142.5 2178,-142.5"/>
<text text-anchor="middle" x="2209" y="-149.5" font-family="Helvetica,sans-Serif" font-size="10.00">TNamed.h</text>
</g>
<!-- Node47&#45;&gt;Node48 -->
<g id="edge64" class="edge"><title>Node47&#45;&gt;Node48</title>
<path fill="none" stroke="midnightblue" d="M2048.75,-204.985C2082.41,-195.119 2128.11,-181.341 2168,-168 2170.76,-167.076 2173.62,-166.091 2176.48,-165.085"/>
<polygon fill="midnightblue" stroke="midnightblue" points="2177.86,-168.308 2186.09,-161.637 2175.5,-161.719 2177.86,-168.308"/>
</g>
<!-- Node49 -->
<g id="node49" class="node"><title>Node49</title>
<polygon fill="none" stroke="#bfbfbf" points="2037.5,-142.5 2037.5,-161.5 2096.5,-161.5 2096.5,-142.5 2037.5,-142.5"/>
<text text-anchor="middle" x="2067" y="-149.5" font-family="Helvetica,sans-Serif" font-size="10.00">stdexcept</text>
</g>
<!-- Node47&#45;&gt;Node49 -->
<g id="edge66" class="edge"><title>Node47&#45;&gt;Node49</title>
<path fill="none" stroke="midnightblue" d="M2014.54,-204.679C2025.19,-194.184 2039.66,-179.932 2050.7,-169.052"/>
<polygon fill="midnightblue" stroke="midnightblue" points="2053.37,-171.339 2058.04,-161.828 2048.46,-166.353 2053.37,-171.339"/>
</g>
<!-- Node50 -->
<g id="node50" class="node"><title>Node50</title>
<polygon fill="none" stroke="#bfbfbf" points="2114.5,-142.5 2114.5,-161.5 2159.5,-161.5 2159.5,-142.5 2114.5,-142.5"/>
<text text-anchor="middle" x="2137" y="-149.5" font-family="Helvetica,sans-Serif" font-size="10.00">gsl/gsl</text>
</g>
<!-- Node47&#45;&gt;Node50 -->
<g id="edge67" class="edge"><title>Node47&#45;&gt;Node50</title>
<path fill="none" stroke="midnightblue" d="M2029.39,-204.841C2053.19,-193.374 2086.47,-177.342 2109.7,-166.153"/>
<polygon fill="midnightblue" stroke="midnightblue" points="2111.49,-169.175 2118.98,-161.682 2108.45,-162.869 2111.49,-169.175"/>
</g>
<!-- Node52 -->
<g id="node52" class="node"><title>Node52</title>
<g id="a_node52"><a xlink:href="../../d7/dcd/MCCompLabel_8h.html" target="_top" xlink:title="SimulationDataFormat\l/MCCompLabel.h">
<polygon fill="none" stroke="black" points="1525,-273 1525,-303 1639,-303 1639,-273 1525,-273"/>
<text text-anchor="start" x="1533" y="-291" font-family="Helvetica,sans-Serif" font-size="10.00">SimulationDataFormat</text>
<text text-anchor="middle" x="1582" y="-280" font-family="Helvetica,sans-Serif" font-size="10.00">/MCCompLabel.h</text>
</a>
</g>
</g>
<!-- Node51&#45;&gt;Node52 -->
<g id="edge70" class="edge"><title>Node51&#45;&gt;Node52</title>
<path fill="none" stroke="midnightblue" d="M1574.29,-340.403C1575.36,-333.265 1576.94,-322.752 1578.39,-313.09"/>
<polygon fill="midnightblue" stroke="midnightblue" points="1581.86,-313.549 1579.88,-303.141 1574.93,-312.511 1581.86,-313.549"/>
</g>
<!-- Node52&#45;&gt;Node3 -->
<g id="edge71" class="edge"><title>Node52&#45;&gt;Node3</title>
<path fill="none" stroke="midnightblue" d="M1562.02,-272.943C1550.89,-263.841 1538.09,-250.923 1532,-236 1513.49,-190.687 1531.72,-131.884 1543.21,-102.842"/>
<polygon fill="midnightblue" stroke="midnightblue" points="1546.46,-104.147 1547.05,-93.569 1539.99,-101.464 1546.46,-104.147"/>
</g>
</g>
</svg>
