<?xml version="1.0" encoding="UTF-8" standalone="no"?>
<!DOCTYPE svg PUBLIC "-//W3C//DTD SVG 1.1//EN"
 "http://www.w3.org/Graphics/SVG/1.1/DTD/svg11.dtd">
<!-- Generated by graphviz version 2.36.0 (20140111.2315)
 -->
<!-- Title: o2::memory_resource::ChannelResource Pages: 1 -->
<svg width="475pt" height="424pt"
 viewBox="0.00 0.00 475.00 424.00" xmlns="http://www.w3.org/2000/svg" xmlns:xlink="http://www.w3.org/1999/xlink">
<g id="graph0" class="graph" transform="scale(1 1) rotate(0) translate(4 420)">
<title>o2::memory_resource::ChannelResource</title>
<!-- Node1 -->
<g id="node1" class="node"><title>Node1</title>
<polygon fill="#bfbfbf" stroke="black" points="168.5,-1 168.5,-157 303.5,-157 303.5,-1 168.5,-1"/>
<text text-anchor="start" x="176.5" y="-145" font-family="Helvetica,sans-Serif" font-size="10.00">o2::memory_resource</text>
<text text-anchor="middle" x="236" y="-134" font-family="Helvetica,sans-Serif" font-size="10.00">::ChannelResource</text>
<polyline fill="none" stroke="black" points="168.5,-127 303.5,-127 "/>
<text text-anchor="middle" x="236" y="-115" font-family="Helvetica,sans-Serif" font-size="10.00"> </text>
<polyline fill="none" stroke="black" points="168.5,-108 303.5,-108 "/>
<text text-anchor="start" x="176.5" y="-96" font-family="Helvetica,sans-Serif" font-size="10.00">+ ChannelResource()</text>
<text text-anchor="start" x="176.5" y="-85" font-family="Helvetica,sans-Serif" font-size="10.00">+ ChannelResource()</text>
<text text-anchor="start" x="176.5" y="-74" font-family="Helvetica,sans-Serif" font-size="10.00">+ getMessage()</text>
<text text-anchor="start" x="176.5" y="-63" font-family="Helvetica,sans-Serif" font-size="10.00">+ setMessage()</text>
<text text-anchor="start" x="176.5" y="-52" font-family="Helvetica,sans-Serif" font-size="10.00">+ getTransportFactory()</text>
<text text-anchor="start" x="176.5" y="-41" font-family="Helvetica,sans-Serif" font-size="10.00">+ getNumberOfMessages()</text>
<text text-anchor="start" x="176.5" y="-30" font-family="Helvetica,sans-Serif" font-size="10.00"># do_allocate()</text>
<text text-anchor="start" x="176.5" y="-19" font-family="Helvetica,sans-Serif" font-size="10.00"># do_deallocate()</text>
<text text-anchor="start" x="176.5" y="-8" font-family="Helvetica,sans-Serif" font-size="10.00"># do_is_equal()</text>
</g>
<!-- Node2 -->
<g id="node2" class="node"><title>Node2</title>
<g id="a_node2"><a xlink:href="../../d6/d00/classo2_1_1memory__resource_1_1FairMQMemoryResource.html" target="_top" xlink:title="All FairMQ related memory resources need to inherit from this interface class for the getMessage() ap...">
<polygon fill="none" stroke="black" points="-0.5,-206.5 -0.5,-307.5 134.5,-307.5 134.5,-206.5 -0.5,-206.5"/>
<text text-anchor="start" x="7.5" y="-295.5" font-family="Helvetica,sans-Serif" font-size="10.00">o2::memory_resource</text>
<text text-anchor="middle" x="67" y="-284.5" font-family="Helvetica,sans-Serif" font-size="10.00">::FairMQMemoryResource</text>
<polyline fill="none" stroke="black" points="-0.5,-277.5 134.5,-277.5 "/>
<text text-anchor="middle" x="67" y="-265.5" font-family="Helvetica,sans-Serif" font-size="10.00"> </text>
<polyline fill="none" stroke="black" points="-0.5,-258.5 134.5,-258.5 "/>
<text text-anchor="start" x="7.5" y="-246.5" font-family="Helvetica,sans-Serif" font-size="10.00">+ getMessage()</text>
<text text-anchor="start" x="7.5" y="-235.5" font-family="Helvetica,sans-Serif" font-size="10.00">+ setMessage()</text>
<text text-anchor="start" x="7.5" y="-224.5" font-family="Helvetica,sans-Serif" font-size="10.00">+ getTransportFactory()</text>
<text text-anchor="start" x="7.5" y="-213.5" font-family="Helvetica,sans-Serif" font-size="10.00">+ getNumberOfMessages()</text>
</a>
</g>
</g>
<!-- Node2&#45;&gt;Node1 -->
<g id="edge1" class="edge"><title>Node2&#45;&gt;Node1</title>
<path fill="none" stroke="midnightblue" d="M122.104,-198.614C136.865,-183.241 152.994,-166.444 168.349,-150.453"/>
<polygon fill="none" stroke="midnightblue" points="119.378,-196.399 114.977,-206.036 124.427,-201.247 119.378,-196.399"/>
</g>
<!-- Node3 -->
<g id="node3" class="node"><title>Node3</title>
<polygon fill="none" stroke="#bfbfbf" points="12.5,-347 12.5,-415 121.5,-415 121.5,-347 12.5,-347"/>
<text text-anchor="start" x="20.5" y="-403" font-family="Helvetica,sans-Serif" font-size="10.00">boost::container::pmr</text>
<text text-anchor="middle" x="67" y="-392" font-family="Helvetica,sans-Serif" font-size="10.00">::memory_resource</text>
<polyline fill="none" stroke="#bfbfbf" points="12.5,-385 121.5,-385 "/>
<text text-anchor="middle" x="67" y="-373" font-family="Helvetica,sans-Serif" font-size="10.00"> </text>
<polyline fill="none" stroke="#bfbfbf" points="12.5,-366 121.5,-366 "/>
<text text-anchor="middle" x="67" y="-354" font-family="Helvetica,sans-Serif" font-size="10.00"> </text>
</g>
<!-- Node3&#45;&gt;Node2 -->
<g id="edge2" class="edge"><title>Node3&#45;&gt;Node2</title>
<path fill="none" stroke="midnightblue" d="M67,-336.963C67,-327.45 67,-317.296 67,-307.548"/>
<polygon fill="none" stroke="midnightblue" points="63.5001,-336.985 67,-346.985 70.5001,-336.985 63.5001,-336.985"/>
</g>
<!-- Node4 -->
<g id="node4" class="node"><title>Node4</title>
<polygon fill="none" stroke="#bfbfbf" points="153,-223 153,-291 319,-291 319,-223 153,-223"/>
<text text-anchor="start" x="161" y="-279" font-family="Helvetica,sans-Serif" font-size="10.00">flat_map&lt; void *, FairMQMessage</text>
<text text-anchor="middle" x="236" y="-268" font-family="Helvetica,sans-Serif" font-size="10.00">Ptr &gt;</text>
<polyline fill="none" stroke="#bfbfbf" points="153,-261 319,-261 "/>
<text text-anchor="middle" x="236" y="-249" font-family="Helvetica,sans-Serif" font-size="10.00"> </text>
<polyline fill="none" stroke="#bfbfbf" points="153,-242 319,-242 "/>
<text text-anchor="middle" x="236" y="-230" font-family="Helvetica,sans-Serif" font-size="10.00"> </text>
</g>
<!-- Node4&#45;&gt;Node1 -->
<g id="edge3" class="edge"><title>Node4&#45;&gt;Node1</title>
<path fill="none" stroke="#404040" d="M236,-222.896C236,-207.548 236,-188.492 236,-169.35"/>
<polygon fill="none" stroke="#404040" points="236,-169.126 232,-163.126 236,-157.126 240,-163.126 236,-169.126"/>
<text text-anchor="middle" x="269.5" y="-179.5" font-family="Helvetica,sans-Serif" font-size="10.00"> #messageMap</text>
</g>
<!-- Node5 -->
<g id="node5" class="node"><title>Node5</title>
<polygon fill="none" stroke="#bfbfbf" points="337,-228.5 337,-285.5 467,-285.5 467,-228.5 337,-228.5"/>
<text text-anchor="middle" x="402" y="-273.5" font-family="Helvetica,sans-Serif" font-size="10.00">FairMQTransportFactory *</text>
<polyline fill="none" stroke="#bfbfbf" points="337,-266.5 467,-266.5 "/>
<text text-anchor="middle" x="402" y="-254.5" font-family="Helvetica,sans-Serif" font-size="10.00"> </text>
<polyline fill="none" stroke="#bfbfbf" points="337,-247.5 467,-247.5 "/>
<text text-anchor="middle" x="402" y="-235.5" font-family="Helvetica,sans-Serif" font-size="10.00"> </text>
</g>
<!-- Node5&#45;&gt;Node1 -->
<g id="edge4" class="edge"><title>Node5&#45;&gt;Node1</title>
<path fill="none" stroke="#404040" d="M375.697,-228.112C358.435,-209.811 334.907,-184.865 312.082,-160.665"/>
<polygon fill="none" stroke="#404040" points="311.951,-160.526 304.924,-158.906 303.717,-151.796 310.744,-153.416 311.951,-160.526"/>
<text text-anchor="middle" x="353.5" y="-179.5" font-family="Helvetica,sans-Serif" font-size="10.00"> #factory</text>
</g>
</g>
</svg>
