<?xml version="1.0" encoding="UTF-8" standalone="no"?>
<!DOCTYPE svg PUBLIC "-//W3C//DTD SVG 1.1//EN"
 "http://www.w3.org/Graphics/SVG/1.1/DTD/svg11.dtd">
<!-- Generated by graphviz version 2.36.0 (20140111.2315)
 -->
<!-- Title: /home/travis/build/AliceO2Group/AliceO2/Framework/Core/include/Framework/DataRefUtils.h Pages: 1 -->
<!--zoomable 242 -->
<svg id="main" version="1.1" xmlns="http://www.w3.org/2000/svg" xmlns:xlink="http://www.w3.org/1999/xlink" xml:space="preserve" onload="init(evt)">
<style type="text/css"><![CDATA[
.edge:hover path { stroke: red; }
.edge:hover polygon { stroke: red; fill: red; }
]]></style>
<script type="text/javascript"><![CDATA[
var edges = document.getElementsByTagName('g');
if (edges && edges.length) {
  for (var i=0;i<edges.length;i++) {
    if (edges[i].id.substr(0,4)=='edge') {
      edges[i].setAttribute('class','edge');
    }
  }
}
]]></script>
        <defs>
                <circle id="rim" cx="0" cy="0" r="7"/>
                <circle id="rim2" cx="0" cy="0" r="3.5"/>
                <g id="zoomPlus">
                        <use xlink:href="#rim" fill="#404040">
                                <set attributeName="fill" to="#808080" begin="zoomplus.mouseover" end="zoomplus.mouseout"/>
                        </use>
                        <path d="M-4,0h8M0,-4v8" fill="none" stroke="white" stroke-width="1.5" pointer-events="none"/>
                </g>
                <g id="zoomMin">
                        <use xlink:href="#rim" fill="#404040">
                                <set attributeName="fill" to="#808080" begin="zoomminus.mouseover" end="zoomminus.mouseout"/>
                        </use>
                        <path d="M-4,0h8" fill="none" stroke="white" stroke-width="1.5" pointer-events="none"/>
                </g>
                <g id="dirArrow">
                        <path fill="none" stroke="white" stroke-width="1.5" d="M0,-3.0v7 M-2.5,-0.5L0,-3.0L2.5,-0.5"/>
                </g>
               <g id="resetDef">
                       <use xlink:href="#rim2" fill="#404040">
                               <set attributeName="fill" to="#808080" begin="reset.mouseover" end="reset.mouseout"/>
                       </use>
               </g>
        </defs>

<script type="text/javascript">
var viewWidth = 3172;
var viewHeight = 242;
var sectionId = 'dynsection-0';
</script>
<script xlink:href="../../svgpan.js"/>
<svg id="graph" class="graph">
<g id="viewport">
<title>/home/travis/build/AliceO2Group/AliceO2/Framework/Core/include/Framework/DataRefUtils.h</title>
<!-- Node1 -->
<g id="node1" class="node"><title>Node1</title>
<polygon fill="#bfbfbf" stroke="black" points="1581.5,-181 1581.5,-233 1718.5,-233 1718.5,-181 1581.5,-181"/>
<text text-anchor="start" x="1589.5" y="-221" font-family="Helvetica,sans-Serif" font-size="10.00">/home/travis/build</text>
<text text-anchor="start" x="1589.5" y="-210" font-family="Helvetica,sans-Serif" font-size="10.00">/AliceO2Group/AliceO2</text>
<text text-anchor="start" x="1589.5" y="-199" font-family="Helvetica,sans-Serif" font-size="10.00">/Framework/Core/include</text>
<text text-anchor="middle" x="1650" y="-188" font-family="Helvetica,sans-Serif" font-size="10.00">/Framework/DataRefUtils.h</text>
</g>
<!-- Node2 -->
<g id="node2" class="node"><title>Node2</title>
<g id="a_node2"><a xlink:href="../../d5/dfb/DataRef_8h.html" target="_top" xlink:title="Framework/DataRef.h">
<polygon fill="none" stroke="black" points="921.5,-124.5 921.5,-143.5 1034.5,-143.5 1034.5,-124.5 921.5,-124.5"/>
<text text-anchor="middle" x="978" y="-131.5" font-family="Helvetica,sans-Serif" font-size="10.00">Framework/DataRef.h</text>
</a>
</g>
</g>
<!-- Node1&#45;&gt;Node2 -->
<g id="edge1" class="edge"><title>Node1&#45;&gt;Node2</title>
<path fill="none" stroke="midnightblue" d="M1581.18,-199.78C1470.41,-189.589 1245.46,-168.158 1044.84,-144.189"/>
<polygon fill="midnightblue" stroke="midnightblue" points="1045.05,-140.689 1034.7,-142.973 1044.22,-147.639 1045.05,-140.689"/>
</g>
<!-- Node3 -->
<g id="node3" class="node"><title>Node3</title>
<g id="a_node3"><a xlink:href="../../d8/d3c/TMessageSerializer_8h.html" target="_top" xlink:title="Framework/TMessageSerializer.h">
<polygon fill="none" stroke="black" points="1052.5,-124.5 1052.5,-143.5 1215.5,-143.5 1215.5,-124.5 1052.5,-124.5"/>
<text text-anchor="middle" x="1134" y="-131.5" font-family="Helvetica,sans-Serif" font-size="10.00">Framework/TMessageSerializer.h</text>
</a>
</g>
</g>
<!-- Node1&#45;&gt;Node3 -->
<g id="edge2" class="edge"><title>Node1&#45;&gt;Node3</title>
<path fill="none" stroke="midnightblue" d="M1581.48,-196.572C1483.81,-183.133 1305.4,-158.585 1205.91,-144.894"/>
<polygon fill="midnightblue" stroke="midnightblue" points="1206.33,-141.419 1195.94,-143.523 1205.37,-148.354 1206.33,-141.419"/>
</g>
<!-- Node20 -->
<g id="node20" class="node"><title>Node20</title>
<polygon fill="none" stroke="#bfbfbf" points="1632,-6.5 1632,-25.5 1694,-25.5 1694,-6.5 1632,-6.5"/>
<text text-anchor="middle" x="1663" y="-13.5" font-family="Helvetica,sans-Serif" font-size="10.00">type_traits</text>
</g>
<!-- Node1&#45;&gt;Node20 -->
<g id="edge64" class="edge"><title>Node1&#45;&gt;Node20</title>
<path fill="none" stroke="midnightblue" d="M1651.73,-180.902C1654.37,-142.471 1659.36,-69.9081 1661.71,-35.7179"/>
<polygon fill="midnightblue" stroke="midnightblue" points="1665.21,-35.9153 1662.4,-25.6987 1658.22,-35.4349 1665.21,-35.9153"/>
</g>
<!-- Node26 -->
<g id="node26" class="node"><title>Node26</title>
<g id="a_node26"><a xlink:href="../../d1/d53/SerializationMethods_8h.html" target="_top" xlink:title="Type wrappers for enfording a specific serialization method. ">
<polygon fill="none" stroke="black" points="1696.5,-124.5 1696.5,-143.5 1863.5,-143.5 1863.5,-124.5 1696.5,-124.5"/>
<text text-anchor="middle" x="1780" y="-131.5" font-family="Helvetica,sans-Serif" font-size="10.00">Framework/SerializationMethods.h</text>
</a>
</g>
</g>
<!-- Node1&#45;&gt;Node26 -->
<g id="edge25" class="edge"><title>Node1&#45;&gt;Node26</title>
<path fill="none" stroke="midnightblue" d="M1695.83,-180.968C1715.75,-170.088 1738.31,-157.767 1755.06,-148.622"/>
<polygon fill="midnightblue" stroke="midnightblue" points="1757.08,-151.504 1764.18,-143.639 1753.73,-145.36 1757.08,-151.504"/>
</g>
<!-- Node27 -->
<g id="node27" class="node"><title>Node27</title>
<g id="a_node27"><a xlink:href="../../d0/d95/TypeTraits_8h.html" target="_top" xlink:title="Framework/TypeTraits.h">
<polygon fill="none" stroke="black" points="1672.5,-68.5 1672.5,-87.5 1795.5,-87.5 1795.5,-68.5 1672.5,-68.5"/>
<text text-anchor="middle" x="1734" y="-75.5" font-family="Helvetica,sans-Serif" font-size="10.00">Framework/TypeTraits.h</text>
</a>
</g>
</g>
<!-- Node1&#45;&gt;Node27 -->
<g id="edge50" class="edge"><title>Node1&#45;&gt;Node27</title>
<path fill="none" stroke="midnightblue" d="M1658.96,-180.697C1665.58,-163.805 1675.59,-141.555 1688,-124 1695.7,-113.103 1706.23,-102.578 1715.27,-94.4513"/>
<polygon fill="midnightblue" stroke="midnightblue" points="1717.77,-96.9159 1723.03,-87.7195 1713.18,-91.6279 1717.77,-96.9159"/>
</g>
<!-- Node43 -->
<g id="node43" class="node"><title>Node43</title>
<g id="a_node43"><a xlink:href="../../dc/dcd/DataHeader_8h.html" target="_top" xlink:title="Headers/DataHeader.h">
<polygon fill="none" stroke="black" points="1409.5,-68.5 1409.5,-87.5 1526.5,-87.5 1526.5,-68.5 1409.5,-68.5"/>
<text text-anchor="middle" x="1468" y="-75.5" font-family="Helvetica,sans-Serif" font-size="10.00">Headers/DataHeader.h</text>
</a>
</g>
</g>
<!-- Node1&#45;&gt;Node43 -->
<g id="edge51" class="edge"><title>Node1&#45;&gt;Node43</title>
<path fill="none" stroke="midnightblue" d="M1614.04,-180.909C1576.68,-154.835 1519.48,-114.923 1488.94,-93.6094"/>
<polygon fill="midnightblue" stroke="midnightblue" points="1490.57,-90.4801 1480.36,-87.6278 1486.56,-96.2207 1490.57,-90.4801"/>
</g>
<!-- Node47 -->
<g id="node47" class="node"><title>Node47</title>
<polygon fill="none" stroke="#bfbfbf" points="1426.5,-6.5 1426.5,-25.5 1485.5,-25.5 1485.5,-6.5 1426.5,-6.5"/>
<text text-anchor="middle" x="1456" y="-13.5" font-family="Helvetica,sans-Serif" font-size="10.00">stdexcept</text>
</g>
<!-- Node1&#45;&gt;Node47 -->
<g id="edge62" class="edge"><title>Node1&#45;&gt;Node47</title>
<path fill="none" stroke="midnightblue" d="M1632.67,-180.864C1611.72,-151.598 1574.35,-102.834 1535,-68 1518.55,-53.4358 1497.56,-40.0894 1481.35,-30.7057"/>
<polygon fill="midnightblue" stroke="midnightblue" points="1482.86,-27.5369 1472.43,-25.6593 1479.41,-33.6296 1482.86,-27.5369"/>
</g>
<!-- Node49 -->
<g id="node49" class="node"><title>Node49</title>
<polygon fill="none" stroke="#bfbfbf" points="1882,-124.5 1882,-143.5 1938,-143.5 1938,-124.5 1882,-124.5"/>
<text text-anchor="middle" x="1910" y="-131.5" font-family="Helvetica,sans-Serif" font-size="10.00">TClass.h</text>
</g>
<!-- Node1&#45;&gt;Node49 -->
<g id="edge60" class="edge"><title>Node1&#45;&gt;Node49</title>
<path fill="none" stroke="midnightblue" d="M1718.65,-187.253C1767.75,-173.845 1832,-156.301 1872.13,-145.34"/>
<polygon fill="midnightblue" stroke="midnightblue" points="1873.07,-148.713 1881.8,-142.702 1871.23,-141.96 1873.07,-148.713"/>
</g>
<!-- Node50 -->
<g id="node50" class="node"><title>Node50</title>
<polygon fill="none" stroke="#bfbfbf" points="1956.5,-124.5 1956.5,-143.5 2001.5,-143.5 2001.5,-124.5 1956.5,-124.5"/>
<text text-anchor="middle" x="1979" y="-131.5" font-family="Helvetica,sans-Serif" font-size="10.00">gsl/gsl</text>
</g>
<!-- Node1&#45;&gt;Node50 -->
<g id="edge61" class="edge"><title>Node1&#45;&gt;Node50</title>
<path fill="none" stroke="midnightblue" d="M1718.75,-192.811C1778.9,-180.981 1868.54,-162.657 1946,-144 1946.21,-143.95 1946.42,-143.899 1946.63,-143.848"/>
<polygon fill="midnightblue" stroke="midnightblue" points="1947.5,-147.238 1956.32,-141.376 1945.77,-140.455 1947.5,-147.238"/>
</g>
<!-- Node51 -->
<g id="node51" class="node"><title>Node51</title>
<polygon fill="none" stroke="#bfbfbf" points="2020,-124.5 2020,-143.5 2072,-143.5 2072,-124.5 2020,-124.5"/>
<text text-anchor="middle" x="2046" y="-131.5" font-family="Helvetica,sans-Serif" font-size="10.00">sstream</text>
</g>
<!-- Node1&#45;&gt;Node51 -->
<g id="edge63" class="edge"><title>Node1&#45;&gt;Node51</title>
<path fill="none" stroke="midnightblue" d="M1718.63,-195.737C1789.09,-184.85 1902.06,-166.416 2009.65,-143.931"/>
<polygon fill="midnightblue" stroke="midnightblue" points="2010.64,-147.299 2019.71,-141.813 2009.2,-140.449 2010.64,-147.299"/>
</g>
<!-- Node4 -->
<g id="node4" class="node"><title>Node4</title>
<polygon fill="none" stroke="#bfbfbf" points="774.5,-68.5 774.5,-87.5 901.5,-87.5 901.5,-68.5 774.5,-68.5"/>
<text text-anchor="middle" x="838" y="-75.5" font-family="Helvetica,sans-Serif" font-size="10.00">fairmq/FairMQMessage.h</text>
</g>
<!-- Node3&#45;&gt;Node4 -->
<g id="edge3" class="edge"><title>Node3&#45;&gt;Node4</title>
<path fill="none" stroke="midnightblue" d="M1087.1,-124.444C1034.92,-114.925 950.629,-99.5472 894.768,-89.3563"/>
<polygon fill="midnightblue" stroke="midnightblue" points="895.148,-85.868 884.683,-87.5164 893.892,-92.7544 895.148,-85.868"/>
</g>
<!-- Node5 -->
<g id="node5" class="node"><title>Node5</title>
<polygon fill="none" stroke="#bfbfbf" points="919.5,-68.5 919.5,-87.5 966.5,-87.5 966.5,-68.5 919.5,-68.5"/>
<text text-anchor="middle" x="943" y="-75.5" font-family="Helvetica,sans-Serif" font-size="10.00">TList.h</text>
</g>
<!-- Node3&#45;&gt;Node5 -->
<g id="edge4" class="edge"><title>Node3&#45;&gt;Node5</title>
<path fill="none" stroke="midnightblue" d="M1103.74,-124.444C1069.17,-114.672 1012.78,-98.7275 976.803,-88.5567"/>
<polygon fill="midnightblue" stroke="midnightblue" points="977.362,-85.0777 966.787,-85.7251 975.457,-91.8137 977.362,-85.0777"/>
</g>
<!-- Node6 -->
<g id="node6" class="node"><title>Node6</title>
<polygon fill="none" stroke="#bfbfbf" points="984.5,-68.5 984.5,-87.5 1055.5,-87.5 1055.5,-68.5 984.5,-68.5"/>
<text text-anchor="middle" x="1020" y="-75.5" font-family="Helvetica,sans-Serif" font-size="10.00">TMessage.h</text>
</g>
<!-- Node3&#45;&gt;Node6 -->
<g id="edge5" class="edge"><title>Node3&#45;&gt;Node6</title>
<path fill="none" stroke="midnightblue" d="M1115.94,-124.444C1097.43,-115.675 1068.42,-101.935 1047.14,-91.8579"/>
<polygon fill="midnightblue" stroke="midnightblue" points="1048.51,-88.6343 1037.98,-87.5164 1045.52,-94.9604 1048.51,-88.6343"/>
</g>
<!-- Node7 -->
<g id="node7" class="node"><title>Node7</title>
<polygon fill="none" stroke="#bfbfbf" points="1136.5,-68.5 1136.5,-87.5 1205.5,-87.5 1205.5,-68.5 1136.5,-68.5"/>
<text text-anchor="middle" x="1171" y="-75.5" font-family="Helvetica,sans-Serif" font-size="10.00">TObjArray.h</text>
</g>
<!-- Node3&#45;&gt;Node7 -->
<g id="edge6" class="edge"><title>Node3&#45;&gt;Node7</title>
<path fill="none" stroke="midnightblue" d="M1140.11,-124.083C1145.28,-116.534 1152.85,-105.495 1159.19,-96.2298"/>
<polygon fill="midnightblue" stroke="midnightblue" points="1162.24,-97.9787 1165,-87.7511 1156.46,-94.0221 1162.24,-97.9787"/>
</g>
<!-- Node8 -->
<g id="node8" class="node"><title>Node8</title>
<polygon fill="none" stroke="#bfbfbf" points="1223.5,-68.5 1223.5,-87.5 1310.5,-87.5 1310.5,-68.5 1223.5,-68.5"/>
<text text-anchor="middle" x="1267" y="-75.5" font-family="Helvetica,sans-Serif" font-size="10.00">TStreamerInfo.h</text>
</g>
<!-- Node3&#45;&gt;Node8 -->
<g id="edge7" class="edge"><title>Node3&#45;&gt;Node8</title>
<path fill="none" stroke="midnightblue" d="M1155.07,-124.444C1177.06,-115.517 1211.73,-101.439 1236.66,-91.3168"/>
<polygon fill="midnightblue" stroke="midnightblue" points="1238.08,-94.5213 1246.02,-87.5164 1235.44,-88.0355 1238.08,-94.5213"/>
</g>
<!-- Node9 -->
<g id="node9" class="node"><title>Node9</title>
<polygon fill="none" stroke="#bfbfbf" points="1328.5,-68.5 1328.5,-87.5 1391.5,-87.5 1391.5,-68.5 1328.5,-68.5"/>
<text text-anchor="middle" x="1360" y="-75.5" font-family="Helvetica,sans-Serif" font-size="10.00">gsl/gsl_util</text>
</g>
<!-- Node3&#45;&gt;Node9 -->
<g id="edge8" class="edge"><title>Node3&#45;&gt;Node9</title>
<path fill="none" stroke="midnightblue" d="M1169.81,-124.444C1210.26,-114.78 1275.97,-99.0778 1318.59,-88.8947"/>
<polygon fill="midnightblue" stroke="midnightblue" points="1319.46,-92.2862 1328.37,-86.558 1317.83,-85.4779 1319.46,-92.2862"/>
</g>
<!-- Node10 -->
<g id="node10" class="node"><title>Node10</title>
<polygon fill="none" stroke="#bfbfbf" points="703.5,-68.5 703.5,-87.5 756.5,-87.5 756.5,-68.5 703.5,-68.5"/>
<text text-anchor="middle" x="730" y="-75.5" font-family="Helvetica,sans-Serif" font-size="10.00">gsl/span</text>
</g>
<!-- Node3&#45;&gt;Node10 -->
<g id="edge9" class="edge"><title>Node3&#45;&gt;Node10</title>
<path fill="none" stroke="midnightblue" d="M1054.09,-124.489C967.304,-115.039 833.156,-99.7773 766.734,-88.085"/>
<polygon fill="midnightblue" stroke="midnightblue" points="767.14,-84.6012 756.673,-86.2406 765.877,-91.4865 767.14,-84.6012"/>
</g>
<!-- Node11 -->
<g id="node11" class="node"><title>Node11</title>
<polygon fill="none" stroke="#bfbfbf" points="1562,-6.5 1562,-25.5 1614,-25.5 1614,-6.5 1562,-6.5"/>
<text text-anchor="middle" x="1588" y="-13.5" font-family="Helvetica,sans-Serif" font-size="10.00">memory</text>
</g>
<!-- Node3&#45;&gt;Node11 -->
<g id="edge10" class="edge"><title>Node3&#45;&gt;Node11</title>
<path fill="none" stroke="midnightblue" d="M1215.67,-131.411C1316.83,-128.155 1482.28,-118.231 1535,-88 1556,-75.9605 1571.2,-51.8994 1579.81,-35.1423"/>
<polygon fill="midnightblue" stroke="midnightblue" points="1583.11,-36.3526 1584.3,-25.8253 1576.81,-33.3103 1583.11,-36.3526"/>
</g>
<!-- Node12 -->
<g id="node12" class="node"><title>Node12</title>
<polygon fill="none" stroke="#bfbfbf" points="1074,-68.5 1074,-87.5 1118,-87.5 1118,-68.5 1074,-68.5"/>
<text text-anchor="middle" x="1096" y="-75.5" font-family="Helvetica,sans-Serif" font-size="10.00">mutex</text>
</g>
<!-- Node3&#45;&gt;Node12 -->
<g id="edge11" class="edge"><title>Node3&#45;&gt;Node12</title>
<path fill="none" stroke="midnightblue" d="M1127.73,-124.083C1122.36,-116.455 1114.48,-105.264 1107.92,-95.9408"/>
<polygon fill="midnightblue" stroke="midnightblue" points="1110.78,-93.9149 1102.16,-87.7511 1105.05,-97.9434 1110.78,-93.9149"/>
</g>
<!-- Node13 -->
<g id="node13" class="node"><title>Node13</title>
<g id="a_node13"><a xlink:href="../../dc/d03/MemoryResources_8h.html" target="_top" xlink:title="MemoryResources/MemoryResources.h">
<polygon fill="none" stroke="black" points="492.5,-68.5 492.5,-87.5 685.5,-87.5 685.5,-68.5 492.5,-68.5"/>
<text text-anchor="middle" x="589" y="-75.5" font-family="Helvetica,sans-Serif" font-size="10.00">MemoryResources/MemoryResources.h</text>
</a>
</g>
</g>
<!-- Node3&#45;&gt;Node13 -->
<g id="edge12" class="edge"><title>Node3&#45;&gt;Node13</title>
<path fill="none" stroke="midnightblue" d="M1052.41,-124.916C954.269,-115.192 789.74,-98.8898 685.422,-88.5537"/>
<polygon fill="midnightblue" stroke="midnightblue" points="685.502,-85.0446 675.205,-87.5414 684.811,-92.0105 685.502,-85.0446"/>
</g>
<!-- Node14 -->
<g id="node14" class="node"><title>Node14</title>
<polygon fill="none" stroke="#bfbfbf" points="0,-1 0,-31 100,-31 100,-1 0,-1"/>
<text text-anchor="start" x="8" y="-19" font-family="Helvetica,sans-Serif" font-size="10.00">boost/container/flat</text>
<text text-anchor="middle" x="50" y="-8" font-family="Helvetica,sans-Serif" font-size="10.00">_map.hpp</text>
</g>
<!-- Node13&#45;&gt;Node14 -->
<g id="edge13" class="edge"><title>Node13&#45;&gt;Node14</title>
<path fill="none" stroke="midnightblue" d="M492.339,-72.3611C397.269,-66.7879 247.952,-55.335 110.009,-32.0017"/>
<polygon fill="midnightblue" stroke="midnightblue" points="110.546,-28.5427 100.098,-30.3011 109.362,-35.4419 110.546,-28.5427"/>
</g>
<!-- Node15 -->
<g id="node15" class="node"><title>Node15</title>
<polygon fill="none" stroke="#bfbfbf" points="118,-1 118,-31 234,-31 234,-1 118,-1"/>
<text text-anchor="start" x="126" y="-19" font-family="Helvetica,sans-Serif" font-size="10.00">boost/container/pmr</text>
<text text-anchor="middle" x="176" y="-8" font-family="Helvetica,sans-Serif" font-size="10.00">/memory_resource.hpp</text>
</g>
<!-- Node13&#45;&gt;Node15 -->
<g id="edge14" class="edge"><title>Node13&#45;&gt;Node15</title>
<path fill="none" stroke="midnightblue" d="M507.237,-68.4881C439.258,-60.922 339.795,-48.7236 243.905,-32.065"/>
<polygon fill="midnightblue" stroke="midnightblue" points="244.494,-28.615 234.04,-30.3329 243.284,-35.5096 244.494,-28.615"/>
</g>
<!-- Node16 -->
<g id="node16" class="node"><title>Node16</title>
<polygon fill="none" stroke="#bfbfbf" points="252,-1 252,-31 408,-31 408,-1 252,-1"/>
<text text-anchor="start" x="260" y="-19" font-family="Helvetica,sans-Serif" font-size="10.00">boost/container/pmr</text>
<text text-anchor="middle" x="330" y="-8" font-family="Helvetica,sans-Serif" font-size="10.00">/monotonic_buffer_resource.hpp</text>
</g>
<!-- Node13&#45;&gt;Node16 -->
<g id="edge15" class="edge"><title>Node13&#45;&gt;Node16</title>
<path fill="none" stroke="midnightblue" d="M552.167,-68.4672C512.839,-59.3565 449.566,-44.6988 400.585,-33.3517"/>
<polygon fill="midnightblue" stroke="midnightblue" points="401.209,-29.9037 390.677,-31.0565 399.629,-36.7231 401.209,-29.9037"/>
</g>
<!-- Node17 -->
<g id="node17" class="node"><title>Node17</title>
<polygon fill="none" stroke="#bfbfbf" points="426.5,-1 426.5,-31 559.5,-31 559.5,-1 426.5,-1"/>
<text text-anchor="start" x="434.5" y="-19" font-family="Helvetica,sans-Serif" font-size="10.00">boost/container/pmr</text>
<text text-anchor="middle" x="493" y="-8" font-family="Helvetica,sans-Serif" font-size="10.00">/polymorphic_allocator.hpp</text>
</g>
<!-- Node13&#45;&gt;Node17 -->
<g id="edge16" class="edge"><title>Node13&#45;&gt;Node17</title>
<path fill="none" stroke="midnightblue" d="M575.246,-68.4035C562.001,-60.1254 541.497,-47.3106 524.276,-36.5474"/>
<polygon fill="midnightblue" stroke="midnightblue" points="525.96,-33.4728 515.625,-31.1408 522.25,-39.4088 525.96,-33.4728"/>
</g>
<!-- Node18 -->
<g id="node18" class="node"><title>Node18</title>
<polygon fill="none" stroke="#bfbfbf" points="1002,-6.5 1002,-25.5 1048,-25.5 1048,-6.5 1002,-6.5"/>
<text text-anchor="middle" x="1025" y="-13.5" font-family="Helvetica,sans-Serif" font-size="10.00">cstring</text>
</g>
<!-- Node13&#45;&gt;Node18 -->
<g id="edge17" class="edge"><title>Node13&#45;&gt;Node18</title>
<path fill="none" stroke="midnightblue" d="M678.887,-68.4735C788.421,-57.8474 962.604,-40.1013 992,-32 994.495,-31.3124 997.04,-30.4586 999.555,-29.5097"/>
<polygon fill="midnightblue" stroke="midnightblue" points="1001.09,-32.6587 1008.93,-25.5298 998.359,-26.215 1001.09,-32.6587"/>
</g>
<!-- Node19 -->
<g id="node19" class="node"><title>Node19</title>
<polygon fill="none" stroke="#bfbfbf" points="942.5,-6.5 942.5,-25.5 983.5,-25.5 983.5,-6.5 942.5,-6.5"/>
<text text-anchor="middle" x="963" y="-13.5" font-family="Helvetica,sans-Serif" font-size="10.00">string</text>
</g>
<!-- Node13&#45;&gt;Node19 -->
<g id="edge18" class="edge"><title>Node13&#45;&gt;Node19</title>
<path fill="none" stroke="midnightblue" d="M680.824,-68.4659C766.364,-59.8859 887.355,-45.9629 933,-32 934.921,-31.4123 936.869,-30.7106 938.802,-29.9363"/>
<polygon fill="midnightblue" stroke="midnightblue" points="940.515,-33.0013 948.146,-25.6512 937.597,-26.6384 940.515,-33.0013"/>
</g>
<!-- Node13&#45;&gt;Node20 -->
<g id="edge19" class="edge"><title>Node13&#45;&gt;Node20</title>
<path fill="none" stroke="midnightblue" d="M685.678,-68.542C688.482,-68.3517 691.261,-68.1704 694,-68 900.201,-55.1746 1420.47,-72.7921 1623,-32 1626.71,-31.2532 1630.53,-30.2086 1634.26,-29.0145"/>
<polygon fill="midnightblue" stroke="midnightblue" points="1635.59,-32.2578 1643.84,-25.6065 1633.24,-25.6633 1635.59,-32.2578"/>
</g>
<!-- Node21 -->
<g id="node21" class="node"><title>Node21</title>
<polygon fill="none" stroke="#bfbfbf" points="1504,-6.5 1504,-25.5 1544,-25.5 1544,-6.5 1504,-6.5"/>
<text text-anchor="middle" x="1524" y="-13.5" font-family="Helvetica,sans-Serif" font-size="10.00">utility</text>
</g>
<!-- Node13&#45;&gt;Node21 -->
<g id="edge20" class="edge"><title>Node13&#45;&gt;Node21</title>
<path fill="none" stroke="midnightblue" d="M685.68,-68.5648C688.483,-68.3678 691.261,-68.1789 694,-68 871.579,-56.3987 1321.77,-76.7699 1494,-32 1496.2,-31.4287 1498.42,-30.6833 1500.61,-29.8301"/>
<polygon fill="midnightblue" stroke="midnightblue" points="1502.2,-32.9538 1509.83,-25.6058 1499.28,-26.5901 1502.2,-32.9538"/>
</g>
<!-- Node22 -->
<g id="node22" class="node"><title>Node22</title>
<polygon fill="none" stroke="#bfbfbf" points="1712,-6.5 1712,-25.5 1756,-25.5 1756,-6.5 1712,-6.5"/>
<text text-anchor="middle" x="1734" y="-13.5" font-family="Helvetica,sans-Serif" font-size="10.00">vector</text>
</g>
<!-- Node13&#45;&gt;Node22 -->
<g id="edge21" class="edge"><title>Node13&#45;&gt;Node22</title>
<path fill="none" stroke="midnightblue" d="M685.678,-68.531C688.482,-68.3439 691.261,-68.1662 694,-68 917.731,-54.4248 1484.12,-84.6298 1702,-32 1704.5,-31.3949 1707.05,-30.5846 1709.55,-29.6528"/>
<polygon fill="midnightblue" stroke="midnightblue" points="1711.05,-32.8189 1718.83,-25.6331 1708.27,-26.3954 1711.05,-32.8189"/>
</g>
<!-- Node23 -->
<g id="node23" class="node"><title>Node23</title>
<polygon fill="none" stroke="#bfbfbf" points="577.5,-6.5 577.5,-25.5 660.5,-25.5 660.5,-6.5 577.5,-6.5"/>
<text text-anchor="middle" x="619" y="-13.5" font-family="Helvetica,sans-Serif" font-size="10.00">unordered_map</text>
</g>
<!-- Node13&#45;&gt;Node23 -->
<g id="edge22" class="edge"><title>Node13&#45;&gt;Node23</title>
<path fill="none" stroke="midnightblue" d="M593.298,-68.4035C597.665,-59.6707 604.555,-45.8893 610.103,-34.7936"/>
<polygon fill="midnightblue" stroke="midnightblue" points="613.368,-36.0901 614.71,-25.5806 607.107,-32.9596 613.368,-36.0901"/>
</g>
<!-- Node24 -->
<g id="node24" class="node"><title>Node24</title>
<polygon fill="none" stroke="#bfbfbf" points="678.5,-6.5 678.5,-25.5 775.5,-25.5 775.5,-6.5 678.5,-6.5"/>
<text text-anchor="middle" x="727" y="-13.5" font-family="Helvetica,sans-Serif" font-size="10.00">FairMQMessage.h</text>
</g>
<!-- Node13&#45;&gt;Node24 -->
<g id="edge23" class="edge"><title>Node13&#45;&gt;Node24</title>
<path fill="none" stroke="midnightblue" d="M608.772,-68.4035C632.136,-58.245 671.214,-41.2547 698.003,-29.6074"/>
<polygon fill="midnightblue" stroke="midnightblue" points="699.489,-32.7777 707.265,-25.5806 696.698,-26.3582 699.489,-32.7777"/>
</g>
<!-- Node25 -->
<g id="node25" class="node"><title>Node25</title>
<polygon fill="none" stroke="#bfbfbf" points="793.5,-6.5 793.5,-25.5 924.5,-25.5 924.5,-6.5 793.5,-6.5"/>
<text text-anchor="middle" x="859" y="-13.5" font-family="Helvetica,sans-Serif" font-size="10.00">FairMQTransportFactory.h</text>
</g>
<!-- Node13&#45;&gt;Node25 -->
<g id="edge24" class="edge"><title>Node13&#45;&gt;Node25</title>
<path fill="none" stroke="midnightblue" d="M627.398,-68.4672C675.579,-57.7602 758.235,-39.3922 810.67,-27.74"/>
<polygon fill="midnightblue" stroke="midnightblue" points="811.732,-31.0894 820.735,-25.5034 810.214,-24.2561 811.732,-31.0894"/>
</g>
<!-- Node26&#45;&gt;Node27 -->
<g id="edge26" class="edge"><title>Node26&#45;&gt;Node27</title>
<path fill="none" stroke="midnightblue" d="M1772.4,-124.083C1765.77,-116.298 1755.98,-104.801 1747.94,-95.3665"/>
<polygon fill="midnightblue" stroke="midnightblue" points="1750.6,-93.0939 1741.45,-87.7511 1745.27,-97.6332 1750.6,-93.0939"/>
</g>
<!-- Node30 -->
<g id="node30" class="node"><title>Node30</title>
<g id="a_node30"><a xlink:href="../../d7/d91/BoostSerializer_8h.html" target="_top" xlink:title="Templatised boost serializer/deserializer for containers and base types. ">
<polygon fill="none" stroke="black" points="2267,-68.5 2267,-87.5 2421,-87.5 2421,-68.5 2267,-68.5"/>
<text text-anchor="middle" x="2344" y="-75.5" font-family="Helvetica,sans-Serif" font-size="10.00">CommonUtils/BoostSerializer.h</text>
</a>
</g>
</g>
<!-- Node26&#45;&gt;Node30 -->
<g id="edge32" class="edge"><title>Node26&#45;&gt;Node30</title>
<path fill="none" stroke="midnightblue" d="M1863.65,-124.9C1866.81,-124.596 1869.93,-124.295 1873,-124 2006.92,-111.123 2162.27,-96.3035 2256.81,-87.298"/>
<polygon fill="midnightblue" stroke="midnightblue" points="2257.28,-90.7696 2266.9,-86.3372 2256.61,-83.8012 2257.28,-90.7696"/>
</g>
<!-- Node27&#45;&gt;Node11 -->
<g id="edge29" class="edge"><title>Node27&#45;&gt;Node11</title>
<path fill="none" stroke="midnightblue" d="M1712.67,-68.4975C1690.28,-59.5405 1654.09,-44.9637 1623,-32 1621.17,-31.2368 1619.29,-30.4464 1617.39,-29.6458"/>
<polygon fill="midnightblue" stroke="midnightblue" points="1618.53,-26.3282 1607.96,-25.6351 1615.79,-32.7698 1618.53,-26.3282"/>
</g>
<!-- Node27&#45;&gt;Node20 -->
<g id="edge27" class="edge"><title>Node27&#45;&gt;Node20</title>
<path fill="none" stroke="midnightblue" d="M1723.83,-68.4035C1712.65,-58.9579 1694.48,-43.6056 1680.91,-32.1342"/>
<polygon fill="midnightblue" stroke="midnightblue" points="1683.05,-29.3619 1673.15,-25.5806 1678.53,-34.7085 1683.05,-29.3619"/>
</g>
<!-- Node27&#45;&gt;Node22 -->
<g id="edge28" class="edge"><title>Node27&#45;&gt;Node22</title>
<path fill="none" stroke="midnightblue" d="M1734,-68.4035C1734,-59.9381 1734,-46.7283 1734,-35.8199"/>
<polygon fill="midnightblue" stroke="midnightblue" points="1737.5,-35.5806 1734,-25.5806 1730.5,-35.5806 1737.5,-35.5806"/>
</g>
<!-- Node28 -->
<g id="node28" class="node"><title>Node28</title>
<polygon fill="none" stroke="#bfbfbf" points="1774,-1 1774,-31 1878,-31 1878,-1 1774,-1"/>
<text text-anchor="start" x="1782" y="-19" font-family="Helvetica,sans-Serif" font-size="10.00">boost/archive/binary</text>
<text text-anchor="middle" x="1826" y="-8" font-family="Helvetica,sans-Serif" font-size="10.00">_iarchive.hpp</text>
</g>
<!-- Node27&#45;&gt;Node28 -->
<g id="edge30" class="edge"><title>Node27&#45;&gt;Node28</title>
<path fill="none" stroke="midnightblue" d="M1747.18,-68.4035C1759.76,-60.2014 1779.16,-47.5454 1795.57,-36.8441"/>
<polygon fill="midnightblue" stroke="midnightblue" points="1797.85,-39.5352 1804.32,-31.1408 1794.03,-33.6719 1797.85,-39.5352"/>
</g>
<!-- Node29 -->
<g id="node29" class="node"><title>Node29</title>
<polygon fill="none" stroke="#bfbfbf" points="1896,-1 1896,-31 2000,-31 2000,-1 1896,-1"/>
<text text-anchor="start" x="1904" y="-19" font-family="Helvetica,sans-Serif" font-size="10.00">boost/archive/binary</text>
<text text-anchor="middle" x="1948" y="-8" font-family="Helvetica,sans-Serif" font-size="10.00">_oarchive.hpp</text>
</g>
<!-- Node27&#45;&gt;Node29 -->
<g id="edge31" class="edge"><title>Node27&#45;&gt;Node29</title>
<path fill="none" stroke="midnightblue" d="M1764.66,-68.4035C1796.8,-59.393 1848.11,-45.0075 1888.28,-33.7432"/>
<polygon fill="midnightblue" stroke="midnightblue" points="1889.29,-37.0951 1897.98,-31.0253 1887.4,-30.355 1889.29,-37.0951"/>
</g>
<!-- Node30&#45;&gt;Node20 -->
<g id="edge34" class="edge"><title>Node30&#45;&gt;Node20</title>
<path fill="none" stroke="midnightblue" d="M2266.89,-74.3699C2120.71,-68.9239 1808.46,-54.967 1703,-32 1699.49,-31.2351 1695.87,-30.2221 1692.32,-29.0824"/>
<polygon fill="midnightblue" stroke="midnightblue" points="1693.19,-25.6796 1682.6,-25.6358 1690.85,-32.277 1693.19,-25.6796"/>
</g>
<!-- Node30&#45;&gt;Node21 -->
<g id="edge33" class="edge"><title>Node30&#45;&gt;Node21</title>
<path fill="none" stroke="midnightblue" d="M2266.7,-76.6985C2094.85,-75.3656 1685.84,-68.3476 1553,-32 1551.03,-31.4614 1549.04,-30.7777 1547.08,-30.0003"/>
<polygon fill="midnightblue" stroke="midnightblue" points="1548.21,-26.6646 1537.67,-25.5709 1545.23,-32.9976 1548.21,-26.6646"/>
</g>
<!-- Node30&#45;&gt;Node22 -->
<g id="edge36" class="edge"><title>Node30&#45;&gt;Node22</title>
<path fill="none" stroke="midnightblue" d="M2266.83,-74.5551C2131.61,-69.6808 1857.46,-57.0044 1765,-32 1762.8,-31.404 1760.56,-30.652 1758.35,-29.8038"/>
<polygon fill="midnightblue" stroke="midnightblue" points="1759.57,-26.5172 1749.01,-25.6554 1756.73,-32.9143 1759.57,-26.5172"/>
</g>
<!-- Node30&#45;&gt;Node28 -->
<g id="edge40" class="edge"><title>Node30&#45;&gt;Node28</title>
<path fill="none" stroke="midnightblue" d="M2266.73,-72.7707C2177.64,-67.1337 2026.69,-55.2526 1888.1,-32.0328"/>
<polygon fill="midnightblue" stroke="midnightblue" points="1888.59,-28.5658 1878.14,-30.3413 1887.41,-35.4669 1888.59,-28.5658"/>
</g>
<!-- Node30&#45;&gt;Node29 -->
<g id="edge41" class="edge"><title>Node30&#45;&gt;Node29</title>
<path fill="none" stroke="midnightblue" d="M2266.7,-68.8818C2198.77,-61.2023 2097.41,-48.4161 2010,-32 2009.9,-31.9808 2009.8,-31.9616 2009.69,-31.9423"/>
<polygon fill="midnightblue" stroke="midnightblue" points="2010.5,-28.5354 2000.01,-29.9965 2009.13,-35.3982 2010.5,-28.5354"/>
</g>
<!-- Node31 -->
<g id="node31" class="node"><title>Node31</title>
<polygon fill="none" stroke="#bfbfbf" points="2371,-6.5 2371,-25.5 2409,-25.5 2409,-6.5 2371,-6.5"/>
<text text-anchor="middle" x="2390" y="-13.5" font-family="Helvetica,sans-Serif" font-size="10.00">array</text>
</g>
<!-- Node30&#45;&gt;Node31 -->
<g id="edge35" class="edge"><title>Node30&#45;&gt;Node31</title>
<path fill="none" stroke="midnightblue" d="M2350.59,-68.4035C2357.49,-59.4034 2368.5,-45.0408 2377.13,-33.7824"/>
<polygon fill="midnightblue" stroke="midnightblue" points="2380.11,-35.6462 2383.42,-25.5806 2374.56,-31.3872 2380.11,-35.6462"/>
</g>
<!-- Node32 -->
<g id="node32" class="node"><title>Node32</title>
<polygon fill="none" stroke="#bfbfbf" points="2427.5,-6.5 2427.5,-25.5 2456.5,-25.5 2456.5,-6.5 2427.5,-6.5"/>
<text text-anchor="middle" x="2442" y="-13.5" font-family="Helvetica,sans-Serif" font-size="10.00">list</text>
</g>
<!-- Node30&#45;&gt;Node32 -->
<g id="edge37" class="edge"><title>Node30&#45;&gt;Node32</title>
<path fill="none" stroke="midnightblue" d="M2358.22,-68.4246C2373.14,-59.4081 2397.27,-44.7834 2418,-32 2418.52,-31.6777 2419.05,-31.3511 2419.59,-31.0213"/>
<polygon fill="midnightblue" stroke="midnightblue" points="2421.67,-33.8485 2428.31,-25.5959 2417.97,-27.9039 2421.67,-33.8485"/>
</g>
<!-- Node33 -->
<g id="node33" class="node"><title>Node33</title>
<polygon fill="none" stroke="#bfbfbf" points="2474.5,-6.5 2474.5,-25.5 2509.5,-25.5 2509.5,-6.5 2474.5,-6.5"/>
<text text-anchor="middle" x="2492" y="-13.5" font-family="Helvetica,sans-Serif" font-size="10.00">map</text>
</g>
<!-- Node30&#45;&gt;Node33 -->
<g id="edge38" class="edge"><title>Node30&#45;&gt;Node33</title>
<path fill="none" stroke="midnightblue" d="M2370.43,-68.46C2395.26,-60.1363 2433.24,-46.6254 2465,-32 2466.18,-31.4575 2467.37,-30.8835 2468.58,-30.289"/>
<polygon fill="midnightblue" stroke="midnightblue" points="2470.43,-33.2702 2477.64,-25.5069 2467.16,-27.0796 2470.43,-33.2702"/>
</g>
<!-- Node34 -->
<g id="node34" class="node"><title>Node34</title>
<polygon fill="none" stroke="#bfbfbf" points="2528,-6.5 2528,-25.5 2558,-25.5 2558,-6.5 2528,-6.5"/>
<text text-anchor="middle" x="2543" y="-13.5" font-family="Helvetica,sans-Serif" font-size="10.00">set</text>
</g>
<!-- Node30&#45;&gt;Node34 -->
<g id="edge39" class="edge"><title>Node30&#45;&gt;Node34</title>
<path fill="none" stroke="midnightblue" d="M2392.1,-68.4389C2427.72,-61.1783 2476.99,-49.1815 2518,-32 2519.18,-31.5049 2520.37,-30.9611 2521.56,-30.383"/>
<polygon fill="midnightblue" stroke="midnightblue" points="2523.32,-33.4093 2530.4,-25.5212 2519.95,-27.2768 2523.32,-33.4093"/>
</g>
<!-- Node35 -->
<g id="node35" class="node"><title>Node35</title>
<polygon fill="none" stroke="#bfbfbf" points="2576,-1 2576,-31 2712,-31 2712,-1 2576,-1"/>
<text text-anchor="start" x="2584" y="-19" font-family="Helvetica,sans-Serif" font-size="10.00">boost/serialization</text>
<text text-anchor="middle" x="2644" y="-8" font-family="Helvetica,sans-Serif" font-size="10.00">/is_bitwise_serializable.hpp</text>
</g>
<!-- Node30&#45;&gt;Node35 -->
<g id="edge42" class="edge"><title>Node30&#45;&gt;Node35</title>
<path fill="none" stroke="midnightblue" d="M2386.66,-68.4672C2433.13,-59.1736 2508.46,-44.108 2565.64,-32.6724"/>
<polygon fill="midnightblue" stroke="midnightblue" points="2566.61,-36.0471 2575.73,-30.6538 2565.24,-29.183 2566.61,-36.0471"/>
</g>
<!-- Node36 -->
<g id="node36" class="node"><title>Node36</title>
<polygon fill="none" stroke="#bfbfbf" points="2730.5,-1 2730.5,-31 2825.5,-31 2825.5,-1 2730.5,-1"/>
<text text-anchor="start" x="2738.5" y="-19" font-family="Helvetica,sans-Serif" font-size="10.00">boost/serialization</text>
<text text-anchor="middle" x="2778" y="-8" font-family="Helvetica,sans-Serif" font-size="10.00">/serialization.hpp</text>
</g>
<!-- Node30&#45;&gt;Node36 -->
<g id="edge43" class="edge"><title>Node30&#45;&gt;Node36</title>
<path fill="none" stroke="midnightblue" d="M2421.02,-70.9534C2495.3,-64.4054 2611.02,-52.3282 2720.34,-31.9558"/>
<polygon fill="midnightblue" stroke="midnightblue" points="2721.04,-35.3849 2730.22,-30.0884 2719.74,-28.5067 2721.04,-35.3849"/>
</g>
<!-- Node37 -->
<g id="node37" class="node"><title>Node37</title>
<polygon fill="none" stroke="#bfbfbf" points="2843.5,-1 2843.5,-31 2938.5,-31 2938.5,-1 2843.5,-1"/>
<text text-anchor="start" x="2851.5" y="-19" font-family="Helvetica,sans-Serif" font-size="10.00">boost/serialization</text>
<text text-anchor="middle" x="2891" y="-8" font-family="Helvetica,sans-Serif" font-size="10.00">/array.hpp</text>
</g>
<!-- Node30&#45;&gt;Node37 -->
<g id="edge44" class="edge"><title>Node30&#45;&gt;Node37</title>
<path fill="none" stroke="midnightblue" d="M2421.33,-73.861C2516.26,-69.1207 2682.18,-57.9594 2833.3,-31.9212"/>
<polygon fill="midnightblue" stroke="midnightblue" points="2833.99,-35.3548 2843.23,-30.1845 2832.78,-28.4595 2833.99,-35.3548"/>
</g>
<!-- Node38 -->
<g id="node38" class="node"><title>Node38</title>
<polygon fill="none" stroke="#bfbfbf" points="2956.5,-1 2956.5,-31 3051.5,-31 3051.5,-1 2956.5,-1"/>
<text text-anchor="start" x="2964.5" y="-19" font-family="Helvetica,sans-Serif" font-size="10.00">boost/serialization</text>
<text text-anchor="middle" x="3004" y="-8" font-family="Helvetica,sans-Serif" font-size="10.00">/vector.hpp</text>
</g>
<!-- Node30&#45;&gt;Node38 -->
<g id="edge45" class="edge"><title>Node30&#45;&gt;Node38</title>
<path fill="none" stroke="midnightblue" d="M2421.16,-75.744C2534.41,-72.9048 2752.25,-63.6597 2946.15,-31.921"/>
<polygon fill="midnightblue" stroke="midnightblue" points="2946.95,-35.3361 2956.24,-30.245 2945.81,-28.4307 2946.95,-35.3361"/>
</g>
<!-- Node39 -->
<g id="node39" class="node"><title>Node39</title>
<polygon fill="none" stroke="#bfbfbf" points="3069.5,-1 3069.5,-31 3164.5,-31 3164.5,-1 3069.5,-1"/>
<text text-anchor="start" x="3077.5" y="-19" font-family="Helvetica,sans-Serif" font-size="10.00">boost/serialization</text>
<text text-anchor="middle" x="3117" y="-8" font-family="Helvetica,sans-Serif" font-size="10.00">/list.hpp</text>
</g>
<!-- Node30&#45;&gt;Node39 -->
<g id="edge46" class="edge"><title>Node30&#45;&gt;Node39</title>
<path fill="none" stroke="midnightblue" d="M2421.1,-77.0504C2551.03,-76.0616 2821.8,-69.3846 3059.05,-31.92"/>
<polygon fill="midnightblue" stroke="midnightblue" points="3059.93,-35.3236 3069.25,-30.2865 3058.82,-28.4116 3059.93,-35.3236"/>
</g>
<!-- Node40 -->
<g id="node40" class="node"><title>Node40</title>
<polygon fill="none" stroke="#bfbfbf" points="2018.5,-1 2018.5,-31 2113.5,-31 2113.5,-1 2018.5,-1"/>
<text text-anchor="start" x="2026.5" y="-19" font-family="Helvetica,sans-Serif" font-size="10.00">boost/serialization</text>
<text text-anchor="middle" x="2066" y="-8" font-family="Helvetica,sans-Serif" font-size="10.00">/map.hpp</text>
</g>
<!-- Node30&#45;&gt;Node40 -->
<g id="edge47" class="edge"><title>Node30&#45;&gt;Node40</title>
<path fill="none" stroke="midnightblue" d="M2298.12,-68.4421C2255.41,-60.2987 2189.76,-47.3363 2123.34,-32.0031"/>
<polygon fill="midnightblue" stroke="midnightblue" points="2124.07,-28.5795 2113.54,-29.7239 2122.48,-35.3977 2124.07,-28.5795"/>
</g>
<!-- Node41 -->
<g id="node41" class="node"><title>Node41</title>
<polygon fill="none" stroke="#bfbfbf" points="2131.5,-1 2131.5,-31 2226.5,-31 2226.5,-1 2131.5,-1"/>
<text text-anchor="start" x="2139.5" y="-19" font-family="Helvetica,sans-Serif" font-size="10.00">boost/serialization</text>
<text text-anchor="middle" x="2179" y="-8" font-family="Helvetica,sans-Serif" font-size="10.00">/set.hpp</text>
</g>
<!-- Node30&#45;&gt;Node41 -->
<g id="edge48" class="edge"><title>Node30&#45;&gt;Node41</title>
<path fill="none" stroke="midnightblue" d="M2320.36,-68.4035C2296.16,-59.6025 2257.85,-45.6737 2227.22,-34.534"/>
<polygon fill="midnightblue" stroke="midnightblue" points="2228.16,-31.1535 2217.57,-31.0253 2225.77,-37.7321 2228.16,-31.1535"/>
</g>
<!-- Node42 -->
<g id="node42" class="node"><title>Node42</title>
<polygon fill="none" stroke="#bfbfbf" points="2245,-6.5 2245,-25.5 2353,-25.5 2353,-6.5 2245,-6.5"/>
<text text-anchor="middle" x="2299" y="-13.5" font-family="Helvetica,sans-Serif" font-size="10.00">boost/type_traits.hpp</text>
</g>
<!-- Node30&#45;&gt;Node42 -->
<g id="edge49" class="edge"><title>Node30&#45;&gt;Node42</title>
<path fill="none" stroke="midnightblue" d="M2337.55,-68.4035C2330.8,-59.4034 2320.03,-45.0408 2311.59,-33.7824"/>
<polygon fill="midnightblue" stroke="midnightblue" points="2314.24,-31.4806 2305.44,-25.5806 2308.64,-35.6806 2314.24,-31.4806"/>
</g>
<!-- Node43&#45;&gt;Node11 -->
<g id="edge53" class="edge"><title>Node43&#45;&gt;Node11</title>
<path fill="none" stroke="midnightblue" d="M1485.19,-68.4035C1505.24,-58.3787 1538.6,-41.7006 1561.86,-30.0699"/>
<polygon fill="midnightblue" stroke="midnightblue" points="1563.46,-33.1833 1570.84,-25.5806 1560.33,-26.9223 1563.46,-33.1833"/>
</g>
<!-- Node43&#45;&gt;Node18 -->
<g id="edge55" class="edge"><title>Node43&#45;&gt;Node18</title>
<path fill="none" stroke="midnightblue" d="M1409.41,-69.1429C1406.23,-68.7483 1403.07,-68.3648 1400,-68 1247.79,-49.9424 1204.67,-73.1 1057,-32 1054.66,-31.3476 1052.27,-30.5374 1049.91,-29.6339"/>
<polygon fill="midnightblue" stroke="midnightblue" points="1051.12,-26.3408 1040.55,-25.5602 1048.32,-32.7595 1051.12,-26.3408"/>
</g>
<!-- Node43&#45;&gt;Node19 -->
<g id="edge58" class="edge"><title>Node43&#45;&gt;Node19</title>
<path fill="none" stroke="midnightblue" d="M1409.41,-69.082C1406.23,-68.7031 1403.08,-68.3396 1400,-68 1219.5,-48.0819 1167.73,-81.475 993,-32 991.025,-31.4408 989.025,-30.7511 987.045,-29.9776"/>
<polygon fill="midnightblue" stroke="midnightblue" points="988.059,-26.5936 977.509,-25.6264 985.154,-32.962 988.059,-26.5936"/>
</g>
<!-- Node44 -->
<g id="node44" class="node"><title>Node44</title>
<polygon fill="none" stroke="#bfbfbf" points="1066,-6.5 1066,-25.5 1112,-25.5 1112,-6.5 1066,-6.5"/>
<text text-anchor="middle" x="1089" y="-13.5" font-family="Helvetica,sans-Serif" font-size="10.00">cstdint</text>
</g>
<!-- Node43&#45;&gt;Node44 -->
<g id="edge52" class="edge"><title>Node43&#45;&gt;Node44</title>
<path fill="none" stroke="midnightblue" d="M1409.4,-69.2313C1406.22,-68.8138 1403.07,-68.4012 1400,-68 1276.03,-51.7976 1241.04,-66.9521 1121,-32 1118.71,-31.3343 1116.38,-30.5256 1114.08,-29.6327"/>
<polygon fill="midnightblue" stroke="midnightblue" points="1115.47,-26.4188 1104.9,-25.6378 1112.67,-32.8374 1115.47,-26.4188"/>
</g>
<!-- Node45 -->
<g id="node45" class="node"><title>Node45</title>
<polygon fill="none" stroke="#bfbfbf" points="1359.5,-6.5 1359.5,-25.5 1408.5,-25.5 1408.5,-6.5 1359.5,-6.5"/>
<text text-anchor="middle" x="1384" y="-13.5" font-family="Helvetica,sans-Serif" font-size="10.00">cassert</text>
</g>
<!-- Node43&#45;&gt;Node45 -->
<g id="edge54" class="edge"><title>Node43&#45;&gt;Node45</title>
<path fill="none" stroke="midnightblue" d="M1455.96,-68.4035C1442.49,-58.7797 1420.43,-43.0242 1404.28,-31.4891"/>
<polygon fill="midnightblue" stroke="midnightblue" points="1406.18,-28.5449 1396.01,-25.5806 1402.12,-34.2411 1406.18,-28.5449"/>
</g>
<!-- Node46 -->
<g id="node46" class="node"><title>Node46</title>
<polygon fill="none" stroke="#bfbfbf" points="1130,-6.5 1130,-25.5 1186,-25.5 1186,-6.5 1130,-6.5"/>
<text text-anchor="middle" x="1158" y="-13.5" font-family="Helvetica,sans-Serif" font-size="10.00">algorithm</text>
</g>
<!-- Node43&#45;&gt;Node46 -->
<g id="edge56" class="edge"><title>Node43&#45;&gt;Node46</title>
<path fill="none" stroke="midnightblue" d="M1409.28,-68.8781C1341.48,-59.2262 1234.25,-43.042 1195,-32 1192.19,-31.208 1189.29,-30.2697 1186.43,-29.2548"/>
<polygon fill="midnightblue" stroke="midnightblue" points="1187.51,-25.9226 1176.92,-25.6105 1185.01,-32.4587 1187.51,-25.9226"/>
</g>
<!-- Node43&#45;&gt;Node47 -->
<g id="edge57" class="edge"><title>Node43&#45;&gt;Node47</title>
<path fill="none" stroke="midnightblue" d="M1466.28,-68.4035C1464.57,-59.849 1461.89,-46.4497 1459.7,-35.4762"/>
<polygon fill="midnightblue" stroke="midnightblue" points="1463.11,-34.7 1457.72,-25.5806 1456.25,-36.0728 1463.11,-34.7"/>
</g>
<!-- Node48 -->
<g id="node48" class="node"><title>Node48</title>
<g id="a_node48"><a xlink:href="../../d7/df8/Types_8h.html" target="_top" xlink:title="MemoryResources/Types.h">
<polygon fill="none" stroke="black" points="1204.5,-6.5 1204.5,-25.5 1341.5,-25.5 1341.5,-6.5 1204.5,-6.5"/>
<text text-anchor="middle" x="1273" y="-13.5" font-family="Helvetica,sans-Serif" font-size="10.00">MemoryResources/Types.h</text>
</a>
</g>
</g>
<!-- Node43&#45;&gt;Node48 -->
<g id="edge59" class="edge"><title>Node43&#45;&gt;Node48</title>
<path fill="none" stroke="midnightblue" d="M1440.06,-68.4035C1406.03,-57.9331 1348.42,-40.2049 1310.54,-28.5501"/>
<polygon fill="midnightblue" stroke="midnightblue" points="1311.47,-25.1763 1300.89,-25.5806 1309.42,-31.8667 1311.47,-25.1763"/>
</g>
</g>
</svg>
        <g id="navigator" transform="translate(0 0)" fill="#404254">
                <rect fill="#f2f5e9" fill-opacity="0.5" stroke="#606060" stroke-width=".5" x="0" y="0" width="60" height="60"/>
                <use id="zoomplus" xlink:href="#zoomPlus" x="17" y="9" onmousedown="handleZoom(evt,'in')"/>
                <use id="zoomminus" xlink:href="#zoomMin" x="42" y="9" onmousedown="handleZoom(evt,'out')"/>
                <use id="reset" xlink:href="#resetDef" x="30" y="36" onmousedown="handleReset()"/>
                <g id="arrowUp" xlink:href="#dirArrow" transform="translate(30 24)" onmousedown="handlePan(0,-1)">
                  <use xlink:href="#rim" fill="#404040">
                        <set attributeName="fill" to="#808080" begin="arrowUp.mouseover" end="arrowUp.mouseout"/>
                  </use>
                  <path fill="none" stroke="white" stroke-width="1.5" d="M0,-3.0v7 M-2.5,-0.5L0,-3.0L2.5,-0.5"/>
                </g>
                <g id="arrowRight" xlink:href="#dirArrow" transform="rotate(90) translate(36 -43)" onmousedown="handlePan(1,0)">
                  <use xlink:href="#rim" fill="#404040">
                        <set attributeName="fill" to="#808080" begin="arrowRight.mouseover" end="arrowRight.mouseout"/>
                  </use>
                  <path fill="none" stroke="white" stroke-width="1.5" d="M0,-3.0v7 M-2.5,-0.5L0,-3.0L2.5,-0.5"/>
                </g>
                <g id="arrowDown" xlink:href="#dirArrow" transform="rotate(180) translate(-30 -48)" onmousedown="handlePan(0,1)">
                  <use xlink:href="#rim" fill="#404040">
                        <set attributeName="fill" to="#808080" begin="arrowDown.mouseover" end="arrowDown.mouseout"/>
                  </use>
                  <path fill="none" stroke="white" stroke-width="1.5" d="M0,-3.0v7 M-2.5,-0.5L0,-3.0L2.5,-0.5"/>
                </g>
                <g id="arrowLeft" xlink:href="#dirArrow" transform="rotate(270) translate(-36 17)" onmousedown="handlePan(-1,0)">
                  <use xlink:href="#rim" fill="#404040">
                        <set attributeName="fill" to="#808080" begin="arrowLeft.mouseover" end="arrowLeft.mouseout"/>
                  </use>
                  <path fill="none" stroke="white" stroke-width="1.5" d="M0,-3.0v7 M-2.5,-0.5L0,-3.0L2.5,-0.5"/>
                </g>
        </g>
        <svg viewBox="0 0 15 15" width="100%" height="30px" preserveAspectRatio="xMaxYMin meet">
         <g id="arrow_out" transform="scale(0.3 0.3)">
          <a xlink:href="DataRefUtils_8h__incl_org.svg" target="_base">
           <rect id="button" ry="5" rx="5" y="6" x="6" height="38" width="38"
                fill="#f2f5e9" fill-opacity="0.5" stroke="#606060" stroke-width="1.0"/>
           <path id="arrow"
             d="M 11.500037,31.436501 C 11.940474,20.09759 22.043105,11.32322 32.158766,21.979434 L 37.068811,17.246167 C 37.068811,17.246167 37.088388,32 37.088388,32 L 22.160133,31.978069 C 22.160133,31.978069 26.997745,27.140456 26.997745,27.140456 C 18.528582,18.264221 13.291696,25.230495 11.500037,31.436501 z"
             style="fill:#404040;"/>
          </a>
         </g>
        </svg>
</svg>
