<?xml version="1.0" encoding="UTF-8" standalone="no"?>
<!DOCTYPE svg PUBLIC "-//W3C//DTD SVG 1.1//EN"
 "http://www.w3.org/Graphics/SVG/1.1/DTD/svg11.dtd">
<!-- Generated by graphviz version 2.36.0 (20140111.2315)
 -->
<!-- Title: /home/travis/build/AliceO2Group/AliceO2/Framework/Core/include/Framework/TypeTraits.h Pages: 1 -->
<svg width="446pt" height="130pt"
 viewBox="0.00 0.00 446.00 130.00" xmlns="http://www.w3.org/2000/svg" xmlns:xlink="http://www.w3.org/1999/xlink">
<g id="graph0" class="graph" transform="scale(1 1) rotate(0) translate(4 126)">
<title>/home/travis/build/AliceO2Group/AliceO2/Framework/Core/include/Framework/TypeTraits.h</title>
<!-- Node1 -->
<g id="node1" class="node"><title>Node1</title>
<polygon fill="#bfbfbf" stroke="black" points="105,-69 105,-121 231,-121 231,-69 105,-69"/>
<text text-anchor="start" x="113" y="-109" font-family="Helvetica,sans-Serif" font-size="10.00">/home/travis/build</text>
<text text-anchor="start" x="113" y="-98" font-family="Helvetica,sans-Serif" font-size="10.00">/AliceO2Group/AliceO2</text>
<text text-anchor="start" x="113" y="-87" font-family="Helvetica,sans-Serif" font-size="10.00">/Framework/Core/include</text>
<text text-anchor="middle" x="168" y="-76" font-family="Helvetica,sans-Serif" font-size="10.00">/Framework/TypeTraits.h</text>
</g>
<!-- Node2 -->
<g id="node2" class="node"><title>Node2</title>
<polygon fill="none" stroke="#bfbfbf" points="0,-6.5 0,-25.5 62,-25.5 62,-6.5 0,-6.5"/>
<text text-anchor="middle" x="31" y="-13.5" font-family="Helvetica,sans-Serif" font-size="10.00">type_traits</text>
</g>
<!-- Node1&#45;&gt;Node2 -->
<g id="edge1" class="edge"><title>Node1&#45;&gt;Node2</title>
<path fill="none" stroke="midnightblue" d="M123.141,-68.7873C100.443,-56.0302 73.7982,-41.0545 55.0157,-30.4979"/>
<polygon fill="midnightblue" stroke="midnightblue" points="56.6584,-27.4062 46.2261,-25.5577 53.2286,-33.5085 56.6584,-27.4062"/>
</g>
<!-- Node3 -->
<g id="node3" class="node"><title>Node3</title>
<polygon fill="none" stroke="#bfbfbf" points="80,-6.5 80,-25.5 124,-25.5 124,-6.5 80,-6.5"/>
<text text-anchor="middle" x="102" y="-13.5" font-family="Helvetica,sans-Serif" font-size="10.00">vector</text>
</g>
<!-- Node1&#45;&gt;Node3 -->
<g id="edge2" class="edge"><title>Node1&#45;&gt;Node3</title>
<path fill="none" stroke="midnightblue" d="M146.389,-68.7873C136.403,-57.1369 124.831,-43.6363 116.007,-33.3409"/>
<polygon fill="midnightblue" stroke="midnightblue" points="118.501,-30.8725 109.335,-25.5577 113.186,-35.4281 118.501,-30.8725"/>
</g>
<!-- Node4 -->
<g id="node4" class="node"><title>Node4</title>
<polygon fill="none" stroke="#bfbfbf" points="142,-6.5 142,-25.5 194,-25.5 194,-6.5 142,-6.5"/>
<text text-anchor="middle" x="168" y="-13.5" font-family="Helvetica,sans-Serif" font-size="10.00">memory</text>
</g>
<!-- Node1&#45;&gt;Node4 -->
<g id="edge3" class="edge"><title>Node1&#45;&gt;Node4</title>
<path fill="none" stroke="midnightblue" d="M168,-68.7873C168,-58.069 168,-45.7846 168,-35.8708"/>
<polygon fill="midnightblue" stroke="midnightblue" points="171.5,-35.5577 168,-25.5577 164.5,-35.5577 171.5,-35.5577"/>
</g>
<!-- Node5 -->
<g id="node5" class="node"><title>Node5</title>
<polygon fill="none" stroke="#bfbfbf" points="212,-1 212,-31 316,-31 316,-1 212,-1"/>
<text text-anchor="start" x="220" y="-19" font-family="Helvetica,sans-Serif" font-size="10.00">boost/archive/binary</text>
<text text-anchor="middle" x="264" y="-8" font-family="Helvetica,sans-Serif" font-size="10.00">_iarchive.hpp</text>
</g>
<!-- Node1&#45;&gt;Node5 -->
<g id="edge4" class="edge"><title>Node1&#45;&gt;Node5</title>
<path fill="none" stroke="midnightblue" d="M199.434,-68.7873C212.141,-58.5953 226.613,-46.9872 238.631,-37.3479"/>
<polygon fill="midnightblue" stroke="midnightblue" points="240.896,-40.0178 246.507,-31.0307 236.517,-34.5573 240.896,-40.0178"/>
</g>
<!-- Node6 -->
<g id="node6" class="node"><title>Node6</title>
<polygon fill="none" stroke="#bfbfbf" points="334,-1 334,-31 438,-31 438,-1 334,-1"/>
<text text-anchor="start" x="342" y="-19" font-family="Helvetica,sans-Serif" font-size="10.00">boost/archive/binary</text>
<text text-anchor="middle" x="386" y="-8" font-family="Helvetica,sans-Serif" font-size="10.00">_oarchive.hpp</text>
</g>
<!-- Node1&#45;&gt;Node6 -->
<g id="edge5" class="edge"><title>Node1&#45;&gt;Node6</title>
<path fill="none" stroke="midnightblue" d="M231.055,-71.7284C264.528,-59.9052 305.077,-45.5828 336.297,-34.5556"/>
<polygon fill="midnightblue" stroke="midnightblue" points="337.821,-37.7292 346.085,-31.0985 335.49,-31.1288 337.821,-37.7292"/>
</g>
</g>
</svg>
