<?xml version="1.0" encoding="UTF-8" standalone="no"?>
<!DOCTYPE svg PUBLIC "-//W3C//DTD SVG 1.1//EN"
 "http://www.w3.org/Graphics/SVG/1.1/DTD/svg11.dtd">
<!-- Generated by graphviz version 2.36.0 (20140111.2315)
 -->
<!-- Title: /home/travis/build/AliceO2Group/AliceO2/Detectors/TOF/simulation/src/Strip.cxx Pages: 1 -->
<svg width="2697pt" height="446pt"
 viewBox="0.00 0.00 2697.00 446.00" xmlns="http://www.w3.org/2000/svg" xmlns:xlink="http://www.w3.org/1999/xlink">
<g id="graph0" class="graph" transform="scale(1 1) rotate(0) translate(4 442)">
<title>/home/travis/build/AliceO2Group/AliceO2/Detectors/TOF/simulation/src/Strip.cxx</title>
<!-- Node1 -->
<g id="node1" class="node"><title>Node1</title>
<polygon fill="#bfbfbf" stroke="black" points="770,-385 770,-437 902,-437 902,-385 770,-385"/>
<text text-anchor="start" x="778" y="-425" font-family="Helvetica,sans-Serif" font-size="10.00">/home/travis/build</text>
<text text-anchor="start" x="778" y="-414" font-family="Helvetica,sans-Serif" font-size="10.00">/AliceO2Group/AliceO2</text>
<text text-anchor="start" x="778" y="-403" font-family="Helvetica,sans-Serif" font-size="10.00">/Detectors/TOF/simulation</text>
<text text-anchor="middle" x="836" y="-392" font-family="Helvetica,sans-Serif" font-size="10.00">/src/Strip.cxx</text>
</g>
<!-- Node2 -->
<g id="node2" class="node"><title>Node2</title>
<polygon fill="none" stroke="#bfbfbf" points="689,-328.5 689,-347.5 735,-347.5 735,-328.5 689,-328.5"/>
<text text-anchor="middle" x="712" y="-335.5" font-family="Helvetica,sans-Serif" font-size="10.00">cstring</text>
</g>
<!-- Node1&#45;&gt;Node2 -->
<g id="edge1" class="edge"><title>Node1&#45;&gt;Node2</title>
<path fill="none" stroke="midnightblue" d="M792.282,-384.968C773.28,-374.088 751.763,-361.767 735.79,-352.622"/>
<polygon fill="midnightblue" stroke="midnightblue" points="737.505,-349.571 727.088,-347.639 734.027,-355.645 737.505,-349.571"/>
</g>
<!-- Node3 -->
<g id="node3" class="node"><title>Node3</title>
<polygon fill="none" stroke="#bfbfbf" points="753,-328.5 753,-347.5 791,-347.5 791,-328.5 753,-328.5"/>
<text text-anchor="middle" x="772" y="-335.5" font-family="Helvetica,sans-Serif" font-size="10.00">tuple</text>
</g>
<!-- Node1&#45;&gt;Node3 -->
<g id="edge2" class="edge"><title>Node1&#45;&gt;Node3</title>
<path fill="none" stroke="midnightblue" d="M813.256,-384.768C804.434,-374.982 794.586,-364.056 786.724,-355.335"/>
<polygon fill="midnightblue" stroke="midnightblue" points="789.189,-352.842 779.894,-347.757 783.99,-357.528 789.189,-352.842"/>
</g>
<!-- Node4 -->
<g id="node4" class="node"><title>Node4</title>
<polygon fill="none" stroke="#bfbfbf" points="809.5,-328.5 809.5,-347.5 862.5,-347.5 862.5,-328.5 809.5,-328.5"/>
<text text-anchor="middle" x="836" y="-335.5" font-family="Helvetica,sans-Serif" font-size="10.00">TMath.h</text>
</g>
<!-- Node1&#45;&gt;Node4 -->
<g id="edge3" class="edge"><title>Node1&#45;&gt;Node4</title>
<path fill="none" stroke="midnightblue" d="M836,-384.768C836,-375.89 836,-366.074 836,-357.816"/>
<polygon fill="midnightblue" stroke="midnightblue" points="839.5,-357.757 836,-347.757 832.5,-357.757 839.5,-357.757"/>
</g>
<!-- Node5 -->
<g id="node5" class="node"><title>Node5</title>
<polygon fill="none" stroke="#bfbfbf" points="880.5,-328.5 880.5,-347.5 949.5,-347.5 949.5,-328.5 880.5,-328.5"/>
<text text-anchor="middle" x="915" y="-335.5" font-family="Helvetica,sans-Serif" font-size="10.00">TObjArray.h</text>
</g>
<!-- Node1&#45;&gt;Node5 -->
<g id="edge4" class="edge"><title>Node1&#45;&gt;Node5</title>
<path fill="none" stroke="midnightblue" d="M864.075,-384.768C875.301,-374.679 887.874,-363.379 897.718,-354.532"/>
<polygon fill="midnightblue" stroke="midnightblue" points="900.158,-357.045 905.256,-347.757 895.479,-351.838 900.158,-357.045"/>
</g>
<!-- Node6 -->
<g id="node6" class="node"><title>Node6</title>
<g id="a_node6"><a xlink:href="../../dd/d77/Strip_8h.html" target="_top" xlink:title="TOFSimulation/Strip.h">
<polygon fill="none" stroke="black" points="967.5,-328.5 967.5,-347.5 1080.5,-347.5 1080.5,-328.5 967.5,-328.5"/>
<text text-anchor="middle" x="1024" y="-335.5" font-family="Helvetica,sans-Serif" font-size="10.00">TOFSimulation/Strip.h</text>
</a>
</g>
</g>
<!-- Node1&#45;&gt;Node6 -->
<g id="edge5" class="edge"><title>Node1&#45;&gt;Node6</title>
<path fill="none" stroke="midnightblue" d="M902.017,-385.068C932.332,-373.619 966.919,-360.557 991.503,-351.273"/>
<polygon fill="midnightblue" stroke="midnightblue" points="992.938,-354.472 1001.06,-347.665 990.465,-347.923 992.938,-354.472"/>
</g>
<!-- Node7 -->
<g id="node7" class="node"><title>Node7</title>
<g id="a_node7"><a xlink:href="../../df/d9c/TOF_2base_2include_2TOFBase_2Digit_8h.html" target="_top" xlink:title="TOFBase/Digit.h">
<polygon fill="none" stroke="black" points="759,-210.5 759,-229.5 849,-229.5 849,-210.5 759,-210.5"/>
<text text-anchor="middle" x="804" y="-217.5" font-family="Helvetica,sans-Serif" font-size="10.00">TOFBase/Digit.h</text>
</a>
</g>
</g>
<!-- Node6&#45;&gt;Node7 -->
<g id="edge6" class="edge"><title>Node6&#45;&gt;Node7</title>
<path fill="none" stroke="midnightblue" d="M973.69,-328.438C918.084,-318.547 834.88,-302.315 824,-292 809.941,-278.671 805.514,-256.301 804.244,-240.23"/>
<polygon fill="midnightblue" stroke="midnightblue" points="807.724,-239.696 803.786,-229.861 800.731,-240.006 807.724,-239.696"/>
</g>
<!-- Node12 -->
<g id="node12" class="node"><title>Node12</title>
<polygon fill="none" stroke="#bfbfbf" points="832.5,-272.5 832.5,-291.5 891.5,-291.5 891.5,-272.5 832.5,-272.5"/>
<text text-anchor="middle" x="862" y="-279.5" font-family="Helvetica,sans-Serif" font-size="10.00">TObject.h</text>
</g>
<!-- Node6&#45;&gt;Node12 -->
<g id="edge12" class="edge"><title>Node6&#45;&gt;Node12</title>
<path fill="none" stroke="midnightblue" d="M998.331,-328.444C971.077,-319.359 927.816,-304.939 897.349,-294.783"/>
<polygon fill="midnightblue" stroke="midnightblue" points="898.143,-291.358 887.549,-291.516 895.929,-297.999 898.143,-291.358"/>
</g>
<!-- Node13 -->
<g id="node13" class="node"><title>Node13</title>
<polygon fill="none" stroke="#bfbfbf" points="909.5,-272.5 909.5,-291.5 968.5,-291.5 968.5,-272.5 909.5,-272.5"/>
<text text-anchor="middle" x="939" y="-279.5" font-family="Helvetica,sans-Serif" font-size="10.00">exception</text>
</g>
<!-- Node6&#45;&gt;Node13 -->
<g id="edge13" class="edge"><title>Node6&#45;&gt;Node13</title>
<path fill="none" stroke="midnightblue" d="M1010.34,-328.324C997.084,-319.9 976.732,-306.971 961.154,-297.074"/>
<polygon fill="midnightblue" stroke="midnightblue" points="962.94,-294.063 952.623,-291.655 959.187,-299.971 962.94,-294.063"/>
</g>
<!-- Node14 -->
<g id="node14" class="node"><title>Node14</title>
<polygon fill="none" stroke="#bfbfbf" points="1753.5,-74.5 1753.5,-93.5 1788.5,-93.5 1788.5,-74.5 1753.5,-74.5"/>
<text text-anchor="middle" x="1771" y="-81.5" font-family="Helvetica,sans-Serif" font-size="10.00">map</text>
</g>
<!-- Node6&#45;&gt;Node14 -->
<g id="edge14" class="edge"><title>Node6&#45;&gt;Node14</title>
<path fill="none" stroke="midnightblue" d="M1080.5,-333.509C1309.9,-318.763 2163.07,-258.152 2239,-168 2248.16,-157.122 2248.5,-146.587 2239,-136 2209.44,-103.046 1894.73,-89.3428 1798.68,-85.9087"/>
<polygon fill="midnightblue" stroke="midnightblue" points="1798.69,-82.4071 1788.58,-85.5569 1798.45,-89.4029 1798.69,-82.4071"/>
</g>
<!-- Node15 -->
<g id="node15" class="node"><title>Node15</title>
<polygon fill="none" stroke="#bfbfbf" points="1025,-272.5 1025,-291.5 1077,-291.5 1077,-272.5 1025,-272.5"/>
<text text-anchor="middle" x="1051" y="-279.5" font-family="Helvetica,sans-Serif" font-size="10.00">sstream</text>
</g>
<!-- Node6&#45;&gt;Node15 -->
<g id="edge15" class="edge"><title>Node6&#45;&gt;Node15</title>
<path fill="none" stroke="midnightblue" d="M1028.46,-328.083C1032.15,-320.691 1037.52,-309.953 1042.09,-300.811"/>
<polygon fill="midnightblue" stroke="midnightblue" points="1045.28,-302.261 1046.62,-291.751 1039.02,-299.13 1045.28,-302.261"/>
</g>
<!-- Node16 -->
<g id="node16" class="node"><title>Node16</title>
<polygon fill="none" stroke="#bfbfbf" points="1083,-142.5 1083,-161.5 1127,-161.5 1127,-142.5 1083,-142.5"/>
<text text-anchor="middle" x="1105" y="-149.5" font-family="Helvetica,sans-Serif" font-size="10.00">vector</text>
</g>
<!-- Node6&#45;&gt;Node16 -->
<g id="edge16" class="edge"><title>Node6&#45;&gt;Node16</title>
<path fill="none" stroke="midnightblue" d="M1042.98,-328.443C1057.26,-320.955 1076.03,-308.661 1086,-292 1108.76,-253.979 1108.77,-199.796 1106.86,-171.625"/>
<polygon fill="midnightblue" stroke="midnightblue" points="1110.35,-171.247 1106.02,-161.573 1103.37,-171.83 1110.35,-171.247"/>
</g>
<!-- Node17 -->
<g id="node17" class="node"><title>Node17</title>
<g id="a_node17"><a xlink:href="../../dd/d76/Cartesian3D_8h.html" target="_top" xlink:title="MathUtils/Cartesian3D.h">
<polygon fill="none" stroke="black" points="675.5,-142.5 675.5,-161.5 800.5,-161.5 800.5,-142.5 675.5,-142.5"/>
<text text-anchor="middle" x="738" y="-149.5" font-family="Helvetica,sans-Serif" font-size="10.00">MathUtils/Cartesian3D.h</text>
</a>
</g>
</g>
<!-- Node6&#45;&gt;Node17 -->
<g id="edge17" class="edge"><title>Node6&#45;&gt;Node17</title>
<path fill="none" stroke="midnightblue" d="M1019.21,-328.092C1011.65,-314.646 995.853,-288.938 977,-272 916.391,-217.547 826.331,-181.767 775.842,-164.691"/>
<polygon fill="midnightblue" stroke="midnightblue" points="776.885,-161.349 766.292,-161.525 774.682,-167.994 776.885,-161.349"/>
</g>
<!-- Node27 -->
<g id="node27" class="node"><title>Node27</title>
<g id="a_node27"><a xlink:href="../../d5/d3c/TOF_2simulation_2include_2TOFSimulation_2Detector_8h.html" target="_top" xlink:title="TOFSimulation/Detector.h">
<polygon fill="none" stroke="black" points="1243.5,-272.5 1243.5,-291.5 1374.5,-291.5 1374.5,-272.5 1243.5,-272.5"/>
<text text-anchor="middle" x="1309" y="-279.5" font-family="Helvetica,sans-Serif" font-size="10.00">TOFSimulation/Detector.h</text>
</a>
</g>
</g>
<!-- Node6&#45;&gt;Node27 -->
<g id="edge29" class="edge"><title>Node6&#45;&gt;Node27</title>
<path fill="none" stroke="midnightblue" d="M1069.16,-328.444C1119.29,-318.944 1200.22,-303.611 1254.01,-293.42"/>
<polygon fill="midnightblue" stroke="midnightblue" points="1254.88,-296.817 1264.05,-291.516 1253.58,-289.939 1254.88,-296.817"/>
</g>
<!-- Node8 -->
<g id="node8" class="node"><title>Node8</title>
<g id="a_node8"><a xlink:href="../../df/d5d/common_2include_2CommonDataFormat_2TimeStamp_8h.html" target="_top" xlink:title="CommonDataFormat/TimeStamp.h">
<polygon fill="none" stroke="black" points="857,-142.5 857,-161.5 1027,-161.5 1027,-142.5 857,-142.5"/>
<text text-anchor="middle" x="942" y="-149.5" font-family="Helvetica,sans-Serif" font-size="10.00">CommonDataFormat/TimeStamp.h</text>
</a>
</g>
</g>
<!-- Node7&#45;&gt;Node8 -->
<g id="edge7" class="edge"><title>Node7&#45;&gt;Node8</title>
<path fill="none" stroke="midnightblue" d="M822.041,-210.372C845.699,-199.057 887.416,-179.105 914.885,-165.968"/>
<polygon fill="midnightblue" stroke="midnightblue" points="916.443,-169.103 923.954,-161.63 913.423,-162.788 916.443,-169.103"/>
</g>
<!-- Node9 -->
<g id="node9" class="node"><title>Node9</title>
<polygon fill="none" stroke="#bfbfbf" points="1183,-74.5 1183,-93.5 1239,-93.5 1239,-74.5 1183,-74.5"/>
<text text-anchor="middle" x="1211" y="-81.5" font-family="Helvetica,sans-Serif" font-size="10.00">Rtypes.h</text>
</g>
<!-- Node7&#45;&gt;Node9 -->
<g id="edge10" class="edge"><title>Node7&#45;&gt;Node9</title>
<path fill="none" stroke="midnightblue" d="M805.76,-210.419C809.813,-193.072 821.557,-153.961 848,-136 908.291,-95.0471 1103.34,-117.86 1174,-100 1176.99,-99.2431 1180.07,-98.2952 1183.1,-97.2457"/>
<polygon fill="midnightblue" stroke="midnightblue" points="1184.42,-100.49 1192.51,-93.6567 1181.92,-93.9496 1184.42,-100.49"/>
</g>
<!-- Node10 -->
<g id="node10" class="node"><title>Node10</title>
<polygon fill="none" stroke="#bfbfbf" points="-0.5,-74.5 -0.5,-93.5 44.5,-93.5 44.5,-74.5 -0.5,-74.5"/>
<text text-anchor="middle" x="22" y="-81.5" font-family="Helvetica,sans-Serif" font-size="10.00">iosfwd</text>
</g>
<!-- Node7&#45;&gt;Node10 -->
<g id="edge9" class="edge"><title>Node7&#45;&gt;Node10</title>
<path fill="none" stroke="midnightblue" d="M758.627,-216.246C640.264,-208.119 313.312,-179.603 54,-100 51.7235,-99.3012 49.4017,-98.4694 47.1007,-97.5612"/>
<polygon fill="midnightblue" stroke="midnightblue" points="48.4921,-94.3497 37.9282,-93.5411 45.6822,-100.761 48.4921,-94.3497"/>
</g>
<!-- Node11 -->
<g id="node11" class="node"><title>Node11</title>
<polygon fill="none" stroke="#bfbfbf" points="562.5,-137 562.5,-167 657.5,-167 657.5,-137 562.5,-137"/>
<text text-anchor="start" x="570.5" y="-155" font-family="Helvetica,sans-Serif" font-size="10.00">boost/serialization</text>
<text text-anchor="middle" x="610" y="-144" font-family="Helvetica,sans-Serif" font-size="10.00">/base_object.hpp</text>
</g>
<!-- Node7&#45;&gt;Node11 -->
<g id="edge11" class="edge"><title>Node7&#45;&gt;Node11</title>
<path fill="none" stroke="midnightblue" d="M778.638,-210.372C748.939,-200.268 698.997,-183.277 661.15,-170.402"/>
<polygon fill="midnightblue" stroke="midnightblue" points="661.911,-166.964 651.317,-167.056 659.657,-173.591 661.911,-166.964"/>
</g>
<!-- Node8&#45;&gt;Node9 -->
<g id="edge8" class="edge"><title>Node8&#45;&gt;Node9</title>
<path fill="none" stroke="midnightblue" d="M992.417,-142.458C1039.85,-133.828 1112.55,-119.059 1174,-100 1176.64,-99.1812 1179.35,-98.2535 1182.06,-97.2708"/>
<polygon fill="midnightblue" stroke="midnightblue" points="1183.57,-100.438 1191.64,-93.5665 1181.05,-93.9088 1183.57,-100.438"/>
</g>
<!-- Node17&#45;&gt;Node9 -->
<g id="edge23" class="edge"><title>Node17&#45;&gt;Node9</title>
<path fill="none" stroke="midnightblue" d="M778.242,-142.432C790.048,-140.116 803.008,-137.765 815,-136 973.646,-112.644 1018.34,-138.514 1174,-100 1177.06,-99.242 1180.21,-98.2791 1183.31,-97.2083"/>
<polygon fill="midnightblue" stroke="midnightblue" points="1184.81,-100.38 1192.9,-93.538 1182.31,-93.8423 1184.81,-100.38"/>
</g>
<!-- Node17&#45;&gt;Node10 -->
<g id="edge25" class="edge"><title>Node17&#45;&gt;Node10</title>
<path fill="none" stroke="midnightblue" d="M702.287,-142.481C690.766,-140.023 677.898,-137.581 666,-136 395.903,-100.118 318.097,-167.026 54,-100 51.5022,-99.3661 48.9627,-98.5364 46.4624,-97.5923"/>
<polygon fill="midnightblue" stroke="midnightblue" points="47.7506,-94.3359 37.1845,-93.5559 44.958,-100.755 47.7506,-94.3359"/>
</g>
<!-- Node18 -->
<g id="node18" class="node"><title>Node18</title>
<polygon fill="none" stroke="#bfbfbf" points="300.5,-69 300.5,-99 451.5,-99 451.5,-69 300.5,-69"/>
<text text-anchor="start" x="308.5" y="-87" font-family="Helvetica,sans-Serif" font-size="10.00">Math/GenVector/Displacement</text>
<text text-anchor="middle" x="376" y="-76" font-family="Helvetica,sans-Serif" font-size="10.00">Vector3D.h</text>
</g>
<!-- Node17&#45;&gt;Node18 -->
<g id="edge18" class="edge"><title>Node17&#45;&gt;Node18</title>
<path fill="none" stroke="midnightblue" d="M698.057,-142.445C687.635,-140.276 676.408,-137.997 666,-136 578.258,-119.16 553.759,-116.228 461.589,-100.098"/>
<polygon fill="midnightblue" stroke="midnightblue" points="461.998,-96.6162 451.543,-98.3345 460.787,-103.511 461.998,-96.6162"/>
</g>
<!-- Node19 -->
<g id="node19" class="node"><title>Node19</title>
<polygon fill="none" stroke="#bfbfbf" points="470,-74.5 470,-93.5 646,-93.5 646,-74.5 470,-74.5"/>
<text text-anchor="middle" x="558" y="-81.5" font-family="Helvetica,sans-Serif" font-size="10.00">Math/GenVector/PositionVector3D.h</text>
</g>
<!-- Node17&#45;&gt;Node19 -->
<g id="edge19" class="edge"><title>Node17&#45;&gt;Node19</title>
<path fill="none" stroke="midnightblue" d="M714.468,-142.372C682.849,-130.778 626.499,-110.116 590.751,-97.0087"/>
<polygon fill="midnightblue" stroke="midnightblue" points="591.846,-93.6824 581.252,-93.5259 589.436,-100.255 591.846,-93.6824"/>
</g>
<!-- Node20 -->
<g id="node20" class="node"><title>Node20</title>
<polygon fill="none" stroke="#bfbfbf" points="663.5,-74.5 663.5,-93.5 812.5,-93.5 812.5,-74.5 663.5,-74.5"/>
<text text-anchor="middle" x="738" y="-81.5" font-family="Helvetica,sans-Serif" font-size="10.00">Math/GenVector/Rotation3D.h</text>
</g>
<!-- Node17&#45;&gt;Node20 -->
<g id="edge20" class="edge"><title>Node17&#45;&gt;Node20</title>
<path fill="none" stroke="midnightblue" d="M738,-142.372C738,-132.643 738,-116.528 738,-103.85"/>
<polygon fill="midnightblue" stroke="midnightblue" points="741.5,-103.841 738,-93.8411 734.5,-103.841 741.5,-103.841"/>
</g>
<!-- Node21 -->
<g id="node21" class="node"><title>Node21</title>
<polygon fill="none" stroke="#bfbfbf" points="831,-74.5 831,-93.5 987,-93.5 987,-74.5 831,-74.5"/>
<text text-anchor="middle" x="909" y="-81.5" font-family="Helvetica,sans-Serif" font-size="10.00">Math/GenVector/Transform3D.h</text>
</g>
<!-- Node17&#45;&gt;Node21 -->
<g id="edge21" class="edge"><title>Node17&#45;&gt;Node21</title>
<path fill="none" stroke="midnightblue" d="M760.355,-142.372C790.265,-130.827 843.469,-110.293 877.45,-97.1772"/>
<polygon fill="midnightblue" stroke="midnightblue" points="878.841,-100.392 886.91,-93.5259 876.321,-93.8615 878.841,-100.392"/>
</g>
<!-- Node22 -->
<g id="node22" class="node"><title>Node22</title>
<polygon fill="none" stroke="#bfbfbf" points="1005,-74.5 1005,-93.5 1165,-93.5 1165,-74.5 1005,-74.5"/>
<text text-anchor="middle" x="1085" y="-81.5" font-family="Helvetica,sans-Serif" font-size="10.00">Math/GenVector/Translation3D.h</text>
</g>
<!-- Node17&#45;&gt;Node22 -->
<g id="edge22" class="edge"><title>Node17&#45;&gt;Node22</title>
<path fill="none" stroke="midnightblue" d="M781.564,-142.469C792.479,-140.343 804.166,-138.078 815,-136 888.942,-121.815 974.336,-105.736 1028.96,-95.4896"/>
<polygon fill="midnightblue" stroke="midnightblue" points="1029.94,-98.8664 1039.12,-93.5833 1028.65,-91.9863 1029.94,-98.8664"/>
</g>
<!-- Node23 -->
<g id="node23" class="node"><title>Node23</title>
<polygon fill="none" stroke="#bfbfbf" points="63,-74.5 63,-93.5 139,-93.5 139,-74.5 63,-74.5"/>
<text text-anchor="middle" x="101" y="-81.5" font-family="Helvetica,sans-Serif" font-size="10.00">TGeoMatrix.h</text>
</g>
<!-- Node17&#45;&gt;Node23 -->
<g id="edge24" class="edge"><title>Node17&#45;&gt;Node23</title>
<path fill="none" stroke="midnightblue" d="M701.909,-142.478C690.481,-140.051 677.763,-137.626 666,-136 437.397,-104.393 374.661,-143.394 148,-100 143.428,-99.1248 138.68,-97.9452 134.035,-96.6299"/>
<polygon fill="midnightblue" stroke="midnightblue" points="134.73,-93.1822 124.143,-93.5993 132.679,-99.8751 134.73,-93.1822"/>
</g>
<!-- Node24 -->
<g id="node24" class="node"><title>Node24</title>
<g id="a_node24"><a xlink:href="../../d2/dd0/Cartesian2D_8h.html" target="_top" xlink:title="MathUtils/Cartesian2D.h">
<polygon fill="none" stroke="black" points="157.5,-74.5 157.5,-93.5 282.5,-93.5 282.5,-74.5 157.5,-74.5"/>
<text text-anchor="middle" x="220" y="-81.5" font-family="Helvetica,sans-Serif" font-size="10.00">MathUtils/Cartesian2D.h</text>
</a>
</g>
</g>
<!-- Node17&#45;&gt;Node24 -->
<g id="edge26" class="edge"><title>Node17&#45;&gt;Node24</title>
<path fill="none" stroke="midnightblue" d="M700.771,-142.432C689.633,-140.089 677.362,-137.724 666,-136 500.461,-110.888 456.504,-125.345 291,-100 283.119,-98.7932 274.796,-97.2664 266.731,-95.6517"/>
<polygon fill="midnightblue" stroke="midnightblue" points="267.208,-92.1762 256.706,-93.5767 265.789,-99.031 267.208,-92.1762"/>
</g>
<!-- Node25 -->
<g id="node25" class="node"><title>Node25</title>
<polygon fill="none" stroke="#bfbfbf" points="53.5,-1 53.5,-31 204.5,-31 204.5,-1 53.5,-1"/>
<text text-anchor="start" x="61.5" y="-19" font-family="Helvetica,sans-Serif" font-size="10.00">Math/GenVector/Displacement</text>
<text text-anchor="middle" x="129" y="-8" font-family="Helvetica,sans-Serif" font-size="10.00">Vector2D.h</text>
</g>
<!-- Node24&#45;&gt;Node25 -->
<g id="edge27" class="edge"><title>Node24&#45;&gt;Node25</title>
<path fill="none" stroke="midnightblue" d="M208.103,-74.3717C195.221,-65.0286 174.22,-49.7966 157.093,-37.375"/>
<polygon fill="midnightblue" stroke="midnightblue" points="158.703,-34.2194 148.553,-31.1815 154.593,-39.8859 158.703,-34.2194"/>
</g>
<!-- Node26 -->
<g id="node26" class="node"><title>Node26</title>
<polygon fill="none" stroke="#bfbfbf" points="223,-6.5 223,-25.5 399,-25.5 399,-6.5 223,-6.5"/>
<text text-anchor="middle" x="311" y="-13.5" font-family="Helvetica,sans-Serif" font-size="10.00">Math/GenVector/PositionVector2D.h</text>
</g>
<!-- Node24&#45;&gt;Node26 -->
<g id="edge28" class="edge"><title>Node24&#45;&gt;Node26</title>
<path fill="none" stroke="midnightblue" d="M231.897,-74.3717C246.884,-63.5015 272.862,-44.6602 290.942,-31.5474"/>
<polygon fill="midnightblue" stroke="midnightblue" points="293.06,-34.3349 299.1,-25.6305 288.95,-28.6684 293.06,-34.3349"/>
</g>
<!-- Node28 -->
<g id="node28" class="node"><title>Node28</title>
<g id="a_node28"><a xlink:href="../../d1/d3a/Base_2include_2DetectorsBase_2Detector_8h.html" target="_top" xlink:title="DetectorsBase/Detector.h">
<polygon fill="none" stroke="black" points="1705.5,-210.5 1705.5,-229.5 1836.5,-229.5 1836.5,-210.5 1705.5,-210.5"/>
<text text-anchor="middle" x="1771" y="-217.5" font-family="Helvetica,sans-Serif" font-size="10.00">DetectorsBase/Detector.h</text>
</a>
</g>
</g>
<!-- Node27&#45;&gt;Node28 -->
<g id="edge30" class="edge"><title>Node27&#45;&gt;Node28</title>
<path fill="none" stroke="midnightblue" d="M1374.7,-272.467C1459.38,-261.47 1606.28,-242.392 1695.48,-230.808"/>
<polygon fill="midnightblue" stroke="midnightblue" points="1696.06,-234.262 1705.52,-229.503 1695.16,-227.321 1696.06,-234.262"/>
</g>
<!-- Node45 -->
<g id="node45" class="node"><title>Node45</title>
<g id="a_node45"><a xlink:href="../../d0/d91/ShmAllocator_8h.html" target="_top" xlink:title="CommonUtils/ShmAllocator.h">
<polygon fill="none" stroke="black" points="2362,-142.5 2362,-161.5 2508,-161.5 2508,-142.5 2362,-142.5"/>
<text text-anchor="middle" x="2435" y="-149.5" font-family="Helvetica,sans-Serif" font-size="10.00">CommonUtils/ShmAllocator.h</text>
</a>
</g>
</g>
<!-- Node27&#45;&gt;Node45 -->
<g id="edge63" class="edge"><title>Node27&#45;&gt;Node45</title>
<path fill="none" stroke="midnightblue" d="M1374.71,-276.674C1475.9,-269.743 1675.87,-254.981 1845,-236 2037.19,-214.431 2263.36,-180.095 2371.36,-163.146"/>
<polygon fill="midnightblue" stroke="midnightblue" points="2372.1,-166.572 2381.44,-161.561 2371.01,-159.657 2372.1,-166.572"/>
</g>
<!-- Node49 -->
<g id="node49" class="node"><title>Node49</title>
<g id="a_node49"><a xlink:href="../../d4/d54/Geo_8h.html" target="_top" xlink:title="TOFBase/Geo.h">
<polygon fill="none" stroke="black" points="1265,-210.5 1265,-229.5 1353,-229.5 1353,-210.5 1265,-210.5"/>
<text text-anchor="middle" x="1309" y="-217.5" font-family="Helvetica,sans-Serif" font-size="10.00">TOFBase/Geo.h</text>
</a>
</g>
</g>
<!-- Node27&#45;&gt;Node49 -->
<g id="edge59" class="edge"><title>Node27&#45;&gt;Node49</title>
<path fill="none" stroke="midnightblue" d="M1309,-272.403C1309,-263.938 1309,-250.728 1309,-239.82"/>
<polygon fill="midnightblue" stroke="midnightblue" points="1312.5,-239.581 1309,-229.581 1305.5,-239.581 1312.5,-239.581"/>
</g>
<!-- Node50 -->
<g id="node50" class="node"><title>Node50</title>
<g id="a_node50"><a xlink:href="../../d4/d25/BaseHits_8h.html" target="_top" xlink:title="SimulationDataFormat\l/BaseHits.h">
<polygon fill="none" stroke="black" points="1133,-205 1133,-235 1247,-235 1247,-205 1133,-205"/>
<text text-anchor="start" x="1141" y="-223" font-family="Helvetica,sans-Serif" font-size="10.00">SimulationDataFormat</text>
<text text-anchor="middle" x="1190" y="-212" font-family="Helvetica,sans-Serif" font-size="10.00">/BaseHits.h</text>
</a>
</g>
</g>
<!-- Node27&#45;&gt;Node50 -->
<g id="edge61" class="edge"><title>Node27&#45;&gt;Node50</title>
<path fill="none" stroke="midnightblue" d="M1291.95,-272.403C1275.08,-263.898 1248.71,-250.602 1227.02,-239.663"/>
<polygon fill="midnightblue" stroke="midnightblue" points="1228.55,-236.518 1218.05,-235.141 1225.4,-242.768 1228.55,-236.518"/>
</g>
<!-- Node28&#45;&gt;Node9 -->
<g id="edge42" class="edge"><title>Node28&#45;&gt;Node9</title>
<path fill="none" stroke="midnightblue" d="M1705.45,-218.277C1558.01,-215.969 1210.31,-206.465 1175,-168 1157.22,-148.635 1178.08,-119.115 1194.65,-100.995"/>
<polygon fill="midnightblue" stroke="midnightblue" points="1197.4,-103.183 1201.81,-93.5488 1192.35,-98.3318 1197.4,-103.183"/>
</g>
<!-- Node28&#45;&gt;Node14 -->
<g id="edge31" class="edge"><title>Node28&#45;&gt;Node14</title>
<path fill="none" stroke="midnightblue" d="M1771,-210.208C1771,-188.722 1771,-133.167 1771,-103.814"/>
<polygon fill="midnightblue" stroke="midnightblue" points="1774.5,-103.65 1771,-93.6503 1767.5,-103.65 1774.5,-103.65"/>
</g>
<!-- Node28&#45;&gt;Node16 -->
<g id="edge32" class="edge"><title>Node28&#45;&gt;Node16</title>
<path fill="none" stroke="midnightblue" d="M1705.42,-216.296C1566.52,-210.145 1246.71,-193.621 1141,-168 1138,-167.274 1134.93,-166.331 1131.91,-165.273"/>
<polygon fill="midnightblue" stroke="midnightblue" points="1133.16,-162.002 1122.57,-161.617 1130.61,-168.521 1133.16,-162.002"/>
</g>
<!-- Node29 -->
<g id="node29" class="node"><title>Node29</title>
<polygon fill="none" stroke="#bfbfbf" points="1602.5,-74.5 1602.5,-93.5 1675.5,-93.5 1675.5,-74.5 1602.5,-74.5"/>
<text text-anchor="middle" x="1639" y="-81.5" font-family="Helvetica,sans-Serif" font-size="10.00">initializer_list</text>
</g>
<!-- Node28&#45;&gt;Node29 -->
<g id="edge33" class="edge"><title>Node28&#45;&gt;Node29</title>
<path fill="none" stroke="midnightblue" d="M1766.43,-210.492C1757.6,-194.582 1736.94,-159.789 1713,-136 1698.24,-121.338 1678.78,-108.115 1663.53,-98.8086"/>
<polygon fill="midnightblue" stroke="midnightblue" points="1665.03,-95.6334 1654.65,-93.5426 1661.46,-101.654 1665.03,-95.6334"/>
</g>
<!-- Node30 -->
<g id="node30" class="node"><title>Node30</title>
<polygon fill="none" stroke="#bfbfbf" points="2178,-142.5 2178,-161.5 2230,-161.5 2230,-142.5 2178,-142.5"/>
<text text-anchor="middle" x="2204" y="-149.5" font-family="Helvetica,sans-Serif" font-size="10.00">memory</text>
</g>
<!-- Node28&#45;&gt;Node30 -->
<g id="edge34" class="edge"><title>Node28&#45;&gt;Node30</title>
<path fill="none" stroke="midnightblue" d="M1836.67,-215.932C1916.25,-210.993 2053.88,-198.516 2168,-168 2170.82,-167.246 2173.71,-166.32 2176.57,-165.302"/>
<polygon fill="midnightblue" stroke="midnightblue" points="2177.98,-168.508 2186.02,-161.6 2175.43,-161.991 2177.98,-168.508"/>
</g>
<!-- Node31 -->
<g id="node31" class="node"><title>Node31</title>
<polygon fill="none" stroke="#bfbfbf" points="1183.5,-142.5 1183.5,-161.5 1262.5,-161.5 1262.5,-142.5 1183.5,-142.5"/>
<text text-anchor="middle" x="1223" y="-149.5" font-family="Helvetica,sans-Serif" font-size="10.00">FairDetector.h</text>
</g>
<!-- Node28&#45;&gt;Node31 -->
<g id="edge35" class="edge"><title>Node28&#45;&gt;Node31</title>
<path fill="none" stroke="midnightblue" d="M1705.4,-216.376C1609.41,-211.619 1425.43,-199.015 1272,-168 1267.18,-167.027 1262.17,-165.775 1257.26,-164.411"/>
<polygon fill="midnightblue" stroke="midnightblue" points="1258.02,-160.986 1247.43,-161.506 1256.03,-167.698 1258.02,-160.986"/>
</g>
<!-- Node32 -->
<g id="node32" class="node"><title>Node32</title>
<polygon fill="none" stroke="#bfbfbf" points="1281,-142.5 1281,-161.5 1381,-161.5 1381,-142.5 1281,-142.5"/>
<text text-anchor="middle" x="1331" y="-149.5" font-family="Helvetica,sans-Serif" font-size="10.00">FairRootManager.h</text>
</g>
<!-- Node28&#45;&gt;Node32 -->
<g id="edge36" class="edge"><title>Node28&#45;&gt;Node32</title>
<path fill="none" stroke="midnightblue" d="M1705.42,-212.447C1629.39,-204.331 1500.5,-188.969 1391,-168 1384.84,-166.821 1378.37,-165.399 1372.05,-163.906"/>
<polygon fill="midnightblue" stroke="midnightblue" points="1372.85,-160.499 1362.3,-161.527 1371.19,-167.299 1372.85,-160.499"/>
</g>
<!-- Node33 -->
<g id="node33" class="node"><title>Node33</title>
<g id="a_node33"><a xlink:href="../../d0/d9a/MaterialManager_8h.html" target="_top" xlink:title="DetectorsBase/MaterialManager.h">
<polygon fill="none" stroke="black" points="1399.5,-142.5 1399.5,-161.5 1564.5,-161.5 1564.5,-142.5 1399.5,-142.5"/>
<text text-anchor="middle" x="1482" y="-149.5" font-family="Helvetica,sans-Serif" font-size="10.00">DetectorsBase/MaterialManager.h</text>
</a>
</g>
</g>
<!-- Node28&#45;&gt;Node33 -->
<g id="edge37" class="edge"><title>Node28&#45;&gt;Node33</title>
<path fill="none" stroke="midnightblue" d="M1733.51,-210.439C1681.21,-198.495 1586.36,-176.834 1529.28,-163.797"/>
<polygon fill="midnightblue" stroke="midnightblue" points="1529.95,-160.36 1519.42,-161.546 1528.39,-167.184 1529.95,-160.36"/>
</g>
<!-- Node35 -->
<g id="node35" class="node"><title>Node35</title>
<polygon fill="none" stroke="#bfbfbf" points="1582.5,-142.5 1582.5,-161.5 1635.5,-161.5 1635.5,-142.5 1582.5,-142.5"/>
<text text-anchor="middle" x="1609" y="-149.5" font-family="Helvetica,sans-Serif" font-size="10.00">cxxabi.h</text>
</g>
<!-- Node28&#45;&gt;Node35 -->
<g id="edge43" class="edge"><title>Node28&#45;&gt;Node35</title>
<path fill="none" stroke="midnightblue" d="M1749.57,-210.403C1724.48,-200.319 1681.67,-183.062 1645,-168 1643.12,-167.228 1641.19,-166.431 1639.24,-165.626"/>
<polygon fill="midnightblue" stroke="midnightblue" points="1640.12,-162.203 1629.55,-161.603 1637.44,-168.669 1640.12,-162.203"/>
</g>
<!-- Node36 -->
<g id="node36" class="node"><title>Node36</title>
<polygon fill="none" stroke="#bfbfbf" points="1653.5,-142.5 1653.5,-161.5 1704.5,-161.5 1704.5,-142.5 1653.5,-142.5"/>
<text text-anchor="middle" x="1679" y="-149.5" font-family="Helvetica,sans-Serif" font-size="10.00">typeinfo</text>
</g>
<!-- Node28&#45;&gt;Node36 -->
<g id="edge44" class="edge"><title>Node28&#45;&gt;Node36</title>
<path fill="none" stroke="midnightblue" d="M1758.97,-210.372C1743.82,-199.502 1717.56,-180.66 1699.28,-167.547"/>
<polygon fill="midnightblue" stroke="midnightblue" points="1701.2,-164.616 1691.03,-161.63 1697.12,-170.303 1701.2,-164.616"/>
</g>
<!-- Node37 -->
<g id="node37" class="node"><title>Node37</title>
<polygon fill="none" stroke="#bfbfbf" points="1799,-142.5 1799,-161.5 1861,-161.5 1861,-142.5 1799,-142.5"/>
<text text-anchor="middle" x="1830" y="-149.5" font-family="Helvetica,sans-Serif" font-size="10.00">type_traits</text>
</g>
<!-- Node28&#45;&gt;Node37 -->
<g id="edge45" class="edge"><title>Node28&#45;&gt;Node37</title>
<path fill="none" stroke="midnightblue" d="M1778.71,-210.372C1787.94,-200.053 1803.58,-182.551 1815.17,-169.585"/>
<polygon fill="midnightblue" stroke="midnightblue" points="1818.04,-171.629 1822.1,-161.841 1812.82,-166.964 1818.04,-171.629"/>
</g>
<!-- Node38 -->
<g id="node38" class="node"><title>Node38</title>
<polygon fill="none" stroke="#bfbfbf" points="1879.5,-142.5 1879.5,-161.5 1920.5,-161.5 1920.5,-142.5 1879.5,-142.5"/>
<text text-anchor="middle" x="1900" y="-149.5" font-family="Helvetica,sans-Serif" font-size="10.00">string</text>
</g>
<!-- Node28&#45;&gt;Node38 -->
<g id="edge46" class="edge"><title>Node28&#45;&gt;Node38</title>
<path fill="none" stroke="midnightblue" d="M1787.86,-210.372C1809.79,-199.156 1848.3,-179.453 1873.98,-166.314"/>
<polygon fill="midnightblue" stroke="midnightblue" points="1875.82,-169.301 1883.13,-161.63 1872.63,-163.069 1875.82,-169.301"/>
</g>
<!-- Node39 -->
<g id="node39" class="node"><title>Node39</title>
<polygon fill="none" stroke="#bfbfbf" points="1938.5,-142.5 1938.5,-161.5 2009.5,-161.5 2009.5,-142.5 1938.5,-142.5"/>
<text text-anchor="middle" x="1974" y="-149.5" font-family="Helvetica,sans-Serif" font-size="10.00">TMessage.h</text>
</g>
<!-- Node28&#45;&gt;Node39 -->
<g id="edge47" class="edge"><title>Node28&#45;&gt;Node39</title>
<path fill="none" stroke="midnightblue" d="M1797.86,-210.415C1829.32,-200.341 1882.99,-183.094 1929,-168 1932.13,-166.973 1935.38,-165.901 1938.64,-164.823"/>
<polygon fill="midnightblue" stroke="midnightblue" points="1939.93,-168.083 1948.31,-161.609 1937.72,-161.44 1939.93,-168.083"/>
</g>
<!-- Node40 -->
<g id="node40" class="node"><title>Node40</title>
<g id="a_node40"><a xlink:href="../../de/d61/ShmManager_8h.html" target="_top" xlink:title="CommonUtils/ShmManager.h">
<polygon fill="none" stroke="black" points="2346,-74.5 2346,-93.5 2492,-93.5 2492,-74.5 2346,-74.5"/>
<text text-anchor="middle" x="2419" y="-81.5" font-family="Helvetica,sans-Serif" font-size="10.00">CommonUtils/ShmManager.h</text>
</a>
</g>
</g>
<!-- Node28&#45;&gt;Node40 -->
<g id="edge48" class="edge"><title>Node28&#45;&gt;Node40</title>
<path fill="none" stroke="midnightblue" d="M1836.82,-215.354C1952.13,-208.443 2185.84,-191.951 2264,-168 2315.62,-152.182 2369.89,-118.606 2398.52,-99.3573"/>
<polygon fill="midnightblue" stroke="midnightblue" points="2400.59,-102.181 2406.87,-93.652 2396.64,-96.4 2400.59,-102.181"/>
</g>
<!-- Node28&#45;&gt;Node45 -->
<g id="edge53" class="edge"><title>Node28&#45;&gt;Node45</title>
<path fill="none" stroke="midnightblue" d="M1836.6,-213.327C1938.13,-204.427 2139.44,-186.3 2310,-168 2325.06,-166.384 2341.13,-164.543 2356.56,-162.718"/>
<polygon fill="midnightblue" stroke="midnightblue" points="2357.08,-166.182 2366.59,-161.523 2356.25,-159.231 2357.08,-166.182"/>
</g>
<!-- Node46 -->
<g id="node46" class="node"><title>Node46</title>
<polygon fill="none" stroke="#bfbfbf" points="2248.5,-74.5 2248.5,-93.5 2297.5,-93.5 2297.5,-74.5 2248.5,-74.5"/>
<text text-anchor="middle" x="2273" y="-81.5" font-family="Helvetica,sans-Serif" font-size="10.00">cassert</text>
</g>
<!-- Node28&#45;&gt;Node46 -->
<g id="edge58" class="edge"><title>Node28&#45;&gt;Node46</title>
<path fill="none" stroke="midnightblue" d="M1836.83,-215.536C1958.14,-208.616 2207.53,-191.686 2239,-168 2259.38,-152.656 2267.6,-122.954 2270.88,-103.558"/>
<polygon fill="midnightblue" stroke="midnightblue" points="2274.36,-103.906 2272.29,-93.5158 2267.43,-102.931 2274.36,-103.906"/>
</g>
<!-- Node47 -->
<g id="node47" class="node"><title>Node47</title>
<polygon fill="none" stroke="#bfbfbf" points="2028,-142.5 2028,-161.5 2090,-161.5 2090,-142.5 2028,-142.5"/>
<text text-anchor="middle" x="2059" y="-149.5" font-family="Helvetica,sans-Serif" font-size="10.00">sys/shm.h</text>
</g>
<!-- Node28&#45;&gt;Node47 -->
<g id="edge56" class="edge"><title>Node28&#45;&gt;Node47</title>
<path fill="none" stroke="midnightblue" d="M1823.58,-210.457C1873.96,-201.731 1951.88,-186.811 2018,-168 2021.21,-167.087 2024.52,-166.045 2027.82,-164.945"/>
<polygon fill="midnightblue" stroke="midnightblue" points="2029.22,-168.162 2037.49,-161.543 2026.9,-161.559 2029.22,-168.162"/>
</g>
<!-- Node48 -->
<g id="node48" class="node"><title>Node48</title>
<polygon fill="none" stroke="#bfbfbf" points="2108.5,-142.5 2108.5,-161.5 2159.5,-161.5 2159.5,-142.5 2108.5,-142.5"/>
<text text-anchor="middle" x="2134" y="-149.5" font-family="Helvetica,sans-Serif" font-size="10.00">unistd.h</text>
</g>
<!-- Node28&#45;&gt;Node48 -->
<g id="edge57" class="edge"><title>Node28&#45;&gt;Node48</title>
<path fill="none" stroke="midnightblue" d="M1836.51,-213.449C1903.24,-206.714 2009.24,-193.02 2098,-168 2100.66,-167.251 2103.38,-166.36 2106.08,-165.391"/>
<polygon fill="midnightblue" stroke="midnightblue" points="2107.58,-168.563 2115.62,-161.656 2105.03,-162.045 2107.58,-168.563"/>
</g>
<!-- Node33&#45;&gt;Node9 -->
<g id="edge38" class="edge"><title>Node33&#45;&gt;Node9</title>
<path fill="none" stroke="midnightblue" d="M1446.85,-142.439C1395.83,-130.014 1301.62,-107.071 1249.03,-94.2625"/>
<polygon fill="midnightblue" stroke="midnightblue" points="1249.64,-90.8078 1239.09,-91.8421 1247.98,-97.609 1249.64,-90.8078"/>
</g>
<!-- Node33&#45;&gt;Node14 -->
<g id="edge39" class="edge"><title>Node33&#45;&gt;Node14</title>
<path fill="none" stroke="midnightblue" d="M1519.49,-142.439C1578.35,-128.995 1691.13,-103.24 1743.29,-91.329"/>
<polygon fill="midnightblue" stroke="midnightblue" points="1744.2,-94.7116 1753.17,-89.073 1742.64,-87.8873 1744.2,-94.7116"/>
</g>
<!-- Node33&#45;&gt;Node29 -->
<g id="edge41" class="edge"><title>Node33&#45;&gt;Node29</title>
<path fill="none" stroke="midnightblue" d="M1502.53,-142.372C1529.68,-130.958 1577.73,-110.756 1608.97,-97.6252"/>
<polygon fill="midnightblue" stroke="midnightblue" points="1610.61,-100.732 1618.47,-93.6305 1607.9,-94.2793 1610.61,-100.732"/>
</g>
<!-- Node34 -->
<g id="node34" class="node"><title>Node34</title>
<polygon fill="none" stroke="#bfbfbf" points="1440.5,-74.5 1440.5,-93.5 1523.5,-93.5 1523.5,-74.5 1440.5,-74.5"/>
<text text-anchor="middle" x="1482" y="-81.5" font-family="Helvetica,sans-Serif" font-size="10.00">unordered_map</text>
</g>
<!-- Node33&#45;&gt;Node34 -->
<g id="edge40" class="edge"><title>Node33&#45;&gt;Node34</title>
<path fill="none" stroke="midnightblue" d="M1482,-142.372C1482,-132.643 1482,-116.528 1482,-103.85"/>
<polygon fill="midnightblue" stroke="midnightblue" points="1485.5,-103.841 1482,-93.8411 1478.5,-103.841 1485.5,-103.841"/>
</g>
<!-- Node41 -->
<g id="node41" class="node"><title>Node41</title>
<polygon fill="none" stroke="#bfbfbf" points="2288.5,-6.5 2288.5,-25.5 2317.5,-25.5 2317.5,-6.5 2288.5,-6.5"/>
<text text-anchor="middle" x="2303" y="-13.5" font-family="Helvetica,sans-Serif" font-size="10.00">list</text>
</g>
<!-- Node40&#45;&gt;Node41 -->
<g id="edge49" class="edge"><title>Node40&#45;&gt;Node41</title>
<path fill="none" stroke="midnightblue" d="M2402.9,-74.4068C2384.42,-64.4669 2353.28,-47.4805 2327,-32 2326.47,-31.6882 2325.94,-31.3712 2325.4,-31.05"/>
<polygon fill="midnightblue" stroke="midnightblue" points="2326.99,-27.9207 2316.63,-25.6918 2323.34,-33.8934 2326.99,-27.9207"/>
</g>
<!-- Node42 -->
<g id="node42" class="node"><title>Node42</title>
<polygon fill="none" stroke="#bfbfbf" points="2335.5,-6.5 2335.5,-25.5 2384.5,-25.5 2384.5,-6.5 2335.5,-6.5"/>
<text text-anchor="middle" x="2360" y="-13.5" font-family="Helvetica,sans-Serif" font-size="10.00">cstddef</text>
</g>
<!-- Node40&#45;&gt;Node42 -->
<g id="edge50" class="edge"><title>Node40&#45;&gt;Node42</title>
<path fill="none" stroke="midnightblue" d="M2411.29,-74.3717C2402.06,-64.053 2386.42,-46.5513 2374.83,-33.5854"/>
<polygon fill="midnightblue" stroke="midnightblue" points="2377.18,-30.9639 2367.9,-25.8411 2371.96,-35.6291 2377.18,-30.9639"/>
</g>
<!-- Node43 -->
<g id="node43" class="node"><title>Node43</title>
<polygon fill="none" stroke="#bfbfbf" points="2403,-1 2403,-31 2551,-31 2551,-1 2403,-1"/>
<text text-anchor="start" x="2411" y="-19" font-family="Helvetica,sans-Serif" font-size="10.00">boost/interprocess</text>
<text text-anchor="middle" x="2477" y="-8" font-family="Helvetica,sans-Serif" font-size="10.00">/managed_external_buffer.hpp</text>
</g>
<!-- Node40&#45;&gt;Node43 -->
<g id="edge51" class="edge"><title>Node40&#45;&gt;Node43</title>
<path fill="none" stroke="midnightblue" d="M2426.58,-74.3717C2434.49,-65.3715 2447.2,-50.9067 2457.88,-38.7534"/>
<polygon fill="midnightblue" stroke="midnightblue" points="2460.57,-41.0035 2464.54,-31.1815 2455.31,-36.3827 2460.57,-41.0035"/>
</g>
<!-- Node44 -->
<g id="node44" class="node"><title>Node44</title>
<polygon fill="none" stroke="#bfbfbf" points="2569,-1 2569,-31 2689,-31 2689,-1 2569,-1"/>
<text text-anchor="start" x="2577" y="-19" font-family="Helvetica,sans-Serif" font-size="10.00">boost/interprocess</text>
<text text-anchor="middle" x="2629" y="-8" font-family="Helvetica,sans-Serif" font-size="10.00">/allocators/allocator.hpp</text>
</g>
<!-- Node40&#45;&gt;Node44 -->
<g id="edge52" class="edge"><title>Node40&#45;&gt;Node44</title>
<path fill="none" stroke="midnightblue" d="M2446.45,-74.3717C2478.88,-64.182 2533.58,-46.9877 2574.67,-34.0738"/>
<polygon fill="midnightblue" stroke="midnightblue" points="2575.79,-37.3935 2584.28,-31.0562 2573.69,-30.7156 2575.79,-37.3935"/>
</g>
<!-- Node45&#45;&gt;Node40 -->
<g id="edge54" class="edge"><title>Node45&#45;&gt;Node40</title>
<path fill="none" stroke="midnightblue" d="M2432.91,-142.372C2430.55,-132.643 2426.64,-116.528 2423.57,-103.85"/>
<polygon fill="midnightblue" stroke="midnightblue" points="2426.9,-102.735 2421.14,-93.8411 2420.1,-104.384 2426.9,-102.735"/>
</g>
<!-- Node45&#45;&gt;Node46 -->
<g id="edge55" class="edge"><title>Node45&#45;&gt;Node46</title>
<path fill="none" stroke="midnightblue" d="M2413.82,-142.372C2385.61,-130.877 2335.51,-110.469 2303.3,-97.3465"/>
<polygon fill="midnightblue" stroke="midnightblue" points="2304.51,-94.0576 2293.93,-93.5259 2301.87,-100.54 2304.51,-94.0576"/>
</g>
<!-- Node49&#45;&gt;Node9 -->
<g id="edge60" class="edge"><title>Node49&#45;&gt;Node9</title>
<path fill="none" stroke="midnightblue" d="M1280.5,-210.48C1272.6,-208.242 1264,-205.919 1256,-204 1175.82,-184.757 1126.34,-231.711 1074,-168 1064.97,-157.011 1065.82,-147.636 1074,-136 1101.16,-97.3535 1129.88,-116.877 1174,-100 1176.24,-99.1433 1178.55,-98.2442 1180.87,-97.3299"/>
<polygon fill="midnightblue" stroke="midnightblue" points="1182.33,-100.516 1190.31,-93.5545 1179.73,-94.0166 1182.33,-100.516"/>
</g>
<!-- Node50&#45;&gt;Node17 -->
<g id="edge62" class="edge"><title>Node50&#45;&gt;Node17</title>
<path fill="none" stroke="midnightblue" d="M1132.75,-210.641C1049.61,-198.5 895.662,-176.021 806.572,-163.013"/>
<polygon fill="midnightblue" stroke="midnightblue" points="806.969,-159.534 796.568,-161.552 805.957,-166.46 806.969,-159.534"/>
</g>
</g>
</svg>
