<?xml version="1.0" encoding="UTF-8" standalone="no"?>
<!DOCTYPE svg PUBLIC "-//W3C//DTD SVG 1.1//EN"
 "http://www.w3.org/Graphics/SVG/1.1/DTD/svg11.dtd">
<!-- Generated by graphviz version 2.36.0 (20140111.2315)
 -->
<!-- Title: /home/travis/build/AliceO2Group/AliceO2/Framework/Core/include/Framework/CallbackRegistry.h Pages: 1 -->
<svg width="446pt" height="186pt"
 viewBox="0.00 0.00 446.00 186.00" xmlns="http://www.w3.org/2000/svg" xmlns:xlink="http://www.w3.org/1999/xlink">
<g id="graph0" class="graph" transform="scale(1 1) rotate(0) translate(4 182)">
<title>/home/travis/build/AliceO2Group/AliceO2/Framework/Core/include/Framework/CallbackRegistry.h</title>
<!-- Node1 -->
<g id="node1" class="node"><title>Node1</title>
<polygon fill="#bfbfbf" stroke="black" points="222.5,-125 222.5,-177 377.5,-177 377.5,-125 222.5,-125"/>
<text text-anchor="start" x="230.5" y="-165" font-family="Helvetica,sans-Serif" font-size="10.00">/home/travis/build</text>
<text text-anchor="start" x="230.5" y="-154" font-family="Helvetica,sans-Serif" font-size="10.00">/AliceO2Group/AliceO2</text>
<text text-anchor="start" x="230.5" y="-143" font-family="Helvetica,sans-Serif" font-size="10.00">/Framework/Core/include</text>
<text text-anchor="middle" x="300" y="-132" font-family="Helvetica,sans-Serif" font-size="10.00">/Framework/CallbackRegistry.h</text>
</g>
<!-- Node2 -->
<g id="node2" class="node"><title>Node2</title>
<g id="a_node2"><a xlink:href="../../d0/d95/TypeTraits_8h.html" target="_top" xlink:title="Framework/TypeTraits.h">
<polygon fill="none" stroke="black" points="106.5,-68.5 106.5,-87.5 229.5,-87.5 229.5,-68.5 106.5,-68.5"/>
<text text-anchor="middle" x="168" y="-75.5" font-family="Helvetica,sans-Serif" font-size="10.00">Framework/TypeTraits.h</text>
</a>
</g>
</g>
<!-- Node1&#45;&gt;Node2 -->
<g id="edge1" class="edge"><title>Node1&#45;&gt;Node2</title>
<path fill="none" stroke="midnightblue" d="M253.462,-124.968C233.234,-114.088 210.328,-101.767 193.325,-92.6218"/>
<polygon fill="midnightblue" stroke="midnightblue" points="194.526,-89.2936 184.061,-87.6389 191.21,-95.4584 194.526,-89.2936"/>
</g>
<!-- Node8 -->
<g id="node8" class="node"><title>Node8</title>
<polygon fill="none" stroke="#bfbfbf" points="248,-68.5 248,-87.5 286,-87.5 286,-68.5 248,-68.5"/>
<text text-anchor="middle" x="267" y="-75.5" font-family="Helvetica,sans-Serif" font-size="10.00">tuple</text>
</g>
<!-- Node1&#45;&gt;Node8 -->
<g id="edge7" class="edge"><title>Node1&#45;&gt;Node8</title>
<path fill="none" stroke="midnightblue" d="M288.273,-124.768C284.005,-115.587 279.272,-105.403 275.356,-96.9775"/>
<polygon fill="midnightblue" stroke="midnightblue" points="278.459,-95.3503 271.07,-87.7572 272.111,-98.3007 278.459,-95.3503"/>
</g>
<!-- Node9 -->
<g id="node9" class="node"><title>Node9</title>
<polygon fill="none" stroke="#bfbfbf" points="304.5,-68.5 304.5,-87.5 363.5,-87.5 363.5,-68.5 304.5,-68.5"/>
<text text-anchor="middle" x="334" y="-75.5" font-family="Helvetica,sans-Serif" font-size="10.00">stdexcept</text>
</g>
<!-- Node1&#45;&gt;Node9 -->
<g id="edge8" class="edge"><title>Node1&#45;&gt;Node9</title>
<path fill="none" stroke="midnightblue" d="M312.083,-124.768C316.479,-115.587 321.356,-105.403 325.391,-96.9775"/>
<polygon fill="midnightblue" stroke="midnightblue" points="328.644,-98.288 329.806,-87.7572 322.331,-95.2647 328.644,-98.288"/>
</g>
<!-- Node10 -->
<g id="node10" class="node"><title>Node10</title>
<polygon fill="none" stroke="#bfbfbf" points="382,-68.5 382,-87.5 422,-87.5 422,-68.5 382,-68.5"/>
<text text-anchor="middle" x="402" y="-75.5" font-family="Helvetica,sans-Serif" font-size="10.00">utility</text>
</g>
<!-- Node1&#45;&gt;Node10 -->
<g id="edge9" class="edge"><title>Node1&#45;&gt;Node10</title>
<path fill="none" stroke="midnightblue" d="M335.961,-124.968C351.06,-114.458 368.091,-102.603 381.075,-93.5655"/>
<polygon fill="midnightblue" stroke="midnightblue" points="383.136,-96.3952 389.344,-87.8095 379.137,-90.65 383.136,-96.3952"/>
</g>
<!-- Node3 -->
<g id="node3" class="node"><title>Node3</title>
<polygon fill="none" stroke="#bfbfbf" points="0,-6.5 0,-25.5 62,-25.5 62,-6.5 0,-6.5"/>
<text text-anchor="middle" x="31" y="-13.5" font-family="Helvetica,sans-Serif" font-size="10.00">type_traits</text>
</g>
<!-- Node2&#45;&gt;Node3 -->
<g id="edge2" class="edge"><title>Node2&#45;&gt;Node3</title>
<path fill="none" stroke="midnightblue" d="M148.371,-68.4035C125.176,-58.245 86.3815,-41.2547 59.7869,-29.6074"/>
<polygon fill="midnightblue" stroke="midnightblue" points="61.1565,-26.3863 50.5923,-25.5806 58.3483,-32.7984 61.1565,-26.3863"/>
</g>
<!-- Node4 -->
<g id="node4" class="node"><title>Node4</title>
<polygon fill="none" stroke="#bfbfbf" points="80,-6.5 80,-25.5 124,-25.5 124,-6.5 80,-6.5"/>
<text text-anchor="middle" x="102" y="-13.5" font-family="Helvetica,sans-Serif" font-size="10.00">vector</text>
</g>
<!-- Node2&#45;&gt;Node4 -->
<g id="edge3" class="edge"><title>Node2&#45;&gt;Node4</title>
<path fill="none" stroke="midnightblue" d="M158.544,-68.4035C148.252,-59.047 131.584,-43.8948 119.006,-32.4599"/>
<polygon fill="midnightblue" stroke="midnightblue" points="121.192,-29.7176 111.439,-25.5806 116.484,-34.8971 121.192,-29.7176"/>
</g>
<!-- Node5 -->
<g id="node5" class="node"><title>Node5</title>
<polygon fill="none" stroke="#bfbfbf" points="142,-6.5 142,-25.5 194,-25.5 194,-6.5 142,-6.5"/>
<text text-anchor="middle" x="168" y="-13.5" font-family="Helvetica,sans-Serif" font-size="10.00">memory</text>
</g>
<!-- Node2&#45;&gt;Node5 -->
<g id="edge4" class="edge"><title>Node2&#45;&gt;Node5</title>
<path fill="none" stroke="midnightblue" d="M168,-68.4035C168,-59.9381 168,-46.7283 168,-35.8199"/>
<polygon fill="midnightblue" stroke="midnightblue" points="171.5,-35.5806 168,-25.5806 164.5,-35.5806 171.5,-35.5806"/>
</g>
<!-- Node6 -->
<g id="node6" class="node"><title>Node6</title>
<polygon fill="none" stroke="#bfbfbf" points="212,-1 212,-31 316,-31 316,-1 212,-1"/>
<text text-anchor="start" x="220" y="-19" font-family="Helvetica,sans-Serif" font-size="10.00">boost/archive/binary</text>
<text text-anchor="middle" x="264" y="-8" font-family="Helvetica,sans-Serif" font-size="10.00">_iarchive.hpp</text>
</g>
<!-- Node2&#45;&gt;Node6 -->
<g id="edge5" class="edge"><title>Node2&#45;&gt;Node6</title>
<path fill="none" stroke="midnightblue" d="M181.754,-68.4035C194.999,-60.1254 215.503,-47.3106 232.724,-36.5474"/>
<polygon fill="midnightblue" stroke="midnightblue" points="234.75,-39.4088 241.375,-31.1408 231.04,-33.4728 234.75,-39.4088"/>
</g>
<!-- Node7 -->
<g id="node7" class="node"><title>Node7</title>
<polygon fill="none" stroke="#bfbfbf" points="334,-1 334,-31 438,-31 438,-1 334,-1"/>
<text text-anchor="start" x="342" y="-19" font-family="Helvetica,sans-Serif" font-size="10.00">boost/archive/binary</text>
<text text-anchor="middle" x="386" y="-8" font-family="Helvetica,sans-Serif" font-size="10.00">_oarchive.hpp</text>
</g>
<!-- Node2&#45;&gt;Node7 -->
<g id="edge6" class="edge"><title>Node2&#45;&gt;Node7</title>
<path fill="none" stroke="midnightblue" d="M199.234,-68.4035C231.972,-59.393 284.24,-45.0075 325.166,-33.7432"/>
<polygon fill="midnightblue" stroke="midnightblue" points="326.329,-37.0535 335.041,-31.0253 324.471,-30.3045 326.329,-37.0535"/>
</g>
</g>
</svg>
