<?xml version="1.0" encoding="UTF-8" standalone="no"?>
<!DOCTYPE svg PUBLIC "-//W3C//DTD SVG 1.1//EN"
 "http://www.w3.org/Graphics/SVG/1.1/DTD/svg11.dtd">
<!-- Generated by graphviz version 2.36.0 (20140111.2315)
 -->
<!-- Title: o2::framework::DeviceMetricsInfo Pages: 1 -->
<svg width="964pt" height="204pt"
 viewBox="0.00 0.00 964.00 204.00" xmlns="http://www.w3.org/2000/svg" xmlns:xlink="http://www.w3.org/1999/xlink">
<g id="graph0" class="graph" transform="scale(1 1) rotate(0) translate(4 200)">
<title>o2::framework::DeviceMetricsInfo</title>
<!-- Node1 -->
<g id="node1" class="node"><title>Node1</title>
<polygon fill="#bfbfbf" stroke="black" points="360,-0.5 360,-57.5 524,-57.5 524,-0.5 360,-0.5"/>
<text text-anchor="middle" x="442" y="-45.5" font-family="Helvetica,sans-Serif" font-size="10.00">o2::framework::DeviceMetricsInfo</text>
<polyline fill="none" stroke="black" points="360,-38.5 524,-38.5 "/>
<text text-anchor="middle" x="442" y="-26.5" font-family="Helvetica,sans-Serif" font-size="10.00"> </text>
<polyline fill="none" stroke="black" points="360,-19.5 524,-19.5 "/>
<text text-anchor="middle" x="442" y="-7.5" font-family="Helvetica,sans-Serif" font-size="10.00"> </text>
</g>
<!-- Node2 -->
<g id="node2" class="node"><title>Node2</title>
<polygon fill="none" stroke="#bfbfbf" points="-0.5,-122 -0.5,-190 96.5,-190 96.5,-122 -0.5,-122"/>
<text text-anchor="start" x="7.5" y="-178" font-family="Helvetica,sans-Serif" font-size="10.00">vector&lt; std::array</text>
<text text-anchor="middle" x="48" y="-167" font-family="Helvetica,sans-Serif" font-size="10.00">&lt; size_t, 1024 &gt; &gt;</text>
<polyline fill="none" stroke="#bfbfbf" points="-0.5,-160 96.5,-160 "/>
<text text-anchor="middle" x="48" y="-148" font-family="Helvetica,sans-Serif" font-size="10.00"> </text>
<polyline fill="none" stroke="#bfbfbf" points="-0.5,-141 96.5,-141 "/>
<text text-anchor="middle" x="48" y="-129" font-family="Helvetica,sans-Serif" font-size="10.00"> </text>
</g>
<!-- Node2&#45;&gt;Node1 -->
<g id="edge1" class="edge"><title>Node2&#45;&gt;Node1</title>
<path fill="none" stroke="#404040" d="M86.7468,-121.995C107.959,-105.645 135.474,-87.0794 163,-76 221.868,-52.3053 292.422,-40.8111 347.851,-35.2376"/>
<polygon fill="none" stroke="#404040" points="347.851,-35.2377 353.446,-30.6886 359.797,-34.1039 354.202,-38.6529 347.851,-35.2377"/>
<text text-anchor="middle" x="193.5" y="-84.5" font-family="Helvetica,sans-Serif" font-size="10.00"> +timestamps</text>
</g>
<!-- Node3 -->
<g id="node3" class="node"><title>Node3</title>
<polygon fill="none" stroke="#bfbfbf" points="115,-122 115,-190 209,-190 209,-122 115,-122"/>
<text text-anchor="start" x="123" y="-178" font-family="Helvetica,sans-Serif" font-size="10.00">vector&lt; std::array</text>
<text text-anchor="middle" x="162" y="-167" font-family="Helvetica,sans-Serif" font-size="10.00">&lt; int, 1024 &gt; &gt;</text>
<polyline fill="none" stroke="#bfbfbf" points="115,-160 209,-160 "/>
<text text-anchor="middle" x="162" y="-148" font-family="Helvetica,sans-Serif" font-size="10.00"> </text>
<polyline fill="none" stroke="#bfbfbf" points="115,-141 209,-141 "/>
<text text-anchor="middle" x="162" y="-129" font-family="Helvetica,sans-Serif" font-size="10.00"> </text>
</g>
<!-- Node3&#45;&gt;Node1 -->
<g id="edge2" class="edge"><title>Node3&#45;&gt;Node1</title>
<path fill="none" stroke="#404040" d="M197.343,-121.822C215.947,-105.933 239.868,-87.8349 264,-76 290.078,-63.2109 320.108,-53.7016 347.985,-46.7563"/>
<polygon fill="none" stroke="#404040" points="348.112,-46.7261 353.017,-41.4401 359.783,-43.9347 354.878,-49.2207 348.112,-46.7261"/>
<text text-anchor="middle" x="290" y="-84.5" font-family="Helvetica,sans-Serif" font-size="10.00"> +intMetrics</text>
</g>
<!-- Node4 -->
<g id="node4" class="node"><title>Node4</title>
<polygon fill="none" stroke="#bfbfbf" points="227,-122 227,-190 321,-190 321,-122 227,-122"/>
<text text-anchor="start" x="235" y="-178" font-family="Helvetica,sans-Serif" font-size="10.00">vector&lt; std::array</text>
<text text-anchor="middle" x="274" y="-167" font-family="Helvetica,sans-Serif" font-size="10.00">&lt; float, 1024 &gt; &gt;</text>
<polyline fill="none" stroke="#bfbfbf" points="227,-160 321,-160 "/>
<text text-anchor="middle" x="274" y="-148" font-family="Helvetica,sans-Serif" font-size="10.00"> </text>
<polyline fill="none" stroke="#bfbfbf" points="227,-141 321,-141 "/>
<text text-anchor="middle" x="274" y="-129" font-family="Helvetica,sans-Serif" font-size="10.00"> </text>
</g>
<!-- Node4&#45;&gt;Node1 -->
<g id="edge3" class="edge"><title>Node4&#45;&gt;Node1</title>
<path fill="none" stroke="#404040" d="M297.866,-121.733C310.084,-106.391 325.961,-88.7906 343,-76 348.968,-71.5201 355.442,-67.33 362.126,-63.4466"/>
<polygon fill="none" stroke="#404040" points="362.244,-63.382 365.573,-56.9856 372.758,-57.5991 369.428,-63.9954 362.244,-63.382"/>
<text text-anchor="middle" x="373.5" y="-84.5" font-family="Helvetica,sans-Serif" font-size="10.00"> +floatMetrics</text>
</g>
<!-- Node5 -->
<g id="node5" class="node"><title>Node5</title>
<polygon fill="none" stroke="#bfbfbf" points="339,-127.5 339,-184.5 427,-184.5 427,-127.5 339,-127.5"/>
<text text-anchor="middle" x="383" y="-172.5" font-family="Helvetica,sans-Serif" font-size="10.00">vector&lt; size_t &gt;</text>
<polyline fill="none" stroke="#bfbfbf" points="339,-165.5 427,-165.5 "/>
<text text-anchor="middle" x="383" y="-153.5" font-family="Helvetica,sans-Serif" font-size="10.00"> </text>
<polyline fill="none" stroke="#bfbfbf" points="339,-146.5 427,-146.5 "/>
<text text-anchor="middle" x="383" y="-134.5" font-family="Helvetica,sans-Serif" font-size="10.00"> </text>
</g>
<!-- Node5&#45;&gt;Node1 -->
<g id="edge4" class="edge"><title>Node5&#45;&gt;Node1</title>
<path fill="none" stroke="#404040" d="M394.722,-127.382C401.326,-112.124 409.861,-92.893 418,-76 419.175,-73.5604 420.406,-71.0595 421.662,-68.5452"/>
<polygon fill="none" stroke="#404040" points="421.797,-68.2786 420.956,-61.1167 427.244,-57.5857 428.085,-64.7476 421.797,-68.2786"/>
<text text-anchor="middle" x="449" y="-90" font-family="Helvetica,sans-Serif" font-size="10.00"> +maxDomain</text>
<text text-anchor="middle" x="449" y="-79" font-family="Helvetica,sans-Serif" font-size="10.00">+minDomain</text>
</g>
<!-- Node6 -->
<g id="node6" class="node"><title>Node6</title>
<polygon fill="none" stroke="#bfbfbf" points="444.5,-122 444.5,-190 559.5,-190 559.5,-122 444.5,-122"/>
<text text-anchor="start" x="452.5" y="-178" font-family="Helvetica,sans-Serif" font-size="10.00">vector&lt; o2::framework</text>
<text text-anchor="middle" x="502" y="-167" font-family="Helvetica,sans-Serif" font-size="10.00">::MetricInfo &gt;</text>
<polyline fill="none" stroke="#bfbfbf" points="444.5,-160 559.5,-160 "/>
<text text-anchor="middle" x="502" y="-148" font-family="Helvetica,sans-Serif" font-size="10.00"> </text>
<polyline fill="none" stroke="#bfbfbf" points="444.5,-141 559.5,-141 "/>
<text text-anchor="middle" x="502" y="-129" font-family="Helvetica,sans-Serif" font-size="10.00"> </text>
</g>
<!-- Node6&#45;&gt;Node1 -->
<g id="edge5" class="edge"><title>Node6&#45;&gt;Node1</title>
<path fill="none" stroke="#404040" d="M496.043,-121.939C492.602,-107.326 487.444,-90.2624 480,-76 478.502,-73.1288 476.802,-70.2728 474.974,-67.4711"/>
<polygon fill="none" stroke="#404040" points="474.91,-67.3821 468.161,-64.84 467.913,-57.6331 474.661,-60.1753 474.91,-67.3821"/>
<text text-anchor="middle" x="510" y="-84.5" font-family="Helvetica,sans-Serif" font-size="10.00"> +metrics</text>
</g>
<!-- Node7 -->
<g id="node7" class="node"><title>Node7</title>
<polygon fill="none" stroke="#bfbfbf" points="577.5,-116.5 577.5,-195.5 726.5,-195.5 726.5,-116.5 577.5,-116.5"/>
<text text-anchor="start" x="585.5" y="-183.5" font-family="Helvetica,sans-Serif" font-size="10.00">vector&lt; std::array</text>
<text text-anchor="start" x="585.5" y="-172.5" font-family="Helvetica,sans-Serif" font-size="10.00">&lt; o2::framework::StringMetric,</text>
<text text-anchor="middle" x="652" y="-161.5" font-family="Helvetica,sans-Serif" font-size="10.00"> 32 &gt; &gt;</text>
<polyline fill="none" stroke="#bfbfbf" points="577.5,-154.5 726.5,-154.5 "/>
<text text-anchor="middle" x="652" y="-142.5" font-family="Helvetica,sans-Serif" font-size="10.00"> </text>
<polyline fill="none" stroke="#bfbfbf" points="577.5,-135.5 726.5,-135.5 "/>
<text text-anchor="middle" x="652" y="-123.5" font-family="Helvetica,sans-Serif" font-size="10.00"> </text>
</g>
<!-- Node7&#45;&gt;Node1 -->
<g id="edge6" class="edge"><title>Node7&#45;&gt;Node1</title>
<path fill="none" stroke="#404040" d="M598.215,-116.469C578.676,-103.068 556.189,-88.3187 535,-76 527.506,-71.643 519.543,-67.2985 511.552,-63.1158"/>
<polygon fill="none" stroke="#404040" points="511.352,-63.0129 504.186,-63.8271 500.679,-57.5264 507.844,-56.7122 511.352,-63.0129"/>
<text text-anchor="middle" x="601" y="-84.5" font-family="Helvetica,sans-Serif" font-size="10.00"> +stringMetrics</text>
</g>
<!-- Node8 -->
<g id="node8" class="node"><title>Node8</title>
<polygon fill="none" stroke="#bfbfbf" points="744.5,-122 744.5,-190 857.5,-190 857.5,-122 744.5,-122"/>
<text text-anchor="start" x="752.5" y="-178" font-family="Helvetica,sans-Serif" font-size="10.00">vector&lt; std::pair&lt;</text>
<text text-anchor="middle" x="801" y="-167" font-family="Helvetica,sans-Serif" font-size="10.00"> std::string, size_t &gt; &gt;</text>
<polyline fill="none" stroke="#bfbfbf" points="744.5,-160 857.5,-160 "/>
<text text-anchor="middle" x="801" y="-148" font-family="Helvetica,sans-Serif" font-size="10.00"> </text>
<polyline fill="none" stroke="#bfbfbf" points="744.5,-141 857.5,-141 "/>
<text text-anchor="middle" x="801" y="-129" font-family="Helvetica,sans-Serif" font-size="10.00"> </text>
</g>
<!-- Node8&#45;&gt;Node1 -->
<g id="edge7" class="edge"><title>Node8&#45;&gt;Node1</title>
<path fill="none" stroke="#404040" d="M746.226,-121.843C742.459,-119.807 738.693,-117.841 735,-116 693.265,-95.1965 682.398,-90.2623 638,-76 605.25,-65.4796 568.714,-56.2497 536.143,-48.873"/>
<polygon fill="none" stroke="#404040" points="536.049,-48.8521 529.323,-51.4502 524.337,-46.2401 531.064,-43.642 536.049,-48.8521"/>
<text text-anchor="middle" x="737.5" y="-84.5" font-family="Helvetica,sans-Serif" font-size="10.00"> +metricLabelsIdx</text>
</g>
<!-- Node9 -->
<g id="node9" class="node"><title>Node9</title>
<polygon fill="none" stroke="#bfbfbf" points="876,-127.5 876,-184.5 956,-184.5 956,-127.5 876,-127.5"/>
<text text-anchor="middle" x="916" y="-172.5" font-family="Helvetica,sans-Serif" font-size="10.00">vector&lt; float &gt;</text>
<polyline fill="none" stroke="#bfbfbf" points="876,-165.5 956,-165.5 "/>
<text text-anchor="middle" x="916" y="-153.5" font-family="Helvetica,sans-Serif" font-size="10.00"> </text>
<polyline fill="none" stroke="#bfbfbf" points="876,-146.5 956,-146.5 "/>
<text text-anchor="middle" x="916" y="-134.5" font-family="Helvetica,sans-Serif" font-size="10.00"> </text>
</g>
<!-- Node9&#45;&gt;Node1 -->
<g id="edge8" class="edge"><title>Node9&#45;&gt;Node1</title>
<path fill="none" stroke="#404040" d="M882.574,-127.302C877.172,-123.306 871.534,-119.401 866,-116 830.43,-94.1365 821.04,-87.8332 781,-76 700.402,-52.1804 605.33,-40.6389 536.41,-35.0797"/>
<polygon fill="none" stroke="#404040" points="536.251,-35.0675 529.96,-38.5927 524.287,-34.1417 530.578,-30.6165 536.251,-35.0675"/>
<text text-anchor="middle" x="848.5" y="-90" font-family="Helvetica,sans-Serif" font-size="10.00"> +min</text>
<text text-anchor="middle" x="848.5" y="-79" font-family="Helvetica,sans-Serif" font-size="10.00">+max</text>
</g>
</g>
</svg>
