<?xml version="1.0" encoding="UTF-8" standalone="no"?>
<!DOCTYPE svg PUBLIC "-//W3C//DTD SVG 1.1//EN"
 "http://www.w3.org/Graphics/SVG/1.1/DTD/svg11.dtd">
<!-- Generated by graphviz version 2.36.0 (20140111.2315)
 -->
<!-- Title: /home/travis/build/AliceO2Group/AliceO2/Detectors/EMCAL/simulation/include/EMCALSimulation/Digitizer.h Pages: 1 -->
<svg width="1987pt" height="390pt"
 viewBox="0.00 0.00 1987.00 390.00" xmlns="http://www.w3.org/2000/svg" xmlns:xlink="http://www.w3.org/1999/xlink">
<g id="graph0" class="graph" transform="scale(1 1) rotate(0) translate(4 386)">
<title>/home/travis/build/AliceO2Group/AliceO2/Detectors/EMCAL/simulation/include/EMCALSimulation/Digitizer.h</title>
<!-- Node1 -->
<g id="node1" class="node"><title>Node1</title>
<polygon fill="#bfbfbf" stroke="black" points="296.5,-329 296.5,-381 477.5,-381 477.5,-329 296.5,-329"/>
<text text-anchor="start" x="304.5" y="-369" font-family="Helvetica,sans-Serif" font-size="10.00">/home/travis/build</text>
<text text-anchor="start" x="304.5" y="-358" font-family="Helvetica,sans-Serif" font-size="10.00">/AliceO2Group/AliceO2</text>
<text text-anchor="start" x="304.5" y="-347" font-family="Helvetica,sans-Serif" font-size="10.00">/Detectors/EMCAL/simulation</text>
<text text-anchor="middle" x="387" y="-336" font-family="Helvetica,sans-Serif" font-size="10.00">/include/EMCALSimulation/Digitizer.h</text>
</g>
<!-- Node2 -->
<g id="node2" class="node"><title>Node2</title>
<polygon fill="none" stroke="#bfbfbf" points="0,-272.5 0,-291.5 52,-291.5 52,-272.5 0,-272.5"/>
<text text-anchor="middle" x="26" y="-279.5" font-family="Helvetica,sans-Serif" font-size="10.00">memory</text>
</g>
<!-- Node1&#45;&gt;Node2 -->
<g id="edge1" class="edge"><title>Node1&#45;&gt;Node2</title>
<path fill="none" stroke="midnightblue" d="M296.392,-338.367C233.234,-327.096 146.832,-310.934 62.1157,-292.146"/>
<polygon fill="midnightblue" stroke="midnightblue" points="62.8522,-288.724 52.3299,-289.962 61.3275,-295.556 62.8522,-288.724"/>
</g>
<!-- Node3 -->
<g id="node3" class="node"><title>Node3</title>
<polygon fill="none" stroke="#bfbfbf" points="70.5,-272.5 70.5,-291.5 153.5,-291.5 153.5,-272.5 70.5,-272.5"/>
<text text-anchor="middle" x="112" y="-279.5" font-family="Helvetica,sans-Serif" font-size="10.00">unordered_map</text>
</g>
<!-- Node1&#45;&gt;Node3 -->
<g id="edge2" class="edge"><title>Node1&#45;&gt;Node3</title>
<path fill="none" stroke="midnightblue" d="M296.193,-330.555C248.715,-318.297 192.811,-303.864 155.147,-294.14"/>
<polygon fill="midnightblue" stroke="midnightblue" points="155.588,-290.639 145.03,-291.528 153.838,-297.417 155.588,-290.639"/>
</g>
<!-- Node4 -->
<g id="node4" class="node"><title>Node4</title>
<polygon fill="none" stroke="#bfbfbf" points="446,-210.5 446,-229.5 490,-229.5 490,-210.5 446,-210.5"/>
<text text-anchor="middle" x="468" y="-217.5" font-family="Helvetica,sans-Serif" font-size="10.00">vector</text>
</g>
<!-- Node1&#45;&gt;Node4 -->
<g id="edge3" class="edge"><title>Node1&#45;&gt;Node4</title>
<path fill="none" stroke="midnightblue" d="M422.358,-328.705C434.119,-318.573 446.194,-305.974 454,-292 462.984,-275.917 466.269,-254.966 467.437,-239.999"/>
<polygon fill="midnightblue" stroke="midnightblue" points="470.938,-240.073 467.976,-229.9 463.948,-239.699 470.938,-240.073"/>
</g>
<!-- Node5 -->
<g id="node5" class="node"><title>Node5</title>
<polygon fill="none" stroke="#bfbfbf" points="286.5,-272.5 286.5,-291.5 329.5,-291.5 329.5,-272.5 286.5,-272.5"/>
<text text-anchor="middle" x="308" y="-279.5" font-family="Helvetica,sans-Serif" font-size="10.00">deque</text>
</g>
<!-- Node1&#45;&gt;Node5 -->
<g id="edge4" class="edge"><title>Node1&#45;&gt;Node5</title>
<path fill="none" stroke="midnightblue" d="M358.925,-328.768C347.699,-318.679 335.126,-307.379 325.282,-298.532"/>
<polygon fill="midnightblue" stroke="midnightblue" points="327.521,-295.838 317.744,-291.757 322.842,-301.045 327.521,-295.838"/>
</g>
<!-- Node6 -->
<g id="node6" class="node"><title>Node6</title>
<polygon fill="none" stroke="#bfbfbf" points="321,-74.5 321,-93.5 377,-93.5 377,-74.5 321,-74.5"/>
<text text-anchor="middle" x="349" y="-81.5" font-family="Helvetica,sans-Serif" font-size="10.00">Rtypes.h</text>
</g>
<!-- Node1&#45;&gt;Node6 -->
<g id="edge5" class="edge"><title>Node1&#45;&gt;Node6</title>
<path fill="none" stroke="midnightblue" d="M329.843,-328.886C311.608,-319.105 292.23,-306.682 277,-292 230.465,-247.138 218.548,-230.211 201,-168 197.139,-154.312 192.742,-147.58 201,-136 225.667,-101.409 275.398,-90.0464 310.383,-86.4421"/>
<polygon fill="midnightblue" stroke="midnightblue" points="311.058,-89.8971 320.723,-85.5555 310.46,-82.9227 311.058,-89.8971"/>
</g>
<!-- Node7 -->
<g id="node7" class="node"><title>Node7</title>
<polygon fill="none" stroke="#bfbfbf" points="386.5,-272.5 386.5,-291.5 445.5,-291.5 445.5,-272.5 386.5,-272.5"/>
<text text-anchor="middle" x="416" y="-279.5" font-family="Helvetica,sans-Serif" font-size="10.00">TObject.h</text>
</g>
<!-- Node1&#45;&gt;Node7 -->
<g id="edge6" class="edge"><title>Node1&#45;&gt;Node7</title>
<path fill="none" stroke="midnightblue" d="M397.306,-328.768C401.015,-319.688 405.124,-309.627 408.543,-301.256"/>
<polygon fill="midnightblue" stroke="midnightblue" points="411.882,-302.338 412.423,-291.757 405.402,-299.691 411.882,-302.338"/>
</g>
<!-- Node8 -->
<g id="node8" class="node"><title>Node8</title>
<g id="a_node8"><a xlink:href="../../dd/dc7/EMCAL_2base_2include_2EMCALBase_2Digit_8h.html" target="_top" xlink:title="EMCALBase/Digit.h">
<polygon fill="none" stroke="black" points="311.5,-210.5 311.5,-229.5 416.5,-229.5 416.5,-210.5 311.5,-210.5"/>
<text text-anchor="middle" x="364" y="-217.5" font-family="Helvetica,sans-Serif" font-size="10.00">EMCALBase/Digit.h</text>
</a>
</g>
</g>
<!-- Node1&#45;&gt;Node8 -->
<g id="edge7" class="edge"><title>Node1&#45;&gt;Node8</title>
<path fill="none" stroke="midnightblue" d="M382.674,-328.984C378.178,-302.988 371.248,-262.91 367.215,-239.59"/>
<polygon fill="midnightblue" stroke="midnightblue" points="370.644,-238.88 365.491,-229.622 363.746,-240.073 370.644,-238.88"/>
</g>
<!-- Node13 -->
<g id="node13" class="node"><title>Node13</title>
<g id="a_node13"><a xlink:href="../../dd/da8/EMCAL_2base_2include_2EMCALBase_2Geometry_8h.html" target="_top" xlink:title="EMCALBase/Geometry.h">
<polygon fill="none" stroke="black" points="774,-272.5 774,-291.5 902,-291.5 902,-272.5 774,-272.5"/>
<text text-anchor="middle" x="838" y="-279.5" font-family="Helvetica,sans-Serif" font-size="10.00">EMCALBase/Geometry.h</text>
</a>
</g>
</g>
<!-- Node1&#45;&gt;Node13 -->
<g id="edge14" class="edge"><title>Node1&#45;&gt;Node13</title>
<path fill="none" stroke="midnightblue" d="M477.724,-339.717C565.485,-325.902 696.263,-305.313 773.758,-293.113"/>
<polygon fill="midnightblue" stroke="midnightblue" points="774.531,-296.535 783.865,-291.522 773.443,-289.62 774.531,-296.535"/>
</g>
<!-- Node23 -->
<g id="node23" class="node"><title>Node23</title>
<g id="a_node23"><a xlink:href="../../d5/d5e/GeometryBase_8h.html" target="_top" xlink:title="EMCALBase/GeometryBase.h">
<polygon fill="none" stroke="black" points="1209,-210.5 1209,-229.5 1359,-229.5 1359,-210.5 1209,-210.5"/>
<text text-anchor="middle" x="1284" y="-217.5" font-family="Helvetica,sans-Serif" font-size="10.00">EMCALBase/GeometryBase.h</text>
</a>
</g>
</g>
<!-- Node1&#45;&gt;Node23 -->
<g id="edge40" class="edge"><title>Node1&#45;&gt;Node23</title>
<path fill="none" stroke="midnightblue" d="M477.67,-345.228C582.351,-334.647 759.576,-315.34 911,-292 1027.28,-274.077 1162.72,-246.636 1234.08,-231.66"/>
<polygon fill="midnightblue" stroke="midnightblue" points="1235.08,-235.028 1244.14,-229.543 1233.63,-228.178 1235.08,-235.028"/>
</g>
<!-- Node34 -->
<g id="node34" class="node"><title>Node34</title>
<g id="a_node34"><a xlink:href="../../d5/d8b/EMCAL_2base_2include_2EMCALBase_2Hit_8h.html" target="_top" xlink:title="EMCALBase/Hit.h">
<polygon fill="none" stroke="black" points="1423,-272.5 1423,-291.5 1521,-291.5 1521,-272.5 1423,-272.5"/>
<text text-anchor="middle" x="1472" y="-279.5" font-family="Helvetica,sans-Serif" font-size="10.00">EMCALBase/Hit.h</text>
</a>
</g>
</g>
<!-- Node1&#45;&gt;Node34 -->
<g id="edge41" class="edge"><title>Node1&#45;&gt;Node34</title>
<path fill="none" stroke="midnightblue" d="M477.64,-348.069C693.474,-333.945 1233.22,-298.625 1412.82,-286.872"/>
<polygon fill="midnightblue" stroke="midnightblue" points="1413.12,-290.36 1422.87,-286.215 1412.67,-283.375 1413.12,-290.36"/>
</g>
<!-- Node8&#45;&gt;Node6 -->
<g id="edge10" class="edge"><title>Node8&#45;&gt;Node6</title>
<path fill="none" stroke="midnightblue" d="M393.466,-210.339C413.582,-202.716 438.728,-189.42 451,-168 458.07,-155.66 458.477,-148.098 451,-136 446.768,-129.153 406.755,-110.426 378.126,-97.6745"/>
<polygon fill="midnightblue" stroke="midnightblue" points="379.483,-94.4476 368.922,-93.6049 376.652,-100.85 379.483,-94.4476"/>
</g>
<!-- Node9 -->
<g id="node9" class="node"><title>Node9</title>
<polygon fill="none" stroke="#bfbfbf" points="395.5,-74.5 395.5,-93.5 440.5,-93.5 440.5,-74.5 395.5,-74.5"/>
<text text-anchor="middle" x="418" y="-81.5" font-family="Helvetica,sans-Serif" font-size="10.00">iosfwd</text>
</g>
<!-- Node8&#45;&gt;Node9 -->
<g id="edge8" class="edge"><title>Node8&#45;&gt;Node9</title>
<path fill="none" stroke="midnightblue" d="M405.396,-210.469C473.155,-196.46 600.441,-169.928 602,-168 610.941,-156.94 610.822,-147.155 602,-136 558.936,-81.5457 515.555,-122.854 450,-100 448.088,-99.3335 446.137,-98.5895 444.19,-97.7992"/>
<polygon fill="midnightblue" stroke="midnightblue" points="445.231,-94.4335 434.669,-93.6048 442.409,-100.839 445.231,-94.4335"/>
</g>
<!-- Node10 -->
<g id="node10" class="node"><title>Node10</title>
<polygon fill="none" stroke="#bfbfbf" points="210,-142.5 210,-161.5 254,-161.5 254,-142.5 210,-142.5"/>
<text text-anchor="middle" x="232" y="-149.5" font-family="Helvetica,sans-Serif" font-size="10.00">cmath</text>
</g>
<!-- Node8&#45;&gt;Node10 -->
<g id="edge9" class="edge"><title>Node8&#45;&gt;Node10</title>
<path fill="none" stroke="midnightblue" d="M346.743,-210.372C324.213,-199.106 284.559,-179.279 258.281,-166.14"/>
<polygon fill="midnightblue" stroke="midnightblue" points="259.77,-162.972 249.261,-161.63 256.64,-169.233 259.77,-162.972"/>
</g>
<!-- Node11 -->
<g id="node11" class="node"><title>Node11</title>
<g id="a_node11"><a xlink:href="../../df/d5d/common_2include_2CommonDataFormat_2TimeStamp_8h.html" target="_top" xlink:title="CommonDataFormat/TimeStamp.h">
<polygon fill="none" stroke="black" points="272,-142.5 272,-161.5 442,-161.5 442,-142.5 272,-142.5"/>
<text text-anchor="middle" x="357" y="-149.5" font-family="Helvetica,sans-Serif" font-size="10.00">CommonDataFormat/TimeStamp.h</text>
</a>
</g>
</g>
<!-- Node8&#45;&gt;Node11 -->
<g id="edge11" class="edge"><title>Node8&#45;&gt;Node11</title>
<path fill="none" stroke="midnightblue" d="M363.085,-210.372C362.053,-200.643 360.344,-184.528 358.999,-171.85"/>
<polygon fill="midnightblue" stroke="midnightblue" points="362.473,-171.416 357.938,-161.841 355.512,-172.155 362.473,-171.416"/>
</g>
<!-- Node12 -->
<g id="node12" class="node"><title>Node12</title>
<polygon fill="none" stroke="#bfbfbf" points="498.5,-137 498.5,-167 593.5,-167 593.5,-137 498.5,-137"/>
<text text-anchor="start" x="506.5" y="-155" font-family="Helvetica,sans-Serif" font-size="10.00">boost/serialization</text>
<text text-anchor="middle" x="546" y="-144" font-family="Helvetica,sans-Serif" font-size="10.00">/base_object.hpp</text>
</g>
<!-- Node8&#45;&gt;Node12 -->
<g id="edge13" class="edge"><title>Node8&#45;&gt;Node12</title>
<path fill="none" stroke="midnightblue" d="M387.793,-210.372C415.537,-200.311 462.109,-183.422 497.56,-170.566"/>
<polygon fill="midnightblue" stroke="midnightblue" points="499.031,-173.756 507.239,-167.056 496.645,-167.175 499.031,-173.756"/>
</g>
<!-- Node11&#45;&gt;Node6 -->
<g id="edge12" class="edge"><title>Node11&#45;&gt;Node6</title>
<path fill="none" stroke="midnightblue" d="M355.954,-142.372C354.775,-132.643 352.822,-116.528 351.285,-103.85"/>
<polygon fill="midnightblue" stroke="midnightblue" points="354.75,-103.347 350.072,-93.8411 347.8,-104.19 354.75,-103.347"/>
</g>
<!-- Node13&#45;&gt;Node4 -->
<g id="edge18" class="edge"><title>Node13&#45;&gt;Node4</title>
<path fill="none" stroke="midnightblue" d="M773.942,-278.559C704.816,-274.536 592.123,-263.923 499,-236 496.86,-235.358 494.683,-234.584 492.527,-233.73"/>
<polygon fill="midnightblue" stroke="midnightblue" points="493.937,-230.526 483.38,-229.636 491.077,-236.916 493.937,-230.526"/>
</g>
<!-- Node14 -->
<g id="node14" class="node"><title>Node14</title>
<polygon fill="none" stroke="#bfbfbf" points="656.5,-210.5 656.5,-229.5 715.5,-229.5 715.5,-210.5 656.5,-210.5"/>
<text text-anchor="middle" x="686" y="-217.5" font-family="Helvetica,sans-Serif" font-size="10.00">exception</text>
</g>
<!-- Node13&#45;&gt;Node14 -->
<g id="edge15" class="edge"><title>Node13&#45;&gt;Node14</title>
<path fill="none" stroke="midnightblue" d="M816.222,-272.403C790.262,-262.156 746.689,-244.956 717.165,-233.302"/>
<polygon fill="midnightblue" stroke="midnightblue" points="718.324,-229.997 707.737,-229.581 715.754,-236.508 718.324,-229.997"/>
</g>
<!-- Node15 -->
<g id="node15" class="node"><title>Node15</title>
<polygon fill="none" stroke="#bfbfbf" points="737.5,-142.5 737.5,-161.5 778.5,-161.5 778.5,-142.5 737.5,-142.5"/>
<text text-anchor="middle" x="758" y="-149.5" font-family="Helvetica,sans-Serif" font-size="10.00">string</text>
</g>
<!-- Node13&#45;&gt;Node15 -->
<g id="edge16" class="edge"><title>Node13&#45;&gt;Node15</title>
<path fill="none" stroke="midnightblue" d="M811.443,-272.399C794.51,-265.423 773.79,-253.786 763,-236 751.152,-216.468 752.041,-189.367 754.448,-171.519"/>
<polygon fill="midnightblue" stroke="midnightblue" points="757.922,-171.96 756.086,-161.525 751.014,-170.828 757.922,-171.96"/>
</g>
<!-- Node16 -->
<g id="node16" class="node"><title>Node16</title>
<polygon fill="none" stroke="#bfbfbf" points="772,-210.5 772,-229.5 810,-229.5 810,-210.5 772,-210.5"/>
<text text-anchor="middle" x="791" y="-217.5" font-family="Helvetica,sans-Serif" font-size="10.00">tuple</text>
</g>
<!-- Node13&#45;&gt;Node16 -->
<g id="edge17" class="edge"><title>Node13&#45;&gt;Node16</title>
<path fill="none" stroke="midnightblue" d="M831.266,-272.403C824.216,-263.403 812.965,-249.041 804.146,-237.782"/>
<polygon fill="midnightblue" stroke="midnightblue" points="806.643,-235.295 797.721,-229.581 801.133,-239.611 806.643,-235.295"/>
</g>
<!-- Node17 -->
<g id="node17" class="node"><title>Node17</title>
<polygon fill="none" stroke="#bfbfbf" points="866,-210.5 866,-229.5 946,-229.5 946,-210.5 866,-210.5"/>
<text text-anchor="middle" x="906" y="-217.5" font-family="Helvetica,sans-Serif" font-size="10.00">RStringView.h</text>
</g>
<!-- Node13&#45;&gt;Node17 -->
<g id="edge19" class="edge"><title>Node13&#45;&gt;Node17</title>
<path fill="none" stroke="midnightblue" d="M847.743,-272.403C858.347,-263.047 875.519,-247.895 888.479,-236.46"/>
<polygon fill="midnightblue" stroke="midnightblue" points="891.093,-238.821 896.275,-229.581 886.461,-233.572 891.093,-238.821"/>
</g>
<!-- Node18 -->
<g id="node18" class="node"><title>Node18</title>
<polygon fill="none" stroke="#bfbfbf" points="1485,-74.5 1485,-93.5 1561,-93.5 1561,-74.5 1485,-74.5"/>
<text text-anchor="middle" x="1523" y="-81.5" font-family="Helvetica,sans-Serif" font-size="10.00">TGeoMatrix.h</text>
</g>
<!-- Node13&#45;&gt;Node18 -->
<g id="edge20" class="edge"><title>Node13&#45;&gt;Node18</title>
<path fill="none" stroke="midnightblue" d="M902.208,-280.871C1024.46,-279.76 1285.73,-272.978 1367,-236 1384.3,-228.127 1471.22,-138.887 1507.28,-101.413"/>
<polygon fill="midnightblue" stroke="midnightblue" points="1510.13,-103.493 1514.54,-93.8561 1505.09,-98.6439 1510.13,-103.493"/>
</g>
<!-- Node19 -->
<g id="node19" class="node"><title>Node19</title>
<polygon fill="none" stroke="#bfbfbf" points="964,-210.5 964,-229.5 1026,-229.5 1026,-210.5 964,-210.5"/>
<text text-anchor="middle" x="995" y="-217.5" font-family="Helvetica,sans-Serif" font-size="10.00">TNamed.h</text>
</g>
<!-- Node13&#45;&gt;Node19 -->
<g id="edge21" class="edge"><title>Node13&#45;&gt;Node19</title>
<path fill="none" stroke="midnightblue" d="M860.494,-272.403C887.309,-262.156 932.315,-244.956 962.809,-233.302"/>
<polygon fill="midnightblue" stroke="midnightblue" points="964.456,-236.42 972.547,-229.581 961.957,-229.881 964.456,-236.42"/>
</g>
<!-- Node20 -->
<g id="node20" class="node"><title>Node20</title>
<polygon fill="none" stroke="#bfbfbf" points="1044,-210.5 1044,-229.5 1108,-229.5 1108,-210.5 1044,-210.5"/>
<text text-anchor="middle" x="1076" y="-217.5" font-family="Helvetica,sans-Serif" font-size="10.00">TParticle.h</text>
</g>
<!-- Node13&#45;&gt;Node20 -->
<g id="edge22" class="edge"><title>Node13&#45;&gt;Node20</title>
<path fill="none" stroke="midnightblue" d="M881.973,-272.445C921.948,-264.304 982.393,-251.083 1034,-236 1037.2,-235.066 1040.5,-234.023 1043.79,-232.933"/>
<polygon fill="midnightblue" stroke="midnightblue" points="1045.18,-236.158 1053.49,-229.588 1042.9,-229.54 1045.18,-236.158"/>
</g>
<!-- Node21 -->
<g id="node21" class="node"><title>Node21</title>
<polygon fill="none" stroke="#bfbfbf" points="1126.5,-210.5 1126.5,-229.5 1191.5,-229.5 1191.5,-210.5 1126.5,-210.5"/>
<text text-anchor="middle" x="1159" y="-217.5" font-family="Helvetica,sans-Serif" font-size="10.00">TVector3.h</text>
</g>
<!-- Node13&#45;&gt;Node21 -->
<g id="edge23" class="edge"><title>Node13&#45;&gt;Node21</title>
<path fill="none" stroke="midnightblue" d="M902.121,-274.045C959.117,-267.064 1044.41,-254.648 1117,-236 1120.59,-235.079 1124.3,-233.979 1127.96,-232.798"/>
<polygon fill="midnightblue" stroke="midnightblue" points="1129.11,-236.105 1137.44,-229.555 1126.84,-229.482 1129.11,-236.105"/>
</g>
<!-- Node22 -->
<g id="node22" class="node"><title>Node22</title>
<g id="a_node22"><a xlink:href="../../d4/d82/Detectors_2EMCAL_2base_2include_2EMCALBase_2Constants_8h.html" target="_top" xlink:title="EMCALBase/Constants.h">
<polygon fill="none" stroke="black" points="508,-210.5 508,-229.5 638,-229.5 638,-210.5 508,-210.5"/>
<text text-anchor="middle" x="573" y="-217.5" font-family="Helvetica,sans-Serif" font-size="10.00">EMCALBase/Constants.h</text>
</a>
</g>
</g>
<!-- Node13&#45;&gt;Node22 -->
<g id="edge24" class="edge"><title>Node13&#45;&gt;Node22</title>
<path fill="none" stroke="midnightblue" d="M800.313,-272.467C753.024,-261.76 671.899,-243.392 620.435,-231.74"/>
<polygon fill="midnightblue" stroke="midnightblue" points="621.083,-228.298 610.557,-229.503 619.537,-235.125 621.083,-228.298"/>
</g>
<!-- Node13&#45;&gt;Node23 -->
<g id="edge25" class="edge"><title>Node13&#45;&gt;Node23</title>
<path fill="none" stroke="midnightblue" d="M902.224,-274.058C974.702,-265.982 1096.05,-251.73 1200,-236 1209.35,-234.585 1219.26,-232.943 1228.87,-231.276"/>
<polygon fill="midnightblue" stroke="midnightblue" points="1229.49,-234.719 1238.73,-229.537 1228.28,-227.825 1229.49,-234.719"/>
</g>
<!-- Node25 -->
<g id="node25" class="node"><title>Node25</title>
<g id="a_node25"><a xlink:href="../../dd/d76/Cartesian3D_8h.html" target="_top" xlink:title="MathUtils/Cartesian3D.h">
<polygon fill="none" stroke="black" points="835.5,-142.5 835.5,-161.5 960.5,-161.5 960.5,-142.5 835.5,-142.5"/>
<text text-anchor="middle" x="898" y="-149.5" font-family="Helvetica,sans-Serif" font-size="10.00">MathUtils/Cartesian3D.h</text>
</a>
</g>
</g>
<!-- Node13&#45;&gt;Node25 -->
<g id="edge28" class="edge"><title>Node13&#45;&gt;Node25</title>
<path fill="none" stroke="midnightblue" d="M838.879,-272.498C840.654,-257.852 845.519,-227.2 857,-204 863.391,-191.085 873.515,-178.447 882.103,-168.983"/>
<polygon fill="midnightblue" stroke="midnightblue" points="884.797,-171.228 889.122,-161.556 879.71,-166.42 884.797,-171.228"/>
</g>
<!-- Node23&#45;&gt;Node15 -->
<g id="edge27" class="edge"><title>Node23&#45;&gt;Node15</title>
<path fill="none" stroke="midnightblue" d="M1240.07,-210.466C1227.19,-208.151 1213.06,-205.792 1200,-204 1034.56,-181.304 990.949,-194.033 826,-168 813.749,-166.066 800.396,-163.274 788.792,-160.621"/>
<polygon fill="midnightblue" stroke="midnightblue" points="789.244,-157.132 778.709,-158.252 787.643,-163.946 789.244,-157.132"/>
</g>
<!-- Node24 -->
<g id="node24" class="node"><title>Node24</title>
<polygon fill="none" stroke="#bfbfbf" points="1258,-142.5 1258,-161.5 1310,-161.5 1310,-142.5 1258,-142.5"/>
<text text-anchor="middle" x="1284" y="-149.5" font-family="Helvetica,sans-Serif" font-size="10.00">sstream</text>
</g>
<!-- Node23&#45;&gt;Node24 -->
<g id="edge26" class="edge"><title>Node23&#45;&gt;Node24</title>
<path fill="none" stroke="midnightblue" d="M1284,-210.372C1284,-200.643 1284,-184.528 1284,-171.85"/>
<polygon fill="midnightblue" stroke="midnightblue" points="1287.5,-171.841 1284,-161.841 1280.5,-171.841 1287.5,-171.841"/>
</g>
<!-- Node25&#45;&gt;Node6 -->
<g id="edge34" class="edge"><title>Node25&#45;&gt;Node6</title>
<path fill="none" stroke="midnightblue" d="M838.726,-142.49C822.017,-140.227 803.812,-137.89 787,-136 609.181,-116.013 559.922,-142.073 386,-100 382.933,-99.258 379.786,-98.3054 376.685,-97.2406"/>
<polygon fill="midnightblue" stroke="midnightblue" points="377.68,-93.8743 367.09,-93.5776 375.184,-100.414 377.68,-93.8743"/>
</g>
<!-- Node25&#45;&gt;Node9 -->
<g id="edge36" class="edge"><title>Node25&#45;&gt;Node9</title>
<path fill="none" stroke="midnightblue" d="M837.261,-142.481C820.95,-140.278 803.313,-137.973 787,-136 637.46,-117.912 595.077,-140.523 450,-100 447.657,-99.3454 445.271,-98.5337 442.913,-97.6292"/>
<polygon fill="midnightblue" stroke="midnightblue" points="444.118,-94.3363 433.552,-93.554 441.324,-100.755 444.118,-94.3363"/>
</g>
<!-- Node25&#45;&gt;Node18 -->
<g id="edge35" class="edge"><title>Node25&#45;&gt;Node18</title>
<path fill="none" stroke="midnightblue" d="M960.525,-149.856C1067.08,-146.935 1290.28,-136.584 1475,-100 1479.78,-99.0533 1484.76,-97.8064 1489.62,-96.4353"/>
<polygon fill="midnightblue" stroke="midnightblue" points="1490.77,-99.7431 1499.33,-93.5025 1488.75,-93.0418 1490.77,-99.7431"/>
</g>
<!-- Node26 -->
<g id="node26" class="node"><title>Node26</title>
<polygon fill="none" stroke="#bfbfbf" points="1315.5,-69 1315.5,-99 1466.5,-99 1466.5,-69 1315.5,-69"/>
<text text-anchor="start" x="1323.5" y="-87" font-family="Helvetica,sans-Serif" font-size="10.00">Math/GenVector/Displacement</text>
<text text-anchor="middle" x="1391" y="-76" font-family="Helvetica,sans-Serif" font-size="10.00">Vector3D.h</text>
</g>
<!-- Node25&#45;&gt;Node26 -->
<g id="edge29" class="edge"><title>Node25&#45;&gt;Node26</title>
<path fill="none" stroke="midnightblue" d="M960.692,-144.155C1038.87,-135.399 1176.83,-119.217 1305.46,-100.034"/>
<polygon fill="midnightblue" stroke="midnightblue" points="1306.12,-103.474 1315.49,-98.5288 1305.08,-96.5514 1306.12,-103.474"/>
</g>
<!-- Node27 -->
<g id="node27" class="node"><title>Node27</title>
<polygon fill="none" stroke="#bfbfbf" points="459,-74.5 459,-93.5 635,-93.5 635,-74.5 459,-74.5"/>
<text text-anchor="middle" x="547" y="-81.5" font-family="Helvetica,sans-Serif" font-size="10.00">Math/GenVector/PositionVector3D.h</text>
</g>
<!-- Node25&#45;&gt;Node27 -->
<g id="edge30" class="edge"><title>Node25&#45;&gt;Node27</title>
<path fill="none" stroke="midnightblue" d="M852.473,-142.439C788.295,-130.372 671.363,-108.384 602.28,-95.3945"/>
<polygon fill="midnightblue" stroke="midnightblue" points="602.921,-91.9538 592.447,-93.5455 601.628,-98.8333 602.921,-91.9538"/>
</g>
<!-- Node28 -->
<g id="node28" class="node"><title>Node28</title>
<polygon fill="none" stroke="#bfbfbf" points="652.5,-74.5 652.5,-93.5 801.5,-93.5 801.5,-74.5 652.5,-74.5"/>
<text text-anchor="middle" x="727" y="-81.5" font-family="Helvetica,sans-Serif" font-size="10.00">Math/GenVector/Rotation3D.h</text>
</g>
<!-- Node25&#45;&gt;Node28 -->
<g id="edge31" class="edge"><title>Node25&#45;&gt;Node28</title>
<path fill="none" stroke="midnightblue" d="M875.645,-142.372C845.735,-130.827 792.531,-110.293 758.55,-97.1772"/>
<polygon fill="midnightblue" stroke="midnightblue" points="759.679,-93.8615 749.09,-93.5259 757.159,-100.392 759.679,-93.8615"/>
</g>
<!-- Node29 -->
<g id="node29" class="node"><title>Node29</title>
<polygon fill="none" stroke="#bfbfbf" points="820,-74.5 820,-93.5 976,-93.5 976,-74.5 820,-74.5"/>
<text text-anchor="middle" x="898" y="-81.5" font-family="Helvetica,sans-Serif" font-size="10.00">Math/GenVector/Transform3D.h</text>
</g>
<!-- Node25&#45;&gt;Node29 -->
<g id="edge32" class="edge"><title>Node25&#45;&gt;Node29</title>
<path fill="none" stroke="midnightblue" d="M898,-142.372C898,-132.643 898,-116.528 898,-103.85"/>
<polygon fill="midnightblue" stroke="midnightblue" points="901.5,-103.841 898,-93.8411 894.5,-103.841 901.5,-103.841"/>
</g>
<!-- Node30 -->
<g id="node30" class="node"><title>Node30</title>
<polygon fill="none" stroke="#bfbfbf" points="994,-74.5 994,-93.5 1154,-93.5 1154,-74.5 994,-74.5"/>
<text text-anchor="middle" x="1074" y="-81.5" font-family="Helvetica,sans-Serif" font-size="10.00">Math/GenVector/Translation3D.h</text>
</g>
<!-- Node25&#45;&gt;Node30 -->
<g id="edge33" class="edge"><title>Node25&#45;&gt;Node30</title>
<path fill="none" stroke="midnightblue" d="M921.009,-142.372C951.794,-130.827 1006.55,-110.293 1041.53,-97.1772"/>
<polygon fill="midnightblue" stroke="midnightblue" points="1043.13,-100.314 1051.26,-93.5259 1040.67,-93.76 1043.13,-100.314"/>
</g>
<!-- Node31 -->
<g id="node31" class="node"><title>Node31</title>
<g id="a_node31"><a xlink:href="../../d2/dd0/Cartesian2D_8h.html" target="_top" xlink:title="MathUtils/Cartesian2D.h">
<polygon fill="none" stroke="black" points="1172.5,-74.5 1172.5,-93.5 1297.5,-93.5 1297.5,-74.5 1172.5,-74.5"/>
<text text-anchor="middle" x="1235" y="-81.5" font-family="Helvetica,sans-Serif" font-size="10.00">MathUtils/Cartesian2D.h</text>
</a>
</g>
</g>
<!-- Node25&#45;&gt;Node31 -->
<g id="edge37" class="edge"><title>Node25&#45;&gt;Node31</title>
<path fill="none" stroke="midnightblue" d="M943.526,-142.457C996.351,-132.494 1086.05,-115.419 1163,-100 1170.06,-98.5857 1177.5,-97.0669 1184.81,-95.5582"/>
<polygon fill="midnightblue" stroke="midnightblue" points="1185.58,-98.9745 1194.66,-93.5179 1184.15,-92.1201 1185.58,-98.9745"/>
</g>
<!-- Node32 -->
<g id="node32" class="node"><title>Node32</title>
<polygon fill="none" stroke="#bfbfbf" points="1068.5,-1 1068.5,-31 1219.5,-31 1219.5,-1 1068.5,-1"/>
<text text-anchor="start" x="1076.5" y="-19" font-family="Helvetica,sans-Serif" font-size="10.00">Math/GenVector/Displacement</text>
<text text-anchor="middle" x="1144" y="-8" font-family="Helvetica,sans-Serif" font-size="10.00">Vector2D.h</text>
</g>
<!-- Node31&#45;&gt;Node32 -->
<g id="edge38" class="edge"><title>Node31&#45;&gt;Node32</title>
<path fill="none" stroke="midnightblue" d="M1223.1,-74.3717C1210.22,-65.0286 1189.22,-49.7966 1172.09,-37.375"/>
<polygon fill="midnightblue" stroke="midnightblue" points="1173.7,-34.2194 1163.55,-31.1815 1169.59,-39.8859 1173.7,-34.2194"/>
</g>
<!-- Node33 -->
<g id="node33" class="node"><title>Node33</title>
<polygon fill="none" stroke="#bfbfbf" points="1238,-6.5 1238,-25.5 1414,-25.5 1414,-6.5 1238,-6.5"/>
<text text-anchor="middle" x="1326" y="-13.5" font-family="Helvetica,sans-Serif" font-size="10.00">Math/GenVector/PositionVector2D.h</text>
</g>
<!-- Node31&#45;&gt;Node33 -->
<g id="edge39" class="edge"><title>Node31&#45;&gt;Node33</title>
<path fill="none" stroke="midnightblue" d="M1246.9,-74.3717C1261.88,-63.5015 1287.86,-44.6602 1305.94,-31.5474"/>
<polygon fill="midnightblue" stroke="midnightblue" points="1308.06,-34.3349 1314.1,-25.6305 1303.95,-28.6684 1308.06,-34.3349"/>
</g>
<!-- Node35 -->
<g id="node35" class="node"><title>Node35</title>
<g id="a_node35"><a xlink:href="../../d4/d25/BaseHits_8h.html" target="_top" xlink:title="SimulationDataFormat\l/BaseHits.h">
<polygon fill="none" stroke="black" points="1415,-205 1415,-235 1529,-235 1529,-205 1415,-205"/>
<text text-anchor="start" x="1423" y="-223" font-family="Helvetica,sans-Serif" font-size="10.00">SimulationDataFormat</text>
<text text-anchor="middle" x="1472" y="-212" font-family="Helvetica,sans-Serif" font-size="10.00">/BaseHits.h</text>
</a>
</g>
</g>
<!-- Node34&#45;&gt;Node35 -->
<g id="edge42" class="edge"><title>Node34&#45;&gt;Node35</title>
<path fill="none" stroke="midnightblue" d="M1472,-272.403C1472,-265.341 1472,-254.975 1472,-245.399"/>
<polygon fill="midnightblue" stroke="midnightblue" points="1475.5,-245.141 1472,-235.141 1468.5,-245.141 1475.5,-245.141"/>
</g>
<!-- Node36 -->
<g id="node36" class="node"><title>Node36</title>
<g id="a_node36"><a xlink:href="../../d0/d91/ShmAllocator_8h.html" target="_top" xlink:title="CommonUtils/ShmAllocator.h">
<polygon fill="none" stroke="black" points="1658,-210.5 1658,-229.5 1804,-229.5 1804,-210.5 1658,-210.5"/>
<text text-anchor="middle" x="1731" y="-217.5" font-family="Helvetica,sans-Serif" font-size="10.00">CommonUtils/ShmAllocator.h</text>
</a>
</g>
</g>
<!-- Node34&#45;&gt;Node36 -->
<g id="edge44" class="edge"><title>Node34&#45;&gt;Node36</title>
<path fill="none" stroke="midnightblue" d="M1508.83,-272.467C1554.96,-261.783 1634.01,-243.469 1684.32,-231.813"/>
<polygon fill="midnightblue" stroke="midnightblue" points="1685.34,-235.17 1694.29,-229.503 1683.76,-228.351 1685.34,-235.17"/>
</g>
<!-- Node35&#45;&gt;Node25 -->
<g id="edge43" class="edge"><title>Node35&#45;&gt;Node25</title>
<path fill="none" stroke="midnightblue" d="M1414.83,-210.477C1399.32,-208.263 1382.53,-205.953 1367,-204 1226.99,-186.392 1063.01,-169.384 970.733,-160.145"/>
<polygon fill="midnightblue" stroke="midnightblue" points="970.962,-156.65 960.664,-159.139 970.266,-163.616 970.962,-156.65"/>
</g>
<!-- Node37 -->
<g id="node37" class="node"><title>Node37</title>
<g id="a_node37"><a xlink:href="../../de/d61/ShmManager_8h.html" target="_top" xlink:title="CommonUtils/ShmManager.h">
<polygon fill="none" stroke="black" points="1658,-142.5 1658,-161.5 1804,-161.5 1804,-142.5 1658,-142.5"/>
<text text-anchor="middle" x="1731" y="-149.5" font-family="Helvetica,sans-Serif" font-size="10.00">CommonUtils/ShmManager.h</text>
</a>
</g>
</g>
<!-- Node36&#45;&gt;Node37 -->
<g id="edge45" class="edge"><title>Node36&#45;&gt;Node37</title>
<path fill="none" stroke="midnightblue" d="M1731,-210.372C1731,-200.643 1731,-184.528 1731,-171.85"/>
<polygon fill="midnightblue" stroke="midnightblue" points="1734.5,-171.841 1731,-161.841 1727.5,-171.841 1734.5,-171.841"/>
</g>
<!-- Node42 -->
<g id="node42" class="node"><title>Node42</title>
<polygon fill="none" stroke="#bfbfbf" points="1822.5,-142.5 1822.5,-161.5 1871.5,-161.5 1871.5,-142.5 1822.5,-142.5"/>
<text text-anchor="middle" x="1847" y="-149.5" font-family="Helvetica,sans-Serif" font-size="10.00">cassert</text>
</g>
<!-- Node36&#45;&gt;Node42 -->
<g id="edge50" class="edge"><title>Node36&#45;&gt;Node42</title>
<path fill="none" stroke="midnightblue" d="M1746.16,-210.372C1765.7,-199.254 1799.9,-179.8 1822.99,-166.662"/>
<polygon fill="midnightblue" stroke="midnightblue" points="1824.87,-169.618 1831.83,-161.63 1821.41,-163.534 1824.87,-169.618"/>
</g>
<!-- Node38 -->
<g id="node38" class="node"><title>Node38</title>
<polygon fill="none" stroke="#bfbfbf" points="1716.5,-74.5 1716.5,-93.5 1745.5,-93.5 1745.5,-74.5 1716.5,-74.5"/>
<text text-anchor="middle" x="1731" y="-81.5" font-family="Helvetica,sans-Serif" font-size="10.00">list</text>
</g>
<!-- Node37&#45;&gt;Node38 -->
<g id="edge46" class="edge"><title>Node37&#45;&gt;Node38</title>
<path fill="none" stroke="midnightblue" d="M1731,-142.372C1731,-132.643 1731,-116.528 1731,-103.85"/>
<polygon fill="midnightblue" stroke="midnightblue" points="1734.5,-103.841 1731,-93.8411 1727.5,-103.841 1734.5,-103.841"/>
</g>
<!-- Node39 -->
<g id="node39" class="node"><title>Node39</title>
<polygon fill="none" stroke="#bfbfbf" points="1763.5,-74.5 1763.5,-93.5 1812.5,-93.5 1812.5,-74.5 1763.5,-74.5"/>
<text text-anchor="middle" x="1788" y="-81.5" font-family="Helvetica,sans-Serif" font-size="10.00">cstddef</text>
</g>
<!-- Node37&#45;&gt;Node39 -->
<g id="edge47" class="edge"><title>Node37&#45;&gt;Node39</title>
<path fill="none" stroke="midnightblue" d="M1738.45,-142.372C1747.36,-132.053 1762.48,-114.551 1773.68,-101.585"/>
<polygon fill="midnightblue" stroke="midnightblue" points="1776.48,-103.697 1780.36,-93.8411 1771.18,-99.1217 1776.48,-103.697"/>
</g>
<!-- Node40 -->
<g id="node40" class="node"><title>Node40</title>
<polygon fill="none" stroke="#bfbfbf" points="1831,-69 1831,-99 1979,-99 1979,-69 1831,-69"/>
<text text-anchor="start" x="1839" y="-87" font-family="Helvetica,sans-Serif" font-size="10.00">boost/interprocess</text>
<text text-anchor="middle" x="1905" y="-76" font-family="Helvetica,sans-Serif" font-size="10.00">/managed_external_buffer.hpp</text>
</g>
<!-- Node37&#45;&gt;Node40 -->
<g id="edge48" class="edge"><title>Node37&#45;&gt;Node40</title>
<path fill="none" stroke="midnightblue" d="M1753.75,-142.372C1780.16,-132.354 1824.42,-115.566 1858.25,-102.731"/>
<polygon fill="midnightblue" stroke="midnightblue" points="1859.83,-105.875 1867.94,-99.0562 1857.35,-99.3303 1859.83,-105.875"/>
</g>
<!-- Node41 -->
<g id="node41" class="node"><title>Node41</title>
<polygon fill="none" stroke="#bfbfbf" points="1579,-69 1579,-99 1699,-99 1699,-69 1579,-69"/>
<text text-anchor="start" x="1587" y="-87" font-family="Helvetica,sans-Serif" font-size="10.00">boost/interprocess</text>
<text text-anchor="middle" x="1639" y="-76" font-family="Helvetica,sans-Serif" font-size="10.00">/allocators/allocator.hpp</text>
</g>
<!-- Node37&#45;&gt;Node41 -->
<g id="edge49" class="edge"><title>Node37&#45;&gt;Node41</title>
<path fill="none" stroke="midnightblue" d="M1718.97,-142.372C1705.83,-132.943 1684.33,-117.517 1666.93,-105.034"/>
<polygon fill="midnightblue" stroke="midnightblue" points="1668.93,-102.167 1658.77,-99.1815 1664.85,-107.854 1668.93,-102.167"/>
</g>
</g>
</svg>
