<?xml version="1.0" encoding="UTF-8" standalone="no"?>
<!DOCTYPE svg PUBLIC "-//W3C//DTD SVG 1.1//EN"
 "http://www.w3.org/Graphics/SVG/1.1/DTD/svg11.dtd">
<!-- Generated by graphviz version 2.36.0 (20140111.2315)
 -->
<!-- Title: /home/travis/build/AliceO2Group/AliceO2/DataFormats/simulation/include/SimulationDataFormat/RunContext.h Pages: 1 -->
<!--zoomable 520 -->
<svg id="main" version="1.1" xmlns="http://www.w3.org/2000/svg" xmlns:xlink="http://www.w3.org/1999/xlink" xml:space="preserve" onload="init(evt)">
<style type="text/css"><![CDATA[
.edge:hover path { stroke: red; }
.edge:hover polygon { stroke: red; fill: red; }
]]></style>
<script type="text/javascript"><![CDATA[
var edges = document.getElementsByTagName('g');
if (edges && edges.length) {
  for (var i=0;i<edges.length;i++) {
    if (edges[i].id.substr(0,4)=='edge') {
      edges[i].setAttribute('class','edge');
    }
  }
}
]]></script>
        <defs>
                <circle id="rim" cx="0" cy="0" r="7"/>
                <circle id="rim2" cx="0" cy="0" r="3.5"/>
                <g id="zoomPlus">
                        <use xlink:href="#rim" fill="#404040">
                                <set attributeName="fill" to="#808080" begin="zoomplus.mouseover" end="zoomplus.mouseout"/>
                        </use>
                        <path d="M-4,0h8M0,-4v8" fill="none" stroke="white" stroke-width="1.5" pointer-events="none"/>
                </g>
                <g id="zoomMin">
                        <use xlink:href="#rim" fill="#404040">
                                <set attributeName="fill" to="#808080" begin="zoomminus.mouseover" end="zoomminus.mouseout"/>
                        </use>
                        <path d="M-4,0h8" fill="none" stroke="white" stroke-width="1.5" pointer-events="none"/>
                </g>
                <g id="dirArrow">
                        <path fill="none" stroke="white" stroke-width="1.5" d="M0,-3.0v7 M-2.5,-0.5L0,-3.0L2.5,-0.5"/>
                </g>
               <g id="resetDef">
                       <use xlink:href="#rim2" fill="#404040">
                               <set attributeName="fill" to="#808080" begin="reset.mouseover" end="reset.mouseout"/>
                       </use>
               </g>
        </defs>

<script type="text/javascript">
var viewWidth = 2154;
var viewHeight = 520;
var sectionId = 'dynsection-1';
</script>
<script xlink:href="../../svgpan.js"/>
<svg id="graph" class="graph">
<g id="viewport">
<title>/home/travis/build/AliceO2Group/AliceO2/DataFormats/simulation/include/SimulationDataFormat/RunContext.h</title>
<!-- Node1 -->
<g id="node1" class="node"><title>Node1</title>
<polygon fill="#bfbfbf" stroke="black" points="936.5,-448.5 936.5,-511.5 1087.5,-511.5 1087.5,-448.5 936.5,-448.5"/>
<text text-anchor="start" x="944.5" y="-499.5" font-family="Helvetica,sans-Serif" font-size="10.00">/home/travis/build</text>
<text text-anchor="start" x="944.5" y="-488.5" font-family="Helvetica,sans-Serif" font-size="10.00">/AliceO2Group/AliceO2</text>
<text text-anchor="start" x="944.5" y="-477.5" font-family="Helvetica,sans-Serif" font-size="10.00">/DataFormats/simulation</text>
<text text-anchor="start" x="944.5" y="-466.5" font-family="Helvetica,sans-Serif" font-size="10.00">/include/SimulationDataFormat</text>
<text text-anchor="middle" x="1012" y="-455.5" font-family="Helvetica,sans-Serif" font-size="10.00">/RunContext.h</text>
</g>
<!-- Node2 -->
<g id="node2" class="node"><title>Node2</title>
<g id="a_node2"><a xlink:href="../../da/dea/RunContext_8cxx.html" target="_top" xlink:title="/home/travis/build\l/AliceO2Group/AliceO2\l/DataFormats/simulation\l/src/RunContext.cxx">
<polygon fill="none" stroke="black" points="810,-359 810,-411 934,-411 934,-359 810,-359"/>
<text text-anchor="start" x="818" y="-399" font-family="Helvetica,sans-Serif" font-size="10.00">/home/travis/build</text>
<text text-anchor="start" x="818" y="-388" font-family="Helvetica,sans-Serif" font-size="10.00">/AliceO2Group/AliceO2</text>
<text text-anchor="start" x="818" y="-377" font-family="Helvetica,sans-Serif" font-size="10.00">/DataFormats/simulation</text>
<text text-anchor="middle" x="872" y="-366" font-family="Helvetica,sans-Serif" font-size="10.00">/src/RunContext.cxx</text>
</a>
</g>
</g>
<!-- Node1&#45;&gt;Node2 -->
<g id="edge1" class="edge"><title>Node1&#45;&gt;Node2</title>
<path fill="none" stroke="midnightblue" d="M957.103,-442.533C941.261,-432.009 924.336,-420.766 909.785,-411.1"/>
<polygon fill="midnightblue" stroke="midnightblue" points="955.504,-445.673 965.771,-448.291 959.378,-439.842 955.504,-445.673"/>
</g>
<!-- Node3 -->
<g id="node3" class="node"><title>Node3</title>
<g id="a_node3"><a xlink:href="../../df/d25/readITSDigits_8C.html" target="_top" xlink:title="/home/travis/build\l/AliceO2Group/AliceO2\l/macro/readITSDigits.C">
<polygon fill="none" stroke="black" points="952,-364.5 952,-405.5 1072,-405.5 1072,-364.5 952,-364.5"/>
<text text-anchor="start" x="960" y="-393.5" font-family="Helvetica,sans-Serif" font-size="10.00">/home/travis/build</text>
<text text-anchor="start" x="960" y="-382.5" font-family="Helvetica,sans-Serif" font-size="10.00">/AliceO2Group/AliceO2</text>
<text text-anchor="middle" x="1012" y="-371.5" font-family="Helvetica,sans-Serif" font-size="10.00">/macro/readITSDigits.C</text>
</a>
</g>
</g>
<!-- Node1&#45;&gt;Node3 -->
<g id="edge2" class="edge"><title>Node1&#45;&gt;Node3</title>
<path fill="none" stroke="midnightblue" d="M1012,-438.112C1012,-426.807 1012,-415.052 1012,-405.575"/>
<polygon fill="midnightblue" stroke="midnightblue" points="1008.5,-438.291 1012,-448.291 1015.5,-438.291 1008.5,-438.291"/>
</g>
<!-- Node4 -->
<g id="node4" class="node"><title>Node4</title>
<g id="a_node4"><a xlink:href="../../dd/d40/HitProcessingManager_8h.html" target="_top" xlink:title="/home/travis/build\l/AliceO2Group/AliceO2\l/Steer/include/Steer/HitProcessing\lManager.h">
<polygon fill="none" stroke="black" points="1089.5,-359 1089.5,-411 1256.5,-411 1256.5,-359 1089.5,-359"/>
<text text-anchor="start" x="1097.5" y="-399" font-family="Helvetica,sans-Serif" font-size="10.00">/home/travis/build</text>
<text text-anchor="start" x="1097.5" y="-388" font-family="Helvetica,sans-Serif" font-size="10.00">/AliceO2Group/AliceO2</text>
<text text-anchor="start" x="1097.5" y="-377" font-family="Helvetica,sans-Serif" font-size="10.00">/Steer/include/Steer/HitProcessing</text>
<text text-anchor="middle" x="1173" y="-366" font-family="Helvetica,sans-Serif" font-size="10.00">Manager.h</text>
</a>
</g>
</g>
<!-- Node1&#45;&gt;Node4 -->
<g id="edge3" class="edge"><title>Node1&#45;&gt;Node4</title>
<path fill="none" stroke="midnightblue" d="M1073.87,-443.262C1092.45,-432.531 1112.43,-420.99 1129.55,-411.1"/>
<polygon fill="midnightblue" stroke="midnightblue" points="1072.07,-440.258 1065.16,-448.291 1075.57,-446.319 1072.07,-440.258"/>
</g>
<!-- Node5 -->
<g id="node5" class="node"><title>Node5</title>
<g id="a_node5"><a xlink:href="../../de/d92/TPC_2simulation_2include_2TPCSimulation_2Digitizer_8h.html" target="_top" xlink:title="/home/travis/build\l/AliceO2Group/AliceO2\l/Detectors/TPC/simulation\l/include/TPCSimulation/Digitizer.h">
<polygon fill="none" stroke="black" points="458.5,-269 458.5,-321 625.5,-321 625.5,-269 458.5,-269"/>
<text text-anchor="start" x="466.5" y="-309" font-family="Helvetica,sans-Serif" font-size="10.00">/home/travis/build</text>
<text text-anchor="start" x="466.5" y="-298" font-family="Helvetica,sans-Serif" font-size="10.00">/AliceO2Group/AliceO2</text>
<text text-anchor="start" x="466.5" y="-287" font-family="Helvetica,sans-Serif" font-size="10.00">/Detectors/TPC/simulation</text>
<text text-anchor="middle" x="542" y="-276" font-family="Helvetica,sans-Serif" font-size="10.00">/include/TPCSimulation/Digitizer.h</text>
</a>
</g>
</g>
<!-- Node4&#45;&gt;Node5 -->
<g id="edge4" class="edge"><title>Node4&#45;&gt;Node5</title>
<path fill="none" stroke="midnightblue" d="M1079.21,-358.018C894.274,-325.566 842.55,-349.514 661,-322 649.5,-320.257 637.449,-318.063 625.614,-315.692"/>
<polygon fill="midnightblue" stroke="midnightblue" points="1078.81,-361.501 1089.27,-359.815 1080.04,-354.61 1078.81,-361.501"/>
</g>
<!-- Node6 -->
<g id="node6" class="node"><title>Node6</title>
<g id="a_node6"><a xlink:href="../../dd/d4b/TPC_2simulation_2include_2TPCSimulation_2DigitizerTask_8h.html" target="_top" xlink:title="/home/travis/build\l/AliceO2Group/AliceO2\l/Detectors/TPC/simulation\l/include/TPCSimulation/Digitizer\lTask.h">
<polygon fill="none" stroke="black" points="261,-168.5 261,-231.5 419,-231.5 419,-168.5 261,-168.5"/>
<text text-anchor="start" x="269" y="-219.5" font-family="Helvetica,sans-Serif" font-size="10.00">/home/travis/build</text>
<text text-anchor="start" x="269" y="-208.5" font-family="Helvetica,sans-Serif" font-size="10.00">/AliceO2Group/AliceO2</text>
<text text-anchor="start" x="269" y="-197.5" font-family="Helvetica,sans-Serif" font-size="10.00">/Detectors/TPC/simulation</text>
<text text-anchor="start" x="269" y="-186.5" font-family="Helvetica,sans-Serif" font-size="10.00">/include/TPCSimulation/Digitizer</text>
<text text-anchor="middle" x="340" y="-175.5" font-family="Helvetica,sans-Serif" font-size="10.00">Task.h</text>
</a>
</g>
</g>
<!-- Node4&#45;&gt;Node6 -->
<g id="edge15" class="edge"><title>Node4&#45;&gt;Node6</title>
<path fill="none" stroke="midnightblue" d="M1079,-358.142C925.14,-337.05 572.791,-381.38 449,-322 408.467,-302.557 376.236,-260.589 357.63,-231.577"/>
<polygon fill="midnightblue" stroke="midnightblue" points="1078.87,-361.663 1089.29,-359.702 1079.92,-354.742 1078.87,-361.663"/>
</g>
<!-- Node12 -->
<g id="node12" class="node"><title>Node12</title>
<g id="a_node12"><a xlink:href="../../db/df6/TPCDriftTimeDigitizerSpec_8cxx.html" target="_top" xlink:title="/home/travis/build\l/AliceO2Group/AliceO2\l/Steer/DigitizerWorkflow\l/src/TPCDriftTimeDigitizerSpec.cxx">
<polygon fill="none" stroke="black" points="560,-79 560,-131 734,-131 734,-79 560,-79"/>
<text text-anchor="start" x="568" y="-119" font-family="Helvetica,sans-Serif" font-size="10.00">/home/travis/build</text>
<text text-anchor="start" x="568" y="-108" font-family="Helvetica,sans-Serif" font-size="10.00">/AliceO2Group/AliceO2</text>
<text text-anchor="start" x="568" y="-97" font-family="Helvetica,sans-Serif" font-size="10.00">/Steer/DigitizerWorkflow</text>
<text text-anchor="middle" x="647" y="-86" font-family="Helvetica,sans-Serif" font-size="10.00">/src/TPCDriftTimeDigitizerSpec.cxx</text>
</a>
</g>
</g>
<!-- Node4&#45;&gt;Node12 -->
<g id="edge23" class="edge"><title>Node4&#45;&gt;Node12</title>
<path fill="none" stroke="midnightblue" d="M1079.14,-358.233C979.3,-344.743 756.292,-377.162 694,-322 665.7,-296.939 653.123,-182.538 648.829,-131.137"/>
<polygon fill="midnightblue" stroke="midnightblue" points="1078.84,-361.729 1089.26,-359.844 1079.94,-354.816 1078.84,-361.729"/>
</g>
<!-- Node14 -->
<g id="node14" class="node"><title>Node14</title>
<g id="a_node14"><a xlink:href="../../d3/d87/CollisionTimePrinter_8cxx.html" target="_top" xlink:title="/home/travis/build\l/AliceO2Group/AliceO2\l/Steer/DigitizerWorkflow\l/src/CollisionTimePrinter.cxx">
<polygon fill="none" stroke="black" points="703.5,-269 703.5,-321 846.5,-321 846.5,-269 703.5,-269"/>
<text text-anchor="start" x="711.5" y="-309" font-family="Helvetica,sans-Serif" font-size="10.00">/home/travis/build</text>
<text text-anchor="start" x="711.5" y="-298" font-family="Helvetica,sans-Serif" font-size="10.00">/AliceO2Group/AliceO2</text>
<text text-anchor="start" x="711.5" y="-287" font-family="Helvetica,sans-Serif" font-size="10.00">/Steer/DigitizerWorkflow</text>
<text text-anchor="middle" x="775" y="-276" font-family="Helvetica,sans-Serif" font-size="10.00">/src/CollisionTimePrinter.cxx</text>
</a>
</g>
</g>
<!-- Node4&#45;&gt;Node14 -->
<g id="edge16" class="edge"><title>Node4&#45;&gt;Node14</title>
<path fill="none" stroke="midnightblue" d="M1079.57,-358.029C979.725,-336.927 950.998,-344.742 856,-322 852.984,-321.278 849.917,-320.499 846.829,-319.678"/>
<polygon fill="midnightblue" stroke="midnightblue" points="1078.95,-361.475 1089.46,-360.164 1080.42,-354.633 1078.95,-361.475"/>
</g>
<!-- Node15 -->
<g id="node15" class="node"><title>Node15</title>
<g id="a_node15"><a xlink:href="../../d5/d9b/EMCALDigitizerSpec_8cxx.html" target="_top" xlink:title="/home/travis/build\l/AliceO2Group/AliceO2\l/Steer/DigitizerWorkflow\l/src/EMCALDigitizerSpec.cxx">
<polygon fill="none" stroke="black" points="865,-269 865,-321 1013,-321 1013,-269 865,-269"/>
<text text-anchor="start" x="873" y="-309" font-family="Helvetica,sans-Serif" font-size="10.00">/home/travis/build</text>
<text text-anchor="start" x="873" y="-298" font-family="Helvetica,sans-Serif" font-size="10.00">/AliceO2Group/AliceO2</text>
<text text-anchor="start" x="873" y="-287" font-family="Helvetica,sans-Serif" font-size="10.00">/Steer/DigitizerWorkflow</text>
<text text-anchor="middle" x="939" y="-276" font-family="Helvetica,sans-Serif" font-size="10.00">/src/EMCALDigitizerSpec.cxx</text>
</a>
</g>
</g>
<!-- Node4&#45;&gt;Node15 -->
<g id="edge17" class="edge"><title>Node4&#45;&gt;Node15</title>
<path fill="none" stroke="midnightblue" d="M1096.88,-355.372C1067.52,-344.333 1034.24,-331.817 1005.83,-321.133"/>
<polygon fill="midnightblue" stroke="midnightblue" points="1095.67,-358.656 1106.26,-358.901 1098.13,-352.104 1095.67,-358.656"/>
</g>
<!-- Node16 -->
<g id="node16" class="node"><title>Node16</title>
<g id="a_node16"><a xlink:href="../../dd/dfe/FITDigitizerSpec_8cxx.html" target="_top" xlink:title="/home/travis/build\l/AliceO2Group/AliceO2\l/Steer/DigitizerWorkflow\l/src/FITDigitizerSpec.cxx">
<polygon fill="none" stroke="black" points="1031,-269 1031,-321 1159,-321 1159,-269 1031,-269"/>
<text text-anchor="start" x="1039" y="-309" font-family="Helvetica,sans-Serif" font-size="10.00">/home/travis/build</text>
<text text-anchor="start" x="1039" y="-298" font-family="Helvetica,sans-Serif" font-size="10.00">/AliceO2Group/AliceO2</text>
<text text-anchor="start" x="1039" y="-287" font-family="Helvetica,sans-Serif" font-size="10.00">/Steer/DigitizerWorkflow</text>
<text text-anchor="middle" x="1095" y="-276" font-family="Helvetica,sans-Serif" font-size="10.00">/src/FITDigitizerSpec.cxx</text>
</a>
</g>
</g>
<!-- Node4&#45;&gt;Node16 -->
<g id="edge18" class="edge"><title>Node4&#45;&gt;Node16</title>
<path fill="none" stroke="midnightblue" d="M1143.61,-350.846C1134.87,-340.985 1125.45,-330.349 1117.24,-321.092"/>
<polygon fill="midnightblue" stroke="midnightblue" points="1141.19,-353.385 1150.44,-358.547 1146.43,-348.742 1141.19,-353.385"/>
</g>
<!-- Node17 -->
<g id="node17" class="node"><title>Node17</title>
<g id="a_node17"><a xlink:href="../../d8/d00/HMPIDDigitizerSpec_8cxx.html" target="_top" xlink:title="/home/travis/build\l/AliceO2Group/AliceO2\l/Steer/DigitizerWorkflow\l/src/HMPIDDigitizerSpec.cxx">
<polygon fill="none" stroke="black" points="1177,-269 1177,-321 1323,-321 1323,-269 1177,-269"/>
<text text-anchor="start" x="1185" y="-309" font-family="Helvetica,sans-Serif" font-size="10.00">/home/travis/build</text>
<text text-anchor="start" x="1185" y="-298" font-family="Helvetica,sans-Serif" font-size="10.00">/AliceO2Group/AliceO2</text>
<text text-anchor="start" x="1185" y="-287" font-family="Helvetica,sans-Serif" font-size="10.00">/Steer/DigitizerWorkflow</text>
<text text-anchor="middle" x="1250" y="-276" font-family="Helvetica,sans-Serif" font-size="10.00">/src/HMPIDDigitizerSpec.cxx</text>
</a>
</g>
</g>
<!-- Node4&#45;&gt;Node17 -->
<g id="edge19" class="edge"><title>Node4&#45;&gt;Node17</title>
<path fill="none" stroke="midnightblue" d="M1202.01,-350.846C1210.64,-340.985 1219.94,-330.349 1228.04,-321.092"/>
<polygon fill="midnightblue" stroke="midnightblue" points="1199.22,-348.716 1195.27,-358.547 1204.49,-353.326 1199.22,-348.716"/>
</g>
<!-- Node18 -->
<g id="node18" class="node"><title>Node18</title>
<g id="a_node18"><a xlink:href="../../d3/d43/ITSMFTDigitizerSpec_8cxx.html" target="_top" xlink:title="/home/travis/build\l/AliceO2Group/AliceO2\l/Steer/DigitizerWorkflow\l/src/ITSMFTDigitizerSpec.cxx">
<polygon fill="none" stroke="black" points="1341.5,-269 1341.5,-321 1490.5,-321 1490.5,-269 1341.5,-269"/>
<text text-anchor="start" x="1349.5" y="-309" font-family="Helvetica,sans-Serif" font-size="10.00">/home/travis/build</text>
<text text-anchor="start" x="1349.5" y="-298" font-family="Helvetica,sans-Serif" font-size="10.00">/AliceO2Group/AliceO2</text>
<text text-anchor="start" x="1349.5" y="-287" font-family="Helvetica,sans-Serif" font-size="10.00">/Steer/DigitizerWorkflow</text>
<text text-anchor="middle" x="1416" y="-276" font-family="Helvetica,sans-Serif" font-size="10.00">/src/ITSMFTDigitizerSpec.cxx</text>
</a>
</g>
</g>
<!-- Node4&#45;&gt;Node18 -->
<g id="edge20" class="edge"><title>Node4&#45;&gt;Node18</title>
<path fill="none" stroke="midnightblue" d="M1252.05,-355.372C1282.53,-344.333 1317.09,-331.817 1346.6,-321.133"/>
<polygon fill="midnightblue" stroke="midnightblue" points="1250.52,-352.205 1242.31,-358.901 1252.9,-358.786 1250.52,-352.205"/>
</g>
<!-- Node19 -->
<g id="node19" class="node"><title>Node19</title>
<g id="a_node19"><a xlink:href="../../d3/d13/SimReaderSpec_8cxx.html" target="_top" xlink:title="/home/travis/build\l/AliceO2Group/AliceO2\l/Steer/DigitizerWorkflow\l/src/SimReaderSpec.cxx">
<polygon fill="none" stroke="black" points="1509,-269 1509,-321 1635,-321 1635,-269 1509,-269"/>
<text text-anchor="start" x="1517" y="-309" font-family="Helvetica,sans-Serif" font-size="10.00">/home/travis/build</text>
<text text-anchor="start" x="1517" y="-298" font-family="Helvetica,sans-Serif" font-size="10.00">/AliceO2Group/AliceO2</text>
<text text-anchor="start" x="1517" y="-287" font-family="Helvetica,sans-Serif" font-size="10.00">/Steer/DigitizerWorkflow</text>
<text text-anchor="middle" x="1572" y="-276" font-family="Helvetica,sans-Serif" font-size="10.00">/src/SimReaderSpec.cxx</text>
</a>
</g>
</g>
<!-- Node4&#45;&gt;Node19 -->
<g id="edge21" class="edge"><title>Node4&#45;&gt;Node19</title>
<path fill="none" stroke="midnightblue" d="M1266.46,-370.156C1332.11,-359.479 1421.66,-342.994 1499,-322 1502.25,-321.119 1505.55,-320.162 1508.88,-319.152"/>
<polygon fill="midnightblue" stroke="midnightblue" points="1265.86,-366.708 1256.54,-371.755 1266.97,-373.619 1265.86,-366.708"/>
</g>
<!-- Node20 -->
<g id="node20" class="node"><title>Node20</title>
<g id="a_node20"><a xlink:href="../../d6/d61/TOFDigitizerSpec_8cxx.html" target="_top" xlink:title="/home/travis/build\l/AliceO2Group/AliceO2\l/Steer/DigitizerWorkflow\l/src/TOFDigitizerSpec.cxx">
<polygon fill="none" stroke="black" points="1653.5,-269 1653.5,-321 1786.5,-321 1786.5,-269 1653.5,-269"/>
<text text-anchor="start" x="1661.5" y="-309" font-family="Helvetica,sans-Serif" font-size="10.00">/home/travis/build</text>
<text text-anchor="start" x="1661.5" y="-298" font-family="Helvetica,sans-Serif" font-size="10.00">/AliceO2Group/AliceO2</text>
<text text-anchor="start" x="1661.5" y="-287" font-family="Helvetica,sans-Serif" font-size="10.00">/Steer/DigitizerWorkflow</text>
<text text-anchor="middle" x="1720" y="-276" font-family="Helvetica,sans-Serif" font-size="10.00">/src/TOFDigitizerSpec.cxx</text>
</a>
</g>
</g>
<!-- Node4&#45;&gt;Node20 -->
<g id="edge22" class="edge"><title>Node4&#45;&gt;Node20</title>
<path fill="none" stroke="midnightblue" d="M1267.1,-377.151C1362.89,-368.891 1515.2,-352.193 1644,-322 1647.12,-321.268 1650.3,-320.458 1653.49,-319.589"/>
<polygon fill="midnightblue" stroke="midnightblue" points="1266.52,-373.687 1256.86,-378.021 1267.12,-380.662 1266.52,-373.687"/>
</g>
<!-- Node21 -->
<g id="node21" class="node"><title>Node21</title>
<g id="a_node21"><a xlink:href="../../d6/d0b/HitProcessingManager_8cxx.html" target="_top" xlink:title="/home/travis/build\l/AliceO2Group/AliceO2\l/Steer/src/HitProcessingManager.cxx">
<polygon fill="none" stroke="black" points="1805,-274.5 1805,-315.5 1985,-315.5 1985,-274.5 1805,-274.5"/>
<text text-anchor="start" x="1813" y="-303.5" font-family="Helvetica,sans-Serif" font-size="10.00">/home/travis/build</text>
<text text-anchor="start" x="1813" y="-292.5" font-family="Helvetica,sans-Serif" font-size="10.00">/AliceO2Group/AliceO2</text>
<text text-anchor="middle" x="1895" y="-281.5" font-family="Helvetica,sans-Serif" font-size="10.00">/Steer/src/HitProcessingManager.cxx</text>
</a>
</g>
</g>
<!-- Node4&#45;&gt;Node21 -->
<g id="edge24" class="edge"><title>Node4&#45;&gt;Node21</title>
<path fill="none" stroke="midnightblue" d="M1266.64,-379.2C1388.92,-371.899 1609.27,-355.196 1795,-322 1804.98,-320.217 1815.42,-317.954 1825.64,-315.511"/>
<polygon fill="midnightblue" stroke="midnightblue" points="1266.34,-375.711 1256.57,-379.794 1266.76,-382.699 1266.34,-375.711"/>
</g>
<!-- Node22 -->
<g id="node22" class="node"><title>Node22</title>
<g id="a_node22"><a xlink:href="../../d7/d6d/testHitProcessingManager_8cxx.html" target="_top" xlink:title="/home/travis/build\l/AliceO2Group/AliceO2\l/Steer/test/testHitProcessing\lManager.cxx">
<polygon fill="none" stroke="black" points="2003.5,-269 2003.5,-321 2146.5,-321 2146.5,-269 2003.5,-269"/>
<text text-anchor="start" x="2011.5" y="-309" font-family="Helvetica,sans-Serif" font-size="10.00">/home/travis/build</text>
<text text-anchor="start" x="2011.5" y="-298" font-family="Helvetica,sans-Serif" font-size="10.00">/AliceO2Group/AliceO2</text>
<text text-anchor="start" x="2011.5" y="-287" font-family="Helvetica,sans-Serif" font-size="10.00">/Steer/test/testHitProcessing</text>
<text text-anchor="middle" x="2075" y="-276" font-family="Helvetica,sans-Serif" font-size="10.00">Manager.cxx</text>
</a>
</g>
</g>
<!-- Node4&#45;&gt;Node22 -->
<g id="edge25" class="edge"><title>Node4&#45;&gt;Node22</title>
<path fill="none" stroke="midnightblue" d="M1266.93,-384.048C1420.46,-382.536 1734.13,-372.784 1994,-322 1997.04,-321.405 2000.13,-320.733 2003.24,-320"/>
<polygon fill="midnightblue" stroke="midnightblue" points="1266.57,-380.551 1256.6,-384.139 1266.63,-387.55 1266.57,-380.551"/>
</g>
<!-- Node5&#45;&gt;Node6 -->
<g id="edge5" class="edge"><title>Node5&#45;&gt;Node6</title>
<path fill="none" stroke="midnightblue" d="M478.318,-264.681C455.409,-254.134 429.519,-242.214 406.386,-231.564"/>
<polygon fill="midnightblue" stroke="midnightblue" points="477.055,-267.953 487.602,-268.955 479.982,-261.594 477.055,-267.953"/>
</g>
<!-- Node7 -->
<g id="node7" class="node"><title>Node7</title>
<g id="a_node7"><a xlink:href="../../df/d46/TPC_2simulation_2src_2DigitizerTask_8cxx.html" target="_top" xlink:title="/home/travis/build\l/AliceO2Group/AliceO2\l/Detectors/TPC/simulation\l/src/DigitizerTask.cxx">
<polygon fill="none" stroke="black" points="408.5,-79 408.5,-131 541.5,-131 541.5,-79 408.5,-79"/>
<text text-anchor="start" x="416.5" y="-119" font-family="Helvetica,sans-Serif" font-size="10.00">/home/travis/build</text>
<text text-anchor="start" x="416.5" y="-108" font-family="Helvetica,sans-Serif" font-size="10.00">/AliceO2Group/AliceO2</text>
<text text-anchor="start" x="416.5" y="-97" font-family="Helvetica,sans-Serif" font-size="10.00">/Detectors/TPC/simulation</text>
<text text-anchor="middle" x="475" y="-86" font-family="Helvetica,sans-Serif" font-size="10.00">/src/DigitizerTask.cxx</text>
</a>
</g>
</g>
<!-- Node5&#45;&gt;Node7 -->
<g id="edge13" class="edge"><title>Node5&#45;&gt;Node7</title>
<path fill="none" stroke="midnightblue" d="M490.252,-262.403C480.444,-253.837 471.532,-243.652 466,-232 450.669,-199.707 458.51,-157.456 466.23,-131.019"/>
<polygon fill="midnightblue" stroke="midnightblue" points="488.297,-265.325 498.263,-268.923 492.716,-259.895 488.297,-265.325"/>
</g>
<!-- Node5&#45;&gt;Node12 -->
<g id="edge14" class="edge"><title>Node5&#45;&gt;Node12</title>
<path fill="none" stroke="midnightblue" d="M589.598,-262.545C599.932,-253.749 609.885,-243.428 617,-232 636.372,-200.885 643.238,-158.311 645.669,-131.485"/>
<polygon fill="midnightblue" stroke="midnightblue" points="587.234,-259.956 581.661,-268.967 591.637,-265.397 587.234,-259.956"/>
</g>
<!-- Node13 -->
<g id="node13" class="node"><title>Node13</title>
<g id="a_node13"><a xlink:href="../../d7/d0a/TPC_2simulation_2src_2Digitizer_8cxx.html" target="_top" xlink:title="/home/travis/build\l/AliceO2Group/AliceO2\l/Detectors/TPC/simulation\l/src/Digitizer.cxx">
<polygon fill="none" stroke="black" points="475.5,-174 475.5,-226 608.5,-226 608.5,-174 475.5,-174"/>
<text text-anchor="start" x="483.5" y="-214" font-family="Helvetica,sans-Serif" font-size="10.00">/home/travis/build</text>
<text text-anchor="start" x="483.5" y="-203" font-family="Helvetica,sans-Serif" font-size="10.00">/AliceO2Group/AliceO2</text>
<text text-anchor="start" x="483.5" y="-192" font-family="Helvetica,sans-Serif" font-size="10.00">/Detectors/TPC/simulation</text>
<text text-anchor="middle" x="542" y="-181" font-family="Helvetica,sans-Serif" font-size="10.00">/src/Digitizer.cxx</text>
</a>
</g>
</g>
<!-- Node5&#45;&gt;Node13 -->
<g id="edge12" class="edge"><title>Node5&#45;&gt;Node13</title>
<path fill="none" stroke="midnightblue" d="M542,-258.549C542,-247.722 542,-236.046 542,-226.06"/>
<polygon fill="midnightblue" stroke="midnightblue" points="538.5,-258.587 542,-268.587 545.5,-258.587 538.5,-258.587"/>
</g>
<!-- Node6&#45;&gt;Node7 -->
<g id="edge6" class="edge"><title>Node6&#45;&gt;Node7</title>
<path fill="none" stroke="midnightblue" d="M392.936,-162.533C408.212,-152.009 424.533,-140.766 438.564,-131.1"/>
<polygon fill="midnightblue" stroke="midnightblue" points="390.828,-159.735 384.578,-168.291 394.799,-165.5 390.828,-159.735"/>
</g>
<!-- Node8 -->
<g id="node8" class="node"><title>Node8</title>
<g id="a_node8"><a xlink:href="../../d1/d7a/run__digi_8C.html" target="_top" xlink:title="/home/travis/build\l/AliceO2Group/AliceO2\l/macro/run_digi.C">
<polygon fill="none" stroke="black" points="136,-84.5 136,-125.5 254,-125.5 254,-84.5 136,-84.5"/>
<text text-anchor="start" x="144" y="-113.5" font-family="Helvetica,sans-Serif" font-size="10.00">/home/travis/build</text>
<text text-anchor="start" x="144" y="-102.5" font-family="Helvetica,sans-Serif" font-size="10.00">/AliceO2Group/AliceO2</text>
<text text-anchor="middle" x="195" y="-91.5" font-family="Helvetica,sans-Serif" font-size="10.00">/macro/run_digi.C</text>
</a>
</g>
</g>
<!-- Node6&#45;&gt;Node8 -->
<g id="edge7" class="edge"><title>Node6&#45;&gt;Node8</title>
<path fill="none" stroke="midnightblue" d="M283.484,-162.752C263.741,-150.089 242.332,-136.358 225.52,-125.575"/>
<polygon fill="midnightblue" stroke="midnightblue" points="281.813,-165.838 292.12,-168.291 285.592,-159.946 281.813,-165.838"/>
</g>
<!-- Node9 -->
<g id="node9" class="node"><title>Node9</title>
<g id="a_node9"><a xlink:href="../../d9/de3/run__digi__all_8C.html" target="_top" xlink:title="/home/travis/build\l/AliceO2Group/AliceO2\l/macro/run_digi_all.C">
<polygon fill="none" stroke="black" points="272,-84.5 272,-125.5 390,-125.5 390,-84.5 272,-84.5"/>
<text text-anchor="start" x="280" y="-113.5" font-family="Helvetica,sans-Serif" font-size="10.00">/home/travis/build</text>
<text text-anchor="start" x="280" y="-102.5" font-family="Helvetica,sans-Serif" font-size="10.00">/AliceO2Group/AliceO2</text>
<text text-anchor="middle" x="331" y="-91.5" font-family="Helvetica,sans-Serif" font-size="10.00">/macro/run_digi_all.C</text>
</a>
</g>
</g>
<!-- Node6&#45;&gt;Node9 -->
<g id="edge8" class="edge"><title>Node6&#45;&gt;Node9</title>
<path fill="none" stroke="midnightblue" d="M336.043,-158.112C334.949,-146.807 333.812,-135.052 332.894,-125.575"/>
<polygon fill="midnightblue" stroke="midnightblue" points="332.581,-158.674 337.028,-168.291 339.549,-158 332.581,-158.674"/>
</g>
<!-- Node10 -->
<g id="node10" class="node"><title>Node10</title>
<g id="a_node10"><a xlink:href="../../d3/db7/run__digi__tpc_8C.html" target="_top" xlink:title="/home/travis/build\l/AliceO2Group/AliceO2\l/macro/run_digi_tpc.C">
<polygon fill="none" stroke="black" points="0,-84.5 0,-125.5 118,-125.5 118,-84.5 0,-84.5"/>
<text text-anchor="start" x="8" y="-113.5" font-family="Helvetica,sans-Serif" font-size="10.00">/home/travis/build</text>
<text text-anchor="start" x="8" y="-102.5" font-family="Helvetica,sans-Serif" font-size="10.00">/AliceO2Group/AliceO2</text>
<text text-anchor="middle" x="59" y="-91.5" font-family="Helvetica,sans-Serif" font-size="10.00">/macro/run_digi_tpc.C</text>
</a>
</g>
</g>
<!-- Node6&#45;&gt;Node10 -->
<g id="edge9" class="edge"><title>Node6&#45;&gt;Node10</title>
<path fill="none" stroke="midnightblue" d="M251.37,-172.434C212.962,-160.583 167.585,-146.128 127,-132 121.151,-129.964 115.05,-127.755 109.007,-125.513"/>
<polygon fill="midnightblue" stroke="midnightblue" points="250.39,-175.794 260.977,-175.389 252.448,-169.104 250.39,-175.794"/>
</g>
<!-- Node6&#45;&gt;Node12 -->
<g id="edge11" class="edge"><title>Node6&#45;&gt;Node12</title>
<path fill="none" stroke="midnightblue" d="M428.893,-172.072C471.641,-159.122 522.567,-143.695 564.455,-131.005"/>
<polygon fill="midnightblue" stroke="midnightblue" points="427.616,-168.801 419.06,-175.05 429.645,-175.501 427.616,-168.801"/>
</g>
<!-- Node11 -->
<g id="node11" class="node"><title>Node11</title>
<g id="a_node11"><a xlink:href="../../d3/d56/runTPC_8cxx.html" target="_top" xlink:title="/home/travis/build\l/AliceO2Group/AliceO2\l/run/runTPC.cxx">
<polygon fill="none" stroke="black" points="0,-0.5 0,-41.5 118,-41.5 118,-0.5 0,-0.5"/>
<text text-anchor="start" x="8" y="-29.5" font-family="Helvetica,sans-Serif" font-size="10.00">/home/travis/build</text>
<text text-anchor="start" x="8" y="-18.5" font-family="Helvetica,sans-Serif" font-size="10.00">/AliceO2Group/AliceO2</text>
<text text-anchor="middle" x="59" y="-7.5" font-family="Helvetica,sans-Serif" font-size="10.00">/run/runTPC.cxx</text>
</a>
</g>
</g>
<!-- Node10&#45;&gt;Node11 -->
<g id="edge10" class="edge"><title>Node10&#45;&gt;Node11</title>
<path fill="none" stroke="midnightblue" d="M59,-73.881C59,-63.1328 59,-51.309 59,-41.6671"/>
<polygon fill="midnightblue" stroke="midnightblue" points="55.5001,-74.1501 59,-84.1501 62.5001,-74.1501 55.5001,-74.1501"/>
</g>
</g>
</svg>
        <g id="navigator" transform="translate(0 0)" fill="#404254">
                <rect fill="#f2f5e9" fill-opacity="0.5" stroke="#606060" stroke-width=".5" x="0" y="0" width="60" height="60"/>
                <use id="zoomplus" xlink:href="#zoomPlus" x="17" y="9" onmousedown="handleZoom(evt,'in')"/>
                <use id="zoomminus" xlink:href="#zoomMin" x="42" y="9" onmousedown="handleZoom(evt,'out')"/>
                <use id="reset" xlink:href="#resetDef" x="30" y="36" onmousedown="handleReset()"/>
                <g id="arrowUp" xlink:href="#dirArrow" transform="translate(30 24)" onmousedown="handlePan(0,-1)">
                  <use xlink:href="#rim" fill="#404040">
                        <set attributeName="fill" to="#808080" begin="arrowUp.mouseover" end="arrowUp.mouseout"/>
                  </use>
                  <path fill="none" stroke="white" stroke-width="1.5" d="M0,-3.0v7 M-2.5,-0.5L0,-3.0L2.5,-0.5"/>
                </g>
                <g id="arrowRight" xlink:href="#dirArrow" transform="rotate(90) translate(36 -43)" onmousedown="handlePan(1,0)">
                  <use xlink:href="#rim" fill="#404040">
                        <set attributeName="fill" to="#808080" begin="arrowRight.mouseover" end="arrowRight.mouseout"/>
                  </use>
                  <path fill="none" stroke="white" stroke-width="1.5" d="M0,-3.0v7 M-2.5,-0.5L0,-3.0L2.5,-0.5"/>
                </g>
                <g id="arrowDown" xlink:href="#dirArrow" transform="rotate(180) translate(-30 -48)" onmousedown="handlePan(0,1)">
                  <use xlink:href="#rim" fill="#404040">
                        <set attributeName="fill" to="#808080" begin="arrowDown.mouseover" end="arrowDown.mouseout"/>
                  </use>
                  <path fill="none" stroke="white" stroke-width="1.5" d="M0,-3.0v7 M-2.5,-0.5L0,-3.0L2.5,-0.5"/>
                </g>
                <g id="arrowLeft" xlink:href="#dirArrow" transform="rotate(270) translate(-36 17)" onmousedown="handlePan(-1,0)">
                  <use xlink:href="#rim" fill="#404040">
                        <set attributeName="fill" to="#808080" begin="arrowLeft.mouseover" end="arrowLeft.mouseout"/>
                  </use>
                  <path fill="none" stroke="white" stroke-width="1.5" d="M0,-3.0v7 M-2.5,-0.5L0,-3.0L2.5,-0.5"/>
                </g>
        </g>
        <svg viewBox="0 0 15 15" width="100%" height="30px" preserveAspectRatio="xMaxYMin meet">
         <g id="arrow_out" transform="scale(0.3 0.3)">
          <a xlink:href="RunContext_8h__dep__incl_org.svg" target="_base">
           <rect id="button" ry="5" rx="5" y="6" x="6" height="38" width="38"
                fill="#f2f5e9" fill-opacity="0.5" stroke="#606060" stroke-width="1.0"/>
           <path id="arrow"
             d="M 11.500037,31.436501 C 11.940474,20.09759 22.043105,11.32322 32.158766,21.979434 L 37.068811,17.246167 C 37.068811,17.246167 37.088388,32 37.088388,32 L 22.160133,31.978069 C 22.160133,31.978069 26.997745,27.140456 26.997745,27.140456 C 18.528582,18.264221 13.291696,25.230495 11.500037,31.436501 z"
             style="fill:#404040;"/>
          </a>
         </g>
        </svg>
</svg>
