<?xml version="1.0" encoding="UTF-8" standalone="no"?>
<!DOCTYPE svg PUBLIC "-//W3C//DTD SVG 1.1//EN"
 "http://www.w3.org/Graphics/SVG/1.1/DTD/svg11.dtd">
<!-- Generated by graphviz version 2.36.0 (20140111.2315)
 -->
<!-- Title: /home/travis/build/AliceO2Group/AliceO2/Framework/Core/src/DataDescriptorQueryBuilder.cxx Pages: 1 -->
<!--zoomable 334 -->
<svg id="main" version="1.1" xmlns="http://www.w3.org/2000/svg" xmlns:xlink="http://www.w3.org/1999/xlink" xml:space="preserve" onload="init(evt)">
<style type="text/css"><![CDATA[
.edge:hover path { stroke: red; }
.edge:hover polygon { stroke: red; fill: red; }
]]></style>
<script type="text/javascript"><![CDATA[
var edges = document.getElementsByTagName('g');
if (edges && edges.length) {
  for (var i=0;i<edges.length;i++) {
    if (edges[i].id.substr(0,4)=='edge') {
      edges[i].setAttribute('class','edge');
    }
  }
}
]]></script>
        <defs>
                <circle id="rim" cx="0" cy="0" r="7"/>
                <circle id="rim2" cx="0" cy="0" r="3.5"/>
                <g id="zoomPlus">
                        <use xlink:href="#rim" fill="#404040">
                                <set attributeName="fill" to="#808080" begin="zoomplus.mouseover" end="zoomplus.mouseout"/>
                        </use>
                        <path d="M-4,0h8M0,-4v8" fill="none" stroke="white" stroke-width="1.5" pointer-events="none"/>
                </g>
                <g id="zoomMin">
                        <use xlink:href="#rim" fill="#404040">
                                <set attributeName="fill" to="#808080" begin="zoomminus.mouseover" end="zoomminus.mouseout"/>
                        </use>
                        <path d="M-4,0h8" fill="none" stroke="white" stroke-width="1.5" pointer-events="none"/>
                </g>
                <g id="dirArrow">
                        <path fill="none" stroke="white" stroke-width="1.5" d="M0,-3.0v7 M-2.5,-0.5L0,-3.0L2.5,-0.5"/>
                </g>
               <g id="resetDef">
                       <use xlink:href="#rim2" fill="#404040">
                               <set attributeName="fill" to="#808080" begin="reset.mouseover" end="reset.mouseout"/>
                       </use>
               </g>
        </defs>

<script type="text/javascript">
var viewWidth = 1773;
var viewHeight = 334;
var sectionId = 'dynsection-0';
</script>
<script xlink:href="../../svgpan.js"/>
<svg id="graph" class="graph">
<g id="viewport">
<title>/home/travis/build/AliceO2Group/AliceO2/Framework/Core/src/DataDescriptorQueryBuilder.cxx</title>
<!-- Node1 -->
<g id="node1" class="node"><title>Node1</title>
<polygon fill="#bfbfbf" stroke="black" points="1073,-273 1073,-325 1251,-325 1251,-273 1073,-273"/>
<text text-anchor="start" x="1081" y="-313" font-family="Helvetica,sans-Serif" font-size="10.00">/home/travis/build</text>
<text text-anchor="start" x="1081" y="-302" font-family="Helvetica,sans-Serif" font-size="10.00">/AliceO2Group/AliceO2</text>
<text text-anchor="start" x="1081" y="-291" font-family="Helvetica,sans-Serif" font-size="10.00">/Framework/Core/src/DataDescriptor</text>
<text text-anchor="middle" x="1162" y="-280" font-family="Helvetica,sans-Serif" font-size="10.00">QueryBuilder.cxx</text>
</g>
<!-- Node2 -->
<g id="node2" class="node"><title>Node2</title>
<g id="a_node2"><a xlink:href="../../db/de2/DataDescriptorQueryBuilder_8h.html" target="_top" xlink:title="Framework/DataDescriptor\lQueryBuilder.h">
<polygon fill="none" stroke="black" points="858,-69 858,-99 992,-99 992,-69 858,-69"/>
<text text-anchor="start" x="866" y="-87" font-family="Helvetica,sans-Serif" font-size="10.00">Framework/DataDescriptor</text>
<text text-anchor="middle" x="925" y="-76" font-family="Helvetica,sans-Serif" font-size="10.00">QueryBuilder.h</text>
</a>
</g>
</g>
<!-- Node1&#45;&gt;Node2 -->
<g id="edge1" class="edge"><title>Node1&#45;&gt;Node2</title>
<path fill="none" stroke="midnightblue" d="M1072.95,-274.84C1049.28,-265.589 1025.03,-252.975 1006,-236 966.536,-200.799 942.823,-141.677 932.014,-108.827"/>
<polygon fill="midnightblue" stroke="midnightblue" points="935.306,-107.628 928.955,-99.1483 928.632,-109.738 935.306,-107.628"/>
</g>
<!-- Node3 -->
<g id="node3" class="node"><title>Node3</title>
<polygon fill="none" stroke="#bfbfbf" points="1144.5,-6.5 1144.5,-25.5 1185.5,-25.5 1185.5,-6.5 1144.5,-6.5"/>
<text text-anchor="middle" x="1165" y="-13.5" font-family="Helvetica,sans-Serif" font-size="10.00">string</text>
</g>
<!-- Node1&#45;&gt;Node3 -->
<g id="edge48" class="edge"><title>Node1&#45;&gt;Node3</title>
<path fill="none" stroke="midnightblue" d="M1136.3,-272.911C1113.36,-248.568 1081.38,-209.337 1068,-168 1060.6,-145.124 1075,-71.0035 1077,-68 1080.96,-62.0745 1114.9,-43.3522 1139.44,-30.3221"/>
<polygon fill="midnightblue" stroke="midnightblue" points="1141.1,-33.4067 1148.31,-25.6455 1137.83,-27.2152 1141.1,-33.4067"/>
</g>
<!-- Node4 -->
<g id="node4" class="node"><title>Node4</title>
<polygon fill="none" stroke="#bfbfbf" points="0,-6.5 0,-25.5 44,-25.5 44,-6.5 0,-6.5"/>
<text text-anchor="middle" x="22" y="-13.5" font-family="Helvetica,sans-Serif" font-size="10.00">vector</text>
</g>
<!-- Node1&#45;&gt;Node4 -->
<g id="edge49" class="edge"><title>Node1&#45;&gt;Node4</title>
<path fill="none" stroke="midnightblue" d="M1072.84,-279.095C915.453,-245.397 578.326,-171.733 296,-100 187.305,-72.3827 157.89,-71.6917 53,-32 51.3469,-31.3744 49.6622,-30.6933 47.9752,-29.9778"/>
<polygon fill="midnightblue" stroke="midnightblue" points="49.0437,-26.6183 38.4931,-25.6514 46.138,-32.9867 49.0437,-26.6183"/>
</g>
<!-- Node5 -->
<g id="node5" class="node"><title>Node5</title>
<polygon fill="none" stroke="#bfbfbf" points="1639,-6.5 1639,-25.5 1691,-25.5 1691,-6.5 1639,-6.5"/>
<text text-anchor="middle" x="1665" y="-13.5" font-family="Helvetica,sans-Serif" font-size="10.00">memory</text>
</g>
<!-- Node1&#45;&gt;Node5 -->
<g id="edge46" class="edge"><title>Node1&#45;&gt;Node5</title>
<path fill="none" stroke="midnightblue" d="M1251.1,-288.554C1384.26,-272.393 1625.15,-234.565 1677,-168 1707.36,-129.027 1686.7,-65.9437 1673.55,-35.1193"/>
<polygon fill="midnightblue" stroke="midnightblue" points="1676.59,-33.3482 1669.31,-25.6541 1670.21,-36.211 1676.59,-33.3482"/>
</g>
<!-- Node6 -->
<g id="node6" class="node"><title>Node6</title>
<g id="a_node6"><a xlink:href="../../d3/da3/DataDescriptorMatcher_8h.html" target="_top" xlink:title="Framework/DataDescriptor\lMatcher.h">
<polygon fill="none" stroke="black" points="1237,-205 1237,-235 1371,-235 1371,-205 1237,-205"/>
<text text-anchor="start" x="1245" y="-223" font-family="Helvetica,sans-Serif" font-size="10.00">Framework/DataDescriptor</text>
<text text-anchor="middle" x="1304" y="-212" font-family="Helvetica,sans-Serif" font-size="10.00">Matcher.h</text>
</a>
</g>
</g>
<!-- Node1&#45;&gt;Node6 -->
<g id="edge5" class="edge"><title>Node1&#45;&gt;Node6</title>
<path fill="none" stroke="midnightblue" d="M1208.5,-272.787C1228.29,-262.056 1250.97,-249.755 1269.26,-239.836"/>
<polygon fill="midnightblue" stroke="midnightblue" points="1271,-242.874 1278.13,-235.031 1267.67,-236.721 1271,-242.874"/>
</g>
<!-- Node32 -->
<g id="node32" class="node"><title>Node32</title>
<polygon fill="none" stroke="#bfbfbf" points="1724.5,-210.5 1724.5,-229.5 1765.5,-229.5 1765.5,-210.5 1724.5,-210.5"/>
<text text-anchor="middle" x="1745" y="-217.5" font-family="Helvetica,sans-Serif" font-size="10.00">regex</text>
</g>
<!-- Node1&#45;&gt;Node32 -->
<g id="edge47" class="edge"><title>Node1&#45;&gt;Node32</title>
<path fill="none" stroke="midnightblue" d="M1251.26,-295.871C1360.95,-291.446 1551.96,-277.836 1710,-236 1712.82,-235.255 1715.7,-234.321 1718.54,-233.287"/>
<polygon fill="midnightblue" stroke="midnightblue" points="1719.95,-236.496 1727.91,-229.508 1717.33,-230.005 1719.95,-236.496"/>
</g>
<!-- Node2&#45;&gt;Node3 -->
<g id="edge2" class="edge"><title>Node2&#45;&gt;Node3</title>
<path fill="none" stroke="midnightblue" d="M992.347,-70.6785C1034.12,-62.0529 1088.49,-49.0256 1135,-32 1136.65,-31.3944 1138.34,-30.7225 1140.02,-30.0084"/>
<polygon fill="midnightblue" stroke="midnightblue" points="1141.83,-33.024 1149.41,-25.6251 1138.87,-26.6801 1141.83,-33.024"/>
</g>
<!-- Node2&#45;&gt;Node4 -->
<g id="edge3" class="edge"><title>Node2&#45;&gt;Node4</title>
<path fill="none" stroke="midnightblue" d="M857.9,-69.3255C854.559,-68.8341 851.246,-68.3875 848,-68 672.399,-47.0357 224.439,-75.4026 53,-32 50.6526,-31.4057 48.2721,-30.624 45.9276,-29.7292"/>
<polygon fill="midnightblue" stroke="midnightblue" points="47.2296,-26.4776 36.6709,-25.6031 44.3797,-32.8712 47.2296,-26.4776"/>
</g>
<!-- Node2&#45;&gt;Node5 -->
<g id="edge4" class="edge"><title>Node2&#45;&gt;Node5</title>
<path fill="none" stroke="midnightblue" d="M992.007,-76.6752C1022.76,-73.86 1059.72,-70.601 1093,-68 1331.48,-49.3625 1397.42,-87.9095 1630,-32 1632.89,-31.3047 1635.85,-30.3903 1638.76,-29.3554"/>
<polygon fill="midnightblue" stroke="midnightblue" points="1640.33,-32.4945 1648.31,-25.5156 1637.72,-26.0002 1640.33,-32.4945"/>
</g>
<!-- Node6&#45;&gt;Node3 -->
<g id="edge43" class="edge"><title>Node6&#45;&gt;Node3</title>
<path fill="none" stroke="midnightblue" d="M1236.73,-213.06C1177.19,-206.243 1096.75,-192.678 1077,-168 1061.43,-148.547 1083.61,-81.9439 1093,-68 1099.47,-58.3921 1123.43,-42.3348 1141.95,-30.8028"/>
<polygon fill="midnightblue" stroke="midnightblue" points="1143.81,-33.7663 1150.51,-25.5532 1140.15,-27.7999 1143.81,-33.7663"/>
</g>
<!-- Node6&#45;&gt;Node4 -->
<g id="edge45" class="edge"><title>Node6&#45;&gt;Node4</title>
<path fill="none" stroke="midnightblue" d="M1236.77,-208.89C1074.85,-184.55 650.418,-120.799 296,-68 188.013,-51.9127 157.339,-64.1466 53,-32 50.8645,-31.342 48.6917,-30.5565 46.5381,-29.6946"/>
<polygon fill="midnightblue" stroke="midnightblue" points="47.9506,-26.4922 37.3946,-25.5866 45.0819,-32.8774 47.9506,-26.4922"/>
</g>
<!-- Node7 -->
<g id="node7" class="node"><title>Node7</title>
<g id="a_node7"><a xlink:href="../../d5/d3f/InputSpec_8h.html" target="_top" xlink:title="Framework/InputSpec.h">
<polygon fill="none" stroke="black" points="1194.5,-142.5 1194.5,-161.5 1315.5,-161.5 1315.5,-142.5 1194.5,-142.5"/>
<text text-anchor="middle" x="1255" y="-149.5" font-family="Helvetica,sans-Serif" font-size="10.00">Framework/InputSpec.h</text>
</a>
</g>
</g>
<!-- Node6&#45;&gt;Node7 -->
<g id="edge6" class="edge"><title>Node6&#45;&gt;Node7</title>
<path fill="none" stroke="midnightblue" d="M1293.37,-204.679C1285.8,-194.49 1275.61,-180.759 1267.63,-170.011"/>
<polygon fill="midnightblue" stroke="midnightblue" points="1270.33,-167.771 1261.55,-161.828 1264.71,-171.944 1270.33,-167.771"/>
</g>
<!-- Node9 -->
<g id="node9" class="node"><title>Node9</title>
<g id="a_node9"><a xlink:href="../../dc/dcd/DataHeader_8h.html" target="_top" xlink:title="Headers/DataHeader.h">
<polygon fill="none" stroke="black" points="1355.5,-74.5 1355.5,-93.5 1472.5,-93.5 1472.5,-74.5 1355.5,-74.5"/>
<text text-anchor="middle" x="1414" y="-81.5" font-family="Helvetica,sans-Serif" font-size="10.00">Headers/DataHeader.h</text>
</a>
</g>
</g>
<!-- Node6&#45;&gt;Node9 -->
<g id="edge25" class="edge"><title>Node6&#45;&gt;Node9</title>
<path fill="none" stroke="midnightblue" d="M1371.02,-211.578C1398.65,-204.837 1428.1,-192.079 1445,-168 1459.5,-147.333 1442.66,-119.046 1428.71,-101.408"/>
<polygon fill="midnightblue" stroke="midnightblue" points="1431.35,-99.1043 1422.24,-93.6841 1425.98,-103.598 1431.35,-99.1043"/>
</g>
<!-- Node10 -->
<g id="node10" class="node"><title>Node10</title>
<polygon fill="none" stroke="#bfbfbf" points="1575,-6.5 1575,-25.5 1621,-25.5 1621,-6.5 1575,-6.5"/>
<text text-anchor="middle" x="1598" y="-13.5" font-family="Helvetica,sans-Serif" font-size="10.00">cstdint</text>
</g>
<!-- Node6&#45;&gt;Node10 -->
<g id="edge42" class="edge"><title>Node6&#45;&gt;Node10</title>
<path fill="none" stroke="midnightblue" d="M1371.24,-205.617C1400.68,-197.724 1434.67,-185.711 1462,-168 1518.62,-131.316 1566.53,-65.1862 1587.16,-34.067"/>
<polygon fill="midnightblue" stroke="midnightblue" points="1590.14,-35.8958 1592.66,-25.6046 1584.28,-32.0792 1590.14,-35.8958"/>
</g>
<!-- Node17 -->
<g id="node17" class="node"><title>Node17</title>
<g id="a_node17"><a xlink:href="../../d6/dc9/DataProcessingHeader_8h.html" target="_top" xlink:title="Framework/DataProcessing\lHeader.h">
<polygon fill="none" stroke="black" points="1530,-137 1530,-167 1668,-167 1668,-137 1530,-137"/>
<text text-anchor="start" x="1538" y="-155" font-family="Helvetica,sans-Serif" font-size="10.00">Framework/DataProcessing</text>
<text text-anchor="middle" x="1599" y="-144" font-family="Helvetica,sans-Serif" font-size="10.00">Header.h</text>
</a>
</g>
</g>
<!-- Node6&#45;&gt;Node17 -->
<g id="edge19" class="edge"><title>Node6&#45;&gt;Node17</title>
<path fill="none" stroke="midnightblue" d="M1366.92,-204.922C1413.62,-194.474 1477.41,-180.203 1526.29,-169.267"/>
<polygon fill="midnightblue" stroke="midnightblue" points="1527.18,-172.655 1536.17,-167.056 1525.65,-165.824 1527.18,-172.655"/>
</g>
<!-- Node19 -->
<g id="node19" class="node"><title>Node19</title>
<g id="a_node19"><a xlink:href="../../d4/d00/Headers_2include_2Headers_2Stack_8h.html" target="_top" xlink:title="Headers/Stack.h">
<polygon fill="none" stroke="black" points="1086,-142.5 1086,-161.5 1176,-161.5 1176,-142.5 1086,-142.5"/>
<text text-anchor="middle" x="1131" y="-149.5" font-family="Helvetica,sans-Serif" font-size="10.00">Headers/Stack.h</text>
</a>
</g>
</g>
<!-- Node6&#45;&gt;Node19 -->
<g id="edge26" class="edge"><title>Node6&#45;&gt;Node19</title>
<path fill="none" stroke="midnightblue" d="M1266.89,-204.841C1236.02,-193.067 1192.55,-176.48 1163.15,-165.265"/>
<polygon fill="midnightblue" stroke="midnightblue" points="1164.35,-161.976 1153.76,-161.682 1161.85,-168.517 1164.35,-161.976"/>
</g>
<!-- Node30 -->
<g id="node30" class="node"><title>Node30</title>
<polygon fill="none" stroke="#bfbfbf" points="1334,-142.5 1334,-161.5 1372,-161.5 1372,-142.5 1334,-142.5"/>
<text text-anchor="middle" x="1353" y="-149.5" font-family="Helvetica,sans-Serif" font-size="10.00">array</text>
</g>
<!-- Node6&#45;&gt;Node30 -->
<g id="edge41" class="edge"><title>Node6&#45;&gt;Node30</title>
<path fill="none" stroke="midnightblue" d="M1314.63,-204.679C1322.2,-194.49 1332.39,-180.759 1340.37,-170.011"/>
<polygon fill="midnightblue" stroke="midnightblue" points="1343.29,-171.944 1346.45,-161.828 1337.67,-167.771 1343.29,-171.944"/>
</g>
<!-- Node31 -->
<g id="node31" class="node"><title>Node31</title>
<polygon fill="none" stroke="#bfbfbf" points="1390,-142.5 1390,-161.5 1436,-161.5 1436,-142.5 1390,-142.5"/>
<text text-anchor="middle" x="1413" y="-149.5" font-family="Helvetica,sans-Serif" font-size="10.00">variant</text>
</g>
<!-- Node6&#45;&gt;Node31 -->
<g id="edge44" class="edge"><title>Node6&#45;&gt;Node31</title>
<path fill="none" stroke="midnightblue" d="M1327.38,-204.841C1345.9,-193.63 1371.62,-178.056 1390.03,-166.91"/>
<polygon fill="midnightblue" stroke="midnightblue" points="1391.92,-169.855 1398.66,-161.682 1388.29,-163.868 1391.92,-169.855"/>
</g>
<!-- Node7&#45;&gt;Node3 -->
<g id="edge17" class="edge"><title>Node7&#45;&gt;Node3</title>
<path fill="none" stroke="midnightblue" d="M1264.27,-142.449C1280.14,-126.765 1309.21,-92.7383 1292,-68 1265.74,-30.2487 1237.18,-50.3093 1195,-32 1193.6,-31.3914 1192.17,-30.7499 1190.73,-30.0886"/>
<polygon fill="midnightblue" stroke="midnightblue" points="1191.88,-26.7588 1181.35,-25.5774 1188.85,-33.0667 1191.88,-26.7588"/>
</g>
<!-- Node8 -->
<g id="node8" class="node"><title>Node8</title>
<g id="a_node8"><a xlink:href="../../dc/dca/Lifetime_8h.html" target="_top" xlink:title="Framework/Lifetime.h">
<polygon fill="none" stroke="black" points="1172.5,-74.5 1172.5,-93.5 1283.5,-93.5 1283.5,-74.5 1172.5,-74.5"/>
<text text-anchor="middle" x="1228" y="-81.5" font-family="Helvetica,sans-Serif" font-size="10.00">Framework/Lifetime.h</text>
</a>
</g>
</g>
<!-- Node7&#45;&gt;Node8 -->
<g id="edge7" class="edge"><title>Node7&#45;&gt;Node8</title>
<path fill="none" stroke="midnightblue" d="M1251.47,-142.372C1247.45,-132.544 1240.76,-116.202 1235.55,-103.467"/>
<polygon fill="midnightblue" stroke="midnightblue" points="1238.64,-101.771 1231.62,-93.8411 1232.16,-104.422 1238.64,-101.771"/>
</g>
<!-- Node7&#45;&gt;Node9 -->
<g id="edge8" class="edge"><title>Node7&#45;&gt;Node9</title>
<path fill="none" stroke="midnightblue" d="M1275.79,-142.372C1303.36,-130.927 1352.22,-110.644 1383.85,-97.5165"/>
<polygon fill="midnightblue" stroke="midnightblue" points="1385.57,-100.592 1393.46,-93.5259 1382.88,-94.1271 1385.57,-100.592"/>
</g>
<!-- Node16 -->
<g id="node16" class="node"><title>Node16</title>
<polygon fill="none" stroke="#bfbfbf" points="1102,-74.5 1102,-93.5 1154,-93.5 1154,-74.5 1102,-74.5"/>
<text text-anchor="middle" x="1128" y="-81.5" font-family="Helvetica,sans-Serif" font-size="10.00">ostream</text>
</g>
<!-- Node7&#45;&gt;Node16 -->
<g id="edge18" class="edge"><title>Node7&#45;&gt;Node16</title>
<path fill="none" stroke="midnightblue" d="M1238.4,-142.372C1216.81,-131.156 1178.9,-111.453 1153.62,-98.3136"/>
<polygon fill="midnightblue" stroke="midnightblue" points="1155.09,-95.1362 1144.61,-93.6305 1151.87,-101.348 1155.09,-95.1362"/>
</g>
<!-- Node9&#45;&gt;Node3 -->
<g id="edge15" class="edge"><title>Node9&#45;&gt;Node3</title>
<path fill="none" stroke="midnightblue" d="M1362.13,-74.4763C1317.12,-66.2467 1250.63,-52.07 1195,-32 1193.34,-31.4022 1191.66,-30.7363 1189.98,-30.0267"/>
<polygon fill="midnightblue" stroke="midnightblue" points="1191.12,-26.6975 1180.57,-25.6545 1188.17,-33.0448 1191.12,-26.6975"/>
</g>
<!-- Node9&#45;&gt;Node5 -->
<g id="edge10" class="edge"><title>Node9&#45;&gt;Node5</title>
<path fill="none" stroke="midnightblue" d="M1460.57,-74.4304C1504.76,-65.7329 1572.73,-50.8759 1630,-32 1632.42,-31.2033 1634.9,-30.3069 1637.37,-29.359"/>
<polygon fill="midnightblue" stroke="midnightblue" points="1638.77,-32.5693 1646.7,-25.5484 1636.12,-26.0889 1638.77,-32.5693"/>
</g>
<!-- Node9&#45;&gt;Node10 -->
<g id="edge9" class="edge"><title>Node9&#45;&gt;Node10</title>
<path fill="none" stroke="midnightblue" d="M1442.14,-74.4332C1472.69,-64.9124 1522.79,-48.6706 1565,-32 1566.84,-31.2717 1568.73,-30.4956 1570.63,-29.6944"/>
<polygon fill="midnightblue" stroke="midnightblue" points="1572.24,-32.811 1579.99,-25.5849 1569.42,-26.402 1572.24,-32.811"/>
</g>
<!-- Node11 -->
<g id="node11" class="node"><title>Node11</title>
<polygon fill="none" stroke="#bfbfbf" points="1709.5,-6.5 1709.5,-25.5 1758.5,-25.5 1758.5,-6.5 1709.5,-6.5"/>
<text text-anchor="middle" x="1734" y="-13.5" font-family="Helvetica,sans-Serif" font-size="10.00">cassert</text>
</g>
<!-- Node9&#45;&gt;Node11 -->
<g id="edge11" class="edge"><title>Node9&#45;&gt;Node11</title>
<path fill="none" stroke="midnightblue" d="M1472.75,-76.6913C1531.26,-69.4433 1623.17,-55.4273 1700,-32 1702.43,-31.259 1704.92,-30.3911 1707.39,-29.4529"/>
<polygon fill="midnightblue" stroke="midnightblue" points="1708.76,-32.6707 1716.66,-25.6054 1706.08,-26.2052 1708.76,-32.6707"/>
</g>
<!-- Node12 -->
<g id="node12" class="node"><title>Node12</title>
<polygon fill="none" stroke="#bfbfbf" points="1204,-6.5 1204,-25.5 1250,-25.5 1250,-6.5 1204,-6.5"/>
<text text-anchor="middle" x="1227" y="-13.5" font-family="Helvetica,sans-Serif" font-size="10.00">cstring</text>
</g>
<!-- Node9&#45;&gt;Node12 -->
<g id="edge12" class="edge"><title>Node9&#45;&gt;Node12</title>
<path fill="none" stroke="midnightblue" d="M1384.49,-74.4473C1353.02,-65.0612 1301.91,-49.0464 1259,-32 1257.35,-31.346 1255.67,-30.6487 1253.98,-29.9261"/>
<polygon fill="midnightblue" stroke="midnightblue" points="1254.99,-26.5438 1244.44,-25.6382 1252.13,-32.929 1254.99,-26.5438"/>
</g>
<!-- Node13 -->
<g id="node13" class="node"><title>Node13</title>
<polygon fill="none" stroke="#bfbfbf" points="1501,-6.5 1501,-25.5 1557,-25.5 1557,-6.5 1501,-6.5"/>
<text text-anchor="middle" x="1529" y="-13.5" font-family="Helvetica,sans-Serif" font-size="10.00">algorithm</text>
</g>
<!-- Node9&#45;&gt;Node13 -->
<g id="edge13" class="edge"><title>Node9&#45;&gt;Node13</title>
<path fill="none" stroke="midnightblue" d="M1429.03,-74.3717C1448.41,-63.2545 1482.3,-43.7997 1505.19,-30.6624"/>
<polygon fill="midnightblue" stroke="midnightblue" points="1507.03,-33.6437 1513.96,-25.6305 1503.55,-27.5725 1507.03,-33.6437"/>
</g>
<!-- Node14 -->
<g id="node14" class="node"><title>Node14</title>
<polygon fill="none" stroke="#bfbfbf" points="1268.5,-6.5 1268.5,-25.5 1327.5,-25.5 1327.5,-6.5 1268.5,-6.5"/>
<text text-anchor="middle" x="1298" y="-13.5" font-family="Helvetica,sans-Serif" font-size="10.00">stdexcept</text>
</g>
<!-- Node9&#45;&gt;Node14 -->
<g id="edge14" class="edge"><title>Node9&#45;&gt;Node14</title>
<path fill="none" stroke="midnightblue" d="M1398.84,-74.3717C1379.3,-63.2545 1345.1,-43.7997 1322.01,-30.6624"/>
<polygon fill="midnightblue" stroke="midnightblue" points="1323.59,-27.5337 1313.17,-25.6305 1320.13,-33.6178 1323.59,-27.5337"/>
</g>
<!-- Node15 -->
<g id="node15" class="node"><title>Node15</title>
<g id="a_node15"><a xlink:href="../../d7/df8/Types_8h.html" target="_top" xlink:title="MemoryResources/Types.h">
<polygon fill="none" stroke="black" points="1345.5,-6.5 1345.5,-25.5 1482.5,-25.5 1482.5,-6.5 1345.5,-6.5"/>
<text text-anchor="middle" x="1414" y="-13.5" font-family="Helvetica,sans-Serif" font-size="10.00">MemoryResources/Types.h</text>
</a>
</g>
</g>
<!-- Node9&#45;&gt;Node15 -->
<g id="edge16" class="edge"><title>Node9&#45;&gt;Node15</title>
<path fill="none" stroke="midnightblue" d="M1414,-74.3717C1414,-64.6426 1414,-48.528 1414,-35.8504"/>
<polygon fill="midnightblue" stroke="midnightblue" points="1417.5,-35.8411 1414,-25.8411 1410.5,-35.8412 1417.5,-35.8411"/>
</g>
<!-- Node17&#45;&gt;Node5 -->
<g id="edge23" class="edge"><title>Node17&#45;&gt;Node5</title>
<path fill="none" stroke="midnightblue" d="M1599.27,-136.976C1600.12,-119.791 1603.35,-90.224 1615,-68 1622.27,-54.1361 1634.53,-41.5428 1645.09,-32.3388"/>
<polygon fill="midnightblue" stroke="midnightblue" points="1647.6,-34.8017 1653.07,-25.7244 1643.13,-29.4133 1647.6,-34.8017"/>
</g>
<!-- Node17&#45;&gt;Node9 -->
<g id="edge20" class="edge"><title>Node17&#45;&gt;Node9</title>
<path fill="none" stroke="midnightblue" d="M1559.31,-136.841C1526.07,-124.982 1479.14,-108.239 1447.7,-97.0216"/>
<polygon fill="midnightblue" stroke="midnightblue" points="1448.66,-93.6505 1438.07,-93.5868 1446.31,-100.244 1448.66,-93.6505"/>
</g>
<!-- Node17&#45;&gt;Node10 -->
<g id="edge21" class="edge"><title>Node17&#45;&gt;Node10</title>
<path fill="none" stroke="midnightblue" d="M1592.81,-136.586C1588.84,-126.54 1584.06,-112.713 1582,-100 1579.72,-85.9614 1579.85,-82.0582 1582,-68 1583.69,-56.9369 1587.34,-44.978 1590.73,-35.4229"/>
<polygon fill="midnightblue" stroke="midnightblue" points="1594.09,-36.4246 1594.32,-25.8323 1587.54,-33.9689 1594.09,-36.4246"/>
</g>
<!-- Node17&#45;&gt;Node11 -->
<g id="edge24" class="edge"><title>Node17&#45;&gt;Node11</title>
<path fill="none" stroke="midnightblue" d="M1625.39,-136.887C1641.15,-127.678 1660.96,-114.667 1676,-100 1696.39,-80.1151 1714.2,-52.1595 1724.53,-34.3107"/>
<polygon fill="midnightblue" stroke="midnightblue" points="1727.61,-35.9798 1729.47,-25.5499 1721.51,-32.5421 1727.61,-35.9798"/>
</g>
<!-- Node18 -->
<g id="node18" class="node"><title>Node18</title>
<polygon fill="none" stroke="#bfbfbf" points="1624.5,-74.5 1624.5,-93.5 1667.5,-93.5 1667.5,-74.5 1624.5,-74.5"/>
<text text-anchor="middle" x="1646" y="-81.5" font-family="Helvetica,sans-Serif" font-size="10.00">cstdio</text>
</g>
<!-- Node17&#45;&gt;Node18 -->
<g id="edge22" class="edge"><title>Node17&#45;&gt;Node18</title>
<path fill="none" stroke="midnightblue" d="M1609.2,-136.679C1616.45,-126.49 1626.23,-112.759 1633.89,-102.011"/>
<polygon fill="midnightblue" stroke="midnightblue" points="1636.76,-104.004 1639.71,-93.8283 1631.06,-99.9437 1636.76,-104.004"/>
</g>
<!-- Node19&#45;&gt;Node9 -->
<g id="edge40" class="edge"><title>Node19&#45;&gt;Node9</title>
<path fill="none" stroke="midnightblue" d="M1160.64,-142.47C1168.53,-140.279 1177.07,-137.983 1185,-136 1245.74,-120.811 1316.11,-105.474 1362.63,-95.6437"/>
<polygon fill="midnightblue" stroke="midnightblue" points="1363.41,-99.0563 1372.48,-93.571 1361.97,-92.2065 1363.41,-99.0563"/>
</g>
<!-- Node20 -->
<g id="node20" class="node"><title>Node20</title>
<g id="a_node20"><a xlink:href="../../dc/d03/MemoryResources_8h.html" target="_top" xlink:title="MemoryResources/MemoryResources.h">
<polygon fill="none" stroke="black" points="646.5,-74.5 646.5,-93.5 839.5,-93.5 839.5,-74.5 646.5,-74.5"/>
<text text-anchor="middle" x="743" y="-81.5" font-family="Helvetica,sans-Serif" font-size="10.00">MemoryResources/MemoryResources.h</text>
</a>
</g>
</g>
<!-- Node19&#45;&gt;Node20 -->
<g id="edge27" class="edge"><title>Node19&#45;&gt;Node20</title>
<path fill="none" stroke="midnightblue" d="M1085.73,-143.3C1015.81,-131.405 881.456,-108.552 803.347,-95.2651"/>
<polygon fill="midnightblue" stroke="midnightblue" points="803.622,-91.7618 793.177,-93.5352 802.448,-98.6627 803.622,-91.7618"/>
</g>
<!-- Node20&#45;&gt;Node3 -->
<g id="edge33" class="edge"><title>Node20&#45;&gt;Node3</title>
<path fill="none" stroke="midnightblue" d="M802.127,-74.4691C817.39,-72.3118 833.802,-70.0318 849,-68 975.984,-51.0242 1012.4,-69.1782 1135,-32 1136.96,-31.4043 1138.96,-30.6883 1140.93,-29.8964"/>
<polygon fill="midnightblue" stroke="midnightblue" points="1142.84,-32.8718 1150.46,-25.5097 1139.91,-26.5137 1142.84,-32.8718"/>
</g>
<!-- Node20&#45;&gt;Node4 -->
<g id="edge36" class="edge"><title>Node20&#45;&gt;Node4</title>
<path fill="none" stroke="midnightblue" d="M685.767,-74.462C668.517,-72.1057 649.514,-69.7256 632,-68 375.412,-42.7195 302.403,-97.3804 53,-32 50.6577,-31.386 48.2806,-30.5908 45.9384,-29.6872"/>
<polygon fill="midnightblue" stroke="midnightblue" points="47.2426,-26.4364 36.685,-25.5483 44.3844,-32.8263 47.2426,-26.4364"/>
</g>
<!-- Node20&#45;&gt;Node12 -->
<g id="edge32" class="edge"><title>Node20&#45;&gt;Node12</title>
<path fill="none" stroke="midnightblue" d="M800.438,-74.4812C816.167,-72.255 833.228,-69.9382 849,-68 1002.01,-49.1965 1045.23,-72.422 1194,-32 1196.5,-31.3214 1199.04,-30.4737 1201.56,-29.5288"/>
<polygon fill="midnightblue" stroke="midnightblue" points="1203.1,-32.679 1210.94,-25.5546 1200.37,-26.2337 1203.1,-32.679"/>
</g>
<!-- Node21 -->
<g id="node21" class="node"><title>Node21</title>
<polygon fill="none" stroke="#bfbfbf" points="1026,-1 1026,-31 1126,-31 1126,-1 1026,-1"/>
<text text-anchor="start" x="1034" y="-19" font-family="Helvetica,sans-Serif" font-size="10.00">boost/container/flat</text>
<text text-anchor="middle" x="1076" y="-8" font-family="Helvetica,sans-Serif" font-size="10.00">_map.hpp</text>
</g>
<!-- Node20&#45;&gt;Node21 -->
<g id="edge28" class="edge"><title>Node20&#45;&gt;Node21</title>
<path fill="none" stroke="midnightblue" d="M793.751,-74.4622C848.708,-64.9972 938.862,-48.8315 1016,-32 1016.1,-31.9778 1016.2,-31.9556 1016.31,-31.9333"/>
<polygon fill="midnightblue" stroke="midnightblue" points="1016.98,-35.3689 1025.96,-29.749 1015.44,-28.5414 1016.98,-35.3689"/>
</g>
<!-- Node22 -->
<g id="node22" class="node"><title>Node22</title>
<polygon fill="none" stroke="#bfbfbf" points="62,-1 62,-31 178,-31 178,-1 62,-1"/>
<text text-anchor="start" x="70" y="-19" font-family="Helvetica,sans-Serif" font-size="10.00">boost/container/pmr</text>
<text text-anchor="middle" x="120" y="-8" font-family="Helvetica,sans-Serif" font-size="10.00">/memory_resource.hpp</text>
</g>
<!-- Node20&#45;&gt;Node22 -->
<g id="edge29" class="edge"><title>Node20&#45;&gt;Node22</title>
<path fill="none" stroke="midnightblue" d="M684.313,-74.4715C667.447,-72.1828 649.014,-69.8364 632,-68 437.997,-47.0596 384.933,-61.258 188.104,-32.0255"/>
<polygon fill="midnightblue" stroke="midnightblue" points="188.42,-28.5338 178.011,-30.5075 187.379,-35.456 188.42,-28.5338"/>
</g>
<!-- Node23 -->
<g id="node23" class="node"><title>Node23</title>
<polygon fill="none" stroke="#bfbfbf" points="196,-1 196,-31 352,-31 352,-1 196,-1"/>
<text text-anchor="start" x="204" y="-19" font-family="Helvetica,sans-Serif" font-size="10.00">boost/container/pmr</text>
<text text-anchor="middle" x="274" y="-8" font-family="Helvetica,sans-Serif" font-size="10.00">/monotonic_buffer_resource.hpp</text>
</g>
<!-- Node20&#45;&gt;Node23 -->
<g id="edge30" class="edge"><title>Node20&#45;&gt;Node23</title>
<path fill="none" stroke="midnightblue" d="M680.192,-74.4873C664.457,-72.3616 647.612,-70.0918 632,-68 514.749,-52.2898 482.782,-50.4168 362.224,-32.1553"/>
<polygon fill="midnightblue" stroke="midnightblue" points="362.644,-28.679 352.231,-30.6351 361.591,-35.5994 362.644,-28.679"/>
</g>
<!-- Node24 -->
<g id="node24" class="node"><title>Node24</title>
<polygon fill="none" stroke="#bfbfbf" points="370.5,-1 370.5,-31 503.5,-31 503.5,-1 370.5,-1"/>
<text text-anchor="start" x="378.5" y="-19" font-family="Helvetica,sans-Serif" font-size="10.00">boost/container/pmr</text>
<text text-anchor="middle" x="437" y="-8" font-family="Helvetica,sans-Serif" font-size="10.00">/polymorphic_allocator.hpp</text>
</g>
<!-- Node20&#45;&gt;Node24 -->
<g id="edge31" class="edge"><title>Node20&#45;&gt;Node24</title>
<path fill="none" stroke="midnightblue" d="M703.31,-74.4393C654.98,-64.0153 572.334,-46.1897 511.901,-33.155"/>
<polygon fill="midnightblue" stroke="midnightblue" points="512.537,-29.7119 502.024,-31.0247 511.061,-36.5545 512.537,-29.7119"/>
</g>
<!-- Node25 -->
<g id="node25" class="node"><title>Node25</title>
<polygon fill="none" stroke="#bfbfbf" points="522,-6.5 522,-25.5 584,-25.5 584,-6.5 522,-6.5"/>
<text text-anchor="middle" x="553" y="-13.5" font-family="Helvetica,sans-Serif" font-size="10.00">type_traits</text>
</g>
<!-- Node20&#45;&gt;Node25 -->
<g id="edge34" class="edge"><title>Node20&#45;&gt;Node25</title>
<path fill="none" stroke="midnightblue" d="M717.169,-74.4883C687.212,-64.5541 636.384,-47.5057 593,-32 590.405,-31.0725 587.721,-30.0983 585.028,-29.1104"/>
<polygon fill="midnightblue" stroke="midnightblue" points="585.973,-25.7282 575.38,-25.5322 583.539,-32.2913 585.973,-25.7282"/>
</g>
<!-- Node26 -->
<g id="node26" class="node"><title>Node26</title>
<polygon fill="none" stroke="#bfbfbf" points="602,-6.5 602,-25.5 642,-25.5 642,-6.5 602,-6.5"/>
<text text-anchor="middle" x="622" y="-13.5" font-family="Helvetica,sans-Serif" font-size="10.00">utility</text>
</g>
<!-- Node20&#45;&gt;Node26 -->
<g id="edge35" class="edge"><title>Node20&#45;&gt;Node26</title>
<path fill="none" stroke="midnightblue" d="M727.181,-74.3717C706.709,-63.2051 670.815,-43.6266 646.727,-30.4876"/>
<polygon fill="midnightblue" stroke="midnightblue" points="648.277,-27.3464 637.823,-25.6305 644.925,-33.4917 648.277,-27.3464"/>
</g>
<!-- Node27 -->
<g id="node27" class="node"><title>Node27</title>
<polygon fill="none" stroke="#bfbfbf" points="660.5,-6.5 660.5,-25.5 743.5,-25.5 743.5,-6.5 660.5,-6.5"/>
<text text-anchor="middle" x="702" y="-13.5" font-family="Helvetica,sans-Serif" font-size="10.00">unordered_map</text>
</g>
<!-- Node20&#45;&gt;Node27 -->
<g id="edge37" class="edge"><title>Node20&#45;&gt;Node27</title>
<path fill="none" stroke="midnightblue" d="M737.64,-74.3717C731.413,-64.3478 720.975,-47.5455 713,-34.7076"/>
<polygon fill="midnightblue" stroke="midnightblue" points="715.742,-32.4886 707.492,-25.8411 709.796,-36.1825 715.742,-32.4886"/>
</g>
<!-- Node28 -->
<g id="node28" class="node"><title>Node28</title>
<polygon fill="none" stroke="#bfbfbf" points="761.5,-6.5 761.5,-25.5 858.5,-25.5 858.5,-6.5 761.5,-6.5"/>
<text text-anchor="middle" x="810" y="-13.5" font-family="Helvetica,sans-Serif" font-size="10.00">FairMQMessage.h</text>
</g>
<!-- Node20&#45;&gt;Node28 -->
<g id="edge38" class="edge"><title>Node20&#45;&gt;Node28</title>
<path fill="none" stroke="midnightblue" d="M751.759,-74.3717C762.334,-63.9547 780.34,-46.2173 793.538,-33.2162"/>
<polygon fill="midnightblue" stroke="midnightblue" points="796.357,-35.3523 801.025,-25.8411 791.445,-30.3654 796.357,-35.3523"/>
</g>
<!-- Node29 -->
<g id="node29" class="node"><title>Node29</title>
<polygon fill="none" stroke="#bfbfbf" points="876.5,-6.5 876.5,-25.5 1007.5,-25.5 1007.5,-6.5 876.5,-6.5"/>
<text text-anchor="middle" x="942" y="-13.5" font-family="Helvetica,sans-Serif" font-size="10.00">FairMQTransportFactory.h</text>
</g>
<!-- Node20&#45;&gt;Node29 -->
<g id="edge39" class="edge"><title>Node20&#45;&gt;Node29</title>
<path fill="none" stroke="midnightblue" d="M769.016,-74.3717C804.272,-62.6788 867.338,-41.7623 906.8,-28.6743"/>
<polygon fill="midnightblue" stroke="midnightblue" points="907.903,-31.996 916.293,-25.5259 905.7,-25.3519 907.903,-31.996"/>
</g>
</g>
</svg>
        <g id="navigator" transform="translate(0 0)" fill="#404254">
                <rect fill="#f2f5e9" fill-opacity="0.5" stroke="#606060" stroke-width=".5" x="0" y="0" width="60" height="60"/>
                <use id="zoomplus" xlink:href="#zoomPlus" x="17" y="9" onmousedown="handleZoom(evt,'in')"/>
                <use id="zoomminus" xlink:href="#zoomMin" x="42" y="9" onmousedown="handleZoom(evt,'out')"/>
                <use id="reset" xlink:href="#resetDef" x="30" y="36" onmousedown="handleReset()"/>
                <g id="arrowUp" xlink:href="#dirArrow" transform="translate(30 24)" onmousedown="handlePan(0,-1)">
                  <use xlink:href="#rim" fill="#404040">
                        <set attributeName="fill" to="#808080" begin="arrowUp.mouseover" end="arrowUp.mouseout"/>
                  </use>
                  <path fill="none" stroke="white" stroke-width="1.5" d="M0,-3.0v7 M-2.5,-0.5L0,-3.0L2.5,-0.5"/>
                </g>
                <g id="arrowRight" xlink:href="#dirArrow" transform="rotate(90) translate(36 -43)" onmousedown="handlePan(1,0)">
                  <use xlink:href="#rim" fill="#404040">
                        <set attributeName="fill" to="#808080" begin="arrowRight.mouseover" end="arrowRight.mouseout"/>
                  </use>
                  <path fill="none" stroke="white" stroke-width="1.5" d="M0,-3.0v7 M-2.5,-0.5L0,-3.0L2.5,-0.5"/>
                </g>
                <g id="arrowDown" xlink:href="#dirArrow" transform="rotate(180) translate(-30 -48)" onmousedown="handlePan(0,1)">
                  <use xlink:href="#rim" fill="#404040">
                        <set attributeName="fill" to="#808080" begin="arrowDown.mouseover" end="arrowDown.mouseout"/>
                  </use>
                  <path fill="none" stroke="white" stroke-width="1.5" d="M0,-3.0v7 M-2.5,-0.5L0,-3.0L2.5,-0.5"/>
                </g>
                <g id="arrowLeft" xlink:href="#dirArrow" transform="rotate(270) translate(-36 17)" onmousedown="handlePan(-1,0)">
                  <use xlink:href="#rim" fill="#404040">
                        <set attributeName="fill" to="#808080" begin="arrowLeft.mouseover" end="arrowLeft.mouseout"/>
                  </use>
                  <path fill="none" stroke="white" stroke-width="1.5" d="M0,-3.0v7 M-2.5,-0.5L0,-3.0L2.5,-0.5"/>
                </g>
        </g>
        <svg viewBox="0 0 15 15" width="100%" height="30px" preserveAspectRatio="xMaxYMin meet">
         <g id="arrow_out" transform="scale(0.3 0.3)">
          <a xlink:href="DataDescriptorQueryBuilder_8cxx__incl_org.svg" target="_base">
           <rect id="button" ry="5" rx="5" y="6" x="6" height="38" width="38"
                fill="#f2f5e9" fill-opacity="0.5" stroke="#606060" stroke-width="1.0"/>
           <path id="arrow"
             d="M 11.500037,31.436501 C 11.940474,20.09759 22.043105,11.32322 32.158766,21.979434 L 37.068811,17.246167 C 37.068811,17.246167 37.088388,32 37.088388,32 L 22.160133,31.978069 C 22.160133,31.978069 26.997745,27.140456 26.997745,27.140456 C 18.528582,18.264221 13.291696,25.230495 11.500037,31.436501 z"
             style="fill:#404040;"/>
          </a>
         </g>
        </svg>
</svg>
