<?xml version="1.0" encoding="UTF-8" standalone="no"?>
<!DOCTYPE svg PUBLIC "-//W3C//DTD SVG 1.1//EN"
 "http://www.w3.org/Graphics/SVG/1.1/DTD/svg11.dtd">
<!-- Generated by graphviz version 2.36.0 (20140111.2315)
 -->
<!-- Title: o2::trd::Detector Pages: 1 -->
<svg width="634pt" height="1208pt"
 viewBox="0.00 0.00 634.00 1208.00" xmlns="http://www.w3.org/2000/svg" xmlns:xlink="http://www.w3.org/1999/xlink">
<g id="graph0" class="graph" transform="scale(1 1) rotate(0) translate(4 1204)">
<title>o2::trd::Detector</title>
<!-- Node1 -->
<g id="node1" class="node"><title>Node1</title>
<polygon fill="#bfbfbf" stroke="black" points="248,-1 248,-157 366,-157 366,-1 248,-1"/>
<text text-anchor="middle" x="307" y="-145" font-family="Helvetica,sans-Serif" font-size="10.00">o2::trd::Detector</text>
<polyline fill="none" stroke="black" points="248,-138 366,-138 "/>
<text text-anchor="middle" x="307" y="-126" font-family="Helvetica,sans-Serif" font-size="10.00"> </text>
<polyline fill="none" stroke="black" points="248,-119 366,-119 "/>
<text text-anchor="start" x="256" y="-107" font-family="Helvetica,sans-Serif" font-size="10.00">+ Detector()</text>
<text text-anchor="start" x="256" y="-96" font-family="Helvetica,sans-Serif" font-size="10.00">+ ~Detector()</text>
<text text-anchor="start" x="256" y="-85" font-family="Helvetica,sans-Serif" font-size="10.00">+ InitializeO2Detector()</text>
<text text-anchor="start" x="256" y="-74" font-family="Helvetica,sans-Serif" font-size="10.00">+ ProcessHits()</text>
<text text-anchor="start" x="256" y="-63" font-family="Helvetica,sans-Serif" font-size="10.00">+ Register()</text>
<text text-anchor="start" x="256" y="-52" font-family="Helvetica,sans-Serif" font-size="10.00">+ getHits()</text>
<text text-anchor="start" x="256" y="-41" font-family="Helvetica,sans-Serif" font-size="10.00">+ Reset()</text>
<text text-anchor="start" x="256" y="-30" font-family="Helvetica,sans-Serif" font-size="10.00">+ EndOfEvent()</text>
<text text-anchor="start" x="256" y="-19" font-family="Helvetica,sans-Serif" font-size="10.00">+ createMaterials()</text>
<text text-anchor="start" x="256" y="-8" font-family="Helvetica,sans-Serif" font-size="10.00">+ ConstructGeometry()</text>
</g>
<!-- Node2 -->
<g id="node2" class="node"><title>Node2</title>
<g id="a_node2"><a xlink:href="../../d4/d8a/classo2_1_1Base_1_1DetImpl.html" target="_top" xlink:title="{o2::Base::DetImpl\&lt;\l Detector \&gt;\n||+ getHitBranchNames()\l+ updateHitTrackIndices()\l+ attachHits()\l+ fillHitBranch()\l+ CloneModule()\l+ freeHitBuffers()\l+ setHits()\l+ createHitBuffers()\l+ initializeLate()\l+ BeginEvent()\l+ ~DetImpl()\l# ClassDefOverride()\l}">
<polygon fill="none" stroke="black" points="242,-196.5 242,-385.5 372,-385.5 372,-196.5 242,-196.5"/>
<text text-anchor="start" x="250" y="-373.5" font-family="Helvetica,sans-Serif" font-size="10.00">o2::Base::DetImpl&lt;</text>
<text text-anchor="middle" x="307" y="-362.5" font-family="Helvetica,sans-Serif" font-size="10.00"> Detector &gt;</text>
<polyline fill="none" stroke="black" points="242,-355.5 372,-355.5 "/>
<text text-anchor="middle" x="307" y="-343.5" font-family="Helvetica,sans-Serif" font-size="10.00"> </text>
<polyline fill="none" stroke="black" points="242,-336.5 372,-336.5 "/>
<text text-anchor="start" x="250" y="-324.5" font-family="Helvetica,sans-Serif" font-size="10.00">+ getHitBranchNames()</text>
<text text-anchor="start" x="250" y="-313.5" font-family="Helvetica,sans-Serif" font-size="10.00">+ updateHitTrackIndices()</text>
<text text-anchor="start" x="250" y="-302.5" font-family="Helvetica,sans-Serif" font-size="10.00">+ attachHits()</text>
<text text-anchor="start" x="250" y="-291.5" font-family="Helvetica,sans-Serif" font-size="10.00">+ fillHitBranch()</text>
<text text-anchor="start" x="250" y="-280.5" font-family="Helvetica,sans-Serif" font-size="10.00">+ CloneModule()</text>
<text text-anchor="start" x="250" y="-269.5" font-family="Helvetica,sans-Serif" font-size="10.00">+ freeHitBuffers()</text>
<text text-anchor="start" x="250" y="-258.5" font-family="Helvetica,sans-Serif" font-size="10.00">+ setHits()</text>
<text text-anchor="start" x="250" y="-247.5" font-family="Helvetica,sans-Serif" font-size="10.00">+ createHitBuffers()</text>
<text text-anchor="start" x="250" y="-236.5" font-family="Helvetica,sans-Serif" font-size="10.00">+ initializeLate()</text>
<text text-anchor="start" x="250" y="-225.5" font-family="Helvetica,sans-Serif" font-size="10.00">+ BeginEvent()</text>
<text text-anchor="start" x="250" y="-214.5" font-family="Helvetica,sans-Serif" font-size="10.00">+ ~DetImpl()</text>
<text text-anchor="start" x="250" y="-203.5" font-family="Helvetica,sans-Serif" font-size="10.00"># ClassDefOverride()</text>
</a>
</g>
</g>
<!-- Node2&#45;&gt;Node1 -->
<g id="edge1" class="edge"><title>Node2&#45;&gt;Node1</title>
<path fill="none" stroke="midnightblue" d="M307,-186.177C307,-176.385 307,-166.58 307,-157.101"/>
<polygon fill="none" stroke="midnightblue" points="303.5,-186.362 307,-196.362 310.5,-186.362 303.5,-186.362"/>
</g>
<!-- Node3 -->
<g id="node3" class="node"><title>Node3</title>
<g id="a_node3"><a xlink:href="../../d7/d02/classo2_1_1Base_1_1Detector.html" target="_top" xlink:title="{o2::Base::Detector\n||+ Detector()\l+ Detector()\l+ ~Detector()\l+ Material()\l+ Mixture()\l+ Medium()\l+ SpecialCuts()\l+ SpecialCut()\l+ SpecialProcesses()\l+ SpecialProcess()\l+ Matrix()\l+ addAlignableVolumes()\l+ defineWrapperVolume()\l+ setNumberOfWrapperVolumes()\l+ defineLayer()\l+ defineLayerTurbo()\l+ getMaterialID()\l+ getMediumID()\l+ getMediumIDMappingAsVector()\l+ addNameTo()\l+ getHitBranchNames()\l+ updateHitTrackIndices()\l+ attachHits()\l+ fillHitBranch()\l+ InitializeO2Detector()\l+ Initialize()\l+ initializeLate()\l+ GetCollection()\l+ setDensityFactor()\l+ getDensityFactor()\l+ initFieldTrackingParams()\l# Detector()\l# operator=()\l}">
<polygon fill="none" stroke="black" points="-0.5,-694.5 -0.5,-1103.5 166.5,-1103.5 166.5,-694.5 -0.5,-694.5"/>
<text text-anchor="middle" x="83" y="-1091.5" font-family="Helvetica,sans-Serif" font-size="10.00">o2::Base::Detector</text>
<polyline fill="none" stroke="black" points="-0.5,-1084.5 166.5,-1084.5 "/>
<text text-anchor="middle" x="83" y="-1072.5" font-family="Helvetica,sans-Serif" font-size="10.00"> </text>
<polyline fill="none" stroke="black" points="-0.5,-1065.5 166.5,-1065.5 "/>
<text text-anchor="start" x="7.5" y="-1053.5" font-family="Helvetica,sans-Serif" font-size="10.00">+ Detector()</text>
<text text-anchor="start" x="7.5" y="-1042.5" font-family="Helvetica,sans-Serif" font-size="10.00">+ Detector()</text>
<text text-anchor="start" x="7.5" y="-1031.5" font-family="Helvetica,sans-Serif" font-size="10.00">+ ~Detector()</text>
<text text-anchor="start" x="7.5" y="-1020.5" font-family="Helvetica,sans-Serif" font-size="10.00">+ Material()</text>
<text text-anchor="start" x="7.5" y="-1009.5" font-family="Helvetica,sans-Serif" font-size="10.00">+ Mixture()</text>
<text text-anchor="start" x="7.5" y="-998.5" font-family="Helvetica,sans-Serif" font-size="10.00">+ Medium()</text>
<text text-anchor="start" x="7.5" y="-987.5" font-family="Helvetica,sans-Serif" font-size="10.00">+ SpecialCuts()</text>
<text text-anchor="start" x="7.5" y="-976.5" font-family="Helvetica,sans-Serif" font-size="10.00">+ SpecialCut()</text>
<text text-anchor="start" x="7.5" y="-965.5" font-family="Helvetica,sans-Serif" font-size="10.00">+ SpecialProcesses()</text>
<text text-anchor="start" x="7.5" y="-954.5" font-family="Helvetica,sans-Serif" font-size="10.00">+ SpecialProcess()</text>
<text text-anchor="start" x="7.5" y="-943.5" font-family="Helvetica,sans-Serif" font-size="10.00">+ Matrix()</text>
<text text-anchor="start" x="7.5" y="-932.5" font-family="Helvetica,sans-Serif" font-size="10.00">+ addAlignableVolumes()</text>
<text text-anchor="start" x="7.5" y="-921.5" font-family="Helvetica,sans-Serif" font-size="10.00">+ defineWrapperVolume()</text>
<text text-anchor="start" x="7.5" y="-910.5" font-family="Helvetica,sans-Serif" font-size="10.00">+ setNumberOfWrapperVolumes()</text>
<text text-anchor="start" x="7.5" y="-899.5" font-family="Helvetica,sans-Serif" font-size="10.00">+ defineLayer()</text>
<text text-anchor="start" x="7.5" y="-888.5" font-family="Helvetica,sans-Serif" font-size="10.00">+ defineLayerTurbo()</text>
<text text-anchor="start" x="7.5" y="-877.5" font-family="Helvetica,sans-Serif" font-size="10.00">+ getMaterialID()</text>
<text text-anchor="start" x="7.5" y="-866.5" font-family="Helvetica,sans-Serif" font-size="10.00">+ getMediumID()</text>
<text text-anchor="start" x="7.5" y="-855.5" font-family="Helvetica,sans-Serif" font-size="10.00">+ getMediumIDMappingAsVector()</text>
<text text-anchor="start" x="7.5" y="-844.5" font-family="Helvetica,sans-Serif" font-size="10.00">+ addNameTo()</text>
<text text-anchor="start" x="7.5" y="-833.5" font-family="Helvetica,sans-Serif" font-size="10.00">+ getHitBranchNames()</text>
<text text-anchor="start" x="7.5" y="-822.5" font-family="Helvetica,sans-Serif" font-size="10.00">+ updateHitTrackIndices()</text>
<text text-anchor="start" x="7.5" y="-811.5" font-family="Helvetica,sans-Serif" font-size="10.00">+ attachHits()</text>
<text text-anchor="start" x="7.5" y="-800.5" font-family="Helvetica,sans-Serif" font-size="10.00">+ fillHitBranch()</text>
<text text-anchor="start" x="7.5" y="-789.5" font-family="Helvetica,sans-Serif" font-size="10.00">+ InitializeO2Detector()</text>
<text text-anchor="start" x="7.5" y="-778.5" font-family="Helvetica,sans-Serif" font-size="10.00">+ Initialize()</text>
<text text-anchor="start" x="7.5" y="-767.5" font-family="Helvetica,sans-Serif" font-size="10.00">+ initializeLate()</text>
<text text-anchor="start" x="7.5" y="-756.5" font-family="Helvetica,sans-Serif" font-size="10.00">+ GetCollection()</text>
<text text-anchor="start" x="7.5" y="-745.5" font-family="Helvetica,sans-Serif" font-size="10.00">+ setDensityFactor()</text>
<text text-anchor="start" x="7.5" y="-734.5" font-family="Helvetica,sans-Serif" font-size="10.00">+ getDensityFactor()</text>
<text text-anchor="start" x="7.5" y="-723.5" font-family="Helvetica,sans-Serif" font-size="10.00">+ initFieldTrackingParams()</text>
<text text-anchor="start" x="7.5" y="-712.5" font-family="Helvetica,sans-Serif" font-size="10.00"># Detector()</text>
<text text-anchor="start" x="7.5" y="-701.5" font-family="Helvetica,sans-Serif" font-size="10.00"># operator=()</text>
</a>
</g>
</g>
<!-- Node3&#45;&gt;Node2 -->
<g id="edge2" class="edge"><title>Node3&#45;&gt;Node2</title>
<path fill="none" stroke="midnightblue" d="M52.5074,-684.326C50.4327,-601.618 60.7348,-509.007 102,-434 132.26,-378.997 194.008,-340.746 241.867,-317.916"/>
<polygon fill="none" stroke="midnightblue" points="49.0102,-684.476 52.8205,-694.362 56.0068,-684.258 49.0102,-684.476"/>
</g>
<!-- Node9 -->
<g id="node9" class="node"><title>Node9</title>
<g id="a_node9"><a xlink:href="../../d4/d8a/classo2_1_1Base_1_1DetImpl.html" target="_top" xlink:title="{o2::Base::DetImpl\&lt;\l Det \&gt;\n||+ getHitBranchNames()\l+ updateHitTrackIndices()\l+ attachHits()\l+ fillHitBranch()\l+ CloneModule()\l+ freeHitBuffers()\l+ setHits()\l+ createHitBuffers()\l+ initializeLate()\l+ BeginEvent()\l+ ~DetImpl()\l# ClassDefOverride()\l}">
<polygon fill="none" stroke="black" points="289,-434.5 289,-623.5 419,-623.5 419,-434.5 289,-434.5"/>
<text text-anchor="start" x="297" y="-611.5" font-family="Helvetica,sans-Serif" font-size="10.00">o2::Base::DetImpl&lt;</text>
<text text-anchor="middle" x="354" y="-600.5" font-family="Helvetica,sans-Serif" font-size="10.00"> Det &gt;</text>
<polyline fill="none" stroke="black" points="289,-593.5 419,-593.5 "/>
<text text-anchor="middle" x="354" y="-581.5" font-family="Helvetica,sans-Serif" font-size="10.00"> </text>
<polyline fill="none" stroke="black" points="289,-574.5 419,-574.5 "/>
<text text-anchor="start" x="297" y="-562.5" font-family="Helvetica,sans-Serif" font-size="10.00">+ getHitBranchNames()</text>
<text text-anchor="start" x="297" y="-551.5" font-family="Helvetica,sans-Serif" font-size="10.00">+ updateHitTrackIndices()</text>
<text text-anchor="start" x="297" y="-540.5" font-family="Helvetica,sans-Serif" font-size="10.00">+ attachHits()</text>
<text text-anchor="start" x="297" y="-529.5" font-family="Helvetica,sans-Serif" font-size="10.00">+ fillHitBranch()</text>
<text text-anchor="start" x="297" y="-518.5" font-family="Helvetica,sans-Serif" font-size="10.00">+ CloneModule()</text>
<text text-anchor="start" x="297" y="-507.5" font-family="Helvetica,sans-Serif" font-size="10.00">+ freeHitBuffers()</text>
<text text-anchor="start" x="297" y="-496.5" font-family="Helvetica,sans-Serif" font-size="10.00">+ setHits()</text>
<text text-anchor="start" x="297" y="-485.5" font-family="Helvetica,sans-Serif" font-size="10.00">+ createHitBuffers()</text>
<text text-anchor="start" x="297" y="-474.5" font-family="Helvetica,sans-Serif" font-size="10.00">+ initializeLate()</text>
<text text-anchor="start" x="297" y="-463.5" font-family="Helvetica,sans-Serif" font-size="10.00">+ BeginEvent()</text>
<text text-anchor="start" x="297" y="-452.5" font-family="Helvetica,sans-Serif" font-size="10.00">+ ~DetImpl()</text>
<text text-anchor="start" x="297" y="-441.5" font-family="Helvetica,sans-Serif" font-size="10.00"># ClassDefOverride()</text>
</a>
</g>
</g>
<!-- Node3&#45;&gt;Node9 -->
<g id="edge9" class="edge"><title>Node3&#45;&gt;Node9</title>
<path fill="none" stroke="midnightblue" d="M156.044,-685.575C167.538,-669.311 180.774,-654.422 196,-642 225.247,-618.138 246.928,-643.905 279,-624 282.37,-621.908 285.654,-619.609 288.844,-617.145"/>
<polygon fill="none" stroke="midnightblue" points="152.91,-683.96 150.191,-694.2 158.702,-687.891 152.91,-683.96"/>
</g>
<!-- Node4 -->
<g id="node4" class="node"><title>Node4</title>
<g id="a_node4"><a xlink:href="../../d6/d0c/classFairDetector.html" target="_top" xlink:title="{FairDetector\n||}">
<polygon fill="none" stroke="black" points="47.5,-1142.5 47.5,-1199.5 118.5,-1199.5 118.5,-1142.5 47.5,-1142.5"/>
<text text-anchor="middle" x="83" y="-1187.5" font-family="Helvetica,sans-Serif" font-size="10.00">FairDetector</text>
<polyline fill="none" stroke="black" points="47.5,-1180.5 118.5,-1180.5 "/>
<text text-anchor="middle" x="83" y="-1168.5" font-family="Helvetica,sans-Serif" font-size="10.00"> </text>
<polyline fill="none" stroke="black" points="47.5,-1161.5 118.5,-1161.5 "/>
<text text-anchor="middle" x="83" y="-1149.5" font-family="Helvetica,sans-Serif" font-size="10.00"> </text>
</a>
</g>
</g>
<!-- Node4&#45;&gt;Node3 -->
<g id="edge3" class="edge"><title>Node4&#45;&gt;Node3</title>
<path fill="none" stroke="midnightblue" d="M83,-1132.15C83,-1123.59 83,-1113.92 83,-1103.51"/>
<polygon fill="none" stroke="midnightblue" points="79.5001,-1132.37 83,-1142.37 86.5001,-1132.37 79.5001,-1132.37"/>
</g>
<!-- Node5 -->
<g id="node5" class="node"><title>Node5</title>
<g id="a_node5"><a xlink:href="../../d4/d34/classstatic_01constexpr_01int.html" target="_top" xlink:title="{static constexpr int\n||}">
<polygon fill="none" stroke="black" points="111,-500.5 111,-557.5 211,-557.5 211,-500.5 111,-500.5"/>
<text text-anchor="middle" x="161" y="-545.5" font-family="Helvetica,sans-Serif" font-size="10.00">static constexpr int</text>
<polyline fill="none" stroke="black" points="111,-538.5 211,-538.5 "/>
<text text-anchor="middle" x="161" y="-526.5" font-family="Helvetica,sans-Serif" font-size="10.00"> </text>
<polyline fill="none" stroke="black" points="111,-519.5 211,-519.5 "/>
<text text-anchor="middle" x="161" y="-507.5" font-family="Helvetica,sans-Serif" font-size="10.00"> </text>
</a>
</g>
</g>
<!-- Node5&#45;&gt;Node2 -->
<g id="edge4" class="edge"><title>Node5&#45;&gt;Node2</title>
<path fill="none" stroke="#404040" d="M160.264,-500.425C160.712,-474.104 164.473,-434.107 181,-404 193.645,-380.965 212.918,-360.312 232.615,-343.203"/>
<polygon fill="none" stroke="#404040" points="232.787,-343.058 234.813,-336.138 241.98,-335.346 239.955,-342.266 232.787,-343.058"/>
<text text-anchor="middle" x="221" y="-407.5" font-family="Helvetica,sans-Serif" font-size="10.00"> #NHITBUFFERS</text>
</g>
<!-- Node6 -->
<g id="node6" class="node"><title>Node6</title>
<g id="a_node6"><a xlink:href="../../d9/db1/classbool_01_5.html" target="_top" xlink:title="{bool *\n||}">
<polygon fill="none" stroke="black" points="229.5,-500.5 229.5,-557.5 270.5,-557.5 270.5,-500.5 229.5,-500.5"/>
<text text-anchor="middle" x="250" y="-545.5" font-family="Helvetica,sans-Serif" font-size="10.00">bool *</text>
<polyline fill="none" stroke="black" points="229.5,-538.5 270.5,-538.5 "/>
<text text-anchor="middle" x="250" y="-526.5" font-family="Helvetica,sans-Serif" font-size="10.00"> </text>
<polyline fill="none" stroke="black" points="229.5,-519.5 270.5,-519.5 "/>
<text text-anchor="middle" x="250" y="-507.5" font-family="Helvetica,sans-Serif" font-size="10.00"> </text>
</a>
</g>
</g>
<!-- Node6&#45;&gt;Node2 -->
<g id="edge5" class="edge"><title>Node6&#45;&gt;Node2</title>
<path fill="none" stroke="#404040" d="M252.163,-500.112C254.519,-474.777 259.058,-436.507 267,-404 267.528,-401.838 268.083,-399.659 268.661,-397.468"/>
<polygon fill="none" stroke="#404040" points="268.726,-397.235 266.489,-390.379 271.957,-385.678 274.194,-392.533 268.726,-397.235"/>
<text text-anchor="middle" x="297" y="-407.5" font-family="Helvetica,sans-Serif" font-size="10.00"> #mShmBusy</text>
</g>
<!-- Node7 -->
<g id="node7" class="node"><title>Node7</title>
<g id="a_node7"><a xlink:href="../../d1/da0/classint.html" target="_top" xlink:title="{int\n||}">
<polygon fill="none" stroke="black" points="321.5,-870.5 321.5,-927.5 350.5,-927.5 350.5,-870.5 321.5,-870.5"/>
<text text-anchor="middle" x="336" y="-915.5" font-family="Helvetica,sans-Serif" font-size="10.00">int</text>
<polyline fill="none" stroke="black" points="321.5,-908.5 350.5,-908.5 "/>
<text text-anchor="middle" x="336" y="-896.5" font-family="Helvetica,sans-Serif" font-size="10.00"> </text>
<polyline fill="none" stroke="black" points="321.5,-889.5 350.5,-889.5 "/>
<text text-anchor="middle" x="336" y="-877.5" font-family="Helvetica,sans-Serif" font-size="10.00"> </text>
</a>
</g>
</g>
<!-- Node7&#45;&gt;Node2 -->
<g id="edge6" class="edge"><title>Node7&#45;&gt;Node2</title>
<path fill="none" stroke="#404040" d="M339.13,-870.377C345.346,-827.52 362.979,-744.68 410,-694 423.259,-679.709 439.415,-692.371 450,-676 458.205,-663.31 450.796,-657.09 450,-642 445.104,-549.169 464.675,-519.42 428,-434 416.707,-407.698 398.791,-382.633 380.171,-361.086"/>
<polygon fill="none" stroke="#404040" points="380.134,-361.044 373.159,-359.215 372.165,-352.073 379.14,-353.902 380.134,-361.044"/>
<text text-anchor="middle" x="489" y="-532" font-family="Helvetica,sans-Serif" font-size="10.00"> #mCurrentBuffer</text>
<text text-anchor="middle" x="489" y="-521" font-family="Helvetica,sans-Serif" font-size="10.00">#mInitialized</text>
</g>
<!-- Node7&#45;&gt;Node9 -->
<g id="edge11" class="edge"><title>Node7&#45;&gt;Node9</title>
<path fill="none" stroke="#404040" d="M322.262,-870.385C300.578,-823.087 263.121,-723.767 286,-642 286.644,-639.7 287.349,-637.4 288.109,-635.104"/>
<polygon fill="none" stroke="#404040" points="288.174,-634.929 286.51,-627.912 292.347,-623.677 294.011,-630.694 288.174,-634.929"/>
<text text-anchor="middle" x="324.5" y="-667.5" font-family="Helvetica,sans-Serif" font-size="10.00"> #mCurrentBuffer</text>
<text text-anchor="middle" x="324.5" y="-656.5" font-family="Helvetica,sans-Serif" font-size="10.00">#mInitialized</text>
<text text-anchor="middle" x="324.5" y="-645.5" font-family="Helvetica,sans-Serif" font-size="10.00">#NHITBUFFERS</text>
</g>
<!-- Node8 -->
<g id="node8" class="node"><title>Node8</title>
<polygon fill="none" stroke="#bfbfbf" points="419,-870.5 419,-927.5 505,-927.5 505,-870.5 419,-870.5"/>
<text text-anchor="middle" x="462" y="-915.5" font-family="Helvetica,sans-Serif" font-size="10.00">vector&lt; void * &gt;</text>
<polyline fill="none" stroke="#bfbfbf" points="419,-908.5 505,-908.5 "/>
<text text-anchor="middle" x="462" y="-896.5" font-family="Helvetica,sans-Serif" font-size="10.00"> </text>
<polyline fill="none" stroke="#bfbfbf" points="419,-889.5 505,-889.5 "/>
<text text-anchor="middle" x="462" y="-877.5" font-family="Helvetica,sans-Serif" font-size="10.00"> </text>
</g>
<!-- Node8&#45;&gt;Node2 -->
<g id="edge7" class="edge"><title>Node8&#45;&gt;Node2</title>
<path fill="none" stroke="#404040" d="M477.262,-870.292C516.529,-794.945 612.448,-582.068 531,-434 499.781,-377.245 435.23,-339.986 383.409,-317.935"/>
<polygon fill="none" stroke="#404040" points="383.32,-317.898 376.248,-319.309 372.225,-313.324 379.297,-311.913 383.32,-317.898"/>
<text text-anchor="middle" x="594" y="-526.5" font-family="Helvetica,sans-Serif" font-size="10.00"> #mCachedPtr</text>
</g>
<!-- Node8&#45;&gt;Node9 -->
<g id="edge10" class="edge"><title>Node8&#45;&gt;Node9</title>
<path fill="none" stroke="#404040" d="M453.882,-870.34C439.435,-821.111 408.559,-715.904 384.935,-635.408"/>
<polygon fill="none" stroke="#404040" points="384.884,-635.235 379.357,-630.605 381.505,-623.721 387.033,-628.352 384.884,-635.235"/>
<text text-anchor="middle" x="428" y="-656.5" font-family="Helvetica,sans-Serif" font-size="10.00"> #mCachedPtr</text>
</g>
<!-- Node9&#45;&gt;Node2 -->
<g id="edge8" class="edge"><title>Node9&#45;&gt;Node2</title>
<path fill="none" stroke="orange" d="M333.332,-424.218C330.791,-411.463 328.206,-398.482 325.697,-385.885"/>
<polygon fill="orange" stroke="orange" points="329.971,-425.264 335.357,-434.388 336.836,-423.897 329.971,-425.264"/>
<text text-anchor="middle" x="360.5" y="-407.5" font-family="Helvetica,sans-Serif" font-size="10.00"> &lt; Detector &gt;</text>
</g>
<!-- Node10 -->
<g id="node10" class="node"><title>Node10</title>
<polygon fill="none" stroke="#bfbfbf" points="184.5,-870.5 184.5,-927.5 219.5,-927.5 219.5,-870.5 184.5,-870.5"/>
<text text-anchor="middle" x="202" y="-915.5" font-family="Helvetica,sans-Serif" font-size="10.00">bool</text>
<polyline fill="none" stroke="#bfbfbf" points="184.5,-908.5 219.5,-908.5 "/>
<text text-anchor="middle" x="202" y="-896.5" font-family="Helvetica,sans-Serif" font-size="10.00"> </text>
<polyline fill="none" stroke="#bfbfbf" points="184.5,-889.5 219.5,-889.5 "/>
<text text-anchor="middle" x="202" y="-877.5" font-family="Helvetica,sans-Serif" font-size="10.00"> </text>
</g>
<!-- Node10&#45;&gt;Node9 -->
<g id="edge12" class="edge"><title>Node10&#45;&gt;Node9</title>
<path fill="none" stroke="#404040" d="M194.251,-870.128C181.814,-818.835 163.831,-708.647 217,-642 234.894,-619.57 255.157,-639.963 279,-624 279.103,-623.931 279.206,-623.862 279.309,-623.793"/>
<polygon fill="none" stroke="#404040" points="279.021,-624.006 281.452,-617.217 288.653,-616.849 286.223,-623.639 279.021,-624.006"/>
<text text-anchor="middle" x="247" y="-656.5" font-family="Helvetica,sans-Serif" font-size="10.00"> #mShmBusy</text>
</g>
</g>
</svg>
