<?xml version="1.0" encoding="UTF-8" standalone="no"?>
<!DOCTYPE svg PUBLIC "-//W3C//DTD SVG 1.1//EN"
 "http://www.w3.org/Graphics/SVG/1.1/DTD/svg11.dtd">
<!-- Generated by graphviz version 2.36.0 (20140111.2315)
 -->
<!-- Title: /home/travis/build/AliceO2Group/AliceO2/Framework/Core/src/Metric2DViewIndex.cxx Pages: 1 -->
<svg width="572pt" height="174pt"
 viewBox="0.00 0.00 572.00 174.00" xmlns="http://www.w3.org/2000/svg" xmlns:xlink="http://www.w3.org/1999/xlink">
<g id="graph0" class="graph" transform="scale(1 1) rotate(0) translate(4 170)">
<title>/home/travis/build/AliceO2Group/AliceO2/Framework/Core/src/Metric2DViewIndex.cxx</title>
<!-- Node1 -->
<g id="node1" class="node"><title>Node1</title>
<polygon fill="#bfbfbf" stroke="black" points="191.5,-113 191.5,-165 364.5,-165 364.5,-113 191.5,-113"/>
<text text-anchor="start" x="199.5" y="-153" font-family="Helvetica,sans-Serif" font-size="10.00">/home/travis/build</text>
<text text-anchor="start" x="199.5" y="-142" font-family="Helvetica,sans-Serif" font-size="10.00">/AliceO2Group/AliceO2</text>
<text text-anchor="start" x="199.5" y="-131" font-family="Helvetica,sans-Serif" font-size="10.00">/Framework/Core/src/Metric2DView</text>
<text text-anchor="middle" x="278" y="-120" font-family="Helvetica,sans-Serif" font-size="10.00">Index.cxx</text>
</g>
<!-- Node2 -->
<g id="node2" class="node"><title>Node2</title>
<g id="a_node2"><a xlink:href="../../d0/d2c/Metric2DViewIndex_8h.html" target="_top" xlink:title="Framework/Metric2DViewIndex.h">
<polygon fill="none" stroke="black" points="20,-56.5 20,-75.5 182,-75.5 182,-56.5 20,-56.5"/>
<text text-anchor="middle" x="101" y="-63.5" font-family="Helvetica,sans-Serif" font-size="10.00">Framework/Metric2DViewIndex.h</text>
</a>
</g>
</g>
<!-- Node1&#45;&gt;Node2 -->
<g id="edge1" class="edge"><title>Node1&#45;&gt;Node2</title>
<path fill="none" stroke="midnightblue" d="M215.596,-112.968C187.332,-101.63 155.168,-88.7284 132.125,-79.4851"/>
<polygon fill="midnightblue" stroke="midnightblue" points="133.121,-76.1135 122.536,-75.6389 130.514,-82.6103 133.121,-76.1135"/>
</g>
<!-- Node3 -->
<g id="node3" class="node"><title>Node3</title>
<polygon fill="none" stroke="#bfbfbf" points="-0.5,-0.5 -0.5,-19.5 58.5,-19.5 58.5,-0.5 -0.5,-0.5"/>
<text text-anchor="middle" x="29" y="-7.5" font-family="Helvetica,sans-Serif" font-size="10.00">functional</text>
</g>
<!-- Node1&#45;&gt;Node3 -->
<g id="edge15" class="edge"><title>Node1&#45;&gt;Node3</title>
<path fill="none" stroke="midnightblue" d="M191.374,-129.463C122.226,-120.648 33.3481,-104.132 11,-76 0.11124,-62.293 8.07889,-42.4279 16.5927,-28.2718"/>
<polygon fill="midnightblue" stroke="midnightblue" points="19.773,-29.8062 22.3492,-19.5293 13.9265,-25.9566 19.773,-29.8062"/>
</g>
<!-- Node7 -->
<g id="node7" class="node"><title>Node7</title>
<g id="a_node7"><a xlink:href="../../dc/df0/DeviceMetricsInfo_8h.html" target="_top" xlink:title="Framework/DeviceMetricsInfo.h">
<polygon fill="none" stroke="black" points="200,-56.5 200,-75.5 356,-75.5 356,-56.5 200,-56.5"/>
<text text-anchor="middle" x="278" y="-63.5" font-family="Helvetica,sans-Serif" font-size="10.00">Framework/DeviceMetricsInfo.h</text>
</a>
</g>
</g>
<!-- Node1&#45;&gt;Node7 -->
<g id="edge6" class="edge"><title>Node1&#45;&gt;Node7</title>
<path fill="none" stroke="midnightblue" d="M278,-112.768C278,-103.89 278,-94.0737 278,-85.8165"/>
<polygon fill="midnightblue" stroke="midnightblue" points="281.5,-85.7571 278,-75.7572 274.5,-85.7572 281.5,-85.7571"/>
</g>
<!-- Node10 -->
<g id="node10" class="node"><title>Node10</title>
<polygon fill="none" stroke="#bfbfbf" points="374,-56.5 374,-75.5 490,-75.5 490,-56.5 374,-56.5"/>
<text text-anchor="middle" x="432" y="-63.5" font-family="Helvetica,sans-Serif" font-size="10.00">fairmq/FairMQLogger.h</text>
</g>
<!-- Node1&#45;&gt;Node10 -->
<g id="edge13" class="edge"><title>Node1&#45;&gt;Node10</title>
<path fill="none" stroke="midnightblue" d="M332.295,-112.968C356.555,-101.783 384.118,-89.0753 404.106,-79.8601"/>
<polygon fill="midnightblue" stroke="midnightblue" points="405.646,-83.0043 413.262,-75.6389 402.715,-76.6473 405.646,-83.0043"/>
</g>
<!-- Node11 -->
<g id="node11" class="node"><title>Node11</title>
<polygon fill="none" stroke="#bfbfbf" points="508,-56.5 508,-75.5 564,-75.5 564,-56.5 508,-56.5"/>
<text text-anchor="middle" x="536" y="-63.5" font-family="Helvetica,sans-Serif" font-size="10.00">algorithm</text>
</g>
<!-- Node1&#45;&gt;Node11 -->
<g id="edge14" class="edge"><title>Node1&#45;&gt;Node11</title>
<path fill="none" stroke="midnightblue" d="M364.628,-114.161C409.929,-101.694 463.072,-87.0693 498.03,-77.4492"/>
<polygon fill="midnightblue" stroke="midnightblue" points="499.112,-80.7815 507.825,-74.7535 497.255,-74.0324 499.112,-80.7815"/>
</g>
<!-- Node2&#45;&gt;Node3 -->
<g id="edge2" class="edge"><title>Node2&#45;&gt;Node3</title>
<path fill="none" stroke="midnightblue" d="M89.432,-56.324C78.5798,-48.1849 62.1193,-35.8395 49.1166,-26.0874"/>
<polygon fill="midnightblue" stroke="midnightblue" points="50.8786,-23.0339 40.7785,-19.8339 46.6785,-28.6339 50.8786,-23.0339"/>
</g>
<!-- Node4 -->
<g id="node4" class="node"><title>Node4</title>
<polygon fill="none" stroke="#bfbfbf" points="76.5,-0.5 76.5,-19.5 125.5,-19.5 125.5,-0.5 76.5,-0.5"/>
<text text-anchor="middle" x="101" y="-7.5" font-family="Helvetica,sans-Serif" font-size="10.00">cstddef</text>
</g>
<!-- Node2&#45;&gt;Node4 -->
<g id="edge3" class="edge"><title>Node2&#45;&gt;Node4</title>
<path fill="none" stroke="midnightblue" d="M101,-56.083C101,-49.0059 101,-38.8611 101,-29.9865"/>
<polygon fill="midnightblue" stroke="midnightblue" points="104.5,-29.751 101,-19.7511 97.5001,-29.7511 104.5,-29.751"/>
</g>
<!-- Node5 -->
<g id="node5" class="node"><title>Node5</title>
<polygon fill="none" stroke="#bfbfbf" points="143.5,-0.5 143.5,-19.5 184.5,-19.5 184.5,-0.5 143.5,-0.5"/>
<text text-anchor="middle" x="164" y="-7.5" font-family="Helvetica,sans-Serif" font-size="10.00">string</text>
</g>
<!-- Node2&#45;&gt;Node5 -->
<g id="edge4" class="edge"><title>Node2&#45;&gt;Node5</title>
<path fill="none" stroke="midnightblue" d="M111.122,-56.324C120.526,-48.2631 134.744,-36.0765 146.069,-26.3695"/>
<polygon fill="midnightblue" stroke="midnightblue" points="148.379,-28.9993 153.694,-19.8339 143.823,-23.6844 148.379,-28.9993"/>
</g>
<!-- Node6 -->
<g id="node6" class="node"><title>Node6</title>
<polygon fill="none" stroke="#bfbfbf" points="203,-0.5 203,-19.5 247,-19.5 247,-0.5 203,-0.5"/>
<text text-anchor="middle" x="225" y="-7.5" font-family="Helvetica,sans-Serif" font-size="10.00">vector</text>
</g>
<!-- Node2&#45;&gt;Node6 -->
<g id="edge5" class="edge"><title>Node2&#45;&gt;Node6</title>
<path fill="none" stroke="midnightblue" d="M120.648,-56.4435C140.965,-47.5961 172.903,-33.6875 196.098,-23.5865"/>
<polygon fill="midnightblue" stroke="midnightblue" points="197.673,-26.7181 205.444,-19.5164 194.878,-20.3002 197.673,-26.7181"/>
</g>
<!-- Node7&#45;&gt;Node3 -->
<g id="edge9" class="edge"><title>Node7&#45;&gt;Node3</title>
<path fill="none" stroke="midnightblue" d="M236.701,-56.4778C196.199,-48.0566 132.44,-34.6305 68.6734,-20.3443"/>
<polygon fill="midnightblue" stroke="midnightblue" points="69.3802,-16.916 58.8561,-18.1379 67.8453,-23.7456 69.3802,-16.916"/>
</g>
<!-- Node7&#45;&gt;Node4 -->
<g id="edge8" class="edge"><title>Node7&#45;&gt;Node4</title>
<path fill="none" stroke="midnightblue" d="M249.954,-56.4435C218.946,-46.9836 168.973,-31.7377 135.569,-21.5465"/>
<polygon fill="midnightblue" stroke="midnightblue" points="136.36,-18.1285 125.773,-18.558 134.317,-24.8238 136.36,-18.1285"/>
</g>
<!-- Node7&#45;&gt;Node5 -->
<g id="edge11" class="edge"><title>Node7&#45;&gt;Node5</title>
<path fill="none" stroke="midnightblue" d="M259.936,-56.4435C241.425,-47.6751 212.419,-33.9355 191.145,-23.8579"/>
<polygon fill="midnightblue" stroke="midnightblue" points="192.515,-20.6343 181.979,-19.5164 189.518,-26.9604 192.515,-20.6343"/>
</g>
<!-- Node7&#45;&gt;Node6 -->
<g id="edge12" class="edge"><title>Node7&#45;&gt;Node6</title>
<path fill="none" stroke="midnightblue" d="M269.248,-56.083C261.53,-48.2195 250.095,-36.5688 240.783,-27.0813"/>
<polygon fill="midnightblue" stroke="midnightblue" points="243.092,-24.4363 233.589,-19.7511 238.096,-29.3396 243.092,-24.4363"/>
</g>
<!-- Node8 -->
<g id="node8" class="node"><title>Node8</title>
<polygon fill="none" stroke="#bfbfbf" points="265,-0.5 265,-19.5 303,-19.5 303,-0.5 265,-0.5"/>
<text text-anchor="middle" x="284" y="-7.5" font-family="Helvetica,sans-Serif" font-size="10.00">array</text>
</g>
<!-- Node7&#45;&gt;Node8 -->
<g id="edge7" class="edge"><title>Node7&#45;&gt;Node8</title>
<path fill="none" stroke="midnightblue" d="M278.991,-56.083C279.786,-48.9272 280.929,-38.6353 281.923,-29.6911"/>
<polygon fill="midnightblue" stroke="midnightblue" points="285.402,-30.0765 283.028,-19.7511 278.445,-29.3034 285.402,-30.0765"/>
</g>
<!-- Node9 -->
<g id="node9" class="node"><title>Node9</title>
<polygon fill="none" stroke="#bfbfbf" points="321.5,-0.5 321.5,-19.5 362.5,-19.5 362.5,-0.5 321.5,-0.5"/>
<text text-anchor="middle" x="342" y="-7.5" font-family="Helvetica,sans-Serif" font-size="10.00">regex</text>
</g>
<!-- Node7&#45;&gt;Node9 -->
<g id="edge10" class="edge"><title>Node7&#45;&gt;Node9</title>
<path fill="none" stroke="midnightblue" d="M288.283,-56.324C297.836,-48.2631 312.28,-36.0765 323.784,-26.3695"/>
<polygon fill="midnightblue" stroke="midnightblue" points="326.144,-28.9577 331.53,-19.8339 321.63,-23.6076 326.144,-28.9577"/>
</g>
</g>
</svg>
