<?xml version="1.0" encoding="UTF-8" standalone="no"?>
<!DOCTYPE svg PUBLIC "-//W3C//DTD SVG 1.1//EN"
 "http://www.w3.org/Graphics/SVG/1.1/DTD/svg11.dtd">
<!-- Generated by graphviz version 2.36.0 (20140111.2315)
 -->
<!-- Title: o2::dataformats::TimeStamp&lt; T &gt; Pages: 1 -->
<svg width="977pt" height="992pt"
 viewBox="0.00 0.00 977.00 992.00" xmlns="http://www.w3.org/2000/svg" xmlns:xlink="http://www.w3.org/1999/xlink">
<g id="graph0" class="graph" transform="scale(1 1) rotate(0) translate(4 988)">
<title>o2::dataformats::TimeStamp&lt; T &gt;</title>
<!-- Node1 -->
<g id="node1" class="node"><title>Node1</title>
<polygon fill="#bfbfbf" stroke="black" points="366.5,-882.5 366.5,-983.5 531.5,-983.5 531.5,-882.5 366.5,-882.5"/>
<text text-anchor="middle" x="449" y="-971.5" font-family="Helvetica,sans-Serif" font-size="10.00">o2::dataformats::TimeStamp&lt; T &gt;</text>
<polyline fill="none" stroke="black" points="366.5,-964.5 531.5,-964.5 "/>
<text text-anchor="middle" x="449" y="-952.5" font-family="Helvetica,sans-Serif" font-size="10.00"> </text>
<polyline fill="none" stroke="black" points="366.5,-945.5 531.5,-945.5 "/>
<text text-anchor="start" x="374.5" y="-933.5" font-family="Helvetica,sans-Serif" font-size="10.00">+ TimeStamp()</text>
<text text-anchor="start" x="374.5" y="-922.5" font-family="Helvetica,sans-Serif" font-size="10.00">+ TimeStamp()</text>
<text text-anchor="start" x="374.5" y="-911.5" font-family="Helvetica,sans-Serif" font-size="10.00">+ getTimeStamp()</text>
<text text-anchor="start" x="374.5" y="-900.5" font-family="Helvetica,sans-Serif" font-size="10.00">+ setTimeStamp()</text>
<text text-anchor="start" x="374.5" y="-889.5" font-family="Helvetica,sans-Serif" font-size="10.00">+ operator==()</text>
</g>
<!-- Node2 -->
<g id="node2" class="node"><title>Node2</title>
<g id="a_node2"><a xlink:href="../../d3/dbf/classo2_1_1dataformats_1_1TimeStampWithError.html" target="_top" xlink:title="{o2::dataformats::TimeStamp\lWithError\&lt; T \&gt;\n||+ TimeStampWithError()\l+ TimeStampWithError()\l+ getTimeStampError()\l+ setTimeStampError()\l}">
<polygon fill="none" stroke="black" points="589.5,-638.5 589.5,-739.5 730.5,-739.5 730.5,-638.5 589.5,-638.5"/>
<text text-anchor="start" x="597.5" y="-727.5" font-family="Helvetica,sans-Serif" font-size="10.00">o2::dataformats::TimeStamp</text>
<text text-anchor="middle" x="660" y="-716.5" font-family="Helvetica,sans-Serif" font-size="10.00">WithError&lt; T &gt;</text>
<polyline fill="none" stroke="black" points="589.5,-709.5 730.5,-709.5 "/>
<text text-anchor="middle" x="660" y="-697.5" font-family="Helvetica,sans-Serif" font-size="10.00"> </text>
<polyline fill="none" stroke="black" points="589.5,-690.5 730.5,-690.5 "/>
<text text-anchor="start" x="597.5" y="-678.5" font-family="Helvetica,sans-Serif" font-size="10.00">+ TimeStampWithError()</text>
<text text-anchor="start" x="597.5" y="-667.5" font-family="Helvetica,sans-Serif" font-size="10.00">+ TimeStampWithError()</text>
<text text-anchor="start" x="597.5" y="-656.5" font-family="Helvetica,sans-Serif" font-size="10.00">+ getTimeStampError()</text>
<text text-anchor="start" x="597.5" y="-645.5" font-family="Helvetica,sans-Serif" font-size="10.00">+ setTimeStampError()</text>
</a>
</g>
</g>
<!-- Node1&#45;&gt;Node2 -->
<g id="edge1" class="edge"><title>Node1&#45;&gt;Node2</title>
<path fill="none" stroke="midnightblue" d="M534.649,-876.177C550.799,-863.452 566.755,-849.168 580,-834 604.548,-805.887 624.857,-769.017 638.87,-739.622"/>
<polygon fill="none" stroke="midnightblue" points="532.497,-873.416 526.716,-882.295 536.772,-878.959 532.497,-873.416"/>
</g>
<!-- Node5 -->
<g id="node5" class="node"><title>Node5</title>
<g id="a_node5"><a xlink:href="../../d5/d5a/classo2_1_1EMCAL_1_1Digit.html" target="_top" xlink:title="EMCAL digit implementation. ">
<polygon fill="none" stroke="black" points="159,-600 159,-778 299,-778 299,-600 159,-600"/>
<text text-anchor="middle" x="229" y="-766" font-family="Helvetica,sans-Serif" font-size="10.00">o2::EMCAL::Digit&lt; double &gt;</text>
<polyline fill="none" stroke="black" points="159,-759 299,-759 "/>
<text text-anchor="middle" x="229" y="-747" font-family="Helvetica,sans-Serif" font-size="10.00"> </text>
<polyline fill="none" stroke="black" points="159,-740 299,-740 "/>
<text text-anchor="start" x="167" y="-728" font-family="Helvetica,sans-Serif" font-size="10.00">+ Digit()</text>
<text text-anchor="start" x="167" y="-717" font-family="Helvetica,sans-Serif" font-size="10.00">+ Digit()</text>
<text text-anchor="start" x="167" y="-706" font-family="Helvetica,sans-Serif" font-size="10.00">+ ~Digit()</text>
<text text-anchor="start" x="167" y="-695" font-family="Helvetica,sans-Serif" font-size="10.00">+ operator&lt;()</text>
<text text-anchor="start" x="167" y="-684" font-family="Helvetica,sans-Serif" font-size="10.00">+ operator&gt;()</text>
<text text-anchor="start" x="167" y="-673" font-family="Helvetica,sans-Serif" font-size="10.00">+ canAdd()</text>
<text text-anchor="start" x="167" y="-662" font-family="Helvetica,sans-Serif" font-size="10.00">+ operator+=()</text>
<text text-anchor="start" x="167" y="-651" font-family="Helvetica,sans-Serif" font-size="10.00">+ GetTower()</text>
<text text-anchor="start" x="167" y="-640" font-family="Helvetica,sans-Serif" font-size="10.00">+ SetTower()</text>
<text text-anchor="start" x="167" y="-629" font-family="Helvetica,sans-Serif" font-size="10.00">+ GetAmplitude()</text>
<text text-anchor="start" x="167" y="-618" font-family="Helvetica,sans-Serif" font-size="10.00">+ SetAmplitude()</text>
<text text-anchor="start" x="167" y="-607" font-family="Helvetica,sans-Serif" font-size="10.00">+ PrintStream()</text>
</a>
</g>
</g>
<!-- Node1&#45;&gt;Node5 -->
<g id="edge4" class="edge"><title>Node1&#45;&gt;Node5</title>
<path fill="none" stroke="midnightblue" d="M358.054,-878.08C340.198,-865.036 322.523,-850.144 308,-834 293.125,-817.465 279.98,-797.637 268.893,-778.059"/>
<polygon fill="none" stroke="midnightblue" points="356.089,-880.977 366.261,-883.941 360.157,-875.281 356.089,-880.977"/>
</g>
<!-- Node6 -->
<g id="node6" class="node"><title>Node6</title>
<g id="a_node6"><a xlink:href="../../df/dbc/classo2_1_1phos_1_1Digit.html" target="_top" xlink:title="{o2::phos::Digit\&lt; double \&gt;\n|+ kMaxLabels\l+ kTimeGate\l|+ Digit()\l+ Digit()\l+ Digit()\l+ ~Digit()\l+ FillFromHit()\l+ operator\&lt;()\l+ operator\&gt;()\l+ canAdd()\l+ operator+=()\l+ getAbsId()\l+ setAbsId()\l+ getAmplitude()\l+ setAmplitude()\l+ getTime()\l+ setTime()\l+ isHighGain()\l+ setHighGain()\l+ getLabel()\l+ getLabelEProp()\l+ getNLabels()\l+ PrintStream()\l}">
<polygon fill="none" stroke="black" points="317.5,-545 317.5,-833 444.5,-833 444.5,-545 317.5,-545"/>
<text text-anchor="middle" x="381" y="-821" font-family="Helvetica,sans-Serif" font-size="10.00">o2::phos::Digit&lt; double &gt;</text>
<polyline fill="none" stroke="black" points="317.5,-814 444.5,-814 "/>
<text text-anchor="start" x="325.5" y="-802" font-family="Helvetica,sans-Serif" font-size="10.00">+ kMaxLabels</text>
<text text-anchor="start" x="325.5" y="-791" font-family="Helvetica,sans-Serif" font-size="10.00">+ kTimeGate</text>
<polyline fill="none" stroke="black" points="317.5,-784 444.5,-784 "/>
<text text-anchor="start" x="325.5" y="-772" font-family="Helvetica,sans-Serif" font-size="10.00">+ Digit()</text>
<text text-anchor="start" x="325.5" y="-761" font-family="Helvetica,sans-Serif" font-size="10.00">+ Digit()</text>
<text text-anchor="start" x="325.5" y="-750" font-family="Helvetica,sans-Serif" font-size="10.00">+ Digit()</text>
<text text-anchor="start" x="325.5" y="-739" font-family="Helvetica,sans-Serif" font-size="10.00">+ ~Digit()</text>
<text text-anchor="start" x="325.5" y="-728" font-family="Helvetica,sans-Serif" font-size="10.00">+ FillFromHit()</text>
<text text-anchor="start" x="325.5" y="-717" font-family="Helvetica,sans-Serif" font-size="10.00">+ operator&lt;()</text>
<text text-anchor="start" x="325.5" y="-706" font-family="Helvetica,sans-Serif" font-size="10.00">+ operator&gt;()</text>
<text text-anchor="start" x="325.5" y="-695" font-family="Helvetica,sans-Serif" font-size="10.00">+ canAdd()</text>
<text text-anchor="start" x="325.5" y="-684" font-family="Helvetica,sans-Serif" font-size="10.00">+ operator+=()</text>
<text text-anchor="start" x="325.5" y="-673" font-family="Helvetica,sans-Serif" font-size="10.00">+ getAbsId()</text>
<text text-anchor="start" x="325.5" y="-662" font-family="Helvetica,sans-Serif" font-size="10.00">+ setAbsId()</text>
<text text-anchor="start" x="325.5" y="-651" font-family="Helvetica,sans-Serif" font-size="10.00">+ getAmplitude()</text>
<text text-anchor="start" x="325.5" y="-640" font-family="Helvetica,sans-Serif" font-size="10.00">+ setAmplitude()</text>
<text text-anchor="start" x="325.5" y="-629" font-family="Helvetica,sans-Serif" font-size="10.00">+ getTime()</text>
<text text-anchor="start" x="325.5" y="-618" font-family="Helvetica,sans-Serif" font-size="10.00">+ setTime()</text>
<text text-anchor="start" x="325.5" y="-607" font-family="Helvetica,sans-Serif" font-size="10.00">+ isHighGain()</text>
<text text-anchor="start" x="325.5" y="-596" font-family="Helvetica,sans-Serif" font-size="10.00">+ setHighGain()</text>
<text text-anchor="start" x="325.5" y="-585" font-family="Helvetica,sans-Serif" font-size="10.00">+ getLabel()</text>
<text text-anchor="start" x="325.5" y="-574" font-family="Helvetica,sans-Serif" font-size="10.00">+ getLabelEProp()</text>
<text text-anchor="start" x="325.5" y="-563" font-family="Helvetica,sans-Serif" font-size="10.00">+ getNLabels()</text>
<text text-anchor="start" x="325.5" y="-552" font-family="Helvetica,sans-Serif" font-size="10.00">+ PrintStream()</text>
</a>
</g>
</g>
<!-- Node1&#45;&gt;Node6 -->
<g id="edge5" class="edge"><title>Node1&#45;&gt;Node6</title>
<path fill="none" stroke="midnightblue" d="M432.289,-872.528C428.878,-860.389 425.15,-847.124 421.312,-833.463"/>
<polygon fill="none" stroke="midnightblue" points="429,-873.763 435.075,-882.444 435.739,-871.87 429,-873.763"/>
</g>
<!-- Node7 -->
<g id="node7" class="node"><title>Node7</title>
<g id="a_node7"><a xlink:href="../../dd/def/classo2_1_1TPC_1_1Digit.html" target="_top" xlink:title="{o2::TPC::Digit\&lt; int \&gt;\n|# mCharge\l# mCRU\l# mRow\l# mPad\l|+ Digit()\l+ Digit()\l+ ~Digit()\l+ getCharge()\l+ getChargeFloat()\l+ getCRU()\l+ getRow()\l+ getPad()\l# ClassDefNV()\l}">
<polygon fill="none" stroke="black" points="463,-600 463,-778 571,-778 571,-600 463,-600"/>
<text text-anchor="middle" x="517" y="-766" font-family="Helvetica,sans-Serif" font-size="10.00">o2::TPC::Digit&lt; int &gt;</text>
<polyline fill="none" stroke="black" points="463,-759 571,-759 "/>
<text text-anchor="start" x="471" y="-747" font-family="Helvetica,sans-Serif" font-size="10.00"># mCharge</text>
<text text-anchor="start" x="471" y="-736" font-family="Helvetica,sans-Serif" font-size="10.00"># mCRU</text>
<text text-anchor="start" x="471" y="-725" font-family="Helvetica,sans-Serif" font-size="10.00"># mRow</text>
<text text-anchor="start" x="471" y="-714" font-family="Helvetica,sans-Serif" font-size="10.00"># mPad</text>
<polyline fill="none" stroke="black" points="463,-707 571,-707 "/>
<text text-anchor="start" x="471" y="-695" font-family="Helvetica,sans-Serif" font-size="10.00">+ Digit()</text>
<text text-anchor="start" x="471" y="-684" font-family="Helvetica,sans-Serif" font-size="10.00">+ Digit()</text>
<text text-anchor="start" x="471" y="-673" font-family="Helvetica,sans-Serif" font-size="10.00">+ ~Digit()</text>
<text text-anchor="start" x="471" y="-662" font-family="Helvetica,sans-Serif" font-size="10.00">+ getCharge()</text>
<text text-anchor="start" x="471" y="-651" font-family="Helvetica,sans-Serif" font-size="10.00">+ getChargeFloat()</text>
<text text-anchor="start" x="471" y="-640" font-family="Helvetica,sans-Serif" font-size="10.00">+ getCRU()</text>
<text text-anchor="start" x="471" y="-629" font-family="Helvetica,sans-Serif" font-size="10.00">+ getRow()</text>
<text text-anchor="start" x="471" y="-618" font-family="Helvetica,sans-Serif" font-size="10.00">+ getPad()</text>
<text text-anchor="start" x="471" y="-607" font-family="Helvetica,sans-Serif" font-size="10.00"># ClassDefNV()</text>
</a>
</g>
</g>
<!-- Node1&#45;&gt;Node7 -->
<g id="edge6" class="edge"><title>Node1&#45;&gt;Node7</title>
<path fill="none" stroke="midnightblue" d="M465.674,-872.66C473.664,-844.225 483.396,-809.59 492.229,-778.155"/>
<polygon fill="none" stroke="midnightblue" points="462.261,-871.87 462.925,-882.444 469,-873.763 462.261,-871.87"/>
</g>
<!-- Node8 -->
<g id="node8" class="node"><title>Node8</title>
<g id="a_node8"><a xlink:href="../../d0/d94/classo2_1_1dataformats_1_1TimeStamp.html" target="_top" xlink:title="{o2::dataformats::TimeStamp\l\&lt; double \&gt;\n||+ TimeStamp()\l+ TimeStamp()\l+ getTimeStamp()\l+ setTimeStamp()\l+ operator==()\l}">
<polygon fill="none" stroke="black" points="748.5,-633 748.5,-745 889.5,-745 889.5,-633 748.5,-633"/>
<text text-anchor="start" x="756.5" y="-733" font-family="Helvetica,sans-Serif" font-size="10.00">o2::dataformats::TimeStamp</text>
<text text-anchor="middle" x="819" y="-722" font-family="Helvetica,sans-Serif" font-size="10.00">&lt; double &gt;</text>
<polyline fill="none" stroke="black" points="748.5,-715 889.5,-715 "/>
<text text-anchor="middle" x="819" y="-703" font-family="Helvetica,sans-Serif" font-size="10.00"> </text>
<polyline fill="none" stroke="black" points="748.5,-696 889.5,-696 "/>
<text text-anchor="start" x="756.5" y="-684" font-family="Helvetica,sans-Serif" font-size="10.00">+ TimeStamp()</text>
<text text-anchor="start" x="756.5" y="-673" font-family="Helvetica,sans-Serif" font-size="10.00">+ TimeStamp()</text>
<text text-anchor="start" x="756.5" y="-662" font-family="Helvetica,sans-Serif" font-size="10.00">+ getTimeStamp()</text>
<text text-anchor="start" x="756.5" y="-651" font-family="Helvetica,sans-Serif" font-size="10.00">+ setTimeStamp()</text>
<text text-anchor="start" x="756.5" y="-640" font-family="Helvetica,sans-Serif" font-size="10.00">+ operator==()</text>
</a>
</g>
</g>
<!-- Node1&#45;&gt;Node8 -->
<g id="edge7" class="edge"><title>Node1&#45;&gt;Node8</title>
<path fill="none" stroke="orange" d="M541.683,-918.543C603.267,-905.615 682.829,-880.814 739,-834 766.901,-810.747 786.808,-775.125 799.785,-745.13"/>
<polygon fill="orange" stroke="orange" points="540.677,-915.176 531.572,-920.593 542.068,-922.036 540.677,-915.176"/>
<text text-anchor="middle" x="738" y="-855.5" font-family="Helvetica,sans-Serif" font-size="10.00"> &lt; double &gt;</text>
</g>
<!-- Node12 -->
<g id="node12" class="node"><title>Node12</title>
<g id="a_node12"><a xlink:href="../../d0/d94/classo2_1_1dataformats_1_1TimeStamp.html" target="_top" xlink:title="{o2::dataformats::TimeStamp\l\&lt; float \&gt;\n||+ TimeStamp()\l+ TimeStamp()\l+ getTimeStamp()\l+ setTimeStamp()\l+ operator==()\l}">
<polygon fill="none" stroke="black" points="-0.5,-633 -0.5,-745 140.5,-745 140.5,-633 -0.5,-633"/>
<text text-anchor="start" x="7.5" y="-733" font-family="Helvetica,sans-Serif" font-size="10.00">o2::dataformats::TimeStamp</text>
<text text-anchor="middle" x="70" y="-722" font-family="Helvetica,sans-Serif" font-size="10.00">&lt; float &gt;</text>
<polyline fill="none" stroke="black" points="-0.5,-715 140.5,-715 "/>
<text text-anchor="middle" x="70" y="-703" font-family="Helvetica,sans-Serif" font-size="10.00"> </text>
<polyline fill="none" stroke="black" points="-0.5,-696 140.5,-696 "/>
<text text-anchor="start" x="7.5" y="-684" font-family="Helvetica,sans-Serif" font-size="10.00">+ TimeStamp()</text>
<text text-anchor="start" x="7.5" y="-673" font-family="Helvetica,sans-Serif" font-size="10.00">+ TimeStamp()</text>
<text text-anchor="start" x="7.5" y="-662" font-family="Helvetica,sans-Serif" font-size="10.00">+ getTimeStamp()</text>
<text text-anchor="start" x="7.5" y="-651" font-family="Helvetica,sans-Serif" font-size="10.00">+ setTimeStamp()</text>
<text text-anchor="start" x="7.5" y="-640" font-family="Helvetica,sans-Serif" font-size="10.00">+ operator==()</text>
</a>
</g>
</g>
<!-- Node1&#45;&gt;Node12 -->
<g id="edge11" class="edge"><title>Node1&#45;&gt;Node12</title>
<path fill="none" stroke="orange" d="M356.15,-919.74C292.31,-907.273 208.777,-882.532 150,-834 121.993,-810.875 102.085,-775.254 89.1338,-745.228"/>
<polygon fill="orange" stroke="orange" points="355.745,-923.225 366.22,-921.637 357.041,-916.346 355.745,-923.225"/>
<text text-anchor="middle" x="212" y="-855.5" font-family="Helvetica,sans-Serif" font-size="10.00"> &lt; float &gt;</text>
</g>
<!-- Node3 -->
<g id="node3" class="node"><title>Node3</title>
<g id="a_node3"><a xlink:href="../../d3/dbf/classo2_1_1dataformats_1_1TimeStampWithError.html" target="_top" xlink:title="{o2::dataformats::TimeStamp\lWithError\&lt; float, float \&gt;\n||+ TimeStampWithError()\l+ TimeStampWithError()\l+ getTimeStampError()\l+ setTimeStampError()\l}">
<polygon fill="none" stroke="black" points="239.5,-317.5 239.5,-418.5 380.5,-418.5 380.5,-317.5 239.5,-317.5"/>
<text text-anchor="start" x="247.5" y="-406.5" font-family="Helvetica,sans-Serif" font-size="10.00">o2::dataformats::TimeStamp</text>
<text text-anchor="middle" x="310" y="-395.5" font-family="Helvetica,sans-Serif" font-size="10.00">WithError&lt; float, float &gt;</text>
<polyline fill="none" stroke="black" points="239.5,-388.5 380.5,-388.5 "/>
<text text-anchor="middle" x="310" y="-376.5" font-family="Helvetica,sans-Serif" font-size="10.00"> </text>
<polyline fill="none" stroke="black" points="239.5,-369.5 380.5,-369.5 "/>
<text text-anchor="start" x="247.5" y="-357.5" font-family="Helvetica,sans-Serif" font-size="10.00">+ TimeStampWithError()</text>
<text text-anchor="start" x="247.5" y="-346.5" font-family="Helvetica,sans-Serif" font-size="10.00">+ TimeStampWithError()</text>
<text text-anchor="start" x="247.5" y="-335.5" font-family="Helvetica,sans-Serif" font-size="10.00">+ getTimeStampError()</text>
<text text-anchor="start" x="247.5" y="-324.5" font-family="Helvetica,sans-Serif" font-size="10.00">+ setTimeStampError()</text>
</a>
</g>
</g>
<!-- Node2&#45;&gt;Node3 -->
<g id="edge2" class="edge"><title>Node2&#45;&gt;Node3</title>
<path fill="none" stroke="orange" d="M635.456,-629.18C621.881,-601.261 603.066,-568.69 580,-544 522.608,-482.568 439.381,-432.884 380.53,-402.367"/>
<polygon fill="orange" stroke="orange" points="632.407,-630.918 639.857,-638.451 638.73,-627.917 632.407,-630.918"/>
<text text-anchor="middle" x="594.5" y="-517.5" font-family="Helvetica,sans-Serif" font-size="10.00"> &lt; float, float &gt;</text>
</g>
<!-- Node4 -->
<g id="node4" class="node"><title>Node4</title>
<g id="a_node4"><a xlink:href="../../de/dd5/classo2_1_1TPC_1_1Cluster.html" target="_top" xlink:title="Cluster class for the TPC. ">
<polygon fill="none" stroke="black" points="262.5,-1 262.5,-201 357.5,-201 357.5,-1 262.5,-1"/>
<text text-anchor="middle" x="310" y="-189" font-family="Helvetica,sans-Serif" font-size="10.00">o2::TPC::Cluster</text>
<polyline fill="none" stroke="black" points="262.5,-182 357.5,-182 "/>
<text text-anchor="middle" x="310" y="-170" font-family="Helvetica,sans-Serif" font-size="10.00"> </text>
<polyline fill="none" stroke="black" points="262.5,-163 357.5,-163 "/>
<text text-anchor="start" x="270.5" y="-151" font-family="Helvetica,sans-Serif" font-size="10.00">+ Cluster()</text>
<text text-anchor="start" x="270.5" y="-140" font-family="Helvetica,sans-Serif" font-size="10.00">+ Cluster()</text>
<text text-anchor="start" x="270.5" y="-129" font-family="Helvetica,sans-Serif" font-size="10.00">+ ~Cluster()</text>
<text text-anchor="start" x="270.5" y="-118" font-family="Helvetica,sans-Serif" font-size="10.00">+ Cluster()</text>
<text text-anchor="start" x="270.5" y="-107" font-family="Helvetica,sans-Serif" font-size="10.00">+ setParameters()</text>
<text text-anchor="start" x="270.5" y="-96" font-family="Helvetica,sans-Serif" font-size="10.00">+ getCRU()</text>
<text text-anchor="start" x="270.5" y="-85" font-family="Helvetica,sans-Serif" font-size="10.00">+ getRow()</text>
<text text-anchor="start" x="270.5" y="-74" font-family="Helvetica,sans-Serif" font-size="10.00">+ getQ()</text>
<text text-anchor="start" x="270.5" y="-63" font-family="Helvetica,sans-Serif" font-size="10.00">+ getQmax()</text>
<text text-anchor="start" x="270.5" y="-52" font-family="Helvetica,sans-Serif" font-size="10.00">+ getPadMean()</text>
<text text-anchor="start" x="270.5" y="-41" font-family="Helvetica,sans-Serif" font-size="10.00">+ getTimeMean()</text>
<text text-anchor="start" x="270.5" y="-30" font-family="Helvetica,sans-Serif" font-size="10.00">+ getPadSigma()</text>
<text text-anchor="start" x="270.5" y="-19" font-family="Helvetica,sans-Serif" font-size="10.00">+ getTimeSigma()</text>
<text text-anchor="start" x="270.5" y="-8" font-family="Helvetica,sans-Serif" font-size="10.00"># print()</text>
</a>
</g>
</g>
<!-- Node3&#45;&gt;Node4 -->
<g id="edge3" class="edge"><title>Node3&#45;&gt;Node4</title>
<path fill="none" stroke="midnightblue" d="M310,-307.184C310,-275.933 310,-236.871 310,-201.24"/>
<polygon fill="none" stroke="midnightblue" points="306.5,-307.466 310,-317.466 313.5,-307.466 306.5,-307.466"/>
</g>
<!-- Node9 -->
<g id="node9" class="node"><title>Node9</title>
<g id="a_node9"><a xlink:href="../../db/df9/classo2_1_1fit_1_1Digit.html" target="_top" xlink:title="FIT digit implementation. ">
<polygon fill="none" stroke="black" points="773,-251.5 773,-484.5 865,-484.5 865,-251.5 773,-251.5"/>
<text text-anchor="middle" x="819" y="-472.5" font-family="Helvetica,sans-Serif" font-size="10.00">o2::fit::Digit</text>
<polyline fill="none" stroke="black" points="773,-465.5 865,-465.5 "/>
<text text-anchor="middle" x="819" y="-453.5" font-family="Helvetica,sans-Serif" font-size="10.00"> </text>
<polyline fill="none" stroke="black" points="773,-446.5 865,-446.5 "/>
<text text-anchor="start" x="781" y="-434.5" font-family="Helvetica,sans-Serif" font-size="10.00">+ Digit()</text>
<text text-anchor="start" x="781" y="-423.5" font-family="Helvetica,sans-Serif" font-size="10.00">+ Digit()</text>
<text text-anchor="start" x="781" y="-412.5" font-family="Helvetica,sans-Serif" font-size="10.00">+ ~Digit()</text>
<text text-anchor="start" x="781" y="-401.5" font-family="Helvetica,sans-Serif" font-size="10.00">+ getTime()</text>
<text text-anchor="start" x="781" y="-390.5" font-family="Helvetica,sans-Serif" font-size="10.00">+ setTime()</text>
<text text-anchor="start" x="781" y="-379.5" font-family="Helvetica,sans-Serif" font-size="10.00">+ getBC()</text>
<text text-anchor="start" x="781" y="-368.5" font-family="Helvetica,sans-Serif" font-size="10.00">+ setBC()</text>
<text text-anchor="start" x="781" y="-357.5" font-family="Helvetica,sans-Serif" font-size="10.00">+ getisA()</text>
<text text-anchor="start" x="781" y="-346.5" font-family="Helvetica,sans-Serif" font-size="10.00">+ getisC()</text>
<text text-anchor="start" x="781" y="-335.5" font-family="Helvetica,sans-Serif" font-size="10.00">+ getisCnt()</text>
<text text-anchor="start" x="781" y="-324.5" font-family="Helvetica,sans-Serif" font-size="10.00">+ getisSCnt()</text>
<text text-anchor="start" x="781" y="-313.5" font-family="Helvetica,sans-Serif" font-size="10.00">+ getisVrtx()</text>
<text text-anchor="start" x="781" y="-302.5" font-family="Helvetica,sans-Serif" font-size="10.00">+ setTriggers()</text>
<text text-anchor="start" x="781" y="-291.5" font-family="Helvetica,sans-Serif" font-size="10.00">+ getChDgData()</text>
<text text-anchor="start" x="781" y="-280.5" font-family="Helvetica,sans-Serif" font-size="10.00">+ setChDgData()</text>
<text text-anchor="start" x="781" y="-269.5" font-family="Helvetica,sans-Serif" font-size="10.00">+ setChDgData()</text>
<text text-anchor="start" x="781" y="-258.5" font-family="Helvetica,sans-Serif" font-size="10.00">+ printStream()</text>
</a>
</g>
</g>
<!-- Node8&#45;&gt;Node9 -->
<g id="edge8" class="edge"><title>Node8&#45;&gt;Node9</title>
<path fill="none" stroke="midnightblue" d="M819,-622.71C819,-582.977 819,-531.085 819,-484.592"/>
<polygon fill="none" stroke="midnightblue" points="815.5,-622.799 819,-632.799 822.5,-622.799 815.5,-622.799"/>
</g>
<!-- Node10 -->
<g id="node10" class="node"><title>Node10</title>
<g id="a_node10"><a xlink:href="../../d3/d03/classo2_1_1hmpid_1_1Digit.html" target="_top" xlink:title="HMPID digit implementation. ">
<polygon fill="none" stroke="black" points="883,-317.5 883,-418.5 969,-418.5 969,-317.5 883,-317.5"/>
<text text-anchor="middle" x="926" y="-406.5" font-family="Helvetica,sans-Serif" font-size="10.00">o2::hmpid::Digit</text>
<polyline fill="none" stroke="black" points="883,-399.5 969,-399.5 "/>
<text text-anchor="middle" x="926" y="-387.5" font-family="Helvetica,sans-Serif" font-size="10.00"> </text>
<polyline fill="none" stroke="black" points="883,-380.5 969,-380.5 "/>
<text text-anchor="start" x="891" y="-368.5" font-family="Helvetica,sans-Serif" font-size="10.00">+ Digit()</text>
<text text-anchor="start" x="891" y="-357.5" font-family="Helvetica,sans-Serif" font-size="10.00">+ Digit()</text>
<text text-anchor="start" x="891" y="-346.5" font-family="Helvetica,sans-Serif" font-size="10.00">+ getCharge()</text>
<text text-anchor="start" x="891" y="-335.5" font-family="Helvetica,sans-Serif" font-size="10.00">+ getPadID()</text>
<text text-anchor="start" x="891" y="-324.5" font-family="Helvetica,sans-Serif" font-size="10.00">+ Digit()</text>
</a>
</g>
</g>
<!-- Node8&#45;&gt;Node10 -->
<g id="edge9" class="edge"><title>Node8&#45;&gt;Node10</title>
<path fill="none" stroke="midnightblue" d="M840.815,-622.964C861.119,-562.432 890.941,-473.523 909.379,-418.552"/>
<polygon fill="none" stroke="midnightblue" points="837.378,-622.205 837.516,-632.799 844.014,-624.431 837.378,-622.205"/>
</g>
<!-- Node11 -->
<g id="node11" class="node"><title>Node11</title>
<g id="a_node11"><a xlink:href="../../d8/db4/classo2_1_1tof_1_1Digit.html" target="_top" xlink:title="TOF digit implementation. ">
<polygon fill="none" stroke="black" points="639,-240.5 639,-495.5 755,-495.5 755,-240.5 639,-240.5"/>
<text text-anchor="middle" x="697" y="-483.5" font-family="Helvetica,sans-Serif" font-size="10.00">o2::tof::Digit</text>
<polyline fill="none" stroke="black" points="639,-476.5 755,-476.5 "/>
<text text-anchor="middle" x="697" y="-464.5" font-family="Helvetica,sans-Serif" font-size="10.00"> </text>
<polyline fill="none" stroke="black" points="639,-457.5 755,-457.5 "/>
<text text-anchor="start" x="647" y="-445.5" font-family="Helvetica,sans-Serif" font-size="10.00">+ Digit()</text>
<text text-anchor="start" x="647" y="-434.5" font-family="Helvetica,sans-Serif" font-size="10.00">+ Digit()</text>
<text text-anchor="start" x="647" y="-423.5" font-family="Helvetica,sans-Serif" font-size="10.00">+ ~Digit()</text>
<text text-anchor="start" x="647" y="-412.5" font-family="Helvetica,sans-Serif" font-size="10.00">+ getChannel()</text>
<text text-anchor="start" x="647" y="-401.5" font-family="Helvetica,sans-Serif" font-size="10.00">+ setChannel()</text>
<text text-anchor="start" x="647" y="-390.5" font-family="Helvetica,sans-Serif" font-size="10.00">+ getTDC()</text>
<text text-anchor="start" x="647" y="-379.5" font-family="Helvetica,sans-Serif" font-size="10.00">+ setTDC()</text>
<text text-anchor="start" x="647" y="-368.5" font-family="Helvetica,sans-Serif" font-size="10.00">+ getTOT()</text>
<text text-anchor="start" x="647" y="-357.5" font-family="Helvetica,sans-Serif" font-size="10.00">+ setTOT()</text>
<text text-anchor="start" x="647" y="-346.5" font-family="Helvetica,sans-Serif" font-size="10.00">+ getBC()</text>
<text text-anchor="start" x="647" y="-335.5" font-family="Helvetica,sans-Serif" font-size="10.00">+ setBC()</text>
<text text-anchor="start" x="647" y="-324.5" font-family="Helvetica,sans-Serif" font-size="10.00">+ getLabel()</text>
<text text-anchor="start" x="647" y="-313.5" font-family="Helvetica,sans-Serif" font-size="10.00">+ setLabel()</text>
<text text-anchor="start" x="647" y="-302.5" font-family="Helvetica,sans-Serif" font-size="10.00">+ printStream()</text>
<text text-anchor="start" x="647" y="-291.5" font-family="Helvetica,sans-Serif" font-size="10.00">+ merge()</text>
<text text-anchor="start" x="647" y="-280.5" font-family="Helvetica,sans-Serif" font-size="10.00">+ getPhiAndEtaIndex()</text>
<text text-anchor="start" x="647" y="-269.5" font-family="Helvetica,sans-Serif" font-size="10.00">+ isUsedInCluster()</text>
<text text-anchor="start" x="647" y="-258.5" font-family="Helvetica,sans-Serif" font-size="10.00">+ setIsUsedInCluster()</text>
<text text-anchor="start" x="647" y="-247.5" font-family="Helvetica,sans-Serif" font-size="10.00">+ getOrderingKey()</text>
</a>
</g>
</g>
<!-- Node8&#45;&gt;Node11 -->
<g id="edge10" class="edge"><title>Node8&#45;&gt;Node11</title>
<path fill="none" stroke="midnightblue" d="M794.227,-623.224C780.195,-586.535 762.154,-539.361 745.43,-495.632"/>
<polygon fill="none" stroke="midnightblue" points="791.047,-624.709 797.889,-632.799 797.585,-622.208 791.047,-624.709"/>
</g>
<!-- Node12&#45;&gt;Node3 -->
<g id="edge12" class="edge"><title>Node12&#45;&gt;Node3</title>
<path fill="none" stroke="midnightblue" d="M101.457,-623.928C115.106,-598.255 132.066,-568.916 150,-544 182.586,-498.727 225.502,-452.353 258.683,-418.726"/>
<polygon fill="none" stroke="midnightblue" points="98.3255,-622.362 96.7705,-632.842 104.522,-625.619 98.3255,-622.362"/>
</g>
</g>
</svg>
