<?xml version="1.0" encoding="UTF-8" standalone="no"?>
<!DOCTYPE svg PUBLIC "-//W3C//DTD SVG 1.1//EN"
 "http://www.w3.org/Graphics/SVG/1.1/DTD/svg11.dtd">
<!-- Generated by graphviz version 2.36.0 (20140111.2315)
 -->
<!-- Title: /home/travis/build/AliceO2Group/AliceO2/Framework/Core/include/Framework/Task.h Pages: 1 -->
<svg width="1734pt" height="230pt"
 viewBox="0.00 0.00 1734.00 230.00" xmlns="http://www.w3.org/2000/svg" xmlns:xlink="http://www.w3.org/1999/xlink">
<g id="graph0" class="graph" transform="scale(1 1) rotate(0) translate(4 226)">
<title>/home/travis/build/AliceO2Group/AliceO2/Framework/Core/include/Framework/Task.h</title>
<!-- Node1 -->
<g id="node1" class="node"><title>Node1</title>
<polygon fill="#bfbfbf" stroke="black" points="828,-169 828,-221 954,-221 954,-169 828,-169"/>
<text text-anchor="start" x="836" y="-209" font-family="Helvetica,sans-Serif" font-size="10.00">/home/travis/build</text>
<text text-anchor="start" x="836" y="-198" font-family="Helvetica,sans-Serif" font-size="10.00">/AliceO2Group/AliceO2</text>
<text text-anchor="start" x="836" y="-187" font-family="Helvetica,sans-Serif" font-size="10.00">/Framework/Core/include</text>
<text text-anchor="middle" x="891" y="-176" font-family="Helvetica,sans-Serif" font-size="10.00">/Framework/Task.h</text>
</g>
<!-- Node2 -->
<g id="node2" class="node"><title>Node2</title>
<g id="a_node2"><a xlink:href="../../d7/d33/Dispatcher_8h.html" target="_top" xlink:title="Declaration of Dispatcher for O2 Data Sampling. ">
<polygon fill="none" stroke="black" points="133.5,-79 133.5,-131 260.5,-131 260.5,-79 133.5,-79"/>
<text text-anchor="start" x="141.5" y="-119" font-family="Helvetica,sans-Serif" font-size="10.00">/home/travis/build</text>
<text text-anchor="start" x="141.5" y="-108" font-family="Helvetica,sans-Serif" font-size="10.00">/AliceO2Group/AliceO2</text>
<text text-anchor="start" x="141.5" y="-97" font-family="Helvetica,sans-Serif" font-size="10.00">/Framework/Core/include</text>
<text text-anchor="middle" x="197" y="-86" font-family="Helvetica,sans-Serif" font-size="10.00">/Framework/Dispatcher.h</text>
</a>
</g>
</g>
<!-- Node1&#45;&gt;Node2 -->
<g id="edge1" class="edge"><title>Node1&#45;&gt;Node2</title>
<path fill="none" stroke="midnightblue" d="M817.326,-192.405C700.094,-188.586 464.465,-175.656 270,-132 266.981,-131.322 263.915,-130.556 260.835,-129.724"/>
<polygon fill="midnightblue" stroke="midnightblue" points="817.509,-195.913 827.613,-192.727 817.727,-188.916 817.509,-195.913"/>
</g>
<!-- Node5 -->
<g id="node5" class="node"><title>Node5</title>
<g id="a_node5"><a xlink:href="../../d5/d01/Task_8cxx.html" target="_top" xlink:title="/home/travis/build\l/AliceO2Group/AliceO2\l/Framework/Core/src/Task.cxx">
<polygon fill="none" stroke="black" points="279,-84.5 279,-125.5 431,-125.5 431,-84.5 279,-84.5"/>
<text text-anchor="start" x="287" y="-113.5" font-family="Helvetica,sans-Serif" font-size="10.00">/home/travis/build</text>
<text text-anchor="start" x="287" y="-102.5" font-family="Helvetica,sans-Serif" font-size="10.00">/AliceO2Group/AliceO2</text>
<text text-anchor="middle" x="355" y="-91.5" font-family="Helvetica,sans-Serif" font-size="10.00">/Framework/Core/src/Task.cxx</text>
</a>
</g>
</g>
<!-- Node1&#45;&gt;Node5 -->
<g id="edge4" class="edge"><title>Node1&#45;&gt;Node5</title>
<path fill="none" stroke="midnightblue" d="M817.792,-187.472C728.228,-178.672 572.306,-160.709 441,-132 432.619,-130.168 423.87,-127.922 415.297,-125.527"/>
<polygon fill="midnightblue" stroke="midnightblue" points="817.555,-190.966 827.847,-188.449 818.232,-183.998 817.555,-190.966"/>
</g>
<!-- Node6 -->
<g id="node6" class="node"><title>Node6</title>
<g id="a_node6"><a xlink:href="../../db/d49/test__Task_8cxx.html" target="_top" xlink:title="/home/travis/build\l/AliceO2Group/AliceO2\l/Framework/Core/test/test\l_Task.cxx">
<polygon fill="none" stroke="black" points="449.5,-79 449.5,-131 580.5,-131 580.5,-79 449.5,-79"/>
<text text-anchor="start" x="457.5" y="-119" font-family="Helvetica,sans-Serif" font-size="10.00">/home/travis/build</text>
<text text-anchor="start" x="457.5" y="-108" font-family="Helvetica,sans-Serif" font-size="10.00">/AliceO2Group/AliceO2</text>
<text text-anchor="start" x="457.5" y="-97" font-family="Helvetica,sans-Serif" font-size="10.00">/Framework/Core/test/test</text>
<text text-anchor="middle" x="515" y="-86" font-family="Helvetica,sans-Serif" font-size="10.00">_Task.cxx</text>
</a>
</g>
</g>
<!-- Node1&#45;&gt;Node6 -->
<g id="edge5" class="edge"><title>Node1&#45;&gt;Node6</title>
<path fill="none" stroke="midnightblue" d="M817.909,-181.705C756.56,-170.729 666.873,-153.144 590,-132 586.944,-131.159 583.831,-130.26 580.698,-129.319"/>
<polygon fill="midnightblue" stroke="midnightblue" points="817.426,-185.174 827.884,-183.477 818.65,-178.282 817.426,-185.174"/>
</g>
<!-- Node7 -->
<g id="node7" class="node"><title>Node7</title>
<g id="a_node7"><a xlink:href="../../dd/dfe/FITDigitizerSpec_8cxx.html" target="_top" xlink:title="/home/travis/build\l/AliceO2Group/AliceO2\l/Steer/DigitizerWorkflow\l/src/FITDigitizerSpec.cxx">
<polygon fill="none" stroke="black" points="599,-79 599,-131 727,-131 727,-79 599,-79"/>
<text text-anchor="start" x="607" y="-119" font-family="Helvetica,sans-Serif" font-size="10.00">/home/travis/build</text>
<text text-anchor="start" x="607" y="-108" font-family="Helvetica,sans-Serif" font-size="10.00">/AliceO2Group/AliceO2</text>
<text text-anchor="start" x="607" y="-97" font-family="Helvetica,sans-Serif" font-size="10.00">/Steer/DigitizerWorkflow</text>
<text text-anchor="middle" x="663" y="-86" font-family="Helvetica,sans-Serif" font-size="10.00">/src/FITDigitizerSpec.cxx</text>
</a>
</g>
</g>
<!-- Node1&#45;&gt;Node7 -->
<g id="edge6" class="edge"><title>Node1&#45;&gt;Node7</title>
<path fill="none" stroke="midnightblue" d="M818.43,-165.991C789.101,-154.671 755.538,-141.716 727.123,-130.749"/>
<polygon fill="midnightblue" stroke="midnightblue" points="817.203,-169.268 827.792,-169.604 819.723,-162.738 817.203,-169.268"/>
</g>
<!-- Node8 -->
<g id="node8" class="node"><title>Node8</title>
<g id="a_node8"><a xlink:href="../../d9/d59/GRPUpdaterSpec_8cxx.html" target="_top" xlink:title="/home/travis/build\l/AliceO2Group/AliceO2\l/Steer/DigitizerWorkflow\l/src/GRPUpdaterSpec.cxx">
<polygon fill="none" stroke="black" points="745,-79 745,-131 879,-131 879,-79 745,-79"/>
<text text-anchor="start" x="753" y="-119" font-family="Helvetica,sans-Serif" font-size="10.00">/home/travis/build</text>
<text text-anchor="start" x="753" y="-108" font-family="Helvetica,sans-Serif" font-size="10.00">/AliceO2Group/AliceO2</text>
<text text-anchor="start" x="753" y="-97" font-family="Helvetica,sans-Serif" font-size="10.00">/Steer/DigitizerWorkflow</text>
<text text-anchor="middle" x="812" y="-86" font-family="Helvetica,sans-Serif" font-size="10.00">/src/GRPUpdaterSpec.cxx</text>
</a>
</g>
</g>
<!-- Node1&#45;&gt;Node8 -->
<g id="edge7" class="edge"><title>Node1&#45;&gt;Node8</title>
<path fill="none" stroke="midnightblue" d="M861.237,-160.846C852.384,-150.985 842.836,-140.349 834.526,-131.092"/>
<polygon fill="midnightblue" stroke="midnightblue" points="858.865,-163.443 868.15,-168.547 864.074,-158.767 858.865,-163.443"/>
</g>
<!-- Node9 -->
<g id="node9" class="node"><title>Node9</title>
<g id="a_node9"><a xlink:href="../../d8/d00/HMPIDDigitizerSpec_8cxx.html" target="_top" xlink:title="/home/travis/build\l/AliceO2Group/AliceO2\l/Steer/DigitizerWorkflow\l/src/HMPIDDigitizerSpec.cxx">
<polygon fill="none" stroke="black" points="897,-79 897,-131 1043,-131 1043,-79 897,-79"/>
<text text-anchor="start" x="905" y="-119" font-family="Helvetica,sans-Serif" font-size="10.00">/home/travis/build</text>
<text text-anchor="start" x="905" y="-108" font-family="Helvetica,sans-Serif" font-size="10.00">/AliceO2Group/AliceO2</text>
<text text-anchor="start" x="905" y="-97" font-family="Helvetica,sans-Serif" font-size="10.00">/Steer/DigitizerWorkflow</text>
<text text-anchor="middle" x="970" y="-86" font-family="Helvetica,sans-Serif" font-size="10.00">/src/HMPIDDigitizerSpec.cxx</text>
</a>
</g>
</g>
<!-- Node1&#45;&gt;Node9 -->
<g id="edge8" class="edge"><title>Node1&#45;&gt;Node9</title>
<path fill="none" stroke="midnightblue" d="M920.763,-160.846C929.616,-150.985 939.164,-140.349 947.474,-131.092"/>
<polygon fill="midnightblue" stroke="midnightblue" points="917.926,-158.767 913.85,-168.547 923.135,-163.443 917.926,-158.767"/>
</g>
<!-- Node10 -->
<g id="node10" class="node"><title>Node10</title>
<g id="a_node10"><a xlink:href="../../dc/dbc/HMPIDDigitWriterSpec_8cxx.html" target="_top" xlink:title="/home/travis/build\l/AliceO2Group/AliceO2\l/Steer/DigitizerWorkflow\l/src/HMPIDDigitWriterSpec.cxx">
<polygon fill="none" stroke="black" points="1061.5,-79 1061.5,-131 1218.5,-131 1218.5,-79 1061.5,-79"/>
<text text-anchor="start" x="1069.5" y="-119" font-family="Helvetica,sans-Serif" font-size="10.00">/home/travis/build</text>
<text text-anchor="start" x="1069.5" y="-108" font-family="Helvetica,sans-Serif" font-size="10.00">/AliceO2Group/AliceO2</text>
<text text-anchor="start" x="1069.5" y="-97" font-family="Helvetica,sans-Serif" font-size="10.00">/Steer/DigitizerWorkflow</text>
<text text-anchor="middle" x="1140" y="-86" font-family="Helvetica,sans-Serif" font-size="10.00">/src/HMPIDDigitWriterSpec.cxx</text>
</a>
</g>
</g>
<!-- Node1&#45;&gt;Node10 -->
<g id="edge9" class="edge"><title>Node1&#45;&gt;Node10</title>
<path fill="none" stroke="midnightblue" d="M963.789,-168.275C996.948,-156.557 1036.06,-142.734 1069,-131.093"/>
<polygon fill="midnightblue" stroke="midnightblue" points="962.417,-165.048 954.155,-171.68 964.75,-171.648 962.417,-165.048"/>
</g>
<!-- Node11 -->
<g id="node11" class="node"><title>Node11</title>
<g id="a_node11"><a xlink:href="../../d3/d43/ITSMFTDigitizerSpec_8cxx.html" target="_top" xlink:title="/home/travis/build\l/AliceO2Group/AliceO2\l/Steer/DigitizerWorkflow\l/src/ITSMFTDigitizerSpec.cxx">
<polygon fill="none" stroke="black" points="1236.5,-79 1236.5,-131 1385.5,-131 1385.5,-79 1236.5,-79"/>
<text text-anchor="start" x="1244.5" y="-119" font-family="Helvetica,sans-Serif" font-size="10.00">/home/travis/build</text>
<text text-anchor="start" x="1244.5" y="-108" font-family="Helvetica,sans-Serif" font-size="10.00">/AliceO2Group/AliceO2</text>
<text text-anchor="start" x="1244.5" y="-97" font-family="Helvetica,sans-Serif" font-size="10.00">/Steer/DigitizerWorkflow</text>
<text text-anchor="middle" x="1311" y="-86" font-family="Helvetica,sans-Serif" font-size="10.00">/src/ITSMFTDigitizerSpec.cxx</text>
</a>
</g>
</g>
<!-- Node1&#45;&gt;Node11 -->
<g id="edge10" class="edge"><title>Node1&#45;&gt;Node11</title>
<path fill="none" stroke="midnightblue" d="M964.259,-183.032C1032.68,-172.187 1137.42,-154.046 1227,-132 1230.11,-131.234 1233.28,-130.418 1236.47,-129.567"/>
<polygon fill="midnightblue" stroke="midnightblue" points="963.35,-179.632 954.016,-184.644 964.438,-186.547 963.35,-179.632"/>
</g>
<!-- Node12 -->
<g id="node12" class="node"><title>Node12</title>
<g id="a_node12"><a xlink:href="../../df/d17/ITSMFTDigitWriterSpec_8cxx.html" target="_top" xlink:title="/home/travis/build\l/AliceO2Group/AliceO2\l/Steer/DigitizerWorkflow\l/src/ITSMFTDigitWriterSpec.cxx">
<polygon fill="none" stroke="black" points="1404,-79 1404,-131 1564,-131 1564,-79 1404,-79"/>
<text text-anchor="start" x="1412" y="-119" font-family="Helvetica,sans-Serif" font-size="10.00">/home/travis/build</text>
<text text-anchor="start" x="1412" y="-108" font-family="Helvetica,sans-Serif" font-size="10.00">/AliceO2Group/AliceO2</text>
<text text-anchor="start" x="1412" y="-97" font-family="Helvetica,sans-Serif" font-size="10.00">/Steer/DigitizerWorkflow</text>
<text text-anchor="middle" x="1484" y="-86" font-family="Helvetica,sans-Serif" font-size="10.00">/src/ITSMFTDigitWriterSpec.cxx</text>
</a>
</g>
</g>
<!-- Node1&#45;&gt;Node12 -->
<g id="edge11" class="edge"><title>Node1&#45;&gt;Node12</title>
<path fill="none" stroke="midnightblue" d="M964.398,-188.623C1062.88,-180.575 1242.9,-162.935 1394,-132 1397.19,-131.348 1400.42,-130.638 1403.69,-129.885"/>
<polygon fill="midnightblue" stroke="midnightblue" points="963.94,-185.149 954.254,-189.442 964.503,-192.126 963.94,-185.149"/>
</g>
<!-- Node13 -->
<g id="node13" class="node"><title>Node13</title>
<g id="a_node13"><a xlink:href="../../da/df1/TOFClusterizerSpec_8cxx.html" target="_top" xlink:title="/home/travis/build\l/AliceO2Group/AliceO2\l/Steer/DigitizerWorkflow\l/src/TOFClusterizerSpec.cxx">
<polygon fill="none" stroke="black" points="1582,-79 1582,-131 1726,-131 1726,-79 1582,-79"/>
<text text-anchor="start" x="1590" y="-119" font-family="Helvetica,sans-Serif" font-size="10.00">/home/travis/build</text>
<text text-anchor="start" x="1590" y="-108" font-family="Helvetica,sans-Serif" font-size="10.00">/AliceO2Group/AliceO2</text>
<text text-anchor="start" x="1590" y="-97" font-family="Helvetica,sans-Serif" font-size="10.00">/Steer/DigitizerWorkflow</text>
<text text-anchor="middle" x="1654" y="-86" font-family="Helvetica,sans-Serif" font-size="10.00">/src/TOFClusterizerSpec.cxx</text>
</a>
</g>
</g>
<!-- Node1&#45;&gt;Node13 -->
<g id="edge12" class="edge"><title>Node1&#45;&gt;Node13</title>
<path fill="none" stroke="midnightblue" d="M964.478,-192.599C1090.3,-189.031 1354.57,-176.42 1573,-132 1575.89,-131.411 1578.83,-130.756 1581.79,-130.048"/>
<polygon fill="midnightblue" stroke="midnightblue" points="964.099,-189.108 954.199,-192.879 964.29,-196.106 964.099,-189.108"/>
</g>
<!-- Node3 -->
<g id="node3" class="node"><title>Node3</title>
<g id="a_node3"><a xlink:href="../../d0/dd6/DataSampling_8cxx.html" target="_top" xlink:title="Implementation of O2 Data Sampling, v1.0. ">
<polygon fill="none" stroke="black" points="0,-0.5 0,-41.5 192,-41.5 192,-0.5 0,-0.5"/>
<text text-anchor="start" x="8" y="-29.5" font-family="Helvetica,sans-Serif" font-size="10.00">/home/travis/build</text>
<text text-anchor="start" x="8" y="-18.5" font-family="Helvetica,sans-Serif" font-size="10.00">/AliceO2Group/AliceO2</text>
<text text-anchor="middle" x="96" y="-7.5" font-family="Helvetica,sans-Serif" font-size="10.00">/Framework/Core/src/DataSampling.cxx</text>
</a>
</g>
</g>
<!-- Node2&#45;&gt;Node3 -->
<g id="edge2" class="edge"><title>Node2&#45;&gt;Node3</title>
<path fill="none" stroke="midnightblue" d="M158.347,-72.6188C145.545,-62.2248 131.666,-50.9568 120.26,-41.6965"/>
<polygon fill="midnightblue" stroke="midnightblue" points="156.178,-75.3659 166.148,-78.9517 160.59,-69.9314 156.178,-75.3659"/>
</g>
<!-- Node4 -->
<g id="node4" class="node"><title>Node4</title>
<g id="a_node4"><a xlink:href="../../d1/dca/Dispatcher_8cxx.html" target="_top" xlink:title="Implementation of Dispatcher for O2 Data Sampling. ">
<polygon fill="none" stroke="black" points="210,-0.5 210,-41.5 388,-41.5 388,-0.5 210,-0.5"/>
<text text-anchor="start" x="218" y="-29.5" font-family="Helvetica,sans-Serif" font-size="10.00">/home/travis/build</text>
<text text-anchor="start" x="218" y="-18.5" font-family="Helvetica,sans-Serif" font-size="10.00">/AliceO2Group/AliceO2</text>
<text text-anchor="middle" x="299" y="-7.5" font-family="Helvetica,sans-Serif" font-size="10.00">/Framework/Core/src/Dispatcher.cxx</text>
</a>
</g>
</g>
<!-- Node2&#45;&gt;Node4 -->
<g id="edge3" class="edge"><title>Node2&#45;&gt;Node4</title>
<path fill="none" stroke="midnightblue" d="M236.035,-72.6188C248.964,-62.2248 262.981,-50.9568 274.5,-41.6965"/>
<polygon fill="midnightblue" stroke="midnightblue" points="233.758,-69.9583 228.158,-78.9517 238.144,-75.414 233.758,-69.9583"/>
</g>
</g>
</svg>
