<?xml version="1.0" encoding="UTF-8" standalone="no"?>
<!DOCTYPE svg PUBLIC "-//W3C//DTD SVG 1.1//EN"
 "http://www.w3.org/Graphics/SVG/1.1/DTD/svg11.dtd">
<!-- Generated by graphviz version 2.36.0 (20140111.2315)
 -->
<!-- Title: /home/travis/build/AliceO2Group/AliceO2/Framework/Core/src/FrameworkGUIDataRelayerUsage.cxx Pages: 1 -->
<!--zoomable 230 -->
<svg id="main" version="1.1" xmlns="http://www.w3.org/2000/svg" xmlns:xlink="http://www.w3.org/1999/xlink" xml:space="preserve" onload="init(evt)">
<style type="text/css"><![CDATA[
.edge:hover path { stroke: red; }
.edge:hover polygon { stroke: red; fill: red; }
]]></style>
<script type="text/javascript"><![CDATA[
var edges = document.getElementsByTagName('g');
if (edges && edges.length) {
  for (var i=0;i<edges.length;i++) {
    if (edges[i].id.substr(0,4)=='edge') {
      edges[i].setAttribute('class','edge');
    }
  }
}
]]></script>
        <defs>
                <circle id="rim" cx="0" cy="0" r="7"/>
                <circle id="rim2" cx="0" cy="0" r="3.5"/>
                <g id="zoomPlus">
                        <use xlink:href="#rim" fill="#404040">
                                <set attributeName="fill" to="#808080" begin="zoomplus.mouseover" end="zoomplus.mouseout"/>
                        </use>
                        <path d="M-4,0h8M0,-4v8" fill="none" stroke="white" stroke-width="1.5" pointer-events="none"/>
                </g>
                <g id="zoomMin">
                        <use xlink:href="#rim" fill="#404040">
                                <set attributeName="fill" to="#808080" begin="zoomminus.mouseover" end="zoomminus.mouseout"/>
                        </use>
                        <path d="M-4,0h8" fill="none" stroke="white" stroke-width="1.5" pointer-events="none"/>
                </g>
                <g id="dirArrow">
                        <path fill="none" stroke="white" stroke-width="1.5" d="M0,-3.0v7 M-2.5,-0.5L0,-3.0L2.5,-0.5"/>
                </g>
               <g id="resetDef">
                       <use xlink:href="#rim2" fill="#404040">
                               <set attributeName="fill" to="#808080" begin="reset.mouseover" end="reset.mouseout"/>
                       </use>
               </g>
        </defs>

<script type="text/javascript">
var viewWidth = 1424;
var viewHeight = 230;
var sectionId = 'dynsection-0';
</script>
<script xlink:href="../../svgpan.js"/>
<svg id="graph" class="graph">
<g id="viewport">
<title>/home/travis/build/AliceO2Group/AliceO2/Framework/Core/src/FrameworkGUIDataRelayerUsage.cxx</title>
<!-- Node1 -->
<g id="node1" class="node"><title>Node1</title>
<polygon fill="#bfbfbf" stroke="black" points="493.5,-169 493.5,-221 654.5,-221 654.5,-169 493.5,-169"/>
<text text-anchor="start" x="501.5" y="-209" font-family="Helvetica,sans-Serif" font-size="10.00">/home/travis/build</text>
<text text-anchor="start" x="501.5" y="-198" font-family="Helvetica,sans-Serif" font-size="10.00">/AliceO2Group/AliceO2</text>
<text text-anchor="start" x="501.5" y="-187" font-family="Helvetica,sans-Serif" font-size="10.00">/Framework/Core/src/Framework</text>
<text text-anchor="middle" x="574" y="-176" font-family="Helvetica,sans-Serif" font-size="10.00">GUIDataRelayerUsage.cxx</text>
</g>
<!-- Node2 -->
<g id="node2" class="node"><title>Node2</title>
<g id="a_node2"><a xlink:href="../../d2/d35/include_2DebugGUI_2imgui_8h.html" target="_top" xlink:title="DebugGUI/imgui.h">
<polygon fill="none" stroke="black" points="189,-112.5 189,-131.5 287,-131.5 287,-112.5 189,-112.5"/>
<text text-anchor="middle" x="238" y="-119.5" font-family="Helvetica,sans-Serif" font-size="10.00">DebugGUI/imgui.h</text>
</a>
</g>
</g>
<!-- Node1&#45;&gt;Node2 -->
<g id="edge1" class="edge"><title>Node1&#45;&gt;Node2</title>
<path fill="none" stroke="midnightblue" d="M493.092,-176.903C429.425,-163.45 342.693,-145.123 288.544,-133.68"/>
<polygon fill="midnightblue" stroke="midnightblue" points="289.002,-130.2 278.495,-131.557 287.555,-137.049 289.002,-130.2"/>
</g>
<!-- Node9 -->
<g id="node9" class="node"><title>Node9</title>
<polygon fill="none" stroke="#bfbfbf" points="574.5,-0.5 574.5,-19.5 633.5,-19.5 633.5,-0.5 574.5,-0.5"/>
<text text-anchor="middle" x="604" y="-7.5" font-family="Helvetica,sans-Serif" font-size="10.00">functional</text>
</g>
<!-- Node1&#45;&gt;Node9 -->
<g id="edge8" class="edge"><title>Node1&#45;&gt;Node9</title>
<path fill="none" stroke="midnightblue" d="M539.12,-168.941C504.599,-140.994 460.464,-94.6379 487,-56 496.16,-42.6627 534.15,-29.6376 564.39,-21.0614"/>
<polygon fill="midnightblue" stroke="midnightblue" points="565.586,-24.3624 574.295,-18.3295 563.724,-17.6143 565.586,-24.3624"/>
</g>
<!-- Node10 -->
<g id="node10" class="node"><title>Node10</title>
<g id="a_node10"><a xlink:href="../../dc/df0/DeviceMetricsInfo_8h.html" target="_top" xlink:title="Framework/DeviceMetricsInfo.h">
<polygon fill="none" stroke="black" points="496,-56.5 496,-75.5 652,-75.5 652,-56.5 496,-56.5"/>
<text text-anchor="middle" x="574" y="-63.5" font-family="Helvetica,sans-Serif" font-size="10.00">Framework/DeviceMetricsInfo.h</text>
</a>
</g>
</g>
<!-- Node1&#45;&gt;Node10 -->
<g id="edge9" class="edge"><title>Node1&#45;&gt;Node10</title>
<path fill="none" stroke="midnightblue" d="M574,-168.909C574,-144.409 574,-107.69 574,-85.6639"/>
<polygon fill="midnightblue" stroke="midnightblue" points="577.5,-85.6278 574,-75.6278 570.5,-85.6279 577.5,-85.6278"/>
</g>
<!-- Node16 -->
<g id="node16" class="node"><title>Node16</title>
<g id="a_node16"><a xlink:href="../../d7/d58/DeviceInfo_8h.html" target="_top" xlink:title="Framework/DeviceInfo.h">
<polygon fill="none" stroke="black" points="781,-112.5 781,-131.5 905,-131.5 905,-112.5 781,-112.5"/>
<text text-anchor="middle" x="843" y="-119.5" font-family="Helvetica,sans-Serif" font-size="10.00">Framework/DeviceInfo.h</text>
</a>
</g>
</g>
<!-- Node1&#45;&gt;Node16 -->
<g id="edge16" class="edge"><title>Node1&#45;&gt;Node16</title>
<path fill="none" stroke="midnightblue" d="M654.709,-172.698C702.726,-160.024 761.694,-144.46 800.707,-134.163"/>
<polygon fill="midnightblue" stroke="midnightblue" points="801.889,-137.471 810.665,-131.534 800.103,-130.702 801.889,-137.471"/>
</g>
<!-- Node28 -->
<g id="node28" class="node"><title>Node28</title>
<polygon fill="none" stroke="#bfbfbf" points="923,-112.5 923,-131.5 977,-131.5 977,-112.5 923,-112.5"/>
<text text-anchor="middle" x="950" y="-119.5" font-family="Helvetica,sans-Serif" font-size="10.00">iostream</text>
</g>
<!-- Node1&#45;&gt;Node28 -->
<g id="edge37" class="edge"><title>Node1&#45;&gt;Node28</title>
<path fill="none" stroke="midnightblue" d="M654.739,-180.584C723.584,-168.821 825.075,-150.718 913,-132 913.101,-131.978 913.202,-131.957 913.304,-131.935"/>
<polygon fill="midnightblue" stroke="midnightblue" points="913.973,-135.372 922.963,-129.767 912.44,-128.542 913.973,-135.372"/>
</g>
<!-- Node3 -->
<g id="node3" class="node"><title>Node3</title>
<g id="a_node3"><a xlink:href="../../d2/d26/include_2DebugGUI_2imconfig_8h.html" target="_top" xlink:title="imconfig.h">
<polygon fill="none" stroke="black" points="0,-56.5 0,-75.5 62,-75.5 62,-56.5 0,-56.5"/>
<text text-anchor="middle" x="31" y="-63.5" font-family="Helvetica,sans-Serif" font-size="10.00">imconfig.h</text>
</a>
</g>
</g>
<!-- Node2&#45;&gt;Node3 -->
<g id="edge2" class="edge"><title>Node2&#45;&gt;Node3</title>
<path fill="none" stroke="midnightblue" d="M205.2,-112.444C169.201,-103.052 111.343,-87.959 72.2833,-77.7695"/>
<polygon fill="midnightblue" stroke="midnightblue" points="72.851,-74.3006 62.2913,-75.1629 71.084,-81.0739 72.851,-74.3006"/>
</g>
<!-- Node4 -->
<g id="node4" class="node"><title>Node4</title>
<polygon fill="none" stroke="#bfbfbf" points="80,-56.5 80,-75.5 124,-75.5 124,-56.5 80,-56.5"/>
<text text-anchor="middle" x="102" y="-63.5" font-family="Helvetica,sans-Serif" font-size="10.00">float.h</text>
</g>
<!-- Node2&#45;&gt;Node4 -->
<g id="edge3" class="edge"><title>Node2&#45;&gt;Node4</title>
<path fill="none" stroke="midnightblue" d="M216.45,-112.444C193.969,-103.517 158.512,-89.4387 133.02,-79.3168"/>
<polygon fill="midnightblue" stroke="midnightblue" points="134.035,-75.9539 123.449,-75.5164 131.451,-82.4598 134.035,-75.9539"/>
</g>
<!-- Node5 -->
<g id="node5" class="node"><title>Node5</title>
<polygon fill="none" stroke="#bfbfbf" points="142,-56.5 142,-75.5 194,-75.5 194,-56.5 142,-56.5"/>
<text text-anchor="middle" x="168" y="-63.5" font-family="Helvetica,sans-Serif" font-size="10.00">stdarg.h</text>
</g>
<!-- Node2&#45;&gt;Node5 -->
<g id="edge4" class="edge"><title>Node2&#45;&gt;Node5</title>
<path fill="none" stroke="midnightblue" d="M226.753,-112.324C216.203,-104.185 200.199,-91.8395 187.558,-82.0874"/>
<polygon fill="midnightblue" stroke="midnightblue" points="189.507,-79.1707 179.451,-75.8339 185.231,-84.7132 189.507,-79.1707"/>
</g>
<!-- Node6 -->
<g id="node6" class="node"><title>Node6</title>
<polygon fill="none" stroke="#bfbfbf" points="212,-56.5 212,-75.5 264,-75.5 264,-56.5 212,-56.5"/>
<text text-anchor="middle" x="238" y="-63.5" font-family="Helvetica,sans-Serif" font-size="10.00">stddef.h</text>
</g>
<!-- Node2&#45;&gt;Node6 -->
<g id="edge5" class="edge"><title>Node2&#45;&gt;Node6</title>
<path fill="none" stroke="midnightblue" d="M238,-112.083C238,-105.006 238,-94.8611 238,-85.9865"/>
<polygon fill="midnightblue" stroke="midnightblue" points="241.5,-85.751 238,-75.7511 234.5,-85.7511 241.5,-85.751"/>
</g>
<!-- Node7 -->
<g id="node7" class="node"><title>Node7</title>
<polygon fill="none" stroke="#bfbfbf" points="282.5,-56.5 282.5,-75.5 331.5,-75.5 331.5,-56.5 282.5,-56.5"/>
<text text-anchor="middle" x="307" y="-63.5" font-family="Helvetica,sans-Serif" font-size="10.00">string.h</text>
</g>
<!-- Node2&#45;&gt;Node7 -->
<g id="edge6" class="edge"><title>Node2&#45;&gt;Node7</title>
<path fill="none" stroke="midnightblue" d="M249.086,-112.324C259.486,-104.185 275.261,-91.8395 287.722,-82.0874"/>
<polygon fill="midnightblue" stroke="midnightblue" points="289.994,-84.7533 295.712,-75.8339 285.68,-79.2407 289.994,-84.7533"/>
</g>
<!-- Node8 -->
<g id="node8" class="node"><title>Node8</title>
<polygon fill="none" stroke="#bfbfbf" points="350,-56.5 350,-75.5 402,-75.5 402,-56.5 350,-56.5"/>
<text text-anchor="middle" x="376" y="-63.5" font-family="Helvetica,sans-Serif" font-size="10.00">assert.h</text>
</g>
<!-- Node2&#45;&gt;Node8 -->
<g id="edge7" class="edge"><title>Node2&#45;&gt;Node8</title>
<path fill="none" stroke="midnightblue" d="M259.867,-112.444C282.779,-103.478 318.975,-89.314 344.866,-79.1827"/>
<polygon fill="midnightblue" stroke="midnightblue" points="346.199,-82.4198 354.236,-75.5164 343.648,-75.9011 346.199,-82.4198"/>
</g>
<!-- Node10&#45;&gt;Node9 -->
<g id="edge12" class="edge"><title>Node10&#45;&gt;Node9</title>
<path fill="none" stroke="midnightblue" d="M578.954,-56.083C583.104,-48.6127 589.153,-37.7244 594.267,-28.5199"/>
<polygon fill="midnightblue" stroke="midnightblue" points="597.341,-30.1924 599.138,-19.7511 591.222,-26.7929 597.341,-30.1924"/>
</g>
<!-- Node11 -->
<g id="node11" class="node"><title>Node11</title>
<polygon fill="none" stroke="#bfbfbf" points="452,-0.5 452,-19.5 490,-19.5 490,-0.5 452,-0.5"/>
<text text-anchor="middle" x="471" y="-7.5" font-family="Helvetica,sans-Serif" font-size="10.00">array</text>
</g>
<!-- Node10&#45;&gt;Node11 -->
<g id="edge10" class="edge"><title>Node10&#45;&gt;Node11</title>
<path fill="none" stroke="midnightblue" d="M557.451,-56.324C541.008,-47.7034 515.565,-34.3643 496.532,-24.3855"/>
<polygon fill="midnightblue" stroke="midnightblue" points="497.989,-21.198 487.508,-19.6545 494.739,-27.3977 497.989,-21.198"/>
</g>
<!-- Node12 -->
<g id="node12" class="node"><title>Node12</title>
<polygon fill="none" stroke="#bfbfbf" points="655.5,-0.5 655.5,-19.5 704.5,-19.5 704.5,-0.5 655.5,-0.5"/>
<text text-anchor="middle" x="680" y="-7.5" font-family="Helvetica,sans-Serif" font-size="10.00">cstddef</text>
</g>
<!-- Node10&#45;&gt;Node12 -->
<g id="edge11" class="edge"><title>Node10&#45;&gt;Node12</title>
<path fill="none" stroke="midnightblue" d="M591.031,-56.324C608.03,-47.6641 634.376,-34.2424 653.993,-24.249"/>
<polygon fill="midnightblue" stroke="midnightblue" points="655.69,-27.3125 663.012,-19.6545 652.512,-21.0752 655.69,-27.3125"/>
</g>
<!-- Node13 -->
<g id="node13" class="node"><title>Node13</title>
<polygon fill="none" stroke="#bfbfbf" points="515.5,-0.5 515.5,-19.5 556.5,-19.5 556.5,-0.5 515.5,-0.5"/>
<text text-anchor="middle" x="536" y="-7.5" font-family="Helvetica,sans-Serif" font-size="10.00">regex</text>
</g>
<!-- Node10&#45;&gt;Node13 -->
<g id="edge13" class="edge"><title>Node10&#45;&gt;Node13</title>
<path fill="none" stroke="midnightblue" d="M567.725,-56.083C562.358,-48.4554 554.482,-37.2645 547.921,-27.9408"/>
<polygon fill="midnightblue" stroke="midnightblue" points="550.775,-25.9149 542.158,-19.7511 545.051,-29.9434 550.775,-25.9149"/>
</g>
<!-- Node14 -->
<g id="node14" class="node"><title>Node14</title>
<polygon fill="none" stroke="#bfbfbf" points="850.5,-0.5 850.5,-19.5 891.5,-19.5 891.5,-0.5 850.5,-0.5"/>
<text text-anchor="middle" x="871" y="-7.5" font-family="Helvetica,sans-Serif" font-size="10.00">string</text>
</g>
<!-- Node10&#45;&gt;Node14 -->
<g id="edge14" class="edge"><title>Node10&#45;&gt;Node14</title>
<path fill="none" stroke="midnightblue" d="M621.061,-56.4435C682.576,-45.2589 788.578,-25.9859 840.519,-16.542"/>
<polygon fill="midnightblue" stroke="midnightblue" points="841.24,-19.9684 850.452,-14.7359 839.987,-13.0813 841.24,-19.9684"/>
</g>
<!-- Node15 -->
<g id="node15" class="node"><title>Node15</title>
<polygon fill="none" stroke="#bfbfbf" points="767,-0.5 767,-19.5 811,-19.5 811,-0.5 767,-0.5"/>
<text text-anchor="middle" x="789" y="-7.5" font-family="Helvetica,sans-Serif" font-size="10.00">vector</text>
</g>
<!-- Node10&#45;&gt;Node15 -->
<g id="edge15" class="edge"><title>Node10&#45;&gt;Node15</title>
<path fill="none" stroke="midnightblue" d="M608.067,-56.4435C649.023,-46.157 717.218,-29.0289 757.157,-18.9978"/>
<polygon fill="midnightblue" stroke="midnightblue" points="758.062,-22.3794 766.908,-16.5488 756.356,-15.5902 758.062,-22.3794"/>
</g>
<!-- Node16&#45;&gt;Node11 -->
<g id="edge36" class="edge"><title>Node16&#45;&gt;Node11</title>
<path fill="none" stroke="midnightblue" d="M780.826,-121.338C690.519,-120.504 529.219,-113.6 487,-76 474.136,-64.5439 470.805,-44.5644 470.28,-29.7715"/>
<polygon fill="midnightblue" stroke="midnightblue" points="473.78,-29.7092 470.314,-19.6973 466.78,-29.6854 473.78,-29.7092"/>
</g>
<!-- Node16&#45;&gt;Node12 -->
<g id="edge32" class="edge"><title>Node16&#45;&gt;Node12</title>
<path fill="none" stroke="midnightblue" d="M780.729,-114.948C752.391,-109.148 720.468,-97.8688 699,-76 687.042,-63.8188 682.537,-44.5475 680.876,-30.1462"/>
<polygon fill="midnightblue" stroke="midnightblue" points="684.341,-29.5636 680.067,-19.8693 677.363,-30.1132 684.341,-29.5636"/>
</g>
<!-- Node16&#45;&gt;Node14 -->
<g id="edge33" class="edge"><title>Node16&#45;&gt;Node14</title>
<path fill="none" stroke="midnightblue" d="M866.788,-112.499C882.721,-105.413 902.463,-93.6052 912,-76 921.544,-58.3808 905.778,-39.0631 891.115,-26.104"/>
<polygon fill="midnightblue" stroke="midnightblue" points="893.189,-23.2779 883.25,-19.6099 888.732,-28.6758 893.189,-23.2779"/>
</g>
<!-- Node16&#45;&gt;Node15 -->
<g id="edge34" class="edge"><title>Node16&#45;&gt;Node15</title>
<path fill="none" stroke="midnightblue" d="M853.862,-112.438C868.45,-99.8627 891.207,-75.752 879,-56 866.429,-35.66 841.573,-24.2062 821.161,-17.9508"/>
<polygon fill="midnightblue" stroke="midnightblue" points="821.849,-14.5094 811.277,-15.2076 819.977,-21.2545 821.849,-14.5094"/>
</g>
<!-- Node17 -->
<g id="node17" class="node"><title>Node17</title>
<g id="a_node17"><a xlink:href="../../d8/d4a/LogParsingHelpers_8h.html" target="_top" xlink:title="Framework/LogParsingHelpers.h">
<polygon fill="none" stroke="black" points="963.5,-56.5 963.5,-75.5 1122.5,-75.5 1122.5,-56.5 963.5,-56.5"/>
<text text-anchor="middle" x="1043" y="-63.5" font-family="Helvetica,sans-Serif" font-size="10.00">Framework/LogParsingHelpers.h</text>
</a>
</g>
</g>
<!-- Node16&#45;&gt;Node17 -->
<g id="edge17" class="edge"><title>Node16&#45;&gt;Node17</title>
<path fill="none" stroke="midnightblue" d="M874.691,-112.444C909.068,-103.162 964.077,-88.3093 1001.79,-78.127"/>
<polygon fill="midnightblue" stroke="midnightblue" points="1002.72,-81.5022 1011.46,-75.5164 1000.89,-74.7442 1002.72,-81.5022"/>
</g>
<!-- Node18 -->
<g id="node18" class="node"><title>Node18</title>
<g id="a_node18"><a xlink:href="../../d0/d2c/Metric2DViewIndex_8h.html" target="_top" xlink:title="Framework/Metric2DViewIndex.h">
<polygon fill="none" stroke="black" points="708,-56.5 708,-75.5 870,-75.5 870,-56.5 708,-56.5"/>
<text text-anchor="middle" x="789" y="-63.5" font-family="Helvetica,sans-Serif" font-size="10.00">Framework/Metric2DViewIndex.h</text>
</a>
</g>
</g>
<!-- Node16&#45;&gt;Node18 -->
<g id="edge19" class="edge"><title>Node16&#45;&gt;Node18</title>
<path fill="none" stroke="midnightblue" d="M834.083,-112.083C826.22,-104.22 814.569,-92.5688 805.081,-83.0813"/>
<polygon fill="midnightblue" stroke="midnightblue" points="807.297,-80.3473 797.751,-75.7511 802.347,-85.2971 807.297,-80.3473"/>
</g>
<!-- Node19 -->
<g id="node19" class="node"><title>Node19</title>
<g id="a_node19"><a xlink:href="../../de/d56/Variant_8h.html" target="_top" xlink:title="Framework/Variant.h">
<polygon fill="none" stroke="black" points="1140.5,-56.5 1140.5,-75.5 1247.5,-75.5 1247.5,-56.5 1140.5,-56.5"/>
<text text-anchor="middle" x="1194" y="-63.5" font-family="Helvetica,sans-Serif" font-size="10.00">Framework/Variant.h</text>
</a>
</g>
</g>
<!-- Node16&#45;&gt;Node19 -->
<g id="edge24" class="edge"><title>Node16&#45;&gt;Node19</title>
<path fill="none" stroke="midnightblue" d="M898.617,-112.444C961.683,-102.741 1064.31,-86.9518 1130.48,-76.7725"/>
<polygon fill="midnightblue" stroke="midnightblue" points="1131.02,-80.2308 1140.37,-75.2508 1129.95,-73.3121 1131.02,-80.2308"/>
</g>
<!-- Node27 -->
<g id="node27" class="node"><title>Node27</title>
<polygon fill="none" stroke="#bfbfbf" points="1265.5,-56.5 1265.5,-75.5 1316.5,-75.5 1316.5,-56.5 1265.5,-56.5"/>
<text text-anchor="middle" x="1291" y="-63.5" font-family="Helvetica,sans-Serif" font-size="10.00">unistd.h</text>
</g>
<!-- Node16&#45;&gt;Node27 -->
<g id="edge35" class="edge"><title>Node16&#45;&gt;Node27</title>
<path fill="none" stroke="midnightblue" d="M905.329,-113.023C908.26,-112.672 911.161,-112.329 914,-112 1062.56,-94.7672 1103.82,-102.742 1255.34,-75.8461"/>
<polygon fill="midnightblue" stroke="midnightblue" points="1256.26,-79.2372 1265.48,-74.0234 1255.02,-72.3476 1256.26,-79.2372"/>
</g>
<!-- Node17&#45;&gt;Node14 -->
<g id="edge18" class="edge"><title>Node17&#45;&gt;Node14</title>
<path fill="none" stroke="midnightblue" d="M1015.75,-56.4435C984.633,-46.6756 933.871,-30.7385 901.473,-20.5673"/>
<polygon fill="midnightblue" stroke="midnightblue" points="902.238,-17.1388 891.648,-17.4826 900.141,-23.8174 902.238,-17.1388"/>
</g>
<!-- Node18&#45;&gt;Node9 -->
<g id="edge20" class="edge"><title>Node18&#45;&gt;Node9</title>
<path fill="none" stroke="midnightblue" d="M759.686,-56.4435C728.158,-47.2406 677.869,-32.5617 643.014,-22.3879"/>
<polygon fill="midnightblue" stroke="midnightblue" points="643.757,-18.9587 633.177,-19.5164 641.795,-25.6783 643.757,-18.9587"/>
</g>
<!-- Node18&#45;&gt;Node12 -->
<g id="edge21" class="edge"><title>Node18&#45;&gt;Node12</title>
<path fill="none" stroke="midnightblue" d="M771.487,-56.324C753.928,-47.6247 726.669,-34.1202 706.469,-24.113"/>
<polygon fill="midnightblue" stroke="midnightblue" points="707.984,-20.9575 697.469,-19.6545 704.876,-27.23 707.984,-20.9575"/>
</g>
<!-- Node18&#45;&gt;Node14 -->
<g id="edge22" class="edge"><title>Node18&#45;&gt;Node14</title>
<path fill="none" stroke="midnightblue" d="M802.175,-56.324C814.847,-47.979 834.233,-35.2122 849.206,-25.3524"/>
<polygon fill="midnightblue" stroke="midnightblue" points="851.431,-28.0776 857.858,-19.6545 847.581,-22.2313 851.431,-28.0776"/>
</g>
<!-- Node18&#45;&gt;Node15 -->
<g id="edge23" class="edge"><title>Node18&#45;&gt;Node15</title>
<path fill="none" stroke="midnightblue" d="M789,-56.083C789,-49.0059 789,-38.8611 789,-29.9865"/>
<polygon fill="midnightblue" stroke="midnightblue" points="792.5,-29.751 789,-19.7511 785.5,-29.7511 792.5,-29.751"/>
</g>
<!-- Node20 -->
<g id="node20" class="node"><title>Node20</title>
<polygon fill="none" stroke="#bfbfbf" points="1163,-0.5 1163,-19.5 1225,-19.5 1225,-0.5 1163,-0.5"/>
<text text-anchor="middle" x="1194" y="-7.5" font-family="Helvetica,sans-Serif" font-size="10.00">type_traits</text>
</g>
<!-- Node19&#45;&gt;Node20 -->
<g id="edge25" class="edge"><title>Node19&#45;&gt;Node20</title>
<path fill="none" stroke="midnightblue" d="M1194,-56.083C1194,-49.0059 1194,-38.8611 1194,-29.9865"/>
<polygon fill="midnightblue" stroke="midnightblue" points="1197.5,-29.751 1194,-19.7511 1190.5,-29.7511 1197.5,-29.751"/>
</g>
<!-- Node21 -->
<g id="node21" class="node"><title>Node21</title>
<polygon fill="none" stroke="#bfbfbf" points="1243,-0.5 1243,-19.5 1289,-19.5 1289,-0.5 1243,-0.5"/>
<text text-anchor="middle" x="1266" y="-7.5" font-family="Helvetica,sans-Serif" font-size="10.00">cstring</text>
</g>
<!-- Node19&#45;&gt;Node21 -->
<g id="edge26" class="edge"><title>Node19&#45;&gt;Node21</title>
<path fill="none" stroke="midnightblue" d="M1205.57,-56.324C1216.42,-48.1849 1232.88,-35.8395 1245.88,-26.0874"/>
<polygon fill="midnightblue" stroke="midnightblue" points="1248.32,-28.6339 1254.22,-19.8339 1244.12,-23.0339 1248.32,-28.6339"/>
</g>
<!-- Node22 -->
<g id="node22" class="node"><title>Node22</title>
<polygon fill="none" stroke="#bfbfbf" points="1307,-0.5 1307,-19.5 1353,-19.5 1353,-0.5 1307,-0.5"/>
<text text-anchor="middle" x="1330" y="-7.5" font-family="Helvetica,sans-Serif" font-size="10.00">cstdint</text>
</g>
<!-- Node19&#45;&gt;Node22 -->
<g id="edge27" class="edge"><title>Node19&#45;&gt;Node22</title>
<path fill="none" stroke="midnightblue" d="M1215.55,-56.4435C1238.03,-47.5171 1273.49,-33.4387 1298.98,-23.3168"/>
<polygon fill="midnightblue" stroke="midnightblue" points="1300.55,-26.4598 1308.55,-19.5164 1297.97,-19.9539 1300.55,-26.4598"/>
</g>
<!-- Node23 -->
<g id="node23" class="node"><title>Node23</title>
<polygon fill="none" stroke="#bfbfbf" points="1371.5,-0.5 1371.5,-19.5 1416.5,-19.5 1416.5,-0.5 1371.5,-0.5"/>
<text text-anchor="middle" x="1394" y="-7.5" font-family="Helvetica,sans-Serif" font-size="10.00">cstdlib</text>
</g>
<!-- Node19&#45;&gt;Node23 -->
<g id="edge28" class="edge"><title>Node19&#45;&gt;Node23</title>
<path fill="none" stroke="midnightblue" d="M1226.24,-56.4921C1258.1,-48.0557 1308.49,-34.6396 1361.38,-20.1446"/>
<polygon fill="midnightblue" stroke="midnightblue" points="1362.57,-23.4488 1371.28,-17.4265 1360.71,-16.6985 1362.57,-23.4488"/>
</g>
<!-- Node24 -->
<g id="node24" class="node"><title>Node24</title>
<polygon fill="none" stroke="#bfbfbf" points="931.5,-0.5 931.5,-19.5 990.5,-19.5 990.5,-0.5 931.5,-0.5"/>
<text text-anchor="middle" x="961" y="-7.5" font-family="Helvetica,sans-Serif" font-size="10.00">stdexcept</text>
</g>
<!-- Node19&#45;&gt;Node24 -->
<g id="edge29" class="edge"><title>Node19&#45;&gt;Node24</title>
<path fill="none" stroke="midnightblue" d="M1157.08,-56.4435C1114.43,-46.5595 1044.53,-30.3589 1000.73,-20.2072"/>
<polygon fill="midnightblue" stroke="midnightblue" points="1001.26,-16.7368 990.723,-17.8886 999.675,-23.5561 1001.26,-16.7368"/>
</g>
<!-- Node25 -->
<g id="node25" class="node"><title>Node25</title>
<polygon fill="none" stroke="#bfbfbf" points="1008.5,-0.5 1008.5,-19.5 1053.5,-19.5 1053.5,-0.5 1008.5,-0.5"/>
<text text-anchor="middle" x="1031" y="-7.5" font-family="Helvetica,sans-Serif" font-size="10.00">iosfwd</text>
</g>
<!-- Node19&#45;&gt;Node25 -->
<g id="edge30" class="edge"><title>Node19&#45;&gt;Node25</title>
<path fill="none" stroke="midnightblue" d="M1168.17,-56.4435C1139.78,-47.0385 1094.13,-31.9142 1063.37,-21.7242"/>
<polygon fill="midnightblue" stroke="midnightblue" points="1064.15,-18.2955 1053.56,-18.473 1061.95,-24.9403 1064.15,-18.2955"/>
</g>
<!-- Node26 -->
<g id="node26" class="node"><title>Node26</title>
<polygon fill="none" stroke="#bfbfbf" points="1071.5,-0.5 1071.5,-19.5 1144.5,-19.5 1144.5,-0.5 1071.5,-0.5"/>
<text text-anchor="middle" x="1108" y="-7.5" font-family="Helvetica,sans-Serif" font-size="10.00">initializer_list</text>
</g>
<!-- Node19&#45;&gt;Node26 -->
<g id="edge31" class="edge"><title>Node19&#45;&gt;Node26</title>
<path fill="none" stroke="midnightblue" d="M1180.18,-56.324C1166.77,-47.9002 1146.18,-34.9709 1130.41,-25.0741"/>
<polygon fill="midnightblue" stroke="midnightblue" points="1132.11,-22.0081 1121.78,-19.6545 1128.39,-27.9364 1132.11,-22.0081"/>
</g>
</g>
</svg>
        <g id="navigator" transform="translate(0 0)" fill="#404254">
                <rect fill="#f2f5e9" fill-opacity="0.5" stroke="#606060" stroke-width=".5" x="0" y="0" width="60" height="60"/>
                <use id="zoomplus" xlink:href="#zoomPlus" x="17" y="9" onmousedown="handleZoom(evt,'in')"/>
                <use id="zoomminus" xlink:href="#zoomMin" x="42" y="9" onmousedown="handleZoom(evt,'out')"/>
                <use id="reset" xlink:href="#resetDef" x="30" y="36" onmousedown="handleReset()"/>
                <g id="arrowUp" xlink:href="#dirArrow" transform="translate(30 24)" onmousedown="handlePan(0,-1)">
                  <use xlink:href="#rim" fill="#404040">
                        <set attributeName="fill" to="#808080" begin="arrowUp.mouseover" end="arrowUp.mouseout"/>
                  </use>
                  <path fill="none" stroke="white" stroke-width="1.5" d="M0,-3.0v7 M-2.5,-0.5L0,-3.0L2.5,-0.5"/>
                </g>
                <g id="arrowRight" xlink:href="#dirArrow" transform="rotate(90) translate(36 -43)" onmousedown="handlePan(1,0)">
                  <use xlink:href="#rim" fill="#404040">
                        <set attributeName="fill" to="#808080" begin="arrowRight.mouseover" end="arrowRight.mouseout"/>
                  </use>
                  <path fill="none" stroke="white" stroke-width="1.5" d="M0,-3.0v7 M-2.5,-0.5L0,-3.0L2.5,-0.5"/>
                </g>
                <g id="arrowDown" xlink:href="#dirArrow" transform="rotate(180) translate(-30 -48)" onmousedown="handlePan(0,1)">
                  <use xlink:href="#rim" fill="#404040">
                        <set attributeName="fill" to="#808080" begin="arrowDown.mouseover" end="arrowDown.mouseout"/>
                  </use>
                  <path fill="none" stroke="white" stroke-width="1.5" d="M0,-3.0v7 M-2.5,-0.5L0,-3.0L2.5,-0.5"/>
                </g>
                <g id="arrowLeft" xlink:href="#dirArrow" transform="rotate(270) translate(-36 17)" onmousedown="handlePan(-1,0)">
                  <use xlink:href="#rim" fill="#404040">
                        <set attributeName="fill" to="#808080" begin="arrowLeft.mouseover" end="arrowLeft.mouseout"/>
                  </use>
                  <path fill="none" stroke="white" stroke-width="1.5" d="M0,-3.0v7 M-2.5,-0.5L0,-3.0L2.5,-0.5"/>
                </g>
        </g>
        <svg viewBox="0 0 15 15" width="100%" height="30px" preserveAspectRatio="xMaxYMin meet">
         <g id="arrow_out" transform="scale(0.3 0.3)">
          <a xlink:href="FrameworkGUIDataRelayerUsage_8cxx__incl_org.svg" target="_base">
           <rect id="button" ry="5" rx="5" y="6" x="6" height="38" width="38"
                fill="#f2f5e9" fill-opacity="0.5" stroke="#606060" stroke-width="1.0"/>
           <path id="arrow"
             d="M 11.500037,31.436501 C 11.940474,20.09759 22.043105,11.32322 32.158766,21.979434 L 37.068811,17.246167 C 37.068811,17.246167 37.088388,32 37.088388,32 L 22.160133,31.978069 C 22.160133,31.978069 26.997745,27.140456 26.997745,27.140456 C 18.528582,18.264221 13.291696,25.230495 11.500037,31.436501 z"
             style="fill:#404040;"/>
          </a>
         </g>
        </svg>
</svg>
