<?xml version="1.0" encoding="UTF-8" standalone="no"?>
<!DOCTYPE svg PUBLIC "-//W3C//DTD SVG 1.1//EN"
 "http://www.w3.org/Graphics/SVG/1.1/DTD/svg11.dtd">
<!-- Generated by graphviz version 2.36.0 (20140111.2315)
 -->
<!-- Title: /home/travis/build/AliceO2Group/AliceO2/Framework/Core/test/benchmark_DataDescriptorMatcher.cxx Pages: 1 -->
<!--zoomable 322 -->
<svg id="main" version="1.1" xmlns="http://www.w3.org/2000/svg" xmlns:xlink="http://www.w3.org/1999/xlink" xml:space="preserve" onload="init(evt)">
<style type="text/css"><![CDATA[
.edge:hover path { stroke: red; }
.edge:hover polygon { stroke: red; fill: red; }
]]></style>
<script type="text/javascript"><![CDATA[
var edges = document.getElementsByTagName('g');
if (edges && edges.length) {
  for (var i=0;i<edges.length;i++) {
    if (edges[i].id.substr(0,4)=='edge') {
      edges[i].setAttribute('class','edge');
    }
  }
}
]]></script>
        <defs>
                <circle id="rim" cx="0" cy="0" r="7"/>
                <circle id="rim2" cx="0" cy="0" r="3.5"/>
                <g id="zoomPlus">
                        <use xlink:href="#rim" fill="#404040">
                                <set attributeName="fill" to="#808080" begin="zoomplus.mouseover" end="zoomplus.mouseout"/>
                        </use>
                        <path d="M-4,0h8M0,-4v8" fill="none" stroke="white" stroke-width="1.5" pointer-events="none"/>
                </g>
                <g id="zoomMin">
                        <use xlink:href="#rim" fill="#404040">
                                <set attributeName="fill" to="#808080" begin="zoomminus.mouseover" end="zoomminus.mouseout"/>
                        </use>
                        <path d="M-4,0h8" fill="none" stroke="white" stroke-width="1.5" pointer-events="none"/>
                </g>
                <g id="dirArrow">
                        <path fill="none" stroke="white" stroke-width="1.5" d="M0,-3.0v7 M-2.5,-0.5L0,-3.0L2.5,-0.5"/>
                </g>
               <g id="resetDef">
                       <use xlink:href="#rim2" fill="#404040">
                               <set attributeName="fill" to="#808080" begin="reset.mouseover" end="reset.mouseout"/>
                       </use>
               </g>
        </defs>

<script type="text/javascript">
var viewWidth = 1779;
var viewHeight = 322;
var sectionId = 'dynsection-0';
</script>
<script xlink:href="../../svgpan.js"/>
<svg id="graph" class="graph">
<g id="viewport">
<title>/home/travis/build/AliceO2Group/AliceO2/Framework/Core/test/benchmark_DataDescriptorMatcher.cxx</title>
<!-- Node1 -->
<g id="node1" class="node"><title>Node1</title>
<polygon fill="#bfbfbf" stroke="black" points="1342.5,-261 1342.5,-313 1505.5,-313 1505.5,-261 1342.5,-261"/>
<text text-anchor="start" x="1350.5" y="-301" font-family="Helvetica,sans-Serif" font-size="10.00">/home/travis/build</text>
<text text-anchor="start" x="1350.5" y="-290" font-family="Helvetica,sans-Serif" font-size="10.00">/AliceO2Group/AliceO2</text>
<text text-anchor="start" x="1350.5" y="-279" font-family="Helvetica,sans-Serif" font-size="10.00">/Framework/Core/test/benchmark</text>
<text text-anchor="middle" x="1424" y="-268" font-family="Helvetica,sans-Serif" font-size="10.00">_DataDescriptorMatcher.cxx</text>
</g>
<!-- Node2 -->
<g id="node2" class="node"><title>Node2</title>
<polygon fill="none" stroke="#bfbfbf" points="1272,-198.5 1272,-217.5 1396,-217.5 1396,-198.5 1272,-198.5"/>
<text text-anchor="middle" x="1334" y="-205.5" font-family="Helvetica,sans-Serif" font-size="10.00">benchmark/benchmark.h</text>
</g>
<!-- Node1&#45;&gt;Node2 -->
<g id="edge1" class="edge"><title>Node1&#45;&gt;Node2</title>
<path fill="none" stroke="midnightblue" d="M1394.53,-260.787C1380.37,-248.671 1363.87,-234.553 1351.67,-224.121"/>
<polygon fill="midnightblue" stroke="midnightblue" points="1353.88,-221.399 1344,-217.558 1349.33,-226.718 1353.88,-221.399"/>
</g>
<!-- Node3 -->
<g id="node3" class="node"><title>Node3</title>
<g id="a_node3"><a xlink:href="../../dc/dcd/DataHeader_8h.html" target="_top" xlink:title="Headers/DataHeader.h">
<polygon fill="none" stroke="black" points="1403.5,-68.5 1403.5,-87.5 1520.5,-87.5 1520.5,-68.5 1403.5,-68.5"/>
<text text-anchor="middle" x="1462" y="-75.5" font-family="Helvetica,sans-Serif" font-size="10.00">Headers/DataHeader.h</text>
</a>
</g>
</g>
<!-- Node1&#45;&gt;Node3 -->
<g id="edge2" class="edge"><title>Node1&#45;&gt;Node3</title>
<path fill="none" stroke="midnightblue" d="M1428.66,-260.618C1436.42,-218.352 1451.81,-134.533 1458.62,-97.421"/>
<polygon fill="midnightblue" stroke="midnightblue" points="1462.08,-97.9682 1460.44,-87.5006 1455.19,-96.7042 1462.08,-97.9682"/>
</g>
<!-- Node12 -->
<g id="node12" class="node"><title>Node12</title>
<g id="a_node12"><a xlink:href="../../d3/da3/DataDescriptorMatcher_8h.html" target="_top" xlink:title="Framework/DataDescriptor\lMatcher.h">
<polygon fill="none" stroke="black" points="1452,-193 1452,-223 1586,-223 1586,-193 1452,-193"/>
<text text-anchor="start" x="1460" y="-211" font-family="Helvetica,sans-Serif" font-size="10.00">Framework/DataDescriptor</text>
<text text-anchor="middle" x="1519" y="-200" font-family="Helvetica,sans-Serif" font-size="10.00">Matcher.h</text>
</a>
</g>
</g>
<!-- Node1&#45;&gt;Node12 -->
<g id="edge11" class="edge"><title>Node1&#45;&gt;Node12</title>
<path fill="none" stroke="midnightblue" d="M1455.11,-260.787C1467.68,-250.595 1482,-238.987 1493.9,-229.348"/>
<polygon fill="midnightblue" stroke="midnightblue" points="1496.12,-232.046 1501.69,-223.031 1491.72,-226.608 1496.12,-232.046"/>
</g>
<!-- Node4 -->
<g id="node4" class="node"><title>Node4</title>
<polygon fill="none" stroke="#bfbfbf" points="1713,-6.5 1713,-25.5 1759,-25.5 1759,-6.5 1713,-6.5"/>
<text text-anchor="middle" x="1736" y="-13.5" font-family="Helvetica,sans-Serif" font-size="10.00">cstdint</text>
</g>
<!-- Node3&#45;&gt;Node4 -->
<g id="edge3" class="edge"><title>Node3&#45;&gt;Node4</title>
<path fill="none" stroke="midnightblue" d="M1516.04,-68.4734C1576.05,-58.7279 1668.95,-42.7413 1703,-32 1705.28,-31.2811 1707.61,-30.4454 1709.92,-29.5435"/>
<polygon fill="midnightblue" stroke="midnightblue" points="1711.36,-32.736 1719.18,-25.5921 1708.61,-26.2976 1711.36,-32.736"/>
</g>
<!-- Node5 -->
<g id="node5" class="node"><title>Node5</title>
<polygon fill="none" stroke="#bfbfbf" points="1575,-6.5 1575,-25.5 1627,-25.5 1627,-6.5 1575,-6.5"/>
<text text-anchor="middle" x="1601" y="-13.5" font-family="Helvetica,sans-Serif" font-size="10.00">memory</text>
</g>
<!-- Node3&#45;&gt;Node5 -->
<g id="edge4" class="edge"><title>Node3&#45;&gt;Node5</title>
<path fill="none" stroke="midnightblue" d="M1481.92,-68.4035C1505.45,-58.245 1544.81,-41.2547 1571.79,-29.6074"/>
<polygon fill="midnightblue" stroke="midnightblue" points="1573.33,-32.7572 1581.12,-25.5806 1570.55,-26.3303 1573.33,-32.7572"/>
</g>
<!-- Node6 -->
<g id="node6" class="node"><title>Node6</title>
<polygon fill="none" stroke="#bfbfbf" points="1645.5,-6.5 1645.5,-25.5 1694.5,-25.5 1694.5,-6.5 1645.5,-6.5"/>
<text text-anchor="middle" x="1670" y="-13.5" font-family="Helvetica,sans-Serif" font-size="10.00">cassert</text>
</g>
<!-- Node3&#45;&gt;Node6 -->
<g id="edge5" class="edge"><title>Node3&#45;&gt;Node6</title>
<path fill="none" stroke="midnightblue" d="M1502.64,-68.4583C1538.26,-60.5072 1591.2,-47.5606 1636,-32 1638.13,-31.2605 1640.31,-30.4434 1642.49,-29.5837"/>
<polygon fill="midnightblue" stroke="midnightblue" points="1644,-32.7463 1651.87,-25.6506 1641.29,-26.2911 1644,-32.7463"/>
</g>
<!-- Node7 -->
<g id="node7" class="node"><title>Node7</title>
<polygon fill="none" stroke="#bfbfbf" points="1204,-6.5 1204,-25.5 1250,-25.5 1250,-6.5 1204,-6.5"/>
<text text-anchor="middle" x="1227" y="-13.5" font-family="Helvetica,sans-Serif" font-size="10.00">cstring</text>
</g>
<!-- Node3&#45;&gt;Node7 -->
<g id="edge6" class="edge"><title>Node3&#45;&gt;Node7</title>
<path fill="none" stroke="midnightblue" d="M1408.55,-68.4733C1367.09,-61.0699 1308.55,-48.8743 1259,-32 1257.08,-31.3473 1255.13,-30.6136 1253.18,-29.8306"/>
<polygon fill="midnightblue" stroke="midnightblue" points="1254.22,-26.4638 1243.65,-25.6523 1251.4,-32.8743 1254.22,-26.4638"/>
</g>
<!-- Node8 -->
<g id="node8" class="node"><title>Node8</title>
<polygon fill="none" stroke="#bfbfbf" points="1501,-6.5 1501,-25.5 1557,-25.5 1557,-6.5 1501,-6.5"/>
<text text-anchor="middle" x="1529" y="-13.5" font-family="Helvetica,sans-Serif" font-size="10.00">algorithm</text>
</g>
<!-- Node3&#45;&gt;Node8 -->
<g id="edge7" class="edge"><title>Node3&#45;&gt;Node8</title>
<path fill="none" stroke="midnightblue" d="M1471.6,-68.4035C1482.05,-59.047 1498.97,-43.8948 1511.74,-32.4599"/>
<polygon fill="midnightblue" stroke="midnightblue" points="1514.3,-34.8592 1519.42,-25.5806 1509.63,-29.6445 1514.3,-34.8592"/>
</g>
<!-- Node9 -->
<g id="node9" class="node"><title>Node9</title>
<polygon fill="none" stroke="#bfbfbf" points="1268.5,-6.5 1268.5,-25.5 1327.5,-25.5 1327.5,-6.5 1268.5,-6.5"/>
<text text-anchor="middle" x="1298" y="-13.5" font-family="Helvetica,sans-Serif" font-size="10.00">stdexcept</text>
</g>
<!-- Node3&#45;&gt;Node9 -->
<g id="edge8" class="edge"><title>Node3&#45;&gt;Node9</title>
<path fill="none" stroke="midnightblue" d="M1437.29,-68.4437C1411.82,-59.563 1371.01,-45.1564 1336,-32 1333.62,-31.1049 1331.16,-30.166 1328.69,-29.2133"/>
<polygon fill="midnightblue" stroke="midnightblue" points="1329.84,-25.9078 1319.26,-25.5333 1327.3,-32.429 1329.84,-25.9078"/>
</g>
<!-- Node10 -->
<g id="node10" class="node"><title>Node10</title>
<polygon fill="none" stroke="#bfbfbf" points="1144.5,-6.5 1144.5,-25.5 1185.5,-25.5 1185.5,-6.5 1144.5,-6.5"/>
<text text-anchor="middle" x="1165" y="-13.5" font-family="Helvetica,sans-Serif" font-size="10.00">string</text>
</g>
<!-- Node3&#45;&gt;Node10 -->
<g id="edge9" class="edge"><title>Node3&#45;&gt;Node10</title>
<path fill="none" stroke="midnightblue" d="M1403.24,-69.1678C1336.72,-59.9374 1232.71,-44.2999 1195,-32 1193.09,-31.377 1191.15,-30.6495 1189.22,-29.857"/>
<polygon fill="midnightblue" stroke="midnightblue" points="1190.44,-26.5616 1179.89,-25.5352 1187.49,-32.9135 1190.44,-26.5616"/>
</g>
<!-- Node11 -->
<g id="node11" class="node"><title>Node11</title>
<g id="a_node11"><a xlink:href="../../d7/df8/Types_8h.html" target="_top" xlink:title="MemoryResources/Types.h">
<polygon fill="none" stroke="black" points="1345.5,-6.5 1345.5,-25.5 1482.5,-25.5 1482.5,-6.5 1345.5,-6.5"/>
<text text-anchor="middle" x="1414" y="-13.5" font-family="Helvetica,sans-Serif" font-size="10.00">MemoryResources/Types.h</text>
</a>
</g>
</g>
<!-- Node3&#45;&gt;Node11 -->
<g id="edge10" class="edge"><title>Node3&#45;&gt;Node11</title>
<path fill="none" stroke="midnightblue" d="M1455.12,-68.4035C1447.85,-59.3143 1436.2,-44.7559 1427.16,-33.4489"/>
<polygon fill="midnightblue" stroke="midnightblue" points="1429.84,-31.2029 1420.86,-25.5806 1424.38,-35.5757 1429.84,-31.2029"/>
</g>
<!-- Node12&#45;&gt;Node3 -->
<g id="edge23" class="edge"><title>Node12&#45;&gt;Node3</title>
<path fill="none" stroke="midnightblue" d="M1506.01,-192.839C1497.74,-183.124 1487.41,-169.579 1481,-156 1472.2,-137.365 1467.2,-114.199 1464.56,-98.1713"/>
<polygon fill="midnightblue" stroke="midnightblue" points="1467.97,-97.3043 1463.03,-87.9284 1461.04,-98.3347 1467.97,-97.3043"/>
</g>
<!-- Node12&#45;&gt;Node4 -->
<g id="edge40" class="edge"><title>Node12&#45;&gt;Node4</title>
<path fill="none" stroke="midnightblue" d="M1586.22,-201.865C1648.91,-195.514 1735.85,-182.167 1757,-156 1785.55,-120.686 1761.51,-63.2785 1746.24,-34.5474"/>
<polygon fill="midnightblue" stroke="midnightblue" points="1749.22,-32.7068 1741.3,-25.664 1743.1,-36.1056 1749.22,-32.7068"/>
</g>
<!-- Node12&#45;&gt;Node10 -->
<g id="edge41" class="edge"><title>Node12&#45;&gt;Node10</title>
<path fill="none" stroke="midnightblue" d="M1451.85,-196.316C1388.45,-185.725 1298.29,-169.216 1265,-156 1211.93,-134.929 1183.7,-137.929 1156,-88 1147.08,-71.9131 1151.48,-50.6842 1156.79,-35.6426"/>
<polygon fill="midnightblue" stroke="midnightblue" points="1160.2,-36.5315 1160.63,-25.9454 1153.69,-33.9524 1160.2,-36.5315"/>
</g>
<!-- Node13 -->
<g id="node13" class="node"><title>Node13</title>
<g id="a_node13"><a xlink:href="../../d5/d3f/InputSpec_8h.html" target="_top" xlink:title="Framework/InputSpec.h">
<polygon fill="none" stroke="black" points="1274.5,-130.5 1274.5,-149.5 1395.5,-149.5 1395.5,-130.5 1274.5,-130.5"/>
<text text-anchor="middle" x="1335" y="-137.5" font-family="Helvetica,sans-Serif" font-size="10.00">Framework/InputSpec.h</text>
</a>
</g>
</g>
<!-- Node12&#45;&gt;Node13 -->
<g id="edge12" class="edge"><title>Node12&#45;&gt;Node13</title>
<path fill="none" stroke="midnightblue" d="M1479.53,-192.841C1446.46,-180.982 1399.79,-164.239 1368.51,-153.022"/>
<polygon fill="midnightblue" stroke="midnightblue" points="1369.53,-149.669 1358.94,-149.587 1367.17,-156.258 1369.53,-149.669"/>
</g>
<!-- Node16 -->
<g id="node16" class="node"><title>Node16</title>
<g id="a_node16"><a xlink:href="../../d6/dc9/DataProcessingHeader_8h.html" target="_top" xlink:title="Framework/DataProcessing\lHeader.h">
<polygon fill="none" stroke="black" points="1490,-125 1490,-155 1628,-155 1628,-125 1490,-125"/>
<text text-anchor="start" x="1498" y="-143" font-family="Helvetica,sans-Serif" font-size="10.00">Framework/DataProcessing</text>
<text text-anchor="middle" x="1559" y="-132" font-family="Helvetica,sans-Serif" font-size="10.00">Header.h</text>
</a>
</g>
</g>
<!-- Node12&#45;&gt;Node16 -->
<g id="edge17" class="edge"><title>Node12&#45;&gt;Node16</title>
<path fill="none" stroke="midnightblue" d="M1527.68,-192.679C1532.76,-184.29 1539.3,-173.499 1545.09,-163.949"/>
<polygon fill="midnightblue" stroke="midnightblue" points="1548.15,-165.659 1550.34,-155.293 1542.16,-162.031 1548.15,-165.659"/>
</g>
<!-- Node18 -->
<g id="node18" class="node"><title>Node18</title>
<g id="a_node18"><a xlink:href="../../d4/d00/Headers_2include_2Headers_2Stack_8h.html" target="_top" xlink:title="Headers/Stack.h">
<polygon fill="none" stroke="black" points="1081,-130.5 1081,-149.5 1171,-149.5 1171,-130.5 1081,-130.5"/>
<text text-anchor="middle" x="1126" y="-137.5" font-family="Helvetica,sans-Serif" font-size="10.00">Headers/Stack.h</text>
</a>
</g>
</g>
<!-- Node12&#45;&gt;Node18 -->
<g id="edge24" class="edge"><title>Node12&#45;&gt;Node18</title>
<path fill="none" stroke="midnightblue" d="M1451.76,-197.525C1369.38,-185.778 1234.65,-166.078 1185,-156 1179.16,-154.815 1173.03,-153.424 1167.02,-151.976"/>
<polygon fill="midnightblue" stroke="midnightblue" points="1167.65,-148.525 1157.1,-149.511 1165.96,-155.319 1167.65,-148.525"/>
</g>
<!-- Node26 -->
<g id="node26" class="node"><title>Node26</title>
<polygon fill="none" stroke="#bfbfbf" points="1082,-6.5 1082,-25.5 1126,-25.5 1126,-6.5 1082,-6.5"/>
<text text-anchor="middle" x="1104" y="-13.5" font-family="Helvetica,sans-Serif" font-size="10.00">vector</text>
</g>
<!-- Node12&#45;&gt;Node26 -->
<g id="edge43" class="edge"><title>Node12&#45;&gt;Node26</title>
<path fill="none" stroke="midnightblue" d="M1451.84,-197.991C1436.15,-195.955 1419.49,-193.85 1404,-192 1330.31,-183.2 1121.57,-211.231 1072,-156 1041.09,-121.559 1072.36,-63.3315 1091.5,-34.3973"/>
<polygon fill="midnightblue" stroke="midnightblue" points="1094.64,-36.0085 1097.42,-25.7846 1088.87,-32.044 1094.64,-36.0085"/>
</g>
<!-- Node30 -->
<g id="node30" class="node"><title>Node30</title>
<polygon fill="none" stroke="#bfbfbf" points="1646,-130.5 1646,-149.5 1684,-149.5 1684,-130.5 1646,-130.5"/>
<text text-anchor="middle" x="1665" y="-137.5" font-family="Helvetica,sans-Serif" font-size="10.00">array</text>
</g>
<!-- Node12&#45;&gt;Node30 -->
<g id="edge39" class="edge"><title>Node12&#45;&gt;Node30</title>
<path fill="none" stroke="midnightblue" d="M1553.68,-192.912C1577.38,-183.067 1609.37,-169.344 1637,-156 1638.15,-155.447 1639.31,-154.872 1640.49,-154.283"/>
<polygon fill="midnightblue" stroke="midnightblue" points="1642.16,-157.358 1649.42,-149.644 1638.93,-151.145 1642.16,-157.358"/>
</g>
<!-- Node31 -->
<g id="node31" class="node"><title>Node31</title>
<polygon fill="none" stroke="#bfbfbf" points="1702,-130.5 1702,-149.5 1748,-149.5 1748,-130.5 1702,-130.5"/>
<text text-anchor="middle" x="1725" y="-137.5" font-family="Helvetica,sans-Serif" font-size="10.00">variant</text>
</g>
<!-- Node12&#45;&gt;Node31 -->
<g id="edge42" class="edge"><title>Node12&#45;&gt;Node31</title>
<path fill="none" stroke="midnightblue" d="M1574.96,-192.94C1609.43,-183.706 1654.28,-170.649 1693,-156 1694.85,-155.3 1696.74,-154.538 1698.64,-153.741"/>
<polygon fill="midnightblue" stroke="midnightblue" points="1700.23,-156.862 1707.94,-149.589 1697.38,-150.47 1700.23,-156.862"/>
</g>
<!-- Node13&#45;&gt;Node3 -->
<g id="edge14" class="edge"><title>Node13&#45;&gt;Node3</title>
<path fill="none" stroke="midnightblue" d="M1353.2,-130.403C1374.51,-120.334 1410.03,-103.552 1434.66,-91.9151"/>
<polygon fill="midnightblue" stroke="midnightblue" points="1436.29,-95.0169 1443.84,-87.5806 1433.3,-88.6877 1436.29,-95.0169"/>
</g>
<!-- Node13&#45;&gt;Node10 -->
<g id="edge15" class="edge"><title>Node13&#45;&gt;Node10</title>
<path fill="none" stroke="midnightblue" d="M1342.2,-130.163C1353.09,-115.685 1370.95,-86.6598 1356,-68 1310.16,-10.7752 1264.08,-56.5776 1195,-32 1193.15,-31.3412 1191.26,-30.5955 1189.39,-29.7971"/>
<polygon fill="midnightblue" stroke="midnightblue" points="1190.8,-26.5925 1180.26,-25.5258 1187.83,-32.9331 1190.8,-26.5925"/>
</g>
<!-- Node14 -->
<g id="node14" class="node"><title>Node14</title>
<g id="a_node14"><a xlink:href="../../dc/dca/Lifetime_8h.html" target="_top" xlink:title="Framework/Lifetime.h">
<polygon fill="none" stroke="black" points="1165.5,-68.5 1165.5,-87.5 1276.5,-87.5 1276.5,-68.5 1165.5,-68.5"/>
<text text-anchor="middle" x="1221" y="-75.5" font-family="Helvetica,sans-Serif" font-size="10.00">Framework/Lifetime.h</text>
</a>
</g>
</g>
<!-- Node13&#45;&gt;Node14 -->
<g id="edge13" class="edge"><title>Node13&#45;&gt;Node14</title>
<path fill="none" stroke="midnightblue" d="M1318.67,-130.403C1299.79,-120.468 1268.49,-103.997 1246.42,-92.3812"/>
<polygon fill="midnightblue" stroke="midnightblue" points="1247.78,-89.1409 1237.3,-87.5806 1244.52,-95.3353 1247.78,-89.1409"/>
</g>
<!-- Node15 -->
<g id="node15" class="node"><title>Node15</title>
<polygon fill="none" stroke="#bfbfbf" points="1295,-68.5 1295,-87.5 1347,-87.5 1347,-68.5 1295,-68.5"/>
<text text-anchor="middle" x="1321" y="-75.5" font-family="Helvetica,sans-Serif" font-size="10.00">ostream</text>
</g>
<!-- Node13&#45;&gt;Node15 -->
<g id="edge16" class="edge"><title>Node13&#45;&gt;Node15</title>
<path fill="none" stroke="midnightblue" d="M1332.99,-130.403C1331,-121.849 1327.87,-108.45 1325.31,-97.4762"/>
<polygon fill="midnightblue" stroke="midnightblue" points="1328.68,-96.5237 1323,-87.5806 1321.87,-98.1143 1328.68,-96.5237"/>
</g>
<!-- Node16&#45;&gt;Node3 -->
<g id="edge18" class="edge"><title>Node16&#45;&gt;Node3</title>
<path fill="none" stroke="midnightblue" d="M1536.01,-124.781C1520.52,-115.196 1500.16,-102.606 1484.72,-93.0555"/>
<polygon fill="midnightblue" stroke="midnightblue" points="1486.18,-89.8397 1475.83,-87.5557 1482.5,-95.7929 1486.18,-89.8397"/>
</g>
<!-- Node16&#45;&gt;Node4 -->
<g id="edge19" class="edge"><title>Node16&#45;&gt;Node4</title>
<path fill="none" stroke="midnightblue" d="M1579.65,-124.766C1613.64,-101.34 1680.99,-54.9168 1715.12,-31.3893"/>
<polygon fill="midnightblue" stroke="midnightblue" points="1717.18,-34.2202 1723.43,-25.6632 1713.21,-28.4566 1717.18,-34.2202"/>
</g>
<!-- Node16&#45;&gt;Node5 -->
<g id="edge21" class="edge"><title>Node16&#45;&gt;Node5</title>
<path fill="none" stroke="midnightblue" d="M1569.86,-124.614C1576.72,-114.804 1585.17,-101.238 1590,-88 1596.21,-70.9877 1598.91,-50.4352 1600.09,-35.83"/>
<polygon fill="midnightblue" stroke="midnightblue" points="1603.6,-35.776 1600.75,-25.5732 1596.62,-35.3297 1603.6,-35.776"/>
</g>
<!-- Node16&#45;&gt;Node6 -->
<g id="edge22" class="edge"><title>Node16&#45;&gt;Node6</title>
<path fill="none" stroke="midnightblue" d="M1572.21,-124.749C1581.65,-114.543 1594.64,-100.459 1606,-88 1623.01,-69.3399 1642.4,-47.7826 1655.34,-33.3622"/>
<polygon fill="midnightblue" stroke="midnightblue" points="1658.08,-35.5543 1662.15,-25.7723 1652.87,-30.8812 1658.08,-35.5543"/>
</g>
<!-- Node17 -->
<g id="node17" class="node"><title>Node17</title>
<polygon fill="none" stroke="#bfbfbf" points="1538.5,-68.5 1538.5,-87.5 1581.5,-87.5 1581.5,-68.5 1538.5,-68.5"/>
<text text-anchor="middle" x="1560" y="-75.5" font-family="Helvetica,sans-Serif" font-size="10.00">cstdio</text>
</g>
<!-- Node16&#45;&gt;Node17 -->
<g id="edge20" class="edge"><title>Node16&#45;&gt;Node17</title>
<path fill="none" stroke="midnightblue" d="M1559.24,-124.781C1559.37,-116.781 1559.54,-106.689 1559.68,-98.0168"/>
<polygon fill="midnightblue" stroke="midnightblue" points="1563.19,-97.7875 1559.85,-87.7305 1556.19,-97.6708 1563.19,-97.7875"/>
</g>
<!-- Node18&#45;&gt;Node3 -->
<g id="edge38" class="edge"><title>Node18&#45;&gt;Node3</title>
<path fill="none" stroke="midnightblue" d="M1171.31,-130.908C1231.51,-120.16 1337.9,-101.161 1403.92,-89.3717"/>
<polygon fill="midnightblue" stroke="midnightblue" points="1404.93,-92.7472 1414.15,-87.5438 1403.7,-85.8562 1404.93,-92.7472"/>
</g>
<!-- Node19 -->
<g id="node19" class="node"><title>Node19</title>
<g id="a_node19"><a xlink:href="../../dc/d03/MemoryResources_8h.html" target="_top" xlink:title="MemoryResources/MemoryResources.h">
<polygon fill="none" stroke="black" points="776.5,-68.5 776.5,-87.5 969.5,-87.5 969.5,-68.5 776.5,-68.5"/>
<text text-anchor="middle" x="873" y="-75.5" font-family="Helvetica,sans-Serif" font-size="10.00">MemoryResources/MemoryResources.h</text>
</a>
</g>
</g>
<!-- Node18&#45;&gt;Node19 -->
<g id="edge25" class="edge"><title>Node18&#45;&gt;Node19</title>
<path fill="none" stroke="midnightblue" d="M1090.02,-130.467C1044.97,-119.783 967.743,-101.469 918.595,-89.8129"/>
<polygon fill="midnightblue" stroke="midnightblue" points="919.394,-86.4055 908.856,-87.5034 917.778,-93.2165 919.394,-86.4055"/>
</g>
<!-- Node19&#45;&gt;Node7 -->
<g id="edge30" class="edge"><title>Node19&#45;&gt;Node7</title>
<path fill="none" stroke="midnightblue" d="M969.675,-70.7244C1034.19,-64.7739 1120.38,-53.4067 1194,-32 1196.35,-31.3181 1198.74,-30.4981 1201.11,-29.5977"/>
<polygon fill="midnightblue" stroke="midnightblue" points="1202.73,-32.7145 1210.57,-25.5904 1199.99,-26.2692 1202.73,-32.7145"/>
</g>
<!-- Node19&#45;&gt;Node10 -->
<g id="edge31" class="edge"><title>Node19&#45;&gt;Node10</title>
<path fill="none" stroke="midnightblue" d="M957.892,-68.4625C1009.65,-61.7672 1076.65,-50.4153 1134,-32 1136.13,-31.3168 1138.29,-30.5134 1140.44,-29.6394"/>
<polygon fill="midnightblue" stroke="midnightblue" points="1141.91,-32.8179 1149.58,-25.5102 1139.03,-26.4391 1141.91,-32.8179"/>
</g>
<!-- Node20 -->
<g id="node20" class="node"><title>Node20</title>
<polygon fill="none" stroke="#bfbfbf" points="264,-1 264,-31 364,-31 364,-1 264,-1"/>
<text text-anchor="start" x="272" y="-19" font-family="Helvetica,sans-Serif" font-size="10.00">boost/container/flat</text>
<text text-anchor="middle" x="314" y="-8" font-family="Helvetica,sans-Serif" font-size="10.00">_map.hpp</text>
</g>
<!-- Node19&#45;&gt;Node20 -->
<g id="edge26" class="edge"><title>Node19&#45;&gt;Node20</title>
<path fill="none" stroke="midnightblue" d="M776.091,-72.855C677.2,-67.5823 519.248,-56.2841 374.081,-32.008"/>
<polygon fill="midnightblue" stroke="midnightblue" points="374.54,-28.536 364.096,-30.314 373.369,-35.4373 374.54,-28.536"/>
</g>
<!-- Node21 -->
<g id="node21" class="node"><title>Node21</title>
<polygon fill="none" stroke="#bfbfbf" points="382,-1 382,-31 498,-31 498,-1 382,-1"/>
<text text-anchor="start" x="390" y="-19" font-family="Helvetica,sans-Serif" font-size="10.00">boost/container/pmr</text>
<text text-anchor="middle" x="440" y="-8" font-family="Helvetica,sans-Serif" font-size="10.00">/memory_resource.hpp</text>
</g>
<!-- Node19&#45;&gt;Node21 -->
<g id="edge27" class="edge"><title>Node19&#45;&gt;Node21</title>
<path fill="none" stroke="midnightblue" d="M783.518,-68.4704C711.59,-61.0416 607.785,-49.0371 507.99,-32.0696"/>
<polygon fill="midnightblue" stroke="midnightblue" points="508.484,-28.6032 498.035,-30.358 507.298,-35.502 508.484,-28.6032"/>
</g>
<!-- Node22 -->
<g id="node22" class="node"><title>Node22</title>
<polygon fill="none" stroke="#bfbfbf" points="516,-1 516,-31 672,-31 672,-1 516,-1"/>
<text text-anchor="start" x="524" y="-19" font-family="Helvetica,sans-Serif" font-size="10.00">boost/container/pmr</text>
<text text-anchor="middle" x="594" y="-8" font-family="Helvetica,sans-Serif" font-size="10.00">/monotonic_buffer_resource.hpp</text>
</g>
<!-- Node19&#45;&gt;Node22 -->
<g id="edge28" class="edge"><title>Node19&#45;&gt;Node22</title>
<path fill="none" stroke="midnightblue" d="M833.322,-68.4672C790.781,-59.3184 722.23,-44.5763 669.375,-33.2097"/>
<polygon fill="midnightblue" stroke="midnightblue" points="669.875,-29.7373 659.363,-31.0565 668.403,-36.5808 669.875,-29.7373"/>
</g>
<!-- Node23 -->
<g id="node23" class="node"><title>Node23</title>
<polygon fill="none" stroke="#bfbfbf" points="690.5,-1 690.5,-31 823.5,-31 823.5,-1 690.5,-1"/>
<text text-anchor="start" x="698.5" y="-19" font-family="Helvetica,sans-Serif" font-size="10.00">boost/container/pmr</text>
<text text-anchor="middle" x="757" y="-8" font-family="Helvetica,sans-Serif" font-size="10.00">/polymorphic_allocator.hpp</text>
</g>
<!-- Node19&#45;&gt;Node23 -->
<g id="edge29" class="edge"><title>Node19&#45;&gt;Node23</title>
<path fill="none" stroke="midnightblue" d="M856.38,-68.4035C840.009,-59.9355 814.459,-46.7204 793.366,-35.8101"/>
<polygon fill="midnightblue" stroke="midnightblue" points="794.829,-32.6263 784.339,-31.1408 791.613,-38.8439 794.829,-32.6263"/>
</g>
<!-- Node24 -->
<g id="node24" class="node"><title>Node24</title>
<polygon fill="none" stroke="#bfbfbf" points="842,-6.5 842,-25.5 904,-25.5 904,-6.5 842,-6.5"/>
<text text-anchor="middle" x="873" y="-13.5" font-family="Helvetica,sans-Serif" font-size="10.00">type_traits</text>
</g>
<!-- Node19&#45;&gt;Node24 -->
<g id="edge32" class="edge"><title>Node19&#45;&gt;Node24</title>
<path fill="none" stroke="midnightblue" d="M873,-68.4035C873,-59.9381 873,-46.7283 873,-35.8199"/>
<polygon fill="midnightblue" stroke="midnightblue" points="876.5,-35.5806 873,-25.5806 869.5,-35.5806 876.5,-35.5806"/>
</g>
<!-- Node25 -->
<g id="node25" class="node"><title>Node25</title>
<polygon fill="none" stroke="#bfbfbf" points="922,-6.5 922,-25.5 962,-25.5 962,-6.5 922,-6.5"/>
<text text-anchor="middle" x="942" y="-13.5" font-family="Helvetica,sans-Serif" font-size="10.00">utility</text>
</g>
<!-- Node19&#45;&gt;Node25 -->
<g id="edge33" class="edge"><title>Node19&#45;&gt;Node25</title>
<path fill="none" stroke="midnightblue" d="M882.886,-68.4035C893.646,-59.047 911.071,-43.8948 924.221,-32.4599"/>
<polygon fill="midnightblue" stroke="midnightblue" points="926.883,-34.7835 932.132,-25.5806 922.29,-29.5013 926.883,-34.7835"/>
</g>
<!-- Node19&#45;&gt;Node26 -->
<g id="edge34" class="edge"><title>Node19&#45;&gt;Node26</title>
<path fill="none" stroke="midnightblue" d="M924.973,-68.4299C965.631,-60.9689 1023.25,-48.7181 1072,-32 1073.92,-31.3432 1075.87,-30.6065 1077.82,-29.8213"/>
<polygon fill="midnightblue" stroke="midnightblue" points="1079.59,-32.864 1087.34,-25.6383 1076.78,-26.4548 1079.59,-32.864"/>
</g>
<!-- Node27 -->
<g id="node27" class="node"><title>Node27</title>
<polygon fill="none" stroke="#bfbfbf" points="980.5,-6.5 980.5,-25.5 1063.5,-25.5 1063.5,-6.5 980.5,-6.5"/>
<text text-anchor="middle" x="1022" y="-13.5" font-family="Helvetica,sans-Serif" font-size="10.00">unordered_map</text>
</g>
<!-- Node19&#45;&gt;Node27 -->
<g id="edge35" class="edge"><title>Node19&#45;&gt;Node27</title>
<path fill="none" stroke="midnightblue" d="M894.348,-68.4035C919.686,-58.2004 962.138,-41.1055 991.071,-29.4544"/>
<polygon fill="midnightblue" stroke="midnightblue" points="992.723,-32.5627 1000.69,-25.5806 990.108,-26.0694 992.723,-32.5627"/>
</g>
<!-- Node28 -->
<g id="node28" class="node"><title>Node28</title>
<polygon fill="none" stroke="#bfbfbf" points="-0.5,-6.5 -0.5,-25.5 96.5,-25.5 96.5,-6.5 -0.5,-6.5"/>
<text text-anchor="middle" x="48" y="-13.5" font-family="Helvetica,sans-Serif" font-size="10.00">FairMQMessage.h</text>
</g>
<!-- Node19&#45;&gt;Node28 -->
<g id="edge36" class="edge"><title>Node19&#45;&gt;Node28</title>
<path fill="none" stroke="midnightblue" d="M776.252,-77.4699C629.985,-76.8001 344.234,-70.0983 105,-32 98.6999,-30.9967 92.0878,-29.5925 85.6894,-28.0421"/>
<polygon fill="midnightblue" stroke="midnightblue" points="86.4426,-24.622 75.8861,-25.5221 84.6998,-31.4016 86.4426,-24.622"/>
</g>
<!-- Node29 -->
<g id="node29" class="node"><title>Node29</title>
<polygon fill="none" stroke="#bfbfbf" points="114.5,-6.5 114.5,-25.5 245.5,-25.5 245.5,-6.5 114.5,-6.5"/>
<text text-anchor="middle" x="180" y="-13.5" font-family="Helvetica,sans-Serif" font-size="10.00">FairMQTransportFactory.h</text>
</g>
<!-- Node19&#45;&gt;Node29 -->
<g id="edge37" class="edge"><title>Node19&#45;&gt;Node29</title>
<path fill="none" stroke="midnightblue" d="M776.273,-73.6908C654.296,-68.6615 438.346,-56.9109 255,-32 246.205,-30.805 236.889,-29.2114 227.925,-27.5088"/>
<polygon fill="midnightblue" stroke="midnightblue" points="228.487,-24.0524 217.999,-25.5557 227.135,-30.9207 228.487,-24.0524"/>
</g>
</g>
</svg>
        <g id="navigator" transform="translate(0 0)" fill="#404254">
                <rect fill="#f2f5e9" fill-opacity="0.5" stroke="#606060" stroke-width=".5" x="0" y="0" width="60" height="60"/>
                <use id="zoomplus" xlink:href="#zoomPlus" x="17" y="9" onmousedown="handleZoom(evt,'in')"/>
                <use id="zoomminus" xlink:href="#zoomMin" x="42" y="9" onmousedown="handleZoom(evt,'out')"/>
                <use id="reset" xlink:href="#resetDef" x="30" y="36" onmousedown="handleReset()"/>
                <g id="arrowUp" xlink:href="#dirArrow" transform="translate(30 24)" onmousedown="handlePan(0,-1)">
                  <use xlink:href="#rim" fill="#404040">
                        <set attributeName="fill" to="#808080" begin="arrowUp.mouseover" end="arrowUp.mouseout"/>
                  </use>
                  <path fill="none" stroke="white" stroke-width="1.5" d="M0,-3.0v7 M-2.5,-0.5L0,-3.0L2.5,-0.5"/>
                </g>
                <g id="arrowRight" xlink:href="#dirArrow" transform="rotate(90) translate(36 -43)" onmousedown="handlePan(1,0)">
                  <use xlink:href="#rim" fill="#404040">
                        <set attributeName="fill" to="#808080" begin="arrowRight.mouseover" end="arrowRight.mouseout"/>
                  </use>
                  <path fill="none" stroke="white" stroke-width="1.5" d="M0,-3.0v7 M-2.5,-0.5L0,-3.0L2.5,-0.5"/>
                </g>
                <g id="arrowDown" xlink:href="#dirArrow" transform="rotate(180) translate(-30 -48)" onmousedown="handlePan(0,1)">
                  <use xlink:href="#rim" fill="#404040">
                        <set attributeName="fill" to="#808080" begin="arrowDown.mouseover" end="arrowDown.mouseout"/>
                  </use>
                  <path fill="none" stroke="white" stroke-width="1.5" d="M0,-3.0v7 M-2.5,-0.5L0,-3.0L2.5,-0.5"/>
                </g>
                <g id="arrowLeft" xlink:href="#dirArrow" transform="rotate(270) translate(-36 17)" onmousedown="handlePan(-1,0)">
                  <use xlink:href="#rim" fill="#404040">
                        <set attributeName="fill" to="#808080" begin="arrowLeft.mouseover" end="arrowLeft.mouseout"/>
                  </use>
                  <path fill="none" stroke="white" stroke-width="1.5" d="M0,-3.0v7 M-2.5,-0.5L0,-3.0L2.5,-0.5"/>
                </g>
        </g>
        <svg viewBox="0 0 15 15" width="100%" height="30px" preserveAspectRatio="xMaxYMin meet">
         <g id="arrow_out" transform="scale(0.3 0.3)">
          <a xlink:href="benchmark__DataDescriptorMatcher_8cxx__incl_org.svg" target="_base">
           <rect id="button" ry="5" rx="5" y="6" x="6" height="38" width="38"
                fill="#f2f5e9" fill-opacity="0.5" stroke="#606060" stroke-width="1.0"/>
           <path id="arrow"
             d="M 11.500037,31.436501 C 11.940474,20.09759 22.043105,11.32322 32.158766,21.979434 L 37.068811,17.246167 C 37.068811,17.246167 37.088388,32 37.088388,32 L 22.160133,31.978069 C 22.160133,31.978069 26.997745,27.140456 26.997745,27.140456 C 18.528582,18.264221 13.291696,25.230495 11.500037,31.436501 z"
             style="fill:#404040;"/>
          </a>
         </g>
        </svg>
</svg>
